<svg width="224" height="160" viewBox="0 0 224 160" fill="none" xmlns="http://www.w3.org/2000/svg">
<rect width="224" height="160" rx="16" fill="white"/>
<path d="M109.778 43C106.082 43 102.421 43.7279 99.0061 45.1425C95.5909 46.5571 92.488 48.6309 89.8738 51.2445C87.2601 53.8581 85.187 56.961 83.7724 60.3762C82.3578 63.7915 81.6299 67.4517 81.6299 71.1481C81.6299 74.8446 82.3578 78.5048 83.7724 81.92C85.187 85.3353 87.2601 88.4382 89.8738 91.0518C92.488 93.6654 95.5909 95.7392 99.0061 97.1538C102.421 98.5684 106.082 99.2963 109.778 99.2963V71.1481V43Z" fill="#0075FF"/>
<path d="M114.223 43H116.017C128.117 43 137.926 53.2809 137.926 65.963L114.223 43Z" fill="#FE02B9"/>
<path d="M114.223 79.2961H137.926V99.2961H114.223V79.2961Z" fill="#7E3BDC"/>
<path d="M137.926 79.2962C137.926 85.8418 132.62 91.148 126.075 91.148C119.529 91.148 114.223 85.8418 114.223 79.2962C114.223 72.7506 119.529 67.4443 126.075 67.4443C132.62 67.4443 137.926 72.7506 137.926 79.2962Z" fill="#7E3BDC"/>
<path d="M77.5179 112.169C77.3486 111.834 77.115 111.579 76.8178 111.404C76.5206 111.229 76.1741 111.141 75.7779 111.141C75.3389 111.141 74.9499 111.247 74.6106 111.461C74.2708 111.674 74.0054 111.979 73.8145 112.375C73.6235 112.771 73.5281 113.228 73.5281 113.746C73.5281 114.28 73.6235 114.745 73.8145 115.14C74.0126 115.537 74.2852 115.841 74.6317 116.055C74.9781 116.268 75.3816 116.375 75.8415 116.375C76.4077 116.375 76.8706 116.215 77.2315 115.895C77.5923 115.567 77.8295 115.114 77.9424 114.535H75.396V113.312H79.4074V114.707C79.3083 115.263 79.0958 115.777 78.7704 116.249C78.4449 116.721 78.024 117.102 77.5077 117.392C76.9979 117.674 76.4251 117.815 75.7887 117.815C75.0736 117.815 74.4263 117.643 73.8463 117.301C73.2735 116.95 72.8208 116.466 72.4881 115.849C72.1627 115.232 72 114.531 72 113.746C72 112.961 72.1627 112.261 72.4881 111.644C72.8208 111.019 73.2735 110.535 73.8463 110.192C74.4263 109.842 75.0706 109.667 75.7779 109.667C76.6124 109.667 77.3378 109.888 77.9532 110.329C78.5686 110.764 78.9931 111.377 79.2267 112.169H77.5179Z" fill="#170627"/>
<path d="M89.8397 116.264H86.7426L86.2302 117.815H84.5928L87.3886 109.667H89.2044L92.0002 117.815H90.3521L89.8397 116.264ZM89.4161 114.959L88.2911 111.555L87.1661 114.959H89.4161Z" fill="#170627"/>
<path d="M102.371 109.667V110.985H100.487V117.815H99.0694V110.985H97.1855V109.667H102.371Z" fill="#170627"/>
<path d="M109.092 110.995V113.035H111.671V114.329H109.092V116.486H112V117.815H107.556V109.667H112V110.995H109.092Z" fill="#170627"/>
<path d="M128.296 109.667L126.232 117.803H124.487L123.1 112.01L121.65 117.803L119.915 117.815L117.926 109.667H119.513L120.815 115.985L122.317 109.667H123.968L125.386 115.95L126.698 109.667H128.296Z" fill="#170627"/>
<path d="M138.728 116.264H135.631L135.119 117.815H133.481L136.278 109.667H138.093L140.889 117.815H139.24L138.728 116.264ZM138.304 114.959L137.179 111.555L136.055 114.959H138.304Z" fill="#170627"/>
<path d="M152 109.667L149.433 114.978V117.815H147.91V114.978L145.333 109.667H147.051L148.682 113.39L150.303 109.667H152Z" fill="#170627"/>
</svg>
