<svg width="3586" height="3586" viewBox="0 0 3586 3586" fill="none" xmlns="http://www.w3.org/2000/svg">
<rect width="3586" height="3586" fill="#170627"/>
<path d="M1755.77 1187C1696.61 1187 1638.02 1198.65 1583.37 1221.29C1528.71 1243.93 1479.05 1277.12 1437.21 1318.95C1395.38 1360.78 1362.2 1410.44 1339.56 1465.1C1316.92 1519.76 1305.27 1578.34 1305.27 1637.5C1305.27 1696.66 1316.92 1755.24 1339.56 1809.9C1362.2 1864.56 1395.38 1914.22 1437.21 1956.05C1479.05 1997.88 1528.71 2031.07 1583.37 2053.71C1638.02 2076.35 1696.61 2088 1755.77 2088L1755.77 1637.5L1755.77 1187Z" fill="#0075FF"/>
<path d="M1824.78 1187L1854.24 1187C2052.94 1187 2214.02 1348.08 2214.02 1546.78V1546.78L1824.78 1187Z" fill="#FE02B9"/>
<path d="M1824.78 1766.76H2214.02V2088H1824.78V1766.76Z" fill="#7E3BDC"/>
<path d="M2214.02 1766.76C2214.02 1871.12 2126.88 1955.72 2019.4 1955.72C1911.91 1955.72 1824.78 1871.12 1824.78 1766.76C1824.78 1662.4 1911.91 1577.8 2019.4 1577.8C2126.88 1577.8 2214.02 1662.4 2214.02 1766.76Z" fill="#7E3BDC"/>
<path d="M1238 2299.75C1235.18 2294.56 1231.29 2290.62 1226.34 2287.91C1221.39 2285.2 1215.62 2283.84 1209.02 2283.84C1201.71 2283.84 1195.23 2285.49 1189.58 2288.79C1183.92 2292.09 1179.5 2296.8 1176.32 2302.93C1173.14 2309.06 1171.55 2316.13 1171.55 2324.14C1171.55 2332.39 1173.14 2339.58 1176.32 2345.7C1179.62 2351.83 1184.16 2356.54 1189.93 2359.84C1195.7 2363.14 1202.42 2364.79 1210.08 2364.79C1219.51 2364.79 1227.22 2362.32 1233.23 2357.37C1239.24 2352.3 1243.19 2345.29 1245.07 2336.33H1202.66V2317.42H1269.47V2338.99C1267.82 2347.59 1264.28 2355.54 1258.86 2362.85C1253.44 2370.15 1246.43 2376.04 1237.83 2380.52C1229.34 2384.88 1219.8 2387.06 1209.2 2387.06C1197.29 2387.06 1186.51 2384.41 1176.85 2379.11C1167.31 2373.69 1159.77 2366.2 1154.23 2356.66C1148.81 2347.12 1146.1 2336.28 1146.1 2324.14C1146.1 2312 1148.81 2301.16 1154.23 2291.62C1159.77 2281.96 1167.31 2274.47 1176.85 2269.17C1186.51 2263.75 1197.24 2261.04 1209.02 2261.04C1222.92 2261.04 1235 2264.46 1245.25 2271.29C1255.5 2278.01 1262.57 2287.49 1266.46 2299.75H1238Z" fill="#E5E5E5"/>
<path d="M1434.12 2362.49H1384.98L1376.85 2386H1350.87L1395.23 2262.46H1424.04L1468.4 2386H1442.25L1434.12 2362.49ZM1427.4 2342.7L1409.55 2291.09L1391.7 2342.7H1427.4Z" fill="#E5E5E5"/>
<path d="M1639.64 2262.63V2282.6H1606.76V2386H1582.02V2282.6H1549.14V2262.63H1639.64Z" fill="#E5E5E5"/>
<path d="M1753.13 2282.6V2313.53H1794.67V2333.15H1753.13V2365.85H1799.97V2386H1728.39V2262.46H1799.97V2282.6H1753.13Z" fill="#E5E5E5"/>
<path d="M2058.06 2262.63L2023.59 2386H1994.43L1971.28 2298.16L1947.06 2386L1918.08 2386.18L1884.85 2262.63H1911.36L1933.1 2358.43L1958.2 2262.63H1985.77L2009.45 2357.9L2031.37 2262.63H2058.06Z" fill="#E5E5E5"/>
<path d="M2220.56 2362.49H2171.42L2163.29 2386H2137.31L2181.68 2262.46H2210.48L2254.85 2386H2228.69L2220.56 2362.49ZM2213.84 2342.7L2195.99 2291.09L2178.14 2342.7H2213.84Z" fill="#E5E5E5"/>
<path d="M2440.22 2262.63L2398.51 2343.05V2386H2373.76V2343.05L2331.88 2262.63H2359.8L2386.31 2319.01L2412.65 2262.63H2440.22Z" fill="#E5E5E5"/>
</svg>
