<svg width="121" height="81" viewBox="0 0 121 81" fill="none" xmlns="http://www.w3.org/2000/svg">
<path d="M84.6001 18.9C84.6001 29.3382 76.1383 37.8001 65.7001 37.8001C55.2619 37.8001 46.8 29.3382 46.8 18.9C46.8 8.46183 55.2619 0 65.7001 0C76.1383 0 84.6001 8.46183 84.6001 18.9Z" fill="#D1BAA5"/>
<path d="M96.4548 34.3831C95.2192 34.7708 95.1223 34.8071 90.4948 37.0847L86.4004 39.1079L87.2847 39.5804C87.7571 39.8348 88.5082 40.3073 88.9443 40.6102L89.7196 41.1675L95.7038 38.1387C98.9987 36.4669 101.688 35.0616 101.7 35.0131C101.712 34.9646 101.349 34.7587 100.876 34.5406C100.113 34.2014 99.883 34.1651 98.6959 34.1287C97.5693 34.0924 97.218 34.1408 96.4548 34.3831Z" fill="#D1BAA5"/>
<path d="M105.722 37.788C104.203 38.195 102.586 38.9161 98.1397 41.1725C95.102 42.7194 93.6688 43.5219 93.1054 43.9755L92.7012 44.3011L92.8849 46.6273C92.9951 47.9067 93.0809 49.0116 93.0809 49.093C93.0809 49.1744 94.5263 48.3254 96.3023 47.2204C103.1 42.9636 106.8 41.0562 110.572 39.8815L111.601 39.5675L111.001 38.9859C110.683 38.6719 110.058 38.2532 109.629 38.0438C108.919 37.7182 108.71 37.6717 107.608 37.6484C106.8 37.6251 106.15 37.6717 105.722 37.788Z" fill="#D1BAA5"/>
<path d="M34.6357 37.7034C32.5553 37.8726 31.1026 38.1869 24.1719 39.9638C18.6814 41.3659 16.761 41.5835 7.36819 41.8494L3.2442 41.9582L2.77641 42.478C2.13627 43.2032 1.40995 44.7263 1.04064 46.1163C0.289704 48.9327 -0.0919181 53.2238 0.0188755 57.4424C0.105048 60.6456 0.351256 62.8818 0.831362 64.7432C1.26223 66.3751 1.63154 67.2212 2.2963 68.0431L2.80103 68.6717L14.5944 68.72C24.7997 68.7563 26.5847 68.7926 27.865 68.9739C32.6661 69.6387 39.8307 71.4881 48.2387 74.232C53.0644 75.8154 54.8617 76.4682 58.9118 78.1C63.5652 79.9856 65.2763 80.5054 67.6153 80.7592C70.7175 81.1098 74.2629 79.9977 79.2609 77.1451C79.7041 76.8912 83.1633 74.9572 86.9549 72.854C97.0372 67.2454 97.3572 67.052 102.405 63.3048C108.597 58.6995 114.346 53.9612 117.066 51.1931C121.018 47.1921 121.646 44.3878 118.999 42.6593C116.463 41.0154 113.841 41.1846 109.446 43.2999C106.27 44.823 104.583 45.8746 98.219 50.2503C92.5808 54.1425 90.5373 55.4479 88.4199 56.4995C82.2401 59.5819 74.94 61.3708 69.3757 61.1532C67.5168 61.0807 66.1504 60.8631 59.8105 59.5698C56.2774 58.8566 53.3229 58.3731 51.0332 58.1555C50.2453 58.0709 49.6052 57.9863 49.6298 57.9742C49.716 57.8896 53.5938 57.2127 55.1326 57.0072C56.7821 56.7775 59.392 56.7534 67.3199 56.8501C70.8037 56.8863 71.7147 56.8622 73.1673 56.6808C77.0574 56.1853 80.4181 55.2545 83.0772 53.937C85.1576 52.9095 87.2258 51.0601 87.9152 49.6096C88.383 48.6185 88.5061 47.313 88.2106 46.3097C87.4843 43.868 84.5052 42.2121 79.6672 41.5352C78.3746 41.3538 77.5375 41.3538 72.244 41.4385C68.9571 41.4989 63.676 41.5472 60.4876 41.5472C53.1506 41.5472 53.8153 41.656 46.6876 39.2748C43.8193 38.3078 42.1697 37.9089 40.4955 37.7397C39.326 37.6309 35.8052 37.6067 34.6357 37.7034Z" fill="#D1BAA5"/>
</svg>
