<svg width="90" height="98" viewBox="0 0 90 98" fill="none" xmlns="http://www.w3.org/2000/svg">
<path d="M36.075 4.12824C31.215 6.3874 21.105 11.0682 13.62 14.5301L0 20.8362V24.5419H90V20.8362L87.72 19.7798C75 13.88 45 0 44.97 0C44.94 0.0162529 40.95 1.86909 36.075 4.12824Z" fill="#D1BAA5"/>
<path d="M13.3506 78.3387H20.8506V29.0925H13.3506V78.3387Z" fill="#D1BAA5"/>
<path d="M31.95 78.3387H39.45V29.0925H31.95V78.3387Z" fill="#D1BAA5"/>
<path d="M50.5494 78.3387H58.0494V29.0925H50.5494V78.3387Z" fill="#D1BAA5"/>
<path d="M69.1488 78.3387H76.6488V29.0925H69.1488V78.3387Z" fill="#D1BAA5"/>
<path d="M8.4 86.7905H4.5V91.8288H0V97.5173H90V91.8288H85.5V86.7905H81.6V81.7521H8.4V86.7905Z" fill="#D1BAA5"/>
</svg>
