<svg width="224" height="160" viewBox="0 0 224 160" fill="none" xmlns="http://www.w3.org/2000/svg">
<rect width="224" height="160" rx="16" fill="white"/>
<g clip-path="url(#clip0_1149_32192)">
<path d="M78.9658 106.744C72.2867 106.742 65.836 104.312 60.8155 99.907C55.795 95.5019 52.5471 89.4218 51.677 82.7996C50.807 76.1774 52.374 69.4648 56.0861 63.9122C59.7983 58.3597 65.4024 54.3461 71.8544 52.6191C71.9398 52.5971 72.0299 52.6017 72.1127 52.6323C72.1954 52.6629 72.2668 52.7181 72.3173 52.7905L73.3621 54.2867C73.4104 54.3553 73.4374 54.4365 73.4398 54.5203C73.4422 54.6041 73.4199 54.6867 73.3757 54.758C72.5585 56.0756 72.2327 57.6394 72.4556 59.1737C72.6784 60.7081 73.4358 62.1145 74.5941 63.1452C74.6487 63.1939 74.6898 63.2561 74.7132 63.3255C74.7367 63.3949 74.7417 63.4692 74.7278 63.5412L74.407 65.2715C74.393 65.346 74.3597 65.4155 74.3104 65.4731C74.261 65.5307 74.1974 65.5743 74.126 65.5996C71.2141 66.6328 68.7105 68.573 66.9832 71.1348C65.2559 73.6966 64.396 76.745 64.5298 79.8318C64.8548 87.5942 71.3487 93.7454 79.1173 93.6659C87.0155 93.5855 93.4164 87.1344 93.4164 79.2174C93.4193 76.2331 92.4972 73.3212 90.7771 70.8825C89.0569 68.4438 86.6232 66.5982 83.8109 65.5996C83.7393 65.5746 83.6756 65.5312 83.6261 65.4738C83.5766 65.4164 83.543 65.347 83.5288 65.2725L83.2049 63.5422C83.1913 63.4703 83.1964 63.3961 83.2199 63.3267C83.2433 63.2573 83.2842 63.1952 83.3386 63.1462C84.4968 62.1152 85.2539 60.7085 85.4764 59.1739C85.6989 57.6393 85.3726 56.0754 84.5548 54.758C84.5109 54.6866 84.4888 54.604 84.4912 54.5203C84.4936 54.4366 84.5205 54.3554 84.5684 54.2867L85.6133 52.7905C85.6639 52.7183 85.7354 52.6633 85.8181 52.6329C85.9008 52.6024 85.9909 52.598 86.0762 52.6201C91.8213 54.1696 96.9143 57.5291 100.6 62.2006C103.793 66.2611 105.779 71.138 106.331 76.274C106.883 81.41 105.979 86.5977 103.722 91.2441C101.465 95.8904 97.9464 99.808 93.5679 102.549C89.1895 105.29 84.1282 106.743 78.9627 106.744H78.9658ZM70.1053 55.8969C65.8781 57.5159 62.1661 60.2456 59.3608 63.7982C56.9019 66.9239 55.226 70.5922 54.4729 74.4971C53.7198 78.4021 53.9112 82.4306 55.0313 86.2465C56.1514 90.0624 58.1677 93.5552 60.9119 96.4336C63.6562 99.312 67.0489 101.493 70.8071 102.793C74.5653 104.094 78.58 104.477 82.5164 103.911C86.4529 103.345 90.1969 101.846 93.4363 99.5391C96.6756 97.232 99.3164 94.1838 101.138 90.6488C102.96 87.1138 103.911 83.1944 103.91 79.2174C103.93 73.6214 102.049 68.1846 98.5739 63.7982C95.7687 60.2451 92.0562 57.5153 87.8284 55.8969C88.183 57.2499 88.2237 58.666 87.9475 60.0372C87.6714 61.4084 87.0856 62.6984 86.235 63.8087C89.1569 65.1858 91.6266 67.366 93.3554 70.0945C95.0843 72.8231 96.001 75.9873 95.9983 79.2174C95.9983 88.6088 88.3582 96.2489 78.9669 96.2489C69.5755 96.2489 61.9354 88.6088 61.9354 79.2174C61.9327 75.9871 62.8495 72.8228 64.5786 70.0942C66.3076 67.3656 68.7776 65.1855 71.6998 63.8087C70.8491 62.6984 70.2634 61.4084 69.9872 60.0372C69.7111 58.666 69.7518 57.2499 70.1063 55.8969H70.1053Z" fill="#2362FB"/>
<path d="M116.136 67.1272H118.118V76.717H116.136V67.1272Z" fill="#2362FB"/>
<path d="M117.117 65.4251C117.307 65.4321 117.496 65.3985 117.672 65.3264C117.848 65.2543 118.006 65.1455 118.136 65.0071C118.389 64.7412 118.528 64.3867 118.523 64.0197C118.526 63.8396 118.493 63.6606 118.425 63.4937C118.357 63.3269 118.256 63.1756 118.128 63.049C117.854 62.7961 117.495 62.6555 117.123 62.6555C116.75 62.6555 116.391 62.7961 116.118 63.049C115.986 63.174 115.882 63.3249 115.812 63.4921C115.742 63.6594 115.707 63.8394 115.71 64.0208C115.707 64.2062 115.742 64.3903 115.812 64.5621C115.881 64.734 115.985 64.8901 116.116 65.0212C116.247 65.1523 116.403 65.2558 116.575 65.3256C116.747 65.3953 116.931 65.4299 117.117 65.4272V65.4251ZM131.97 76.7285H133.933V70.4091C133.933 69.2775 133.609 68.3873 132.97 67.7666C132.332 67.146 131.495 66.8325 130.482 66.8325C129.811 66.8222 129.151 67.0007 128.577 67.3477C128.093 67.6428 127.701 68.0659 127.443 68.5702C127.198 68.0739 126.818 67.6563 126.348 67.3644C125.77 67.0055 125.101 66.8208 124.42 66.8325C123.843 66.8285 123.274 66.9685 122.765 67.24C122.37 67.4501 122.025 67.7448 121.757 68.1031L121.652 67.1136H119.869V76.7264H121.854V70.8553C121.842 70.2668 122.049 69.6949 122.435 69.2504C122.623 69.0334 122.857 68.8613 123.12 68.7467C123.383 68.6321 123.668 68.5778 123.955 68.5879C124.582 68.5879 125.062 68.7781 125.41 69.1678C125.758 69.5576 125.932 70.1082 125.932 70.7926V76.7285H127.894V70.8772C127.88 70.282 128.087 69.7027 128.475 69.2514C128.856 68.8126 129.381 68.589 130.037 68.589C130.64 68.589 131.119 68.7697 131.458 69.126C131.798 69.4823 131.973 70.0434 131.973 70.7978L131.97 76.7285ZM137.51 75.5541C137.841 75.9704 138.263 76.3044 138.744 76.53C139.403 76.8362 140.122 76.9891 140.848 76.9772C141.692 76.9895 142.523 76.7705 143.251 76.344C143.962 75.9156 144.536 75.2937 144.906 74.551C145.31 73.7363 145.513 72.8367 145.498 71.9273C145.514 71.0096 145.311 70.1013 144.906 69.2775C144.538 68.536 143.97 67.9128 143.265 67.4793C142.539 67.0536 141.709 66.8366 140.868 66.8524C140.096 66.8426 139.334 67.0315 138.657 67.4009C138.137 67.678 137.691 68.0753 137.356 68.5597L137.231 67.1324H135.569V80.8997H137.51V75.5541ZM138.441 74.3253C137.914 73.7538 137.645 72.967 137.645 71.9817C137.645 70.9765 137.914 70.1657 138.442 69.5732C138.971 68.9808 139.684 68.683 140.567 68.683C141.45 68.683 142.151 68.9787 142.687 69.5617C143.223 70.1448 143.499 70.942 143.499 71.9263C143.499 72.8907 143.225 73.6827 142.686 74.2814C142.147 74.8802 141.432 75.18 140.546 75.18C139.66 75.18 138.967 74.8927 138.441 74.3253ZM153.322 76.4506C153.827 76.1865 154.262 75.8079 154.593 75.3451V76.7285H156.474V67.1387H154.802L154.666 68.4427C154.325 67.9839 153.882 67.6099 153.373 67.3497C152.654 67.004 151.863 66.8364 151.065 66.8611C150.268 66.8858 149.489 67.1022 148.793 67.4918C148.083 67.9234 147.51 68.5463 147.138 69.289C146.748 70.1155 146.544 71.0171 146.54 71.9307C146.535 72.8443 146.73 73.7479 147.112 74.5782C147.47 75.3109 148.029 75.9269 148.724 76.3545C149.439 76.7813 150.258 77.0006 151.091 76.9877C151.868 76.9992 152.636 76.8145 153.322 76.4506V76.4506ZM154.445 71.8772C154.445 72.8813 154.168 73.6911 153.623 74.2804C153.079 74.8697 152.356 75.1685 151.471 75.1685C150.586 75.1685 149.892 74.8687 149.362 74.2773C148.833 73.6859 148.56 72.8865 148.56 71.9158C148.56 70.9452 148.831 70.1521 149.362 69.5597C149.894 68.9672 150.616 68.6726 151.513 68.6726C152.383 68.6726 153.098 68.9651 153.633 69.5408C154.168 70.1166 154.445 70.9065 154.445 71.8772ZM160.073 76.3733C160.872 76.8026 161.768 77.0186 162.675 77.0002C163.869 77.0002 164.902 76.6763 165.745 76.0379C166.572 75.4286 167.125 74.5184 167.286 73.5041L167.309 73.3776H165.286L165.266 73.4623C165.149 73.9869 164.829 74.4441 164.377 74.7349C163.9 75.0609 163.313 75.225 162.633 75.225C161.722 75.225 160.999 74.9251 160.484 74.3337C159.969 73.7423 159.701 72.9367 159.701 71.9503C159.701 70.9253 159.974 70.1082 160.512 69.5231C161.05 68.938 161.766 68.6454 162.633 68.6454C163.313 68.6454 163.897 68.8063 164.367 69.125C164.825 69.427 165.147 69.8948 165.267 70.43L165.287 70.5136H167.307L167.286 70.3872C167.217 69.8783 167.046 69.3885 166.783 68.9469C166.521 68.5052 166.173 68.1206 165.76 67.8158C164.924 67.1888 163.879 66.8701 162.654 66.8701C161.757 66.8538 160.87 67.0717 160.083 67.5023C159.341 67.9192 158.733 68.5381 158.33 69.2869C157.9 70.1002 157.685 71.009 157.703 71.9284C157.703 72.9241 157.912 73.8165 158.322 74.5803C158.721 75.3343 159.329 75.957 160.073 76.3733V76.3733ZM173.023 68.8084V67.1272H170.708V64.724H170.341L167.351 68.2285L167.325 68.2588V68.8126H168.747V73.5511C168.743 74.0459 168.794 74.5397 168.899 75.0233C169.004 75.4841 169.283 75.9041 169.725 76.2698C170.167 76.6355 170.85 76.8257 171.751 76.8257C172.147 76.8257 172.543 76.7907 172.933 76.7212L173.023 76.7045V75.0149H172.918C172.822 75.0201 172.727 75.0305 172.633 75.0463C172.491 75.068 172.347 75.0785 172.203 75.0776C171.644 75.0776 171.253 74.9543 171.04 74.7098C170.828 74.4653 170.713 74.0641 170.713 73.526V68.8084H173.023ZM126.707 82.7407C126.037 82.7298 125.377 82.9079 124.803 83.2548C124.319 83.5499 123.927 83.973 123.669 84.4773C123.424 83.9815 123.046 83.5639 122.576 83.2715C121.998 82.913 121.329 82.7287 120.649 82.7407C120.072 82.7363 119.503 82.876 118.993 83.1472C118.598 83.3576 118.254 83.6522 117.986 84.0103L117.881 83.0208H116.098V92.6336H118.083V86.7593C118.072 86.1709 118.279 85.5992 118.664 85.1544C118.852 84.9376 119.086 84.7657 119.349 84.651C119.612 84.5364 119.898 84.4821 120.184 84.492C120.816 84.492 121.291 84.6821 121.64 85.0719C121.989 85.4616 122.162 86.0122 122.162 86.6966V92.6315H124.123V86.7802C124.109 86.185 124.316 85.6057 124.704 85.1544C125.086 84.7156 125.611 84.492 126.272 84.492C126.876 84.492 127.353 84.6727 127.693 85.0301C128.032 85.3874 128.208 85.9475 128.208 86.6966V92.6315H130.169V86.3163C130.169 85.1847 129.846 84.2945 129.207 83.6738C128.567 83.0532 127.72 82.7407 126.707 82.7407V82.7407ZM139.65 84.3248C139.308 83.8653 138.864 83.4909 138.354 83.2308C137.635 82.8857 136.843 82.7185 136.046 82.7432C135.249 82.7679 134.47 82.9839 133.774 83.3729C133.064 83.8051 132.491 84.4283 132.119 85.1711C131.729 85.9976 131.525 86.8992 131.521 87.8128C131.516 88.7264 131.711 89.63 132.093 90.4603C132.451 91.1934 133.011 91.8094 133.706 92.2366C134.42 92.6643 135.239 92.884 136.072 92.8708C136.849 92.8821 137.617 92.697 138.303 92.3327C138.808 92.0682 139.243 91.6892 139.574 91.2262V92.6106H141.455V83.0208H139.783L139.65 84.3248ZM139.432 87.7582C139.432 88.7634 139.155 89.5732 138.611 90.1614C138.066 90.7497 137.343 91.0496 136.458 91.0496C135.573 91.0496 134.879 90.7497 134.35 90.1573C133.82 89.5648 133.547 88.7718 133.547 87.8042C133.547 86.8367 133.818 86.0415 134.35 85.4491C134.882 84.8566 135.604 84.562 136.5 84.562C137.37 84.562 138.085 84.8535 138.62 85.4292C139.155 86.0049 139.432 86.7886 139.432 87.7582ZM147.468 82.9382C146.912 82.9269 146.364 83.0667 145.882 83.3426C145.548 83.5346 145.275 83.8152 145.091 84.1534L144.927 83.0208H143.166V92.6106H145.152V87.4479C145.152 86.5869 145.375 85.9067 145.814 85.425C146.253 84.9433 146.885 84.702 147.695 84.702C147.911 84.6983 148.127 84.7115 148.341 84.7417L148.469 84.7647V83.0406L148.381 83.0218C148.08 82.9652 147.774 82.9372 147.468 82.9382V82.9382Z" fill="#2362FB"/>
<path d="M157.813 83.0208H155.341L151.178 87.3821V78.7681H149.196V92.6117H151.178V89.8898L152.923 88.078L155.333 92.5542L155.364 92.6117H157.595L154.328 86.636L157.813 83.0208V83.0208Z" fill="#2362FB"/>
<path d="M164.97 89.6599C164.786 90.1328 164.445 90.5279 164.005 90.779C163.502 91.0657 162.931 91.2102 162.353 91.1969C161.507 91.1969 160.806 90.9367 160.269 90.4237C159.755 89.9316 159.473 89.2743 159.426 88.4677H166.774L166.792 88.3831C166.86 88.0228 166.889 87.6565 166.879 87.2901C166.893 86.4671 166.693 85.6545 166.299 84.9318C165.922 84.254 165.363 83.6949 164.685 83.3175C163.947 82.92 163.119 82.7205 162.282 82.7386C161.412 82.7251 160.555 82.9394 159.794 83.3603C159.061 83.7752 158.463 84.3918 158.071 85.1366C157.647 85.9515 157.433 86.8596 157.45 87.7781C157.45 88.7749 157.659 89.6662 158.06 90.4279C158.452 91.179 159.049 91.8026 159.783 92.2251C160.564 92.6638 161.449 92.886 162.344 92.8687C163.461 92.8687 164.453 92.5793 165.291 92.0088C166.101 91.4825 166.675 90.6626 166.893 89.7215L166.923 89.5878H164.997L164.97 89.6599ZM159.446 86.9746C159.495 86.2243 159.767 85.6162 160.257 85.1669C160.774 84.6936 161.451 84.4533 162.269 84.4533C163.038 84.4533 163.67 84.6926 164.145 85.1638C164.597 85.6141 164.843 86.2223 164.876 86.9746H159.446ZM170.551 80.6134H170.183L167.192 84.1179L167.164 84.1482V84.702H168.586V89.4405C168.583 89.9353 168.634 90.4291 168.739 90.9127C168.843 91.3735 169.122 91.7935 169.564 92.1592C170.006 92.5249 170.69 92.7151 171.591 92.7151C171.987 92.7151 172.382 92.6801 172.772 92.6106L172.862 92.5939V90.9085H172.758C172.662 90.9136 172.566 90.9241 172.471 90.9399C172.329 90.9616 172.186 90.9721 172.042 90.9712C171.483 90.9712 171.091 90.8479 170.879 90.6034C170.667 90.3589 170.553 89.9577 170.553 89.4196V84.702H172.866V83.0208H170.553L170.551 80.6134Z" fill="#2362FB"/>
</g>
<defs>
<clipPath id="clip0_1149_32192">
<rect width="150.462" height="73.3502" fill="white" transform="translate(37 43)"/>
</clipPath>
</defs>
</svg>
