<svg width="224" height="160" viewBox="0 0 224 160" fill="none" xmlns="http://www.w3.org/2000/svg">
<rect width="224" height="160" rx="16" fill="white"/>
<g clip-path="url(#clip0_2562_64509)">
<path d="M78.9653 106.744C72.2862 106.742 65.8355 104.312 60.815 99.9071C55.7945 95.502 52.5467 89.4219 51.6766 82.7997C50.8065 76.1775 52.3735 69.4648 56.0856 63.9123C59.7978 58.3598 65.4019 54.3462 71.8539 52.6192C71.9393 52.5971 72.0294 52.6017 72.1122 52.6324C72.1949 52.663 72.2663 52.7182 72.3168 52.7906L73.3617 54.2868C73.4099 54.3554 73.4369 54.4366 73.4393 54.5204C73.4417 54.6042 73.4194 54.6868 73.3752 54.7581C72.5581 56.0757 72.2322 57.6395 72.4551 59.1738C72.678 60.7082 73.4353 62.1146 74.5936 63.1453C74.6482 63.194 74.6893 63.2562 74.7127 63.3256C74.7362 63.395 74.7412 63.4693 74.7273 63.5413L74.4065 65.2716C74.3925 65.3461 74.3592 65.4156 74.3099 65.4732C74.2606 65.5308 74.197 65.5744 74.1255 65.5997C71.2136 66.6329 68.71 68.5731 66.9827 71.1349C65.2554 73.6967 64.3955 76.7451 64.5293 79.8319C64.8543 87.5943 71.3482 93.7454 79.1168 93.666C87.015 93.5856 93.4159 87.1345 93.4159 79.2175C93.4188 76.2332 92.4967 73.3213 90.7766 70.8826C89.0564 68.4439 86.6227 66.5983 83.8104 65.5997C83.7388 65.5747 83.6751 65.5313 83.6256 65.4739C83.5761 65.4165 83.5425 65.3471 83.5283 65.2726L83.2044 63.5423C83.1908 63.4704 83.196 63.3961 83.2194 63.3268C83.2428 63.2574 83.2837 63.1953 83.3381 63.1463C84.4963 62.1153 85.2534 60.7085 85.4759 59.174C85.6984 57.6394 85.3721 56.0755 84.5544 54.7581C84.5104 54.6867 84.4883 54.6041 84.4907 54.5204C84.4931 54.4367 84.52 54.3555 84.5679 54.2868L85.6128 52.7906C85.6634 52.7184 85.7349 52.6634 85.8176 52.633C85.9003 52.6025 85.9904 52.5981 86.0757 52.6202C91.8208 54.1697 96.9138 57.5292 100.599 62.2007C103.793 66.2612 105.779 71.1381 106.331 76.2741C106.883 81.4101 105.979 86.5978 103.722 91.2442C101.465 95.8905 97.9459 99.8081 93.5675 102.549C89.189 105.29 84.1278 106.744 78.9622 106.744H78.9653ZM70.1048 55.897C65.8776 57.516 62.1656 60.2457 59.3603 63.7983C56.9014 66.924 55.2255 70.5923 54.4724 74.4972C53.7193 78.4022 53.9107 82.4306 55.0308 86.2466C56.1509 90.0625 58.1672 93.5553 60.9114 96.4337C63.6557 99.3121 67.0484 101.493 70.8066 102.793C74.5648 104.094 78.5795 104.477 82.5159 103.911C86.4524 103.345 90.1964 101.846 93.4358 99.5391C96.6751 97.2321 99.3159 94.1839 101.138 90.6489C102.96 87.1139 103.91 83.1944 103.91 79.2175C103.93 73.6215 102.048 68.1847 98.5734 63.7983C95.7682 60.2452 92.0558 57.5154 87.8279 55.897C88.1825 57.25 88.2232 58.6661 87.9471 60.0373C87.6709 61.4085 87.0852 62.6984 86.2345 63.8088C89.1564 65.1859 91.6261 67.366 93.3549 70.0946C95.0838 72.8231 96.0005 75.9874 95.9978 79.2175C95.9978 88.6088 88.3577 96.249 78.9664 96.249C69.575 96.249 61.9349 88.6088 61.9349 79.2175C61.9322 75.9872 62.849 72.8229 64.5781 70.0943C66.3071 67.3657 68.7771 65.1856 71.6993 63.8088C70.8486 62.6984 70.2629 61.4085 69.9867 60.0373C69.7106 58.6661 69.7513 57.25 70.1058 55.897H70.1048Z" fill="#2362FB"/>
<path d="M116.136 67.127H118.118V76.7168H116.136V67.127Z" fill="#2362FB"/>
<path d="M117.117 65.4248C117.307 65.4319 117.496 65.3982 117.672 65.3261C117.848 65.2541 118.006 65.1452 118.136 65.0069C118.389 64.7409 118.528 64.3865 118.523 64.0195C118.526 63.8393 118.493 63.6604 118.425 63.4935C118.357 63.3266 118.256 63.1753 118.128 63.0488C117.854 62.7958 117.495 62.6553 117.123 62.6553C116.75 62.6553 116.391 62.7958 116.118 63.0488C115.986 63.1737 115.882 63.3246 115.812 63.4919C115.742 63.6591 115.707 63.8391 115.71 64.0205C115.707 64.2059 115.742 64.39 115.812 64.5619C115.881 64.7337 115.985 64.8898 116.116 65.0209C116.247 65.1521 116.403 65.2556 116.575 65.3253C116.747 65.395 116.931 65.4296 117.117 65.4269V65.4248ZM131.97 76.7283H133.933V70.4089C133.933 69.2773 133.609 68.387 132.97 67.7664C132.332 67.1457 131.495 66.8323 130.482 66.8323C129.811 66.822 129.151 67.0005 128.577 67.3474C128.093 67.6425 127.701 68.0656 127.443 68.5699C127.198 68.0737 126.818 67.656 126.348 67.3641C125.77 67.0052 125.101 66.8206 124.42 66.8323C123.843 66.8282 123.274 66.9683 122.765 67.2398C122.37 67.4498 122.025 67.7445 121.757 68.1028L121.652 67.1133H119.869V76.7262H121.854V70.855C121.842 70.2665 122.049 69.6946 122.435 69.2501C122.623 69.0332 122.857 68.8611 123.12 68.7464C123.383 68.6318 123.668 68.5775 123.955 68.5876C124.582 68.5876 125.062 68.7778 125.41 69.1676C125.758 69.5573 125.932 70.1079 125.932 70.7923V76.7283H127.894V70.877C127.88 70.2818 128.087 69.7024 128.475 69.2511C128.856 68.8123 129.381 68.5887 130.037 68.5887C130.64 68.5887 131.119 68.7695 131.458 69.1258C131.798 69.4821 131.973 70.0432 131.973 70.7976L131.97 76.7283ZM137.51 75.5538C137.841 75.9701 138.263 76.3042 138.744 76.5297C139.403 76.8359 140.122 76.9889 140.848 76.9769C141.692 76.9892 142.523 76.7702 143.251 76.3437C143.962 75.9153 144.536 75.2934 144.906 74.5507C145.31 73.736 145.513 72.8364 145.498 71.9271C145.514 71.0093 145.311 70.101 144.906 69.2773C144.538 68.5357 143.97 67.9125 143.265 67.479C142.539 67.0533 141.709 66.8363 140.868 66.8521C140.096 66.8423 139.334 67.0312 138.657 67.4007C138.137 67.6777 137.691 68.075 137.356 68.5594L137.231 67.1321H135.569V80.8994H137.51V75.5538ZM138.441 74.3251C137.914 73.7535 137.645 72.9667 137.645 71.9814C137.645 70.9762 137.914 70.1654 138.442 69.573C138.971 68.9805 139.684 68.6827 140.567 68.6827C141.45 68.6827 142.151 68.9784 142.687 69.5615C143.223 70.1445 143.499 70.9417 143.499 71.926C143.499 72.8904 143.225 73.6825 142.686 74.2812C142.147 74.8799 141.432 75.1798 140.546 75.1798C139.66 75.1798 138.967 74.8924 138.441 74.3251ZM153.322 76.4503C153.827 76.1862 154.262 75.8076 154.593 75.3448V76.7283H156.474V67.1384H154.802L154.666 68.4424C154.325 67.9836 153.882 67.6096 153.373 67.3495C152.654 67.0037 151.863 66.8361 151.065 66.8608C150.268 66.8856 149.489 67.1019 148.793 67.4916C148.083 67.9231 147.51 68.546 147.138 69.2888C146.748 70.1152 146.544 71.0168 146.54 71.9304C146.535 72.8441 146.73 73.7476 147.112 74.5779C147.47 75.3106 148.029 75.9266 148.724 76.3542C149.439 76.781 150.258 77.0003 151.091 76.9874C151.868 76.999 152.636 76.8142 153.322 76.4503ZM154.445 71.8769C154.445 72.881 154.168 73.6908 153.623 74.2801C153.079 74.8694 152.356 75.1683 151.471 75.1683C150.586 75.1683 149.892 74.8684 149.362 74.277C148.833 73.6856 148.56 72.8863 148.56 71.9156C148.56 70.9449 148.831 70.1518 149.362 69.5594C149.894 68.9669 150.616 68.6723 151.513 68.6723C152.383 68.6723 153.098 68.9648 153.633 69.5406C154.168 70.1163 154.445 70.9062 154.445 71.8769ZM160.073 76.373C160.872 76.8024 161.768 77.0183 162.675 76.9999C163.869 76.9999 164.902 76.676 165.745 76.0376C166.572 75.4283 167.125 74.5181 167.286 73.5038L167.309 73.3773H165.286L165.266 73.462C165.149 73.9866 164.829 74.4438 164.377 74.7346C163.9 75.0606 163.313 75.2247 162.633 75.2247C161.722 75.2247 160.999 74.9248 160.484 74.3334C159.969 73.742 159.701 72.9364 159.701 71.9501C159.701 70.925 159.974 70.1079 160.512 69.5228C161.05 68.9377 161.766 68.6451 162.633 68.6451C163.313 68.6451 163.897 68.806 164.367 69.1247C164.825 69.4268 165.147 69.8946 165.267 70.4298L165.287 70.5133H167.307L167.286 70.3869C167.217 69.878 167.046 69.3883 166.783 68.9466C166.521 68.5049 166.173 68.1203 165.76 67.8155C164.924 67.1886 163.879 66.8699 162.654 66.8699C161.757 66.8535 160.87 67.0714 160.083 67.502C159.341 67.9189 158.733 68.5378 158.33 69.2867C157.9 70.0999 157.685 71.0088 157.703 71.9281C157.703 72.9239 157.912 73.8162 158.322 74.58C158.721 75.3341 159.329 75.9567 160.073 76.373ZM173.023 68.8081V67.1269H170.708V64.7237H170.341L167.351 68.2282L167.325 68.2585V68.8123H168.747V73.5508C168.743 74.0457 168.794 74.5394 168.899 75.023C169.004 75.4838 169.283 75.9039 169.725 76.2696C170.167 76.6353 170.85 76.8254 171.751 76.8254C172.147 76.8254 172.543 76.7905 172.933 76.7209L173.023 76.7042V75.0147H172.918C172.822 75.0198 172.727 75.0303 172.633 75.046C172.491 75.0677 172.347 75.0782 172.203 75.0774C171.644 75.0774 171.253 74.9541 171.04 74.7096C170.828 74.4651 170.713 74.0638 170.713 73.5257V68.8081H173.023ZM126.707 82.7405C126.037 82.7295 125.377 82.9077 124.803 83.2545C124.319 83.5497 123.927 83.9728 123.669 84.4771C123.424 83.9812 123.046 83.5636 122.576 83.2713C121.998 82.9127 121.329 82.7284 120.649 82.7405C120.072 82.736 119.503 82.8757 118.993 83.1469C118.598 83.3573 118.254 83.6519 117.986 84.01L117.881 83.0205H116.098V92.6333H118.083V86.7591C118.072 86.1707 118.279 85.5989 118.664 85.1541C118.852 84.9374 119.086 84.7654 119.349 84.6508C119.612 84.5361 119.898 84.4818 120.184 84.4917C120.816 84.4917 121.291 84.6818 121.64 85.0716C121.989 85.4613 122.162 86.012 122.162 86.6964V92.6313H124.123V86.78C124.109 86.1848 124.316 85.6054 124.704 85.1541C125.086 84.7153 125.611 84.4917 126.272 84.4917C126.876 84.4917 127.353 84.6724 127.693 85.0298C128.032 85.3871 128.208 85.9472 128.208 86.6964V92.6313H130.169V86.316C130.169 85.1844 129.846 84.2942 129.207 83.6735C128.567 83.0529 127.72 82.7405 126.707 82.7405ZM139.65 84.3245C139.308 83.865 138.864 83.4906 138.354 83.2305C137.635 82.8854 136.843 82.7182 136.046 82.7429C135.249 82.7677 134.47 82.9836 133.774 83.3726C133.064 83.8049 132.491 84.428 132.119 85.1708C131.729 85.9973 131.525 86.8989 131.521 87.8125C131.516 88.7262 131.711 89.6297 132.093 90.46C132.451 91.1931 133.011 91.8092 133.706 92.2363C134.42 92.664 135.239 92.8837 136.072 92.8705C136.849 92.8818 137.617 92.6967 138.303 92.3324C138.808 92.0679 139.243 91.6889 139.574 91.2259V92.6104H141.455V83.0205H139.783L139.65 84.3245ZM139.432 87.758C139.432 88.7631 139.155 89.5729 138.611 90.1612C138.066 90.7494 137.343 91.0493 136.458 91.0493C135.573 91.0493 134.879 90.7494 134.35 90.157C133.82 89.5645 133.547 88.7715 133.547 87.8039C133.547 86.8364 133.818 86.0412 134.35 85.4488C134.882 84.8563 135.604 84.5617 136.5 84.5617C137.37 84.5617 138.085 84.8532 138.62 85.4289C139.155 86.0047 139.432 86.7883 139.432 87.758ZM147.468 82.938C146.912 82.9266 146.364 83.0664 145.882 83.3423C145.548 83.5343 145.275 83.815 145.091 84.1531L144.927 83.0205H143.166V92.6104H145.152V87.4476C145.152 86.5867 145.375 85.9064 145.814 85.4248C146.253 84.9431 146.885 84.7017 147.695 84.7017C147.911 84.698 148.127 84.7113 148.341 84.7414L148.469 84.7644V83.0403L148.381 83.0215C148.08 82.965 147.774 82.937 147.468 82.938Z" fill="#2362FB"/>
<path d="M157.813 83.0212H155.341L151.178 87.3825V78.7686H149.196V92.6121H151.178V89.8902L152.923 88.0784L155.333 92.5546L155.364 92.6121H157.595L154.328 86.6365L157.813 83.0212Z" fill="#2362FB"/>
<path d="M164.97 89.6598C164.786 90.1327 164.445 90.5278 164.005 90.7789C163.502 91.0656 162.931 91.2101 162.353 91.1968C161.507 91.1968 160.806 90.9366 160.269 90.4236C159.755 89.9315 159.473 89.2742 159.426 88.4676H166.774L166.792 88.383C166.86 88.0227 166.889 87.6564 166.879 87.29C166.893 86.467 166.693 85.6544 166.299 84.9317C165.922 84.2539 165.363 83.6948 164.685 83.3174C163.947 82.9199 163.119 82.7204 162.282 82.7386C161.412 82.725 160.555 82.9394 159.794 83.3603C159.061 83.7751 158.463 84.3917 158.071 85.1365C157.647 85.9514 157.433 86.8595 157.45 87.778C157.45 88.7748 157.659 89.6661 158.06 90.4278C158.452 91.1789 159.049 91.8025 159.783 92.225C160.564 92.6637 161.449 92.8859 162.344 92.8686C163.461 92.8686 164.453 92.5792 165.291 92.0087C166.101 91.4824 166.675 90.6625 166.893 89.7215L166.923 89.5877H164.997L164.97 89.6598ZM159.446 86.9745C159.495 86.2243 159.767 85.6161 160.257 85.1668C160.774 84.6935 161.451 84.4532 162.269 84.4532C163.038 84.4532 163.67 84.6925 164.145 85.1637C164.597 85.6141 164.843 86.2222 164.876 86.9745H159.446ZM170.551 80.6133H170.183L167.192 84.1178L167.164 84.1481V84.7019H168.586V89.4404C168.583 89.9353 168.634 90.429 168.739 90.9126C168.843 91.3734 169.122 91.7934 169.564 92.1591C170.006 92.5248 170.69 92.715 171.591 92.715C171.987 92.715 172.382 92.68 172.772 92.6105L172.862 92.5938V90.9084H172.758C172.662 90.9135 172.566 90.924 172.471 90.9398C172.329 90.9615 172.186 90.972 172.042 90.9711C171.483 90.9711 171.091 90.8478 170.879 90.6033C170.667 90.3588 170.553 89.9576 170.553 89.4195V84.7019H172.866V83.0207H170.553L170.551 80.6133Z" fill="#2362FB"/>
</g>
<defs>
<clipPath id="clip0_2562_64509">
<rect width="150.462" height="73.3502" fill="white" transform="translate(37 43)"/>
</clipPath>
</defs>
</svg>
