<svg width="224" height="160" viewBox="0 0 224 160" fill="none" xmlns="http://www.w3.org/2000/svg">
<rect width="224" height="160" rx="16" fill="white"/>
<path d="M93.2417 81.7586H100.142C100.142 82.4645 100.106 83.1174 100.053 83.6998C100 84.2821 99.8769 84.8116 99.7005 85.3057C99.4534 86.0116 99.1181 86.6292 98.6946 87.1763C98.2711 87.7057 97.7593 88.1645 97.1946 88.5174C96.6299 88.8704 95.9946 89.1527 95.3064 89.3292C94.6181 89.5233 93.8946 89.6116 93.1358 89.6116C92.0946 89.6116 91.1416 89.4351 90.2769 89.0998C89.4299 88.7645 88.6887 88.2704 88.0711 87.6704C87.4534 87.0351 86.9769 86.2939 86.6416 85.4292C86.3064 84.5468 86.1299 83.5939 86.1299 82.5351C86.1299 81.4939 86.2887 80.541 86.624 79.6763C86.9593 78.7939 87.4534 78.0527 88.0534 77.4351C88.6887 76.8174 89.4299 76.341 90.3122 76.0057C91.1946 75.6704 92.1652 75.4939 93.2417 75.4939C94.6358 75.4939 95.8534 75.7939 96.9122 76.3939C97.9711 76.9939 98.8005 77.9292 99.4181 79.1998L96.1181 80.5586C95.8181 79.8174 95.4122 79.3057 94.9181 78.988C94.4417 78.6704 93.8769 78.5116 93.2593 78.5116C92.7475 78.5116 92.2711 78.6174 91.8475 78.8116C91.424 79.0057 91.0534 79.2704 90.7534 79.641C90.4534 79.9939 90.224 80.4351 90.0475 80.9292C89.8887 81.441 89.8005 82.0057 89.8005 82.6233C89.8005 83.188 89.8711 83.7174 90.0122 84.1939C90.1711 84.6704 90.3828 85.0939 90.6828 85.4468C90.9828 85.7998 91.3534 86.0821 91.7769 86.2763C92.2181 86.4704 92.7299 86.5586 93.2946 86.5586C93.6299 86.5586 93.9652 86.5233 94.2828 86.4527C94.6005 86.3645 94.8828 86.241 95.1299 86.0821C95.3946 85.9057 95.6064 85.6763 95.7652 85.4116C95.924 85.1468 96.0475 84.8116 96.1005 84.4233H93.2417V81.7586ZM117.295 78.6704V89.6116H113.589V78.6704H110.589V75.4939H120.295V78.6704H117.295ZM133.177 80.3292C132.365 79.341 131.377 78.8468 130.195 78.8468C129.665 78.8468 129.189 78.9351 128.73 79.1292C128.289 79.3233 127.918 79.588 127.583 79.9057C127.265 80.2233 127 80.6116 126.824 81.0704C126.648 81.5292 126.559 82.0057 126.559 82.5351C126.559 83.0645 126.648 83.5586 126.824 84.0174C127.018 84.4763 127.265 84.8645 127.583 85.1998C127.918 85.5351 128.306 85.7998 128.748 85.9763C129.189 86.1704 129.665 86.2586 130.177 86.2586C131.289 86.2586 132.295 85.7821 133.177 84.8292V88.9586L132.824 89.0821C132.295 89.2763 131.8 89.3998 131.324 89.488C130.865 89.5763 130.406 89.6292 129.948 89.6292C129.03 89.6292 128.13 89.4527 127.283 89.1174C126.436 88.7645 125.695 88.2704 125.042 87.6351C124.406 86.9998 123.877 86.241 123.489 85.3763C123.1 84.4939 122.906 83.541 122.906 82.5174C122.906 81.4939 123.1 80.541 123.471 79.6939C123.859 78.8292 124.371 78.088 125.024 77.4704C125.677 76.8351 126.436 76.3586 127.283 76.0057C128.13 75.6527 129.03 75.4763 129.965 75.4763C130.495 75.4763 131.024 75.5292 131.536 75.6527C132.065 75.7586 132.612 75.9351 133.177 76.1645V80.3292ZM140.448 82.5527C140.448 83.0821 140.553 83.5763 140.748 84.0351C140.942 84.4939 141.224 84.8821 141.559 85.2174C141.895 85.5527 142.3 85.8174 142.759 85.9939C143.218 86.1704 143.712 86.2586 144.224 86.2586C144.736 86.2586 145.212 86.1704 145.671 85.9939C146.13 85.7998 146.536 85.5351 146.889 85.2174C147.242 84.8821 147.524 84.4939 147.718 84.0351C147.912 83.5763 148.018 83.0998 148.018 82.5527C148.018 82.0057 147.912 81.5292 147.718 81.0704C147.524 80.6116 147.242 80.2233 146.889 79.888C146.553 79.5527 146.148 79.3057 145.671 79.1292C145.212 78.9351 144.736 78.8468 144.224 78.8468C143.712 78.8468 143.236 78.9351 142.759 79.1292C142.3 79.3057 141.912 79.5704 141.559 79.888C141.224 80.2233 140.942 80.6116 140.748 81.0704C140.553 81.5292 140.448 82.0233 140.448 82.5527ZM136.812 82.5527C136.812 81.5645 136.989 80.6292 137.359 79.7821C137.73 78.9174 138.242 78.1586 138.895 77.5233C139.548 76.888 140.324 76.3763 141.224 76.0233C142.142 75.6527 143.148 75.4763 144.224 75.4763C145.3 75.4763 146.306 75.6527 147.206 76.0233C148.124 76.3763 148.9 76.8704 149.553 77.5233C150.224 78.1586 150.736 78.9174 151.106 79.7821C151.477 80.6292 151.653 81.5645 151.653 82.5527C151.653 83.541 151.477 84.4763 151.106 85.341C150.736 86.188 150.224 86.9468 149.553 87.5821C148.9 88.2174 148.124 88.7292 147.206 89.0998C146.289 89.4527 145.3 89.6292 144.224 89.6292C143.13 89.6292 142.124 89.4527 141.224 89.0998C140.324 88.7292 139.548 88.2351 138.895 87.5821C138.242 86.9468 137.73 86.188 137.359 85.341C136.989 84.4763 136.812 83.5586 136.812 82.5527ZM158.942 75.4939V89.6116H155.236V75.4939H158.942ZM107.059 75.4939V89.6116H103.353V75.4939H107.059ZM162.824 89.6116V75.4939H166.353L173.236 84.1233V75.4939H176.942V89.6116H173.377L166.53 80.9821V89.6116H162.824Z" fill="#0E0333"/>
<path d="M74.0025 82.8852C74.0025 84.9152 73.4085 86.9006 72.2939 88.5965L74.7077 90.5809C76.2869 88.3267 77.1315 85.6387 77.1261 82.8852C77.1252 80.2099 76.3337 77.5946 74.8515 75.3688L72.3419 77.2664C73.3754 78.8762 74.0025 80.8283 74.0025 82.8852Z" fill="#02E2AC"/>
<path d="M76.6674 92.0207C75.0223 90.6619 69.3272 86.1195 68.5716 85.5164C69.0008 84.7062 69.2215 83.8023 69.2145 82.8857C69.2072 81.9691 68.9722 81.0686 68.5303 80.2653L74.8681 75.4764L76.7192 73.9752C77.1742 73.6724 77.2485 73.3367 76.9179 72.9019C76.4874 72.3354 76.0209 71.797 75.5215 71.29C72.8552 68.5812 69.2634 66.7836 65.2584 66.4054V63.2232C65.2584 62.3813 64.6224 61.6462 63.7813 61.5917C63.5649 61.5773 63.3481 61.6074 63.1441 61.6802C62.9399 61.7529 62.753 61.8668 62.5947 62.0147C62.4364 62.1626 62.3102 62.3414 62.2239 62.54C62.1378 62.7386 62.0932 62.9527 62.0932 63.1692V66.4068C60.7437 66.5342 59.4149 66.8269 58.1369 67.2785V63.2232C58.1369 62.3813 57.5009 61.6462 56.6598 61.5917C56.4437 61.5773 56.2268 61.6074 56.0228 61.6802C55.8186 61.7529 55.6317 61.8668 55.4734 62.0147C55.3151 62.1626 55.1891 62.3414 55.1028 62.54C55.0165 62.7386 54.9721 62.9527 54.9721 63.1692V68.7897C50.2596 71.6895 47.1064 76.8725 47.0591 82.7954C46.9864 91.9987 54.6643 99.5294 63.8777 99.5294H76.1769C76.4012 99.5292 76.6183 99.4498 76.7895 99.3051C76.9607 99.1604 77.0752 98.9597 77.1124 98.7388L77.1251 92.9973C77.1258 92.8108 77.0851 92.6265 77.0058 92.4577C76.9268 92.2888 76.8112 92.1397 76.6674 92.0207ZM73.9783 94.0466L73.9615 96.3675H63.8413C56.4059 96.3675 50.1874 90.2899 50.224 82.8626C50.2439 78.7856 52.0838 75.1399 54.9714 72.6887V75.762C54.9714 76.6041 55.6074 77.3393 56.4484 77.3938C56.6648 77.4081 56.8815 77.3779 57.0857 77.3052C57.2897 77.2323 57.4767 77.1185 57.6348 76.9706C57.7931 76.8227 57.9193 76.644 58.0054 76.4454C58.0917 76.2469 58.1362 76.0327 58.1362 75.8163V70.6854C59.8764 69.8978 61.7648 69.4912 63.6751 69.4926C67.214 69.4926 70.1953 70.6653 72.5971 72.8966L66.1365 77.9735C65.3718 77.5934 64.5292 77.3963 63.6751 77.3971C60.6161 77.3971 58.1362 79.8743 58.1362 82.9302C58.1362 85.9861 60.6161 88.4633 63.6751 88.4633C64.5424 88.464 65.3979 88.2601 66.1716 87.8685L73.9783 94.0466ZM66.0489 82.9302C66.0489 83.3993 65.9097 83.8577 65.6489 84.2477C65.3881 84.6377 65.0173 84.9416 64.5835 85.1211C64.1498 85.3007 63.6724 85.3477 63.212 85.2561C62.7514 85.1647 62.3284 84.9388 61.9965 84.607C61.6644 84.2754 61.4383 83.853 61.3467 83.3929C61.2551 82.9328 61.3021 82.456 61.4819 82.0226C61.6615 81.5894 61.9658 81.219 62.3561 80.9583C62.7465 80.6978 63.2055 80.5588 63.6751 80.5588C64.3047 80.5588 64.9084 80.8085 65.3537 81.2534C65.7989 81.6981 66.0489 82.3013 66.0489 82.9302Z" fill="#0E0333"/>
</svg>
