<svg width="224" height="160" viewBox="0 0 224 160" fill="none" xmlns="http://www.w3.org/2000/svg">
<rect width="224" height="160" rx="16" fill="white"/>
<path d="M93.2417 81.7589H100.142C100.142 82.4648 100.106 83.1177 100.053 83.7001C100 84.2824 99.8769 84.8119 99.7005 85.306C99.4534 86.0119 99.1181 86.6295 98.6946 87.1766C98.2711 87.706 97.7593 88.1648 97.1946 88.5177C96.6299 88.8707 95.9946 89.153 95.3064 89.3295C94.6181 89.5236 93.8946 89.6119 93.1358 89.6119C92.0946 89.6119 91.1416 89.4354 90.2769 89.1001C89.4299 88.7648 88.6887 88.2707 88.0711 87.6707C87.4534 87.0354 86.9769 86.2942 86.6416 85.4295C86.3064 84.5472 86.1299 83.5942 86.1299 82.5354C86.1299 81.4942 86.2887 80.5413 86.624 79.6766C86.9593 78.7942 87.4534 78.053 88.0534 77.4354C88.6887 76.8177 89.4299 76.3413 90.3122 76.006C91.1946 75.6707 92.1652 75.4942 93.2417 75.4942C94.6358 75.4942 95.8534 75.7942 96.9122 76.3942C97.9711 76.9942 98.8005 77.9295 99.4181 79.2001L96.1181 80.5589C95.8181 79.8177 95.4122 79.306 94.9181 78.9883C94.4417 78.6707 93.8769 78.5119 93.2593 78.5119C92.7475 78.5119 92.2711 78.6177 91.8475 78.8119C91.424 79.006 91.0534 79.2707 90.7534 79.6413C90.4534 79.9942 90.224 80.4354 90.0475 80.9295C89.8887 81.4413 89.8005 82.006 89.8005 82.6236C89.8005 83.1883 89.8711 83.7177 90.0122 84.1942C90.1711 84.6707 90.3828 85.0942 90.6828 85.4472C90.9828 85.8001 91.3534 86.0824 91.7769 86.2766C92.2181 86.4707 92.7299 86.5589 93.2946 86.5589C93.6299 86.5589 93.9652 86.5236 94.2828 86.453C94.6005 86.3648 94.8828 86.2413 95.1299 86.0824C95.3946 85.906 95.6064 85.6766 95.7652 85.4119C95.924 85.1471 96.0475 84.8119 96.1005 84.4236H93.2417V81.7589ZM117.295 78.6707V89.6119H113.589V78.6707H110.589V75.4942H120.295V78.6707H117.295ZM133.177 80.3295C132.365 79.3413 131.377 78.8472 130.195 78.8472C129.665 78.8472 129.189 78.9354 128.73 79.1295C128.289 79.3236 127.918 79.5883 127.583 79.906C127.265 80.2236 127 80.6119 126.824 81.0707C126.648 81.5295 126.559 82.006 126.559 82.5354C126.559 83.0648 126.648 83.5589 126.824 84.0177C127.018 84.4766 127.265 84.8648 127.583 85.2001C127.918 85.5354 128.306 85.8001 128.748 85.9766C129.189 86.1707 129.665 86.2589 130.177 86.2589C131.289 86.2589 132.295 85.7824 133.177 84.8295V88.9589L132.824 89.0824C132.295 89.2766 131.8 89.4001 131.324 89.4883C130.865 89.5766 130.406 89.6295 129.948 89.6295C129.03 89.6295 128.13 89.453 127.283 89.1177C126.436 88.7648 125.695 88.2707 125.042 87.6354C124.406 87.0001 123.877 86.2413 123.489 85.3766C123.1 84.4942 122.906 83.5413 122.906 82.5177C122.906 81.4942 123.1 80.5413 123.471 79.6942C123.859 78.8295 124.371 78.0883 125.024 77.4707C125.677 76.8354 126.436 76.3589 127.283 76.006C128.13 75.653 129.03 75.4766 129.965 75.4766C130.495 75.4766 131.024 75.5295 131.536 75.653C132.065 75.7589 132.612 75.9354 133.177 76.1648V80.3295ZM140.448 82.553C140.448 83.0824 140.553 83.5766 140.748 84.0354C140.942 84.4942 141.224 84.8824 141.559 85.2177C141.895 85.553 142.3 85.8177 142.759 85.9942C143.218 86.1707 143.712 86.2589 144.224 86.2589C144.736 86.2589 145.212 86.1707 145.671 85.9942C146.13 85.8001 146.536 85.5354 146.889 85.2177C147.242 84.8824 147.524 84.4942 147.718 84.0354C147.912 83.5766 148.018 83.1001 148.018 82.553C148.018 82.006 147.912 81.5295 147.718 81.0707C147.524 80.6119 147.242 80.2236 146.889 79.8883C146.553 79.553 146.148 79.306 145.671 79.1295C145.212 78.9354 144.736 78.8472 144.224 78.8472C143.712 78.8472 143.236 78.9354 142.759 79.1295C142.3 79.306 141.912 79.5707 141.559 79.8883C141.224 80.2236 140.942 80.6119 140.748 81.0707C140.553 81.5295 140.448 82.0236 140.448 82.553ZM136.812 82.553C136.812 81.5648 136.989 80.6295 137.359 79.7824C137.73 78.9177 138.242 78.1589 138.895 77.5236C139.548 76.8883 140.324 76.3766 141.224 76.0236C142.142 75.653 143.148 75.4766 144.224 75.4766C145.3 75.4766 146.306 75.653 147.206 76.0236C148.124 76.3766 148.9 76.8707 149.553 77.5236C150.224 78.1589 150.736 78.9177 151.106 79.7824C151.477 80.6295 151.653 81.5648 151.653 82.553C151.653 83.5413 151.477 84.4766 151.106 85.3413C150.736 86.1883 150.224 86.9472 149.553 87.5824C148.9 88.2177 148.124 88.7295 147.206 89.1001C146.289 89.453 145.3 89.6295 144.224 89.6295C143.13 89.6295 142.124 89.453 141.224 89.1001C140.324 88.7295 139.548 88.2354 138.895 87.5824C138.242 86.9472 137.73 86.1883 137.359 85.3413C136.989 84.4766 136.812 83.5589 136.812 82.553ZM158.942 75.4942V89.6119H155.236V75.4942H158.942ZM107.059 75.4942V89.6119H103.353V75.4942H107.059ZM162.824 89.6119V75.4942H166.353L173.236 84.1236V75.4942H176.942V89.6119H173.377L166.53 80.9824V89.6119H162.824Z" fill="#0E0333"/>
<path d="M74.002 82.8856C74.002 84.9155 73.408 86.901 72.2935 88.5968L74.7072 90.5813C76.2865 88.327 77.131 85.639 77.1256 82.8856C77.1247 80.2103 76.3332 77.595 74.851 75.3691L72.3415 77.2667C73.3749 78.8765 74.002 80.8286 74.002 82.8856Z" fill="#02E2AC"/>
<path d="M76.6674 92.0204C75.0223 90.6616 69.3272 86.1192 68.5716 85.5161C69.0008 84.7059 69.2215 83.802 69.2145 82.8854C69.2072 81.9688 68.9722 81.0683 68.5303 80.265L74.8681 75.4761L76.7192 73.9749C77.1742 73.6721 77.2485 73.3364 76.9179 72.9016C76.4874 72.3351 76.0209 71.7967 75.5215 71.2897C72.8552 68.5809 69.2634 66.7833 65.2584 66.4051V63.2229C65.2584 62.381 64.6224 61.6459 63.7813 61.5914C63.5649 61.577 63.3481 61.6071 63.1441 61.6799C62.9399 61.7526 62.753 61.8665 62.5947 62.0144C62.4364 62.1623 62.3102 62.3411 62.2239 62.5397C62.1378 62.7382 62.0932 62.9524 62.0932 63.1689V66.4065C60.7437 66.5338 59.4149 66.8266 58.1369 67.2782V63.2229C58.1369 62.381 57.5009 61.6459 56.6598 61.5914C56.4437 61.577 56.2268 61.6071 56.0228 61.6799C55.8186 61.7526 55.6317 61.8665 55.4734 62.0144C55.3151 62.1623 55.1891 62.3411 55.1028 62.5397C55.0165 62.7383 54.9721 62.9524 54.9721 63.1689V68.7894C50.2596 71.6892 47.1064 76.8722 47.0591 82.7951C46.9864 91.9984 54.6643 99.5291 63.8777 99.5291H76.1769C76.4012 99.5289 76.6183 99.4495 76.7895 99.3048C76.9607 99.1601 77.0752 98.9594 77.1124 98.7385L77.1251 92.997C77.1258 92.8105 77.0851 92.6262 77.0058 92.4574C76.9268 92.2885 76.8112 92.1394 76.6674 92.0204ZM73.9783 94.0463L73.9615 96.3672H63.8413C56.4059 96.3672 50.1874 90.2896 50.224 82.8623C50.2439 78.7853 52.0838 75.1396 54.9714 72.6884V75.7617C54.9714 76.6038 55.6074 77.339 56.4484 77.3935C56.6648 77.4078 56.8815 77.3776 57.0857 77.3049C57.2897 77.232 57.4767 77.1182 57.6348 76.9703C57.7931 76.8224 57.9193 76.6437 58.0054 76.4451C58.0917 76.2466 58.1362 76.0324 58.1362 75.816V70.6851C59.8764 69.8975 61.7648 69.4909 63.6751 69.4923C67.214 69.4923 70.1953 70.665 72.5971 72.8963L66.1365 77.9732C65.3718 77.5931 64.5292 77.3959 63.6751 77.3968C60.6161 77.3968 58.1362 79.874 58.1362 82.9299C58.1362 85.9858 60.6161 88.463 63.6751 88.463C64.5424 88.4637 65.3979 88.2598 66.1716 87.8682L73.9783 94.0463ZM66.0489 82.9299C66.0489 83.399 65.9097 83.8574 65.6489 84.2474C65.3881 84.6374 65.0173 84.9413 64.5835 85.1208C64.1498 85.3004 63.6724 85.3474 63.212 85.2558C62.7514 85.1644 62.3284 84.9385 61.9965 84.6067C61.6644 84.2751 61.4383 83.8527 61.3467 83.3926C61.2551 82.9325 61.3021 82.4557 61.4819 82.0223C61.6615 81.5891 61.9658 81.2187 62.3561 80.958C62.7465 80.6975 63.2055 80.5585 63.6751 80.5585C64.3047 80.5585 64.9084 80.8082 65.3537 81.2531C65.7989 81.6978 66.0489 82.301 66.0489 82.9299Z" fill="#0E0333"/>
</svg>
