<svg width="20" height="20" viewBox="0 0 20 20" fill="inherit" xmlns="http://www.w3.org/2000/svg">
<ellipse cx="3.40942" cy="10.8177" rx="1.56944" ry="1.55524" fill="inherit"/>
<ellipse cx="5.73691" cy="13.6594" rx="1.56944" ry="1.55524" fill="inherit"/>
<ellipse cx="8.24904" cy="16.3042" rx="1.56944" ry="1.55524" fill="inherit"/>
<ellipse rx="1.55596" ry="1.56873" transform="matrix(-0.207912 -0.978148 0.978963 -0.204037 14.6072 3.98819)" fill="inherit"/>
<ellipse rx="1.55612" ry="1.56858" transform="matrix(-0.207912 -0.978148 0.979044 -0.203648 12.748 6.9672)" fill="inherit"/>
<ellipse rx="1.55588" ry="1.56881" transform="matrix(-0.207912 -0.978148 0.978921 -0.204241 10.8888 10.0122)" fill="inherit"/>
<rect y="7.43736" width="7.97467" height="1.46504" rx="0.73252" fill="inherit"/>
<rect y="18.4164" width="11.8608" height="1.46504" rx="0.73252" fill="inherit"/>
<rect y="19.8815" width="12.2664" height="1.46504" rx="0.73252" transform="rotate(-90 0 19.8815)" fill="inherit"/>
<rect width="11.9711" height="1.46504" rx="0.73252" transform="matrix(-0.207912 -0.978148 0.97896 -0.204052 8.15373 14.2984)" fill="inherit"/>
<rect width="12.1403" height="1.46621" rx="0.733105" transform="matrix(-0.207912 -0.978148 0.97896 -0.204052 18.3103 12.0582)" fill="inherit"/>
<rect width="11.614" height="1.46504" rx="0.73252" transform="matrix(0.975142 -0.221579 0.225438 0.974257 7.97467 12.946)" fill="inherit"/>
<rect width="11.6304" height="1.46504" rx="0.732519" transform="matrix(0.97309 -0.230424 0.23442 0.972135 5.73689 2.56398)" fill="inherit"/>
<rect width="7.15764" height="1.46504" rx="0.73252" transform="matrix(-0.00144208 0.999999 -0.999999 -0.00141611 11.8705 12.7264)" fill="inherit"/>
</svg>
