<svg width="22" height="18" viewBox="0 0 22 18" fill="none" xmlns="http://www.w3.org/2000/svg">
<path fill-rule="evenodd" clip-rule="evenodd" d="M18.458 8.32686C17.9466 7.89105 17.1945 7.89105 16.6831 8.32686C16.4639 8.51361 16.1915 8.62647 15.9045 8.64937C15.2347 8.70282 14.7028 9.23468 14.6494 9.90445C14.6265 10.1915 14.5136 10.4639 14.3269 10.6831C13.891 11.1945 13.891 11.9466 14.3269 12.458C14.5136 12.6772 14.6265 12.9496 14.6494 13.2367C14.6821 13.6462 14.8936 14.0042 15.2062 14.2328C15.3707 14.353 15.5 14.5297 15.5 14.7334L15.5 17C15.5 17.412 15.9704 17.6472 16.3 17.4L17.2 16.725C17.3778 16.5917 17.6222 16.5917 17.8 16.725L18.7 17.4C19.0296 17.6472 19.5 17.412 19.5 17L19.5 14.8231C19.5 14.5993 19.6549 14.4104 19.8455 14.2929C20.2067 14.0701 20.456 13.6842 20.4917 13.2367C20.5146 12.9496 20.6275 12.6772 20.8143 12.458C21.2501 11.9466 21.2501 11.1945 20.8143 10.6831C20.6275 10.4639 20.5146 10.1915 20.4917 9.90445C20.4383 9.23468 19.9064 8.70282 19.2367 8.64937C18.9496 8.62647 18.6772 8.51361 18.458 8.32686ZM19.5706 11.5706C19.5706 12.6751 18.6751 13.5706 17.5706 13.5706C16.466 13.5706 15.5706 12.6751 15.5706 11.5706C15.5706 10.466 16.466 9.57055 17.5706 9.57055C18.6751 9.57055 19.5706 10.466 19.5706 11.5706ZM16.6734 7.17028C17.2883 6.66811 18 6.08689 18 5.34956L18 2C18 0.895431 17.1046 -1.76444e-07 16 -2.24726e-07L1.99999 -8.36685e-07C0.895416 -8.84968e-07 -1.33906e-05 0.89543 -1.34389e-05 2L-1.37886e-05 10C-1.38368e-05 11.1046 0.895416 12 1.99999 12L11.3495 12C12.0869 12 12.6681 11.2883 13.1703 10.6734C13.2528 10.5723 13.3333 10.4738 13.4119 10.3815C13.6473 10.1053 13.7895 9.76192 13.8184 9.40019C13.8858 8.55607 14.5561 7.88577 15.4002 7.81841C15.7619 7.78955 16.1053 7.64731 16.3815 7.41194C16.4738 7.33329 16.5723 7.25285 16.6734 7.17028ZM7.99999 9C7.99999 8.44772 7.55227 8 6.99999 8L2.99999 8C2.4477 8 1.99999 8.44771 1.99999 9C1.99999 9.55228 2.4477 10 2.99999 10L6.99999 10C7.55227 10 7.99999 9.55228 7.99999 9ZM12 6C12 6.55229 11.5523 7 11 7L2.99999 7C2.4477 7 1.99999 6.55228 1.99999 6C1.99999 5.44772 2.4477 5 2.99999 5L11 5C11.5523 5 12 5.44772 12 6ZM16 3C16 2.44772 15.5523 2 15 2L2.99999 2C2.4477 2 1.99999 2.44772 1.99999 3C1.99999 3.55228 2.4477 4 2.99999 4L15 4C15.5523 4 16 3.55229 16 3Z" fill="white"/>
</svg>
