<svg id="b5c8b151-4f82-44cb-b799-553c2042fc78" data-name="Layer 1" viewBox="0 0 501 490" xmlns="http://www.w3.org/2000/svg">
<!-- <svg id="b5c8b151-4f82-44cb-b799-553c2042fc78" data-name="Layer 1" xmlns="http://www.w3.org/2000/svg" viewBox="0 0 501 490"> -->
<path d="M380.00183,144l105.4145,27.1L512,68l-20.24448-5.2-17.27938,64.3C430.30633,57.4,351.47551,11,261.5,11,123.16265,11,11,120.7,11,256S123.16265,501,261.5,501c92.32713,0,172.89613-48.8,216.35021-121.5l-18.09736-9.6c-39.97776,66.4-113.79859,111-198.25285,111C134.51184,480.9,31.55122,380.2,31.55122,256S134.51184,31.1,261.5,31.1c85.17,0,159.60429,45.3,199.2753,112.7l-75.45675-19.6Z" transform="translate(-11 -11)"/><path d="M272.54244,364.7V346c18.09736-1,31.90042-6.2,42.53388-15.6s15.95021-21.9,15.95021-36.4c0-15.6-4.2943-27.1-13.80306-34.4-9.611-8.3-23.41408-14.6-43.65858-18.7h-1.02245V193c13.80306,2.1,25.56122,6.2,37.21713,14.6l17.07491-22.9q-25.61236-17.25-54.292-18.7V153.5H256.59223V166c-15.95021,1-29.85551,6.2-40.489,15.6S200.153,203.5,200.153,218s4.29428,26,13.80306,33.3c8.48633,7.3,23.41408,13.5,42.53389,17.7v48.9q-22.39166-3.15-44.681-21.9l-19.1198,21.9c19.1198,16.7,40.489,26,63.90307,28.1v18.7h15.95021Zm1.02245-90.6c10.63346,3.1,17.07491,6.2,21.26692,9.4,3.1696,4.2,5.31675,8.3,5.31675,14.6s-2.14715,10.4-7.46387,14.6-11.75816,6.2-19.1198,7.3Zm-37.21714-44.7a19.53829,19.53829,0,0,1-5.31673-13.5c0-6.2,2.14715-10.4,6.33918-14.6,5.31673-4.2,10.63346-6.2,19.11979-7.3v44.8C245.85653,235.6,239.51733,232.5,236.34775,229.4Z" transform="translate(-11 -11)"/>
</svg>