<?xml version="1.0" standalone="no"?>
<!DOCTYPE svg PUBLIC "-//W3C//DTD SVG 20010904//EN"
 "http://www.w3.org/TR/2001/REC-SVG-20010904/DTD/svg10.dtd">
<svg version="1.0" xmlns="http://www.w3.org/2000/svg"
 width="2000.000000pt" height="2000.000000pt" viewBox="0 0 2000.000000 2000.000000"
 preserveAspectRatio="xMidYMid meet">

<g transform="translate(0.000000,2000.000000) scale(0.100000,-0.100000)"
fill="currentColor">
<path d="M9675 14874 c-218 -13 -397 -28 -581 -50 -1534 -180 -2983 -833
-4154 -1873 -142 -125 -456 -438 -589 -586 -322 -358 -609 -743 -853 -1144
l-88 -145 0 602 c0 400 -4 619 -11 654 -47 226 -259 398 -489 398 -230 0 -442
-172 -489 -398 -8 -38 -11 -700 -11 -2307 l0 -2255 -815 0 c-556 0 -831 -4
-867 -11 -226 -47 -398 -259 -398 -489 0 -230 172 -442 398 -489 36 -7 311
-11 867 -11 l815 0 0 -600 c0 -399 4 -617 11 -652 47 -226 259 -398 489 -398
230 0 442 172 489 398 7 35 11 253 11 652 l0 600 6600 0 6600 0 0 -600 c0
-399 4 -617 11 -652 47 -226 259 -398 489 -398 230 0 442 172 489 398 7 35 11
253 11 652 l0 600 810 0 c552 0 826 4 862 11 226 47 398 259 398 489 0 230
-172 442 -398 489 -36 7 -310 11 -862 11 l-810 0 0 2255 c0 1607 -3 2269 -11
2307 -39 187 -200 348 -387 387 -243 51 -484 -86 -575 -326 -22 -57 -22 -68
-27 -693 l-5 -634 -74 124 c-425 711 -1015 1396 -1675 1945 -542 450 -1200
852 -1846 1128 -775 331 -1521 516 -2390 592 -163 15 -803 28 -945 19z m-165
-4059 l0 -3045 -1450 0 -1450 0 0 2588 0 2588 128 73 c691 392 1481 666 2262
786 138 21 414 53 468 54 l42 1 0 -3045z m1345 3010 c663 -84 1310 -270 1929
-556 161 -75 431 -215 564 -293 l62 -37 0 -2584 0 -2585 -1450 0 -1450 0 0
3046 0 3046 78 -7 c42 -3 163 -17 267 -30z m-5245 -3840 l0 -2215 -1100 0
-1100 0 0 23 c0 108 65 559 116 811 226 1102 719 2101 1472 2984 124 145 583
612 602 612 7 0 10 -791 10 -2215z m9181 1845 c1011 -1065 1624 -2379 1789
-3835 11 -99 20 -190 20 -202 l0 -23 -1095 0 -1095 0 0 2216 0 2216 122 -113
c66 -63 183 -179 259 -259z"/>
</g>
</svg>
