<svg width="20" height="20" viewBox="0 0 20 20" fill="none" xmlns="http://www.w3.org/2000/svg">
<path d="M13.8251 6.31663L8.33342 11.8083L5.34175 8.82496L4.16675 9.99996L8.33342 14.1666L15.0001 7.49996L13.8251 6.31663ZM10.0001 1.66663C5.40008 1.66663 1.66675 5.39996 1.66675 9.99996C1.66675 14.6 5.40008 18.3333 10.0001 18.3333C14.6001 18.3333 18.3334 14.6 18.3334 9.99996C18.3334 5.39996 14.6001 1.66663 10.0001 1.66663ZM10.0001 16.6666C6.31675 16.6666 3.33341 13.6833 3.33341 9.99996C3.33341 6.31663 6.31675 3.33329 10.0001 3.33329C13.6834 3.33329 16.6667 6.31663 16.6667 9.99996C16.6667 13.6833 13.6834 16.6666 10.0001 16.6666Z" fill="current"/>
</svg>
