<svg width="32" height="32" viewBox="0 0 32 32" fill="none" xmlns="http://www.w3.org/2000/svg">
<circle cx="16" cy="16" r="16" fill="#253449"/>
<path d="M5.28146 17.313V16.634H6.41546V15.5H7.10146V16.634H8.23546V17.313H7.10146V18.447H6.41546V17.313H5.28146ZM10.7516 19V14.03H11.5006L13.2366 16.809L14.9726 14.03H15.7216V19H14.9026V15.605L13.5236 17.817H12.9636L11.5706 15.598V19H10.7516ZM19.6696 18.545C19.3196 18.895 18.8856 19.07 18.3676 19.07C17.8496 19.07 17.4132 18.895 17.0586 18.545C16.7086 18.1903 16.5336 17.7587 16.5336 17.25C16.5336 16.7413 16.7086 16.312 17.0586 15.962C17.4132 15.6073 17.8496 15.43 18.3676 15.43C18.8856 15.43 19.3196 15.6073 19.6696 15.962C20.0242 16.312 20.2016 16.7413 20.2016 17.25C20.2016 17.7587 20.0242 18.1903 19.6696 18.545ZM18.3676 18.356C18.6709 18.356 18.9206 18.251 19.1166 18.041C19.3172 17.8263 19.4176 17.5627 19.4176 17.25C19.4176 16.9373 19.3172 16.676 19.1166 16.466C18.9206 16.2513 18.6709 16.144 18.3676 16.144C18.0596 16.144 17.8052 16.2513 17.6046 16.466C17.4086 16.676 17.3106 16.9373 17.3106 17.25C17.3106 17.5627 17.4086 17.8263 17.6046 18.041C17.8052 18.251 18.0596 18.356 18.3676 18.356ZM20.976 19V15.5H21.746V15.969C21.816 15.829 21.9327 15.71 22.096 15.612C22.2593 15.514 22.4367 15.465 22.628 15.465C22.754 15.465 22.873 15.479 22.985 15.507L22.873 16.256C22.803 16.228 22.7027 16.214 22.572 16.214C22.4087 16.214 22.2477 16.2607 22.089 16.354C21.935 16.4473 21.8207 16.5803 21.746 16.753V19H20.976ZM25.0395 19.07C24.5075 19.07 24.0688 18.8997 23.7235 18.559C23.3828 18.2183 23.2125 17.782 23.2125 17.25C23.2125 16.732 23.3851 16.3003 23.7305 15.955C24.0758 15.605 24.5121 15.43 25.0395 15.43C25.5248 15.43 25.9261 15.584 26.2435 15.892C26.5655 16.2 26.7265 16.6247 26.7265 17.166C26.7265 17.2593 26.7241 17.3433 26.7195 17.418H23.9685C23.9871 17.7027 24.0968 17.9337 24.2975 18.111C24.4981 18.2837 24.7478 18.37 25.0465 18.37C25.4945 18.37 25.8281 18.1927 26.0475 17.838L26.6355 18.258C26.2995 18.7993 25.7675 19.07 25.0395 19.07ZM24.0035 16.858H25.9495C25.9075 16.6153 25.7978 16.4263 25.6205 16.291C25.4478 16.151 25.2448 16.081 25.0115 16.081C24.7688 16.081 24.5518 16.1487 24.3605 16.284C24.1738 16.4193 24.0548 16.6107 24.0035 16.858Z" fill="white"/>
</svg>