<svg width="20" height="20" viewBox="0 0 20 20" fill="none" xmlns="http://www.w3.org/2000/svg">
<path d="M9.99163 1.66663C5.39163 1.66663 1.66663 5.39996 1.66663 9.99996C1.66663 14.6 5.39163 18.3333 9.99163 18.3333C14.6 18.3333 18.3333 14.6 18.3333 9.99996C18.3333 5.39996 14.6 1.66663 9.99163 1.66663ZM9.99996 16.6666C6.31663 16.6666 3.33329 13.6833 3.33329 9.99996C3.33329 6.31663 6.31663 3.33329 9.99996 3.33329C13.6833 3.33329 16.6666 6.31663 16.6666 9.99996C16.6666 13.6833 13.6833 16.6666 9.99996 16.6666Z" fill="current"/>
<path d="M11.25 5.83337H10V10.8334L14.375 13.4584L15 12.4334L11.25 10.2084V5.83337Z" fill="current"/>
</svg>
