<?xml version="1.0" encoding="UTF-8" standalone="no"?>
<!DOCTYPE svg PUBLIC "-//W3C//DTD SVG 1.1//EN" "http://www.w3.org/Graphics/SVG/1.1/DTD/svg11.dtd"><svg width="161px"
  height="133px" version="1.1" xmlns="http://www.w3.org/2000/svg"
  style="fill-rule:evenodd;clip-rule:evenodd;stroke-linejoin:round;stroke-miterlimit:2;">
  <path
    d="M75.167,0.196C72.798,0.49 69.632,1.391 67.787,2.272C64.914,3.635 63.342,5.459 63.321,7.43L63.321,8.29L53.948,11.812C48.769,13.762 44.157,15.502 43.674,15.712L42.773,16.089L42.773,36.826C42.773,53.18 42.836,57.625 43.045,57.793C43.381,58.065 80.052,72.092 80.43,72.092C81.059,72.092 117.122,58.401 117.52,58.024C117.94,57.625 117.94,57.332 117.94,37.308C117.94,18.396 117.919,16.97 117.583,16.593C117.374,16.383 112.803,14.517 107.351,12.441L97.497,8.667L97.497,7.849C97.497,4.054 93.429,1.412 85.86,0.28C83.554,-0.055 77.641,-0.097 75.167,0.196ZM84.33,3.132C88.418,3.572 91.899,4.725 93.492,6.151C94.582,7.136 94.624,7.807 93.681,8.709C89.991,12.189 77.914,13.133 70.575,10.512C68.667,9.82 67.158,8.877 66.759,8.122C66.487,7.577 66.487,7.451 66.78,6.885C67.199,6.067 68.311,5.333 70.24,4.599C74.056,3.132 79.277,2.587 84.33,3.132ZM64.201,18.878C65.522,21.1 69.107,22.841 74.328,23.784C77.264,24.308 83.763,24.308 86.699,23.784C90.871,23.029 93.849,21.813 95.673,20.136C97.161,18.731 97.371,18.165 97.497,14.831L97.602,11.98L104.772,14.726C108.714,16.236 111.88,17.536 111.796,17.62C111.608,17.788 93.45,24.665 90.263,25.755C88.984,26.195 87.118,26.887 86.07,27.328C85.042,27.747 83.365,28.418 82.338,28.795L80.472,29.508L65.145,23.617C56.695,20.388 49.524,17.641 49.21,17.536C48.895,17.41 48.686,17.264 48.748,17.201C48.811,17.138 52.145,15.838 56.15,14.328L63.425,11.581L63.53,14.747C63.635,17.704 63.677,17.955 64.201,18.878ZM94.352,14.726L94.352,17.326L93.576,17.997C91.542,19.801 86.636,21.142 82.17,21.142L80.514,21.142L80.514,18.228C80.514,14.831 80.241,15.167 83.239,14.957C86.888,14.706 91.081,13.699 93.199,12.588C93.66,12.336 94.1,12.148 94.205,12.127C94.289,12.127 94.352,13.301 94.352,14.726ZM114.858,37.853L114.795,55.822L98.545,61.965C89.613,65.32 82.233,68.088 82.149,68.109C82.044,68.109 81.981,60.015 81.981,50.119L81.981,32.15L98.189,26.028C107.079,22.673 114.501,19.905 114.648,19.905C114.858,19.884 114.9,23.533 114.858,37.853Z"
    style="fill-rule:nonzero;" />
  <path
    d="M0,72.512L0,132.897L160.608,132.897L160.608,72.512L0,72.512ZM28.578,91.822C30.36,92.074 31.807,92.514 33.17,93.185C34.365,93.793 36.902,96.121 36.902,96.603C36.902,96.792 36.126,97.777 35.183,98.784C33.149,100.922 32.897,100.985 31.22,99.853C29.543,98.721 28.452,98.28 26.88,98.154C25.307,98.029 23.42,98.406 21.806,99.203C20.317,99.916 18.43,101.929 17.528,103.753C16.459,105.933 16.145,107.233 15.998,110.085C15.809,113.922 16.48,116.396 18.262,118.325C19.751,119.939 20.464,120.212 23.169,120.212C25.81,120.212 26.712,119.939 28.41,118.639C30.172,117.297 30.633,117.381 32.268,119.373C32.981,120.254 33.631,121.113 33.694,121.281C33.904,121.847 31.262,124.07 28.997,125.202C26.23,126.607 21.575,127.194 18.451,126.523C12.329,125.223 8.387,120.128 8.03,113.02C7.653,105.64 10.651,98.909 16.04,95.051C18.451,93.332 20.778,92.389 23.861,91.906C26.188,91.55 26.733,91.55 28.578,91.822ZM112.258,92.221C114.774,93.018 117.017,95.198 117.73,97.567C118.422,99.832 117.961,103.187 116.703,105.178C116.095,106.164 114.69,107.443 113.746,107.883C113.348,108.072 113.013,108.303 113.013,108.365C113.013,108.428 113.369,108.701 113.809,108.953C115.948,110.148 117.038,112.098 117.164,114.97C117.479,122.12 111.692,127.194 103.682,126.754C100.642,126.586 98.797,125.894 96.91,124.196C94.876,122.371 93.974,119.478 94.352,116.123C94.729,112.873 96.26,110.525 98.965,109.12L100.453,108.324L99.342,107.254C97.623,105.598 97.392,104.969 97.392,101.971C97.392,99.517 97.413,99.392 98.105,97.987C100.516,93.08 106.764,90.522 112.258,92.221ZM56.926,92.577C58.414,93.059 59.819,93.772 60.742,94.464C61.664,95.177 62.817,96.959 63.195,98.28C63.887,100.629 63.404,104.361 62.125,106.751C61.308,108.261 59.085,110.441 57.492,111.28L56.15,111.972L57.072,112.852C57.743,113.502 58.205,114.236 58.855,115.809C62.084,123.504 63.258,126.397 63.153,126.502C63.09,126.565 61.434,126.607 59.463,126.607C56.443,126.607 55.751,126.544 55.039,126.208C54.032,125.768 54.116,125.915 51.705,119.394C50.719,116.752 49.734,114.404 49.503,114.152C49.189,113.838 48.727,113.712 47.721,113.649L46.358,113.565L46.232,114.257C46.128,114.928 45.897,116.731 45.184,122.938C45.016,124.426 44.828,125.873 44.765,126.125C44.66,126.607 44.618,126.607 40.844,126.607L37.049,126.607L37.196,125.391C37.258,124.741 37.51,122.644 37.741,120.736C37.971,118.828 38.265,116.48 38.37,115.494C38.475,114.509 38.663,112.999 38.789,112.14C38.894,111.28 39.187,109.015 39.418,107.107C40.655,96.855 41.116,93.101 41.221,92.577L41.347,91.969L48.497,92.074C54.955,92.158 55.793,92.2 56.926,92.577ZM93.304,92.368C93.304,92.577 93.157,93.877 92.989,95.261C92.821,96.624 92.674,97.84 92.674,97.924C92.674,98.008 87.16,98.092 80.409,98.092C73.657,98.092 68.143,98.029 68.143,97.966C68.143,97.588 68.793,92.493 68.877,92.263C68.94,92.074 71.582,92.011 81.143,92.011C92.591,92.011 93.304,92.032 93.304,92.368ZM141.633,92.703C143.624,93.353 144.903,94.129 146.015,95.366C147.042,96.519 147.545,97.672 147.797,99.454C148.51,104.403 145.868,109.372 141.381,111.573L140.521,111.993L141.444,112.852C142.325,113.649 142.597,114.173 145.008,119.981C146.434,123.441 147.608,126.334 147.608,126.439C147.608,126.523 145.952,126.607 143.939,126.607C140.102,126.607 139.263,126.46 138.571,125.642C138.383,125.412 137.397,122.98 136.391,120.212C134.231,114.299 134.126,114.069 133.434,113.817C132.659,113.523 130.835,113.565 130.73,113.859C130.667,114.006 130.289,116.857 129.87,120.212C129.472,123.546 129.073,126.355 129.031,126.439C128.885,126.649 121.672,126.649 121.546,126.439C121.441,126.292 121.567,125.076 122.133,120.736C122.301,119.415 122.636,116.71 122.867,114.76C123.328,110.944 123.685,107.946 124.859,98.511C125.257,95.219 125.593,92.41 125.593,92.263C125.593,92.032 126.872,91.99 132.785,92.053C139.871,92.137 139.976,92.158 141.633,92.703ZM86.175,106.52C86.175,106.793 86.028,107.946 85.86,109.078C85.692,110.232 85.546,111.427 85.546,111.741C85.546,112.056 85.399,112.349 85.21,112.433C85.022,112.496 81.96,112.559 78.375,112.559L71.854,112.559L71.98,111.238C72.043,110.525 72.211,109.057 72.357,107.988L72.609,106.059L86.175,106.059L86.175,106.52ZM89.802,120.484C89.949,120.694 89.257,126.02 89.047,126.334C88.921,126.544 86.238,126.607 76.865,126.607C70.261,126.607 64.809,126.565 64.746,126.502C64.642,126.397 64.83,124.741 65.229,121.931L65.459,120.317L77.599,120.317C84.267,120.317 89.76,120.38 89.802,120.484Z"
    style="fill-rule:nonzero;" />
  <path
    d="M106.408,97.337C104.898,98.008 104.143,99.538 104.123,101.971C104.102,104.633 104.919,105.64 107.121,105.64C108.463,105.64 108.987,105.43 109.826,104.57C110.643,103.732 111.126,102.243 111.126,100.566C111.126,98.993 110.706,98.008 109.826,97.463C109.008,96.98 107.372,96.917 106.408,97.337Z"
    style="fill-rule:nonzero;" />
  <path
    d="M103.997,111.867C103.095,112.349 102.76,112.685 102.319,113.502C101.837,114.446 101.795,114.781 101.795,116.983C101.795,119.143 101.858,119.52 102.235,120.023C102.927,120.967 103.703,121.428 104.793,121.533C107.876,121.826 109.888,119.457 109.93,115.473C109.951,112.58 109.05,111.469 106.555,111.343C105.339,111.28 105.003,111.343 103.997,111.867Z"
    style="fill-rule:nonzero;" />
  <path
    d="M48.329,97.693C48.287,97.861 47.994,99.958 47.7,102.39C47.407,104.801 47.134,107.149 47.071,107.569L46.966,108.365L48.916,108.365C53.173,108.365 55.143,106.898 55.751,103.291C56.192,100.754 55.374,98.867 53.487,98.029C52.25,97.484 48.497,97.232 48.329,97.693Z"
    style="fill-rule:nonzero;" />
  <path
    d="M132.638,98.008C132.512,98.616 131.757,104.906 131.526,107.149L131.401,108.365L133.393,108.365C136.768,108.365 138.467,107.527 139.536,105.325C139.955,104.508 140.123,103.753 140.207,102.558C140.291,101.069 140.249,100.817 139.704,99.769C138.865,98.134 137.817,97.63 134.923,97.505L132.764,97.4L132.638,98.008Z"
    style="fill-rule:nonzero;" />
</svg>