<svg width="16" height="16" viewBox="0 0 16 16" fill="none" xmlns="http://www.w3.org/2000/svg">
<path fill-rule="evenodd" clip-rule="evenodd" d="M2 0C1.44772 0 1 0.447715 1 1V9.57567C1 9.82442 1.25125 10 1.5 10H2.5C2.74875 10 3 9.82442 3 9.57567V1C3 0.447715 2.55228 0 2 0ZM3 13.4243C3 13.1756 2.74875 13 2.5 13H1.5C1.25125 13 1 13.1756 1 13.4243V15C1 15.5523 1.44772 16 2 16C2.55228 16 3 15.5523 3 15V13.4243Z" fill="white"/>
<rect y="9" width="4" height="2" rx="0.75" fill="white"/>
<path fill-rule="evenodd" clip-rule="evenodd" d="M8 0C7.44772 0 7 0.447715 7 1V4.57567C7 4.82442 7.25125 5 7.5 5H8.5C8.74875 5 9 4.82442 9 4.57567V1C9 0.447715 8.55228 0 8 0ZM9 8.42433C9 8.17558 8.74875 8 8.5 8H7.5C7.25125 8 7 8.17558 7 8.42433V15C7 15.5523 7.44772 16 8 16C8.55228 16 9 15.5523 9 15V8.42433Z" fill="white"/>
<rect x="6" y="4" width="4" height="2" rx="0.75" fill="white"/>
<path fill-rule="evenodd" clip-rule="evenodd" d="M14 0C13.4477 0 13 0.447715 13 1V9.57567C13 9.82442 13.2512 10 13.5 10H14.5C14.7488 10 15 9.82442 15 9.57567V1C15 0.447715 14.5523 0 14 0ZM15 13.4243C15 13.1756 14.7488 13 14.5 13H13.5C13.2512 13 13 13.1756 13 13.4243V15C13 15.5523 13.4477 16 14 16C14.5523 16 15 15.5523 15 15V13.4243Z" fill="white"/>
<rect x="12" y="9" width="4" height="2" rx="0.75" fill="white"/>
</svg>
