<svg width="14" height="18" viewBox="0 0 14 18" fill="none" xmlns="http://www.w3.org/2000/svg">
<path fill-rule="evenodd" clip-rule="evenodd" d="M2 0C0.895431 0 0 0.89543 0 2V16C0 17.1046 0.89543 18 2 18H12C13.1046 18 14 17.1046 14 16V8C14 6.89543 13.1046 6 12 6H10C8.89543 6 8 5.10457 8 4V2C8 0.89543 7.10457 0 6 0H2ZM3 5C2.44772 5 2 5.44772 2 6C2 6.55228 2.44772 7 3 7H5C5.55228 7 6 6.55228 6 6C6 5.44772 5.55228 5 5 5H3ZM11 9C11.5523 9 12 9.44771 12 10C12 10.5523 11.5523 11 11 11H3C2.44772 11 2 10.5523 2 10C2 9.44771 2.44772 9 3 9H11ZM3 13C2.44772 13 2 13.4477 2 14C2 14.5523 2.44772 15 3 15H11C11.5523 15 12 14.5523 12 14C12 13.4477 11.5523 13 11 13H3ZM11 0C10.4477 0 10 0.447715 10 1V3C10 3.55228 10.4477 4 11 4H13C13.5523 4 14 3.55228 14 3V0.5C14 0.223858 13.7761 0 13.5 0H11Z" fill="white"/>
</svg>
