<svg width="18" height="13" viewBox="0 0 18 13" fill="none" xmlns="http://www.w3.org/2000/svg">
<path d="M11.6078 6.16667C11.6078 5.16549 12.4204 4.35294 13.4216 4.35294C14.4227 4.35294 15.2353 5.16549 15.2353 6.16667C15.2353 7.16784 14.4227 7.98039 13.4216 7.98039C12.4204 7.98039 11.6078 7.16784 11.6078 6.16667ZM9.43137 0V12.3333H17.4118V0H9.43137ZM15.9608 9.43137C15.1627 9.43137 14.5098 10.0843 14.5098 10.8824H12.3333C12.3333 10.0843 11.6876 9.43137 10.8824 9.43137V2.90196C11.6876 2.90196 12.3333 2.25627 12.3333 1.45098H14.5098C14.5098 2.25627 15.1627 2.90196 15.9608 2.90196V9.43137ZM5.07843 2.17647C5.87647 2.17647 6.52941 2.82941 6.52941 3.62745C6.52941 4.42549 5.87647 5.07843 5.07843 5.07843C4.28039 5.07843 3.62745 4.42549 3.62745 3.62745C3.62745 2.82941 4.28039 2.17647 5.07843 2.17647ZM5.07843 0.72549C3.4751 0.72549 2.17647 2.02412 2.17647 3.62745C2.17647 5.23078 3.4751 6.52941 5.07843 6.52941C6.68176 6.52941 7.98039 5.23078 7.98039 3.62745C7.98039 2.02412 6.68176 0.72549 5.07843 0.72549ZM5.07843 7.98039C2.27078 7.98039 0 9.27902 0 10.8824V12.3333H7.98039V10.8824H1.45098C1.45098 10.4616 2.72059 9.43137 5.07843 9.43137C6.40608 9.43137 7.37823 9.75784 7.98039 10.1206V8.50274C7.16059 8.17627 6.16667 7.98039 5.07843 7.98039Z" fill="current"/>
</svg>
