<svg width="16" height="16" viewBox="0 0 16 16" fill="none" xmlns="http://www.w3.org/2000/svg">
<g clip-path="url(#clip0_2515_51471)">
<path d="M15.3334 14V12.6667C15.3329 12.0758 15.1363 11.5019 14.7743 11.0349C14.4123 10.5679 13.9055 10.2344 13.3334 10.0867" stroke="white" stroke-width="1.5" stroke-linecap="round" stroke-linejoin="round"/>
<path d="M11.3333 14V12.6667C11.3333 11.9594 11.0523 11.2811 10.5522 10.781C10.0521 10.281 9.37387 10 8.66663 10H3.33329C2.62605 10 1.94777 10.281 1.44767 10.781C0.947578 11.2811 0.666626 11.9594 0.666626 12.6667V14" stroke="white" stroke-width="1.5" stroke-linecap="round" stroke-linejoin="round"/>
<path d="M10.6666 2.08667C11.2402 2.23354 11.7487 2.56714 12.1117 3.03488C12.4748 3.50262 12.6719 4.07789 12.6719 4.67C12.6719 5.26212 12.4748 5.83739 12.1117 6.30513C11.7487 6.77287 11.2402 7.10647 10.6666 7.25334" stroke="white" stroke-width="1.5" stroke-linecap="round" stroke-linejoin="round"/>
<path d="M6.00004 7.33333C7.4728 7.33333 8.66671 6.13943 8.66671 4.66667C8.66671 3.19391 7.4728 2 6.00004 2C4.52728 2 3.33337 3.19391 3.33337 4.66667C3.33337 6.13943 4.52728 7.33333 6.00004 7.33333Z" stroke="white" stroke-width="1.5" stroke-linecap="round" stroke-linejoin="round"/>
</g>
<defs>
<clipPath id="clip0_2515_51471">
<rect width="16" height="16" fill="white"/>
</clipPath>
</defs>
</svg>
