<svg width="20" height="20" viewBox="0 0 20 20" fill="none" xmlns="http://www.w3.org/2000/svg">
<path d="M10 14.0625C11.7259 14.0625 13.125 12.6634 13.125 10.9375C13.125 9.21161 11.7259 7.8125 10 7.8125C8.27411 7.8125 6.875 9.21161 6.875 10.9375C6.875 12.6634 8.27411 14.0625 10 14.0625Z" stroke="white" stroke-width="1.6" stroke-linecap="round" stroke-linejoin="round"/>
<path d="M15.3125 9.06251C16.0404 9.06129 16.7586 9.23018 17.4096 9.55572C18.0607 9.88126 18.6267 10.3544 19.0625 10.9375" stroke="white" stroke-width="1.6" stroke-linecap="round" stroke-linejoin="round"/>
<path d="M0.9375 10.9375C1.37328 10.3544 1.93928 9.88126 2.59036 9.55572C3.24144 9.23018 3.95957 9.06129 4.6875 9.06251" stroke="white" stroke-width="1.6" stroke-linecap="round" stroke-linejoin="round"/>
<path d="M5.5 16.875C5.91158 16.0321 6.55163 15.3217 7.34722 14.8248C8.14282 14.3279 9.06198 14.0645 10 14.0645C10.938 14.0645 11.8572 14.3279 12.6528 14.8248C13.4484 15.3217 14.0884 16.0321 14.5 16.875" stroke="white" stroke-width="1.6" stroke-linecap="round" stroke-linejoin="round"/>
<path d="M4.69004 9.0625C4.21554 9.06298 3.7507 8.92842 3.34984 8.67453C2.94898 8.42064 2.62865 8.05792 2.42628 7.62874C2.22391 7.19956 2.14785 6.72165 2.207 6.25085C2.26615 5.78006 2.45806 5.33581 2.76031 4.97003C3.06256 4.60426 3.46267 4.33205 3.91387 4.18521C4.36508 4.03838 4.84876 4.02298 5.30839 4.14083C5.76802 4.25867 6.18463 4.50489 6.50952 4.85071C6.83442 5.19653 7.05419 5.62767 7.14316 6.09375" stroke="white" stroke-width="1.6" stroke-linecap="round" stroke-linejoin="round"/>
<path d="M12.8594 6.09375C12.9483 5.62767 13.1681 5.19653 13.493 4.85071C13.8179 4.50489 14.2345 4.25867 14.6941 4.14083C15.1538 4.02298 15.6375 4.03838 16.0887 4.18521C16.5399 4.33205 16.94 4.60426 17.2422 4.97003C17.5445 5.33581 17.7364 5.78006 17.7955 6.25085C17.8547 6.72165 17.7786 7.19956 17.5763 7.62874C17.3739 8.05792 17.0536 8.42064 16.6527 8.67453C16.2518 8.92842 15.787 9.06298 15.3125 9.0625" stroke="white" stroke-width="1.6" stroke-linecap="round" stroke-linejoin="round"/>
</svg>
