<svg width="20" height="20" viewBox="0 0 20 20" fill="none" xmlns="http://www.w3.org/2000/svg">
<g clip-path="url(#clip0_174_5202)">
<path d="M10 0C15.5226 0.00017627 19.9998 4.47741 20 10C19.9998 15.5226 15.5226 19.9998 10 20C4.47741 19.9998 0.000176266 15.5226 0 10C0.000175901 4.47741 4.47741 0.000175905 10 0ZM10 15.4355C9.42467 16.4758 8.57687 17.3532 7.53613 17.9629C8.31484 18.2036 9.14228 18.333 10 18.333C10.8573 18.333 11.6845 18.2034 12.4629 17.9629C11.4225 17.3532 10.5752 16.4756 10 15.4355ZM7.64648 10.8359C5.46417 10.8976 3.56832 12.371 2.97559 14.4805C3.62851 15.5018 4.49723 16.3704 5.51855 17.0234C7.62837 16.4309 9.10144 14.536 9.16309 12.3535C8.45622 12.1019 7.89759 11.5431 7.64648 10.8359ZM12.3535 10.8359C12.1022 11.5434 11.5434 12.1022 10.8359 12.3535C10.8976 14.5357 12.3711 16.4306 14.4805 17.0234C15.5019 16.3705 16.3705 15.5019 17.0234 14.4805C16.4306 12.3711 14.5357 10.8976 12.3535 10.8359ZM2.03613 7.53613C1.79545 8.31478 1.66605 9.14235 1.66602 10C1.66605 10.8572 1.79567 11.6846 2.03613 12.4629C2.64567 11.4225 3.52363 10.5753 4.56348 10C3.52338 9.4246 2.64568 8.57681 2.03613 7.53613ZM17.9629 7.53613C17.3532 8.57687 16.4758 9.42467 15.4355 10C16.4756 10.5752 17.3532 11.4225 17.9629 12.4629C18.2034 11.6845 18.333 10.8573 18.333 10C18.333 9.14228 18.2036 8.31484 17.9629 7.53613ZM10 9.16602C9.54002 9.16619 9.16619 9.54002 9.16602 10C9.16619 10.46 9.54002 10.8328 10 10.833C10.46 10.8328 10.8328 10.46 10.833 10C10.8328 9.54002 10.46 9.16619 10 9.16602ZM5.51855 2.97559C4.49733 3.62853 3.62853 4.49733 2.97559 5.51855C3.56184 7.60646 5.42435 9.07197 7.57812 9.16211L7.64648 9.16309C7.89782 8.45653 8.45653 7.89782 9.16309 7.64648C9.10144 5.46387 7.62851 3.56803 5.51855 2.97559ZM14.4805 2.97559C12.371 3.56832 10.8976 5.46417 10.8359 7.64648C11.5431 7.89759 12.1019 8.45622 12.3535 9.16309L12.4219 9.16211C14.5756 9.07197 16.4371 7.60632 17.0234 5.51855C16.3704 4.49723 15.5018 3.62851 14.4805 2.97559ZM10 1.66602C9.14235 1.66605 8.31478 1.79545 7.53613 2.03613C8.57681 2.64568 9.4246 3.52338 10 4.56348C10.5753 3.52363 11.4225 2.64567 12.4629 2.03613C11.6846 1.79567 10.8572 1.66605 10 1.66602Z" fill="#A38257"/>
</g>
<defs>
<clipPath id="clip0_174_5202">
<rect width="20" height="20" fill="white"/>
</clipPath>
</defs>
</svg>
