<svg width="20" height="20" viewBox="0 0 20 20" fill="none" xmlns="http://www.w3.org/2000/svg">
<path d="M6.35938 19.1797C6.84375 19.1797 7.21875 18.9609 7.8125 18.4375L10.4766 16.0938H14.9375C17.3047 16.0938 18.6875 14.6875 18.6875 12.3516V6.20312C18.6875 3.86719 17.3047 2.45312 14.9375 2.45312H5.0625C2.69531 2.45312 1.3125 3.85938 1.3125 6.20312V12.3516C1.3125 14.6953 2.75781 16.0938 4.96094 16.0938H5.23438V17.9219C5.23438 18.6953 5.65625 19.1797 6.35938 19.1797ZM6.78906 17.1875V14.9922C6.78906 14.4922 6.57031 14.3125 6.10938 14.3125H5.14844C3.76562 14.3125 3.10156 13.6094 3.10156 12.2578V6.28906C3.10156 4.9375 3.76562 4.24219 5.14844 4.24219H14.8516C16.2266 4.24219 16.8984 4.9375 16.8984 6.28906V12.2578C16.8984 13.6094 16.2266 14.3125 14.8516 14.3125H10.3594C9.85156 14.3125 9.61719 14.3984 9.25 14.7656L6.78906 17.1875ZM6.0625 7.3125H13.8672C14.1484 7.3125 14.3828 7.07812 14.3828 6.79688C14.3828 6.51562 14.1484 6.28906 13.8672 6.28906H6.0625C5.78906 6.28906 5.5625 6.51562 5.5625 6.79688C5.5625 7.07812 5.78906 7.3125 6.0625 7.3125ZM6.0625 9.75H13.8672C14.1484 9.75 14.3828 9.51562 14.3828 9.22656C14.3828 8.95312 14.1484 8.71875 13.8672 8.71875H6.0625C5.78906 8.71875 5.5625 8.95312 5.5625 9.22656C5.5625 9.51562 5.78906 9.75 6.0625 9.75ZM6.0625 12.1875H11.1562C11.4453 12.1875 11.6719 11.9531 11.6719 11.6719C11.6719 11.3828 11.4453 11.1562 11.1562 11.1562H6.0625C5.78906 11.1562 5.5625 11.3906 5.5625 11.6719C5.5625 11.9531 5.78906 12.1875 6.0625 12.1875Z" />
</svg>
