<svg width="18" height="16" viewBox="0 0 18 16" fill="none" xmlns="http://www.w3.org/2000/svg">
<path fill-rule="evenodd" clip-rule="evenodd" d="M9.29827 0.04552C9.10406 -0.0151733 8.89594 -0.0151733 8.70173 0.04552L1.40441 2.32593C1.16381 2.40112 1 2.62394 1 2.876V2.95231C1 3.22845 1.22386 3.45231 1.5 3.45231C1.77614 3.45231 2 3.67617 2 3.95231C2 4.22845 2.22386 4.45231 2.5 4.45231H15.5C15.7761 4.45231 16 4.22845 16 3.95231C16 3.67617 16.2239 3.45231 16.5 3.45231C16.7761 3.45231 17 3.22845 17 2.95231V2.876C17 2.62394 16.8362 2.40112 16.5956 2.32593L9.29827 0.04552ZM4 12.2023C4 12.3404 3.88807 12.4523 3.75 12.4523H2.25C2.11193 12.4523 2 12.5642 2 12.7023V13.2023C2 13.3404 2.11193 13.4523 2.25 13.4523H15.75C15.8881 13.4523 16 13.3404 16 13.2023V12.7023C16 12.5642 15.8881 12.4523 15.75 12.4523H14.25C14.1119 12.4523 14 12.3404 14 12.2023V5.70231C14 5.56424 13.8881 5.45231 13.75 5.45231H12.25C12.1119 5.45231 12 5.56424 12 5.70231V12.2023C12 12.3404 11.8881 12.4523 11.75 12.4523H10.25C10.1119 12.4523 10 12.3404 10 12.2023V5.70231C10 5.56424 9.88807 5.45231 9.75 5.45231H8.25C8.11193 5.45231 8 5.56424 8 5.70231V12.2023C8 12.3404 7.88807 12.4523 7.75 12.4523H6.25C6.11193 12.4523 6 12.3404 6 12.2023V5.70231C6 5.56424 5.88807 5.45231 5.75 5.45231H4.25C4.11193 5.45231 4 5.56424 4 5.70231V12.2023ZM0.75 14.4523C0.335786 14.4523 0 14.7881 0 15.2023C0 15.6165 0.335787 15.9523 0.75 15.9523H17.25C17.6642 15.9523 18 15.6165 18 15.2023C18 14.7881 17.6642 14.4523 17.25 14.4523H0.75Z" fill="white"/>
</svg>
