<svg width="20" height="20" viewBox="0 0 20 20" fill="none" xmlns="http://www.w3.org/2000/svg">
<path d="M10 2.73416C8.985 1.54626 7.50095 0.8 5.95 0.8C3.05168 0.8 0.8 3.27994 0.8 6.39509C0.8 8.30932 1.59153 10.0334 2.94937 11.844C4.29573 13.6393 6.21541 15.5406 8.50921 17.8125L8.55426 17.8571L8.55467 17.8575L9.85967 19.1425L10.0005 19.2812L10.1409 19.142L11.4456 17.8474L11.4459 17.8471L11.4668 17.8264C13.7712 15.5489 15.6995 13.6431 17.0506 11.8428C18.4085 10.0334 19.2 8.30932 19.2 6.39509C19.2 3.27994 16.9483 0.8 14.05 0.8C12.499 0.8 11.015 1.54626 10 2.73416ZM10 16.0612C7.87748 13.9665 6.12856 12.2356 4.9058 10.6784C3.67255 9.10779 3 7.74455 3 6.39509C3 4.52714 4.27632 3.16185 5.95 3.16185C7.24833 3.16185 8.52482 4.07679 8.97452 5.34374L9.02176 5.47684H9.163H10.846H10.9881L11.0349 5.34261C11.4757 4.07687 12.7515 3.16185 14.05 3.16185C15.7237 3.16185 17 4.52714 17 6.39509C17 7.74455 16.3275 9.10779 15.0942 10.6784C13.8714 12.2356 12.1225 13.9665 10 16.0612Z" fill="current" stroke="current" stroke-width="0.4"/>
</svg>
