<svg width="22" height="17" viewBox="0 0 22 17" fill="none" xmlns="http://www.w3.org/2000/svg">
<path d="M20.8495 9.0282C20.545 8.35996 19.8782 8.13608 19.3601 8.53L13.5506 12.9453L10.8808 11.5748C10.8808 11.5748 10.4934 11.3894 10.7593 10.6124C11.0036 9.90049 11.3699 10.1425 11.3699 10.1425L13.1953 11.0522C13.3238 11.1157 13.4568 11.1469 13.587 11.1469C14.0231 11.1469 14.4355 10.8045 14.6017 10.2474C14.8184 9.52357 14.5394 8.70967 13.9784 8.43024L9.11817 6.00552C8.93611 5.91427 8.74573 5.88706 8.56718 5.93184C6.99318 6.33029 6 7.18614 6 7.18614V13.5959C6 13.5959 7.18664 13.4559 7.58146 13.4559C8.39741 13.4559 9.38577 13.8334 9.38577 13.8334L13.2418 15.8121C13.3712 15.8778 13.5068 15.9107 13.6428 15.9107C13.8349 15.9107 14.0253 15.8455 14.1946 15.7169L20.463 10.953C20.9815 10.5591 21.1544 9.69758 20.8495 9.0282Z" stroke="white" stroke-width="1.15" stroke-miterlimit="10"/>
<path d="M6 5.91071H1V14.9107H6V5.91071Z" stroke="white" stroke-width="1.15" stroke-miterlimit="10"/>
<path d="M4.27825 8.95176C4.67085 8.95176 4.98912 8.6335 4.98912 8.2409C4.98912 7.8483 4.67085 7.53003 4.27825 7.53003C3.88565 7.53003 3.56738 7.8483 3.56738 8.2409C3.56738 8.6335 3.88565 8.95176 4.27825 8.95176Z" fill="white"/>
<mask id="path-4-inside-1_740_9056" fill="white">
<path d="M18.3024 0.0892944C17.5352 0.0892944 16.7989 0.446441 16.3183 1.01082C15.8377 0.446441 15.1013 0.0892944 14.3341 0.0892944C12.9761 0.0892944 11.9091 1.15632 11.9091 2.51436C11.9091 4.18104 13.4082 5.53908 15.6789 7.6026L16.3183 8.1802L16.9576 7.59819C19.2284 5.53908 20.7275 4.18104 20.7275 2.51436C20.7275 1.15632 19.6605 0.0892944 18.3024 0.0892944ZM16.3624 6.94562L16.3183 6.98971L16.2742 6.94562C14.1754 5.04525 12.7909 3.78863 12.7909 2.51436C12.7909 1.63252 13.4523 0.971137 14.3341 0.971137C15.0131 0.971137 15.6745 1.40765 15.9082 2.01171H16.7327C16.962 1.40765 17.6234 0.971137 18.3024 0.971137C19.1843 0.971137 19.8456 1.63252 19.8456 2.51436C19.8456 3.78863 18.4611 5.04525 16.3624 6.94562Z"/>
</mask>
<path d="M18.3024 0.0892944C17.5352 0.0892944 16.7989 0.446441 16.3183 1.01082C15.8377 0.446441 15.1013 0.0892944 14.3341 0.0892944C12.9761 0.0892944 11.9091 1.15632 11.9091 2.51436C11.9091 4.18104 13.4082 5.53908 15.6789 7.6026L16.3183 8.1802L16.9576 7.59819C19.2284 5.53908 20.7275 4.18104 20.7275 2.51436C20.7275 1.15632 19.6605 0.0892944 18.3024 0.0892944ZM16.3624 6.94562L16.3183 6.98971L16.2742 6.94562C14.1754 5.04525 12.7909 3.78863 12.7909 2.51436C12.7909 1.63252 13.4523 0.971137 14.3341 0.971137C15.0131 0.971137 15.6745 1.40765 15.9082 2.01171H16.7327C16.962 1.40765 17.6234 0.971137 18.3024 0.971137C19.1843 0.971137 19.8456 1.63252 19.8456 2.51436C19.8456 3.78863 18.4611 5.04525 16.3624 6.94562Z" fill="white"/>
<path d="M16.3183 1.01082L15.4427 1.75641L16.3183 2.78458L17.1938 1.75641L16.3183 1.01082ZM15.6789 7.6026L14.9055 8.45368L14.908 8.45592L15.6789 7.6026ZM16.3183 8.1802L15.5473 9.03353L16.3212 9.73268L17.0924 9.0306L16.3183 8.1802ZM16.9576 7.59819L16.1851 6.74628L16.1835 6.74779L16.9576 7.59819ZM16.3624 6.94562L15.5905 6.09315L15.5694 6.11229L15.5492 6.13245L16.3624 6.94562ZM16.3183 6.98971L15.5051 7.80289L16.3183 8.61606L17.1314 7.80289L16.3183 6.98971ZM16.2742 6.94562L17.0874 6.13245L17.0672 6.11229L17.0461 6.09315L16.2742 6.94562ZM15.9082 2.01171L14.8357 2.42664L15.12 3.16171H15.9082V2.01171ZM16.7327 2.01171V3.16171H17.5263L17.8079 2.4198L16.7327 2.01171ZM18.3024 -1.06071C17.187 -1.06071 16.1345 -0.547085 15.4427 0.265231L17.1938 1.75641C17.4633 1.43997 17.8834 1.23929 18.3024 1.23929V-1.06071ZM17.1938 0.265231C16.5021 -0.547085 15.4495 -1.06071 14.3341 -1.06071V1.23929C14.7531 1.23929 15.1732 1.43997 15.4427 1.75641L17.1938 0.265231ZM14.3341 -1.06071C12.341 -1.06071 10.7591 0.521197 10.7591 2.51436H13.0591C13.0591 1.79145 13.6112 1.23929 14.3341 1.23929V-1.06071ZM10.7591 2.51436C10.7591 3.72544 11.3141 4.73462 12.0521 5.63746C12.7768 6.52411 13.7936 7.44318 14.9055 8.45368L16.4523 6.75151C15.2936 5.6985 14.4254 4.90679 13.8329 4.18188C13.2536 3.47314 13.0591 2.96996 13.0591 2.51436H10.7591ZM14.908 8.45592L15.5473 9.03353L17.0892 7.32688L16.4499 6.74927L14.908 8.45592ZM17.0924 9.0306L17.7318 8.44859L16.1835 6.74779L15.5441 7.3298L17.0924 9.0306ZM17.7301 8.45009C18.8423 7.44152 19.8592 6.52358 20.5842 5.63721C21.3224 4.73469 21.8775 3.72546 21.8775 2.51436H19.5775C19.5775 2.96995 19.383 3.47308 18.8039 4.18103C18.2117 4.90512 17.3436 5.69575 16.1851 6.74628L17.7301 8.45009ZM21.8775 2.51436C21.8775 0.521197 20.2956 -1.06071 18.3024 -1.06071V1.23929C19.0253 1.23929 19.5775 1.79145 19.5775 2.51436H21.8775ZM15.5492 6.13245L15.5051 6.17654L17.1314 7.80289L17.1755 7.75879L15.5492 6.13245ZM17.1314 6.17654L17.0874 6.13245L15.461 7.75879L15.5051 7.80289L17.1314 6.17654ZM17.0461 6.09315C15.9765 5.12472 15.1694 4.39028 14.6192 3.74746C14.0579 3.09158 13.9409 2.72702 13.9409 2.51436H11.6409C11.6409 3.57597 12.2161 4.47685 12.8718 5.24294C13.5386 6.02209 14.4731 6.86615 15.5023 7.79809L17.0461 6.09315ZM13.9409 2.51436C13.9409 2.36871 13.9919 2.27835 14.045 2.22523C14.0981 2.17211 14.1885 2.12114 14.3341 2.12114V-0.178863C12.8172 -0.178863 11.6409 0.997392 11.6409 2.51436H13.9409ZM14.3341 2.12114C14.57 2.12114 14.7846 2.2946 14.8357 2.42664L16.9808 1.59679C16.5645 0.520704 15.4563 -0.178863 14.3341 -0.178863V2.12114ZM15.9082 3.16171H16.7327V0.861712H15.9082V3.16171ZM17.8079 2.4198C17.8551 2.29534 18.0648 2.12114 18.3024 2.12114V-0.178863C17.182 -0.178863 16.0689 0.519963 15.6576 1.60362L17.8079 2.4198ZM18.3024 2.12114C18.4481 2.12114 18.5384 2.17211 18.5915 2.22523C18.6447 2.27835 18.6956 2.36871 18.6956 2.51436H20.9956C20.9956 0.997392 19.8194 -0.178863 18.3024 -0.178863V2.12114ZM18.6956 2.51436C18.6956 2.72702 18.5786 3.09158 18.0173 3.74746C17.4672 4.39028 16.66 5.12472 15.5905 6.09315L17.1342 7.79809C18.1635 6.86615 19.098 6.02209 19.7648 5.24294C20.4204 4.47685 20.9956 3.57597 20.9956 2.51436H18.6956Z" fill="white" mask="url(#path-4-inside-1_740_9056)"/>
</svg>
