<svg width="18" height="18" viewBox="0 0 18 18" fill="inherit" xmlns="http://www.w3.org/2000/svg">
<path fill-rule="evenodd" clip-rule="evenodd" d="M8.99982 16.6255C12.6592 16.6255 15.6256 13.659 15.6256 9.99969C15.6256 9.29697 15.5162 8.6198 15.3135 7.98429V5.08623C16.3704 6.44222 17 8.14758 17 9.99999C17 14.4183 13.4183 18 9 18C4.58172 18 1 14.4183 1 9.99999C1 8.13843 1.63582 6.42538 2.70215 5.06616V7.93468C2.4892 8.58452 2.37402 9.27865 2.37402 9.99969C2.37402 13.659 5.3405 16.6255 8.99982 16.6255Z" fill="inherit"/>
<path fill-rule="evenodd" clip-rule="evenodd" d="M9.86426 12.9598V12.9778H12.9603V11.8618H11.4304C12.3505 11.1649 12.9416 10.0814 12.9416 8.86462C12.9416 6.76207 11.1767 5.05762 8.99962 5.05762C6.82251 5.05762 5.05762 6.76207 5.05762 8.86462C5.05762 10.0814 5.64874 11.1649 6.56879 11.8618H5.04004V12.9778H8.13604V12.58C8.13627 12.58 8.13649 12.5801 8.13672 12.5801V11.3566C7.07433 11.0064 6.30957 10.0271 6.30957 8.87369C6.30957 7.42642 7.51369 6.25317 8.99905 6.25317C10.4844 6.25317 11.6885 7.42642 11.6885 8.87369C11.6885 10.0259 10.9254 11.0044 9.86472 11.3555V12.9598H9.86426Z" fill="inherit"/>
</svg>
