<svg width="13" height="13" viewBox="0 0 13 13" fill="none" xmlns="http://www.w3.org/2000/svg">
<path d="M6.5 0C5.64641 0 4.80117 0.168127 4.01256 0.494783C3.22394 0.821439 2.50739 1.30023 1.90381 1.90381C0.684819 3.12279 0 4.77609 0 6.5C0 8.22391 0.684819 9.87721 1.90381 11.0962C2.50739 11.6998 3.22394 12.1786 4.01256 12.5052C4.80117 12.8319 5.64641 13 6.5 13C8.22391 13 9.87721 12.3152 11.0962 11.0962C12.3152 9.87721 13 8.22391 13 6.5C13 5.746 12.8635 4.9985 12.6035 4.2965L11.5635 5.3365C11.6545 5.72 11.7 6.11 11.7 6.5C11.7 7.87913 11.1521 9.20177 10.177 10.177C9.20177 11.1521 7.87913 11.7 6.5 11.7C5.12087 11.7 3.79823 11.1521 2.82304 10.177C1.84786 9.20177 1.3 7.87913 1.3 6.5C1.3 5.12087 1.84786 3.79823 2.82304 2.82304C3.79823 1.84786 5.12087 1.3 6.5 1.3C6.89 1.3 7.28 1.3455 7.6635 1.4365L8.71 0.39C8.0015 0.1365 7.254 0 6.5 0ZM11.05 0L8.45 2.6V3.575L6.7925 5.2325C6.695 5.2 6.5975 5.2 6.5 5.2C6.15522 5.2 5.82456 5.33696 5.58076 5.58076C5.33696 5.82456 5.2 6.15522 5.2 6.5C5.2 6.84478 5.33696 7.17544 5.58076 7.41924C5.82456 7.66304 6.15522 7.8 6.5 7.8C6.84478 7.8 7.17544 7.66304 7.41924 7.41924C7.66304 7.17544 7.8 6.84478 7.8 6.5C7.8 6.4025 7.8 6.305 7.7675 6.2075L9.425 4.55H10.4L13 1.95H11.05V0ZM6.5 2.6C5.46566 2.6 4.47368 3.01089 3.74228 3.74228C3.01089 4.47368 2.6 5.46566 2.6 6.5C2.6 7.53434 3.01089 8.52632 3.74228 9.25772C4.47368 9.98911 5.46566 10.4 6.5 10.4C7.53434 10.4 8.52632 9.98911 9.25772 9.25772C9.98911 8.52632 10.4 7.53434 10.4 6.5H9.1C9.1 7.18956 8.82607 7.85088 8.33848 8.33848C7.85088 8.82607 7.18956 9.1 6.5 9.1C5.81044 9.1 5.14912 8.82607 4.66152 8.33848C4.17393 7.85088 3.9 7.18956 3.9 6.5C3.9 5.81044 4.17393 5.14912 4.66152 4.66152C5.14912 4.17393 5.81044 3.9 6.5 3.9V2.6Z" fill="currrent"/>
</svg>
