<svg width="23" height="20" viewBox="0 0 23 20" fill="none" xmlns="http://www.w3.org/2000/svg">
<path d="M13.5957 10.167C15.2705 10.167 16.624 8.7041 16.624 6.89258C16.624 5.11523 15.2637 3.68652 13.5957 3.68652C11.9346 3.68652 10.5674 5.12891 10.5674 6.89941C10.5742 8.7041 11.9209 10.167 13.5957 10.167ZM5.63184 10.3242C7.08789 10.3242 8.27051 9.03223 8.27051 7.43945C8.27051 5.8877 7.08789 4.62305 5.63184 4.62305C4.18262 4.62305 2.98633 5.90137 2.99316 7.44629C2.99316 9.03906 4.17578 10.3242 5.63184 10.3242ZM13.5957 8.84766C12.6934 8.84766 11.9346 8 11.9346 6.89941C11.9277 5.83301 12.6934 5.00586 13.5957 5.00586C14.5049 5.00586 15.2568 5.82617 15.2568 6.89258C15.2568 7.98633 14.5049 8.84766 13.5957 8.84766ZM5.63184 9.02539C4.90723 9.02539 4.29199 8.32812 4.29199 7.44629C4.28516 6.60547 4.90723 5.92188 5.63184 5.92188C6.36328 5.92188 6.97852 6.5918 6.97852 7.43945C6.97852 8.32812 6.36328 9.02539 5.63184 9.02539ZM1.89941 16.6201H7.16992C6.75977 16.374 6.50684 15.8135 6.55469 15.3213H1.91992C1.79688 15.3213 1.74902 15.2666 1.74902 15.1572C1.74902 13.6943 3.5127 12.2725 5.625 12.2725C6.31543 12.2725 7.08105 12.4502 7.61426 12.7373C7.85352 12.3545 8.16113 12.0332 8.5918 11.7598C7.74414 11.2607 6.64355 10.9805 5.625 10.9805C2.71289 10.9805 0.361328 13.0381 0.361328 15.3076C0.361328 16.1689 0.874023 16.6201 1.89941 16.6201ZM9.35742 16.6133H17.8271C19.0439 16.6133 19.6387 16.2168 19.6387 15.3691C19.6387 13.4209 17.2256 10.9873 13.5957 10.9873C9.96582 10.9873 7.5459 13.4209 7.5459 15.3691C7.5459 16.2168 8.14062 16.6133 9.35742 16.6133ZM9.23438 15.2939C9.08398 15.2939 9.0293 15.2461 9.0293 15.1299C9.0293 14.1455 10.6836 12.3066 13.5957 12.3066C16.501 12.3066 18.1553 14.1455 18.1553 15.1299C18.1553 15.2461 18.1006 15.2939 17.957 15.2939H9.23438Z"/>
</svg>
