<svg width="12" height="19" viewBox="0 0 12 19" fill="none" xmlns="http://www.w3.org/2000/svg">
<path fill-rule="evenodd" clip-rule="evenodd" d="M5.30691 2.83062C5.11838 2.73222 4.89316 2.67125 4.71307 2.78435C4.48605 2.92691 4.33221 3.12474 4.22197 3.38723C3.99405 3.9299 3.99669 4.5927 3.99941 5.27605C3.9999 5.39973 4.10027 5.5 4.22395 5.5H11C11.5523 5.5 12 5.94772 12 6.5C12 7.05228 11.5523 7.5 11 7.5H1C0.447715 7.5 0 7.05228 0 6.5C0 5.94772 0.447715 5.5 1 5.5H1.79477C1.90811 5.5 1.99965 5.40811 1.99835 5.29478L1.99835 5.29475C1.9911 4.66331 1.9785 3.564 2.378 2.61277C2.61775 2.04193 3.01391 1.48975 3.64939 1.09065C3.90793 0.928282 4.19284 0.799555 4.50393 0.704265C4.6785 0.650794 4.83066 0.542973 4.9625 0.416675C5.23192 0.158579 5.59744 0 6 0H8C8.82843 0 9.5 0.671573 9.5 1.5C9.5 2.32843 8.82843 3 8 3H6C5.74996 3 5.51422 2.93882 5.30691 2.83062ZM1 16.5C1.44495 16.5 1.79321 16.1149 1.74711 15.6723L1.08622 9.3277C1.04012 8.88515 1.38723 8.5 1.83218 8.5H10.1678C10.6128 8.5 10.9599 8.88515 10.9138 9.3277L10.2529 15.6723C10.2068 16.1149 10.555 16.5 11 16.5C11.5523 16.5 12 16.9477 12 17.5C12 18.0523 11.5523 18.5 11 18.5H1C0.447715 18.5 0 18.0523 0 17.5C0 16.9477 0.447715 16.5 1 16.5Z" fill="white"/>
</svg>
