<?xml version="1.0" encoding="utf-8"?>
<!-- Generator: Adobe Illustrator 25.0.1, SVG Export Plug-In . SVG Version: 6.00 Build 0)  -->
<svg version="1.0" id="katman_1" xmlns="http://www.w3.org/2000/svg" xmlns:xlink="http://www.w3.org/1999/xlink" x="0px" y="0px"
	 viewBox="0 0 800 600" style="enable-background:new 0 0 800 600;" xml:space="preserve">
<style type="text/css">
	.st0{fill-rule:evenodd;clip-rule:evenodd;}
</style>
<path class="st0" d="M125,289.6l42.8,43.5L210,290l34.7,35.3l-40.3,41l-10.4-10.3l30.2-30.8L210,310.9l-42.3,43.1L125,310.4
	l-14.1,14.3l30.7,31.2l-10.4,10.3l-40.8-41.5L125,289.6z"/>
<path class="st0" d="M210.2,310.4l-42.8-43.5l-42.3,43.1l-34.7-35.3l40.3-41l10.4,10.3l-30.2,30.8l14.2,14.5l42.3-43.1l42.8,43.5
	l14.1-14.3L193.6,244l10.4-10.3l40.8,41.5L210.2,310.4z"/>
<path class="st0" d="M161.1,365.4v-27.4h14v27.4H161.1z"/>
<path class="st0" d="M161.1,262v-27.4h14V262H161.1z"/>
<path d="M291.8,266h-13.9V336h13.9V266z"/>
<path d="M362.4,284.5c-6.3,0-12.4,2.7-15.4,8.7c-3.1-5.9-9-8.7-15.8-8.7c-6.1,0-10.8,2.3-13.2,6.5l-1.5-5.5h-12.6V336h13.6v-28.3
	c0-7.5,3.9-11.1,9.6-11.1c5.4,0,9.1,3.4,9.1,11.7V336h13.1v-28c0.2-7.9,4.3-11.4,9.6-11.4c5.5,0,9.1,3.4,9.1,11v28.5h13.7v-31.2
	C381.9,290.9,372.5,284.5,362.4,284.5z"/>
<path d="M451.2,284.5c-6.3,0-12.4,2.7-15.4,8.7c-3.1-5.9-9-8.7-15.8-8.7c-6.1,0-10.8,2.3-13.2,6.5l-1.5-5.5h-12.6V336h13.6v-28.3
	c0-7.5,3.9-11.1,9.6-11.1c5.4,0,9.1,3.4,9.1,11.7V336h13.1v-28c0.2-7.9,4.3-11.4,9.6-11.4c5.5,0,9.1,3.4,9.1,11v28.5h13.7v-31.2
	C470.8,290.9,461.3,284.5,451.2,284.5z"/>
<path d="M514.8,285.4v27.7c0,7.5-3.5,12-10.2,12.1c-6.4,0.2-10.5-3.6-10.5-11.5v-28.3h-12.9v30.1c0,12.9,7.5,21.5,20.4,21.5
	c6,0,10.4-2.7,13-6.5l0.7,5.5h12.5v-50.6H514.8z"/>
<path d="M567.7,284.5c-7.6,0-12.7,2.8-15.3,7l-0.8-6H539V336h13.6v-26.8c0-8.2,3.9-13.1,11.1-13.1c6.6,0,10.6,4.3,10.6,12.6V336H588
	V306C588,293,580.6,284.5,567.7,284.5z"/>
<path d="M647.6,310c0-15.5-10-25.5-25.1-25.5s-25.2,10.5-25.2,26.3c0,15.9,10.1,26.4,25.3,26.4c12.7,0,22.4-7.1,24.6-17.6h-13.7
	c-1.6,4.4-5.5,6.6-10.5,6.6c-6.5,0-11.8-4.2-12-11.7h36.6V310z M622.5,295.1c5.9,0,10.9,3.4,11.5,10.4h-22.9
	C611.7,298.5,616.6,295.1,622.5,295.1z"/>
<path d="M652.9,285.4v11.9h7.8V336h13.7v-38.7H686v-11.9h-11.6v-5.2c0-3.6,1-6.3,6.5-6.3h5.1v-11.1h-8.1c-12.8,0-17.2,6.2-17.2,16.1
	v6.5H652.9z"/>
<path d="M695,277.7h13.8l0.2-14.8h-13.8L695,277.7z M695.2,336h13.6v-50.6h-13.6V336z"/>
</svg>
