<svg width="20" height="20" viewBox="0 0 20 20" fill="none" xmlns="http://www.w3.org/2000/svg">
<path d="M10.5 18.1953C14.7891 18.1953 18.3359 14.6484 18.3359 10.3594C18.3359 6.0625 14.7891 2.52344 10.4922 2.52344C6.20312 2.52344 2.66406 6.0625 2.66406 10.3594C2.66406 14.6484 6.21094 18.1953 10.5 18.1953ZM10.4531 7.35938C9.96094 7.35938 9.5625 6.96875 9.5625 6.48438C9.5625 5.98438 9.96094 5.59375 10.4531 5.59375C10.9375 5.59375 11.3281 5.98438 11.3281 6.48438C11.3281 6.96875 10.9375 7.35938 10.4531 7.35938ZM9.07031 14.7188C8.80469 14.7188 8.60938 14.5234 8.60938 14.2656C8.60938 14.0234 8.80469 13.8203 9.07031 13.8203H10.2109V9.71094H9.17188C8.91406 9.71094 8.71875 9.51562 8.71875 9.25781C8.71875 9.01562 8.91406 8.8125 9.17188 8.8125H10.7109C11.0234 8.8125 11.1953 9.03906 11.1953 9.36719V13.8203H12.3359C12.5938 13.8203 12.7969 14.0234 12.7969 14.2656C12.7969 14.5234 12.5938 14.7188 12.3359 14.7188H9.07031Z" />
</svg>
