<svg xmlns="http://www.w3.org/2000/svg" width="21" height="21" viewBox="0 0 21 21" fill="none">
    <path
        d="M16.3398 11.3266C16.001 11.3266 15.7107 11.5926 15.7107 11.9553V15.2928C15.7107 15.8733 15.2267 16.357 14.6458 16.357H10.3254V15.438C10.3254 15.2203 10.2043 15.0268 10.0107 14.93C9.81709 14.8333 9.59933 14.8575 9.42986 14.9784L7.91813 16.5262C7.77296 16.6229 7.70037 16.7923 7.70037 16.9858C7.70037 17.1551 7.77296 17.3243 7.91813 17.4453L9.42986 18.9931C9.52659 19.0657 9.64763 19.1141 9.76866 19.1141C9.86538 19.1141 9.93814 19.09 10.0107 19.0657C10.2043 18.969 10.3254 18.7755 10.3254 18.5577V17.6145H14.6459C15.9284 17.6145 16.9448 16.5747 16.9448 15.317V11.9554C16.9689 11.6168 16.6786 11.3266 16.3398 11.3266Z"
        fill="#EEE9E2" />
    <path
        d="M8.5961 7.40621L10.1075 5.85584C10.2528 5.75901 10.3254 5.58936 10.3254 5.39553C10.3254 5.20169 10.2528 5.05639 10.1075 4.93521L8.5961 3.38483C8.42653 3.26368 8.18452 3.23951 8.01497 3.33634C7.82126 3.43316 7.70017 3.62698 7.70017 3.84514V4.7899L5.07128 4.7899C3.78806 4.7899 2.77121 5.83148 2.77121 7.0912V11.8635C2.77121 12.2026 3.03755 12.4933 3.40067 12.4933C3.73963 12.4933 4.03013 12.2268 4.03013 11.8635L4.03047 7.0912C4.03047 6.50977 4.51466 6.02527 5.09583 6.02527L7.70037 6.02527V6.97003C7.70037 7.18802 7.82147 7.38183 8.01518 7.47884C8.0878 7.52734 8.18474 7.52733 8.25737 7.52733C8.37829 7.503 8.49916 7.47887 8.5961 7.40621Z"
        fill="#EEE9E2" />
    <path
        d="M5.60751 13.8119L0.211087 19.1987C-0.0309742 19.4403 -0.0309742 19.8509 0.211087 20.1166C0.332117 20.2375 0.501425 20.3099 0.670915 20.3099C0.840404 20.3099 1.00969 20.2375 1.13074 20.1166L6.52716 14.7298C6.76922 14.4882 6.76922 14.0776 6.52716 13.8119C6.2851 13.5704 5.8737 13.5704 5.60751 13.8119Z"
        fill="#EEE9E2" />
    <path
        d="M2.45037 14.8703C2.45037 15.5228 1.92151 16.0516 1.26906 16.0516C0.616777 16.0516 0.0878743 15.5228 0.0878743 14.8703C0.0878743 14.2179 0.616734 13.6891 1.26906 13.6891C1.92151 13.6891 2.45037 14.2179 2.45037 14.8703Z"
        fill="#EEE9E2" />
    <path
        d="M6.67954 19.085C6.67954 19.7453 6.14418 20.2808 5.48371 20.2808C4.82341 20.2808 4.28787 19.7454 4.28787 19.085C4.28787 18.4245 4.82341 17.8891 5.48371 17.8891C6.14418 17.8891 6.67954 18.4245 6.67954 19.085Z"
        fill="#EEE9E2" />
    <path fill-rule="evenodd" clip-rule="evenodd"
        d="M11.7068 5.36653C11.7068 2.80111 13.7882 0.719727 16.3536 0.719727C18.919 0.719727 21.0004 2.82531 21.0004 5.39073C21.0004 7.95616 18.9189 10.0375 16.3536 10.0375C13.7881 10.0375 11.7068 7.93208 11.7068 5.36653ZM14.5278 5.278C14.5278 6.11727 15.0969 6.85445 15.8026 7.03592V8.13603H13.7082V7.31945H14.7567C14.0749 6.89589 13.7082 6.11244 13.7082 5.278C13.7082 3.84898 14.9262 2.65815 16.3718 2.65815C17.8629 2.65815 19.024 3.84898 19.024 5.278C19.024 6.10801 18.6527 6.9212 17.9538 7.31945H19.0126V8.13603H16.9409V7.03592C17.6922 6.77508 18.2044 6.11727 18.2044 5.278C18.2044 4.32532 17.4418 3.49739 16.3718 3.47473C15.3701 3.47473 14.5278 4.31398 14.5278 5.278Z"
        fill="#EEE9E2" />
</svg>