<svg width="12" height="16" viewBox="0 0 12 16" fill="none" xmlns="http://www.w3.org/2000/svg">
<path d="M10.5 5.25002H9.75003V3.75001C9.75003 1.68 8.07002 0 6.00002 0C3.93001 0 2.25001 1.68 2.25001 3.75001V5.25002H1.5C0.675002 5.25002 0 5.92502 0 6.75002V14.25C0 15.075 0.675002 15.75 1.5 15.75H10.5C11.325 15.75 12 15.075 12 14.25V6.75002C12 5.92502 11.325 5.25002 10.5 5.25002ZM6.00002 12C5.17502 12 4.50001 11.325 4.50001 10.5C4.50001 9.67503 5.17502 9.00003 6.00002 9.00003C6.82502 9.00003 7.50002 9.67503 7.50002 10.5C7.50002 11.325 6.82502 12 6.00002 12ZM8.32502 5.25002H3.67501V3.75001C3.67501 2.46751 4.71751 1.425 6.00002 1.425C7.28252 1.425 8.32502 2.46751 8.32502 3.75001V5.25002Z" fill="#ADAFB4"/>
</svg>
