<svg width="24" height="24" viewBox="0 0 24 24" fill="none" xmlns="http://www.w3.org/2000/svg">
<path d="M12 6.00002C16.4183 6.00002 20 9.58173 20 14C20 18.4183 16.4183 22 12 22C7.58172 22 4 18.4183 4 14C4 9.58173 7.58172 6.00002 12 6.00002ZM12 8.00002C8.68629 8.00002 6 10.6863 6 14C6 17.3137 8.68629 20 12 20C15.3137 20 18 17.3137 18 14C18 10.6863 15.3137 8.00002 12 8.00002ZM18 1.00002V4.00002L16.6366 5.13758C15.5305 4.55773 14.3025 4.17887 13.0011 4.04951L13 0.999023L18 1.00002ZM11 0.999023L10.9997 4.04942C9.6984 4.17866 8.47046 4.55738 7.36441 5.13706L6 4.00002V1.00002L11 0.999023Z" fill="#C57B5E"/>
<path d="M12.14 17.4705C11.1267 17.4705 10.3633 17.2639 9.85 16.8505C9.28333 16.3972 9 15.7472 9 14.9005H10.89C10.9033 15.2339 11.0067 15.4972 11.2 15.6905C11.3933 15.8839 11.6767 15.9805 12.05 15.9805C12.35 15.9805 12.58 15.9072 12.74 15.7605C12.9067 15.6139 12.99 15.4272 12.99 15.2005C12.99 14.7005 12.63 14.4505 11.91 14.4505H11.51V13.1505H11.85C12.53 13.1505 12.87 12.9172 12.87 12.4505C12.87 12.2505 12.7967 12.0905 12.65 11.9705C12.5033 11.8505 12.3 11.7905 12.04 11.7905C11.4467 11.7905 11.1167 12.0839 11.05 12.6705H9.21C9.21 11.9772 9.46333 11.4105 9.97 10.9705C10.4833 10.5305 11.1833 10.3105 12.07 10.3105C12.89 10.3105 13.55 10.4905 14.05 10.8505C14.5567 11.2039 14.81 11.6939 14.81 12.3205C14.81 12.9005 14.5033 13.3339 13.89 13.6205V13.6405C14.6233 13.9405 14.99 14.4905 14.99 15.2905C14.99 16.0039 14.7133 16.5472 14.16 16.9205C13.6133 17.2872 12.94 17.4705 12.14 17.4705Z" fill="#C57B5E"/>
</svg>
