<svg width="24" height="24" viewBox="0 0 24 24" fill="none" xmlns="http://www.w3.org/2000/svg">
<path d="M12 6.00002C16.4183 6.00002 20 9.58173 20 14C20 18.4183 16.4183 22 12 22C7.58172 22 4 18.4183 4 14C4 9.58173 7.58172 6.00002 12 6.00002ZM12 8.00002C8.68629 8.00002 6 10.6863 6 14C6 17.3137 8.68629 20 12 20C15.3137 20 18 17.3137 18 14C18 10.6863 15.3137 8.00002 12 8.00002ZM18 1.00002V4.00002L16.6366 5.13758C15.5305 4.55773 14.3025 4.17887 13.0011 4.04951L13 0.999023L18 1.00002ZM11 0.999023L10.9997 4.04942C9.6984 4.17866 8.47046 4.55738 7.36441 5.13706L6 4.00002V1.00002L11 0.999023Z" fill="#FEC475"/>
<path d="M11.1432 17.3631V13.3831H9.74316V12.0131C10.2432 11.9931 10.6598 11.8498 10.9932 11.5831C11.3332 11.3098 11.5532 10.9331 11.6532 10.4531H13.1432V17.3631H11.1432Z" fill="#FEC475"/>
</svg>
