<svg width="24" height="24" viewBox="0 0 24 24" fill="none" xmlns="http://www.w3.org/2000/svg">
<path d="M12 6.00002C16.4183 6.00002 20 9.58173 20 14C20 18.4183 16.4183 22 12 22C7.58172 22 4 18.4183 4 14C4 9.58173 7.58172 6.00002 12 6.00002ZM12 8.00002C8.68629 8.00002 6 10.6863 6 14C6 17.3137 8.68629 20 12 20C15.3137 20 18 17.3137 18 14C18 10.6863 15.3137 8.00002 12 8.00002ZM18 1.00002V4.00002L16.6366 5.13758C15.5305 4.55773 14.3025 4.17887 13.0011 4.04951L13 0.999023L18 1.00002ZM11 0.999023L10.9997 4.04942C9.6984 4.17866 8.47046 4.55738 7.36441 5.13706L6 4.00002V1.00002L11 0.999023Z" fill="#CDCED4"/>
<path d="M9.12 17.0037C9.12 16.5103 9.17666 16.1137 9.29 15.8137C9.41 15.5137 9.61333 15.2303 9.9 14.9637C10.0267 14.8503 10.1633 14.7337 10.31 14.6137C10.4633 14.4937 10.64 14.3603 10.84 14.2137C11.0467 14.067 11.2033 13.957 11.31 13.8837C11.4167 13.8103 11.6 13.687 11.86 13.5137C12.12 13.3337 12.27 13.2303 12.31 13.2037C12.71 12.9303 12.91 12.627 12.91 12.2937C12.91 12.0737 12.84 11.9003 12.7 11.7737C12.56 11.647 12.3567 11.5837 12.09 11.5837C11.7633 11.5837 11.5233 11.6837 11.37 11.8837C11.1967 12.1037 11.11 12.417 11.11 12.8237H9.23C9.23 12.4237 9.25333 12.1137 9.3 11.8937C9.34666 11.667 9.43666 11.437 9.57 11.2037C9.77 10.8437 10.09 10.557 10.53 10.3437C10.97 10.1237 11.5033 10.0137 12.13 10.0137C13.01 10.0137 13.6867 10.217 14.16 10.6237C14.64 11.0303 14.88 11.5603 14.88 12.2137C14.88 12.8337 14.6933 13.327 14.32 13.6937C14.0667 13.9403 13.6667 14.2403 13.12 14.5937C12.58 14.947 12.22 15.1937 12.04 15.3337V15.3537H14.84V17.0037H9.12Z" fill="#CDCED4"/>
</svg>
