<svg width="20" height="20" viewBox="0 0 20 20" fill="none" xmlns="http://www.w3.org/2000/svg">
<path d="M18.1818 0H1.81818C0.813636 0 0 0.813636 0 1.81818V18.1818C0 19.1864 0.813636 20 1.81818 20H18.1818C19.1864 20 20 19.1864 20 18.1818V1.81818C20 0.813636 19.1864 0 18.1818 0ZM16.8564 15.4545H11.4645V15.1518L12.7273 14.0409V7.7L9.62636 15.4545H9.14182L5.68182 7.63909V13.1727L7.26364 15.1518V15.4545H3.14364V15.1518L4.77909 13.1727V6.58909L3.32545 4.77182C3.32545 4.77182 3.32545 4.50909 3.32545 4.55H7.30364L10.3936 11.2345L13.0591 4.55H16.8355V4.77182L15.4545 5.93273V14.0409L16.8564 15.1518V15.4545Z"/>
</svg>
