<svg width="20" height="20" viewBox="0 0 20 20" fill="none" xmlns="http://www.w3.org/2000/svg">
<path d="M13.875 13.0781C9.64844 13.0781 6.94531 10.4297 6.94531 6.19531C6.94531 5.32031 7.15625 4.07031 7.4375 3.42188C7.50781 3.24219 7.52344 3.13281 7.52344 3.05469C7.52344 2.84375 7.36719 2.60938 7.0625 2.60938C6.97656 2.60938 6.78906 2.63281 6.61719 2.69531C3.72656 3.85156 1.78906 6.96094 1.78906 10.2344C1.78906 14.8281 5.28906 18.1094 9.86719 18.1094C13.2344 18.1094 16.1484 16.0703 17.1172 13.5234C17.1875 13.3438 17.2031 13.1562 17.2031 13.0859C17.2031 12.7969 16.9609 12.6016 16.7422 12.6016C16.6406 12.6016 16.5547 12.625 16.4062 12.6719C15.8047 12.8672 14.8359 13.0781 13.875 13.0781Z"/>
</svg>
