<svg width="20" height="20" viewBox="0 0 20 20" fill="none" xmlns="http://www.w3.org/2000/svg">
<path d="M10.3999 6.5C9.4334 6.5 8.6499 5.7165 8.6499 4.75C8.6499 3.7835 9.4334 3 10.3999 3C11.3664 3 12.1499 3.7835 12.1499 4.75C12.1499 5.7165 11.3664 6.5 10.3999 6.5ZM10.3999 17C9.4334 17 8.6499 16.2165 8.6499 15.25C8.6499 14.2835 9.4334 13.5 10.3999 13.5C11.3664 13.5 12.1499 14.2835 12.1499 15.25C12.1499 16.2165 11.3664 17 10.3999 17ZM8.6499 10C8.6499 10.9665 9.4334 11.75 10.3999 11.75C11.3664 11.75 12.1499 10.9665 12.1499 10C12.1499 9.0335 11.3664 8.25 10.3999 8.25C9.4334 8.25 8.6499 9.0335 8.6499 10Z"/>
</svg>
