<?xml version="1.0" standalone="no"?>
<!DOCTYPE svg PUBLIC "-//W3C//DTD SVG 20010904//EN"
 "http://www.w3.org/TR/2001/REC-SVG-20010904/DTD/svg10.dtd">
<svg version="1.0" xmlns="http://www.w3.org/2000/svg"
 width="256.000000pt" height="256.000000pt" viewBox="0 0 256.000000 256.000000"
 preserveAspectRatio="xMidYMid meet">

<g transform="translate(0.000000,256.000000) scale(0.100000,-0.100000)"
fill="#000000" stroke="none">
<path d="M1101 2414 c-232 -39 -434 -143 -602 -310 -344 -340 -426 -856 -205
-1291 61 -120 141 -222 259 -330 l47 -43 -215 0 -215 0 0 -155 0 -155 430 0
430 0 0 215 c0 197 -2 216 -17 221 -47 15 -164 79 -218 119 -131 98 -249 276
-291 440 -26 98 -26 295 0 390 39 149 145 321 251 408 325 270 771 259 1071
-26 334 -316 337 -830 7 -1148 -77 -75 -160 -131 -242 -164 l-56 -23 -3 -216
-2 -216 430 0 430 0 0 155 0 155 -215 0 -215 0 77 72 c412 391 468 1014 132
1469 -63 86 -186 202 -274 260 -237 157 -522 219 -794 173z"/>
</g>
</svg>
