<svg viewBox="0 0 50 50" width="50" height="50">
  <path fill-rule="evenodd" clip-rule="evenodd" d="M 19.546 50 L 19.546 49.886 L 19.546 47.489 L 19.546 40.531 C 12.424 38.289 7.273 31.776 7.273 24.091 C 7.273 14.551 15.21 6.818 25 6.818 C 34.79 6.818 42.727 14.551 42.727 24.091 C 42.727 31.776 37.576 38.289 30.454 40.531 L 30.454 47.489 L 30.454 49.886 L 30.454 50 L 50 50 L 50 42.955 L 40.348 42.955 C 46.155 38.555 49.886 31.715 49.886 24.034 C 49.886 10.76 38.744 0 25 0 C 11.256 0 0.114 10.76 0.114 24.034 C 0.114 31.715 3.845 38.555 9.652 42.955 L 0 42.955 L 0 50 L 19.546 50 Z"></path>
</svg>