<svg width="152" height="98" viewBox="0 0 152 98" fill="none" xmlns="http://www.w3.org/2000/svg">
  <path clip-rule="evenodd" d="M70.546 50v-9.469c-7.122-2.242-12.273-8.755-12.273-16.44 0-9.54 7.937-17.273 17.727-17.273s17.727 7.733 17.727 17.273c0 7.685-5.15 14.198-12.273 16.44V50H101v-7.045h-9.652c5.807-4.4 9.538-11.24 9.538-18.92C100.886 10.76 89.744 0 76 0S51.114 10.76 51.114 24.034c0 7.681 3.73 14.52 9.538 18.92H51V50h19.546Z" />
  <path d="M9.412 84.016c1.56 1.584 3.444 2.376 5.652 2.376s4.08-.792 5.616-2.376c1.56-1.608 2.34-3.54 2.34-5.796 0-2.256-.78-4.176-2.34-5.76-1.536-1.608-3.408-2.412-5.616-2.412-2.208 0-4.092.804-5.652 2.412-1.536 1.584-2.304 3.504-2.304 5.76s.768 4.188 2.304 5.796Zm14.976 3.564c-2.568 2.568-5.676 3.852-9.324 3.852-3.648 0-6.768-1.284-9.36-3.852-2.568-2.592-3.852-5.712-3.852-9.36 0-3.648 1.284-6.756 3.852-9.324 2.592-2.592 5.712-3.888 9.36-3.888 3.648 0 6.756 1.296 9.324 3.888 2.592 2.568 3.888 5.676 3.888 9.324 0 3.648-1.296 6.768-3.888 9.36ZM31.759 91V64.72h4.932V91h-4.932ZM48.519 97.984h-5.364l3.528-7.992L39.123 73h5.4l4.824 11.664L54.135 73h5.436L48.519 97.984ZM84.638 91v-9.504c0-2.904-1.032-4.356-3.096-4.356-1.56 0-2.712.708-3.456 2.124.096.408.144.864.144 1.368V91h-4.932v-9.504c0-2.904-1.032-4.356-3.096-4.356-.696 0-1.344.18-1.944.54-.6.336-1.056.792-1.368 1.368V91h-4.932V73h4.932v1.404c1.056-1.2 2.52-1.8 4.392-1.8 2.04 0 3.732.792 5.076 2.376 1.368-1.584 3.324-2.376 5.868-2.376 2.424 0 4.248.744 5.472 2.232 1.248 1.488 1.872 3.42 1.872 5.796V91h-4.932ZM94.09 97.984V73h4.933v1.296c1.176-1.128 2.712-1.692 4.608-1.692 2.592 0 4.716.924 6.372 2.772 1.68 1.824 2.52 4.032 2.52 6.624 0 2.592-.84 4.812-2.52 6.66-1.656 1.824-3.78 2.736-6.372 2.736-1.92 0-3.456-.576-4.608-1.728v8.316H94.09Zm8.821-11.088c1.344 0 2.436-.468 3.276-1.404.84-.96 1.26-2.124 1.26-3.492 0-1.368-.42-2.52-1.26-3.456-.84-.96-1.932-1.44-3.276-1.44-1.632 0-2.928.648-3.888 1.944v5.868c.96 1.32 2.256 1.98 3.888 1.98ZM132.585 73v18h-4.932v-1.44c-1.176 1.224-2.652 1.836-4.428 1.836-2.28 0-4.068-.72-5.364-2.16-1.272-1.464-1.908-3.396-1.908-5.796V73h4.932v9.612c0 2.856 1.128 4.284 3.384 4.284 1.368 0 2.496-.684 3.384-2.052V73h4.932ZM143.381 91.396c-3.408 0-5.88-1.152-7.416-3.456l3.384-2.88c.864 1.392 2.208 2.088 4.032 2.088.552 0 1.02-.108 1.404-.324.384-.216.576-.54.576-.972 0-.384-.168-.696-.504-.936-.312-.264-.948-.528-1.908-.792l-1.332-.324c-1.656-.432-2.916-1.152-3.78-2.16-.84-1.008-1.236-2.208-1.188-3.6.048-1.632.696-2.94 1.944-3.924 1.272-1.008 2.88-1.512 4.824-1.512 2.76 0 4.836 1.008 6.228 3.024l-3.24 2.628c-.84-1.056-1.86-1.584-3.06-1.584-.48 0-.9.108-1.26.324-.36.216-.54.516-.54.9 0 .72.588 1.236 1.764 1.548l1.692.504c3.48.936 5.22 2.796 5.22 5.58 0 1.704-.648 3.108-1.944 4.212-1.296 1.104-2.928 1.656-4.896 1.656Z" />
</svg>