<svg width="254" height="54" viewBox="0 0 254 54" fill="none" xmlns="http://www.w3.org/2000/svg">
<path d="M151.444 26.7222C151.444 18.0391 144.405 11 135.722 11C127.039 11 120 18.0391 120 26.7222C120 35.4053 127.039 42.4443 135.722 42.4443C144.405 42.4443 151.444 35.4053 151.444 26.7222Z" fill="#8977F5"/>
<path fill-rule="evenodd" clip-rule="evenodd" d="M129.706 22.8148L140.791 22.7601L138.137 26.7598L144.4 26.7295L141.746 30.6622L130.589 30.7336L133.285 26.7619L127.043 26.7595L129.706 22.8148Z" fill="white"/>
<path d="M162.409 32.9411V30.0455L169.003 21.9258H162.566V19.0889H173.19V21.7693L166.44 30.0455H173.327V32.9411H162.409Z" fill="#8977F5"/>
<path d="M180.841 28.6955H180.43C180.078 28.6955 179.719 28.715 179.354 28.7542C179.002 28.7802 178.682 28.8389 178.395 28.9302C178.121 29.0215 177.893 29.1585 177.71 29.3411C177.528 29.5107 177.437 29.7389 177.437 30.0259C177.437 30.2085 177.476 30.365 177.554 30.4955C177.645 30.6259 177.756 30.7303 177.887 30.8085C178.017 30.8868 178.167 30.9455 178.337 30.9846C178.506 31.0107 178.669 31.0237 178.826 31.0237C179.478 31.0237 179.974 30.8476 180.313 30.4955C180.665 30.1302 180.841 29.6411 180.841 29.0281V28.6955ZM174.952 24.528C175.526 23.9802 176.191 23.5693 176.947 23.2954C177.717 23.0215 178.5 22.8845 179.295 22.8845C180.117 22.8845 180.808 22.9889 181.369 23.1976C181.943 23.3932 182.406 23.7063 182.758 24.1367C183.11 24.5541 183.365 25.0889 183.521 25.7411C183.691 26.3802 183.776 27.1433 183.776 28.0302V32.9411H180.841V31.9042H180.782C180.534 32.3085 180.156 32.6216 179.647 32.8433C179.152 33.0651 178.61 33.1759 178.023 33.1759C177.632 33.1759 177.228 33.1237 176.81 33.0194C176.393 32.9151 176.008 32.7455 175.656 32.5107C175.317 32.2759 175.037 31.9629 174.815 31.5716C174.593 31.1803 174.482 30.6976 174.482 30.1237C174.482 29.4194 174.671 28.852 175.05 28.4215C175.441 27.9911 175.937 27.6585 176.537 27.4237C177.15 27.1889 177.828 27.0324 178.571 26.9541C179.315 26.8759 180.039 26.8367 180.743 26.8367V26.6802C180.743 26.1976 180.574 25.8454 180.234 25.6237C179.895 25.3889 179.478 25.2715 178.982 25.2715C178.526 25.2715 178.082 25.3693 177.652 25.565C177.234 25.7607 176.876 25.9954 176.576 26.2694L174.952 24.528Z" fill="#8977F5"/>
<path d="M197.01 28.0302C197.01 28.7085 196.905 29.3607 196.697 29.9868C196.488 30.6129 196.182 31.1672 195.777 31.6498C195.386 32.1194 194.903 32.4977 194.329 32.7846C193.755 33.0716 193.103 33.2151 192.373 33.2151C191.773 33.2151 191.205 33.0977 190.671 32.8629C190.136 32.615 189.718 32.2824 189.418 31.865H189.379V37.6368H186.171V23.1976H189.223V24.3911H189.282C189.582 23.9998 189.992 23.6606 190.514 23.3737C191.049 23.0737 191.675 22.9237 192.392 22.9237C193.097 22.9237 193.736 23.0606 194.31 23.3345C194.884 23.6085 195.366 23.9802 195.758 24.4498C196.162 24.9193 196.469 25.4672 196.677 26.0933C196.899 26.7063 197.01 27.352 197.01 28.0302ZM193.899 28.0302C193.899 27.7172 193.847 27.4107 193.742 27.1107C193.651 26.8107 193.508 26.5498 193.312 26.328C193.129 26.0933 192.895 25.9041 192.608 25.7607C192.321 25.6172 191.988 25.5454 191.61 25.5454C191.245 25.5454 190.918 25.6172 190.632 25.7607C190.345 25.9041 190.097 26.0933 189.888 26.328C189.692 26.5628 189.536 26.8302 189.418 27.1302C189.314 27.4302 189.262 27.7368 189.262 28.0498C189.262 28.3628 189.314 28.6694 189.418 28.9694C189.536 29.2694 189.692 29.5368 189.888 29.7716C190.097 30.0063 190.345 30.1955 190.632 30.3389C190.918 30.4824 191.245 30.5542 191.61 30.5542C191.988 30.5542 192.321 30.4824 192.608 30.3389C192.895 30.1955 193.129 30.0063 193.312 29.7716C193.508 29.5368 193.651 29.2694 193.742 28.9694C193.847 28.6563 193.899 28.3433 193.899 28.0302Z" fill="#8977F5"/>
<path d="M209.869 28.0302C209.869 28.7085 209.764 29.3607 209.556 29.9868C209.347 30.6129 209.04 31.1672 208.636 31.6498C208.245 32.1194 207.762 32.4977 207.188 32.7846C206.614 33.0716 205.962 33.2151 205.232 33.2151C204.632 33.2151 204.064 33.0977 203.53 32.8629C202.995 32.615 202.577 32.2824 202.277 31.865H202.238V37.6368H199.03V23.1976H202.082V24.3911H202.14C202.44 23.9998 202.851 23.6606 203.373 23.3737C203.908 23.0737 204.534 22.9237 205.251 22.9237C205.956 22.9237 206.595 23.0606 207.169 23.3345C207.743 23.6085 208.225 23.9802 208.617 24.4498C209.021 24.9193 209.327 25.4672 209.536 26.0933C209.758 26.7063 209.869 27.352 209.869 28.0302ZM206.758 28.0302C206.758 27.7172 206.706 27.4107 206.601 27.1107C206.51 26.8107 206.367 26.5498 206.171 26.328C205.988 26.0933 205.753 25.9041 205.467 25.7607C205.18 25.6172 204.847 25.5454 204.469 25.5454C204.103 25.5454 203.777 25.6172 203.49 25.7607C203.203 25.9041 202.956 26.0933 202.747 26.328C202.551 26.5628 202.395 26.8302 202.277 27.1302C202.173 27.4302 202.121 27.7368 202.121 28.0498C202.121 28.3628 202.173 28.6694 202.277 28.9694C202.395 29.2694 202.551 29.5368 202.747 29.7716C202.956 30.0063 203.203 30.1955 203.49 30.3389C203.777 30.4824 204.103 30.5542 204.469 30.5542C204.847 30.5542 205.18 30.4824 205.467 30.3389C205.753 30.1955 205.988 30.0063 206.171 29.7716C206.367 29.5368 206.51 29.2694 206.601 28.9694C206.706 28.6563 206.758 28.3433 206.758 28.0302Z" fill="#8977F5"/>
<path d="M218.599 26.9541C218.599 26.4454 218.436 26.0085 218.11 25.6433C217.797 25.278 217.321 25.0954 216.682 25.0954C216.369 25.0954 216.082 25.1476 215.821 25.252C215.56 25.3433 215.332 25.4737 215.136 25.6433C214.941 25.8128 214.784 26.015 214.667 26.2498C214.549 26.4715 214.484 26.7063 214.471 26.9541H218.599ZM221.554 28.1868C221.554 28.3172 221.554 28.4476 221.554 28.5781C221.554 28.7085 221.547 28.8324 221.534 28.9498H214.471C214.497 29.2237 214.575 29.4715 214.706 29.6933C214.849 29.915 215.025 30.1107 215.234 30.2803C215.456 30.4368 215.697 30.5607 215.958 30.652C216.232 30.7433 216.512 30.7889 216.799 30.7889C217.308 30.7889 217.738 30.6976 218.091 30.515C218.443 30.3194 218.73 30.0716 218.951 29.7716L221.182 31.1803C220.725 31.8455 220.119 32.3607 219.362 32.7259C218.619 33.0781 217.751 33.2542 216.76 33.2542C216.03 33.2542 215.338 33.1433 214.686 32.9216C214.034 32.6868 213.46 32.3542 212.964 31.9237C212.482 31.4803 212.097 30.939 211.81 30.2998C211.536 29.6607 211.399 28.9302 211.399 28.1085C211.399 27.3128 211.536 26.5954 211.81 25.9563C212.084 25.3041 212.456 24.7563 212.925 24.3128C213.395 23.8563 213.949 23.5041 214.588 23.2563C215.228 23.0085 215.919 22.8845 216.662 22.8845C217.38 22.8845 218.038 23.0085 218.638 23.2563C219.238 23.4911 219.754 23.8367 220.184 24.2933C220.615 24.7498 220.947 25.3041 221.182 25.9563C221.43 26.6085 221.554 27.352 221.554 28.1868Z" fill="#8977F5"/>
<path d="M229.863 25.8193C229.72 25.7802 229.576 25.7541 229.433 25.7411C229.302 25.728 229.172 25.7215 229.041 25.7215C228.611 25.7215 228.246 25.7998 227.946 25.9563C227.659 26.1128 227.424 26.302 227.241 26.5237C227.072 26.7454 226.948 26.9867 226.87 27.2476C226.791 27.5085 226.752 27.7368 226.752 27.9324V32.9411H223.544V23.1976H226.635V24.6063H226.674C226.922 24.1106 227.274 23.7063 227.731 23.3932C228.187 23.0802 228.715 22.9237 229.315 22.9237C229.446 22.9237 229.57 22.9302 229.687 22.9432C229.817 22.9563 229.922 22.9759 230 23.0019L229.863 25.8193Z" fill="#8977F5"/>
<path d="M22.3652 20.672H26.0612C26.7119 20.672 27.2985 20.7307 27.8212 20.848C28.3439 20.9653 28.7919 21.1573 29.1652 21.424C29.5385 21.6907 29.8265 22.032 30.0292 22.448C30.2319 22.864 30.3332 23.3653 30.3332 23.952C30.3332 24.5813 30.2159 25.1093 29.9812 25.536C29.7465 25.9627 29.4265 26.3093 29.0212 26.576C28.6265 26.832 28.1625 27.0187 27.6292 27.136C27.0959 27.2533 26.5305 27.312 25.9332 27.312H24.3812V32H22.3652V20.672ZM25.7892 25.616C26.1199 25.616 26.4345 25.5947 26.7332 25.552C27.0319 25.4987 27.2985 25.4133 27.5332 25.296C27.7679 25.168 27.9545 24.9973 28.0932 24.784C28.2319 24.5707 28.3012 24.2933 28.3012 23.952C28.3012 23.6213 28.2319 23.3547 28.0932 23.152C27.9545 22.9387 27.7679 22.7733 27.5332 22.656C27.3092 22.5387 27.0479 22.464 26.7492 22.432C26.4612 22.3893 26.1625 22.368 25.8532 22.368H24.3812V25.616H25.7892ZM30.5399 28.128C30.5399 27.52 30.6466 26.9707 30.8599 26.48C31.0839 25.9787 31.3826 25.552 31.7559 25.2C32.1293 24.848 32.5719 24.576 33.0839 24.384C33.5959 24.192 34.1399 24.096 34.7159 24.096C35.2919 24.096 35.8359 24.192 36.3479 24.384C36.8599 24.576 37.3026 24.848 37.6759 25.2C38.0493 25.552 38.3426 25.9787 38.5559 26.48C38.7799 26.9707 38.8919 27.52 38.8919 28.128C38.8919 28.736 38.7799 29.2907 38.5559 29.792C38.3426 30.2933 38.0493 30.7253 37.6759 31.088C37.3026 31.44 36.8599 31.7173 36.3479 31.92C35.8359 32.1227 35.2919 32.224 34.7159 32.224C34.1399 32.224 33.5959 32.1227 33.0839 31.92C32.5719 31.7173 32.1293 31.44 31.7559 31.088C31.3826 30.7253 31.0839 30.2933 30.8599 29.792C30.6466 29.2907 30.5399 28.736 30.5399 28.128ZM32.4919 28.128C32.4919 28.4267 32.5346 28.7253 32.6199 29.024C32.7159 29.3227 32.8546 29.5893 33.0359 29.824C33.2173 30.0587 33.4466 30.2507 33.7239 30.4C34.0013 30.5493 34.3319 30.624 34.7159 30.624C35.0999 30.624 35.4306 30.5493 35.7079 30.4C35.9853 30.2507 36.2146 30.0587 36.3959 29.824C36.5773 29.5893 36.7106 29.3227 36.7959 29.024C36.8919 28.7253 36.9399 28.4267 36.9399 28.128C36.9399 27.8293 36.8919 27.536 36.7959 27.248C36.7106 26.9493 36.5773 26.6827 36.3959 26.448C36.2146 26.2133 35.9853 26.0267 35.7079 25.888C35.4306 25.7387 35.0999 25.664 34.7159 25.664C34.3319 25.664 34.0013 25.7387 33.7239 25.888C33.4466 26.0267 33.2173 26.2133 33.0359 26.448C32.8546 26.6827 32.7159 26.9493 32.6199 27.248C32.5346 27.536 32.4919 27.8293 32.4919 28.128ZM39.6656 24.32H41.7456L43.3456 29.824H43.3776L45.0256 24.32H47.0736L48.7376 29.824H48.7696L50.4016 24.32H52.4016L49.7456 32H47.7936L46.0496 26.624H46.0176L44.2896 32H42.3376L39.6656 24.32ZM59.0209 27.392C59.0209 27.1467 58.9836 26.912 58.9089 26.688C58.8449 26.464 58.7383 26.2667 58.5889 26.096C58.4396 25.9253 58.2476 25.792 58.0129 25.696C57.7889 25.5893 57.5223 25.536 57.2129 25.536C56.6369 25.536 56.1463 25.712 55.7409 26.064C55.3463 26.4053 55.1276 26.848 55.0849 27.392H59.0209ZM60.9409 28.256C60.9409 28.3413 60.9409 28.4267 60.9409 28.512C60.9409 28.5973 60.9356 28.6827 60.9249 28.768H55.0849C55.1063 29.0453 55.1756 29.3013 55.2929 29.536C55.4209 29.76 55.5863 29.9573 55.7889 30.128C55.9916 30.288 56.2209 30.416 56.4769 30.512C56.7329 30.608 56.9996 30.656 57.2769 30.656C57.7569 30.656 58.1623 30.5707 58.4929 30.4C58.8236 30.2187 59.0956 29.9733 59.3089 29.664L60.5889 30.688C59.8316 31.712 58.7329 32.224 57.2929 32.224C56.6956 32.224 56.1463 32.1333 55.6449 31.952C55.1436 31.76 54.7063 31.4933 54.3329 31.152C53.9703 30.8107 53.6823 30.3947 53.4689 29.904C53.2663 29.4027 53.1649 28.8373 53.1649 28.208C53.1649 27.5893 53.2663 27.0293 53.4689 26.528C53.6823 26.016 53.9703 25.584 54.3329 25.232C54.6956 24.8693 55.1223 24.592 55.6129 24.4C56.1143 24.1973 56.6529 24.096 57.2289 24.096C57.7623 24.096 58.2529 24.1867 58.7009 24.368C59.1596 24.5387 59.5543 24.8 59.8849 25.152C60.2156 25.4933 60.4716 25.9253 60.6529 26.448C60.8449 26.96 60.9409 27.5627 60.9409 28.256ZM62.8004 24.32H64.6404V25.6H64.6724C64.8858 25.152 65.1844 24.7893 65.5684 24.512C65.9524 24.2347 66.4004 24.096 66.9124 24.096C66.9871 24.096 67.0671 24.1013 67.1524 24.112C67.2378 24.112 67.3124 24.1227 67.3764 24.144V25.904C67.2484 25.872 67.1364 25.8507 67.0404 25.84C66.9551 25.8293 66.8698 25.824 66.7844 25.824C66.3471 25.824 65.9951 25.904 65.7284 26.064C65.4618 26.224 65.2538 26.416 65.1044 26.64C64.9551 26.864 64.8538 27.0933 64.8004 27.328C64.7471 27.5627 64.7204 27.7493 64.7204 27.888V32H62.8004V24.32ZM73.7553 27.392C73.7553 27.1467 73.718 26.912 73.6433 26.688C73.5793 26.464 73.4726 26.2667 73.3233 26.096C73.174 25.9253 72.982 25.792 72.7473 25.696C72.5233 25.5893 72.2566 25.536 71.9473 25.536C71.3713 25.536 70.8806 25.712 70.4753 26.064C70.0806 26.4053 69.862 26.848 69.8193 27.392H73.7553ZM75.6753 28.256C75.6753 28.3413 75.6753 28.4267 75.6753 28.512C75.6753 28.5973 75.67 28.6827 75.6593 28.768H69.8193C69.8406 29.0453 69.91 29.3013 70.0273 29.536C70.1553 29.76 70.3206 29.9573 70.5233 30.128C70.726 30.288 70.9553 30.416 71.2113 30.512C71.4673 30.608 71.734 30.656 72.0113 30.656C72.4913 30.656 72.8966 30.5707 73.2273 30.4C73.558 30.2187 73.83 29.9733 74.0433 29.664L75.3233 30.688C74.566 31.712 73.4673 32.224 72.0273 32.224C71.43 32.224 70.8806 32.1333 70.3793 31.952C69.878 31.76 69.4406 31.4933 69.0673 31.152C68.7046 30.8107 68.4166 30.3947 68.2033 29.904C68.0006 29.4027 67.8993 28.8373 67.8993 28.208C67.8993 27.5893 68.0006 27.0293 68.2033 26.528C68.4166 26.016 68.7046 25.584 69.0673 25.232C69.43 24.8693 69.8566 24.592 70.3473 24.4C70.8486 24.1973 71.3873 24.096 71.9633 24.096C72.4966 24.096 72.9873 24.1867 73.4353 24.368C73.894 24.5387 74.2886 24.8 74.6193 25.152C74.95 25.4933 75.206 25.9253 75.3873 26.448C75.5793 26.96 75.6753 27.5627 75.6753 28.256ZM85.3428 32H83.5188V30.848H83.4868C83.2201 31.296 82.8468 31.6373 82.3668 31.872C81.8975 32.1067 81.3908 32.224 80.8468 32.224C80.2601 32.224 79.7321 32.1173 79.2628 31.904C78.8041 31.68 78.4095 31.3867 78.0788 31.024C77.7588 30.6507 77.5081 30.2187 77.3268 29.728C77.1561 29.2267 77.0708 28.6933 77.0708 28.128C77.0708 27.5627 77.1615 27.0347 77.3428 26.544C77.5241 26.0533 77.7801 25.6267 78.1108 25.264C78.4415 24.9013 78.8361 24.6187 79.2948 24.416C79.7535 24.2027 80.2548 24.096 80.7988 24.096C81.1508 24.096 81.4655 24.1387 81.7428 24.224C82.0201 24.2987 82.2601 24.3947 82.4628 24.512C82.6761 24.6293 82.8575 24.7573 83.0068 24.896C83.1561 25.0347 83.2788 25.168 83.3748 25.296H83.4228V19.904H85.3428V32ZM79.0228 28.128C79.0228 28.4267 79.0655 28.7253 79.1508 29.024C79.2468 29.3227 79.3855 29.5893 79.5668 29.824C79.7481 30.0587 79.9775 30.2507 80.2548 30.4C80.5321 30.5493 80.8575 30.624 81.2308 30.624C81.5828 30.624 81.8975 30.5547 82.1748 30.416C82.4521 30.2667 82.6868 30.0747 82.8788 29.84C83.0815 29.6053 83.2308 29.344 83.3268 29.056C83.4335 28.7573 83.4868 28.4587 83.4868 28.16C83.4868 27.8613 83.4335 27.5627 83.3268 27.264C83.2308 26.9653 83.0815 26.6987 82.8788 26.464C82.6868 26.2293 82.4521 26.0373 82.1748 25.888C81.8975 25.7387 81.5828 25.664 81.2308 25.664C80.8575 25.664 80.5321 25.7387 80.2548 25.888C79.9775 26.0267 79.7481 26.2133 79.5668 26.448C79.3855 26.6827 79.2468 26.9493 79.1508 27.248C79.0655 27.536 79.0228 27.8293 79.0228 28.128ZM93.6274 19.904V25.296H93.6754C93.7714 25.168 93.8941 25.0347 94.0434 24.896C94.1928 24.7573 94.3688 24.6293 94.5714 24.512C94.7848 24.3947 95.0301 24.2987 95.3074 24.224C95.5848 24.1387 95.8994 24.096 96.2514 24.096C96.7954 24.096 97.2968 24.2027 97.7554 24.416C98.2141 24.6187 98.6088 24.9013 98.9394 25.264C99.2701 25.6267 99.5261 26.0533 99.7074 26.544C99.8888 27.0347 99.9794 27.5627 99.9794 28.128C99.9794 28.6933 99.8888 29.2267 99.7074 29.728C99.5368 30.2187 99.2861 30.6507 98.9554 31.024C98.6354 31.3867 98.2408 31.68 97.7714 31.904C97.3128 32.1173 96.7901 32.224 96.2034 32.224C95.6594 32.224 95.1474 32.1067 94.6674 31.872C94.1981 31.6373 93.8301 31.296 93.5634 30.848H93.5314V32H91.7074V19.904H93.6274ZM98.0274 28.128C98.0274 27.8293 97.9794 27.536 97.8834 27.248C97.7981 26.9493 97.6648 26.6827 97.4834 26.448C97.3021 26.2133 97.0728 26.0267 96.7954 25.888C96.5181 25.7387 96.1928 25.664 95.8194 25.664C95.4674 25.664 95.1528 25.7387 94.8754 25.888C94.5981 26.0373 94.3581 26.2293 94.1554 26.464C93.9634 26.6987 93.8141 26.9653 93.7074 27.264C93.6114 27.5627 93.5634 27.8613 93.5634 28.16C93.5634 28.4587 93.6114 28.7573 93.7074 29.056C93.8141 29.344 93.9634 29.6053 94.1554 29.84C94.3581 30.0747 94.5981 30.2667 94.8754 30.416C95.1528 30.5547 95.4674 30.624 95.8194 30.624C96.1928 30.624 96.5181 30.5493 96.7954 30.4C97.0728 30.2507 97.3021 30.0587 97.4834 29.824C97.6648 29.5893 97.7981 29.3227 97.8834 29.024C97.9794 28.7253 98.0274 28.4267 98.0274 28.128ZM100.68 24.32H102.808L104.952 29.904H104.984L106.888 24.32H108.888L105.256 33.648C105.117 34 104.968 34.3093 104.808 34.576C104.648 34.8533 104.456 35.0827 104.232 35.264C104.008 35.456 103.741 35.6 103.432 35.696C103.133 35.792 102.77 35.84 102.344 35.84C102.184 35.84 102.018 35.8293 101.848 35.808C101.688 35.7973 101.522 35.7707 101.352 35.728L101.512 34.064C101.64 34.1067 101.762 34.1333 101.88 34.144C102.008 34.1653 102.125 34.176 102.232 34.176C102.434 34.176 102.605 34.1493 102.744 34.096C102.882 34.0533 103 33.9787 103.096 33.872C103.192 33.776 103.277 33.6533 103.352 33.504C103.426 33.3547 103.506 33.1787 103.592 32.976L103.976 32L100.68 24.32Z" fill="#8977F5"/>
</svg>
