<svg width="21" height="21" viewBox="0 0 21 21" fill="none" xmlns="http://www.w3.org/2000/svg">
<path d="M15.875 11.2496H11.25V17.6246H14.875C15.1402 17.6246 15.3945 17.5192 15.582 17.3317C15.7694 17.1441 15.875 16.8898 15.875 16.6246V11.2496ZM5.125 16.6246C5.125 16.8898 5.23055 17.1441 5.41797 17.3317C5.60551 17.5192 5.85978 17.6246 6.125 17.6246H9.75V11.2496H5.125V16.6246ZM17.625 7.87463C17.6248 7.80577 17.5689 7.74963 17.5 7.74963H11.25V9.74963H17.5C17.569 9.74963 17.625 9.69367 17.625 9.62463V7.87463ZM3.375 9.62463C3.375 9.69367 3.43096 9.74963 3.5 9.74963H9.75V7.74963H3.5C3.43109 7.74963 3.37521 7.80577 3.375 7.87463V9.62463ZM15.875 4.81213C15.8749 4.43116 15.7234 4.06597 15.4541 3.79651C15.1845 3.52693 14.8187 3.37463 14.4375 3.37463H14.4248C13.8492 3.36461 13.2165 3.64079 12.6211 4.30237C12.1825 4.78974 11.7991 5.45256 11.5088 6.24963H14.4375C14.8187 6.24963 15.1845 6.09832 15.4541 5.82874C15.7236 5.55917 15.875 5.19329 15.875 4.81213ZM5.125 4.81213C5.125 5.19329 5.27643 5.55917 5.5459 5.82874C5.81548 6.09832 6.18125 6.24963 6.5625 6.24963H9.49121C9.20094 5.45256 8.81745 4.78974 8.37891 4.30237C7.78349 3.64079 7.15077 3.36461 6.5752 3.37463L6.5625 3.37561V3.37463C6.18125 3.37463 5.81548 3.52693 5.5459 3.79651C5.27659 4.06597 5.1251 4.43116 5.125 4.81213ZM17.375 4.81213C17.375 5.32029 17.2415 5.81424 16.9971 6.24963H17.5C18.3973 6.24963 19.1248 6.97735 19.125 7.87463V9.62463C19.125 10.5221 18.3975 11.2496 17.5 11.2496H17.375V16.6246C17.375 17.2877 17.1114 17.9243 16.6426 18.3932C16.1738 18.8618 15.5379 19.1246 14.875 19.1246H6.125C5.4621 19.1246 4.82623 18.8618 4.35742 18.3932C3.88858 17.9243 3.625 17.2877 3.625 16.6246V11.2496H3.5C2.60254 11.2496 1.875 10.5221 1.875 9.62463V7.87463C1.87521 6.97735 2.60266 6.24963 3.5 6.24963H4.00293C3.75849 5.81424 3.625 5.32029 3.625 4.81213C3.6251 4.0332 3.93455 3.28578 4.48535 2.73499C5.03622 2.18422 5.78352 1.87463 6.5625 1.87463V1.87659C7.66995 1.86166 8.68704 2.40289 9.49316 3.29846C9.87952 3.72775 10.2164 4.23626 10.5 4.80237C10.7836 4.23626 11.1205 3.72775 11.5068 3.29846C12.313 2.40289 13.33 1.86166 14.4375 1.87659V1.87463C15.2165 1.87463 15.9638 2.18422 16.5146 2.73499C17.0654 3.28578 17.3749 4.0332 17.375 4.81213Z"/>
</svg>
