<svg width="21" height="21" viewBox="0 0 21 21" fill="none" xmlns="http://www.w3.org/2000/svg">
<path d="M10.5 6.99999C10.1835 5.69571 9.63852 4.58066 8.93614 3.80025C8.23377 3.01984 7.4066 2.61028 6.5625 2.62499C5.98234 2.62499 5.42594 2.85545 5.0157 3.26569C4.60547 3.67593 4.375 4.23232 4.375 4.81249C4.375 5.39265 4.60547 5.94905 5.0157 6.35928C5.42594 6.76952 5.98234 6.99999 6.5625 6.99999M10.5 6.99999C10.8165 5.69571 11.3615 4.58066 12.0639 3.80025C12.7662 3.01984 13.5934 2.61028 14.4375 2.62499C15.0177 2.62499 15.5741 2.85545 15.9843 3.26569C16.3945 3.67593 16.625 4.23232 16.625 4.81249C16.625 5.39265 16.3945 5.94905 15.9843 6.35928C15.5741 6.76952 15.0177 6.99999 14.4375 6.99999M10.5 6.99999V10.5M16.625 10.5V16.625C16.625 17.0891 16.4406 17.5342 16.1124 17.8624M4.88756 17.8624C4.55937 17.5342 4.375 17.0891 4.375 16.625V10.5M7.26731 17.6969L8.07494 17.3626M8.07494 15.3536L7.26644 15.0185M9.49594 13.9326L9.16081 13.125M9.49594 18.7836L9.16081 19.5921M11.5049 13.9326L11.8401 13.125M11.8392 19.5921L11.5049 18.7836M12.9268 15.3536L13.7336 15.0185M12.9268 17.3626L13.7336 17.6977M3.5 6.99999H17.5C17.9832 6.99999 18.375 7.39174 18.375 7.87499V9.62499C18.375 10.1082 17.9832 10.5 17.5 10.5H3.5C3.01675 10.5 2.625 10.1082 2.625 9.62499V7.87499C2.625 7.39174 3.01675 6.99999 3.5 6.99999ZM13.1254 16.3581C13.1254 17.8079 11.9502 18.9831 10.5004 18.9831C9.05069 18.9831 7.87544 17.8079 7.87544 16.3581C7.87544 14.9084 9.05069 13.7331 10.5004 13.7331C11.9502 13.7331 13.1254 14.9084 13.1254 16.3581Z" stroke="currentColor" stroke-width="1.5" stroke-linecap="round" stroke-linejoin="round"/>
</svg>
