<svg width="20" height="21" viewBox="0 0 20 21" fill="none" xmlns="http://www.w3.org/2000/svg">
<path d="M19.5674 8.21883L17.6845 7.55725L17.1756 6.33588L18.0407 4.52926C18.1679 4.27481 18.117 3.99491 17.9135 3.81679L16.2087 2.11196C16.0305 1.93384 15.7252 1.88295 15.4962 1.98473L13.6896 2.82443L12.4682 2.31552L11.8066 0.43257C11.7048 0.178117 11.4758 0 11.1959 0H8.80407C8.52417 0 8.29517 0.178117 8.19338 0.43257L7.53181 2.31552L6.31043 2.82443L4.50382 1.95929C4.24936 1.83206 3.96947 1.88295 3.79135 2.08651L2.08651 3.79135C1.9084 3.96946 1.85751 4.27481 1.95929 4.50382L2.82443 6.31043L2.31552 7.53181L0.43257 8.19338C0.178117 8.29516 0 8.52417 0 8.80407V11.2214C0 11.5013 0.178117 11.7303 0.43257 11.8321L2.31552 12.4936L2.82443 13.715L1.95929 15.5216C1.83206 15.7761 1.88295 16.056 2.08651 16.2341L3.79135 17.9389C3.96947 18.117 4.27481 18.1679 4.50382 18.0662L6.31043 17.201L7.53181 17.7099L8.19338 19.5929C8.29517 19.8473 8.52417 20.0254 8.80407 20.0254H11.1959C11.4758 20.0254 11.7048 19.8473 11.8066 19.5929L12.4682 17.7099L13.6896 17.201L15.4962 18.0662C15.7506 18.1934 16.0305 18.1425 16.2087 17.9389L17.9135 16.2341C18.0916 16.056 18.1425 15.7506 18.0407 15.5216L17.1756 13.715L17.6845 12.4936L19.5674 11.8321C19.8219 11.7303 20 11.5013 20 11.2214V8.82951C20 8.54962 19.8219 8.29517 19.5674 8.21883ZM18.7277 10.7634L16.9975 11.374C16.8193 11.4249 16.6921 11.5522 16.6158 11.7303L15.9033 13.486C15.827 13.6641 15.827 13.8422 15.9288 13.9949L16.7176 15.6489L15.6489 16.7176L13.9949 15.9288C13.8422 15.8524 13.6387 15.8524 13.486 15.9033L11.7303 16.6158C11.5522 16.6921 11.4249 16.8193 11.374 16.9975L10.7634 18.7277H9.26209L8.6514 16.9975C8.60051 16.8193 8.47328 16.6921 8.29517 16.6158L6.53944 15.9033C6.36132 15.827 6.18321 15.827 6.03053 15.9288L4.37659 16.7176L3.30789 15.6489L4.09669 13.9949C4.17303 13.8422 4.17303 13.6387 4.12214 13.486L3.38422 11.7303C3.30789 11.5522 3.18066 11.4249 3.00254 11.374L1.27226 10.7634V9.26208L3.00254 8.6514C3.18066 8.60051 3.30789 8.47328 3.38422 8.29516L4.09669 6.53944C4.17303 6.36132 4.17303 6.1832 4.07125 6.03053L3.28244 4.37659L4.35114 3.30789L6.00509 4.09669C6.15776 4.17303 6.36132 4.17303 6.51399 4.12214L8.26972 3.40967C8.44784 3.33333 8.57506 3.20611 8.62595 3.02799L9.23664 1.29771H10.7379L11.3486 3.02799C11.3995 3.20611 11.5267 3.33333 11.7048 3.40967L13.4606 4.12214C13.6387 4.19847 13.8168 4.19847 13.9695 4.09669L15.6234 3.30789L16.6921 4.37659L15.9033 6.03053C15.827 6.1832 15.827 6.38677 15.8779 6.53944L16.5903 8.29516C16.6667 8.47328 16.7939 8.60051 16.972 8.6514L18.7023 9.26208V10.7634H18.7277Z" fill="#FCFCFC" fill-opacity="0.8"/>
<path d="M10 4.55469C7.0229 4.55469 4.58015 6.97199 4.58015 9.97453C4.58015 12.9771 7.0229 15.3689 10 15.3689C12.9771 15.3689 15.4198 12.9262 15.4198 9.94909C15.4198 6.97199 12.9771 4.55469 10 4.55469ZM10 14.7328C7.37914 14.7328 5.21629 12.5954 5.21629 9.94909C5.21629 7.30278 7.37914 5.19082 10 5.19082C12.6209 5.19082 14.7837 7.32822 14.7837 9.94909C14.7837 12.57 12.6209 14.7328 10 14.7328Z" fill="#FCFCFC" fill-opacity="0.8"/>
<path d="M10 7.73535C8.77863 7.73535 7.76082 8.72772 7.76082 9.97454C7.76082 11.2214 8.75318 12.2137 10 12.2137C11.2468 12.2137 12.2392 11.2214 12.2392 9.97454C12.2392 8.72772 11.2214 7.73535 10 7.73535ZM10 11.5521C9.13486 11.5521 8.39695 10.8397 8.39695 9.94909C8.39695 9.05851 9.10942 8.34604 10 8.34604C10.8906 8.34604 11.6031 9.05851 11.6031 9.94909C11.6031 10.8397 10.8651 11.5521 10 11.5521Z" fill="#FCFCFC" fill-opacity="0.8"/>
</svg>
