<svg version="1.2" baseProfile="tiny-ps" xmlns="http://www.w3.org/2000/svg" viewBox="0 0 709 709" width="256" height="256">
	<title>logo</title>
	<style>
		tspan { white-space:pre }
		.shp0 { fill: #ffd100;stroke: #000000;stroke-linecap:square;stroke-width: 0.1 } 
	</style>
	<g id="fg">
		<path id="rect7767" class="shp0" d="M354.33 36.28C313.97 36.28 274.01 44.23 236.72 59.68C199.43 75.12 165.56 97.76 137.02 126.3C108.48 154.84 85.84 188.72 70.4 226C54.96 263.29 47.01 303.25 47.01 343.61C47.02 367.02 49.72 390.35 55.03 413.15C60.35 435.95 68.25 458.06 78.58 479.07C88.92 500.07 101.62 519.83 116.44 537.95C131.26 556.07 148.11 572.44 166.64 586.74L47.01 586.74L47.01 672.38L284.35 672.38L284.35 553.6C262.43 546.31 241.8 535.63 223.18 521.96C204.57 508.28 188.21 491.78 174.69 473.06C161.17 454.33 150.67 433.6 143.56 411.63C136.45 389.66 132.81 366.7 132.79 343.61C132.79 314.52 138.52 285.71 149.66 258.83C160.79 231.95 177.11 207.53 197.68 186.96C218.25 166.39 242.67 150.07 269.55 138.93C296.43 127.8 325.24 122.07 354.33 122.07C383.42 122.07 412.23 127.8 439.11 138.93C465.99 150.07 490.41 166.38 510.98 186.96C531.55 207.53 547.87 231.95 559.01 258.83C570.14 285.71 575.87 314.52 575.87 343.61C575.84 366.7 572.2 389.64 565.08 411.6C557.97 433.57 547.46 454.28 533.94 473C520.43 491.72 504.07 508.21 485.46 521.88C466.85 535.54 446.22 546.22 424.32 553.51L424.32 672.38L661.65 672.38L661.65 586.74L541.69 586.74C560.26 572.45 577.13 556.1 591.99 537.99C606.84 519.87 619.57 500.12 629.93 479.11C640.3 458.11 648.23 435.99 653.56 413.18C658.9 390.37 661.62 367.03 661.65 343.61C661.65 303.25 653.71 263.29 638.26 226C622.82 188.71 600.18 154.83 571.64 126.3C543.1 97.76 509.22 75.12 471.94 59.68C434.65 44.23 394.69 36.28 354.33 36.28L354.33 36.28Z" />
	</g>
</svg>