<svg width="20" height="20" viewBox="0 0 20 20" fill="none" xmlns="http://www.w3.org/2000/svg">
<path d="M11.6172 19.0859L17.6562 15.5859C18.3438 15.1875 18.6719 14.8203 18.6719 14.2656C18.6719 13.7031 18.3438 13.3438 17.6562 12.9375L16.75 12.4141L17.6562 11.8906C18.3438 11.4922 18.6719 11.125 18.6719 10.5703C18.6719 10.0078 18.3438 9.64844 17.6562 9.25L16.5781 8.625L17.6562 8C18.3438 7.59375 18.6719 7.23438 18.6719 6.67969C18.6719 6.11719 18.3438 5.75781 17.6562 5.35156L11.6172 1.85156C11.1797 1.60156 10.8438 1.46875 10.4922 1.46875C10.1484 1.46875 9.8125 1.60156 9.375 1.85156L3.33594 5.35156C2.64844 5.75781 2.32031 6.11719 2.32031 6.67969C2.32031 7.23438 2.64844 7.59375 3.33594 8L4.41406 8.625L3.33594 9.25C2.64844 9.64844 2.32031 10.0078 2.32031 10.5703C2.32031 11.125 2.64844 11.4922 3.33594 11.8906L4.24219 12.4141L3.33594 12.9375C2.64844 13.3438 2.32031 13.7031 2.32031 14.2656C2.32031 14.8203 2.64844 15.1875 3.33594 15.5859L9.375 19.0859C9.8125 19.3359 10.1484 19.4688 10.4922 19.4688C10.8438 19.4688 11.1797 19.3359 11.6172 19.0859ZM10.4922 10C10.3984 10 10.3125 9.96875 10.2031 9.90625L4.64062 6.75C4.60156 6.73438 4.58594 6.71094 4.58594 6.67969C4.58594 6.64062 4.60156 6.61719 4.64062 6.60156L10.2031 3.44531C10.3125 3.38281 10.3984 3.35156 10.4922 3.35156C10.5859 3.35156 10.6719 3.38281 10.7891 3.44531L16.3516 6.60156C16.3828 6.61719 16.4062 6.64062 16.4062 6.67969C16.4062 6.71094 16.3828 6.73438 16.3516 6.75L10.7891 9.90625C10.6719 9.96875 10.5859 10 10.4922 10ZM10.4922 11.8828C10.8438 11.8828 11.1797 11.75 11.6172 11.5L14.8359 9.63281L16.3516 10.4922C16.3828 10.5156 16.4062 10.5312 16.4062 10.5703C16.4062 10.6016 16.3828 10.625 16.3516 10.6406L10.7891 13.8047C10.6719 13.8672 10.5859 13.8984 10.4922 13.8984C10.3984 13.8984 10.3125 13.8672 10.2031 13.8047L4.64062 10.6406C4.60156 10.625 4.58594 10.6016 4.58594 10.5703C4.58594 10.5312 4.60156 10.5156 4.64062 10.4922L6.15625 9.63281L9.375 11.5C9.8125 11.75 10.1484 11.8828 10.4922 11.8828ZM10.2031 17.4922L4.64062 14.3359C4.60156 14.3203 4.58594 14.2969 4.58594 14.2656C4.58594 14.2266 4.60156 14.2109 4.64062 14.1875L5.98438 13.4297L9.375 15.3906C9.8125 15.6406 10.1484 15.7734 10.4922 15.7734C10.8438 15.7734 11.1797 15.6406 11.6172 15.3906L15.0078 13.4297L16.3516 14.1875C16.3828 14.2109 16.4062 14.2266 16.4062 14.2656C16.4062 14.2969 16.3828 14.3203 16.3516 14.3359L10.7891 17.4922C10.6719 17.5547 10.5859 17.5859 10.4922 17.5859C10.3984 17.5859 10.3125 17.5547 10.2031 17.4922Z" />
</svg>
