<svg width="16" height="18" viewBox="0 0 16 18" fill="none" xmlns="http://www.w3.org/2000/svg">
<path fill-rule="evenodd" clip-rule="evenodd" d="M2.34315 13.8839C5.46734 15.6874 10.5327 15.6874 13.6569 13.8839C14.7756 13.238 15.4937 12.4485 15.8112 11.6182C16.3804 13.1066 15.6623 14.7261 13.6569 15.8839C10.5327 17.6875 5.46734 17.6875 2.34315 15.8839C0.337679 14.7261 -0.380449 13.1066 0.188763 11.6182C0.506291 12.4485 1.22442 13.238 2.34315 13.8839Z" fill="white"/>
<path fill-rule="evenodd" clip-rule="evenodd" d="M2.34315 9.88385C5.46734 11.6874 10.5327 11.6874 13.6569 9.88385C14.7756 9.23801 15.4937 8.44848 15.8112 7.61817C16.3804 9.10662 15.6623 10.7261 13.6569 11.8839C10.5327 13.6875 5.46734 13.6875 2.34315 11.8839C0.337679 10.7261 -0.380449 9.10661 0.188763 7.61816C0.506291 8.44848 1.22442 9.23801 2.34315 9.88385Z" fill="white"/>
<path d="M13.6569 7.8841C10.5327 9.6877 5.46734 9.6877 2.34315 7.8841C-0.781049 6.0805 -0.781049 3.1563 2.34315 1.3527C5.46734 -0.450899 10.5327 -0.450899 13.6569 1.3527C16.781 3.1563 16.781 6.0805 13.6569 7.8841Z" fill="white"/>
</svg>
