<svg width="16" height="16" viewBox="0 0 16 16" fill="none" xmlns="http://www.w3.org/2000/svg">
<path d="M5.68994 11V10.05L8.44994 7.39C8.97661 6.87667 9.23994 6.40333 9.23994 5.97C9.23994 5.66333 9.12994 5.40333 8.90994 5.19C8.69661 4.97 8.42327 4.86 8.08994 4.86C7.77661 4.86 7.49661 4.96667 7.24994 5.18C7.00994 5.39333 6.86328 5.66 6.80994 5.98L5.72994 5.74C5.83661 5.15333 6.10994 4.68 6.54994 4.32C6.99661 3.96 7.52661 3.78 8.13994 3.78C8.77328 3.78 9.29661 3.97667 9.70994 4.37C10.1299 4.75667 10.3399 5.27333 10.3399 5.92C10.3399 6.36667 10.2399 6.77 10.0399 7.13C9.83994 7.48333 9.54328 7.84667 9.14994 8.22L7.37994 9.92H10.4299V11H5.68994Z" fill="white"/>
<path fill-rule="evenodd" clip-rule="evenodd" d="M8.10286 15C12.0377 15 15.2057 11.854 15.2057 8C15.2057 4.14601 12.0377 1 8.10286 1C4.16798 1 1 4.14601 1 8C1 11.854 4.16798 15 8.10286 15ZM8.10286 16C12.5779 16 16.2057 12.4183 16.2057 8C16.2057 3.58172 12.5779 0 8.10286 0C3.62777 0 0 3.58172 0 8C0 12.4183 3.62777 16 8.10286 16Z" fill="white"/>
</svg>
