<svg width="17" height="17" viewBox="0 0 17 17" fill="none" xmlns="http://www.w3.org/2000/svg">
<path d="M8.16406 16.3359C12.6406 16.3359 16.3281 12.6406 16.3281 8.16406C16.3281 3.6875 12.6328 0 8.16406 0C3.6875 0 0 3.6875 0 8.16406C0 12.6406 3.6875 16.3359 8.16406 16.3359ZM7.29688 12.0547C6.96875 12.0547 6.71094 11.9141 6.47656 11.625L4.60156 9.36719C4.44531 9.16406 4.375 8.97656 4.375 8.76562C4.375 8.32031 4.72656 7.96875 5.17188 7.96875C5.42969 7.96875 5.63281 8.07031 5.83594 8.32031L7.27344 10.1094L10.4062 5.10938C10.5938 4.80469 10.8359 4.65625 11.1094 4.65625C11.5469 4.65625 11.9375 4.96875 11.9375 5.41406C11.9375 5.60156 11.8516 5.80469 11.7266 5.99219L8.07812 11.6094C7.89062 11.8984 7.60938 12.0547 7.29688 12.0547Z" fill="white"/>
</svg>
