<svg width="16" height="16" viewBox="0 0 16 16" fill="none" xmlns="http://www.w3.org/2000/svg">
<path fill-rule="evenodd" clip-rule="evenodd" d="M8 15C11.866 15 15 11.866 15 8C15 4.13401 11.866 1 8 1C4.13401 1 1 4.13401 1 8C1 11.866 4.13401 15 8 15ZM8 16C12.4183 16 16 12.4183 16 8C16 3.58172 12.4183 0 8 0C3.58172 0 0 3.58172 0 8C0 12.4183 3.58172 16 8 16Z"/>
<path d="M5.70215 11.5V10.5789L8.37805 8C8.88867 7.50231 9.14398 7.0434 9.14398 6.62327C9.14398 6.32595 9.03733 6.07387 8.82403 5.86704C8.6172 5.65374 8.35219 5.54709 8.02902 5.54709C7.72523 5.54709 7.45376 5.65051 7.21461 5.85734C6.98193 6.06417 6.83973 6.32271 6.78802 6.63296L5.74093 6.40028C5.84435 5.83149 6.10935 5.37258 6.53594 5.02355C6.969 4.67452 7.48285 4.5 8.07749 4.5C8.69153 4.5 9.19892 4.69067 9.59965 5.07202C10.0069 5.44691 10.2105 5.94783 10.2105 6.57479C10.2105 7.00785 10.1135 7.39889 9.9196 7.74792C9.72569 8.09049 9.43807 8.44275 9.05672 8.80471L7.34065 10.4529H10.2977V11.5H5.70215Z"/>
</svg>