<svg width="20" height="20" viewBox="0 0 20 20" fill="none" xmlns="http://www.w3.org/2000/svg">
<path d="M13.5451 6.45475C12.6456 5.55528 11.3758 4.97327 10.0001 4.97327C8.62443 4.97327 7.35459 5.52882 6.45511 6.45475C5.55564 7.35422 4.97363 8.62406 4.97363 9.99972C4.97363 11.3754 5.55564 12.6452 6.45511 13.5447C7.35459 14.4442 8.62443 15.0262 10.0001 15.0262C11.3758 15.0262 12.6456 14.4706 13.5451 13.5447C14.4445 12.6452 15.0265 11.3754 15.0265 9.99972C15.0265 8.62406 14.471 7.35422 13.5451 6.45475ZM12.5927 12.5923C11.9313 13.2537 11.0054 13.6505 10.0001 13.6505C8.9948 13.6505 8.06887 13.2537 7.4075 12.5923C6.74612 11.9309 6.34929 11.005 6.34929 9.99972C6.34929 8.99443 6.74612 8.06851 7.4075 7.40713C8.06887 6.74575 8.9948 6.34893 10.0001 6.34893C11.0054 6.34893 11.9313 6.74575 12.5927 7.40713C13.2541 8.06851 13.6509 8.99443 13.6509 9.99972C13.6509 11.005 13.2541 11.9309 12.5927 12.5923Z" fill="white"/>
<path d="M19.312 9.31213H17.275C16.9046 9.31213 16.5872 9.62959 16.5872 9.99997C16.5872 10.3703 16.9046 10.6878 17.275 10.6878H19.312C19.6824 10.6878 19.9999 10.3703 19.9999 9.99997C19.9999 9.62959 19.6824 9.31213 19.312 9.31213Z" fill="white"/>
<path d="M9.99935 16.5872C9.62898 16.5872 9.31152 16.9046 9.31152 17.275V19.312C9.31152 19.6824 9.62898 19.9999 9.99935 19.9999C10.3697 19.9999 10.6872 19.6824 10.6872 19.312V17.275C10.6872 16.9046 10.3697 16.5872 9.99935 16.5872Z" fill="white"/>
<path d="M17.0638 16.1111L15.6088 14.6561C15.3707 14.3915 14.921 14.3915 14.6564 14.6561C14.3919 14.9206 14.3919 15.3439 14.6564 15.6084L16.1114 17.0635C16.376 17.328 16.7993 17.328 17.0638 17.0635C17.3284 16.7989 17.3284 16.3756 17.0638 16.1111Z" fill="white"/>
<path d="M9.99935 0C9.62898 0 9.31152 0.31746 9.31152 0.687831V2.72487C9.31152 3.09524 9.62898 3.4127 9.99935 3.4127C10.3697 3.4127 10.6872 3.09524 10.6872 2.72487V0.687831C10.6872 0.31746 10.3697 0 9.99935 0Z" fill="white"/>
<path d="M17.0891 2.93633C16.8245 2.67178 16.4013 2.67178 16.1367 2.93633L14.6817 4.39135C14.4171 4.65591 14.4171 5.07919 14.6817 5.34374C14.9198 5.60829 15.3695 5.60829 15.6341 5.34374L17.0891 3.88871C17.3536 3.62416 17.3536 3.20088 17.0891 2.93633Z" fill="white"/>
<path d="M2.72487 9.31213H0.687831C0.31746 9.31213 0 9.62959 0 9.99997C0 10.3703 0.291005 10.6878 0.687831 10.6878H2.72487C3.09524 10.6878 3.4127 10.3703 3.4127 9.99997C3.4127 9.62959 3.09524 9.31213 2.72487 9.31213Z" fill="white"/>
<path d="M5.31786 14.6561C5.07976 14.3915 4.63003 14.3915 4.36548 14.6561L2.91045 16.1111C2.6459 16.3756 2.6459 16.7989 2.91045 17.0635C3.175 17.328 3.59828 17.328 3.86283 17.0635L5.31786 15.6084C5.58241 15.3439 5.58241 14.9206 5.31786 14.6561Z" fill="white"/>
<path d="M5.31786 4.39135L3.86283 2.93633C3.59828 2.67178 3.175 2.67178 2.91045 2.93633C2.6459 3.20088 2.6459 3.62416 2.91045 3.88871L4.36548 5.34374C4.63003 5.60829 5.05331 5.60829 5.31786 5.34374C5.58241 5.07919 5.58241 4.65591 5.31786 4.39135Z" fill="white"/>
</svg>
