<svg width="20" height="20" viewBox="0 0 20 20" fill="none" xmlns="http://www.w3.org/2000/svg">
<path d="M10.6797 2.53125C10.6797 2.16406 10.3672 1.85156 9.99219 1.85156C9.625 1.85156 9.3125 2.16406 9.3125 2.53125V4.17188C9.3125 4.53906 9.625 4.85156 9.99219 4.85156C10.3672 4.85156 10.6797 4.53906 10.6797 4.17188V2.53125ZM13.8516 5.50781C13.5938 5.77344 13.5938 6.21094 13.8516 6.46875C14.1172 6.73438 14.5547 6.74219 14.8203 6.46875L15.9844 5.30469C16.25 5.03906 16.25 4.60156 15.9844 4.33594C15.7266 4.07812 15.2891 4.07812 15.0312 4.33594L13.8516 5.50781ZM5.16406 6.46875C5.42969 6.73438 5.86719 6.73438 6.125 6.46875C6.39062 6.21875 6.39062 5.76562 6.13281 5.50781L4.96875 4.33594C4.71875 4.08594 4.27344 4.07812 4.00781 4.33594C3.75 4.59375 3.75 5.03906 4 5.29688L5.16406 6.46875ZM9.99219 6.34375C7.8125 6.34375 6.00781 8.14844 6.00781 10.3281C6.00781 12.5078 7.8125 14.3203 9.99219 14.3203C12.1641 14.3203 13.9688 12.5078 13.9688 10.3281C13.9688 8.14844 12.1641 6.34375 9.99219 6.34375ZM17.7656 11.0078C18.1406 11.0078 18.4531 10.6953 18.4531 10.3281C18.4531 9.96094 18.1406 9.64844 17.7656 9.64844H16.1328C15.7656 9.64844 15.4531 9.96094 15.4531 10.3281C15.4531 10.6953 15.7656 11.0078 16.1328 11.0078H17.7656ZM2.21875 9.64844C1.85156 9.64844 1.53906 9.96094 1.53906 10.3281C1.53906 10.6953 1.85156 11.0078 2.21875 11.0078H3.85156C4.22656 11.0078 4.53906 10.6953 4.53906 10.3281C4.53906 9.96094 4.22656 9.64844 3.85156 9.64844H2.21875ZM14.8125 14.1953C14.5547 13.9375 14.1172 13.9375 13.8516 14.1953C13.5938 14.4531 13.5938 14.8906 13.8516 15.1562L15.0312 16.3281C15.2891 16.5859 15.7266 16.5781 15.9844 16.3203C16.25 16.0625 16.25 15.625 15.9844 15.3594L14.8125 14.1953ZM4 15.3516C3.74219 15.6094 3.74219 16.0547 3.99219 16.3125C4.25 16.5703 4.69531 16.5781 4.96094 16.3203L6.125 15.1562C6.39062 14.8984 6.39062 14.4609 6.13281 14.1953C5.875 13.9375 5.42969 13.9375 5.16406 14.1953L4 15.3516ZM10.6797 16.4844C10.6797 16.1172 10.3672 15.8047 9.99219 15.8047C9.625 15.8047 9.3125 16.1172 9.3125 16.4844V18.125C9.3125 18.4922 9.625 18.8047 9.99219 18.8047C10.3672 18.8047 10.6797 18.4922 10.6797 18.125V16.4844Z"/>
</svg>
