<svg width="20" height="20" viewBox="0 0 20 20" fill="none" xmlns="http://www.w3.org/2000/svg">
<g clip-path="url(#clip0_469_3809)">
<path d="M10 20C15.5228 20 20 15.5228 20 10C20 4.47715 15.5228 0 10 0C4.47715 0 0 4.47715 0 10C0 15.5228 4.47715 20 10 20Z" fill="url(#paint0_radial_469_3809)"/>
<path d="M6.33618 12.4994H4.99512C5.10459 14.589 6.85618 16.4054 9.9625 16.4054C13.0552 16.4054 15.0257 14.7119 15.0257 12.5266C15.0257 8.37479 8.74458 8.60696 8.74458 6.20329C8.74458 5.53408 9.25092 4.74195 10.4278 4.74195C11.7415 4.74195 13.2878 5.76626 13.3972 7.07737H14.7247C14.5878 4.96047 12.5215 3.48547 9.89408 3.48547C7.17093 3.48547 5.11828 5.06973 5.11828 7.30954C5.11828 11.5843 11.3994 11.0244 11.3994 13.6602C11.3994 14.4797 10.8931 15.1625 9.62042 15.1625C8.03303 15.1625 6.43197 14.0563 6.33618 12.4994ZM7.45829 6.51742C7.45829 9.76787 13.6847 9.12596 13.6847 12.595C13.6847 13.6329 13.0004 14.548 12.1794 14.7801C12.4668 14.507 12.6857 13.906 12.6857 13.3325C12.6857 10.123 6.44566 10.56 6.44566 7.26857C6.44566 6.16232 7.15724 5.27459 8.04672 5.00144C7.70461 5.41117 7.45829 5.9438 7.45829 6.51742Z" fill="white"/>
</g>
<defs>
<radialGradient id="paint0_radial_469_3809" cx="0" cy="0" r="1" gradientUnits="userSpaceOnUse" gradientTransform="translate(10 20) rotate(-90) scale(20 24)">
<stop stop-color="#A0DF88"/>
<stop offset="1" stop-color="#04C39F"/>
</radialGradient>
<clipPath id="clip0_469_3809">
<rect width="20" height="20" fill="white"/>
</clipPath>
</defs>
</svg>
