<svg width="20" height="20" viewBox="0 0 20 20" fill="none" xmlns="http://www.w3.org/2000/svg">
<g clip-path="url(#clip0_2802_9313)">
<path d="M10 20C15.5228 20 20 15.5228 20 10C20 4.47715 15.5228 0 10 0C4.47715 0 0 4.47715 0 10C0 15.5228 4.47715 20 10 20Z" fill="url(#paint0_radial_2802_9313)"/>
<path d="M6.33618 12.4993H4.99512C5.10459 14.5888 6.85618 16.4053 9.9625 16.4053C13.0552 16.4053 15.0257 14.7118 15.0257 12.5265C15.0257 8.37467 8.74458 8.60683 8.74458 6.20317C8.74458 5.53396 9.25092 4.74183 10.4278 4.74183C11.7415 4.74183 13.2878 5.76614 13.3972 7.07724H14.7247C14.5878 4.96034 12.5215 3.48535 9.89408 3.48535C7.17093 3.48535 5.11828 5.06961 5.11828 7.30942C5.11828 11.5842 11.3994 11.0243 11.3994 13.6601C11.3994 14.4796 10.8931 15.1624 9.62042 15.1624C8.03303 15.1624 6.43197 14.0562 6.33618 12.4993ZM7.45829 6.51729C7.45829 9.76775 13.6847 9.12584 13.6847 12.5948C13.6847 13.6328 13.0004 14.5478 12.1794 14.78C12.4668 14.5068 12.6857 13.9059 12.6857 13.3323C12.6857 10.1228 6.44566 10.5599 6.44566 7.26844C6.44566 6.1622 7.15724 5.27447 8.04672 5.00132C7.70461 5.41104 7.45829 5.94368 7.45829 6.51729Z" fill="white"/>
</g>
<defs>
<radialGradient id="paint0_radial_2802_9313" cx="0" cy="0" r="1" gradientUnits="userSpaceOnUse" gradientTransform="translate(10 24.1667) rotate(-90) scale(32.5 39)">
<stop stop-color="#FFD232"/>
<stop offset="1" stop-color="#FF6D6D"/>
</radialGradient>
<clipPath id="clip0_2802_9313">
<rect width="20" height="20" fill="white"/>
</clipPath>
</defs>
</svg>
