<svg width="30" height="30" viewBox="0 0 30 30" fill="none" xmlns="http://www.w3.org/2000/svg">
<rect width="30" height="30" rx="15" fill="#708B96"/>
<path d="M19.3822 17.5887C20.0971 17.5887 20.6765 17.0092 20.6765 16.2943C20.6765 15.5795 20.0971 15 19.3822 15C18.6674 15 18.0879 15.5795 18.0879 16.2943C18.0879 17.0092 18.6674 17.5887 19.3822 17.5887Z" fill="white"/>
<path d="M8.05763 10.1462V20.1773C8.05763 20.5206 8.194 20.8498 8.43673 21.0925C8.67947 21.3352 9.00868 21.4716 9.35196 21.4716H22.2952C22.4669 21.4716 22.6315 21.4034 22.7529 21.2821C22.8742 21.1607 22.9424 20.9961 22.9424 20.8244V12.4113C22.9424 12.2397 22.8742 12.0751 22.7529 11.9537C22.6315 11.8323 22.4669 11.7641 22.2952 11.7641H9.71599C9.29133 11.7688 8.88136 11.6088 8.57215 11.3177C8.26294 11.0266 8.07853 10.627 8.05763 10.2029C8.05003 9.98567 8.08625 9.76918 8.16415 9.56631C8.24204 9.36343 8.36001 9.17832 8.51101 9.02204C8.66201 8.86575 8.84295 8.74149 9.04303 8.65666C9.24311 8.57184 9.45822 8.52819 9.67554 8.52832H20.3537" stroke="white" stroke-width="1.5" stroke-linecap="round" stroke-linejoin="round" fill="none"/>
</svg>
