<svg width="30" height="30" viewBox="0 0 30 30" fill="none" xmlns="http://www.w3.org/2000/svg">
<rect width="30" height="30" rx="15" fill="#708B96"/>
<path fill="none" d="M15 14C16.933 14 18.5 12.433 18.5 10.5C18.5 8.567 16.933 7 15 7C13.067 7 11.5 8.567 11.5 10.5C11.5 12.433 13.067 14 15 14Z" stroke="white" stroke-width="1.5" stroke-linecap="round" stroke-linejoin="round"/>
<path fill="none" d="M8 22V17.5C8.81504 16.4133 9.8719 15.5313 11.0869 14.9238C12.3019 14.3163 13.6416 14 15 14C16.3584 14 17.6981 14.3163 18.9131 14.9238C20.1281 15.5313 21.185 16.4133 22 17.5V22" stroke="white" stroke-width="1.5" stroke-linecap="round" stroke-linejoin="round"/>
<path d="M12.5 20H17.5" stroke="white" stroke-width="1.5" stroke-linecap="round" stroke-linejoin="round"/>
<path d="M15 17.5L15 22.5" stroke="white" stroke-width="1.5" stroke-linecap="round" stroke-linejoin="round"/>
</svg>
