<svg width="50" height="50" viewBox="0 0 50 50" fill="none" xmlns="http://www.w3.org/2000/svg">
<rect width="50" height="50" rx="25" fill="#708B96"/>
<path d="M31 21H30V19C30 16.24 27.76 14 25 14C22.24 14 20 16.24 20 19V21H19C17.9 21 17 21.9 17 23V33C17 34.1 17.9 35 19 35H31C32.1 35 33 34.1 33 33V23C33 21.9 32.1 21 31 21ZM25 30C23.9 30 23 29.1 23 28C23 26.9 23.9 26 25 26C26.1 26 27 26.9 27 28C27 29.1 26.1 30 25 30ZM28.1 21H21.9V19C21.9 17.29 23.29 15.9 25 15.9C26.71 15.9 28.1 17.29 28.1 19V21Z" fill="white"/>
</svg>
