<svg width="24" height="24" viewBox="0 0 24 24" fill="none" xmlns="http://www.w3.org/2000/svg">
<path d="M7.9 8.99902H8H8.9H15.1H16H16.1H17H18C18.5477 8.99902 19 9.45131 19 9.99902V19.999C19 20.5467 18.5477 20.999 18 20.999H6C5.45228 20.999 5 20.5467 5 19.999V9.99902C5 9.45131 5.45228 8.99902 6 8.99902H7H7.9ZM9 14.999C9 16.6513 10.3477 17.999 12 17.999C13.6523 17.999 15 16.6513 15 14.999C15 13.3467 13.6523 11.999 12 11.999C10.3477 11.999 9 13.3467 9 14.999Z" fill="#708B96" stroke="white" stroke-width="2"/>
<rect x="6" y="10" width="12" height="10" fill="#708B96"/>
<circle cx="12" cy="15" r="1.5" fill="white" stroke="white"/>
</svg>
