<svg width="16" height="21" viewBox="0 0 16 21" fill="none" xmlns="http://www.w3.org/2000/svg">
<path d="M3.9 7.99902H4H4.9H11.1H12H12.1H13H14C14.5477 7.99902 15 8.45131 15 8.99902V18.999C15 19.5467 14.5477 19.999 14 19.999H2C1.45228 19.999 1 19.5467 1 18.999V8.99902C1 8.45131 1.45228 7.99902 2 7.99902H3H3.9ZM5 13.999C5 15.6513 6.34772 16.999 8 16.999C9.65228 16.999 11 15.6513 11 13.999C11 12.3467 9.65228 10.999 8 10.999C6.34772 10.999 5 12.3467 5 13.999Z" fill="#708B96" stroke="white" stroke-width="2"/>
<rect x="2" y="9" width="12" height="10" fill="#708B96"/>
<circle cx="8" cy="14" r="1.5" fill="white" stroke="white"/>
</svg>