<svg width="14" height="14" viewBox="0 0 14 14" fill="none" xmlns="http://www.w3.org/2000/svg">
<path d="M6.9935 0.333374C3.3135 0.333374 0.333496 3.32004 0.333496 7.00004C0.333496 10.68 3.3135 13.6667 6.9935 13.6667C10.6802 13.6667 13.6668 10.68 13.6668 7.00004C13.6668 3.32004 10.6802 0.333374 6.9935 0.333374ZM11.6135 4.33337H9.64683C9.4335 3.50004 9.12683 2.70004 8.72683 1.96004C9.9535 2.38004 10.9735 3.23337 11.6135 4.33337ZM7.00016 1.69337C7.5535 2.49337 7.98683 3.38004 8.2735 4.33337H5.72683C6.0135 3.38004 6.44683 2.49337 7.00016 1.69337ZM1.84016 8.33337C1.7335 7.90671 1.66683 7.46004 1.66683 7.00004C1.66683 6.54004 1.7335 6.09337 1.84016 5.66671H4.0935C4.04016 6.10671 4.00016 6.54671 4.00016 7.00004C4.00016 7.45337 4.04016 7.89337 4.0935 8.33337H1.84016ZM2.38683 9.66671H4.3535C4.56683 10.5 4.8735 11.3 5.2735 12.04C4.04683 11.62 3.02683 10.7734 2.38683 9.66671ZM4.3535 4.33337H2.38683C3.02683 3.22671 4.04683 2.38004 5.2735 1.96004C4.8735 2.70004 4.56683 3.50004 4.3535 4.33337ZM7.00016 12.3067C6.44683 11.5067 6.0135 10.62 5.72683 9.66671H8.2735C7.98683 10.62 7.5535 11.5067 7.00016 12.3067ZM8.56016 8.33337H5.44016C5.38016 7.89337 5.3335 7.45337 5.3335 7.00004C5.3335 6.54671 5.38016 6.10004 5.44016 5.66671H8.56016C8.62016 6.10004 8.66683 6.54671 8.66683 7.00004C8.66683 7.45337 8.62016 7.89337 8.56016 8.33337ZM8.72683 12.04C9.12683 11.3 9.4335 10.5 9.64683 9.66671H11.6135C10.9735 10.7667 9.9535 11.62 8.72683 12.04ZM9.90683 8.33337C9.96016 7.89337 10.0002 7.45337 10.0002 7.00004C10.0002 6.54671 9.96016 6.10671 9.90683 5.66671H12.1602C12.2668 6.09337 12.3335 6.54004 12.3335 7.00004C12.3335 7.46004 12.2668 7.90671 12.1602 8.33337H9.90683Z" fill="current"/>
</svg>
