<svg width="21" height="22" viewBox="0 0 21 22" fill="none" xmlns="http://www.w3.org/2000/svg">
<mask id="path-1-outside-1_451_41" maskUnits="userSpaceOnUse" x="0" y="-0.00561523" width="21" height="22" fill="black">
<rect fill="currentColor" y="-0.00561523" width="21" height="22"/>
<path d="M2.50781 1.05688C1.81641 1.22485 1.24219 1.79517 1.05469 2.49829C1.01562 2.64282 1 3.03345 1 3.97095C1 5.20142 1.00391 5.2561 1.07812 5.33032C1.17578 5.42798 1.35547 5.43188 1.47266 5.33423L1.56641 5.26001L1.58594 3.93579C1.60547 2.6897 1.60938 2.60376 1.6875 2.4397C2.04297 1.69751 2.84375 1.38892 3.57031 1.71704C3.85156 1.84204 4.16406 2.15063 4.29297 2.42798L4.37891 2.61548L4.39062 10.092L4.39844 17.5647L4.25391 17.4397C4.04297 17.2522 3.60156 17.0569 3.27734 17.01C2.71094 16.9241 2.09375 17.1038 1.69531 17.4709L1.58594 17.5725V12.0022C1.58594 8.03735 1.57422 6.40063 1.54297 6.31079C1.46875 6.09985 1.23438 6.04126 1.08594 6.20142L1 6.29126V12.7952C1 18.0881 1.01172 19.3303 1.05469 19.4905C1.24219 20.2014 1.82031 20.7678 2.52734 20.9358C2.74219 20.9866 3.49609 20.9944 8.14062 20.9944H13.5039L13.5977 20.8967C13.7148 20.7834 13.7227 20.6467 13.6211 20.5217C13.5469 20.4319 13.5273 20.428 12.8008 20.4084L12.0547 20.3889L15.582 16.8616L19.1133 13.3303L19.3164 13.6897C19.6367 14.2522 19.6797 14.3928 19.7031 14.8811C19.7266 15.4749 19.6797 15.6584 19.3203 16.3616C19.1523 16.6897 19 17.0295 18.9883 17.1116C18.9648 17.2483 18.793 17.4319 17.3906 18.8342L15.8242 20.4084H15.1953C14.6211 20.4084 14.5625 20.4163 14.4844 20.4866C14.3672 20.5959 14.3672 20.8069 14.4844 20.9163C14.5664 20.9944 14.6055 20.9944 17.1484 20.9944C19.5781 20.9944 19.7383 20.9866 19.8906 20.9202C20.3711 20.7014 20.3984 20.1584 19.9727 19.3538C19.8633 19.1506 19.7344 18.9045 19.6836 18.8069C19.543 18.5295 19.4648 18.0999 19.4922 17.7209C19.5234 17.3108 19.6211 17.0139 19.8867 16.5413C20.1953 15.9866 20.2656 15.7522 20.2852 15.1663C20.3125 14.4709 20.25 14.217 19.8789 13.5022C19.5703 12.9045 19.4766 12.6038 19.4766 12.1858C19.4766 11.7678 19.5703 11.4592 19.8672 10.8967C20.207 10.2522 20.2969 9.93188 20.2969 9.35767C20.2969 8.79126 20.2266 8.53345 19.8867 7.83032C19.4844 6.99829 19.4102 6.61548 19.5352 6.01392C19.5938 5.73657 19.6133 5.6936 19.9727 5.01782C20.3984 4.21313 20.3711 3.67017 19.8906 3.45142C19.7422 3.38501 19.6016 3.3772 18.1055 3.3772C16.5273 3.3772 16.4805 3.3811 16.3984 3.45532C16.2852 3.56079 16.2812 3.78345 16.3906 3.8772C16.4609 3.93579 16.5938 3.94751 17.4062 3.96313L18.3438 3.98267L11.6641 10.6624L4.98438 17.342V15.428V13.5139L9.76172 8.73657L14.5352 3.96313H14.9688C15.4609 3.96313 15.5508 3.92407 15.5938 3.70142C15.6133 3.59985 15.5977 3.55688 15.5195 3.47876L15.418 3.3772H10.1992H4.98438V3.05298C4.98438 2.46313 4.78906 1.97876 4.39453 1.58423C3.90234 1.08813 3.19141 0.892822 2.50781 1.05688ZM9.04688 3.97485C9.04688 3.97876 8.13281 4.89673 7.01562 6.01392L4.98438 8.04517V6.0022V3.96313H7.01562C8.13281 3.96313 9.04688 3.96704 9.04688 3.97485ZM9.35938 8.3186L5.00391 12.6741L4.99219 10.7913L4.98438 8.90454L7.45312 6.43579L9.92578 3.96313H11.8203H13.7148L9.35938 8.3186ZM19.6836 4.01782C19.7266 4.12329 19.6016 4.45532 19.3164 5.01782C19.1562 5.33032 19 5.68188 18.9766 5.79907C18.8477 6.36548 18.8828 7.01001 19.0742 7.52563L19.1758 7.79907L12.8711 14.1038L6.56641 20.4084H5.49609H4.42969L4.49219 20.3225C4.90234 19.7639 4.95312 19.5999 4.98047 18.7952L5.00391 18.1428L12.0938 11.053L19.1836 3.96313H19.4219C19.5938 3.96313 19.668 3.97876 19.6836 4.01782ZM19.5977 8.56079C19.6641 8.73267 19.6875 8.89282 19.7031 9.22095C19.7227 9.76782 19.6758 10.0022 19.4531 10.4124C18.9688 11.3225 18.9219 11.4827 18.9141 12.1975L18.9062 12.717L15.0625 16.5608L11.2148 20.4084H9.30078H7.38672L13.4219 14.3733C16.7422 11.053 19.4688 8.33813 19.4844 8.33813C19.5 8.33813 19.5508 8.4397 19.5977 8.56079ZM3.51172 17.6741C3.79688 17.7834 4.07812 18.0374 4.24609 18.3459C4.37109 18.5803 4.37891 18.6116 4.37891 18.9827C4.37891 19.4553 4.30859 19.635 4.00781 19.9553C3.39062 20.6077 2.35547 20.5334 1.83203 19.7952C1.63672 19.5217 1.57422 19.2834 1.59375 18.9084C1.61328 18.5295 1.70703 18.2991 1.94141 18.0452C2.35547 17.5959 2.93359 17.4592 3.51172 17.6741ZM19.0273 18.7444C19.0625 18.8538 19.207 19.1584 19.3477 19.4241C19.5977 19.9006 19.7266 20.2483 19.6836 20.3538C19.668 20.4006 19.418 20.4084 18.1719 20.4084H16.6836L17.7969 19.2952L18.9102 18.1819L18.9375 18.3655C18.9531 18.4631 18.9922 18.635 19.0273 18.7444Z"/>
</mask>
<path d="M2.50781 1.05688C1.81641 1.22485 1.24219 1.79517 1.05469 2.49829C1.01562 2.64282 1 3.03345 1 3.97095C1 5.20142 1.00391 5.2561 1.07812 5.33032C1.17578 5.42798 1.35547 5.43188 1.47266 5.33423L1.56641 5.26001L1.58594 3.93579C1.60547 2.6897 1.60938 2.60376 1.6875 2.4397C2.04297 1.69751 2.84375 1.38892 3.57031 1.71704C3.85156 1.84204 4.16406 2.15063 4.29297 2.42798L4.37891 2.61548L4.39062 10.092L4.39844 17.5647L4.25391 17.4397C4.04297 17.2522 3.60156 17.0569 3.27734 17.01C2.71094 16.9241 2.09375 17.1038 1.69531 17.4709L1.58594 17.5725V12.0022C1.58594 8.03735 1.57422 6.40063 1.54297 6.31079C1.46875 6.09985 1.23438 6.04126 1.08594 6.20142L1 6.29126V12.7952C1 18.0881 1.01172 19.3303 1.05469 19.4905C1.24219 20.2014 1.82031 20.7678 2.52734 20.9358C2.74219 20.9866 3.49609 20.9944 8.14062 20.9944H13.5039L13.5977 20.8967C13.7148 20.7834 13.7227 20.6467 13.6211 20.5217C13.5469 20.4319 13.5273 20.428 12.8008 20.4084L12.0547 20.3889L15.582 16.8616L19.1133 13.3303L19.3164 13.6897C19.6367 14.2522 19.6797 14.3928 19.7031 14.8811C19.7266 15.4749 19.6797 15.6584 19.3203 16.3616C19.1523 16.6897 19 17.0295 18.9883 17.1116C18.9648 17.2483 18.793 17.4319 17.3906 18.8342L15.8242 20.4084H15.1953C14.6211 20.4084 14.5625 20.4163 14.4844 20.4866C14.3672 20.5959 14.3672 20.8069 14.4844 20.9163C14.5664 20.9944 14.6055 20.9944 17.1484 20.9944C19.5781 20.9944 19.7383 20.9866 19.8906 20.9202C20.3711 20.7014 20.3984 20.1584 19.9727 19.3538C19.8633 19.1506 19.7344 18.9045 19.6836 18.8069C19.543 18.5295 19.4648 18.0999 19.4922 17.7209C19.5234 17.3108 19.6211 17.0139 19.8867 16.5413C20.1953 15.9866 20.2656 15.7522 20.2852 15.1663C20.3125 14.4709 20.25 14.217 19.8789 13.5022C19.5703 12.9045 19.4766 12.6038 19.4766 12.1858C19.4766 11.7678 19.5703 11.4592 19.8672 10.8967C20.207 10.2522 20.2969 9.93188 20.2969 9.35767C20.2969 8.79126 20.2266 8.53345 19.8867 7.83032C19.4844 6.99829 19.4102 6.61548 19.5352 6.01392C19.5938 5.73657 19.6133 5.6936 19.9727 5.01782C20.3984 4.21313 20.3711 3.67017 19.8906 3.45142C19.7422 3.38501 19.6016 3.3772 18.1055 3.3772C16.5273 3.3772 16.4805 3.3811 16.3984 3.45532C16.2852 3.56079 16.2812 3.78345 16.3906 3.8772C16.4609 3.93579 16.5938 3.94751 17.4062 3.96313L18.3438 3.98267L11.6641 10.6624L4.98438 17.342V15.428V13.5139L9.76172 8.73657L14.5352 3.96313H14.9688C15.4609 3.96313 15.5508 3.92407 15.5938 3.70142C15.6133 3.59985 15.5977 3.55688 15.5195 3.47876L15.418 3.3772H10.1992H4.98438V3.05298C4.98438 2.46313 4.78906 1.97876 4.39453 1.58423C3.90234 1.08813 3.19141 0.892822 2.50781 1.05688ZM9.04688 3.97485C9.04688 3.97876 8.13281 4.89673 7.01562 6.01392L4.98438 8.04517V6.0022V3.96313H7.01562C8.13281 3.96313 9.04688 3.96704 9.04688 3.97485ZM9.35938 8.3186L5.00391 12.6741L4.99219 10.7913L4.98438 8.90454L7.45312 6.43579L9.92578 3.96313H11.8203H13.7148L9.35938 8.3186ZM19.6836 4.01782C19.7266 4.12329 19.6016 4.45532 19.3164 5.01782C19.1562 5.33032 19 5.68188 18.9766 5.79907C18.8477 6.36548 18.8828 7.01001 19.0742 7.52563L19.1758 7.79907L12.8711 14.1038L6.56641 20.4084H5.49609H4.42969L4.49219 20.3225C4.90234 19.7639 4.95312 19.5999 4.98047 18.7952L5.00391 18.1428L12.0938 11.053L19.1836 3.96313H19.4219C19.5938 3.96313 19.668 3.97876 19.6836 4.01782ZM19.5977 8.56079C19.6641 8.73267 19.6875 8.89282 19.7031 9.22095C19.7227 9.76782 19.6758 10.0022 19.4531 10.4124C18.9688 11.3225 18.9219 11.4827 18.9141 12.1975L18.9062 12.717L15.0625 16.5608L11.2148 20.4084H9.30078H7.38672L13.4219 14.3733C16.7422 11.053 19.4688 8.33813 19.4844 8.33813C19.5 8.33813 19.5508 8.4397 19.5977 8.56079ZM3.51172 17.6741C3.79688 17.7834 4.07812 18.0374 4.24609 18.3459C4.37109 18.5803 4.37891 18.6116 4.37891 18.9827C4.37891 19.4553 4.30859 19.635 4.00781 19.9553C3.39062 20.6077 2.35547 20.5334 1.83203 19.7952C1.63672 19.5217 1.57422 19.2834 1.59375 18.9084C1.61328 18.5295 1.70703 18.2991 1.94141 18.0452C2.35547 17.5959 2.93359 17.4592 3.51172 17.6741ZM19.0273 18.7444C19.0625 18.8538 19.207 19.1584 19.3477 19.4241C19.5977 19.9006 19.7266 20.2483 19.6836 20.3538C19.668 20.4006 19.418 20.4084 18.1719 20.4084H16.6836L17.7969 19.2952L18.9102 18.1819L18.9375 18.3655C18.9531 18.4631 18.9922 18.635 19.0273 18.7444Z" fill="currentColor"/>
<path d="M2.50781 1.05688C1.81641 1.22485 1.24219 1.79517 1.05469 2.49829C1.01562 2.64282 1 3.03345 1 3.97095C1 5.20142 1.00391 5.2561 1.07812 5.33032C1.17578 5.42798 1.35547 5.43188 1.47266 5.33423L1.56641 5.26001L1.58594 3.93579C1.60547 2.6897 1.60938 2.60376 1.6875 2.4397C2.04297 1.69751 2.84375 1.38892 3.57031 1.71704C3.85156 1.84204 4.16406 2.15063 4.29297 2.42798L4.37891 2.61548L4.39062 10.092L4.39844 17.5647L4.25391 17.4397C4.04297 17.2522 3.60156 17.0569 3.27734 17.01C2.71094 16.9241 2.09375 17.1038 1.69531 17.4709L1.58594 17.5725V12.0022C1.58594 8.03735 1.57422 6.40063 1.54297 6.31079C1.46875 6.09985 1.23438 6.04126 1.08594 6.20142L1 6.29126V12.7952C1 18.0881 1.01172 19.3303 1.05469 19.4905C1.24219 20.2014 1.82031 20.7678 2.52734 20.9358C2.74219 20.9866 3.49609 20.9944 8.14062 20.9944H13.5039L13.5977 20.8967C13.7148 20.7834 13.7227 20.6467 13.6211 20.5217C13.5469 20.4319 13.5273 20.428 12.8008 20.4084L12.0547 20.3889L15.582 16.8616L19.1133 13.3303L19.3164 13.6897C19.6367 14.2522 19.6797 14.3928 19.7031 14.8811C19.7266 15.4749 19.6797 15.6584 19.3203 16.3616C19.1523 16.6897 19 17.0295 18.9883 17.1116C18.9648 17.2483 18.793 17.4319 17.3906 18.8342L15.8242 20.4084H15.1953C14.6211 20.4084 14.5625 20.4163 14.4844 20.4866C14.3672 20.5959 14.3672 20.8069 14.4844 20.9163C14.5664 20.9944 14.6055 20.9944 17.1484 20.9944C19.5781 20.9944 19.7383 20.9866 19.8906 20.9202C20.3711 20.7014 20.3984 20.1584 19.9727 19.3538C19.8633 19.1506 19.7344 18.9045 19.6836 18.8069C19.543 18.5295 19.4648 18.0999 19.4922 17.7209C19.5234 17.3108 19.6211 17.0139 19.8867 16.5413C20.1953 15.9866 20.2656 15.7522 20.2852 15.1663C20.3125 14.4709 20.25 14.217 19.8789 13.5022C19.5703 12.9045 19.4766 12.6038 19.4766 12.1858C19.4766 11.7678 19.5703 11.4592 19.8672 10.8967C20.207 10.2522 20.2969 9.93188 20.2969 9.35767C20.2969 8.79126 20.2266 8.53345 19.8867 7.83032C19.4844 6.99829 19.4102 6.61548 19.5352 6.01392C19.5938 5.73657 19.6133 5.6936 19.9727 5.01782C20.3984 4.21313 20.3711 3.67017 19.8906 3.45142C19.7422 3.38501 19.6016 3.3772 18.1055 3.3772C16.5273 3.3772 16.4805 3.3811 16.3984 3.45532C16.2852 3.56079 16.2812 3.78345 16.3906 3.8772C16.4609 3.93579 16.5938 3.94751 17.4062 3.96313L18.3438 3.98267L11.6641 10.6624L4.98438 17.342V15.428V13.5139L9.76172 8.73657L14.5352 3.96313H14.9688C15.4609 3.96313 15.5508 3.92407 15.5938 3.70142C15.6133 3.59985 15.5977 3.55688 15.5195 3.47876L15.418 3.3772H10.1992H4.98438V3.05298C4.98438 2.46313 4.78906 1.97876 4.39453 1.58423C3.90234 1.08813 3.19141 0.892822 2.50781 1.05688ZM9.04688 3.97485C9.04688 3.97876 8.13281 4.89673 7.01562 6.01392L4.98438 8.04517V6.0022V3.96313H7.01562C8.13281 3.96313 9.04688 3.96704 9.04688 3.97485ZM9.35938 8.3186L5.00391 12.6741L4.99219 10.7913L4.98438 8.90454L7.45312 6.43579L9.92578 3.96313H11.8203H13.7148L9.35938 8.3186ZM19.6836 4.01782C19.7266 4.12329 19.6016 4.45532 19.3164 5.01782C19.1562 5.33032 19 5.68188 18.9766 5.79907C18.8477 6.36548 18.8828 7.01001 19.0742 7.52563L19.1758 7.79907L12.8711 14.1038L6.56641 20.4084H5.49609H4.42969L4.49219 20.3225C4.90234 19.7639 4.95312 19.5999 4.98047 18.7952L5.00391 18.1428L12.0938 11.053L19.1836 3.96313H19.4219C19.5938 3.96313 19.668 3.97876 19.6836 4.01782ZM19.5977 8.56079C19.6641 8.73267 19.6875 8.89282 19.7031 9.22095C19.7227 9.76782 19.6758 10.0022 19.4531 10.4124C18.9688 11.3225 18.9219 11.4827 18.9141 12.1975L18.9062 12.717L15.0625 16.5608L11.2148 20.4084H9.30078H7.38672L13.4219 14.3733C16.7422 11.053 19.4688 8.33813 19.4844 8.33813C19.5 8.33813 19.5508 8.4397 19.5977 8.56079ZM3.51172 17.6741C3.79688 17.7834 4.07812 18.0374 4.24609 18.3459C4.37109 18.5803 4.37891 18.6116 4.37891 18.9827C4.37891 19.4553 4.30859 19.635 4.00781 19.9553C3.39062 20.6077 2.35547 20.5334 1.83203 19.7952C1.63672 19.5217 1.57422 19.2834 1.59375 18.9084C1.61328 18.5295 1.70703 18.2991 1.94141 18.0452C2.35547 17.5959 2.93359 17.4592 3.51172 17.6741ZM19.0273 18.7444C19.0625 18.8538 19.207 19.1584 19.3477 19.4241C19.5977 19.9006 19.7266 20.2483 19.6836 20.3538C19.668 20.4006 19.418 20.4084 18.1719 20.4084H16.6836L17.7969 19.2952L18.9102 18.1819L18.9375 18.3655C18.9531 18.4631 18.9922 18.635 19.0273 18.7444Z" stroke="currentColor" mask="url(#path-1-outside-1_451_41)"/>
</svg>