<svg width="22" height="20" viewBox="0 0 22 20" fill="none" xmlns="http://www.w3.org/2000/svg">
<path d="M9.19456 0.0651737C6.21071 0.320568 3.73765 1.13357 2.00097 2.43182C1.06878 3.12564 0.451579 3.91736 0.14085 4.8155L0.000382931 5.21562V9.96169C0.000382931 15.3164 -0.0251564 14.9078 0.340908 15.6442C1.32843 17.6278 4.20587 19.2197 7.81118 19.7688C9.17754 19.9774 9.10943 19.9731 14.0002 19.9944C16.5499 20.0029 18.6824 20.0029 18.7378 19.9859C18.7974 19.9731 18.891 19.9093 18.9464 19.8497C19.0272 19.7603 19.0485 19.6964 19.0485 19.5006C19.0485 19.1644 18.9038 18.8792 18.6101 18.6238L18.3717 18.4195L18.7974 18.1811C20.2829 17.3468 21.2704 16.2699 21.6578 15.0483L21.7514 14.7503V9.98297V5.21562L21.611 4.8155C20.9597 2.94687 18.8782 1.4443 15.7922 0.61427C13.847 0.0907129 11.3441 -0.117859 9.19456 0.0651737ZM11.8975 0.980335C16.3243 1.23573 19.9424 2.94261 20.7128 5.15177C20.7937 5.37737 20.8107 5.51783 20.8107 5.91795C20.8107 6.31807 20.7937 6.45853 20.7128 6.68413C20.168 8.25055 18.1717 9.59562 15.3027 10.3405C12.5445 11.0599 9.20733 11.0599 6.44908 10.3405C3.58015 9.59562 1.58382 8.25055 1.03898 6.68413C0.95811 6.45853 0.941084 6.31807 0.941084 5.91795C0.941084 5.51783 0.95811 5.37737 1.03898 5.15177C1.72855 3.18098 4.7124 1.58051 8.6029 1.08675C9.68407 0.950539 10.7652 0.916487 11.8975 0.980335ZM2.00097 9.40408C3.75893 10.7194 6.21497 11.5196 9.25841 11.7707C9.8373 11.8175 10.8546 11.8346 13.8044 11.8346H17.6098L17.4778 12.0006C17.2224 12.3198 17.1543 12.7327 17.282 13.1158C17.3501 13.3201 17.5757 13.5798 17.912 13.8479C18.0227 13.9373 18.1121 14.0437 18.1121 14.0863C18.1121 14.1331 17.9759 14.2778 17.7928 14.4268C17.3884 14.7631 17.2565 14.9802 17.231 15.359C17.2012 15.823 17.3544 16.1082 17.8652 16.5296C18.0014 16.6402 18.1121 16.7679 18.1121 16.8105C18.1121 16.8573 17.9801 16.9978 17.7928 17.151C17.3927 17.483 17.2565 17.7044 17.2267 18.0704C17.2012 18.3939 17.282 18.6536 17.4863 18.9132L17.614 19.0792L13.6171 19.058C9.31375 19.0367 9.23287 19.0367 7.78564 18.7941C4.12499 18.1811 1.42633 16.5296 0.979393 14.6269C0.928314 14.4141 0.915544 13.8352 0.915544 11.3919V8.4123L1.26884 8.76559C1.46038 8.96139 1.7924 9.24658 2.00097 9.40408ZM20.7724 14.6354C20.6107 15.3335 20.1254 16.0273 19.3805 16.6275C19.223 16.7552 19.0868 16.8573 19.074 16.8573C19.057 16.8573 19.0485 16.7977 19.0485 16.7254C19.0485 16.3721 18.8825 16.1252 18.3164 15.6314C18.227 15.5548 18.1546 15.4739 18.1546 15.4484C18.1546 15.3973 18.2525 15.2994 18.5973 15.01C18.9421 14.7205 19.0613 14.4524 19.04 14.0352C19.023 13.6308 18.9251 13.4521 18.5335 13.1158C18.3589 12.9626 18.2015 12.8136 18.1844 12.7838C18.1333 12.7029 18.1887 12.6348 18.5164 12.3581C18.891 12.0474 19.0485 11.7622 19.0485 11.4132C19.0485 11.162 18.9804 11.0343 18.8059 10.945C18.7463 10.9152 18.3887 10.8981 17.8056 10.8981L16.8989 10.8939L17.3714 10.7108C18.6229 10.2171 19.7296 9.52752 20.4745 8.7741L20.815 8.43358L20.8278 11.3919C20.8363 13.9373 20.8278 14.3928 20.7724 14.6354Z" fill="currentColor"/>
<path d="M9.96501 3.66624C8.8881 3.76414 7.81118 4.10466 7.15993 4.5516C6.89177 4.73464 6.54273 5.12624 6.43631 5.35184C6.30436 5.64128 6.30436 6.19464 6.43631 6.48408C6.54273 6.70968 6.89177 7.10129 7.15993 7.28432C8.54757 8.24205 11.3484 8.49318 13.4001 7.85044C13.7831 7.727 14.3152 7.47586 14.5919 7.28432C14.8601 7.10129 15.2091 6.70968 15.3155 6.48408C15.4475 6.19464 15.4475 5.64128 15.3155 5.35184C15.2091 5.12624 14.8601 4.73464 14.5919 4.5516C13.5703 3.84501 11.7911 3.50875 9.96501 3.66624ZM11.8847 4.64099C13.1489 4.81125 14.179 5.25819 14.4344 5.76047C14.5195 5.92222 14.4855 6.04991 14.2939 6.26274C13.9917 6.59901 13.3149 6.914 12.536 7.08C11.5357 7.29709 10.2247 7.29709 9.23713 7.08426C8.0836 6.83738 7.1727 6.26274 7.27486 5.84986C7.37276 5.46677 8.14745 5.01131 9.08815 4.78146C9.80751 4.6112 11.1313 4.54309 11.8847 4.64099Z" fill="currentColor"/>
</svg>
