<svg width="34" height="36" viewBox="0 0 34 36" fill="none" xmlns="http://www.w3.org/2000/svg">
<path fill-rule="evenodd" clip-rule="evenodd" d="M9.77923 25.1538C13.2545 24.6574 16.4741 27.0723 16.9705 30.5475C17.0387 31.0245 17.0523 31.5072 17.0114 31.9865L16.9705 32.3451C13.4953 32.8415 10.2756 30.4267 9.77923 26.9515C9.7111 26.4745 9.69748 25.9918 9.73835 25.5125L9.77923 25.1538ZM9.7791 17.9626C13.2543 17.4662 16.474 19.8811 16.9704 23.3563C17.0385 23.8333 17.0522 24.316 17.0113 24.7953L16.9704 25.154C13.4952 25.6504 10.2755 23.2355 9.7791 19.7603C9.71097 19.2833 9.69734 18.8006 9.73822 18.3213L9.7791 17.9626ZM9.77896 10.7715C13.2542 10.2751 16.4739 12.6899 16.9703 16.1651C17.0384 16.6421 17.052 17.1248 17.0112 17.6041L16.9703 17.9628C13.495 18.4592 10.2754 16.0443 9.77897 12.5691C9.71084 12.0922 9.69721 11.6094 9.73809 11.1301L9.77896 10.7715ZM24.1613 10.7717C24.6578 14.2467 22.2433 17.4663 18.7682 17.9628C18.2912 18.0309 17.8084 18.0446 17.329 18.0037L16.9703 17.9628C16.4738 14.4877 18.8884 11.2682 22.3634 10.7717C22.8404 10.7036 23.3233 10.6899 23.8026 10.7308L24.1613 10.7717ZM24.1615 17.9629C24.658 21.4379 22.2434 24.6575 18.7684 25.154C18.2913 25.2221 17.8085 25.2357 17.3291 25.1949L16.9704 25.154C16.4739 21.6789 18.8885 18.4594 22.3635 17.9629C22.8405 17.8947 23.3234 17.8811 23.8027 17.922L24.1615 17.9629ZM24.1616 25.1541C24.6581 28.6291 22.2435 31.8487 18.7685 32.3451C18.2915 32.4133 17.8086 32.4269 17.3293 32.386L16.9705 32.3451C16.474 28.8701 18.8886 25.6506 22.3636 25.1541C22.8407 25.0859 23.3235 25.0723 23.8029 25.1132L24.1616 25.1541ZM16.97 2.09106C19.7785 4.19746 20.3476 8.18145 18.2414 10.9897C17.9523 11.3752 17.6205 11.7262 17.2527 12.0362L16.97 12.2608C14.1617 10.1545 13.5926 6.17054 15.6988 3.36226C16.0601 2.88044 16.4882 2.45243 16.97 2.09106Z" stroke="white" stroke-width="1.9" stroke-linecap="round"/>
</svg>
