<svg width="16" height="32" viewBox="0 0 16 32" fill="none" xmlns="http://www.w3.org/2000/svg">
<path fill-rule="evenodd" clip-rule="evenodd" d="M0.779227 24.1538C4.25447 23.6574 7.47413 26.0723 7.97054 29.5475C8.03867 30.0245 8.0523 30.5072 8.01142 30.9865L7.97054 31.3451C4.4953 31.8415 1.27564 29.4267 0.77923 25.9515C0.711102 25.4745 0.697475 24.9918 0.738351 24.5125L0.779227 24.1538ZM0.779096 16.9626C4.25434 16.4662 7.474 18.8811 7.97041 22.3563C8.03854 22.8333 8.05216 23.316 8.01129 23.7953L7.97041 24.154C4.49517 24.6504 1.27551 22.2355 0.779098 18.7603C0.71097 18.2833 0.697343 17.8006 0.738219 17.3213L0.779096 16.9626ZM0.778964 9.77146C4.25421 9.27506 7.47387 11.6899 7.97028 15.1651C8.03841 15.6421 8.05203 16.1248 8.01116 16.6041L7.97028 16.9628C4.49504 17.4592 1.27538 15.0443 0.778966 11.5691C0.710838 11.0922 0.697212 10.6094 0.738088 10.1301L0.778964 9.77146ZM15.1613 9.77172C15.6578 13.2467 13.2433 16.4663 9.76823 16.9628C9.2912 17.0309 8.80835 17.0446 8.329 17.0037L7.97028 16.9628C7.47379 13.4877 9.88836 10.2682 13.3634 9.77172C13.8404 9.70356 14.3233 9.68993 14.8026 9.73083L15.1613 9.77172ZM15.1615 16.9629C15.658 20.4379 13.2434 23.6575 9.76836 24.154C9.29133 24.2221 8.80849 24.2357 8.32913 24.1949L7.97041 24.154C7.47392 20.6789 9.88849 17.4594 13.3635 16.9629C13.8405 16.8947 14.3234 16.8811 14.8027 16.922L15.1615 16.9629ZM15.1616 24.1541C15.6581 27.6291 13.2435 30.8487 9.76849 31.3451C9.29146 31.4133 8.80862 31.4269 8.32926 31.386L7.97054 31.3451C7.47405 27.8701 9.88862 24.6506 13.3636 24.1541C13.8407 24.0859 14.3235 24.0723 14.8029 24.1132L15.1616 24.1541ZM7.96999 1.09106C10.7785 3.19746 11.3476 7.18145 9.24139 9.98973C8.9523 10.3752 8.62055 10.7262 8.25271 11.0362L7.96996 11.2608C5.16168 9.15453 4.59255 5.17054 6.69878 2.36226C7.06015 1.88044 7.48816 1.45243 7.96999 1.09106Z" stroke="white" stroke-width="1.17118" stroke-linecap="round"/>
</svg>
