<svg width="50" height="50" viewBox="0 0 50 50" fill="none" xmlns="http://www.w3.org/2000/svg">
<rect width="50" height="50" rx="25" fill="#708B96"/>
<path fill-rule="evenodd" clip-rule="evenodd" d="M17.7792 31.1538C21.2545 30.6574 24.4741 33.0723 24.9705 36.5475C25.0387 37.0245 25.0523 37.5072 25.0114 37.9865L24.9705 38.3451C21.4953 38.8415 18.2756 36.4267 17.7792 32.9515C17.7111 32.4745 17.6975 31.9918 17.7384 31.5125L17.7792 31.1538ZM17.7791 23.9626C21.2543 23.4662 24.474 25.8811 24.9704 29.3563C25.0385 29.8333 25.0522 30.316 25.0113 30.7953L24.9704 31.154C21.4952 31.6504 18.2755 29.2355 17.7791 25.7603C17.711 25.2833 17.6973 24.8006 17.7382 24.3213L17.7791 23.9626ZM17.779 16.7715C21.2542 16.2751 24.4739 18.6899 24.9703 22.1651C25.0384 22.6421 25.052 23.1248 25.0112 23.6041L24.9703 23.9628C21.495 24.4592 18.2754 22.0443 17.779 18.5691C17.7108 18.0922 17.6972 17.6094 17.7381 17.1301L17.779 16.7715ZM32.1613 16.7717C32.6578 20.2467 30.2433 23.4663 26.7682 23.9628C26.2912 24.0309 25.8084 24.0446 25.329 24.0037L24.9703 23.9628C24.4738 20.4877 26.8884 17.2682 30.3634 16.7717C30.8404 16.7036 31.3233 16.6899 31.8026 16.7308L32.1613 16.7717ZM32.1615 23.9629C32.658 27.4379 30.2434 30.6575 26.7684 31.154C26.2913 31.2221 25.8085 31.2357 25.3291 31.1949L24.9704 31.154C24.4739 27.6789 26.8885 24.4594 30.3635 23.9629C30.8405 23.8947 31.3234 23.8811 31.8027 23.922L32.1615 23.9629ZM32.1616 31.1541C32.6581 34.6291 30.2435 37.8487 26.7685 38.3451C26.2915 38.4133 25.8086 38.4269 25.3293 38.386L24.9705 38.3451C24.474 34.8701 26.8886 31.6506 30.3636 31.1541C30.8407 31.0859 31.3235 31.0723 31.8029 31.1132L32.1616 31.1541ZM24.97 8.09106C27.7785 10.1975 28.3476 14.1815 26.2414 16.9897C25.9523 17.3752 25.6205 17.7262 25.2527 18.0362L24.97 18.2608C22.1617 16.1545 21.5926 12.1705 23.6988 9.36226C24.0601 8.88044 24.4882 8.45243 24.97 8.09106Z" stroke="white" stroke-width="1.17118" stroke-linecap="round"/>
</svg>
