<svg width="30" height="30" viewBox="0 0 30 30" fill="none" xmlns="http://www.w3.org/2000/svg">
<rect width="30" height="30" rx="15" fill="#708B96"/>
<path fill-rule="evenodd" clip-rule="evenodd" d="M10.6683 18.6923C12.7535 18.3945 14.6853 19.8434 14.9831 21.9285C15.024 22.2147 15.0322 22.5043 15.0076 22.7919L14.9831 23.0071C12.898 23.3049 10.9662 21.856 10.6683 19.7709C10.6274 19.4847 10.6193 19.1951 10.6438 18.9075L10.6683 18.6923ZM10.6682 14.3776C12.7534 14.0797 14.6852 15.5286 14.983 17.6138C15.0239 17.9 15.0321 18.1896 15.0076 18.4772L14.983 18.6924C12.8979 18.9902 10.9661 17.5413 10.6682 15.4562C10.6274 15.17 10.6192 14.8803 10.6437 14.5928L10.6682 14.3776ZM10.6682 10.0629C12.7533 9.76503 14.6851 11.2139 14.9829 13.2991C15.0238 13.5852 15.032 13.8749 15.0075 14.1625L14.9829 14.3777C12.8978 14.6755 10.966 13.2266 10.6682 11.1415C10.6273 10.8553 10.6191 10.5656 10.6436 10.2781L10.6682 10.0629ZM19.2976 10.063C19.5955 12.148 18.1467 14.0798 16.0617 14.3777C15.7755 14.4186 15.4858 14.4267 15.1982 14.4022L14.9829 14.3777C14.6851 12.2926 16.1338 10.3609 18.2188 10.063C18.505 10.0221 18.7947 10.014 19.0824 10.0385L19.2976 10.063ZM19.2977 14.3777C19.5956 16.4628 18.1468 18.3945 16.0618 18.6924C15.7756 18.7333 15.4859 18.7414 15.1983 18.7169L14.983 18.6924C14.6851 16.6074 16.1339 14.6756 18.2189 14.3777C18.5051 14.3368 18.7948 14.3287 19.0824 14.3532L19.2977 14.3777ZM19.2977 18.6925C19.5956 20.7775 18.1469 22.7092 16.0619 23.0071C15.7757 23.048 15.486 23.0562 15.1983 23.0316L14.9831 23.0071C14.6852 20.9221 16.134 18.9903 18.219 18.6925C18.5052 18.6516 18.7949 18.6434 19.0825 18.6679L19.2977 18.6925ZM14.9828 4.85464C16.6679 6.11848 17.0094 8.50887 15.7456 10.1938C15.5722 10.4251 15.3731 10.6357 15.1524 10.8217L14.9828 10.9565C13.2978 9.69272 12.9563 7.30232 14.22 5.61736C14.4369 5.32827 14.6937 5.07146 14.9828 4.85464Z" stroke="white" stroke-width="1.14" stroke-linecap="round"/>
</svg>
