<svg width="17" height="18" viewBox="0 0 17 18" fill="none" xmlns="http://www.w3.org/2000/svg">
<path fill-rule="evenodd" clip-rule="evenodd" d="M15.5388 6.54545C15.8658 6.54545 16.111 6.70909 16.2745 7.03636C16.438 7.28182 16.3563 7.60909 16.1928 7.85455L8.01833 17.6727C7.85484 17.9182 7.60961 18 7.36437 18C7.28263 18 7.11914 18 7.0374 17.9182C6.71042 17.8364 6.46518 17.4273 6.54693 17.1L7.28263 11.4545H0.824816C0.497838 11.4545 0.252604 11.2909 0.0891154 11.0455C-0.0743736 10.7182 0.00737089 10.3909 0.17086 10.1455L8.34531 0.327273C8.59054 0 8.99926 -0.0818182 9.32624 0.0818182C9.65322 0.163636 9.89845 0.572727 9.81671 0.9L9.08101 6.54545H15.5388ZM8.99924 10.7175L8.50877 14.4811L13.7404 8.18111H8.10005C7.93656 8.18111 7.69133 8.09929 7.52784 7.93566C7.4461 7.77202 7.36435 7.52657 7.36435 7.28111L7.77307 3.51748L2.54143 9.81747H8.1818C8.42703 9.81747 8.67226 9.89929 8.83575 10.0629C8.9175 10.2266 8.99924 10.472 8.99924 10.7175Z"/>
</svg>