<svg xmlns="http://www.w3.org/2000/svg" xmlns:xlink="http://www.w3.org/1999/xlink" viewBox="0 0 753.71 119.33"><defs><style>.cls-1{fill:url(#linear-gradient);}</style><linearGradient id="linear-gradient" y1="59.67" x2="753.71" y2="59.67" gradientUnits="userSpaceOnUse"><stop offset="0.35" stop-color="#0082ce"/><stop offset="0.48" stop-color="#0291cf"/><stop offset="0.72" stop-color="#06bad0"/><stop offset="1" stop-color="#0befd2"/></linearGradient></defs><g id="Layer_2" data-name="Layer 2"><g id="Layer_1-2" data-name="Layer 1"><path d="M66.93,61.65c0,19.93-12.68,33.13-31.42,33.13-10.43,0-18.75-3.83-23.76-10.56h-.27v28.11c0,3.83-2.11,6.21-5.8,6.21S0,116.16,0,112.33V35.64c0-4,2.11-6.34,5.68-6.34s5.8,2.38,5.8,6.34v3.43h.27c5-6.6,13.33-10.56,23.76-10.56C54.25,28.51,66.93,41.84,66.93,61.65Zm-11.75,0c0-13.34-8.85-22.44-21.78-22.44S11.48,48.45,11.48,61.65,20.59,84.09,33.4,84.09,55.18,75,55.18,61.65Z"/><path d="M92,6.2V87.78C92,91.61,89.89,94,86.19,94s-5.67-2.38-5.67-6.21V6.2c0-3.82,2.11-6.2,5.67-6.2S92,2.38,92,6.2Z"/><path d="M172.52,35.64V87.78c0,3.83-2.24,6.21-5.8,6.21S161,91.61,161,87.78V84.22h-.26c-5,6.73-13.34,10.56-23.9,10.56-18.74,0-31.28-13.2-31.28-33.13s12.54-33.14,31.28-33.14c10.56,0,18.88,4,23.9,10.56H161V35.64c0-4,2.11-6.34,5.68-6.34S172.52,31.68,172.52,35.64ZM161,61.65c0-13.2-9-22.44-22-22.44-12.81,0-21.65,9.1-21.65,22.44S126.19,84.09,139,84.09C152.06,84.09,161,74.85,161,61.65Z"/><path d="M248.29,35.64V88.05c0,19.53-12,31.28-31.68,31.28-11.75,0-21.39-3.3-26.67-10.16a6.52,6.52,0,0,1-1.18-3.7,5.62,5.62,0,0,1,9.9-3.56c4.35,4.35,9.9,6.73,17.69,6.73,12.8,0,20.46-7.66,20.46-20.07V83h-.27c-4.75,6.47-12.41,10.16-22.31,10.16-17.42,0-26.93-10.29-26.93-29.43V35.64c0-4,2.25-6.34,5.81-6.34s5.68,2.38,5.68,6.34V62.57c0,13.07,6.33,19.93,18.22,19.93,12.14,0,19.8-8.45,19.8-22.31V35.64c0-4,2.24-6.34,5.67-6.34C246.18,29.3,248.29,31.68,248.29,35.64Z"/><path d="M328.81,35.64V88.18c0,19.4-12.67,31.15-33.13,31.15-12.81,0-23.37-4-28.25-10.16a6.52,6.52,0,0,1-1.19-3.7,5.62,5.62,0,0,1,9.9-3.56c4.62,4.75,11.09,6.73,19.14,6.73,13.6,0,22-7.66,22-19.93V82.9h-.26c-5,6.6-13.46,10.29-24.16,10.29-18.61,0-31-12.93-31-32.34s12.41-32.34,31-32.34c10.56,0,19,3.7,24.16,10.3h.26V35.64c0-4,2.12-6.34,5.68-6.34S328.81,31.68,328.81,35.64ZM317.32,60.85c0-13.06-8.84-21.64-22.3-21.64-12.81,0-21.39,8.58-21.39,21.64S282.21,82.5,295,82.5C308.48,82.5,317.32,73.92,317.32,60.85Z"/><path d="M384.25,34.72c0,3.56-2.38,5.67-5.81,5.67-13.86,0-21.78,8.06-21.78,25.22V87.78c0,3.83-2.11,6.21-5.81,6.21s-5.68-2.38-5.68-6.21V35.64c0-4,2.12-6.34,5.68-6.34s5.81,2.38,5.81,6.34v4.62h.26c4.36-7.39,11.49-11.35,21.52-11.35C381.87,28.91,384.25,31,384.25,34.72Z"/><path d="M420.15,28.51c19.93,0,33.66,13.47,33.66,33.14s-13.73,33.13-33.66,33.13-33.53-13.47-33.53-33.13S400.22,28.51,420.15,28.51Zm0,55.58c13.07,0,21.91-9.11,21.91-22.44s-8.84-22.44-21.91-22.44-21.78,9.1-21.78,22.44S407.22,84.09,420.15,84.09Z"/><path d="M526.81,35.64V88.05A5.58,5.58,0,0,1,521,94c-3.3,0-5.68-2.38-5.68-5.94V84.61h-.26c-4.75,6.47-12.41,10.17-22.31,10.17-17.43,0-26.93-10.3-26.93-29.44V35.64c0-4,2.24-6.34,5.81-6.34s5.68,2.38,5.68,6.34V64.29c0,12.8,6.33,19.8,18.21,19.8,12.15,0,19.8-8.58,19.8-22.31V35.64c0-4,2.25-6.34,5.68-6.34C524.69,29.3,526.81,31.68,526.81,35.64Z"/><path d="M604.55,58V87.78c0,3.83-2.24,6.21-5.81,6.21s-5.67-2.38-5.67-6.21V59.14c0-13.07-6.34-19.93-18.48-19.93s-19.94,8.44-19.94,22.3V87.78c0,3.83-2.11,6.21-5.8,6.21s-5.68-2.38-5.68-6.21V35.51c0-3.83,2.11-6.21,5.68-6.21s5.8,2.38,5.8,6.21v3.17h.27c4.75-6.47,12.41-10.17,22.44-10.17C595.05,28.51,604.55,38.81,604.55,58Z"/><path d="M683.49,6.34V87.78c0,3.83-2.25,6.21-5.81,6.21S672,91.61,672,87.78V84.22h-.26c-5,6.73-13.33,10.56-23.89,10.56-18.75,0-31.29-13.2-31.29-33.13s12.54-33.14,31.29-33.14c10.56,0,18.87,4,23.89,10.56H672V6.34c0-4,2.12-6.34,5.68-6.34S683.49,2.38,683.49,6.34ZM672,61.65c0-13.2-9-22.44-22-22.44-12.81,0-21.65,9.1-21.65,22.44S637.15,84.09,650,84.09C663,84.09,672,74.85,672,61.65Z"/><path d="M725.33,55.71c21,.26,28.38,6.07,28.38,19.14,0,12.54-10.3,19.93-27.72,19.93-13.33,0-22-2.64-28.25-8.45A5.79,5.79,0,0,1,696,82.24a5.21,5.21,0,0,1,5.29-5.55,6.9,6.9,0,0,1,4.22,1.72c4.62,4,11.48,6.07,19.67,6.07,10.69,0,17-3.69,17-9.9,0-5.54-4.1-7.79-18-7.92-20.06-.13-27.45-5.54-27.45-17.95s10.69-20.2,27.58-20.2c10.83,0,18.35,2.25,24.43,7.26a5.8,5.8,0,0,1,2.11,4.49c0,3.57-2.25,5.81-5.41,5.81a5.21,5.21,0,0,1-3.44-1.19,26.38,26.38,0,0,0-16.89-5.94c-10.3,0-16.9,3.83-16.9,9.77C708.3,53.73,712.13,55.57,725.33,55.71Z"/><path class="cls-1" d="M66.93,61.65c0,19.93-12.68,33.13-31.42,33.13-10.43,0-18.75-3.83-23.76-10.56h-.27v28.11c0,3.83-2.11,6.21-5.8,6.21S0,116.16,0,112.33V35.64c0-4,2.11-6.34,5.68-6.34s5.8,2.38,5.8,6.34v3.43h.27c5-6.6,13.33-10.56,23.76-10.56C54.25,28.51,66.93,41.84,66.93,61.65Zm-11.75,0c0-13.34-8.85-22.44-21.78-22.44S11.48,48.45,11.48,61.65,20.59,84.09,33.4,84.09,55.18,75,55.18,61.65Z"/><path class="cls-1" d="M92,6.2V87.78C92,91.61,89.89,94,86.19,94s-5.67-2.38-5.67-6.21V6.2c0-3.82,2.11-6.2,5.67-6.2S92,2.38,92,6.2Z"/><path class="cls-1" d="M172.52,35.64V87.78c0,3.83-2.24,6.21-5.8,6.21S161,91.61,161,87.78V84.22h-.26c-5,6.73-13.34,10.56-23.9,10.56-18.74,0-31.28-13.2-31.28-33.13s12.54-33.14,31.28-33.14c10.56,0,18.88,4,23.9,10.56H161V35.64c0-4,2.11-6.34,5.68-6.34S172.52,31.68,172.52,35.64ZM161,61.65c0-13.2-9-22.44-22-22.44-12.81,0-21.65,9.1-21.65,22.44S126.19,84.09,139,84.09C152.06,84.09,161,74.85,161,61.65Z"/><path class="cls-1" d="M248.29,35.64V88.05c0,19.53-12,31.28-31.68,31.28-11.75,0-21.39-3.3-26.67-10.16a6.52,6.52,0,0,1-1.18-3.7,5.62,5.62,0,0,1,9.9-3.56c4.35,4.35,9.9,6.73,17.69,6.73,12.8,0,20.46-7.66,20.46-20.07V83h-.27c-4.75,6.47-12.41,10.16-22.31,10.16-17.42,0-26.93-10.29-26.93-29.43V35.64c0-4,2.25-6.34,5.81-6.34s5.68,2.38,5.68,6.34V62.57c0,13.07,6.33,19.93,18.22,19.93,12.14,0,19.8-8.45,19.8-22.31V35.64c0-4,2.24-6.34,5.67-6.34C246.18,29.3,248.29,31.68,248.29,35.64Z"/><path class="cls-1" d="M328.81,35.64V88.18c0,19.4-12.67,31.15-33.13,31.15-12.81,0-23.37-4-28.25-10.16a6.52,6.52,0,0,1-1.19-3.7,5.62,5.62,0,0,1,9.9-3.56c4.62,4.75,11.09,6.73,19.14,6.73,13.6,0,22-7.66,22-19.93V82.9h-.26c-5,6.6-13.46,10.29-24.16,10.29-18.61,0-31-12.93-31-32.34s12.41-32.34,31-32.34c10.56,0,19,3.7,24.16,10.3h.26V35.64c0-4,2.12-6.34,5.68-6.34S328.81,31.68,328.81,35.64ZM317.32,60.85c0-13.06-8.84-21.64-22.3-21.64-12.81,0-21.39,8.58-21.39,21.64S282.21,82.5,295,82.5C308.48,82.5,317.32,73.92,317.32,60.85Z"/><path class="cls-1" d="M384.25,34.72c0,3.56-2.38,5.67-5.81,5.67-13.86,0-21.78,8.06-21.78,25.22V87.78c0,3.83-2.11,6.21-5.81,6.21s-5.68-2.38-5.68-6.21V35.64c0-4,2.12-6.34,5.68-6.34s5.81,2.38,5.81,6.34v4.62h.26c4.36-7.39,11.49-11.35,21.52-11.35C381.87,28.91,384.25,31,384.25,34.72Z"/><path class="cls-1" d="M420.15,28.51c19.93,0,33.66,13.47,33.66,33.14s-13.73,33.13-33.66,33.13-33.53-13.47-33.53-33.13S400.22,28.51,420.15,28.51Zm0,55.58c13.07,0,21.91-9.11,21.91-22.44s-8.84-22.44-21.91-22.44-21.78,9.1-21.78,22.44S407.22,84.09,420.15,84.09Z"/><path class="cls-1" d="M526.81,35.64V88.05A5.58,5.58,0,0,1,521,94c-3.3,0-5.68-2.38-5.68-5.94V84.61h-.26c-4.75,6.47-12.41,10.17-22.31,10.17-17.43,0-26.93-10.3-26.93-29.44V35.64c0-4,2.24-6.34,5.81-6.34s5.68,2.38,5.68,6.34V64.29c0,12.8,6.33,19.8,18.21,19.8,12.15,0,19.8-8.58,19.8-22.31V35.64c0-4,2.25-6.34,5.68-6.34C524.69,29.3,526.81,31.68,526.81,35.64Z"/><path class="cls-1" d="M604.55,58V87.78c0,3.83-2.24,6.21-5.81,6.21s-5.67-2.38-5.67-6.21V59.14c0-13.07-6.34-19.93-18.48-19.93s-19.94,8.44-19.94,22.3V87.78c0,3.83-2.11,6.21-5.8,6.21s-5.68-2.38-5.68-6.21V35.51c0-3.83,2.11-6.21,5.68-6.21s5.8,2.38,5.8,6.21v3.17h.27c4.75-6.47,12.41-10.17,22.44-10.17C595.05,28.51,604.55,38.81,604.55,58Z"/><path class="cls-1" d="M683.49,6.34V87.78c0,3.83-2.25,6.21-5.81,6.21S672,91.61,672,87.78V84.22h-.26c-5,6.73-13.33,10.56-23.89,10.56-18.75,0-31.29-13.2-31.29-33.13s12.54-33.14,31.29-33.14c10.56,0,18.87,4,23.89,10.56H672V6.34c0-4,2.12-6.34,5.68-6.34S683.49,2.38,683.49,6.34ZM672,61.65c0-13.2-9-22.44-22-22.44-12.81,0-21.65,9.1-21.65,22.44S637.15,84.09,650,84.09C663,84.09,672,74.85,672,61.65Z"/><path class="cls-1" d="M725.33,55.71c21,.26,28.38,6.07,28.38,19.14,0,12.54-10.3,19.93-27.72,19.93-13.33,0-22-2.64-28.25-8.45A5.79,5.79,0,0,1,696,82.24a5.21,5.21,0,0,1,5.29-5.55,6.9,6.9,0,0,1,4.22,1.72c4.62,4,11.48,6.07,19.67,6.07,10.69,0,17-3.69,17-9.9,0-5.54-4.1-7.79-18-7.92-20.06-.13-27.45-5.54-27.45-17.95s10.69-20.2,27.58-20.2c10.83,0,18.35,2.25,24.43,7.26a5.8,5.8,0,0,1,2.11,4.49c0,3.57-2.25,5.81-5.41,5.81a5.21,5.21,0,0,1-3.44-1.19,26.38,26.38,0,0,0-16.89-5.94c-10.3,0-16.9,3.83-16.9,9.77C708.3,53.73,712.13,55.57,725.33,55.71Z"/></g></g></svg>