<svg width="224" height="160" viewBox="0 0 224 160" fill="none" xmlns="http://www.w3.org/2000/svg">
<rect width="224" height="160" rx="16" fill="white"/>
<g clip-path="url(#clip0_3189_56427)">
<path d="M50.3832 80.3273C50.3832 84.3124 47.8477 86.9519 44.1005 86.9519C42.0149 86.9519 40.3513 86.186 39.3495 84.8403H39.2955V90.4611C39.2955 91.227 38.8736 91.7029 38.1358 91.7029C37.3979 91.7029 37 91.227 37 90.4611V75.1264C37 74.3266 37.4219 73.8586 38.1358 73.8586C38.8496 73.8586 39.2955 74.3345 39.2955 75.1264V75.8122H39.3495C40.3493 74.4925 42.0149 73.7007 44.1005 73.7007C47.8477 73.7007 50.3832 76.3661 50.3832 80.3273ZM48.0337 80.3273C48.0337 77.6598 46.264 75.8402 43.6786 75.8402C41.0931 75.8402 39.2955 77.6878 39.2955 80.3273C39.2955 82.9667 41.1171 84.8143 43.6786 84.8143C46.24 84.8143 48.0337 82.9967 48.0337 80.3273Z" fill="black"/>
<path d="M55.3961 69.2397V85.5523C55.3961 86.3181 54.9742 86.796 54.2343 86.796C53.4945 86.796 53.1006 86.3201 53.1006 85.5543V69.2397C53.1006 68.4759 53.5225 68 54.2343 68C54.9462 68 55.3961 68.4759 55.3961 69.2397Z" fill="black"/>
<path d="M71.4966 75.1264V85.5522C71.4966 86.318 71.0487 86.7939 70.3368 86.7939C69.625 86.7939 69.1931 86.318 69.1931 85.5522V84.8403H69.1411C68.1413 86.186 66.4736 86.9519 64.3621 86.9519C60.6149 86.9519 58.1074 84.3124 58.1074 80.3273C58.1074 76.3421 60.6149 73.7007 64.3621 73.7007C66.4736 73.7007 68.1373 74.5005 69.1411 75.8122H69.1931V75.1264C69.1931 74.3266 69.615 73.8586 70.3288 73.8586C71.0427 73.8586 71.4966 74.3345 71.4966 75.1264ZM69.1931 80.3273C69.1931 77.6878 67.3935 75.8402 64.794 75.8402C62.2325 75.8402 60.4649 77.6598 60.4649 80.3273C60.4649 82.9947 62.2325 84.8143 64.794 84.8143C67.4054 84.8143 69.1931 82.9667 69.1931 80.3273Z" fill="black"/>
<path d="M86.6476 75.1266V85.6064C86.6476 89.5116 84.2481 91.8611 80.3129 91.8611C77.9634 91.8611 76.0358 91.2012 74.98 89.8295C74.8281 89.6126 74.7458 89.3545 74.7441 89.0897C74.7474 88.8611 74.8203 88.639 74.9532 88.453C75.086 88.2669 75.2724 88.1258 75.4875 88.0485C75.7026 87.9711 75.9361 87.9612 76.157 88.0201C76.3779 88.0789 76.5756 88.2037 76.7237 88.3778C77.5935 89.2476 78.7032 89.7235 80.2609 89.7235C82.8204 89.7235 84.352 88.1918 84.352 85.7104V84.5966H84.2981C83.3483 85.8903 81.8166 86.6282 79.837 86.6282C76.3537 86.6282 74.4521 84.5706 74.4521 80.7434V75.1266C74.4521 74.3268 74.9021 73.8589 75.6139 73.8589C76.3258 73.8589 76.7497 74.3348 76.7497 75.1266V80.5115C76.7497 83.1249 78.0154 84.4966 80.3929 84.4966C82.8204 84.4966 84.352 82.807 84.352 80.0356V75.1266C84.352 74.3268 84.8 73.8589 85.4858 73.8589C86.2256 73.8589 86.6476 74.3348 86.6476 75.1266Z" fill="black"/>
<path d="M102.748 75.1264V85.6322C102.748 89.5113 100.215 91.8608 96.1239 91.8608C93.5624 91.8608 91.4509 91.061 90.4751 89.8293C90.3224 89.6126 90.2394 89.3545 90.2371 89.0894C90.2405 88.8609 90.3134 88.6388 90.4462 88.4527C90.579 88.2667 90.7654 88.1256 90.9805 88.0483C91.1956 87.9709 91.4292 87.961 91.6501 88.0198C91.8709 88.0787 92.0686 88.2035 92.2167 88.3776C93.1405 89.3274 94.4343 89.7233 96.0439 89.7233C98.7633 89.7233 100.443 88.1916 100.443 85.7381V84.5764H100.391C99.3912 85.8961 97.6996 86.6339 95.56 86.6339C91.8388 86.6339 89.3613 84.0485 89.3613 80.1673C89.3613 76.2861 91.8428 73.7007 95.56 73.7007C97.6716 73.7007 99.3592 74.4405 100.391 75.7602H100.443V75.1264C100.443 74.3266 100.867 73.8586 101.579 73.8586C102.291 73.8586 102.748 74.3345 102.748 75.1264ZM100.451 80.1673C100.451 77.5559 98.6834 75.8402 95.9919 75.8402C93.4305 75.8402 91.7148 77.5559 91.7148 80.1673C91.7148 82.7788 93.4305 84.4964 95.9879 84.4964C98.6834 84.4964 100.451 82.7808 100.451 80.1673Z" fill="black"/>
<path d="M113.834 74.9425C113.834 75.6544 113.358 76.0763 112.672 76.0763C109.901 76.0763 108.317 77.6879 108.317 81.1192V85.5523C108.317 86.3181 107.895 86.794 107.155 86.794C106.415 86.794 106.02 86.3181 106.02 85.5523V75.1265C106.02 74.3266 106.443 73.8587 107.155 73.8587C107.867 73.8587 108.317 74.3346 108.317 75.1265V76.0503H108.369C109.241 74.5726 110.667 73.7808 112.672 73.7808C113.358 73.7808 113.834 74.1987 113.834 74.9425Z" fill="black"/>
<path d="M121.012 73.7007C124.997 73.7007 127.743 76.3941 127.743 80.3273C127.743 84.2604 124.997 86.9519 121.012 86.9519C117.027 86.9519 114.308 84.2584 114.308 80.3273C114.308 76.3961 117.027 73.7007 121.012 73.7007ZM121.012 84.8143C123.626 84.8143 125.393 82.9927 125.393 80.3273C125.393 77.6618 123.626 75.8402 121.012 75.8402C118.399 75.8402 116.657 77.6598 116.657 80.3273C116.657 82.9947 118.427 84.8143 121.012 84.8143Z" fill="black"/>
<path d="M142.34 75.1266V85.6064C142.35 85.763 142.328 85.92 142.274 86.0673C142.219 86.2145 142.135 86.3487 142.025 86.4609C141.915 86.5732 141.783 86.6611 141.637 86.7189C141.491 86.7766 141.335 86.803 141.178 86.7961C140.518 86.7961 140.042 86.3202 140.042 85.6084V84.9185H139.99C139.041 86.2123 137.509 86.9521 135.529 86.9521C132.044 86.9521 130.145 84.8925 130.145 81.0654V75.1266C130.145 74.3268 130.592 73.8589 131.306 73.8589C132.02 73.8589 132.442 74.3348 132.442 75.1266V80.8554C132.442 83.4149 133.708 84.8146 136.083 84.8146C138.513 84.8146 140.042 83.0989 140.042 80.3535V75.1266C140.042 74.3268 140.492 73.8589 141.178 73.8589C141.916 73.8589 142.34 74.3348 142.34 75.1266Z" fill="black"/>
<path d="M157.885 79.5974V85.5522C157.885 86.318 157.437 86.7939 156.723 86.7939C156.009 86.7939 155.589 86.318 155.589 85.5522V79.8254C155.589 77.2119 154.321 75.8402 151.894 75.8402C149.467 75.8402 147.907 77.5279 147.907 80.2993V85.5522C147.907 86.318 147.485 86.7939 146.747 86.7939C146.009 86.7939 145.611 86.318 145.611 85.5522V75.1004C145.611 74.3345 146.033 73.8586 146.747 73.8586C147.461 73.8586 147.907 74.3345 147.907 75.1004V75.7343H147.961C148.911 74.4405 150.442 73.7007 152.448 73.7007C155.985 73.7007 157.885 75.7602 157.885 79.5974Z" fill="black"/>
<path d="M173.668 69.2677V85.5523C173.668 86.3181 173.218 86.794 172.507 86.794C171.795 86.794 171.371 86.3181 171.371 85.5523V84.8404H171.319C170.319 86.1861 168.653 86.952 166.542 86.952C162.793 86.952 160.285 84.3125 160.285 80.3274C160.285 76.3422 162.793 73.7008 166.542 73.7008C168.653 73.7008 170.315 74.5006 171.319 75.8123H171.371V69.2677C171.371 68.4679 171.795 68 172.507 68C173.218 68 173.668 68.4759 173.668 69.2677ZM171.371 80.3274C171.371 77.6879 169.571 75.8403 166.972 75.8403C164.41 75.8403 162.643 77.66 162.643 80.3274C162.643 82.9948 164.402 84.8144 166.972 84.8144C169.571 84.8144 171.371 82.9668 171.371 80.3274Z" fill="black"/>
<path d="M182.035 79.1395C186.234 79.1915 187.71 80.3533 187.71 82.9667C187.71 85.4742 185.65 86.9519 182.167 86.9519C179.501 86.9519 177.768 86.424 176.518 85.2622C176.409 85.1555 176.322 85.0284 176.263 84.888C176.203 84.7477 176.171 84.5969 176.17 84.4444C176.161 84.3006 176.181 84.1565 176.23 84.021C176.28 83.8856 176.356 83.7618 176.456 83.6575C176.555 83.5532 176.675 83.4706 176.808 83.4151C176.941 83.3595 177.084 83.3321 177.228 83.3346C177.54 83.3504 177.838 83.4717 178.072 83.6786C178.996 84.4784 180.367 84.8923 182.005 84.8923C184.143 84.8923 185.404 84.1545 185.404 82.9127C185.404 81.805 184.584 81.3551 181.805 81.3291C177.794 81.3031 176.316 80.2213 176.316 77.7398C176.316 75.2584 178.454 73.7007 181.831 73.7007C183.997 73.7007 185.5 74.1506 186.716 75.1524C186.848 75.2615 186.955 75.3986 187.028 75.5539C187.101 75.7091 187.138 75.8786 187.138 76.0502C187.138 76.764 186.688 77.2119 186.056 77.2119C185.806 77.2179 185.561 77.1334 185.368 76.974C184.415 76.1965 183.221 75.7763 181.991 75.7862C179.931 75.7862 178.612 76.5521 178.612 77.7398C178.63 78.7436 179.396 79.1115 182.035 79.1395Z" fill="black"/>
<path d="M50.3832 80.3273C50.3832 84.3124 47.8477 86.9519 44.1005 86.9519C42.0149 86.9519 40.3513 86.186 39.3495 84.8403H39.2955V90.4611C39.2955 91.227 38.8736 91.7029 38.1358 91.7029C37.3979 91.7029 37 91.227 37 90.4611V75.1264C37 74.3266 37.4219 73.8586 38.1358 73.8586C38.8496 73.8586 39.2955 74.3345 39.2955 75.1264V75.8122H39.3495C40.3493 74.4925 42.0149 73.7007 44.1005 73.7007C47.8477 73.7007 50.3832 76.3661 50.3832 80.3273ZM48.0337 80.3273C48.0337 77.6598 46.264 75.8402 43.6786 75.8402C41.0931 75.8402 39.2955 77.6878 39.2955 80.3273C39.2955 82.9667 41.1171 84.8143 43.6786 84.8143C46.24 84.8143 48.0337 82.9967 48.0337 80.3273Z" fill="url(#paint0_linear_3189_56427)"/>
<path d="M55.3961 69.2397V85.5523C55.3961 86.3181 54.9742 86.796 54.2343 86.796C53.4945 86.796 53.1006 86.3201 53.1006 85.5543V69.2397C53.1006 68.4759 53.5225 68 54.2343 68C54.9462 68 55.3961 68.4759 55.3961 69.2397Z" fill="url(#paint1_linear_3189_56427)"/>
<path d="M71.4966 75.1264V85.5522C71.4966 86.318 71.0487 86.7939 70.3368 86.7939C69.625 86.7939 69.1931 86.318 69.1931 85.5522V84.8403H69.1411C68.1413 86.186 66.4736 86.9519 64.3621 86.9519C60.6149 86.9519 58.1074 84.3124 58.1074 80.3273C58.1074 76.3421 60.6149 73.7007 64.3621 73.7007C66.4736 73.7007 68.1373 74.5005 69.1411 75.8122H69.1931V75.1264C69.1931 74.3266 69.615 73.8586 70.3288 73.8586C71.0427 73.8586 71.4966 74.3345 71.4966 75.1264ZM69.1931 80.3273C69.1931 77.6878 67.3935 75.8402 64.794 75.8402C62.2325 75.8402 60.4649 77.6598 60.4649 80.3273C60.4649 82.9947 62.2325 84.8143 64.794 84.8143C67.4054 84.8143 69.1931 82.9667 69.1931 80.3273Z" fill="url(#paint2_linear_3189_56427)"/>
<path d="M86.6476 75.1266V85.6064C86.6476 89.5116 84.2481 91.8611 80.3129 91.8611C77.9634 91.8611 76.0358 91.2012 74.98 89.8295C74.8281 89.6126 74.7458 89.3545 74.7441 89.0897C74.7474 88.8611 74.8203 88.639 74.9532 88.453C75.086 88.2669 75.2724 88.1258 75.4875 88.0485C75.7026 87.9711 75.9361 87.9612 76.157 88.0201C76.3779 88.0789 76.5756 88.2037 76.7237 88.3778C77.5935 89.2476 78.7032 89.7235 80.2609 89.7235C82.8204 89.7235 84.352 88.1918 84.352 85.7104V84.5966H84.2981C83.3483 85.8903 81.8166 86.6282 79.837 86.6282C76.3537 86.6282 74.4521 84.5706 74.4521 80.7434V75.1266C74.4521 74.3268 74.9021 73.8589 75.6139 73.8589C76.3258 73.8589 76.7497 74.3348 76.7497 75.1266V80.5115C76.7497 83.1249 78.0154 84.4966 80.3929 84.4966C82.8204 84.4966 84.352 82.807 84.352 80.0356V75.1266C84.352 74.3268 84.8 73.8589 85.4858 73.8589C86.2256 73.8589 86.6476 74.3348 86.6476 75.1266Z" fill="url(#paint3_linear_3189_56427)"/>
<path d="M102.748 75.1264V85.6322C102.748 89.5113 100.215 91.8608 96.1239 91.8608C93.5624 91.8608 91.4509 91.061 90.4751 89.8293C90.3224 89.6126 90.2394 89.3545 90.2371 89.0894C90.2405 88.8609 90.3134 88.6388 90.4462 88.4527C90.579 88.2667 90.7654 88.1256 90.9805 88.0483C91.1956 87.9709 91.4292 87.961 91.6501 88.0198C91.8709 88.0787 92.0686 88.2035 92.2167 88.3776C93.1405 89.3274 94.4343 89.7233 96.0439 89.7233C98.7633 89.7233 100.443 88.1916 100.443 85.7381V84.5764H100.391C99.3912 85.8961 97.6996 86.6339 95.56 86.6339C91.8388 86.6339 89.3613 84.0485 89.3613 80.1673C89.3613 76.2861 91.8428 73.7007 95.56 73.7007C97.6716 73.7007 99.3592 74.4405 100.391 75.7602H100.443V75.1264C100.443 74.3266 100.867 73.8586 101.579 73.8586C102.291 73.8586 102.748 74.3345 102.748 75.1264ZM100.451 80.1673C100.451 77.5559 98.6834 75.8402 95.9919 75.8402C93.4305 75.8402 91.7148 77.5559 91.7148 80.1673C91.7148 82.7788 93.4305 84.4964 95.9879 84.4964C98.6834 84.4964 100.451 82.7808 100.451 80.1673Z" fill="url(#paint4_linear_3189_56427)"/>
<path d="M113.834 74.9425C113.834 75.6544 113.358 76.0763 112.672 76.0763C109.901 76.0763 108.317 77.6879 108.317 81.1192V85.5523C108.317 86.3181 107.895 86.794 107.155 86.794C106.415 86.794 106.02 86.3181 106.02 85.5523V75.1265C106.02 74.3266 106.443 73.8587 107.155 73.8587C107.867 73.8587 108.317 74.3346 108.317 75.1265V76.0503H108.369C109.241 74.5726 110.667 73.7808 112.672 73.7808C113.358 73.7808 113.834 74.1987 113.834 74.9425Z" fill="url(#paint5_linear_3189_56427)"/>
<path d="M121.012 73.7007C124.997 73.7007 127.743 76.3941 127.743 80.3273C127.743 84.2604 124.997 86.9519 121.012 86.9519C117.027 86.9519 114.308 84.2584 114.308 80.3273C114.308 76.3961 117.027 73.7007 121.012 73.7007ZM121.012 84.8143C123.626 84.8143 125.393 82.9927 125.393 80.3273C125.393 77.6618 123.626 75.8402 121.012 75.8402C118.399 75.8402 116.657 77.6598 116.657 80.3273C116.657 82.9947 118.427 84.8143 121.012 84.8143Z" fill="url(#paint6_linear_3189_56427)"/>
<path d="M142.34 75.1266V85.6064C142.35 85.763 142.328 85.92 142.274 86.0673C142.219 86.2145 142.135 86.3487 142.025 86.4609C141.915 86.5732 141.783 86.6611 141.637 86.7189C141.491 86.7766 141.335 86.803 141.178 86.7961C140.518 86.7961 140.042 86.3202 140.042 85.6084V84.9185H139.99C139.041 86.2123 137.509 86.9521 135.529 86.9521C132.044 86.9521 130.145 84.8925 130.145 81.0654V75.1266C130.145 74.3268 130.592 73.8589 131.306 73.8589C132.02 73.8589 132.442 74.3348 132.442 75.1266V80.8554C132.442 83.4149 133.708 84.8146 136.083 84.8146C138.513 84.8146 140.042 83.0989 140.042 80.3535V75.1266C140.042 74.3268 140.492 73.8589 141.178 73.8589C141.916 73.8589 142.34 74.3348 142.34 75.1266Z" fill="url(#paint7_linear_3189_56427)"/>
<path d="M157.885 79.5974V85.5522C157.885 86.318 157.437 86.7939 156.723 86.7939C156.009 86.7939 155.589 86.318 155.589 85.5522V79.8254C155.589 77.2119 154.321 75.8402 151.894 75.8402C149.467 75.8402 147.907 77.5279 147.907 80.2993V85.5522C147.907 86.318 147.485 86.7939 146.747 86.7939C146.009 86.7939 145.611 86.318 145.611 85.5522V75.1004C145.611 74.3345 146.033 73.8586 146.747 73.8586C147.461 73.8586 147.907 74.3345 147.907 75.1004V75.7343H147.961C148.911 74.4405 150.442 73.7007 152.448 73.7007C155.985 73.7007 157.885 75.7602 157.885 79.5974Z" fill="url(#paint8_linear_3189_56427)"/>
<path d="M173.668 69.2677V85.5523C173.668 86.3181 173.218 86.794 172.507 86.794C171.795 86.794 171.371 86.3181 171.371 85.5523V84.8404H171.319C170.319 86.1861 168.653 86.952 166.542 86.952C162.793 86.952 160.285 84.3125 160.285 80.3274C160.285 76.3422 162.793 73.7008 166.542 73.7008C168.653 73.7008 170.315 74.5006 171.319 75.8123H171.371V69.2677C171.371 68.4679 171.795 68 172.507 68C173.218 68 173.668 68.4759 173.668 69.2677ZM171.371 80.3274C171.371 77.6879 169.571 75.8403 166.972 75.8403C164.41 75.8403 162.643 77.66 162.643 80.3274C162.643 82.9948 164.402 84.8144 166.972 84.8144C169.571 84.8144 171.371 82.9668 171.371 80.3274Z" fill="url(#paint9_linear_3189_56427)"/>
<path d="M182.035 79.1395C186.234 79.1915 187.71 80.3533 187.71 82.9667C187.71 85.4742 185.65 86.9519 182.167 86.9519C179.501 86.9519 177.768 86.424 176.518 85.2622C176.409 85.1555 176.322 85.0284 176.263 84.888C176.203 84.7477 176.171 84.5969 176.17 84.4444C176.161 84.3006 176.181 84.1565 176.23 84.021C176.28 83.8856 176.356 83.7618 176.456 83.6575C176.555 83.5532 176.675 83.4706 176.808 83.4151C176.941 83.3595 177.084 83.3321 177.228 83.3346C177.54 83.3504 177.838 83.4717 178.072 83.6786C178.996 84.4784 180.367 84.8923 182.005 84.8923C184.143 84.8923 185.404 84.1545 185.404 82.9127C185.404 81.805 184.584 81.3551 181.805 81.3291C177.794 81.3031 176.316 80.2213 176.316 77.7398C176.316 75.2584 178.454 73.7007 181.831 73.7007C183.997 73.7007 185.5 74.1506 186.716 75.1524C186.848 75.2615 186.955 75.3986 187.028 75.5539C187.101 75.7091 187.138 75.8786 187.138 76.0502C187.138 76.764 186.688 77.2119 186.056 77.2119C185.806 77.2179 185.561 77.1334 185.368 76.974C184.415 76.1965 183.221 75.7763 181.991 75.7862C179.931 75.7862 178.612 76.5521 178.612 77.7398C178.63 78.7436 179.396 79.1115 182.035 79.1395Z" fill="url(#paint10_linear_3189_56427)"/>
</g>
<defs>
<linearGradient id="paint0_linear_3189_56427" x1="37" y1="79.9314" x2="187.71" y2="79.9314" gradientUnits="userSpaceOnUse">
<stop offset="0.35" stop-color="#0082CE"/>
<stop offset="0.48" stop-color="#0291CF"/>
<stop offset="0.72" stop-color="#06BAD0"/>
<stop offset="1" stop-color="#0BEFD2"/>
</linearGradient>
<linearGradient id="paint1_linear_3189_56427" x1="37" y1="79.9315" x2="187.71" y2="79.9315" gradientUnits="userSpaceOnUse">
<stop offset="0.35" stop-color="#0082CE"/>
<stop offset="0.48" stop-color="#0291CF"/>
<stop offset="0.72" stop-color="#06BAD0"/>
<stop offset="1" stop-color="#0BEFD2"/>
</linearGradient>
<linearGradient id="paint2_linear_3189_56427" x1="36.9999" y1="79.9314" x2="187.71" y2="79.9314" gradientUnits="userSpaceOnUse">
<stop offset="0.35" stop-color="#0082CE"/>
<stop offset="0.48" stop-color="#0291CF"/>
<stop offset="0.72" stop-color="#06BAD0"/>
<stop offset="1" stop-color="#0BEFD2"/>
</linearGradient>
<linearGradient id="paint3_linear_3189_56427" x1="37.0001" y1="79.9316" x2="187.71" y2="79.9316" gradientUnits="userSpaceOnUse">
<stop offset="0.35" stop-color="#0082CE"/>
<stop offset="0.48" stop-color="#0291CF"/>
<stop offset="0.72" stop-color="#06BAD0"/>
<stop offset="1" stop-color="#0BEFD2"/>
</linearGradient>
<linearGradient id="paint4_linear_3189_56427" x1="37.0004" y1="79.9314" x2="187.71" y2="79.9314" gradientUnits="userSpaceOnUse">
<stop offset="0.35" stop-color="#0082CE"/>
<stop offset="0.48" stop-color="#0291CF"/>
<stop offset="0.72" stop-color="#06BAD0"/>
<stop offset="1" stop-color="#0BEFD2"/>
</linearGradient>
<linearGradient id="paint5_linear_3189_56427" x1="37.0002" y1="79.9315" x2="187.71" y2="79.9315" gradientUnits="userSpaceOnUse">
<stop offset="0.35" stop-color="#0082CE"/>
<stop offset="0.48" stop-color="#0291CF"/>
<stop offset="0.72" stop-color="#06BAD0"/>
<stop offset="1" stop-color="#0BEFD2"/>
</linearGradient>
<linearGradient id="paint6_linear_3189_56427" x1="37" y1="79.9314" x2="187.71" y2="79.9314" gradientUnits="userSpaceOnUse">
<stop offset="0.35" stop-color="#0082CE"/>
<stop offset="0.48" stop-color="#0291CF"/>
<stop offset="0.72" stop-color="#06BAD0"/>
<stop offset="1" stop-color="#0BEFD2"/>
</linearGradient>
<linearGradient id="paint7_linear_3189_56427" x1="37.0003" y1="79.9316" x2="187.71" y2="79.9316" gradientUnits="userSpaceOnUse">
<stop offset="0.35" stop-color="#0082CE"/>
<stop offset="0.48" stop-color="#0291CF"/>
<stop offset="0.72" stop-color="#06BAD0"/>
<stop offset="1" stop-color="#0BEFD2"/>
</linearGradient>
<linearGradient id="paint8_linear_3189_56427" x1="37.0004" y1="79.9314" x2="187.71" y2="79.9314" gradientUnits="userSpaceOnUse">
<stop offset="0.35" stop-color="#0082CE"/>
<stop offset="0.48" stop-color="#0291CF"/>
<stop offset="0.72" stop-color="#06BAD0"/>
<stop offset="1" stop-color="#0BEFD2"/>
</linearGradient>
<linearGradient id="paint9_linear_3189_56427" x1="36.9993" y1="79.9315" x2="187.709" y2="79.9315" gradientUnits="userSpaceOnUse">
<stop offset="0.35" stop-color="#0082CE"/>
<stop offset="0.48" stop-color="#0291CF"/>
<stop offset="0.72" stop-color="#06BAD0"/>
<stop offset="1" stop-color="#0BEFD2"/>
</linearGradient>
<linearGradient id="paint10_linear_3189_56427" x1="36.9997" y1="79.9314" x2="187.71" y2="79.9314" gradientUnits="userSpaceOnUse">
<stop offset="0.35" stop-color="#0082CE"/>
<stop offset="0.48" stop-color="#0291CF"/>
<stop offset="0.72" stop-color="#06BAD0"/>
<stop offset="1" stop-color="#0BEFD2"/>
</linearGradient>
<clipPath id="clip0_3189_56427">
<rect width="150.71" height="23.8609" fill="white" transform="translate(37 68)"/>
</clipPath>
</defs>
</svg>
