<svg width="224" height="160" viewBox="0 0 224 160" fill="none" xmlns="http://www.w3.org/2000/svg">
<rect width="224" height="160" rx="16" fill="white"/>
<path d="M38.4771 80.5451C38.834 78.85 40.4845 77.1995 42.135 77.5563C42.0904 78.047 41.9119 78.4039 41.8227 78.5823C41.5105 79.1622 41.9119 79.3406 42.358 79.1622C42.7595 79.0284 43.6963 78.7161 43.6963 77.9578C43.6517 77.5117 43.2502 76.9764 42.6703 76.6642C42.0904 76.3519 41.5105 76.2627 41.0198 76.2627C40.0384 76.2627 39.2355 76.6642 38.6109 77.1549C37.585 78.0024 37.0497 79.2067 37.0051 80.4559C36.8712 83.3555 39.4139 85.0951 42.0012 85.0951C47.4433 84.7828 50.3875 81.2589 51.1012 79.9205C51.4135 79.3406 51.1012 78.5823 50.8335 78.7607C48.1571 81.125 44.9453 83.4892 41.2428 83.7567C39.2355 83.7567 38.0757 82.4633 38.4771 80.5451Z" fill="#252525"/>
<path d="M63.1931 79.2067C64.2637 78.8499 64.576 78.27 63.2823 78.3146C62.8809 78.3146 61.141 78.493 59.0446 78.493C58.0186 78.493 56.8588 78.4484 55.7435 78.3146C55.0744 77.5116 54.0931 76.9317 52.8886 76.7533C51.9965 76.7087 51.6842 77.1994 51.5058 77.8239C51.4166 77.8239 51.372 77.8685 51.2827 77.8685C50.2568 78.2254 49.097 80.3666 49.4092 82.2401C49.6323 83.4891 50.7474 84.8719 52.398 84.9611C54.4499 85.095 56.2788 83.9797 56.6803 81.7495C56.8141 81.0804 56.7695 80.4111 56.5911 79.8312C59.3122 79.9651 62.2118 79.5636 63.1931 79.2067ZM52.1749 78.8499L52.2641 78.7607C52.8886 79.1621 53.7362 79.4297 54.7622 79.6081C55.4759 81.2141 54.4945 83.7567 52.5318 83.8461C51.6842 83.8906 51.1935 83.3999 50.9705 82.1062C50.7474 80.8573 51.595 79.2961 52.1749 78.8499Z" fill="#252525"/>
<path d="M63.9076 82.82C64.0415 83.3554 65.2012 84.2475 65.558 83.9353C67.2978 82.4185 68.5467 80.0543 70.8217 78.5822C71.2232 80.3219 71.4908 81.348 71.937 82.3293C72.2046 82.82 73.0523 83.266 73.409 83.0876C74.6135 82.2846 75.7287 81.3925 77.7359 79.742C77.8698 80.1435 78.0929 80.6342 78.4052 81.0804C78.8067 81.6156 79.2527 82.1509 79.9218 82.5969C80.9031 83.2215 81.9739 83.4891 82.9105 83.4891C85.4533 83.4891 88.3527 81.3033 89.022 80.0988C89.5571 79.1175 88.9773 78.7607 88.8434 78.9837C88.219 80.0543 83.3567 82.2401 81.9292 82.2401C81.3046 82.2401 80.7694 82.017 80.2787 81.7048C79.3866 80.9465 79.1635 79.3406 78.7173 78.4484C78.4052 77.9577 77.5576 77.5116 77.2453 77.7347L72.9184 81.2588C72.5169 79.6973 72.4722 78.7607 71.9815 77.6009C71.6247 77.1102 70.8665 76.6641 70.5095 76.8425C68.5915 77.7793 67.0747 79.5636 65.5135 81.2588C65.4688 79.7867 65.6472 78.9837 65.6027 77.8239C65.7364 77.244 64.2643 76.2626 64.1306 77.021C63.952 78.1361 63.8184 79.4298 63.8184 80.8573C63.8184 81.4817 63.8629 82.1509 63.9076 82.82Z" fill="#252525"/>
<path d="M87.4288 100.039C87.518 100.886 88.9901 101.332 89.0348 100.574C88.7225 98.3437 88.7225 95.8011 88.6333 93.1246C88.7672 88.4854 88.8564 85.4966 89.347 83.4447L89.7038 83.6676C90.5068 84.1583 92.3358 84.6045 93.8079 84.203H94.0309C97.421 84.3369 100.856 82.5526 103.131 80.2329C103.577 79.7422 104.112 78.1809 103.577 78.5824C102.016 79.9653 98.3132 82.1511 95.503 82.731C96.1273 81.9727 96.7519 80.9019 96.8411 79.8761C97.1534 77.378 94.343 76.4412 92.5587 76.9319C91.2653 77.2888 89.8822 78.2255 88.7225 80.0098C88.8564 76.9765 88.9456 74.8799 89.0348 73.7647C89.0795 73.4525 88.7672 73.051 88.321 72.8279C87.9195 72.6049 87.518 72.6049 87.4735 72.9172C87.1165 75.4152 87.0273 83.0432 87.0273 93.1693C87.1612 95.578 87.2504 98.1653 87.4288 100.039ZM92.7818 82.8649C92.068 82.7754 89.9269 82.6863 89.4362 82.4187V82.2848C89.7038 81.0358 92.871 77.0657 94.8784 78.2255C96.3059 79.0731 94.343 82.4187 92.7818 82.8649Z" fill="#252525"/>
<path d="M115.252 79.2067C116.322 78.8499 116.635 78.27 115.341 78.3146C114.939 78.3146 113.2 78.493 111.103 78.493C110.077 78.493 108.917 78.4484 107.802 78.3146C107.133 77.5116 106.152 76.9317 104.947 76.7533C104.055 76.7087 103.743 77.1994 103.564 77.8239C103.475 77.8239 103.431 77.8685 103.341 77.8685C102.315 78.2254 101.156 80.3666 101.468 82.2401C101.691 83.4891 102.806 84.8719 104.457 84.9611C106.508 85.095 108.338 83.9797 108.739 81.7495C108.873 81.0804 108.828 80.4111 108.65 79.8312C111.371 79.9651 114.27 79.5636 115.252 79.2067ZM104.233 78.8499L104.323 78.7607C104.947 79.1621 105.795 79.4297 106.821 79.6081C107.535 81.2141 106.553 83.7567 104.59 83.8461C103.743 83.8906 103.252 83.3999 103.029 82.1062C102.806 80.8573 103.654 79.2961 104.233 78.8499Z" fill="#252525"/>
<path d="M115.339 84.6935C116.008 84.9611 117.079 85.095 118.194 85.095C119.354 85.095 120.514 84.9611 121.317 84.7382C122.476 84.4259 123.324 83.1768 122.343 82.3293C121.451 81.6156 120.112 80.9465 118.417 80.0096C117.525 79.4745 116.499 79.0283 116.767 78.4038C117.257 77.244 121.317 76.4857 122.967 75.9058C123.324 75.4597 122.432 74.6121 121.718 74.7013C119.443 75.0136 114.581 76.4411 114.938 78.8053C115.116 80.1435 116.365 80.5895 117.525 81.2588C118.417 81.7495 120.112 82.5969 121.227 83.1768C120.068 83.4446 118.283 83.6675 116.856 83.6675C116.276 83.6675 115.785 83.623 115.384 83.5338C114.402 83.3107 114.804 84.4259 115.339 84.6935Z" fill="#252525"/>
<path d="M127.101 83.8015C127.592 84.1138 128.127 84.2477 128.707 84.2477C131.071 84.2477 134.015 81.9725 135.264 80.8574C135.844 82.4634 136.959 83.3108 138.431 83.6676C140.305 84.1138 143.383 82.6862 144.498 81.5712C146.951 79.1177 146.282 78.0025 145.524 78.7608C143.918 80.5451 140.082 82.8201 137.807 82.3739C137.004 82.1511 136.781 81.2589 136.825 80.5004C136.915 79.653 137.316 78.85 137.539 78.1809C137.851 77.6456 136.335 76.6642 136.067 77.1549L135.309 78.1809H135.264C134.149 77.6902 132.9 77.4226 131.651 77.4226C130.09 77.4226 128.573 77.824 127.369 78.627C126.253 79.3854 125.763 80.3667 125.763 81.3481C125.763 82.2848 126.209 83.1324 127.101 83.8015ZM127.904 82.8201C127.235 82.7754 126.967 82.2848 127.101 81.7496C127.592 79.6975 130.536 78.85 132.766 78.85C133.435 78.85 134.06 78.9392 134.506 79.0731C132.944 80.7235 130.045 82.5526 127.904 82.8201Z" fill="#252525"/>
<path d="M146.344 85.8085C146.79 86.0316 147.013 85.8977 147.058 85.8977C147.147 85.853 147.191 85.7638 147.236 85.7638C147.281 85.6301 147.37 85.407 147.325 85.0947L147.593 83.8458L147.727 83.3996L147.816 83.4443C148.797 84.1134 151.385 84.2473 152.098 84.1134L152.277 84.0687H152.634C156.559 84.0242 159.726 82.3291 161.377 80.0985C161.778 79.5187 162.046 78.1359 161.6 78.582C160.038 79.9649 156.47 81.9721 154.284 82.3291L154.596 81.6153C154.775 81.0799 154.909 80.4555 154.909 79.7865C154.909 78.7604 154.596 77.6898 153.66 76.8423L153.437 76.6638C153.08 76.307 152.544 76.0839 152.143 76.0393C150.18 75.6824 147.325 79.385 146.567 81.2138C146.344 78.9388 146.299 76.0839 146.299 73.1844C146.299 67.3407 146.478 61.4525 147.013 59.8912C147.147 59.6235 146.879 59.1775 146.522 58.9098C146.076 58.6422 145.63 58.6422 145.496 58.8652C144.916 60.4711 144.693 65.7348 144.693 71.0432V72.4707C144.693 75.3702 144.783 78.2251 144.872 80.5L145.229 83.3551C145.363 84.0687 145.452 84.6485 145.63 84.9608C145.63 85.0055 145.63 85.0947 145.764 85.2286C145.764 85.2731 146.032 85.5854 146.344 85.8085ZM148.084 82.5074L147.994 82.463C149.957 79.6079 151.117 77.8236 152.634 77.3329H152.723L152.857 77.5114C153.124 77.779 153.258 78.2251 153.258 78.8496C153.258 80.9462 151.474 82.775 149.422 82.775C148.976 82.775 148.53 82.6858 148.084 82.5074Z" fill="#252525"/>
<path d="M165.623 87.3699C168.433 87.3699 172.002 82.5523 172.805 80.3218C172.983 79.7867 172.894 78.6714 172.448 79.296C171.779 80.1434 166.381 87.4146 164.062 85.9871C163.08 85.318 162.724 82.1508 162.724 78.1807C162.724 70.4635 164.017 59.7576 164.285 58.91C164.285 58.687 163.928 58.3301 163.482 58.1071C163.036 57.9286 162.768 57.9732 162.724 58.2409C162.144 60.1144 160.895 69.7051 160.895 77.1101C160.895 80.8125 161.207 83.9797 162.054 85.318C162.947 86.5669 164.196 87.3699 165.623 87.3699Z" fill="#252525"/>
<path d="M179.124 85.1397C182.202 84.9611 185.056 82.7753 186.306 80.1882C186.93 78.9391 187.109 77.9131 186.083 78.9837C184.209 80.9465 181.086 84.0689 176.893 84.0689C175.332 84.0689 173.771 82.6416 173.637 81.7939C175.198 81.7939 177.116 80.7234 177.696 79.296C178.187 78.0023 176.893 76.6641 175.51 76.6641C173.325 76.7533 171.986 78.7606 171.986 80.7234C171.986 81.1695 172.076 81.6155 172.209 82.017C173.102 84.7827 176.492 85.2734 179.124 85.1397ZM176.224 78.1807C176.715 78.6714 175.466 79.8759 173.592 80.7234C173.548 79.6081 175.287 77.244 176.224 78.1807Z" fill="#252525"/>
</svg>
