<svg width="708" height="203" viewBox="0 0 708 203" fill="none" xmlns="http://www.w3.org/2000/svg">
<path d="M6.97203 106.412C8.65643 98.411 16.4468 90.6207 24.2371 92.3051C24.0266 94.6211 23.1844 96.3055 22.7633 97.1477C21.2894 99.8849 23.1844 100.727 25.2899 99.8849C27.1848 99.2532 31.6064 97.7794 31.6064 94.2C31.3958 92.0945 29.5009 89.5679 26.7637 88.0941C24.0266 86.6202 21.2894 86.1991 18.9734 86.1991C14.3413 86.1991 10.5514 88.0941 7.60368 90.4101C2.76103 94.4106 0.234434 100.095 0.0238847 105.991C-0.607765 119.677 11.3936 127.888 23.6055 127.888C49.2926 126.414 63.1888 109.781 66.5576 103.464C68.0315 100.727 66.5576 97.1477 65.2943 97.9899C52.6614 109.149 37.5018 120.308 20.0261 121.571C10.5514 121.571 5.07708 115.466 6.97203 106.412Z" fill="#252525"/>
<path d="M123.635 100.095C128.688 98.411 130.162 95.6739 124.056 95.8844C122.161 95.8844 113.949 96.7266 104.054 96.7266C99.211 96.7266 93.7367 96.5161 88.4729 95.8844C85.3147 92.0945 80.6826 89.3574 74.9977 88.5152C70.7867 88.3046 69.3129 90.6207 68.4707 93.5684C68.0496 93.5684 67.839 93.7789 67.4179 93.7789C62.5753 95.4633 57.101 105.57 58.5748 114.413C59.6276 120.308 64.8913 126.835 72.6817 127.256C82.367 127.888 90.9995 122.624 92.8945 112.097C93.5261 108.939 93.3156 105.78 92.4734 103.043C105.317 103.675 119.003 101.78 123.635 100.095ZM71.6289 98.411L72.05 97.9899C74.9977 99.8849 78.9982 101.148 83.8408 101.99C87.2096 109.57 82.5775 121.571 73.3133 121.993C69.3129 122.203 66.9968 119.887 65.9441 113.781C64.8913 107.886 68.8918 100.517 71.6289 98.411Z" fill="#252525"/>
<path d="M127.002 117.15C127.634 119.677 133.108 123.888 134.792 122.414C143.004 115.255 148.899 104.096 159.637 97.1477C161.532 105.359 162.795 110.202 164.901 114.834C166.164 117.15 170.165 119.255 171.849 118.413C177.534 114.623 182.798 110.412 192.272 102.622C192.904 104.517 193.957 106.833 195.431 108.939C197.326 111.465 199.431 113.992 202.589 116.097C207.221 119.045 212.275 120.308 216.696 120.308C228.698 120.308 242.383 109.991 245.542 104.306C248.068 99.6743 245.331 97.9899 244.699 99.0427C241.752 104.096 218.802 114.413 212.064 114.413C209.116 114.413 206.59 113.36 204.274 111.886C200.063 108.307 199.01 100.727 196.904 96.5161C195.431 94.2 191.43 92.0945 189.956 93.1473L169.533 109.781C167.638 102.411 167.427 97.9899 165.111 92.5156C163.427 90.1996 159.848 88.0941 158.163 88.9363C149.11 93.3578 141.951 101.78 134.582 109.781C134.371 102.833 135.213 99.0427 135.003 93.5684C135.634 90.8312 128.686 86.1991 128.055 89.7785C127.212 95.0422 126.581 101.148 126.581 107.886C126.581 110.833 126.791 113.992 127.002 117.15Z" fill="#252525"/>
<path d="M238.024 198.422C238.445 202.423 245.393 204.528 245.604 200.949C244.13 190.421 244.13 178.42 243.709 165.787C244.341 143.89 244.762 129.783 247.078 120.098L248.762 121.15C252.552 123.466 261.185 125.572 268.133 123.677H269.186C285.187 124.309 301.4 115.887 312.138 104.938C314.243 102.622 316.77 95.2528 314.243 97.1477C306.874 103.675 289.398 113.992 276.134 116.729C279.081 113.15 282.029 108.096 282.45 103.254C283.924 91.4629 270.659 87.0413 262.237 89.3574C256.132 91.0418 249.604 95.4633 244.13 103.885C244.762 89.5679 245.183 79.6721 245.604 74.4083C245.815 72.9345 244.341 71.0395 242.235 69.9868C240.34 68.934 238.445 68.934 238.235 70.4079C236.55 82.1987 236.129 118.203 236.129 165.998C236.761 177.367 237.182 189.579 238.024 198.422ZM263.29 117.361C259.921 116.939 249.815 116.518 247.499 115.255V114.623C248.762 108.728 263.711 89.989 273.186 95.4633C279.924 99.4638 270.659 115.255 263.29 117.361Z" fill="#252525"/>
<path d="M369.345 100.095C374.398 98.411 375.872 95.6739 369.766 95.8844C367.871 95.8844 359.66 96.7266 349.764 96.7266C344.921 96.7266 339.447 96.5161 334.183 95.8844C331.025 92.0945 326.393 89.3574 320.708 88.5152C316.497 88.3046 315.023 90.6207 314.181 93.5684C313.76 93.5684 313.549 93.7789 313.128 93.7789C308.285 95.4633 302.811 105.57 304.285 114.413C305.338 120.308 310.601 126.835 318.392 127.256C328.077 127.888 336.71 122.624 338.605 112.097C339.236 108.939 339.026 105.78 338.183 103.043C351.027 103.675 364.713 101.78 369.345 100.095ZM317.339 98.411L317.76 97.9899C320.708 99.8849 324.708 101.148 329.551 101.99C332.92 109.57 328.288 121.571 319.023 121.993C315.023 122.203 312.707 119.887 311.654 113.781C310.601 107.886 314.602 100.517 317.339 98.411Z" fill="#252525"/>
<path d="M369.759 125.993C372.918 127.256 377.971 127.888 383.235 127.888C388.709 127.888 394.183 127.256 397.973 126.204C403.447 124.73 407.448 118.834 402.816 114.834C398.605 111.465 392.288 108.307 384.287 103.885C380.076 101.359 375.234 99.2532 376.497 96.3055C378.813 90.8312 397.973 87.2519 405.763 84.5147C407.448 82.4092 403.237 78.4088 399.868 78.8299C389.13 80.3037 366.18 87.0413 367.864 98.2005C368.707 104.517 374.602 106.622 380.076 109.781C384.287 112.097 392.288 116.097 397.552 118.834C392.078 120.098 383.656 121.15 376.918 121.15C374.181 121.15 371.865 120.94 369.97 120.519C365.338 119.466 367.233 124.73 369.759 125.993Z" fill="#252525"/>
<path d="M425.275 121.782C427.591 123.256 430.118 123.888 432.855 123.888C444.014 123.888 457.911 113.149 463.806 107.886C466.543 115.466 471.807 119.466 478.755 121.15C487.598 123.256 502.126 116.518 507.39 111.255C518.97 99.6743 515.812 94.4106 512.233 97.9899C504.653 106.412 486.545 117.15 475.807 115.044C472.017 113.992 470.965 109.781 471.175 106.201C471.596 102.201 473.491 98.411 474.544 95.2528C476.018 92.7262 468.859 88.0941 467.596 90.4101L464.017 95.2528H463.806C458.542 92.9367 452.647 91.6734 446.752 91.6734C439.382 91.6734 432.224 93.5684 426.539 97.3583C421.275 100.938 418.959 105.57 418.959 110.202C418.959 114.623 421.064 118.624 425.275 121.782ZM429.065 117.15C425.907 116.939 424.644 114.623 425.275 112.097C427.591 102.411 441.488 98.411 452.015 98.411C455.173 98.411 458.121 98.8321 460.227 99.4638C452.857 107.254 439.172 115.887 429.065 117.15Z" fill="#252525"/>
<path d="M516.105 131.257C518.21 132.31 519.263 131.678 519.473 131.678C519.895 131.467 520.105 131.046 520.316 131.046C520.526 130.415 520.947 129.362 520.737 127.888L522 121.993L522.632 119.887L523.053 120.098C527.685 123.256 539.897 123.888 543.266 123.256L544.108 123.045H545.792C564.321 122.835 579.27 114.834 587.06 104.306C588.955 101.569 590.218 95.0422 588.113 97.1477C580.743 103.675 563.899 113.149 553.583 114.834L555.056 111.465C555.899 108.938 556.53 105.991 556.53 102.833C556.53 97.9899 555.056 92.9367 550.635 88.9363L549.582 88.0941C547.898 86.4097 545.371 85.3569 543.476 85.1464C534.212 83.462 520.737 100.938 517.157 109.57C516.105 98.8321 515.894 85.3569 515.894 71.6712C515.894 44.0891 516.736 16.2966 519.263 8.92731C519.895 7.66401 518.631 5.55852 516.947 4.29522C514.841 3.03191 512.736 3.03191 512.104 4.08466C509.367 11.6645 508.314 36.5093 508.314 61.5648V68.3024C508.314 81.9881 508.735 95.4633 509.157 106.201L510.841 119.677C511.473 123.045 511.894 125.782 512.736 127.256C512.736 127.467 512.736 127.888 513.367 128.52C513.367 128.73 514.631 130.204 516.105 131.257ZM524.316 115.676L523.895 115.466C533.159 101.99 538.633 93.5684 545.792 91.2523H546.213L546.845 92.0945C548.108 93.3578 548.74 95.4633 548.74 98.411C548.74 108.307 540.318 116.939 530.633 116.939C528.527 116.939 526.422 116.518 524.316 115.676Z" fill="#252525"/>
<path d="M607.102 138.626C620.366 138.626 637.21 115.887 641 105.359C641.842 102.833 641.421 97.5688 639.316 100.517C636.158 104.517 610.681 138.837 599.732 132.099C595.1 128.941 593.416 113.992 593.416 95.2528C593.416 58.8276 599.522 8.29567 600.785 4.29522C600.785 3.24246 599.101 1.55807 596.995 0.505322C594.89 -0.336879 593.627 -0.126331 593.416 1.13696C590.679 9.98006 584.783 55.2483 584.783 90.1996C584.783 107.675 586.257 122.624 590.258 128.941C594.469 134.836 600.364 138.626 607.102 138.626Z" fill="#252525"/>
<path d="M670.824 128.099C685.352 127.256 698.827 116.939 704.723 104.728C707.671 98.8321 708.513 93.9895 703.67 99.0427C694.827 108.307 680.088 123.045 660.297 123.045C652.928 123.045 645.558 116.308 644.927 112.307C652.296 112.307 661.35 107.254 664.087 100.517C666.403 94.4106 660.297 88.0941 653.77 88.0941C643.453 88.5152 637.136 97.9899 637.136 107.254C637.136 109.36 637.557 111.465 638.189 113.36C642.4 126.414 658.402 128.73 670.824 128.099ZM657.139 95.2528C659.455 97.5688 653.559 103.254 644.716 107.254C644.506 101.99 652.717 90.8312 657.139 95.2528Z" fill="#252525"/>
</svg>
