<svg width="224" height="160" viewBox="0 0 224 160" fill="none" xmlns="http://www.w3.org/2000/svg">
<rect width="224" height="160" rx="16" fill="white"/>
<path d="M96.475 95.8849C102.038 93.5717 109.519 90.4329 118.919 86.4686L152.821 56.4899C152.83 56.483 152.832 56.4697 152.824 56.4608C152.818 56.4536 152.809 56.4512 152.8 56.4548C149.88 57.7031 147.342 58.7879 145.187 59.7091C132.052 65.3224 109.102 75.1267 93.505 81.7774L85 85.3886V92.9486C85 97.0661 85.1013 100.475 85.2363 100.441C85.405 100.441 90.4338 98.3824 96.475 95.8849Z" fill="black" stroke="black" stroke-width="1.20312"/>
<path d="M88.9155 72.294L99.2768 67.9065L105.554 62.3377C108.997 59.3002 114.498 54.4402 117.738 51.5377C121.012 48.669 125.298 44.8552 127.256 43.1002C129.247 41.3452 130.833 39.894 130.766 39.8265C130.664 39.7252 128.504 40.6365 113.519 46.914C108.862 48.8715 100.357 52.4152 94.6193 54.8452C80.0393 60.954 67.248 66.354 66.2693 66.7927L65.4255 67.164V74.5552C65.4255 81.339 65.4593 81.9127 65.9993 81.879C66.3368 81.8452 69.273 80.664 72.5468 79.2465C75.8205 77.829 83.178 74.724 88.9155 72.294Z" fill="black" stroke="black" stroke-width="1.20312"/>
<path d="M107.612 72.0913C115.679 68.615 122.969 65.4425 123.812 65.0713C124.656 64.7 128.166 61.9663 131.642 58.9625L137.987 53.5625V45.9688C137.987 41.6488 137.852 38.375 137.684 38.375C137.447 38.375 131.204 43.6738 130.562 44.45C130.461 44.5513 126.141 48.4325 120.944 53.0563C98.8036 72.7663 95.9011 75.3988 94.2811 76.9175C93.3361 77.795 92.6611 78.5038 92.7623 78.5038C92.8636 78.5038 99.5461 75.6013 107.612 72.0913Z" fill="black" stroke="black" stroke-width="1.20312"/>
<path d="M138.676 91.6596C145.426 85.2471 154.37 77.9908 158.757 73.0971C159.095 67.3596 159.095 64.3221 159.095 61.1158C159.095 57.9096 158.811 56.3804 158.756 56.2753C158.673 56.1177 157.238 57.2346 145.595 67.6971C141.933 70.9871 134.106 77.5108 129.563 81.5346C117.751 91.9971 106.737 102.452 105.938 103.135L105.25 103.712L105.432 110.337C105.432 120.897 105.46 121.79 105.9 121.737C106.176 121.685 110.017 117.829 112.688 115.622C114.47 114.151 123.132 106.164 138.676 91.6596Z" fill="black" stroke="black" stroke-width="1.20312"/>
</svg>
