<?xml version="1.0" encoding="UTF-8"?>
<svg width="512px" height="512px" viewBox="0 0 512 512" version="1.1" xmlns="http://www.w3.org/2000/svg" xmlns:xlink="http://www.w3.org/1999/xlink">
    <title>mover_icon_dark</title>
    <defs>
        <rect id="path-1" x="0" y="0" width="512" height="512" rx="256"></rect>
    </defs>
    <g id="Page-1" stroke="none" stroke-width="1" fill="none" fill-rule="evenodd">
        <g id="mover_icon_dark">
            <mask id="mask-2" fill="white">
                <use xlink:href="#path-1"></use>
            </mask>
            <use id="Rectangle" fill="#100A20" xlink:href="#path-1"></use>
            <g id="Group-4" mask="url(#mask-2)">
                <g transform="translate(97.024000, 113.920000)" id="Group">
                    <g transform="translate(159.863169, 142.275466) scale(-1, 1) translate(-159.863169, -142.275466) ">
                        <path d="M213.742339,196.3008 C194.753828,188.405112 169.217828,177.691512 137.134339,164.16 L21.4146961,61.8325995 C21.3824391,61.8092109 21.3781202,61.763828 21.4034477,61.7331729 C21.4236047,61.7087758 21.4573293,61.700401 21.4864358,61.7128284 C31.4532991,65.9737351 40.1156297,69.6764432 47.4734275,72.8209527 C92.3057287,91.9809785 170.641568,125.446165 223.879939,148.1472 L252.910339,160.4736 L252.910339,186.2784 C252.910339,200.3328 252.564739,211.968 252.103939,211.8528 C251.527939,211.8528 234.363139,204.8256 213.742339,196.3008 Z" id="Path" fill="#FFFFFF" fill-rule="nonzero"></path>
                        <path d="M239.547139,115.776 L204.180739,100.8 L182.753539,81.792 C171.003139,71.424 152.225539,54.8352 141.166339,44.928 C129.991939,35.136 115.361539,22.1184 108.679939,16.128 C101.883139,10.1376 96.4687385,5.184 96.6991385,4.9536 C97.0447385,4.608 104.417539,7.7184 155.566339,29.1456 C171.463939,35.8272 200.494339,47.9232 220.078339,56.2176 C269.844739,77.0688 313.505539,95.5008 316.846339,96.9984 L319.726339,98.2656 L319.726339,123.4944 C319.726339,146.6496 319.611139,148.608 317.767939,148.4928 C316.615939,148.3776 306.593539,144.3456 295.419139,139.5072 C284.244739,134.6688 259.131139,124.0704 239.547139,115.776 Z" id="Path" fill="#FFFFFF" fill-rule="nonzero"></path>
                        <path d="M175.726339,115.0848 C148.193539,103.2192 123.310339,92.3904 120.430339,91.1232 C117.550339,89.856 105.569539,80.5248 93.7039385,70.272 L72.0463385,51.84 L72.0463385,25.92 C72.0463385,11.1744 72.5071385,0 73.0831385,0 C73.8895385,0 95.2015385,18.0864 97.3903385,20.736 C97.7359385,21.0816 112.481539,34.3296 130.222339,50.112 C205.793539,117.3888 215.700739,126.3744 221.230339,131.5584 C224.455939,134.5536 226.759939,136.9728 226.414339,136.9728 C226.068739,136.9728 203.259139,127.0656 175.726339,115.0848 Z" id="Path" fill="#FFFFFF" fill-rule="nonzero"></path>
                        <path d="M69.696,181.878973 C46.656,159.990973 16.128,135.222973 1.152,118.518973 C0,98.9349728 0,88.5669728 0,77.6229728 C0,66.6789728 0.969758764,61.4594362 1.15778584,61.1007794 C1.43982647,60.5627941 6.336,64.3749728 46.08,100.086973 C58.5778113,111.31689 85.2933011,133.584468 100.8,147.318973 C141.12,183.030973 178.713607,218.715703 181.44,221.046973 L183.790339,223.019586 L183.168,245.629735 C183.168,281.674749 183.073986,284.723333 181.56977,284.544004 C180.629634,284.364676 167.519313,271.202767 158.4,263.670973 C152.320458,258.649777 122.752458,231.385777 69.696,181.878973 Z" id="Path" fill="#FFFFFF" fill-rule="nonzero"></path>
                    </g>
                </g>
            </g>
        </g>
    </g>
</svg>