<svg width="50" height="50" viewBox="0 0 50 50" fill="none" xmlns="http://www.w3.org/2000/svg">
<path id="ohm" fill-rule="evenodd" clip-rule="evenodd" d="M19.5455 50V49.8864V47.4891V40.5306C12.4238 38.2889 7.27273 31.776 7.27273 24.0909C7.27273 14.5514 15.2095 6.81818 25 6.81818C34.7905 6.81818 42.7273 14.5514 42.7273 24.0909C42.7273 31.776 37.5762 38.2889 30.4545 40.5306V47.4891V49.8864V50H50V42.9545H40.348C46.1553 38.5547 49.8864 31.7152 49.8864 24.0341C49.8864 10.7604 38.7444 0 25 0C11.2556 0 0.113636 10.7604 0.113636 24.0341C0.113636 31.7152 3.84467 38.5547 9.65197 42.9545H0V50H19.5455Z" />
<style>
    #ohm {
      fill: black;
    }
    @media (prefers-color-scheme: dark) {
      #ohm {
        fill: white;
      }
    }
  </style>
</svg>
