<?xml version="1.0" encoding="utf-8"?>
<!-- Generator: Adobe Illustrator 24.1.0, SVG Export Plug-In . SVG Version: 6.00 Build 0)  -->
<svg version="1.1" id="Layer_1" xmlns="http://www.w3.org/2000/svg" xmlns:xlink="http://www.w3.org/1999/xlink" x="0px" y="0px"
	 viewBox="0 0 1000 464" style="enable-background:new 0 0 1000 464;" xml:space="preserve">
<style type="text/css">
	.st0{fill:#7C2011;}
	.st1{fill:#F78569;}
	.st2{fill:#DC4A39;}
	.st3{fill:#C26E6A;}
	.st4{fill:#FABE8C;}
	.st5{fill:#FFFFFF;}
</style>
<g>
	<rect class="st0" width="1000" height="240"/>
	<rect x="755.5" y="129.7" class="st1" width="63.2" height="13.2"/>
	<path class="st0" d="M783.1,144.5L783.1,144.5c-1.9,0-3.4-1.5-3.4-3.4v-19.5c0-1.9,1.5-3.4,3.4-3.4h0c1.9,0,3.4,1.5,3.4,3.4v19.5
		C786.5,143,784.9,144.5,783.1,144.5z"/>
	<path class="st0" d="M807.7,144.5L807.7,144.5c-1.9,0-3.4-1.5-3.4-3.4v-19.5c0-1.9,1.5-3.4,3.4-3.4l0,0c1.9,0,3.4,1.5,3.4,3.4v19.5
		C811.1,143,809.5,144.5,807.7,144.5z"/>
	<path class="st0" d="M630.1,149.4c-1.3,0-2.6-0.7-3.3-1.8c-0.7-1.1-0.9-2.5-0.3-3.8c12.8-30.1,40.9-49.5,71.5-49.5
		s58.6,19.4,71.5,49.5c0.5,1.2,0.4,2.7-0.3,3.8s-2,1.8-3.3,1.8H630.1z"/>
	<g>
		<path class="st2" d="M869,89.7c-9.9-21.3-31.4-35.1-54.9-35.1c-23.5,0-45,13.8-54.9,35.1c-0.6,1.3-0.9,2.8-0.9,4.2h111.6
			C869.9,92.5,869.6,91.1,869,89.7z"/>
		<path class="st1" d="M859.9,93.9h-91.6c8-17.3,25.5-29.3,45.8-29.3C834.4,64.6,851.9,76.6,859.9,93.9z"/>
		<path class="st1" d="M728.4,93.9h39.8c-3.5-7.5-11.1-12.7-19.9-12.7C739.5,81.2,731.9,86.4,728.4,93.9z"/>
	</g>
	<path class="st1" d="M1000,72.8c-7.9-5.1-17.3-8.1-27.5-8.1c-20.3,0-37.8,12-45.8,29.3h73.3V72.8z"/>
	<path class="st1" d="M104,93.9H12.4c8-17.3,25.5-29.3,45.8-29.3C78.5,64.6,96,76.6,104,93.9z"/>
	<g>
		<path class="st2" d="M264.5,89.7C256.5,72.3,238.8,61,219.6,61c-19.2,0-36.8,11.3-44.9,28.7c-0.6,1.3-0.9,2.8-0.9,4.2h91.7
			C265.5,92.5,265.2,91.1,264.5,89.7z"/>
		<path class="st1" d="M255.5,93.9h-71.7c6.3-13.5,20-22.9,35.9-22.9C235.5,71,249.2,80.4,255.5,93.9z"/>
		<path class="st1" d="M255.5,93.9h39.8c-3.5-7.5-11.1-12.7-19.9-12.7C266.6,81.2,259,86.4,255.5,93.9z"/>
	</g>
	<path class="st2" d="M450.2,47.8c-27.5,17.4-45.4,48.6-43.7,83.9c2.3,48.2,41.6,87,89.8,88.9c53.3,2.1,97.3-40.7,97.3-93.5
		c0-33.6-17.9-63.2-44.6-79.7C532,36.8,520.6,19.4,517.3,0h-34.6C479.2,19.6,467.4,36.9,450.2,47.8z"/>
	<ellipse transform="matrix(0.9239 -0.3827 0.3827 0.9239 -10.546 201.0099)" class="st2" cx="500" cy="127" rx="93.6" ry="93.6"/>
	<ellipse transform="matrix(0.9239 -0.3827 0.3827 0.9239 -10.546 201.0098)" class="st3" cx="500" cy="127" rx="76.7" ry="76.7"/>
	<path class="st1" d="M1000,84.1h-79.7l-8.1-17c-1.2-2.4-3.6-4-6.3-4h-40.4c-2.7,0-5.2,1.5-6.3,4l-34,71.2H631.4l-9.1-19
		c-1.2-2.4-3.6-4-6.3-4h-25l-5.7-11.9c-1.2-2.4-3.6-4-6.3-4h-27.1c-2.7,0-5.2,1.6-6.3,4l-5.7,11.9H418.4c-2.7,0-5.2,1.6-6.3,4
		l-9.1,19H287.8L273,107.1c-1.2-2.4-3.6-4-6.3-4h-27.1c-2.7,0-5.2,1.5-6.3,4l-3.1,6.6L207.8,67c-1.2-2.4-3.6-4-6.3-4h-40.4
		c-2.7,0-5.2,1.5-6.3,4l-14.9,31.2l-3.9-8.3c-1.2-2.4-3.6-4-6.3-4H75L70,75.6c-1.2-2.4-3.6-4-6.3-4H0V240h1000V84.1z"/>
	<ellipse transform="matrix(0.9239 -0.3827 0.3827 0.9239 -10.546 201.0098)" class="st1" cx="500" cy="127" rx="59.7" ry="59.7"/>
	<ellipse transform="matrix(0.9239 -0.3827 0.3827 0.9239 -10.546 201.0096)" class="st4" cx="500" cy="127" rx="42.8" ry="42.8"/>
	<circle class="st5" cx="500" cy="127" r="25.9"/>
	<path class="st2" d="M647.2,5.7c0,17.5,14.2,31.7,31.7,31.7c17.5,0,31.7-14.2,31.7-31.7c0-1.9-0.2-3.8-0.5-5.7h-62.5
		C647.4,1.8,647.2,3.7,647.2,5.7z"/>
	<path class="st1" d="M239.6,5.7c0,17.5,14.2,31.7,31.7,31.7s31.7-14.2,31.7-31.7c0-1.9-0.2-3.8-0.5-5.7h-62.5
		C239.8,1.8,239.6,3.7,239.6,5.7z"/>
	<polygon class="st2" points="1000,91.1 915.9,91.1 905.9,70.1 865.4,70.1 829.6,145.2 627,145.2 616,122.2 586.6,122.2 579,106.3 
		551.9,106.3 544.3,122.2 418.4,122.2 407.4,145.2 283.4,145.2 266.7,110.2 239.5,110.2 230.1,129.9 201.5,70.1 161.1,70.1 
		139.9,114.5 129.6,93 70.6,93 63.7,78.6 0,78.6 0,270 347.8,270 337.9,290.8 696.5,290.8 686.5,270 1000,270 	"/>
	<path class="st1" d="M762.1,139.3H633.6c11.2-24.2,35.8-41.1,64.3-41.1C726.3,98.3,750.9,115.1,762.1,139.3z"/>
	<path class="st1" d="M388.5,62c-5.3,0-9.5-4.3-9.5-9.5s4.3-9.5,9.5-9.5c5.3,0,9.5,4.3,9.5,9.5S393.7,62,388.5,62z"/>
	<path class="st4" d="M388.5,58c-3.1,0-5.5-2.5-5.5-5.5s2.5-5.5,5.5-5.5c3.1,0,5.5,2.5,5.5,5.5S391.5,58,388.5,58z"/>
	<circle class="st5" cx="388.5" cy="52.5" r="2.5"/>
	<path class="st2" d="M605.5,62.5c-3.1,0-5.5-2.5-5.5-5.5c0-3.1,2.5-5.5,5.5-5.5s5.5,2.5,5.5,5.5C611,60,608.5,62.5,605.5,62.5z"/>
	<circle class="st5" cx="605.5" cy="56.9" r="2.5"/>
	<circle class="st2" cx="649.7" cy="68.2" r="2.5"/>
	<circle class="st1" cx="407.9" cy="41.2" r="2.5"/>
	<circle class="st1" cx="613.1" cy="83" r="2.5"/>
	<circle class="st2" cx="328.6" cy="53.7" r="2.5"/>
	<circle class="st1" cx="97" cy="65.8" r="2.5"/>
	<circle class="st1" cx="728" cy="65.8" r="2.5"/>
	<polygon class="st2" points="0,372.5 1000,372.5 1000,91.1 915.9,91.1 905.9,70.1 865.4,70.1 829.6,145.2 627,145.2 616,122.2 
		586.6,122.2 579,106.3 551.9,106.3 544.3,122.2 418.4,122.2 407.4,145.2 283.4,145.2 266.7,110.2 239.5,110.2 230.1,129.9 
		201.5,70.1 161.1,70.1 139.9,114.5 129.6,93 70.6,93 63.7,78.6 0,78.6 	"/>
	<polygon class="st1" points="0,196.2 164.5,205.1 150,155 0,155 	"/>
	<path class="st1" d="M125.7,173.9c0,0-89.4,9-125.7,12.6V232h155.1l9.3-26.9l-5.7-16.5L125.7,173.9z"/>
	<polygon class="st1" points="824.3,232 1000,232 1000,155 846.3,155 837.7,169.5 826.3,168.7 785.6,171.1 787.5,187.5 831.4,197.2 
		837.8,205.1 833.9,217.3 	"/>
	<g>
		<path class="st5" d="M824.3,183h-25.7v21h25.7c2,0,3.7,1.6,3.7,3.5s-1.7,3.5-3.7,3.5h-47.6v21h47.6c14.1,0,25.7-11,25.7-24.5
			C850,194,838.5,183,824.3,183z"/>
		<path class="st5" d="M817,183h-18.3c-2,0-3.7-1.6-3.7-3.5c0-1.9,1.7-3.5,3.7-3.5h47.6v-21h-47.6c-14.1,0-25.7,11-25.7,24.5
			c0,13.5,11.5,24.5,25.7,24.5H817V183z"/>
		<g>
			<rect x="692.4" y="155" class="st5" width="22" height="77"/>
			<polygon class="st5" points="765.7,232 743.7,232 714.4,184.3 736.4,184.3 			"/>
			<path class="st5" d="M740.1,155h-36.6v22h36.6c2,0,3.7,1.7,3.7,3.7c0,2-1.7,3.7-3.7,3.7h-10.2v22h10.2
				c14.1,0,25.7-11.5,25.7-25.7C765.7,166.5,754.2,155,740.1,155z"/>
			
				<rect x="227" y="155" transform="matrix(-1 -1.224647e-16 1.224647e-16 -1 475.916 386.9712)" class="st5" width="22" height="77"/>
			
				<rect x="150" y="155" transform="matrix(-1 -1.224647e-16 1.224647e-16 -1 321.9891 386.9712)" class="st5" width="22" height="77"/>
			<rect x="256.3" y="155" class="st5" width="22" height="77"/>
			<rect x="358.9" y="177" class="st5" width="22" height="55"/>
			<polygon class="st5" points="413.9,232 391.9,232 424.9,155 446.9,155 			"/>
			<polygon class="st5" points="465.2,232 487.2,232 454.2,155 432.2,155 			"/>
			<rect x="259.9" y="155" class="st5" width="66" height="18.3"/>
			<rect x="333.2" y="155" class="st5" width="73.3" height="18.3"/>
			<rect x="259.9" y="213.6" class="st5" width="66" height="18.3"/>
			<rect x="281.9" y="184.3" class="st5" width="33" height="18.3"/>
			<polygon class="st5" points="214.1,205.1 172,155 150,155 157.6,172.7 199.5,222.5 			"/>
			<polygon class="st5" points="227,155 201.9,184.8 216.5,202.2 241.4,172.7 249,155 			"/>
			
				<rect x="567.8" y="155" transform="matrix(-1 -1.224647e-16 1.224647e-16 -1 1157.5918 386.9712)" class="st5" width="22" height="77"/>
			
				<rect x="490.8" y="155" transform="matrix(-1 -1.224647e-16 1.224647e-16 -1 1003.665 386.9712)" class="st5" width="22" height="77"/>
			<polygon class="st5" points="555,205.1 512.8,155 490.8,155 498.4,172.7 540.3,222.5 			"/>
			<polygon class="st5" points="567.8,155 542.7,184.8 557.4,202.2 582.2,172.7 589.8,155 			"/>
			<polygon class="st5" points="615.4,232 593.5,232 626.4,155 648.4,155 			"/>
			<polygon class="st5" points="666.8,232 688.7,232 655.8,155 633.8,155 			"/>
			<polygon class="st5" points="670.4,217.3 670.4,199 633.6,199 625.7,217.3 			"/>
			<polygon class="st5" points="468.8,217.3 468.8,199 432,199 424.1,217.3 			"/>
		</g>
	</g>
	<polygon class="st1" points="697.8,63.9 706.7,107.7 689,107.7 	"/>
	<ellipse class="st1" cx="697.8" cy="82.1" rx="19.8" ry="4.1"/>
	<rect x="347.9" class="st5" width="6.2" height="74.2"/>
	<path class="st1" d="M344,113.8l-25.9-0.1c0,0-4.8,18.3,5.9,30.7c0,0-19.8-7.5-17.6-49.4l36.4,4.6L344,113.8z"/>
	<path class="st1" d="M357.4,113.8l25.9-0.1c0,0,4.8,18.3-5.9,30.7c0,0,19.8-7.5,17.6-49.4l-36.4,4.6L357.4,113.8z"/>
	<path class="st4" d="M378.7,145.2c-3.3-12.3-14.4-21.3-27.7-21.3c-13.3,0-24.4,9-27.7,21.3H378.7z"/>
	<rect x="347.9" y="112.5" class="st5" width="6.2" height="29.6"/>
	<path class="st1" d="M336.2,95.9c0,7.9,1.4,15.5,4.1,22.5h21.5c2.6-7,4.1-14.6,4.1-22.5c0-15.6-5.6-29.8-14.8-40.9
		C341.8,66,336.2,80.3,336.2,95.9z"/>
	<path class="st4" d="M342.3,95.9c0,7.9,0.9,15.5,2.4,22.5h12.7c1.6-7,2.4-14.6,2.4-22.5c0-15.6-3.3-29.8-8.8-40.9
		C345.6,66,342.3,80.3,342.3,95.9z"/>
	<path class="st5" d="M351,55c-4,4.8-7.4,10.3-9.9,16.1h19.7C358.4,65.2,355.1,59.8,351,55z"/>
	<path class="st5" d="M369,145.2c-2.1-8-9.3-13.8-18-13.8c-8.6,0-15.8,5.9-18,13.8H369z"/>
	<path class="st1" d="M368.5,86.7h-35c-1.8,0-3.3-1.5-3.3-3.3v0c0-1.8,1.5-3.3,3.3-3.3h35c1.8,0,3.3,1.5,3.3,3.3v0
		C371.8,85.2,370.3,86.7,368.5,86.7z"/>
	<polygon class="st5" points="693.1,113.8 688.5,121.9 693.1,130 702.5,130 707.2,121.9 702.5,113.8 	"/>
	<path class="st4" d="M743.4,123.6L743.4,123.6l-4.8,8.1l4.7,8.1h9.4l1.2-2.1C750.9,132.6,747.4,127.8,743.4,123.6z"/>
	<path class="st4" d="M685.9,119.9l4.7-8.1l-4-7c-4.5,0.8-8.9,2.2-13.1,4l-1.7,3l4.7,8.1H685.9z"/>
	<path class="st4" d="M702.5,109.5l3-5.2c-2.5-0.3-5.1-0.5-7.7-0.5c-2.6,0-5.2,0.2-7.7,0.5l3,5.2H702.5z"/>
	<path class="st4" d="M726.6,130h9.4l4.7-8.1l-1-1.8c-2.6-2.3-5.4-4.4-8.3-6.3h-4.7l-4.7,8.1L726.6,130z"/>
	<path class="st4" d="M709.8,119.9h9.4l4.7-8.1l-1.7-3c-4.2-1.8-8.5-3.1-13.1-4l-4,7L709.8,119.9z"/>
	<path class="st4" d="M669,130l4.7-8.1l-4.7-8.1h-4.7c-2.9,1.9-5.7,4-8.3,6.3l-1,1.8l4.7,8.1H669z"/>
	<polygon class="st5" points="719.2,123.6 709.8,123.6 705.1,131.8 709.8,139.9 719.2,139.9 723.9,131.8 	"/>
	<polygon class="st5" points="726.6,133.3 721.9,141.4 724.1,145.2 738.5,145.2 740.7,141.4 736,133.3 	"/>
	<polygon class="st5" points="693.1,133.3 688.5,141.4 690.6,145.2 705.1,145.2 707.2,141.4 702.5,133.3 	"/>
	<polygon class="st5" points="685.9,123.6 676.5,123.6 671.8,131.8 676.5,139.9 685.9,139.9 690.6,131.8 	"/>
	<polygon class="st5" points="659.7,133.3 655,141.4 657.1,145.2 671.6,145.2 673.7,141.4 669,133.3 	"/>
	<path class="st4" d="M652.4,123.6L652.4,123.6c-4.1,4.2-7.7,8.9-10.6,14.1l1.2,2.1h9.4l4.7-8.1L652.4,123.6z"/>
	<path class="st1" d="M780.1,144.5L780.1,144.5c-1.9,0-3.4-1.5-3.4-3.4v-19.5c0-1.9,1.5-3.4,3.4-3.4h0c1.9,0,3.4,1.5,3.4,3.4v19.5
		C783.5,143,781.9,144.5,780.1,144.5z"/>
	<path class="st1" d="M804.7,144.5L804.7,144.5c-1.9,0-3.4-1.5-3.4-3.4v-19.5c0-1.9,1.5-3.4,3.4-3.4l0,0c1.9,0,3.4,1.5,3.4,3.4v19.5
		C808.1,143,806.5,144.5,804.7,144.5z"/>
	<path class="st2" d="M74.7,159H0v12.7h80.8L74.7,159z M83.4,176.3H0v12.7h89.4L83.4,176.3z M91.7,193.8H0v12.7h97.8L91.7,193.8z
		 M100,211.2H0V224h106.1L100,211.2z"/>
	<path class="st1" d="M64.1,136.7H0v12.7h70.2L64.1,136.7z M55.8,119.3H0V132h61.9L55.8,119.3z M47.5,101.8H0v12.7h53.5L47.5,101.8z
		"/>
	<polygon class="st2" points="80.8,185 89.4,189.1 74.7,159 69.7,162.3 	"/>
	<polygon class="st2" points="97.4,219.9 106.1,224 91.6,193.8 86.6,197.1 	"/>
	<polygon class="st2" points="61.1,202.8 68.8,204.8 55,176.8 49.9,180.1 	"/>
	<polygon class="st1" points="40.9,175.1 58.2,209.2 64.6,209.2 47.3,175.1 	"/>
	<polygon class="st1" points="63.5,147.6 70.2,149.5 55.8,119.3 51,121.4 	"/>
	<polygon class="st2" points="35.2,150.5 42,152.4 24.3,115.2 19.5,117.3 	"/>
	<polygon class="st1" points="33.3,122 27.5,122 38.6,145.4 45.4,147.2 	"/>
	<polygon class="st1" points="84,136.7 70.8,136.7 76.9,149.5 90,149.5 	"/>
	<polygon class="st1" points="916,136.7 929.2,136.7 923.1,149.5 910,149.5 	"/>
	<path class="st2" d="M893.9,224H1000v-12.7H900L893.9,224z M925.3,159l-6.1,12.7h80.8V159H925.3z M902.2,206.5h97.8v-12.7h-91.7
		L902.2,206.5z M910.6,189.1h89.4v-12.7h-83.4L910.6,189.1z"/>
	<g>
		<polygon class="st1" points="944.2,119.3 938.1,132 1000,132 1000,119.3 		"/>
		<polygon class="st1" points="1000,136.7 935.9,136.7 929.8,149.5 1000,149.5 		"/>
		<polygon class="st1" points="952.5,101.8 946.5,114.6 1000,114.6 1000,101.8 		"/>
	</g>
	<polygon class="st2" points="919.2,185 910.6,189.1 925.3,159 930.3,162.3 	"/>
	<polygon class="st2" points="902.6,219.9 893.9,224 908.4,193.8 913.4,197.1 	"/>
	<polygon class="st2" points="938.9,202.8 931.2,204.8 945,176.8 950.1,180.1 	"/>
	<polygon class="st1" points="959.1,175.1 941.8,209.2 935.4,209.2 952.7,175.1 	"/>
	<polygon class="st1" points="936.5,147.6 929.8,149.5 944.2,119.3 949,121.4 	"/>
	<polygon class="st2" points="964.8,150.5 958,152.4 975.7,115.2 980.5,117.3 	"/>
	<polygon class="st1" points="966.7,122 972.5,122 961.4,145.4 954.6,147.2 	"/>
	<path class="st4" d="M1000,240.3C1000,240.3,1000,240.3,1000,240.3l-72.9,41l-36.4-20.5c-5.3-3-11.6-4.6-18.1-4.6H747.3
		c-6.5,0-12.8,1.6-18.1,4.6l-75.6,42.5l35.5,27.9c-5.3-3-11.6-4.6-18.1-4.6H490.6c-6.5,0-12.8,1.6-18.1,4.6l-101.3,16.4l-21.9-56.9
		c-5.3-3-11.6-4.6-18.1-4.6H185.8L141,260.9c-5.3-3-11.6-4.6-18.1-4.6H55.8c-6.5,0-12.8,1.6-18.1,4.6L0,282.1v135.8h1000V240.3z"/>
	<path class="st4" d="M355.8,290.6c-5.3-3-11.6-4.6-18.1-4.6h-88.6v96.7h233.6L422.2,328L355.8,290.6z"/>
	<path class="st4" d="M719.8,293.7H495.5c-7.1,0-14.1,1.8-19.9,5.1l-106.4,59.8l-1.1,10.2h371.3l-54.1-56l54.4-14
		C733.9,295.5,726.9,293.7,719.8,293.7z"/>
	<path class="st4" d="M479.1,346.8l-33.9,5.7l-31.6-5.7l13.4-34.5c3.1-8,10.8-13.3,19.4-13.3h0c8.6,0,16.3,5.3,19.4,13.3
		L479.1,346.8z"/>
	<path class="st4" d="M407.1,334.4l-29.4,4.9l-27.4-4.9l11.6-29.9c2.7-6.9,9.4-11.5,16.8-11.5l0,0c7.4,0,14.1,4.6,16.8,11.5
		L407.1,334.4z"/>
	<path class="st4" d="M667.2,328.3l-29.4,7.9l-31.9-7.9l12.5-32.3c2.9-7.5,10.1-12.4,18.2-12.4l0,0c8,0,15.3,4.9,18.2,12.4
		L667.2,328.3z"/>
	<polygon class="st2" points="452.1,350.9 371,350.9 393.9,262.2 429.2,262.2 	"/>
	<path class="st4" d="M452.1,350.9l-42,7l-39.1-7l16.5-42.7c3.8-9.9,13.4-16.5,24-16.5h0c10.6,0,20.2,6.5,24,16.5L452.1,350.9z"/>
	<polygon class="st2" points="699.2,315.3 644.5,315.3 659.9,255.5 683.7,255.5 	"/>
	<path class="st4" d="M699.2,315.3l-26.2,7l-28.5-7l11.1-28.8c2.6-6.7,9-11.1,16.2-11.1l0,0c7.2,0,13.6,4.4,16.2,11.1L699.2,315.3z"
		/>
	<circle class="st5" cx="579.8" cy="389.3" r="13.4"/>
	<circle class="st5" cx="501.5" cy="389.3" r="13.4"/>
	<path class="st5" d="M484.7,392c-17.7,0-32,14.3-32,32c0,3.3,0.5,6.4,1.4,9.4h61.3c0.9-3,1.4-6.1,1.4-9.4
		C516.8,406.3,502.4,392,484.7,392z"/>
	<circle class="st5" cx="439.9" cy="411" r="20.8"/>
	<path class="st5" d="M553.9,351c0,0.2,0,0.3,0,0.5C553.9,351.4,553.9,351.2,553.9,351L553.9,351z M575.4,383l-2.5-5.1
		c-1.7,1.9-3.7,2.9-5.8,2.9c-7.3,0-13.2-21.1-13.2-37.3c0,16.2-5.9,37.3-13.2,37.3s-13.2-21.1-13.2-37.3c0,16.2-5.9,37.3-13.2,37.3
		c-1.3,0-2.6-0.4-3.7-1.2l-7.7,13.3c0,0,0,24.4-0.2,25c-0.2,0.6,17.6,2.3,17.6,2.3l37.5-7l21.4-22.5L575.4,383z"/>
	<path class="st5" d="M738.1,299.5c-0.7,0-1.3,0.6-1.3,1.3v28.1c0,0.7,0.6,1.3,1.3,1.3s1.3-0.6,1.3-1.3v-28.1
		C739.4,300.1,738.8,299.5,738.1,299.5z"/>
	<path class="st5" d="M753.7,298.3c-0.7,0-1.3,0.6-1.3,1.3v28.1c0,0.7,0.6,1.3,1.3,1.3s1.3-0.6,1.3-1.3v-28.1
		C755,298.8,754.4,298.3,753.7,298.3z"/>
	<path class="st5" d="M790.1,430.5c-4.5-0.1-8.8-1.3-12.7-3.5c-0.7,0.8-1.6,1.5-2.7,1.8c-0.6,0.2-1.2,0.3-1.8,0.3
		c-1.1,0-2.2-0.3-3.1-0.8l-1.3,0.4c-0.4,0.1-0.8,0.2-1.2,0.2c-1.7,0-3.3-1.1-3.8-2.8c-1.1-3.4-1.9-6.8-2.5-10
		c-1.2,0.2-2.4,0.3-3.6,0.4c0,0-0.1,0-0.1,0c-1.7,0-3.2-1-3.8-2.6c-0.6-1.6-0.1-3.4,1.2-4.5c2.3-1.9,4.2-4.3,5.4-7.1
		c0.2-3.2,0.7-6.5,1.4-9.6c-0.4-3.1-1.5-6.1-3.3-8.6c-3.5-4.9-9.2-7.9-15.3-7.9c-0.2,0-0.4,0-0.6,0c0,0-0.1,0-0.1,0
		c-1.7,0-3.2-1-3.8-2.6c-0.6-1.6-0.1-3.4,1.2-4.5c0.4-0.4,0.9-0.7,1.3-1c4.5-3.2,9.8-4.9,15.3-4.9c6.3,0,12.3,2.2,17.1,6.2
		c3-3.7,6.5-7.4,10.8-11.3l-3.2-9.3c-0.5-1.5-0.1-3.1,1-4.2c0.8-0.8,1.8-1.2,2.8-1.2c0.5,0,0.9,0.1,1.4,0.2l10.5,3.8
		c1.5-1.2,2.9-2.5,4.4-3.7l-1.4-3.3c-0.6-1.4-0.3-3.1,0.7-4.2c0.8-0.9,1.9-1.3,3-1.3c0.4,0,0.8,0.1,1.2,0.2l4.4,1.3
		c0.3-0.4,0.7-0.7,1-1.1l-5.9-8.7c-0.9-1.3-0.9-3.1,0-4.5c0.8-1.1,2-1.8,3.3-1.8c0.3,0,0.5,0,0.8,0.1l8.6,1.7c0.1-1.1,0-2.3-0.1-3.5
		c-1.1-7.6-4.1-13.3-9-16.9c0.5,2,0.6,4,0.5,6c-0.8,9.1-8.1,14.8-8.5,15c-0.7,0.5-1.6,0.8-2.4,0.8c-0.7,0-1.4-0.2-2.1-0.6
		c-1.4-0.9-2.1-2.5-1.9-4.1c0.2-0.9,0-1.8-0.4-2.8c-3.3,7.2-9.4,10.6-9.8,10.8c-0.6,0.3-1.3,0.5-1.9,0.5c-1,0-2-0.4-2.7-1.1
		c-1.3-1.2-1.6-3-0.9-4.6c0.8-1.7,0.8-3.5,0.3-5.7c-6.5,4.8-14.4,7.4-22.5,7.4c-8,0-15.6-2.4-22.1-7.1c-0.6,0.2-1.2,0.3-1.8,0.5
		c-0.9,0.2-1.9,0.4-2.8,0.4c-4.8,0-9-3.2-10.2-7.8c-0.9-3.3-0.2-6.8,1.9-9.4c0-0.1,0-0.3,0-0.4c-0.1-3.6,1.3-6.8,3.5-8.9
		c-3.9-1.1-6.7-4.7-7.3-9.1c-4.1-1.5-7-5.4-7-10c0-5.8,4.8-10.6,10.6-10.6c0.9,0,1.8,0.1,2.7,0.4c0.9,0.2,1.8,0.5,2.7,0.7
		c7.2-9.2,18.2-14.6,29.9-14.6c8.1,0,16.1,2.7,22.5,7.4c0.4-2.3,0.4-4-0.3-5.7c-0.7-1.6-0.3-3.4,0.9-4.6c0.8-0.7,1.7-1.1,2.7-1.1
		c0.6,0,1.3,0.2,1.9,0.5c0.4,0.2,6.5,3.6,9.8,10.8c0.4-1,0.5-1.9,0.4-2.8c-0.3-1.6,0.5-3.3,1.9-4.1c0.6-0.4,1.4-0.6,2.1-0.6
		c0.9,0,1.7,0.3,2.4,0.8c0.3,0.3,8.4,6.5,8.5,16.3c0.1,4.9-1.7,9.6-5.4,14.1c6.1,1.5,11.6,3.9,16.2,7.3c1.3,0.9,2.6,2,3.7,3.1l5-1.1
		c0.3-0.1,0.6-0.1,0.8-0.1c1.3,0,2.5,0.6,3.2,1.6c0.9,1.3,1,3,0.2,4.4l-2.2,3.8c1.7,2.8,3.1,5.8,4.1,9l11.7,2.2
		c1.6,0.3,2.9,1.6,3.2,3.3s-0.5,3.3-2,4.1l-10.4,5.8c0,1.6-0.2,3.2-0.4,4.7l3.7,3.1c1.2,1.1,1.7,2.8,1.2,4.3
		c-0.5,1.6-1.9,2.6-3.6,2.7l-4.8,0.3c-2.4,4.7-5.9,9.3-10.8,14.3l3.7,8.1c0.7,1.4,0.4,3.1-0.6,4.3c-0.8,0.9-1.9,1.4-3,1.4
		c-0.4,0-0.8-0.1-1.2-0.2l-10.5-3.2c-0.7,0.6-1.5,1.2-2.2,1.8c-2.3,1.9-4.6,3.9-6.9,5.8l0.6,1.7c0.5,1.4,0.2,2.9-0.8,4
		c2.4,0.9,4.6,2,6.8,3.5c0.5,0.4,1,0.7,1.4,1.1c1.3,1.1,1.8,2.9,1.2,4.5c-0.6,1.6-2.1,2.6-3.8,2.6c0,0-0.1,0-0.1,0
		c-0.2,0-0.4,0-0.7,0c-6.7,0-13,3.3-16.8,8.7c-6.2,8.9-4.5,21.1,3.9,27.9c1.3,1.1,1.8,2.9,1.2,4.5c-0.6,1.6-2.1,2.6-3.8,2.6
		C790.2,430.5,790.1,430.5,790.1,430.5z"/>
	<path class="st0" d="M767.3,424.9c-12-37.9,11.6-57.5,30.6-73.3c15.2-12.7,24.5-21.1,22.7-33.4c-1.2-8.8-4.9-15.4-10.7-19.7
		c-11.9-8.6-29.6-5.5-29.8-5.5l-2.1-11.5c0.9-0.2,22.7-4.1,38.7,7.4c8.6,6.2,13.8,15.4,15.5,27.5c2.7,19.4-12.3,31.9-26.8,44
		c-18.8,15.7-36.6,30.5-27,60.9L767.3,424.9z"/>
	<g>
		<path class="st0" d="M784.5,282.1c0,0-6.9-8.8-5.4-16.1c1.5-7.3,4.6-12.8,2-18.5C781.1,247.5,800.6,258,784.5,282.1z"/>
		<path class="st0" d="M784.5,288.7c0,0-6.9,8.8-5.4,16.1c1.5,7.3,4.6,12.8,2,18.5C781.1,323.4,800.6,312.9,784.5,288.7z"/>
	</g>
	<path class="st2" d="M755.3,251.4c-14,0-26.1,8.5-31.3,20.6l29.7,4.3l7.7,18.8l-2.8,8.8c0,0-14.3,2.3-28.4,4.4
		c6.2,6.8,15.2,11.1,25.1,11.1c18.8,0,34-15.2,34-34C789.3,266.6,774.1,251.4,755.3,251.4z"/>
	<path class="st4" d="M729.7,300.6c0.1,3.1-4.4,3.8-5.2,0.7c-0.1-0.6-0.2-1.2-0.3-1.9c-0.1-3.8,2.2-7,5.2-7.2L729.7,300.6z"/>
	<path class="st2" d="M748.8,284.8c0.1-0.6,3.4-2.7,5.4,0.1c2.1,2.8,1.2-6.5,1.2-6.5l-5.6-1.3l-2.2,3.2L748.8,284.8z"/>
	<path class="st2" d="M736.6,296.1c0.1,1.4,2.7,2,3.2,1.2c0.5-0.8,4.3-1.9,4.7-0.3s2.7,1.3,3,0.1c0.3-1.2,3.9-2.5,4.1-0.3
		c0.2,2.1,5.9,2.3,5.8-1.2c-0.1-3.6,4.2,4.9,4.2,4.9s-7.9,5.2-8.3,5.1c-0.4-0.1-16.6,2.4-16.9,2.4c-0.3,0-4.7-6.6-4.5-6.9
		C732.2,301,736.6,296.1,736.6,296.1z"/>
	<path class="st2" d="M725.9,283.5c0.1-1.5,2.3-2.5,3.6-1.6c1.2,1,4.2,3.2,4.5,2.3c0.3-0.9,1.7-3,3.9-1.8s3.6,2.7,3.8,1.9
		s2.5-2.7,4.1-1.1c1.6,1.6,0.5-7,0.5-7l-21.5-3.7l-2,7.2L725.9,283.5z"/>
	<ellipse transform="matrix(0.6564 -0.7544 0.7544 0.6564 51.673 646.1691)" class="st4" cx="735.3" cy="266.4" rx="4.8" ry="3.3"/>
	<path class="st0" d="M721.7,265.2c2.3,0.6,4.7,1.2,7,1.7c2.4,0.5,4.7,1,7.1,1.5c2.4,0.5,4.7,1,7.1,1.4l7.1,1.3l-0.6,0
		c2.5,0,4.9,1,6.7,2.4c1.8,1.3,3.1,3,4.1,4.7c0.5,0.9,0.9,1.7,1.2,2.6c0.2,0.4,0.3,0.9,0.5,1.3l0.3,1.1l1.2,4.3l1.3,4.3l0.6,2.1
		l0.2,0.7c0.1,0.3,0.1,0.5,0.2,0.8c0.1,0.5,0.2,1.1,0.2,1.6c0.1,2.2-0.2,4.4-1.4,6.5c-0.6,1.1-1.3,2.1-2.5,3.1
		c-1.2,0.9-2.9,1.6-4.6,1.6l0.4,0c-4.6,0.6-9.2,1.2-13.8,2c-2.3,0.4-4.6,0.8-6.9,1.3c-2.3,0.5-4.6,1-6.8,1.6c-3.5,1-7.2-1.1-8.1-4.6
		c-1-3.5,1.1-7.2,4.6-8.1c0.7-0.2,1.5-0.3,2.2-0.2c2.4,0.2,4.7,0.3,7,0.3c2.3,0.1,4.7,0,7,0c4.7-0.1,9.3-0.3,13.9-0.6l0.4,0
		c-0.2,0-0.5,0.1-0.5,0.2c0,0,0.1-0.1,0.3-0.3c0.3-0.5,0.5-1.3,0.4-2.1c0-0.2,0-0.4-0.1-0.6l-0.1-0.3l-0.1-0.4l-0.7-2.1l-1.3-4.2
		l-1.3-4.2l-0.3-1c-0.1-0.3-0.2-0.5-0.3-0.8c-0.2-0.5-0.5-1-0.7-1.4c-0.5-0.8-1.2-1.5-1.8-1.9c-0.6-0.4-1.2-0.5-1.6-0.5
		c-0.1,0-0.1,0-0.2,0l-0.4,0l-7.2-0.6c-2.4-0.2-4.8-0.4-7.2-0.5c-2.4-0.2-4.8-0.3-7.2-0.4c-2.4-0.1-4.8-0.2-7.2-0.2
		c-3.6,0-6.6-3-6.6-6.6s3-6.6,6.6-6.6C720.6,265,721.2,265.1,721.7,265.2z"/>
	<path class="st4" d="M726.3,278c0.3-3.4-4.6-4.3-5.6-1c-0.2,0.6-0.3,1.3-0.4,2c-0.3,4.1,2.1,7.6,5.3,8L726.3,278z"/>
	<path class="st4" d="M734.6,278.5c0.2-3.3-4.5-4.2-5.5-1c-0.2,0.6-0.3,1.3-0.4,1.9c-0.3,4,2,7.5,5.2,7.8L734.6,278.5z"/>
	<path class="st4" d="M742.1,279.6c0.2-3-4.1-3.8-5-0.9c-0.2,0.6-0.3,1.2-0.3,1.8c-0.3,3.7,1.8,6.8,4.7,7.1L742.1,279.6z"/>
	<path class="st4" d="M749.4,280.2c0.2-2.8-3.9-3.6-4.7-0.9c-0.2,0.5-0.3,1.1-0.3,1.7c-0.3,3.4,1.7,6.4,4.4,6.7L749.4,280.2z"/>
	<path class="st4" d="M737,300.2c0.1,3.5-5,4.3-5.8,0.8c-0.2-0.7-0.3-1.4-0.3-2.1c-0.1-4.3,2.5-7.8,5.9-8.1L737,300.2z"/>
	<ellipse transform="matrix(0.3852 -0.9228 0.9228 0.3852 228.1133 871.9033)" class="st4" cx="768.4" cy="264.8" rx="5.6" ry="8"/>
	
		<ellipse transform="matrix(0.9614 -0.2752 0.2752 0.9614 -43.1524 215.8995)" class="st4" cx="747.8" cy="261.7" rx="6.3" ry="4.4"/>
	
		<ellipse transform="matrix(0.8275 -0.5614 0.5614 0.8275 -35.6484 487.0272)" class="st0" cx="774.9" cy="301.5" rx="6.3" ry="4.4"/>
	
		<ellipse transform="matrix(0.9442 -0.3293 0.3293 0.9442 -59.7331 269.9586)" class="st0" cx="766.9" cy="311.3" rx="4.2" ry="2.9"/>
	
		<ellipse transform="matrix(0.2168 -0.9762 0.9762 0.2168 328.2442 987.9061)" class="st0" cx="779.8" cy="289.4" rx="3.8" ry="2.7"/>
	
		<ellipse transform="matrix(0.6217 -0.7833 0.7833 0.6217 62.8893 715.6404)" class="st0" cx="772.3" cy="292.7" rx="2.2" ry="1.6"/>
	
		<ellipse transform="matrix(0.1565 -0.9877 0.9877 0.1565 386.463 965.2735)" class="st4" cx="758.4" cy="256.4" rx="2.4" ry="3.4"/>
	<ellipse transform="matrix(0.8918 -0.4524 0.4524 0.8918 -39.8637 382.0893)" class="st4" cx="779" cy="274.4" rx="2.8" ry="4"/>
	<g>
		<path class="st0" d="M788.3,285.4c0,0-5.4-10.4-0.7-17c4.7-6.6,10.6-11,9.5-17.2C797.1,251.2,817.6,266.9,788.3,285.4z"/>
		<path class="st0" d="M788.3,285.4c0,0-5.4,10.4-0.7,17c4.7,6.6,10.6,11,9.5,17.2C797.1,319.6,817.6,303.9,788.3,285.4z"/>
	</g>
	<polygon class="st0" points="788.3,285.4 789.9,280 796.3,286.9 791.9,293.9 	"/>
	
		<ellipse transform="matrix(0.9923 -0.1242 0.1242 0.9923 -33.1825 96.6397)" class="st0" cx="758.5" cy="314.5" rx="2.2" ry="1.6"/>
	<polygon class="st0" points="790.3,363.2 784.8,347.3 801.8,353.9 	"/>
	<polygon class="st3" points="784.8,347.3 798.2,358.6 797.1,351.8 	"/>
	<polygon class="st0" points="808.7,357.1 821.8,361.1 815.7,348.4 807.8,352.5 	"/>
	<polygon class="st0" points="816.2,337.6 807.3,324.4 823.1,327.5 	"/>
	<polygon class="st0" points="826.6,309.1 844.9,312.6 829.3,321.3 	"/>
	<polygon class="st3" points="807.3,324.4 822.4,333.3 820,326.9 	"/>
	<polygon class="st3" points="844.9,312.6 828,315.3 830.5,309.9 	"/>
	<polygon class="st3" points="821.8,361.1 816.7,350.1 813.5,353.6 	"/>
	<g>
		<path class="st3" d="M772.8,425.1c-0.8,0-1.6-0.5-1.9-1.4c-11.2-35.4,10.4-53.4,29.4-69.2c14.1-11.7,26.2-21.8,24.1-36.9
			c-1.4-10.2-5.8-17.9-13.1-22.8c-0.9-0.6-1.2-1.9-0.5-2.8c0.6-0.9,1.9-1.2,2.8-0.5c8.2,5.5,13.2,14.1,14.8,25.5
			c2.4,17.3-11.1,28.6-25.5,40.5c-19,15.8-38.6,32.1-28.2,65c0.3,1.1-0.2,2.2-1.3,2.5C773.2,425.1,773,425.1,772.8,425.1z"/>
	</g>
	<g>
		<path class="st3" d="M806.8,292.1c-0.3,0-0.5-0.1-0.8-0.2c-1.8-0.8-3.8-1.4-5.8-1.9c-1.1-0.3-1.7-1.4-1.5-2.4
			c0.3-1.1,1.4-1.7,2.4-1.5c2.3,0.6,4.4,1.3,6.4,2.2c1,0.4,1.5,1.6,1,2.6C808.4,291.7,807.6,292.1,806.8,292.1z"/>
	</g>
	<path class="st0" d="M743.4,371.3c-0.4,0.3-0.8,0.6-1.1,0.9c7.4-0.2,14.7,3.1,19.3,9.6c6.9,9.8,5,23.3-4.3,30.7
		c4.3-0.1,8.6-1.5,12.3-4.1c10.2-7.2,12.7-21.4,5.4-31.6C767.7,366.5,753.6,364,743.4,371.3z"/>
	<path class="st0" d="M805.2,381.8c0.4,0.3,0.8,0.6,1.2,0.9c-8-0.3-15.9,3.4-20.9,10.4c-7.5,10.7-5.4,25.2,4.7,33.3
		c-4.6-0.2-9.3-1.6-13.4-4.5c-11.1-7.8-13.7-23.2-5.9-34.3S794.1,374,805.2,381.8z"/>
	<polygon class="st0" points="806.2,345.7 803.3,338.8 811.6,341.4 	"/>
	<polygon class="st0" points="830.7,327.4 837.1,332.8 828.5,333.3 	"/>
	<polygon class="st0" points="820.4,293.3 828.5,291.6 824.3,298.7 	"/>
	<polygon class="st0" points="795.7,366.5 797.8,372.4 791.2,371 	"/>
	<path class="st0" d="M787.6,302.4c0,0-10-11.6,1.2-18l3.8,9L787.6,302.4z"/>
	<path class="st0" d="M787.6,268.4c0,0-10,11.6,1.2,18l3.8-9L787.6,268.4z"/>
	<path class="st5" d="M746,340.7L746,340.7c-0.7,0-1.3-0.6-1.3-1.3v-41.8c0-0.7,0.6-1.3,1.3-1.3l0,0c0.7,0,1.3,0.6,1.3,1.3v41.8
		C747.3,340.2,746.7,340.7,746,340.7z"/>
	<path class="st5" d="M746,343.9L746,343.9c-0.7,0-1.3-0.6-1.3-1.3v-41.8c0-0.7,0.6-1.3,1.3-1.3l0,0c0.7,0,1.3,0.6,1.3,1.3v41.8
		C747.3,343.3,746.7,343.9,746,343.9z"/>
	<path class="st5" d="M746,350.3c-0.7,0-1.3,0.6-1.3,1.3v2.5c0,0.7,0.6,1.3,1.3,1.3s1.3-0.6,1.3-1.3v-2.5
		C747.3,350.9,746.7,350.3,746,350.3z"/>
	<path class="st4" d="M744.8,300.1c0.1,3.2-4.6,3.9-5.3,0.8c-0.2-0.6-0.2-1.2-0.3-1.9c-0.1-3.9,2.3-7.2,5.3-7.4L744.8,300.1z"/>
	<path class="st4" d="M751.9,299.9c0.1,2.8-4,3.4-4.7,0.7c-0.1-0.5-0.2-1.1-0.2-1.7c-0.1-3.4,2-6.3,4.7-6.5L751.9,299.9z"/>
	<path class="st5" d="M738.1,317.5l0.3,10.2l1,0.3v-1.2c0-1.5,1.2-2.7,2.7-2.7s2.7,1.2,2.7,2.7v2.7l1.2,0.3l0.3-10L738.1,317.5z"/>
	<polygon class="st0" points="881.4,399.9 833,399.9 849.9,379.9 864.5,379.9 	"/>
	<polygon class="st0" points="80.5,399.9 32.1,399.9 49,379.9 63.6,379.9 	"/>
	<polygon class="st0" points="737.7,392.8 714.5,392.8 722.6,383.2 729.6,383.2 	"/>
	<path class="st5" d="M364.9,392.5c-10.4,0-19.5-8-22.3-19.2h-5.8c-2.3,0-4.4-1.1-5.8-2.8c-1.9,12.5-11.4,22-22.9,22h-4.8
		c-10.4,0-19.5-8-22.3-19.2h-3.4c-3.1,0-5.8-2-6.9-4.7c-1.1,2.8-3.7,4.7-6.9,4.7h-3.4c-2.8,11.1-11.9,19.2-22.3,19.2h-4.8
		c-11.5,0-21-9.5-22.9-22c-1.4,1.7-3.4,2.8-5.8,2.8h-5.8c-2.8,11.1-11.9,19.2-22.3,19.2h-4.8c-12.8,0-23.3-11.9-23.3-26.5
		c0-14.6,10.4-26.5,23.3-26.5h4.8c5.7,0,11.2,2.4,15.5,6.7l0.1,0.1c0.2,0.2,0.3,0.3,0.5,0.5l-3.5-17.3c-0.6-3.1,0.2-6.2,2.1-8.6
		c2-2.4,4.9-3.8,8-3.8h4.8l3.1-5.2c4-6.5,11-10.8,18.6-11.3c-1.4-1.8-2.2-4.1-2.2-6.5c0-5.9,4.8-10.7,10.7-10.7h36.9
		c3.4,0,6.5,1.6,8.5,4.1h14.6c3.6,0,6.6,3,6.6,6.6c0,3.2-2.3,5.9-5.4,6.5h1.6c2.6,0,5.2,1.1,7,2.9l13.4,13.6h18
		c6.7,0,13.1,2.6,18.3,7.4c0.6-0.1,1.2-0.1,1.7-0.1c6.8,0,12.1,6.3,12.1,14.5c0,0.2,0,0.4,0,0.7h2c5.7,0,11.2,2.4,15.5,6.7l0.1,0.1
		c0.4,0.4,0.8,0.8,1.2,1.3c0,0,0,0,0,0c0.4,0.5,0.7,0.9,1.1,1.4c3.5,4.8,5.4,10.8,5.4,17c0,14.6-10.4,26.5-23.3,26.5H364.9z"/>
	<polygon class="st0" points="638,397.5 591.7,397.5 607.9,378.3 621.9,378.3 	"/>
	<rect x="245.2" y="298.6" class="st0" width="14.3" height="10.1"/>
	<path class="st2" d="M253.8,304.5H229c-7.8,0-15.1,4.1-19.2,10.8l-6.6,10.8l65.2,8.4l10.3-17.8L253.8,304.5z"/>
	<path class="st0" d="M319.2,324.5h-62.8l-2.5-20H297c1.6,0,3,0.6,4.1,1.7L319.2,324.5z"/>
	<path class="st2" d="M256.3,324.5l-2.5-20h-26.3c-6.9,0-13.3,3.6-16.9,9.5l-7.4,12.1l65.2,8.4l5.8-10H256.3z"/>
	<path class="st0" d="M208.9,322.3h7.3c1.8-8.4,8.4-14.9,19.2-14.9h15.7l2.2,17.4c0.2,1.5,1.4,2.6,2.9,2.6h12.8l-2.2,3.9l-57.2-7.4
		C209,323.8,208.6,323,208.9,322.3z"/>
	<polygon class="st2" points="231.1,323.1 234.1,323.1 235.2,306.1 232.3,306.1 	"/>
	<path class="st0" d="M271.1,300.7h-20.6c-3.7,0-6.7-3-6.7-6.7l0,0c0-3.7,3-6.7,6.7-6.7h20.6c3.7,0,6.7,3,6.7,6.7l0,0
		C277.8,297.7,274.8,300.7,271.1,300.7z"/>
	<path class="st1" d="M254.9,300.7h-20.6c-3.7,0-6.7-3-6.7-6.7l0,0c0-3.7,3-6.7,6.7-6.7h20.6c3.7,0,6.7,3,6.7,6.7l0,0
		C261.6,297.7,258.6,300.7,254.9,300.7z"/>
	<path class="st0" d="M294.2,296.6h-24.9c-1.4,0-2.6-1.2-2.6-2.6l0,0c0-1.4,1.2-2.6,2.6-2.6h24.9c1.4,0,2.6,1.2,2.6,2.6l0,0
		C296.8,295.4,295.6,296.6,294.2,296.6z"/>
	<path class="st2" d="M282.6,304.5l-18.7,20h16.2l18.5-19.8c-0.5-0.1-1-0.2-1.5-0.2H282.6z"/>
	<polygon class="st4" points="290.9,304.5 283,304.5 264.2,324.5 272.2,324.5 	"/>
	<polygon class="st5" points="283.6,304.5 275.6,304.5 256.9,324.5 264.8,324.5 	"/>
	<path class="st0" d="M369.6,343.4h-4.8v11.1c-1.7,3.4-2.7,7.3-2.7,11.5c0,4.2,1,8.1,2.7,11.5v11.1h4.8c10.6,0,19.3-10.1,19.3-22.5
		C388.9,353.5,380.3,343.4,369.6,343.4z"/>
	<ellipse class="st0" cx="364.9" cy="365.9" rx="19.3" ry="22.5"/>
	<ellipse class="st0" cx="361" cy="365.9" rx="13.4" ry="16.9"/>
	<ellipse class="st0" cx="362.5" cy="365.9" rx="10.4" ry="12.7"/>
	<ellipse class="st0" cx="364.4" cy="365.9" rx="6.6" ry="8.2"/>
	<path class="st3" d="M381.2,348h-7.3c-1.3,0-2.4,1.1-2.4,2.4c0,1.3,1.1,2.4,2.4,2.4h11.3C384.1,350.9,382.8,349.3,381.2,348z"/>
	<path class="st0" d="M308.1,343.4h-4.8v11.1c-1.7,3.4-2.7,7.3-2.7,11.5c0,4.2,1,8.1,2.7,11.5v11.1h4.8c10.6,0,19.3-10.1,19.3-22.5
		C327.3,353.5,318.7,343.4,308.1,343.4z"/>
	<ellipse class="st0" cx="303.3" cy="365.9" rx="19.3" ry="22.5"/>
	<ellipse class="st0" cx="299.5" cy="365.9" rx="13.4" ry="16.9"/>
	<ellipse class="st0" cx="300.9" cy="365.9" rx="10.4" ry="12.7"/>
	<ellipse class="st0" cx="302.8" cy="365.9" rx="6.6" ry="8.2"/>
	<path class="st3" d="M319.7,348h-7.3c-1.3,0-2.4,1.1-2.4,2.4c0,1.3,1.1,2.4,2.4,2.4h11.3C322.5,350.9,321.2,349.3,319.7,348z"/>
	<path class="st0" d="M354.6,369.3h-17.8c-1.9,0-3.4-1.5-3.4-3.4v-16.8H326c-1.9,0-3.4-1.5-3.4-3.4s1.5-3.4,3.4-3.4h10.8
		c1.9,0,3.4,1.5,3.4,3.4v16.8h14.5c1.9,0,3.4,1.5,3.4,3.4S356.5,369.3,354.6,369.3z"/>
	<path class="st0" d="M295.4,369.3h-17.8c-1.9,0-3.4-1.5-3.4-3.4v-16.8h-7.4c-1.9,0-3.4-1.5-3.4-3.4s1.5-3.4,3.4-3.4h10.8
		c1.9,0,3.4,1.5,3.4,3.4v16.8h14.5c1.9,0,3.4,1.5,3.4,3.4S297.2,369.3,295.4,369.3z"/>
	<path class="st2" d="M355.6,349.2c-4.5,0-8.1-4.6-8.1-10.5c0-5.9,3.6-10.5,8.1-10.5c4.5,0,8.1,4.6,8.1,10.5
		C363.7,344.6,360.1,349.2,355.6,349.2z"/>
	<path class="st2" d="M335.5,321.1H226.8l6.6,32.7h127.4c0.1-1,0.1-2,0.1-3C360.9,334.4,349.5,321.1,335.5,321.1z"/>
	<path class="st1" d="M276.5,321.1h-77.3c-4,0-7.1,3.7-6.3,7.7l5.1,25h103.8c0.1-1,0.1-2,0.1-3C302,334.4,290.5,321.1,276.5,321.1z"
		/>
	<path class="st2" d="M198,353.7h83.4c-2-10.5-3.7-19.2-3.7-19.2h-83.6L198,353.7z"/>
	<path class="st1" d="M216.1,331.6c-9,0-16.4,8.9-16.4,19.8c0,0.7,0,1.5,0.1,2.3h32.5c0.1-0.8,0.1-1.6,0.1-2.3
		C232.5,340.5,225.1,331.6,216.1,331.6z M277.7,331.6c-9,0-16.4,8.9-16.4,19.8c0,0.7,0,1.5,0.1,2.3h32.5c0.1-0.8,0.1-1.6,0.1-2.3
		C294.1,340.5,286.7,331.6,277.7,331.6z"/>
	<path class="st3" d="M216.1,334.6c-7.4,0-13.4,7.5-13.4,16.9c0,0.8,0.1,1.6,0.1,2.3h26.5c0.1-0.8,0.1-1.5,0.1-2.3
		C229.5,342.1,223.5,334.6,216.1,334.6z M277.7,334.6c-7.4,0-13.4,7.5-13.4,16.9c0,0.8,0.1,1.6,0.1,2.3H291c0.1-0.8,0.1-1.5,0.1-2.3
		C291.1,342.1,285.1,334.6,277.7,334.6z"/>
	<g>
		<path class="st0" d="M301.7,331.2c2.2,2.9,3.9,6.3,5,10.1l3.8-1.3l1-8.8H301.7z"/>
		<ellipse class="st5" cx="311.5" cy="338.7" rx="5.2" ry="7.5"/>
	</g>
	<g>
		<path class="st0" d="M176.4,343.4h-4.8v11.1c-1.7,3.4-2.7,7.3-2.7,11.5c0,4.2,1,8.1,2.7,11.5v11.1h4.8c10.6,0,19.3-10.1,19.3-22.5
			C195.7,353.5,187.1,343.4,176.4,343.4z"/>
		<ellipse class="st0" cx="171.7" cy="365.9" rx="19.3" ry="22.5"/>
		<ellipse class="st3" cx="167.8" cy="365.9" rx="13.4" ry="16.9"/>
		<ellipse class="st0" cx="169.2" cy="365.9" rx="10.4" ry="12.7"/>
		<ellipse class="st2" cx="171.2" cy="365.9" rx="6.6" ry="8.2"/>
		<path class="st3" d="M188,348h-7.3c-1.3,0-2.4,1.1-2.4,2.4c0,1.3,1.1,2.4,2.4,2.4H192C190.9,350.9,189.5,349.3,188,348z"/>
	</g>
	<path class="st0" d="M204.5,369.3h-17.8c-1.9,0-3.4-1.5-3.4-3.4s1.5-3.4,3.4-3.4h14.5v-16.8c0-1.9,1.5-3.4,3.4-3.4h10.8
		c1.9,0,3.4,1.5,3.4,3.4s-1.5,3.4-3.4,3.4h-7.4v16.8C207.9,367.8,206.4,369.3,204.5,369.3z"/>
	<g>
		<path class="st0" d="M238,343.4h-4.8v11.1c-1.7,3.4-2.7,7.3-2.7,11.5c0,4.2,1,8.1,2.7,11.5v11.1h4.8c10.6,0,19.3-10.1,19.3-22.5
			C257.3,353.5,248.6,343.4,238,343.4z"/>
		<ellipse class="st0" cx="233.2" cy="365.9" rx="19.3" ry="22.5"/>
		<ellipse class="st3" cx="229.4" cy="365.9" rx="13.4" ry="16.9"/>
		<ellipse class="st0" cx="230.8" cy="365.9" rx="10.4" ry="12.7"/>
		<ellipse class="st2" cx="232.7" cy="365.9" rx="6.6" ry="8.2"/>
		<path class="st3" d="M249.6,348h-7.3c-1.3,0-2.4,1.1-2.4,2.4c0,1.3,1.1,2.4,2.4,2.4h11.3C252.4,350.9,251.1,349.3,249.6,348z"/>
	</g>
	<path class="st0" d="M263.8,369.3h-17.8c-1.9,0-3.4-1.5-3.4-3.4s1.5-3.4,3.4-3.4h14.5v-16.8c0-1.9,1.5-3.4,3.4-3.4h10.8
		c1.9,0,3.4,1.5,3.4,3.4s-1.5,3.4-3.4,3.4h-7.4v16.8C267.1,367.8,265.6,369.3,263.8,369.3z"/>
	<path class="st0" d="M345.8,331.2c2.2,2.9,3.9,6.3,5,10.1l3.8-1.3l1-8.8H345.8z"/>
	<ellipse class="st5" cx="355.6" cy="338.7" rx="5.2" ry="7.5"/>
	<polygon class="st0" points="166.2,388.5 147.6,388.5 128.5,403.7 109.5,388.5 92.3,388.5 92.3,437.7 166.2,437.7 	"/>
	<g>
		<circle class="st5" cx="540.5" cy="311.2" r="16.4"/>
	</g>
	<rect x="514.2" y="265.4" class="st5" width="3.8" height="16.6"/>
	<path class="st5" d="M466.9,314.6c-1.8,0-3.4-1.3-3.9-3c-1-4.1-1.6-8.9-1.6-13.4c0-9.1,2.8-18.9,10.5-18.9
		c7.8,0,10.5,9.8,10.5,18.9c0,4.5-0.6,9.3-1.6,13.4c-0.4,1.8-2,3-3.9,3H466.9z"/>
	<path class="st5" d="M607.2,314.6c-1.8,0-3.4-1.3-3.9-3c-1-4.1-1.6-8.9-1.6-13.4c0-9.1,2.8-18.9,10.5-18.9
		c7.8,0,10.5,9.8,10.5,18.9c0,4.5-0.6,9.3-1.6,13.4c-0.4,1.8-2,3-3.9,3H607.2z"/>
	<path class="st5" d="M585.2,305.3c-3.9,0-7-3.1-7-7V298c0-3.9,3.1-7,7-7h19.5c3.9,0,7,3.1,7,7v0.4c0,3.9-3.1,7-7,7H585.2z"/>
	<path class="st5" d="M478,305.3c-3.9,0-7-3.1-7-7V298c0-3.9,3.1-7,7-7h19.5c3.9,0,7,3.1,7,7v0.4c0,3.9-3.1,7-7,7H478z"/>
	<path class="st5" d="M510,314.6c-1.8,0-3.4-1.3-3.9-3c-1-4.1-1.6-8.9-1.6-13.4c0-9.1,2.8-18.9,10.5-18.9c7.8,0,10.5,9.8,10.5,18.9
		c0,4.5-0.6,9.3-1.6,13.4c-0.4,1.8-2,3-3.9,3H510z"/>
	<path class="st0" d="M520.1,310.6c0.9-3.7,1.5-8.2,1.5-12.5c0-9.9-2.9-14.9-6.5-14.9c-3.6,0-6.5,5-6.5,14.9c0,4.3,0.6,8.8,1.5,12.5
		H520.1z"/>
	<path class="st5" d="M512.3,317.4c-3.9,0-7-3.1-7-7v-26.5c0-3.9,3.1-7,7-7h66.3c3.9,0,7,3.1,7,7v26.5c0,3.9-3.1,7-7,7H512.3z"/>
	<path class="st5" d="M502.3,317.4c-3.9,0-7-3.1-7-7v-26.5c0-3.9,3.1-7,7-7h33.5c3.9,0,7,3.1,7,7v26.5c0,3.9-3.1,7-7,7H502.3z"/>
	<path class="st5" d="M564.1,314.6c-1.8,0-3.4-1.3-3.9-3c-1-4.1-1.6-8.9-1.6-13.4c0-9.1,2.8-18.9,10.5-18.9
		c7.8,0,10.5,9.8,10.5,18.9c0,4.5-0.6,9.3-1.6,13.4c-0.4,1.8-2,3-3.9,3H564.1z"/>
	<path class="st0" d="M477.1,310.6c0.9-3.7,1.5-8.2,1.5-12.5c0-9.9-2.9-14.9-6.5-14.9c-3.6,0-6.5,5-6.5,14.9c0,4.3,0.6,8.8,1.5,12.5
		H477.1z"/>
	<path class="st0" d="M617.3,310.6c0.9-3.7,1.5-8.2,1.5-12.5c0-9.9-2.9-14.9-6.5-14.9s-6.5,5-6.5,14.9c0,4.3,0.6,8.8,1.5,12.5H617.3
		z"/>
	<path class="st0" d="M504.8,301.3H478c-1.6,0-3-1.4-3-3V298c0-1.6,1.4-3,3-3h26.8c1.6,0,3,1.4,3,3l-7.3,0.4
		C500.5,300,506.4,301.3,504.8,301.3z"/>
	<path class="st5" d="M489,269.2H455c-1.2,0-2.1-1-2.1-2.1v0c0-1.2,1-2.1,2.1-2.1H489c1.2,0,2.1,1,2.1,2.1v0
		C491.1,268.3,490.1,269.2,489,269.2z"/>
	<path class="st5" d="M586.2,269.2h-33.9c-1.2,0-2.1-1-2.1-2.1v0c0-1.2,1-2.1,2.1-2.1h33.9c1.2,0,2.1,1,2.1,2.1v0
		C588.3,268.3,587.3,269.2,586.2,269.2z"/>
	<path class="st5" d="M533.1,269.2h-33.9c-1.2,0-2.1-1-2.1-2.1v0c0-1.2,1-2.1,2.1-2.1h33.9c1.2,0,2.1,1,2.1,2.1v0
		C535.2,268.3,534.3,269.2,533.1,269.2z"/>
	<path class="st5" d="M629.2,269.2h-33.9c-1.2,0-2.1-1-2.1-2.1v0c0-1.2,1-2.1,2.1-2.1h33.9c1.2,0,2.1,1,2.1,2.1v0
		C631.4,268.3,630.4,269.2,629.2,269.2z"/>
	<rect x="470.1" y="265.4" class="st5" width="3.8" height="16.6"/>
	<rect x="610.4" y="265.4" class="st5" width="3.8" height="16.6"/>
	<path class="st0" d="M567.6,301.3h-19.5c-1.7,0-3-1.4-3-3V298c0-1.6,1.3-3,3-3h19.5c1.7,0,3,1.4,3,3v0.4
		C570.6,300,569.3,301.3,567.6,301.3z"/>
	<path class="st0" d="M604.7,301.3h-19.5c-1.6,0-3-1.4-3-3V298c0-1.6,1.4-3,3-3h19.5c1.7,0,3,1.4,3,3v0.4
		C607.7,300,606.3,301.3,604.7,301.3z"/>
	<g>
		<circle class="st3" cx="540.5" cy="311.2" r="12.4"/>
	</g>
	<path class="st0" d="M552.9,311.2c0-0.7-0.1-1.4-0.2-2.1l-12.2,2v12.5C547.3,323.6,552.9,318.1,552.9,311.2z"/>
	<g>
		<path class="st2" d="M578.6,313.4h-66.3c-1.7,0-3-1.4-3-3v-26.5c0-1.7,1.4-3,3-3h66.3c1.6,0,3,1.3,3,3v26.5
			C581.6,312,580.3,313.4,578.6,313.4z"/>
		<path class="st1" d="M535.8,313.4h-33.5c-1.6,0-3-1.4-3-3v-26.5c0-1.7,1.4-3,3-3h33.5c1.7,0,3,1.3,3,3v26.5
			C538.8,312,537.4,313.4,535.8,313.4z"/>
	</g>
	<path class="st0" d="M532.1,286.9c0.4,0,0.7,0.3,0.7,0.7v19c0,0.4-0.3,0.7-0.7,0.7h-26c-0.4,0-0.7-0.3-0.7-0.7v-19
		c0-0.4,0.3-0.7,0.7-0.7H532.1 M532.1,284.9h-26c-1.5,0-2.7,1.2-2.7,2.7v19c0,1.5,1.2,2.7,2.7,2.7h26c1.5,0,2.7-1.2,2.7-2.7v-19
		C534.8,286.1,533.6,284.9,532.1,284.9L532.1,284.9z"/>
	<rect x="567.3" y="265.4" class="st5" width="3.8" height="21.7"/>
	<path class="st0" d="M574.2,310.6c0.9-3.7,1.5-8.2,1.5-12.5c0-9.9-2.9-14.9-6.5-14.9s-6.5,5-6.5,14.9c0,4.3,0.6,8.8,1.5,12.5H574.2
		z"/>
	<path class="st0" d="M511.8,297.2h-5.5c-1.6,0-3-1.4-3-3v-6.3c0-1.6,1.4-3,3-3h5.5c1.7,0,3,1.4,3,3v6.3
		C514.8,295.8,513.4,297.2,511.8,297.2z"/>
	<g>
		<path class="st0" d="M532.5,309.4L532.5,309.4c1.3,0,2.3-1,2.3-2.3v-5.3c0-1.3-1-2.3-2.3-2.3l0,0c-1.3,0-2.3,1-2.3,2.3v5.3
			C530.2,308.3,531.2,309.4,532.5,309.4z"/>
		<path class="st0" d="M524.5,309.4L524.5,309.4c1.3,0,2.3-1,2.3-2.3v-5.3c0-1.3-1-2.3-2.3-2.3l0,0c-1.3,0-2.3,1-2.3,2.3v5.3
			C522.2,308.3,523.3,309.4,524.5,309.4z"/>
	</g>
	<path class="st0" d="M565.6,301.3h-19.5c-1.7,0-3-1.4-3-3V298c0-1.6,1.3-3,3-3h19.5c1.7,0,3,1.4,3,3v0.4
		C568.6,300,567.3,301.3,565.6,301.3z"/>
	<path class="st0" d="M602.7,301.3h-19.5c-1.6,0-3-1.4-3-3V298c0-1.6,1.4-3,3-3h19.5c1.7,0,3,1.4,3,3v0.4
		C605.7,300,604.3,301.3,602.7,301.3z"/>
	<polygon class="st0" points="1000,388.5 686.3,388.5 667.2,403.7 648.2,388.5 527.4,388.5 478.2,427.9 429,388.5 151.3,388.5 
		128.8,412.5 107.2,388.5 0,388.5 0,440 283.5,440 302.6,449.2 321.6,440 365.1,440 376.1,426.9 390.1,426.9 401.1,440 412.1,440 
		417.7,433.4 424.7,433.4 430.3,440 591.7,440 640.9,463.7 690.1,440 822.2,440 841.3,449.2 860.3,440 1000,440 	"/>
</g>
</svg>
