<svg width="224" height="160" viewBox="0 0 224 160" fill="none" xmlns="http://www.w3.org/2000/svg">
<rect width="224" height="160" rx="16" fill="white"/>
<path d="M187.025 45H37V81.0061H187.025V45Z" fill="#7C2011"/>
<path d="M159.825 64.4585H150.344V66.4388H159.825V64.4585Z" fill="#F78569"/>
<path d="M154.485 66.6786C154.2 66.6786 153.975 66.4535 153.975 66.1685V63.243C153.975 62.9579 154.2 62.7329 154.485 62.7329C154.77 62.7329 154.995 62.9579 154.995 63.243V66.1685C154.995 66.4535 154.755 66.6786 154.485 66.6786Z" fill="#7C2011"/>
<path d="M158.175 66.6786C157.89 66.6786 157.665 66.4535 157.665 66.1685V63.243C157.665 62.9579 157.89 62.7329 158.175 62.7329C158.46 62.7329 158.685 62.9579 158.685 63.243V66.1685C158.685 66.4535 158.445 66.6786 158.175 66.6786Z" fill="#7C2011"/>
<path d="M131.531 67.4138C131.336 67.4138 131.141 67.3088 131.036 67.1438C130.931 66.9788 130.901 66.7687 130.991 66.5737C132.911 62.058 137.127 59.1475 141.718 59.1475C146.308 59.1475 150.509 62.058 152.444 66.5737C152.519 66.7537 152.504 66.9788 152.399 67.1438C152.294 67.3088 152.099 67.4138 151.904 67.4138H131.531Z" fill="#7C2011"/>
<path d="M167.371 58.4573C165.886 55.2618 162.661 53.1914 159.135 53.1914C155.609 53.1914 152.384 55.2618 150.899 58.4573C150.809 58.6523 150.764 58.8774 150.764 59.0874H167.506C167.506 58.8774 167.461 58.6673 167.371 58.4573Z" fill="#DC4A39"/>
<path d="M166.006 59.0876H152.264C153.464 56.4922 156.089 54.6919 159.135 54.6919C162.18 54.6919 164.806 56.4922 166.006 59.0876Z" fill="#F78569"/>
<path d="M146.278 59.0875H152.249C151.724 57.9623 150.584 57.1821 149.264 57.1821C147.944 57.1821 146.803 57.9623 146.278 59.0875Z" fill="#F78569"/>
<path d="M187.025 55.9217C185.84 55.1566 184.43 54.7065 182.899 54.7065C179.854 54.7065 177.229 56.5068 176.028 59.1023H187.025V55.9217Z" fill="#F78569"/>
<path d="M52.6027 59.0876H38.8604C40.0606 56.4922 42.686 54.6919 45.7315 54.6919C48.777 54.6919 51.4025 56.4922 52.6027 59.0876Z" fill="#F78569"/>
<path d="M76.6815 58.4571C75.4813 55.8467 72.8259 54.1514 69.9454 54.1514C67.0649 54.1514 64.4244 55.8467 63.2092 58.4571C63.1192 58.6521 63.0742 58.8772 63.0742 59.0872H76.8315C76.8315 58.8772 76.7865 58.6671 76.6815 58.4571Z" fill="#DC4A39"/>
<path d="M75.331 59.0869H64.5742C65.5194 57.0616 67.5747 55.6514 69.9601 55.6514C72.3305 55.6514 74.3859 57.0616 75.331 59.0869Z" fill="#F78569"/>
<path d="M75.332 59.087H81.303C80.7779 57.9618 79.6378 57.1816 78.3175 57.1816C76.9973 57.1816 75.8571 57.9618 75.332 59.087Z" fill="#F78569"/>
<path d="M104.542 52.1712C100.416 54.7816 97.7304 59.4624 97.9855 64.7583C98.3305 71.9895 104.227 77.8105 111.458 78.0956C119.454 78.4106 126.055 71.9895 126.055 64.0682C126.055 59.0274 123.37 54.5866 119.364 52.1112C116.814 50.5209 115.103 47.9105 114.608 45H109.417C108.892 47.9405 107.122 50.5359 104.542 52.1712Z" fill="#DC4A39"/>
<path d="M117.388 77.0261C124.553 74.0581 127.955 65.8435 124.988 58.6784C122.02 51.5132 113.805 48.1106 106.64 51.0786C99.4746 54.0466 96.072 62.2612 99.04 69.4264C102.008 76.5916 110.223 79.9941 117.388 77.0261Z" fill="#DC4A39"/>
<path d="M116.417 74.6835C122.289 72.2514 125.077 65.52 122.645 59.6486C120.213 53.7771 113.481 50.9889 107.61 53.421C101.738 55.8531 98.9501 62.5845 101.382 68.456C103.814 74.3274 110.546 77.1156 116.417 74.6835Z" fill="#C26E6A"/>
<path d="M187.025 57.6172H175.068L173.853 55.0668C173.673 54.7067 173.313 54.4667 172.908 54.4667H166.847C166.442 54.4667 166.067 54.6917 165.902 55.0668L160.801 65.7486H131.726L130.361 62.8981C130.181 62.538 129.821 62.298 129.416 62.298H125.665L124.81 60.5127C124.63 60.1526 124.27 59.9126 123.865 59.9126H119.799C119.394 59.9126 119.019 60.1526 118.854 60.5127L117.999 62.298H99.7706C99.3655 62.298 98.9904 62.538 98.8254 62.8981L97.4602 65.7486H80.1773L77.9569 61.0678C77.7769 60.7077 77.4168 60.4677 77.0117 60.4677H72.946C72.541 60.4677 72.1659 60.6927 72.0009 61.0678L71.5358 62.0579L68.1752 55.0518C67.9952 54.6917 67.6352 54.4517 67.2301 54.4517H61.1691C60.764 54.4517 60.3889 54.6767 60.2239 55.0518L57.9885 59.7325L57.4034 58.4873C57.2234 58.1273 56.8633 57.8872 56.4583 57.8872H48.2519L47.5018 56.342C47.3217 55.9819 46.9617 55.7419 46.5566 55.7419H37V81.0061H187.025V57.6172Z" fill="#F78569"/>
<path d="M115.442 72.3273C120.012 70.4342 122.182 65.1948 120.289 60.6247C118.396 56.0546 113.157 53.8844 108.586 55.7774C104.016 57.6705 101.846 62.9099 103.739 67.48C105.632 72.0501 110.872 74.2203 115.442 72.3273Z" fill="#F78569"/>
<path d="M114.471 69.9847C117.748 68.6275 119.303 64.8713 117.946 61.5949C116.589 58.3185 112.833 56.7626 109.556 58.1198C106.28 59.477 104.724 63.2332 106.081 66.5096C107.439 69.786 111.195 71.3418 114.471 69.9847Z" fill="#FABE8C"/>
<path d="M112.013 67.9388C114.159 67.9388 115.898 66.1991 115.898 64.0531C115.898 61.9071 114.159 60.1675 112.013 60.1675C109.867 60.1675 108.127 61.9071 108.127 64.0531C108.127 66.1991 109.867 67.9388 112.013 67.9388Z" fill="white"/>
<path d="M134.096 45.8551C134.096 48.4806 136.226 50.6109 138.852 50.6109C141.477 50.6109 143.607 48.4806 143.607 45.8551C143.607 45.5701 143.577 45.285 143.532 45H134.156C134.126 45.27 134.096 45.5551 134.096 45.8551Z" fill="#DC4A39"/>
<path d="M72.9463 45.8551C72.9463 48.4806 75.0766 50.6109 77.7021 50.6109C80.3275 50.6109 82.4579 48.4806 82.4579 45.8551C82.4579 45.5701 82.4279 45.285 82.3829 45H73.0063C72.9763 45.27 72.9463 45.5551 72.9463 45.8551Z" fill="#F78569"/>
<path d="M187.025 58.6676H174.408L172.908 55.5171H166.832L161.461 66.784H131.066L129.416 63.3334H125.005L123.865 60.948H119.799L118.659 63.3334H99.7706L98.1203 66.784H79.5172L77.0117 61.5331H72.931L71.5208 64.4886L67.2301 55.5171H61.1691L57.9885 62.1782L56.4433 58.9527H47.5918L46.5566 56.7923H37V85.5071H89.1788L87.6935 88.6277H141.493L139.992 85.5071H187.025V58.6676Z" fill="#DC4A39"/>
<path d="M151.335 65.8985H132.057C133.737 62.2678 137.428 59.7324 141.703 59.7324C145.964 59.7474 149.655 62.2678 151.335 65.8985Z" fill="#F78569"/>
<path d="M95.2846 54.3017C94.4895 54.3017 93.8594 53.6565 93.8594 52.8764C93.8594 52.0963 94.5045 51.4512 95.2846 51.4512C96.0797 51.4512 96.7099 52.0963 96.7099 52.8764C96.7099 53.6565 96.0647 54.3017 95.2846 54.3017Z" fill="#F78569"/>
<path d="M95.2841 53.7015C94.819 53.7015 94.459 53.3265 94.459 52.8764C94.459 52.4263 94.834 52.0513 95.2841 52.0513C95.7492 52.0513 96.1093 52.4263 96.1093 52.8764C96.1093 53.3265 95.7342 53.7015 95.2841 53.7015Z" fill="#FABE8C"/>
<path d="M95.2852 53.2516C95.4924 53.2516 95.6603 53.0837 95.6603 52.8765C95.6603 52.6694 95.4924 52.5015 95.2852 52.5015C95.0781 52.5015 94.9102 52.6694 94.9102 52.8765C94.9102 53.0837 95.0781 53.2516 95.2852 53.2516Z" fill="white"/>
<path d="M127.841 54.3764C127.376 54.3764 127.016 54.0013 127.016 53.5512C127.016 53.0861 127.391 52.7261 127.841 52.7261C128.291 52.7261 128.666 53.1011 128.666 53.5512C128.666 54.0013 128.291 54.3764 127.841 54.3764Z" fill="#DC4A39"/>
<path d="M127.84 53.9117C128.047 53.9117 128.215 53.7438 128.215 53.5367C128.215 53.3295 128.047 53.1616 127.84 53.1616C127.633 53.1616 127.465 53.3295 127.465 53.5367C127.465 53.7438 127.633 53.9117 127.84 53.9117Z" fill="white"/>
<path d="M134.471 55.6066C134.678 55.6066 134.846 55.4387 134.846 55.2315C134.846 55.0244 134.678 54.8564 134.471 54.8564C134.264 54.8564 134.096 55.0244 134.096 55.2315C134.096 55.4387 134.264 55.6066 134.471 55.6066Z" fill="#DC4A39"/>
<path d="M98.1954 51.5563C98.4025 51.5563 98.5704 51.3884 98.5704 51.1812C98.5704 50.9741 98.4025 50.8062 98.1954 50.8062C97.9882 50.8062 97.8203 50.9741 97.8203 51.1812C97.8203 51.3884 97.9882 51.5563 98.1954 51.5563Z" fill="#F78569"/>
<path d="M128.981 57.8273C129.188 57.8273 129.356 57.6594 129.356 57.4522C129.356 57.2451 129.188 57.0771 128.981 57.0771C128.773 57.0771 128.605 57.2451 128.605 57.4522C128.605 57.6594 128.773 57.8273 128.981 57.8273Z" fill="#F78569"/>
<path d="M86.2989 53.4313C86.506 53.4313 86.674 53.2634 86.674 53.0562C86.674 52.8491 86.506 52.6812 86.2989 52.6812C86.0917 52.6812 85.9238 52.8491 85.9238 53.0562C85.9238 53.2634 86.0917 53.4313 86.2989 53.4313Z" fill="#DC4A39"/>
<path d="M51.5528 55.2467C51.7599 55.2467 51.9279 55.0788 51.9279 54.8716C51.9279 54.6645 51.7599 54.4966 51.5528 54.4966C51.3457 54.4966 51.1777 54.6645 51.1777 54.8716C51.1777 55.0788 51.3457 55.2467 51.5528 55.2467Z" fill="#F78569"/>
<path d="M146.219 55.2467C146.426 55.2467 146.594 55.0788 146.594 54.8716C146.594 54.6645 146.426 54.4966 146.219 54.4966C146.012 54.4966 145.844 54.6645 145.844 54.8716C145.844 55.0788 146.012 55.2467 146.219 55.2467Z" fill="#F78569"/>
<path d="M37 100.885H187.025V58.6676H174.408L172.908 55.5171H166.832L161.461 66.784H131.066L129.416 63.3334H125.005L123.865 60.948H119.799L118.659 63.3334H99.7706L98.1203 66.784H79.5172L77.0117 61.5331H72.931L71.5208 64.4886L67.2301 55.5171H61.1691L57.9885 62.1782L56.4433 58.9527H47.5918L46.5566 56.7923H37V100.885Z" fill="#DC4A39"/>
<path d="M37 74.4349L61.6791 75.7702L59.5038 68.2539H37V74.4349Z" fill="#F78569"/>
<path d="M55.8582 71.0894C55.8582 71.0894 42.4459 72.4396 37 72.9797V79.8058H60.2689L61.6641 75.7701L60.809 73.2947L55.8582 71.0894Z" fill="#F78569"/>
<path d="M160.665 79.8058H187.025V68.2539H163.966L162.676 70.4293L160.965 70.3093L154.859 70.6693L155.144 73.1297L161.731 74.585L162.691 75.7702L162.106 77.6005L160.665 79.8058Z" fill="#F78569"/>
<path d="M160.666 72.4546H156.81V75.6051H160.666C160.966 75.6051 161.221 75.8452 161.221 76.1302C161.221 76.4153 160.966 76.6553 160.666 76.6553H153.524V79.8058H160.666C162.781 79.8058 164.521 78.1555 164.521 76.1302C164.521 74.1049 162.796 72.4546 160.666 72.4546Z" fill="white"/>
<path d="M159.57 72.4546H156.824C156.524 72.4546 156.269 72.2146 156.269 71.9295C156.269 71.6445 156.524 71.4044 156.824 71.4044H163.966V68.2539H156.824C154.709 68.2539 152.969 69.9042 152.969 71.9295C152.969 73.9549 154.694 75.6051 156.824 75.6051H159.57V72.4546Z" fill="white"/>
<path d="M144.178 68.2539H140.877V79.8058H144.178V68.2539Z" fill="white"/>
<path d="M151.874 79.8056H148.573L144.178 72.6494H147.478L151.874 79.8056Z" fill="white"/>
<path d="M148.033 68.2539H142.542V71.5545H148.033C148.333 71.5545 148.588 71.8095 148.588 72.1096C148.588 72.4096 148.333 72.6646 148.033 72.6646H146.503V75.9652H148.033C150.148 75.9652 151.889 74.2399 151.889 72.1096C151.874 69.9792 150.148 68.2539 148.033 68.2539Z" fill="white"/>
<path d="M71.0432 79.8013H74.3438V68.2493H71.0432V79.8013Z" fill="white"/>
<path d="M59.5022 79.8013H62.8027V68.2493H59.5022V79.8013Z" fill="white"/>
<path d="M78.7517 68.2539H75.4512V79.8058H78.7517V68.2539Z" fill="white"/>
<path d="M94.1443 71.5542H90.8438V79.8056H94.1443V71.5542Z" fill="white"/>
<path d="M99.0955 79.8058H95.7949L100.746 68.2539H104.046L99.0955 79.8058Z" fill="white"/>
<path d="M106.792 79.8058H110.092L105.141 68.2539H101.841L106.792 79.8058Z" fill="white"/>
<path d="M85.8929 68.2539H75.9912V70.9994H85.8929V68.2539Z" fill="white"/>
<path d="M97.9851 68.2539H86.9883V70.9994H97.9851V68.2539Z" fill="white"/>
<path d="M85.8929 77.0454H75.9912V79.7909H85.8929V77.0454Z" fill="white"/>
<path d="M84.2428 72.6494H79.292V75.3949H84.2428V72.6494Z" fill="white"/>
<path d="M69.1195 75.7702L62.8035 68.2539H59.5029L60.6431 70.9094L66.9292 78.3806L69.1195 75.7702Z" fill="white"/>
<path d="M71.0557 68.2539L67.29 72.7247L69.4804 75.3351L73.216 70.9094L74.3562 68.2539H71.0557Z" fill="white"/>
<path d="M122.183 79.8013H125.483V68.2493H122.183V79.8013Z" fill="white"/>
<path d="M110.642 79.8013H113.942V68.2493H110.642V79.8013Z" fill="white"/>
<path d="M120.263 75.7702L113.932 68.2539H110.632L111.772 70.9094L118.058 78.3806L120.263 75.7702Z" fill="white"/>
<path d="M122.184 68.2539L118.418 72.7247L120.623 75.3351L124.344 70.9094L125.484 68.2539H122.184Z" fill="white"/>
<path d="M129.325 79.8058H126.039L130.975 68.2539H134.275L129.325 79.8058Z" fill="white"/>
<path d="M137.037 79.8058H140.322L135.386 68.2539H132.086L137.037 79.8058Z" fill="white"/>
<path d="M137.576 77.6004V74.855H132.055L130.87 77.6004H137.576Z" fill="white"/>
<path d="M107.331 77.6004V74.855H101.81L100.625 77.6004H107.331Z" fill="white"/>
<path d="M141.687 54.5869L143.023 61.158H140.367L141.687 54.5869Z" fill="#F78569"/>
<path d="M141.687 57.9324C143.328 57.9324 144.658 57.657 144.658 57.3173C144.658 56.9775 143.328 56.7021 141.687 56.7021C140.047 56.7021 138.717 56.9775 138.717 57.3173C138.717 57.657 140.047 57.9324 141.687 57.9324Z" fill="#F78569"/>
<path d="M90.1235 45H89.1934V56.1319H90.1235V45Z" fill="white"/>
<path d="M88.608 62.0729L84.7223 62.0579C84.7223 62.0579 84.0022 64.8034 85.6075 66.6637C85.6075 66.6637 82.637 65.5385 82.967 59.2524L88.4279 59.9426L88.608 62.0729Z" fill="#F78569"/>
<path d="M90.6191 62.0729L94.5048 62.0579C94.5048 62.0579 95.2249 64.8034 93.6196 66.6637C93.6196 66.6637 96.5901 65.5385 96.2601 59.2524L90.7992 59.9426L90.6191 62.0729Z" fill="#F78569"/>
<path d="M93.8143 66.7834C93.3192 64.9381 91.654 63.5879 89.6586 63.5879C87.6633 63.5879 85.998 64.9381 85.5029 66.7834H93.8143Z" fill="#FABE8C"/>
<path d="M90.1235 61.8779H89.1934V66.3187H90.1235V61.8779Z" fill="white"/>
<path d="M87.4385 59.3875C87.4385 60.5727 87.6485 61.7129 88.0536 62.7631H91.2791C91.6692 61.7129 91.8942 60.5727 91.8942 59.3875C91.8942 57.0471 91.0541 54.9167 89.6739 53.2515C88.2786 54.9017 87.4385 57.0471 87.4385 59.3875Z" fill="#F78569"/>
<path d="M88.3535 59.3875C88.3535 60.5727 88.4885 61.7129 88.7136 62.7631H90.6189C90.8589 61.7129 90.979 60.5727 90.979 59.3875C90.979 57.0471 90.4839 54.9167 89.6587 53.2515C88.8486 54.9017 88.3535 57.0471 88.3535 59.3875Z" fill="#FABE8C"/>
<path d="M89.6591 53.2515C89.059 53.9716 88.5489 54.7967 88.1738 55.6669H91.1293C90.7693 54.7817 90.2742 53.9716 89.6591 53.2515Z" fill="white"/>
<path d="M92.3589 66.7837C92.0439 65.5835 90.9637 64.7134 89.6585 64.7134C88.3682 64.7134 87.2881 65.5985 86.958 66.7837H92.3589Z" fill="white"/>
<path d="M92.285 58.0073H87.0341C86.7641 58.0073 86.5391 57.7822 86.5391 57.5122C86.5391 57.2421 86.7641 57.0171 87.0341 57.0171H92.285C92.5551 57.0171 92.7801 57.2421 92.7801 57.5122C92.7801 57.7822 92.5551 58.0073 92.285 58.0073Z" fill="#F78569"/>
<path d="M140.983 62.0728L140.293 63.288L140.983 64.5032H142.393L143.098 63.288L142.393 62.0728H140.983Z" fill="white"/>
<path d="M148.529 63.543L147.809 64.7582L148.514 65.9734H149.924L150.104 65.6583C149.654 64.8932 149.129 64.1731 148.529 63.543Z" fill="#FABE8C"/>
<path d="M139.902 62.988L140.608 61.7728L140.007 60.7227C139.332 60.8427 138.672 61.0527 138.042 61.3228L137.787 61.7728L138.492 62.988H139.902Z" fill="#FABE8C"/>
<path d="M142.393 61.4279L142.843 60.6478C142.468 60.6028 142.077 60.5728 141.687 60.5728C141.297 60.5728 140.907 60.6028 140.532 60.6478L140.982 61.4279H142.393Z" fill="#FABE8C"/>
<path d="M146.008 64.5032H147.419L148.124 63.288L147.974 63.0179C147.584 62.6729 147.164 62.3578 146.729 62.0728H146.023L145.318 63.288L146.008 64.5032Z" fill="#FABE8C"/>
<path d="M143.488 62.988H144.899L145.604 61.7728L145.349 61.3228C144.719 61.0527 144.073 60.8577 143.383 60.7227L142.783 61.7728L143.488 62.988Z" fill="#FABE8C"/>
<path d="M137.367 64.5032L138.072 63.288L137.367 62.0728H136.662C136.227 62.3578 135.807 62.6729 135.417 63.0179L135.267 63.288L135.972 64.5032H137.367Z" fill="#FABE8C"/>
<path d="M144.899 63.543H143.488L142.783 64.7732L143.488 65.9884H144.899L145.604 64.7732L144.899 63.543Z" fill="white"/>
<path d="M146.008 64.9985L145.303 66.2137L145.633 66.7838H147.793L148.123 66.2137L147.418 64.9985H146.008Z" fill="white"/>
<path d="M140.983 64.9985L140.293 66.2137L140.608 66.7838H142.783L143.098 66.2137L142.393 64.9985H140.983Z" fill="white"/>
<path d="M139.902 63.543H138.492L137.787 64.7732L138.492 65.9884H139.902L140.608 64.7732L139.902 63.543Z" fill="white"/>
<path d="M135.972 64.9985L135.267 66.2137L135.582 66.7838H137.757L138.072 66.2137L137.367 64.9985H135.972Z" fill="white"/>
<path d="M134.876 63.543C134.261 64.1731 133.721 64.8782 133.286 65.6583L133.466 65.9734H134.876L135.582 64.7582L134.876 63.543Z" fill="#FABE8C"/>
<path d="M154.034 66.6786C153.749 66.6786 153.524 66.4535 153.524 66.1685V63.243C153.524 62.9579 153.749 62.7329 154.034 62.7329C154.32 62.7329 154.545 62.9579 154.545 63.243V66.1685C154.545 66.4535 154.305 66.6786 154.034 66.6786Z" fill="#F78569"/>
<path d="M157.725 66.6786C157.44 66.6786 157.215 66.4535 157.215 66.1685V63.243C157.215 62.9579 157.44 62.7329 157.725 62.7329C158.01 62.7329 158.235 62.9579 158.235 63.243V66.1685C158.235 66.4535 157.995 66.6786 157.725 66.6786Z" fill="#F78569"/>
<path d="M48.2069 68.854H37V70.7593H49.122L48.2069 68.854ZM49.5121 71.4494H37V73.3548H50.4123L49.5121 71.4494ZM50.7573 74.0749H37V75.9802H51.6725L50.7573 74.0749ZM52.0025 76.6853H37V78.6056H52.9177L52.0025 76.6853Z" fill="#DC4A39"/>
<path d="M46.6166 65.5083H37V67.4137H47.5318L46.6166 65.5083ZM45.3714 62.8979H37V64.8032H46.2866L45.3714 62.8979ZM44.1262 60.2725H37V62.1778H45.0264L44.1262 60.2725Z" fill="#F78569"/>
<path d="M49.1223 72.7547L50.4125 73.3698L48.2072 68.854L47.457 69.3491L49.1223 72.7547Z" fill="#DC4A39"/>
<path d="M51.6125 77.9904L52.9177 78.6055L50.7423 74.0747L49.9922 74.5698L51.6125 77.9904Z" fill="#DC4A39"/>
<path d="M46.1666 75.4251L47.3218 75.7251L45.2515 71.5244L44.4863 72.0195L46.1666 75.4251Z" fill="#DC4A39"/>
<path d="M43.1367 71.2695L45.7322 76.3854H46.6923L44.0969 71.2695H43.1367Z" fill="#F78569"/>
<path d="M46.5267 67.1437L47.5319 67.4287L45.3715 62.8979L44.6514 63.213L46.5267 67.1437Z" fill="#F78569"/>
<path d="M42.2812 67.5786L43.3013 67.8637L40.6459 62.2827L39.9258 62.5978L42.2812 67.5786Z" fill="#DC4A39"/>
<path d="M41.9951 63.3032H41.125L42.7903 66.8138L43.8105 67.0839L41.9951 63.3032Z" fill="#F78569"/>
<path d="M49.6014 65.5083H47.6211L48.5362 67.4286H50.5016L49.6014 65.5083Z" fill="#F78569"/>
<path d="M174.424 65.5083H176.404L175.489 67.4286H173.523L174.424 65.5083Z" fill="#F78569"/>
<path d="M171.107 78.6056H187.025V76.7003H172.023L171.107 78.6056ZM175.818 68.854L174.903 70.7593H187.025V68.854H175.818ZM172.353 75.9802H187.025V74.0749H173.268L172.353 75.9802ZM173.613 73.3698H187.025V71.4644H174.513L173.613 73.3698Z" fill="#DC4A39"/>
<path d="M178.654 62.8979L177.739 64.8033H187.026V62.8979H178.654Z" fill="#F78569"/>
<path d="M187.026 65.5083H177.409L176.494 67.4286H187.026V65.5083Z" fill="#F78569"/>
<path d="M179.9 60.2725L179 62.1928H187.026V60.2725H179.9Z" fill="#F78569"/>
<path d="M174.904 72.7547L173.613 73.3698L175.819 68.854L176.569 69.3491L174.904 72.7547Z" fill="#DC4A39"/>
<path d="M172.413 77.9904L171.107 78.6055L173.283 74.0747L174.033 74.5698L172.413 77.9904Z" fill="#DC4A39"/>
<path d="M177.858 75.4251L176.703 75.7251L178.773 71.5244L179.539 72.0195L177.858 75.4251Z" fill="#DC4A39"/>
<path d="M180.89 71.2695L178.294 76.3854H177.334L179.929 71.2695H180.89Z" fill="#F78569"/>
<path d="M177.499 67.1437L176.494 67.4287L178.655 62.8979L179.375 63.213L177.499 67.1437Z" fill="#F78569"/>
<path d="M181.745 67.5786L180.725 67.8637L183.38 62.2827L184.1 62.5978L181.745 67.5786Z" fill="#DC4A39"/>
<path d="M182.029 63.3032H182.899L181.234 66.8138L180.214 67.0839L182.029 63.3032Z" fill="#F78569"/>
<path d="M187.025 81.0508L176.088 87.2018L170.627 84.1263C169.832 83.6762 168.887 83.4362 167.912 83.4362H149.114C148.139 83.4362 147.194 83.6762 146.398 84.1263L135.056 90.5024L140.382 94.6881C139.587 94.238 138.642 93.998 137.667 93.998H110.602C109.627 93.998 108.682 94.238 107.887 94.6881L92.6894 97.1485L89.4038 88.6121C88.6087 88.162 87.6635 87.9219 86.6884 87.9219H64.8747L58.1536 84.1413C57.3584 83.6912 56.4133 83.4512 55.4381 83.4512H45.3714C44.3962 83.4512 43.4511 83.6912 42.656 84.1413L37 87.3218V107.695H187.025V81.0508Z" fill="#FABE8C"/>
<path d="M90.3788 88.5973C89.5836 88.1473 88.6385 87.9072 87.6633 87.9072H74.3711V102.415H109.417L100.34 94.2083L90.3788 88.5973Z" fill="#FABE8C"/>
<path d="M144.988 89.0625H111.338C110.273 89.0625 109.222 89.3325 108.352 89.8276L92.3896 98.7991L92.2246 100.329H147.929L139.813 91.928L147.974 89.8276C147.104 89.3325 146.054 89.0625 144.988 89.0625Z" fill="#FABE8C"/>
<path d="M108.877 97.0286L103.792 97.8838L99.0508 97.0286L101.061 91.8528C101.526 90.6526 102.681 89.8574 103.972 89.8574C105.262 89.8574 106.417 90.6526 106.882 91.8528L108.877 97.0286Z" fill="#FABE8C"/>
<path d="M98.0751 95.1686L93.6644 95.9037L89.5537 95.1686L91.294 90.6828C91.6991 89.6476 92.7042 88.9575 93.8144 88.9575C94.9246 88.9575 95.9298 89.6476 96.3349 90.6828L98.0751 95.1686Z" fill="#FABE8C"/>
<path d="M137.097 94.2535L132.686 95.4387L127.9 94.2535L129.776 89.4077C130.211 88.2825 131.291 87.5474 132.506 87.5474C133.706 87.5474 134.802 88.2825 135.237 89.4077L137.097 94.2535Z" fill="#FABE8C"/>
<path d="M104.826 97.6437H92.6592L96.0948 84.3364H101.391L104.826 97.6437Z" fill="#DC4A39"/>
<path d="M104.826 97.6437L98.5252 98.6939L92.6592 97.6437L95.1346 91.2376C95.7047 89.7524 97.1449 88.7622 98.7352 88.7622C100.325 88.7622 101.766 89.7374 102.336 91.2376L104.826 97.6437Z" fill="#FABE8C"/>
<path d="M141.898 92.3031H133.691L136.002 83.3315H139.572L141.898 92.3031Z" fill="#DC4A39"/>
<path d="M141.898 92.3029L137.967 93.3531L133.691 92.3029L135.357 87.9822C135.747 86.977 136.707 86.3169 137.787 86.3169C138.867 86.3169 139.827 86.977 140.218 87.9822L141.898 92.3029Z" fill="#FABE8C"/>
<path d="M123.985 105.415C125.095 105.415 125.995 104.515 125.995 103.405C125.995 102.295 125.095 101.395 123.985 101.395C122.875 101.395 121.975 102.295 121.975 103.405C121.975 104.515 122.875 105.415 123.985 105.415Z" fill="white"/>
<path d="M112.238 105.415C113.348 105.415 114.248 104.515 114.248 103.405C114.248 102.295 113.348 101.395 112.238 101.395C111.128 101.395 110.228 102.295 110.228 103.405C110.228 104.515 111.128 105.415 112.238 105.415Z" fill="white"/>
<path d="M109.717 103.81C107.061 103.81 104.916 105.955 104.916 108.611C104.916 109.106 104.991 109.571 105.126 110.021H114.323C114.458 109.571 114.533 109.106 114.533 108.611C114.533 105.955 112.372 103.81 109.717 103.81Z" fill="white"/>
<path d="M102.996 109.781C104.72 109.781 106.117 108.384 106.117 106.661C106.117 104.937 104.72 103.54 102.996 103.54C101.273 103.54 99.876 104.937 99.876 106.661C99.876 108.384 101.273 109.781 102.996 109.781Z" fill="white"/>
<path d="M120.1 97.6589C120.1 97.6889 120.1 97.7039 120.1 97.7339C120.1 97.7189 120.1 97.6889 120.1 97.6589ZM123.325 102.46L122.95 101.695C122.695 101.98 122.395 102.13 122.08 102.13C120.985 102.13 120.1 98.9641 120.1 96.5337C120.1 98.9641 119.214 102.13 118.119 102.13C117.024 102.13 116.139 98.9641 116.139 96.5337C116.139 98.9641 115.254 102.13 114.159 102.13C113.963 102.13 113.768 102.07 113.603 101.95L112.448 103.945C112.448 103.945 112.448 107.606 112.418 107.696C112.388 107.786 115.059 108.041 115.059 108.041L120.685 106.99L123.895 103.615L123.325 102.46Z" fill="white"/>
<path d="M147.733 89.9326C147.628 89.9326 147.538 90.0226 147.538 90.1276V94.3434C147.538 94.4484 147.628 94.5384 147.733 94.5384C147.838 94.5384 147.928 94.4484 147.928 94.3434V90.1276C147.928 90.0226 147.838 89.9326 147.733 89.9326Z" fill="white"/>
<path d="M150.074 89.7524C149.969 89.7524 149.879 89.8425 149.879 89.9475V94.1632C149.879 94.2682 149.969 94.3582 150.074 94.3582C150.179 94.3582 150.269 94.2682 150.269 94.1632V89.9475C150.269 89.8275 150.179 89.7524 150.074 89.7524Z" fill="white"/>
<path d="M155.535 109.586C154.86 109.571 154.215 109.391 153.63 109.061C153.525 109.181 153.39 109.286 153.225 109.331C153.135 109.361 153.045 109.376 152.955 109.376C152.79 109.376 152.625 109.331 152.49 109.256L152.295 109.316C152.235 109.331 152.175 109.346 152.115 109.346C151.86 109.346 151.62 109.181 151.545 108.926C151.38 108.416 151.26 107.906 151.17 107.425C150.99 107.455 150.81 107.47 150.63 107.485H150.615C150.36 107.485 150.134 107.335 150.044 107.095C149.954 106.855 150.029 106.585 150.225 106.42C150.57 106.135 150.855 105.775 151.035 105.355C151.065 104.875 151.14 104.38 151.245 103.915C151.185 103.45 151.02 103 150.75 102.625C150.225 101.89 149.369 101.439 148.454 101.439C148.424 101.439 148.394 101.439 148.364 101.439H148.349C148.094 101.439 147.869 101.289 147.779 101.049C147.689 100.809 147.764 100.539 147.959 100.374C148.019 100.314 148.094 100.269 148.154 100.224C148.829 99.7442 149.624 99.4891 150.45 99.4891C151.395 99.4891 152.295 99.8192 153.015 100.419C153.465 99.8642 153.99 99.3091 154.635 98.724L154.155 97.3288C154.08 97.1037 154.14 96.8637 154.305 96.6987C154.425 96.5786 154.575 96.5186 154.725 96.5186C154.8 96.5186 154.86 96.5336 154.935 96.5486L156.511 97.1187C156.736 96.9387 156.946 96.7437 157.171 96.5636L156.961 96.0686C156.871 95.8585 156.916 95.6035 157.066 95.4385C157.186 95.3034 157.351 95.2434 157.516 95.2434C157.576 95.2434 157.636 95.2584 157.696 95.2734L158.356 95.4685C158.401 95.4085 158.461 95.3634 158.506 95.3034L157.621 93.9982C157.486 93.8032 157.486 93.5331 157.621 93.3231C157.741 93.1581 157.921 93.0531 158.116 93.0531C158.161 93.0531 158.191 93.0531 158.236 93.0681L159.526 93.3231C159.541 93.1581 159.526 92.978 159.511 92.798C159.346 91.6578 158.896 90.8027 158.161 90.2626C158.236 90.5626 158.251 90.8627 158.236 91.1627C158.116 92.528 157.021 93.3831 156.961 93.4131C156.856 93.4881 156.721 93.5331 156.601 93.5331C156.496 93.5331 156.391 93.5031 156.286 93.4431C156.075 93.3081 155.97 93.0681 156 92.828C156.03 92.693 156 92.558 155.94 92.4079C155.445 93.4881 154.53 93.9982 154.47 94.0282C154.38 94.0732 154.275 94.1032 154.185 94.1032C154.035 94.1032 153.885 94.0432 153.78 93.9382C153.585 93.7582 153.54 93.4881 153.645 93.2481C153.765 92.993 153.765 92.723 153.69 92.3929C152.715 93.1131 151.53 93.5031 150.315 93.5031C149.114 93.5031 147.974 93.1431 146.999 92.438C146.909 92.468 146.819 92.483 146.729 92.513C146.594 92.543 146.444 92.573 146.309 92.573C145.589 92.573 144.959 92.0929 144.779 91.4028C144.644 90.9077 144.749 90.3826 145.064 89.9925C145.064 89.9775 145.064 89.9475 145.064 89.9325C145.049 89.3924 145.259 88.9124 145.589 88.5973C145.004 88.4323 144.584 87.8922 144.494 87.2321C143.878 87.007 143.443 86.4219 143.443 85.7318C143.443 84.8617 144.163 84.1416 145.034 84.1416C145.169 84.1416 145.304 84.1566 145.439 84.2016C145.574 84.2316 145.709 84.2766 145.844 84.3066C146.924 82.9264 148.574 82.1162 150.33 82.1162C151.545 82.1162 152.745 82.5213 153.705 83.2264C153.765 82.8813 153.765 82.6263 153.66 82.3713C153.555 82.1312 153.615 81.8612 153.795 81.6811C153.915 81.5761 154.05 81.5161 154.2 81.5161C154.29 81.5161 154.395 81.5461 154.485 81.5911C154.545 81.6211 155.46 82.1312 155.955 83.2114C156.015 83.0614 156.03 82.9264 156.015 82.7913C155.97 82.5513 156.09 82.2962 156.301 82.1762C156.391 82.1162 156.511 82.0862 156.616 82.0862C156.751 82.0862 156.871 82.1312 156.976 82.2062C157.021 82.2512 158.236 83.1814 158.251 84.6516C158.266 85.3868 157.996 86.0919 157.441 86.767C158.356 86.992 159.181 87.3521 159.871 87.8622C160.066 87.9972 160.261 88.1622 160.426 88.3273L161.176 88.1622C161.221 88.1472 161.266 88.1472 161.296 88.1472C161.491 88.1472 161.671 88.2372 161.776 88.3873C161.911 88.5823 161.926 88.8373 161.806 89.0474L161.476 89.6175C161.731 90.0375 161.941 90.4876 162.091 90.9677L163.847 91.2978C164.087 91.3428 164.282 91.5378 164.327 91.7928C164.372 92.0479 164.252 92.2879 164.027 92.4079L162.467 93.2781C162.467 93.5181 162.437 93.7582 162.407 93.9832L162.962 94.4483C163.142 94.6133 163.217 94.8684 163.142 95.0934C163.067 95.3334 162.857 95.4835 162.602 95.4985L161.881 95.5435C161.521 96.2486 160.996 96.9387 160.261 97.6888L160.816 98.904C160.921 99.1141 160.876 99.3691 160.726 99.5491C160.606 99.6842 160.441 99.7592 160.276 99.7592C160.216 99.7592 160.156 99.7442 160.096 99.7292L158.521 99.2491C158.416 99.3391 158.296 99.4291 158.191 99.5191C157.846 99.8042 157.501 100.104 157.156 100.389L157.246 100.644C157.321 100.854 157.276 101.079 157.126 101.244C157.486 101.379 157.816 101.544 158.146 101.77C158.221 101.83 158.296 101.875 158.356 101.935C158.551 102.1 158.626 102.37 158.536 102.61C158.446 102.85 158.221 103 157.966 103H157.951C157.921 103 157.891 103 157.846 103C156.841 103 155.895 103.495 155.325 104.305C154.395 105.64 154.65 107.47 155.91 108.491C156.105 108.656 156.181 108.926 156.09 109.166C156 109.406 155.775 109.556 155.52 109.556C155.55 109.586 155.535 109.586 155.535 109.586Z" fill="white"/>
<path d="M152.114 108.746C150.314 103.06 153.854 100.119 156.705 97.7489C158.985 95.8436 160.381 94.5834 160.11 92.7381C159.93 91.4179 159.375 90.4277 158.505 89.7826C156.72 88.4924 154.064 88.9574 154.034 88.9574L153.719 87.2322C153.854 87.2022 157.125 86.6171 159.525 88.3423C160.816 89.2725 161.596 90.6527 161.851 92.468C162.256 95.3785 160.005 97.2538 157.83 99.0691C155.01 101.425 152.339 103.645 153.779 108.206L152.114 108.746Z" fill="#7C2011"/>
<path d="M154.695 87.3222C154.695 87.3222 153.66 86.002 153.885 84.9068C154.11 83.8116 154.575 82.9865 154.185 82.1313C154.185 82.1313 157.11 83.7066 154.695 87.3222Z" fill="#7C2011"/>
<path d="M154.695 88.3125C154.695 88.3125 153.66 89.6327 153.885 90.7279C154.11 91.8231 154.575 92.6482 154.185 93.5034C154.185 93.5184 157.11 91.9431 154.695 88.3125Z" fill="#7C2011"/>
<path d="M150.314 82.7163C148.214 82.7163 146.398 83.9915 145.618 85.8068L150.074 86.4519L151.229 89.2724L150.809 90.5926C150.809 90.5926 148.664 90.9377 146.548 91.2527C147.478 92.2729 148.829 92.918 150.314 92.918C153.134 92.918 155.415 90.6376 155.415 87.8172C155.415 84.9967 153.134 82.7163 150.314 82.7163Z" fill="#DC4A39"/>
<path d="M146.474 90.0976C146.489 90.5627 145.814 90.6677 145.694 90.2026C145.679 90.1126 145.664 90.0226 145.649 89.9176C145.634 89.3475 145.979 88.8674 146.429 88.8374L146.474 90.0976Z" fill="#FABE8C"/>
<path d="M149.338 87.727C149.353 87.637 149.848 87.3219 150.148 87.742C150.463 88.162 150.328 86.7668 150.328 86.7668L149.488 86.5718L149.158 87.0519L149.338 87.727Z" fill="#DC4A39"/>
<path d="M147.509 89.4227C147.524 89.6327 147.914 89.7227 147.989 89.6027C148.064 89.4827 148.634 89.3177 148.694 89.5577C148.754 89.7978 149.099 89.7528 149.144 89.5727C149.189 89.3927 149.729 89.1977 149.759 89.5277C149.789 89.8428 150.644 89.8728 150.629 89.3477C150.614 88.8076 151.259 90.0828 151.259 90.0828C151.259 90.0828 150.074 90.8629 150.014 90.8479C149.954 90.8329 147.524 91.208 147.479 91.208C147.434 91.208 146.774 90.2178 146.804 90.1728C146.849 90.1578 147.509 89.4227 147.509 89.4227Z" fill="#DC4A39"/>
<path d="M145.904 87.5321C145.919 87.3071 146.249 87.157 146.444 87.2921C146.624 87.4421 147.074 87.7722 147.119 87.6371C147.164 87.5021 147.374 87.1871 147.704 87.3671C148.034 87.5471 148.244 87.7722 148.274 87.6521C148.304 87.5321 148.649 87.2471 148.889 87.4871C149.129 87.7271 148.964 86.4369 148.964 86.4369L145.739 85.8818L145.438 86.962L145.904 87.5321Z" fill="#DC4A39"/>
<path d="M147.686 85.2805C147.948 84.9805 147.992 84.5918 147.786 84.4123C147.579 84.2328 147.201 84.3305 146.939 84.6306C146.678 84.9306 146.634 85.3193 146.84 85.4988C147.047 85.6783 147.425 85.5805 147.686 85.2805Z" fill="#FABE8C"/>
<path d="M145.273 84.7869C145.618 84.8769 145.978 84.9669 146.323 85.0419C146.683 85.1169 147.029 85.1919 147.389 85.2669C147.749 85.3419 148.094 85.417 148.454 85.477L149.519 85.672H149.429C149.804 85.672 150.164 85.822 150.434 86.0321C150.704 86.2271 150.899 86.4821 151.049 86.7372C151.124 86.8722 151.184 86.9922 151.229 87.1272C151.259 87.1873 151.274 87.2623 151.304 87.3223L151.349 87.4873L151.529 88.1324L151.724 88.7775L151.814 89.0926L151.844 89.1976C151.859 89.2426 151.859 89.2726 151.874 89.3176C151.889 89.3926 151.904 89.4826 151.904 89.5577C151.919 89.8877 151.874 90.2178 151.694 90.5328C151.604 90.6978 151.499 90.8479 151.319 90.9979C151.139 91.1329 150.884 91.2379 150.629 91.2379H150.689C149.999 91.328 149.309 91.418 148.619 91.538C148.274 91.598 147.929 91.658 147.584 91.733C147.239 91.808 146.894 91.883 146.563 91.9731C146.038 92.1231 145.483 91.808 145.348 91.2829C145.198 90.7579 145.513 90.2028 146.038 90.0677C146.143 90.0377 146.263 90.0227 146.368 90.0377C146.729 90.0677 147.074 90.0827 147.419 90.0827C147.764 90.0977 148.124 90.0827 148.469 90.0827C149.174 90.0677 149.864 90.0377 150.554 89.9927H150.614C150.584 89.9927 150.539 90.0077 150.539 90.0227C150.539 90.0227 150.554 90.0077 150.584 89.9777C150.629 89.9027 150.659 89.7827 150.644 89.6627C150.644 89.6327 150.644 89.6027 150.629 89.5727L150.614 89.5277L150.599 89.4676L150.494 89.1526L150.299 88.5225L150.104 87.8924L150.059 87.7424C150.044 87.6973 150.029 87.6673 150.014 87.6223C149.984 87.5473 149.939 87.4723 149.909 87.4123C149.834 87.2923 149.729 87.1873 149.639 87.1272C149.549 87.0672 149.459 87.0522 149.399 87.0522C149.384 87.0522 149.384 87.0522 149.369 87.0522H149.309L148.229 86.9622C147.869 86.9322 147.509 86.9022 147.149 86.8872C146.789 86.8572 146.428 86.8422 146.068 86.8272C145.708 86.8122 145.348 86.7972 144.988 86.7972C144.448 86.7972 143.998 86.3471 143.998 85.807C143.998 85.2669 144.448 84.8169 144.988 84.8169C145.108 84.7568 145.198 84.7719 145.273 84.7869Z" fill="#7C2011"/>
<path d="M145.964 86.707C146.009 86.1969 145.273 86.0619 145.123 86.557C145.093 86.647 145.078 86.752 145.063 86.857C145.018 87.4721 145.378 87.9972 145.859 88.0572L145.964 86.707Z" fill="#FABE8C"/>
<path d="M147.208 86.7819C147.238 86.2868 146.533 86.1518 146.383 86.6319C146.353 86.7219 146.338 86.8269 146.323 86.9169C146.278 87.517 146.623 88.0421 147.103 88.0871L147.208 86.7819Z" fill="#FABE8C"/>
<path d="M148.334 86.9468C148.364 86.4967 147.718 86.3767 147.583 86.8118C147.553 86.9018 147.538 86.9918 147.538 87.0818C147.493 87.6369 147.809 88.102 148.244 88.147L148.334 86.9468Z" fill="#FABE8C"/>
<path d="M149.429 87.0371C149.459 86.617 148.844 86.497 148.724 86.902C148.694 86.977 148.679 87.0671 148.679 87.1571C148.634 87.6672 148.934 88.1172 149.339 88.1623L149.429 87.0371Z" fill="#FABE8C"/>
<path d="M147.568 90.0377C147.583 90.5628 146.818 90.6828 146.698 90.1577C146.668 90.0527 146.653 89.9477 146.653 89.8426C146.638 89.1975 147.028 88.6724 147.538 88.6274L147.568 90.0377Z" fill="#FABE8C"/>
<path d="M153.396 85.1928C153.575 84.7646 153.224 84.2105 152.612 83.9552C152.001 83.6999 151.36 83.84 151.181 84.2682C151.002 84.6963 151.353 85.2504 151.965 85.5058C152.577 85.7611 153.217 85.621 153.396 85.1928Z" fill="#FABE8C"/>
<path d="M149.372 84.8969C149.873 84.7532 150.199 84.3526 150.099 84.0021C149.998 83.6516 149.51 83.4839 149.008 83.6276C148.506 83.7712 148.181 84.1718 148.281 84.5223C148.382 84.8728 148.87 85.0405 149.372 84.8969Z" fill="#FABE8C"/>
<path d="M153.617 90.7772C154.049 90.4841 154.233 90.002 154.029 89.7003C153.824 89.3987 153.308 89.3917 152.876 89.6847C152.444 89.9778 152.26 90.4599 152.464 90.7616C152.669 91.0633 153.185 91.0702 153.617 90.7772Z" fill="#7C2011"/>
<path d="M152.196 92.1209C152.525 92.0063 152.727 91.7295 152.648 91.5026C152.568 91.2758 152.238 91.1847 151.909 91.2993C151.581 91.4139 151.379 91.6908 151.458 91.9176C151.537 92.1445 151.867 92.2355 152.196 92.1209Z" fill="#7C2011"/>
<path d="M154.387 88.5063C154.455 88.199 154.334 87.9105 154.115 87.862C153.897 87.8135 153.665 88.0233 153.596 88.3307C153.528 88.638 153.65 88.9265 153.868 88.975C154.086 89.0235 154.319 88.8137 154.387 88.5063Z" fill="#7C2011"/>
<path d="M153.053 89.057C153.166 88.9142 153.174 88.7317 153.07 88.6493C152.966 88.5668 152.79 88.6158 152.677 88.7586C152.564 88.9013 152.556 89.0839 152.66 89.1663C152.764 89.2487 152.94 89.1998 153.053 89.057Z" fill="#7C2011"/>
<path d="M151.283 83.5355C151.314 83.3391 151.114 83.1441 150.835 83.1C150.557 83.0559 150.306 83.1794 150.275 83.3758C150.244 83.5722 150.444 83.7672 150.723 83.8113C151.001 83.8554 151.252 83.7319 151.283 83.5355Z" fill="#FABE8C"/>
<path d="M154.139 86.6991C154.346 86.5942 154.392 86.2695 154.242 85.9739C154.092 85.6784 153.803 85.5239 153.596 85.6288C153.389 85.7338 153.343 86.0585 153.493 86.354C153.643 86.6496 153.932 86.8041 154.139 86.6991Z" fill="#FABE8C"/>
<path d="M155.264 87.8169C155.264 87.8169 154.454 86.2566 155.159 85.2665C155.865 84.2763 156.75 83.6162 156.585 82.686C156.585 82.686 159.66 85.0414 155.264 87.8169Z" fill="#7C2011"/>
<path d="M155.264 87.8169C155.264 87.8169 154.454 89.3772 155.159 90.3673C155.865 91.3575 156.75 92.0176 156.585 92.9478C156.585 92.9478 159.66 90.5924 155.264 87.8169Z" fill="#7C2011"/>
<path d="M155.266 87.817L155.506 87.0068L156.466 88.042L155.806 89.0922L155.266 87.817Z" fill="#7C2011"/>
<path d="M150.83 92.4227C151.01 92.4001 151.144 92.2751 151.127 92.1435C151.111 92.012 150.951 91.9237 150.77 91.9463C150.589 91.969 150.456 92.0939 150.472 92.2255C150.489 92.357 150.649 92.4453 150.83 92.4227Z" fill="#7C2011"/>
<path d="M155.565 99.4889L154.74 97.1035L157.291 98.0937L155.565 99.4889Z" fill="#7C2011"/>
<path d="M154.74 97.1035L156.751 98.7988L156.586 97.7786L154.74 97.1035Z" fill="#C26E6A"/>
<path d="M158.325 98.5743L160.291 99.1744L159.376 97.269L158.19 97.8841L158.325 98.5743Z" fill="#7C2011"/>
<path d="M159.45 95.6483L158.115 93.668L160.486 94.133L159.45 95.6483Z" fill="#7C2011"/>
<path d="M161.011 91.3726L163.756 91.8976L161.416 93.2029L161.011 91.3726Z" fill="#7C2011"/>
<path d="M158.115 93.668L160.381 95.0032L160.021 94.043L158.115 93.668Z" fill="#C26E6A"/>
<path d="M163.756 91.8977L161.221 92.3028L161.596 91.4927L163.756 91.8977Z" fill="#C26E6A"/>
<path d="M160.29 99.1742L159.525 97.5239L159.045 98.049L160.29 99.1742Z" fill="#C26E6A"/>
<path d="M152.94 108.776C152.82 108.776 152.7 108.701 152.655 108.566C150.974 103.255 154.215 100.554 157.065 98.1839C159.181 96.4286 160.996 94.9134 160.681 92.648C160.471 91.1177 159.811 89.9625 158.716 89.2274C158.581 89.1374 158.536 88.9424 158.641 88.8074C158.731 88.6723 158.926 88.6273 159.061 88.7323C160.291 89.5575 161.041 90.8477 161.281 92.558C161.641 95.1534 159.616 96.8487 157.455 98.634C154.605 101.004 151.664 103.45 153.225 108.386C153.27 108.551 153.195 108.716 153.03 108.761C153 108.776 152.97 108.776 152.94 108.776Z" fill="#C26E6A"/>
<path d="M158.04 88.8224C157.995 88.8224 157.965 88.8074 157.92 88.7924C157.65 88.6723 157.35 88.5823 157.05 88.5073C156.885 88.4623 156.795 88.2973 156.825 88.1473C156.87 87.9822 157.035 87.8922 157.185 87.9222C157.53 88.0122 157.845 88.1173 158.145 88.2523C158.295 88.3123 158.37 88.4923 158.295 88.6423C158.28 88.7624 158.16 88.8224 158.04 88.8224Z" fill="#C26E6A"/>
<path d="M148.528 100.704C148.468 100.749 148.408 100.795 148.363 100.84C149.473 100.81 150.569 101.305 151.259 102.28C152.294 103.75 152.009 105.775 150.614 106.886C151.259 106.871 151.904 106.66 152.459 106.27C153.989 105.19 154.364 103.06 153.269 101.53C152.174 99.9844 150.059 99.6093 148.528 100.704Z" fill="#7C2011"/>
<path d="M157.8 102.28C157.86 102.325 157.92 102.37 157.98 102.415C156.78 102.37 155.595 102.925 154.845 103.975C153.72 105.58 154.035 107.756 155.55 108.971C154.86 108.941 154.155 108.731 153.54 108.296C151.874 107.126 151.484 104.815 152.655 103.15C153.825 101.485 156.135 101.11 157.8 102.28Z" fill="#7C2011"/>
<path d="M157.951 96.8638L157.516 95.8286L158.761 96.2187L157.951 96.8638Z" fill="#7C2011"/>
<path d="M161.626 94.1182L162.586 94.9283L161.296 95.0033L161.626 94.1182Z" fill="#7C2011"/>
<path d="M160.08 89.0021L161.295 88.7471L160.665 89.8123L160.08 89.0021Z" fill="#7C2011"/>
<path d="M156.375 99.9844L156.69 100.87L155.7 100.659L156.375 99.9844Z" fill="#7C2011"/>
<path d="M155.159 90.3674C155.159 90.3674 153.659 88.6272 155.339 87.667L155.91 89.0172L155.159 90.3674Z" fill="#7C2011"/>
<path d="M155.159 85.2666C155.159 85.2666 153.659 87.0069 155.339 87.9671L155.91 86.6168L155.159 85.2666Z" fill="#7C2011"/>
<path d="M148.919 96.1138C148.814 96.1138 148.724 96.0237 148.724 95.9187V89.6477C148.724 89.5427 148.814 89.4526 148.919 89.4526C149.024 89.4526 149.114 89.5427 149.114 89.6477V95.9187C149.114 96.0387 149.024 96.1138 148.919 96.1138Z" fill="white"/>
<path d="M148.919 96.5937C148.814 96.5937 148.724 96.5037 148.724 96.3987V90.1276C148.724 90.0226 148.814 89.9326 148.919 89.9326C149.024 89.9326 149.114 90.0226 149.114 90.1276V96.3987C149.114 96.5037 149.024 96.5937 148.919 96.5937Z" fill="white"/>
<path d="M148.919 97.5537C148.814 97.5537 148.724 97.6437 148.724 97.7487V98.1238C148.724 98.2288 148.814 98.3188 148.919 98.3188C149.024 98.3188 149.114 98.2288 149.114 98.1238V97.7487C149.114 97.6437 149.024 97.5537 148.919 97.5537Z" fill="white"/>
<path d="M148.739 90.0223C148.754 90.5024 148.049 90.6074 147.944 90.1423C147.914 90.0523 147.914 89.9623 147.899 89.8573C147.884 89.2722 148.244 88.7771 148.694 88.7471L148.739 90.0223Z" fill="#FABE8C"/>
<path d="M149.804 89.9924C149.819 90.4124 149.204 90.5025 149.099 90.0974C149.084 90.0224 149.069 89.9324 149.069 89.8424C149.054 89.3323 149.369 88.8972 149.774 88.8672L149.804 89.9924Z" fill="#FABE8C"/>
<path d="M147.733 92.6328L147.778 94.1631L147.928 94.2081V94.028C147.928 93.803 148.108 93.623 148.333 93.623C148.559 93.623 148.739 93.803 148.739 94.028V94.4331L148.919 94.4781L148.964 92.9779L147.733 92.6328Z" fill="white"/>
<path d="M169.232 104.995H161.971L164.506 101.995H166.696L169.232 104.995Z" fill="#7C2011"/>
<path d="M49.0776 104.995H41.8164L44.3518 101.995H46.5422L49.0776 104.995Z" fill="#7C2011"/>
<path d="M147.674 103.93H144.193L145.409 102.49H146.459L147.674 103.93Z" fill="#7C2011"/>
<path d="M91.7441 103.885C90.1839 103.885 88.8186 102.685 88.3986 101.004H87.5284C87.1834 101.004 86.8683 100.839 86.6583 100.584C86.3732 102.46 84.948 103.885 83.2227 103.885H82.5026C80.9423 103.885 79.5771 102.685 79.157 101.004H78.6469C78.1819 101.004 77.7768 100.704 77.6118 100.299C77.4467 100.719 77.0567 101.004 76.5766 101.004H76.0665C75.6464 102.67 74.2812 103.885 72.7209 103.885H72.0008C70.2755 103.885 68.8503 102.46 68.5652 100.584C68.3552 100.839 68.0552 101.004 67.6951 101.004H66.8249C66.4049 102.67 65.0396 103.885 63.4794 103.885H62.7593C60.8389 103.885 59.2637 102.1 59.2637 99.9092C59.2637 97.7188 60.8239 95.9335 62.7593 95.9335H63.4794C64.3345 95.9335 65.1597 96.2936 65.8048 96.9387L65.8198 96.9537C65.8498 96.9837 65.8648 96.9987 65.8948 97.0287L65.3697 94.4333C65.2797 93.9682 65.3997 93.5031 65.6848 93.143C65.9848 92.783 66.4199 92.5729 66.885 92.5729H67.6051L68.0702 91.7928C68.6703 90.8176 69.7204 90.1725 70.8606 90.0975C70.6506 89.8275 70.5306 89.4824 70.5306 89.1224C70.5306 88.2372 71.2507 87.5171 72.1358 87.5171H77.6718C78.1819 87.5171 78.6469 87.7571 78.947 88.1322H81.1374C81.6774 88.1322 82.1275 88.5823 82.1275 89.1224C82.1275 89.6024 81.7825 90.0075 81.3174 90.0975H81.5574C81.9475 90.0975 82.3376 90.2626 82.6076 90.5326L84.6179 92.5729H87.3184C88.3236 92.5729 89.2837 92.963 90.0639 93.6831C90.1539 93.6681 90.2439 93.6681 90.3189 93.6681C91.3391 93.6681 92.1342 94.6133 92.1342 95.8435C92.1342 95.8735 92.1342 95.9035 92.1342 95.9485H92.4343C93.2894 95.9485 94.1145 96.3086 94.7596 96.9537L94.7747 96.9687C94.8347 97.0287 94.8947 97.0887 94.9547 97.1637C95.0147 97.2387 95.0597 97.2987 95.1197 97.3737C95.6448 98.0939 95.9298 98.994 95.9298 99.9242C95.9298 102.115 94.3696 103.9 92.4343 103.9H91.7441V103.885Z" fill="white"/>
<path d="M132.716 104.635H125.77L128.2 101.754H130.3L132.716 104.635Z" fill="#7C2011"/>
<path d="M75.9315 89.7974H73.7861V91.3126H75.9315V89.7974Z" fill="#7C2011"/>
<path d="M75.0766 90.6826H71.356C70.1858 90.6826 69.0906 91.2977 68.4755 92.3029L67.4854 93.9232L77.267 95.1834L78.8123 92.5129L75.0766 90.6826Z" fill="#DC4A39"/>
<path d="M84.8884 93.6831H75.4669L75.0918 90.6826H81.5579C81.7979 90.6826 82.008 90.7726 82.173 90.9377L84.8884 93.6831Z" fill="#7C2011"/>
<path d="M75.4517 93.6831L75.0766 90.6826H71.131C70.0958 90.6826 69.1356 91.2227 68.5955 92.1079L67.4854 93.9232L77.267 95.1834L78.1371 93.6831H75.4517Z" fill="#DC4A39"/>
<path d="M68.3405 93.3531H69.4357C69.7057 92.0928 70.6959 91.1177 72.3162 91.1177H74.6716L75.0016 93.7281C75.0316 93.9532 75.2117 94.1182 75.4367 94.1182H77.357L77.027 94.7033L68.4455 93.5931C68.3555 93.5781 68.2955 93.4581 68.3405 93.3531Z" fill="#7C2011"/>
<path d="M71.6709 93.4728H72.121L72.286 90.9224H71.8509L71.6709 93.4728Z" fill="#DC4A39"/>
<path d="M77.6719 90.1129H74.5813C74.0262 90.1129 73.5762 89.6628 73.5762 89.1077C73.5762 88.5526 74.0262 88.1025 74.5813 88.1025H77.6719C78.227 88.1025 78.677 88.5526 78.677 89.1077C78.677 89.6628 78.227 90.1129 77.6719 90.1129Z" fill="#7C2011"/>
<path d="M75.2422 90.1129H72.1517C71.5966 90.1129 71.1465 89.6628 71.1465 89.1077C71.1465 88.5526 71.5966 88.1025 72.1517 88.1025H75.2422C75.7973 88.1025 76.2473 88.5526 76.2473 89.1077C76.2473 89.6628 75.7973 90.1129 75.2422 90.1129Z" fill="#F78569"/>
<path d="M81.1374 89.4974H77.4018C77.1917 89.4974 77.0117 89.3174 77.0117 89.1074C77.0117 88.8973 77.1917 88.7173 77.4018 88.7173H81.1374C81.3474 88.7173 81.5275 88.8973 81.5275 89.1074C81.5275 89.3174 81.3474 89.4974 81.1374 89.4974Z" fill="#7C2011"/>
<path d="M79.3973 90.6826L76.5918 93.6831H79.0222L81.7977 90.7126C81.7227 90.6976 81.6476 90.6826 81.5726 90.6826H79.3973Z" fill="#DC4A39"/>
<path d="M80.6424 90.6826H79.4572L76.6367 93.6831H77.8369L80.6424 90.6826Z" fill="#FABE8C"/>
<path d="M79.5467 90.6826H78.3465L75.541 93.6831H76.7262L79.5467 90.6826Z" fill="white"/>
<path d="M92.4494 96.5186H91.7293V98.1838C91.4742 98.6939 91.3242 99.279 91.3242 99.9091C91.3242 100.539 91.4742 101.124 91.7293 101.634V103.3H92.4494C94.0397 103.3 95.3449 101.784 95.3449 99.9241C95.3449 98.0338 94.0547 96.5186 92.4494 96.5186Z" fill="#7C2011"/>
<path d="M91.7441 103.27C93.3433 103.27 94.6396 101.758 94.6396 99.8941C94.6396 98.0298 93.3433 96.5186 91.7441 96.5186C90.145 96.5186 88.8486 98.0298 88.8486 99.8941C88.8486 101.758 90.145 103.27 91.7441 103.27Z" fill="#7C2011"/>
<path d="M91.1588 102.43C92.2691 102.43 93.1691 101.295 93.1691 99.8943C93.1691 98.494 92.2691 97.3589 91.1588 97.3589C90.0485 97.3589 89.1484 98.494 89.1484 99.8943C89.1484 101.295 90.0485 102.43 91.1588 102.43Z" fill="#7C2011"/>
<path d="M91.3845 101.799C92.2462 101.799 92.9447 100.946 92.9447 99.8941C92.9447 98.8418 92.2462 97.9888 91.3845 97.9888C90.5228 97.9888 89.8242 98.8418 89.8242 99.8941C89.8242 100.946 90.5228 101.799 91.3845 101.799Z" fill="#7C2011"/>
<path d="M91.6699 101.124C92.2167 101.124 92.66 100.574 92.66 99.8943C92.66 99.2148 92.2167 98.6641 91.6699 98.6641C91.123 98.6641 90.6797 99.2148 90.6797 99.8943C90.6797 100.574 91.123 101.124 91.6699 101.124Z" fill="#7C2011"/>
<path d="M94.1896 97.209H93.0944C92.8994 97.209 92.7344 97.374 92.7344 97.569C92.7344 97.7641 92.8994 97.9291 93.0944 97.9291H94.7897C94.6247 97.6441 94.4297 97.404 94.1896 97.209Z" fill="#C26E6A"/>
<path d="M83.2228 96.5186H82.5027V98.1838C82.2477 98.6939 82.0977 99.279 82.0977 99.9091C82.0977 100.539 82.2477 101.124 82.5027 101.634V103.3H83.2228C84.8131 103.3 86.1183 101.784 86.1183 99.9241C86.1033 98.0338 84.8131 96.5186 83.2228 96.5186Z" fill="#7C2011"/>
<path d="M82.5029 103.27C84.102 103.27 85.3984 101.758 85.3984 99.8941C85.3984 98.0298 84.102 96.5186 82.5029 96.5186C80.9038 96.5186 79.6074 98.0298 79.6074 99.8941C79.6074 101.758 80.9038 103.27 82.5029 103.27Z" fill="#7C2011"/>
<path d="M81.9322 102.43C83.0425 102.43 83.9425 101.295 83.9425 99.8943C83.9425 98.494 83.0425 97.3589 81.9322 97.3589C80.8219 97.3589 79.9219 98.494 79.9219 99.8943C79.9219 101.295 80.8219 102.43 81.9322 102.43Z" fill="#7C2011"/>
<path d="M82.1423 101.799C83.004 101.799 83.7026 100.946 83.7026 99.8941C83.7026 98.8418 83.004 97.9888 82.1423 97.9888C81.2806 97.9888 80.582 98.8418 80.582 99.8941C80.582 100.946 81.2806 101.799 82.1423 101.799Z" fill="#7C2011"/>
<path d="M82.4277 101.124C82.9745 101.124 83.4178 100.574 83.4178 99.8943C83.4178 99.2148 82.9745 98.6641 82.4277 98.6641C81.8808 98.6641 81.4375 99.2148 81.4375 99.8943C81.4375 100.574 81.8808 101.124 82.4277 101.124Z" fill="#7C2011"/>
<path d="M84.9631 97.209H83.8679C83.6728 97.209 83.5078 97.374 83.5078 97.569C83.5078 97.7641 83.6728 97.9291 83.8679 97.9291H85.5632C85.3831 97.6441 85.1881 97.404 84.9631 97.209Z" fill="#C26E6A"/>
<path d="M90.1992 100.404H87.5288C87.2437 100.404 87.0187 100.179 87.0187 99.8941V97.3737H85.9085C85.6235 97.3737 85.3984 97.1487 85.3984 96.8636C85.3984 96.5786 85.6235 96.3535 85.9085 96.3535H87.5288C87.8138 96.3535 88.0389 96.5786 88.0389 96.8636V99.384H90.2142C90.4993 99.384 90.7243 99.6091 90.7243 99.8941C90.7243 100.179 90.4843 100.404 90.1992 100.404Z" fill="#7C2011"/>
<path d="M81.3174 100.404H78.647C78.3619 100.404 78.1369 100.179 78.1369 99.8941V97.3737H77.0267C76.7416 97.3737 76.5166 97.1487 76.5166 96.8636C76.5166 96.5786 76.7416 96.3535 77.0267 96.3535H78.647C78.932 96.3535 79.157 96.5786 79.157 96.8636V99.384H81.3324C81.6175 99.384 81.8425 99.6091 81.8425 99.8941C81.8425 100.179 81.5875 100.404 81.3174 100.404Z" fill="#7C2011"/>
<path d="M90.349 97.3888C89.6739 97.3888 89.1338 96.6987 89.1338 95.8135C89.1338 94.9284 89.6739 94.2383 90.349 94.2383C91.0241 94.2383 91.5642 94.9284 91.5642 95.8135C91.5642 96.6987 91.0241 97.3888 90.349 97.3888Z" fill="#DC4A39"/>
<path d="M87.3331 93.1729H71.0254L72.0156 98.0787H91.1288C91.1438 97.9286 91.1438 97.7786 91.1438 97.6286C91.1438 95.1682 89.4335 93.1729 87.3331 93.1729Z" fill="#DC4A39"/>
<path d="M78.482 93.1729H66.885C66.2849 93.1729 65.8199 93.7279 65.9399 94.328L66.705 98.0787H82.2776C82.2926 97.9286 82.2926 97.7786 82.2926 97.6286C82.3076 95.1682 80.5823 93.1729 78.482 93.1729Z" fill="#F78569"/>
<path d="M66.7052 98.0636H79.2173C78.9173 96.4883 78.6622 95.1831 78.6622 95.1831H66.1201L66.7052 98.0636Z" fill="#DC4A39"/>
<path d="M69.4204 94.7485C68.0701 94.7485 66.96 96.0838 66.96 97.719C66.96 97.8241 66.96 97.9441 66.975 98.0641H71.8508C71.8658 97.9441 71.8658 97.8241 71.8658 97.719C71.8808 96.0838 70.7706 94.7485 69.4204 94.7485ZM78.6619 94.7485C77.3117 94.7485 76.2015 96.0838 76.2015 97.719C76.2015 97.8241 76.2015 97.9441 76.2165 98.0641H81.0923C81.1073 97.9441 81.1073 97.8241 81.1073 97.719C81.1223 96.0838 80.0122 94.7485 78.6619 94.7485Z" fill="#F78569"/>
<path d="M69.4205 95.1982C68.3103 95.1982 67.4102 96.3234 67.4102 97.7337C67.4102 97.8537 67.4252 97.9737 67.4252 98.0787H71.4008C71.4158 97.9587 71.4158 97.8537 71.4158 97.7337C71.4308 96.3234 70.5307 95.1982 69.4205 95.1982ZM78.6621 95.1982C77.5519 95.1982 76.6517 96.3234 76.6517 97.7337C76.6517 97.8537 76.6667 97.9737 76.6667 98.0787H80.6574C80.6724 97.9587 80.6724 97.8537 80.6724 97.7337C80.6724 96.3234 79.7722 95.1982 78.6621 95.1982Z" fill="#C26E6A"/>
<path d="M82.2627 94.6885C82.5928 95.1235 82.8478 95.6336 83.0128 96.2037L83.5829 96.0087L83.7329 94.6885H82.2627Z" fill="#7C2011"/>
<path d="M83.7333 96.9389C84.1641 96.9389 84.5134 96.4351 84.5134 95.8137C84.5134 95.1922 84.1641 94.6885 83.7333 94.6885C83.3024 94.6885 82.9531 95.1922 82.9531 95.8137C82.9531 96.4351 83.3024 96.9389 83.7333 96.9389Z" fill="white"/>
<path d="M63.465 96.5186H62.7449V98.1838C62.4899 98.6939 62.3398 99.279 62.3398 99.9091C62.3398 100.539 62.4899 101.124 62.7449 101.634V103.3H63.465C65.0553 103.3 66.3605 101.784 66.3605 99.9241C66.3605 98.0338 65.0703 96.5186 63.465 96.5186Z" fill="#7C2011"/>
<path d="M62.7597 103.27C64.3589 103.27 65.6552 101.758 65.6552 99.8941C65.6552 98.0298 64.3589 96.5186 62.7597 96.5186C61.1606 96.5186 59.8643 98.0298 59.8643 99.8941C59.8643 101.758 61.1606 103.27 62.7597 103.27Z" fill="#7C2011"/>
<path d="M62.1744 102.43C63.2847 102.43 64.1847 101.295 64.1847 99.8943C64.1847 98.494 63.2847 97.3589 62.1744 97.3589C61.0641 97.3589 60.1641 98.494 60.1641 99.8943C60.1641 101.295 61.0641 102.43 62.1744 102.43Z" fill="#C26E6A"/>
<path d="M62.3845 101.799C63.2462 101.799 63.9447 100.946 63.9447 99.8941C63.9447 98.8418 63.2462 97.9888 62.3845 97.9888C61.5228 97.9888 60.8242 98.8418 60.8242 99.8941C60.8242 100.946 61.5228 101.799 62.3845 101.799Z" fill="#7C2011"/>
<path d="M62.6845 101.124C63.2314 101.124 63.6747 100.574 63.6747 99.8943C63.6747 99.2148 63.2314 98.6641 62.6845 98.6641C62.1376 98.6641 61.6943 99.2148 61.6943 99.8943C61.6943 100.574 62.1376 101.124 62.6845 101.124Z" fill="#DC4A39"/>
<path d="M65.2052 97.2085H64.1101C63.915 97.2085 63.75 97.3735 63.75 97.5686C63.75 97.7636 63.915 97.9286 64.1101 97.9286H65.8053C65.6403 97.6436 65.4303 97.4035 65.2052 97.2085Z" fill="#C26E6A"/>
<path d="M67.6805 100.404H65.0101C64.725 100.404 64.5 100.179 64.5 99.8941C64.5 99.6091 64.725 99.384 65.0101 99.384H67.1855V96.8636C67.1855 96.5786 67.4105 96.3535 67.6955 96.3535H69.3158C69.6009 96.3535 69.8259 96.5786 69.8259 96.8636C69.8259 97.1487 69.6009 97.3737 69.3158 97.3737H68.2056V99.8941C68.1906 100.179 67.9656 100.404 67.6805 100.404Z" fill="#7C2011"/>
<path d="M72.7062 96.5186H71.9861V98.1838C71.7311 98.6939 71.5811 99.279 71.5811 99.9091C71.5811 100.539 71.7311 101.124 71.9861 101.634V103.3H72.7062C74.2965 103.3 75.6017 101.784 75.6017 99.9241C75.6017 98.0338 74.2965 96.5186 72.7062 96.5186Z" fill="#7C2011"/>
<path d="M71.9863 103.27C73.5854 103.27 74.8818 101.758 74.8818 99.8941C74.8818 98.0298 73.5854 96.5186 71.9863 96.5186C70.3872 96.5186 69.0908 98.0298 69.0908 99.8941C69.0908 101.758 70.3872 103.27 71.9863 103.27Z" fill="#7C2011"/>
<path d="M71.4166 102.43C72.5269 102.43 73.4269 101.295 73.4269 99.8943C73.4269 98.494 72.5269 97.3589 71.4166 97.3589C70.3063 97.3589 69.4062 98.494 69.4062 99.8943C69.4062 101.295 70.3063 102.43 71.4166 102.43Z" fill="#C26E6A"/>
<path d="M71.6267 101.799C72.4884 101.799 73.1869 100.946 73.1869 99.8941C73.1869 98.8418 72.4884 97.9888 71.6267 97.9888C70.765 97.9888 70.0664 98.8418 70.0664 99.8941C70.0664 100.946 70.765 101.799 71.6267 101.799Z" fill="#7C2011"/>
<path d="M71.9111 101.124C72.4579 101.124 72.9012 100.574 72.9012 99.8943C72.9012 99.2148 72.4579 98.6641 71.9111 98.6641C71.3642 98.6641 70.9209 99.2148 70.9209 99.8943C70.9209 100.574 71.3642 101.124 71.9111 101.124Z" fill="#DC4A39"/>
<path d="M74.4474 97.2085H73.3522C73.1572 97.2085 72.9922 97.3735 72.9922 97.5686C72.9922 97.7636 73.1572 97.9286 73.3522 97.9286H75.0475C74.8675 97.6436 74.6725 97.4035 74.4474 97.2085Z" fill="#C26E6A"/>
<path d="M76.577 100.404H73.9066C73.6215 100.404 73.3965 100.179 73.3965 99.8941C73.3965 99.6091 73.6215 99.384 73.9066 99.384H76.0819V96.8636C76.0819 96.5786 76.307 96.3535 76.592 96.3535H78.2123C78.4973 96.3535 78.7224 96.5786 78.7224 96.8636C78.7224 97.1487 78.4973 97.3737 78.2123 97.3737H77.1021V99.8941C77.0721 100.179 76.8471 100.404 76.577 100.404Z" fill="#7C2011"/>
<path d="M88.8789 94.6885C89.209 95.1235 89.464 95.6336 89.629 96.2037L90.1991 96.0087L90.3492 94.6885H88.8789Z" fill="#7C2011"/>
<path d="M90.3485 96.9389C90.7793 96.9389 91.1286 96.4351 91.1286 95.8137C91.1286 95.1922 90.7793 94.6885 90.3485 94.6885C89.9176 94.6885 89.5684 95.1922 89.5684 95.8137C89.5684 96.4351 89.9176 96.9389 90.3485 96.9389Z" fill="white"/>
<path d="M61.9345 103.285H59.1441L56.2786 105.565L53.4281 103.285H50.8477V110.666H61.9345V103.285Z" fill="#7C2011"/>
<path d="M118.089 94.1484C119.448 94.1484 120.55 93.0468 120.55 91.688C120.55 90.3291 119.448 89.2275 118.089 89.2275C116.73 89.2275 115.629 90.3291 115.629 91.688C115.629 93.0468 116.73 94.1484 118.089 94.1484Z" fill="white"/>
<path d="M114.713 84.8169H114.143V87.3073H114.713V84.8169Z" fill="white"/>
<path d="M107.047 92.1977C106.777 92.1977 106.537 92.0027 106.462 91.7477C106.312 91.1326 106.222 90.4124 106.222 89.7373C106.222 88.3721 106.642 86.9019 107.797 86.9019C108.967 86.9019 109.372 88.3721 109.372 89.7373C109.372 90.4124 109.282 91.1326 109.132 91.7477C109.072 92.0177 108.832 92.1977 108.547 92.1977H107.047Z" fill="white"/>
<path d="M128.095 92.1977C127.825 92.1977 127.585 92.0027 127.51 91.7477C127.36 91.1326 127.27 90.4124 127.27 89.7373C127.27 88.3721 127.69 86.9019 128.845 86.9019C130.015 86.9019 130.42 88.3721 130.42 89.7373C130.42 90.4124 130.33 91.1326 130.18 91.7477C130.12 92.0177 129.88 92.1977 129.595 92.1977H128.095Z" fill="white"/>
<path d="M124.794 90.8026C124.209 90.8026 123.744 90.3375 123.744 89.7524V89.7074C123.744 89.1223 124.209 88.6572 124.794 88.6572H127.72C128.305 88.6572 128.77 89.1223 128.77 89.7074V89.7674C128.77 90.3525 128.305 90.8176 127.72 90.8176H124.794V90.8026Z" fill="white"/>
<path d="M108.712 90.8026C108.127 90.8026 107.662 90.3375 107.662 89.7524V89.7074C107.662 89.1223 108.127 88.6572 108.712 88.6572H111.638C112.223 88.6572 112.688 89.1223 112.688 89.7074V89.7674C112.688 90.3525 112.223 90.8176 111.638 90.8176H108.712V90.8026Z" fill="white"/>
<path d="M113.513 92.1977C113.243 92.1977 113.003 92.0027 112.928 91.7477C112.778 91.1326 112.688 90.4124 112.688 89.7373C112.688 88.3721 113.108 86.9019 114.263 86.9019C115.433 86.9019 115.838 88.3721 115.838 89.7373C115.838 90.4124 115.748 91.1326 115.598 91.7477C115.538 92.0177 115.298 92.1977 115.013 92.1977H113.513Z" fill="white"/>
<path d="M115.028 91.598C115.163 91.0429 115.253 90.3678 115.253 89.7227C115.253 88.2374 114.818 87.4873 114.278 87.4873C113.738 87.4873 113.303 88.2374 113.303 89.7227C113.303 90.3678 113.393 91.0429 113.528 91.598H115.028Z" fill="#7C2011"/>
<path d="M113.858 92.618C113.273 92.618 112.808 92.1529 112.808 91.5678V87.5922C112.808 87.0071 113.273 86.542 113.858 86.542H123.804C124.39 86.542 124.855 87.0071 124.855 87.5922V91.5678C124.855 92.1529 124.39 92.618 123.804 92.618H113.858Z" fill="white"/>
<path d="M112.358 92.618C111.773 92.618 111.308 92.1529 111.308 91.5678V87.5922C111.308 87.0071 111.773 86.542 112.358 86.542H117.384C117.969 86.542 118.434 87.0071 118.434 87.5922V91.5678C118.434 92.1529 117.969 92.618 117.384 92.618H112.358Z" fill="white"/>
<path d="M121.63 92.1977C121.36 92.1977 121.12 92.0027 121.045 91.7477C120.895 91.1326 120.805 90.4124 120.805 89.7373C120.805 88.3721 121.225 86.9019 122.38 86.9019C123.55 86.9019 123.955 88.3721 123.955 89.7373C123.955 90.4124 123.865 91.1326 123.715 91.7477C123.655 92.0177 123.415 92.1977 123.13 92.1977H121.63Z" fill="white"/>
<path d="M108.577 91.598C108.712 91.0429 108.802 90.3678 108.802 89.7227C108.802 88.2374 108.367 87.4873 107.827 87.4873C107.287 87.4873 106.852 88.2374 106.852 89.7227C106.852 90.3678 106.942 91.0429 107.077 91.598H108.577Z" fill="#7C2011"/>
<path d="M129.61 91.598C129.745 91.0429 129.835 90.3678 129.835 89.7227C129.835 88.2374 129.4 87.4873 128.86 87.4873C128.32 87.4873 127.885 88.2374 127.885 89.7227C127.885 90.3678 127.975 91.0429 128.11 91.598H129.61Z" fill="#7C2011"/>
<path d="M112.732 90.2025H108.712C108.472 90.2025 108.262 89.9924 108.262 89.7524V89.7074C108.262 89.4674 108.472 89.2573 108.712 89.2573H112.732C112.973 89.2573 113.183 89.4674 113.183 89.7074L112.087 89.7674C112.087 90.0074 112.973 90.2025 112.732 90.2025Z" fill="#7C2011"/>
<path d="M110.362 85.3869H105.261C105.081 85.3869 104.946 85.2369 104.946 85.0719C104.946 84.8919 105.096 84.7568 105.261 84.7568H110.362C110.542 84.7568 110.677 84.9069 110.677 85.0719C110.677 85.2519 110.527 85.3869 110.362 85.3869Z" fill="white"/>
<path d="M124.945 85.3869H119.859C119.679 85.3869 119.544 85.2369 119.544 85.0719C119.544 84.8919 119.694 84.7568 119.859 84.7568H124.945C125.125 84.7568 125.26 84.9069 125.26 85.0719C125.26 85.2519 125.11 85.3869 124.945 85.3869Z" fill="white"/>
<path d="M116.979 85.3869H111.893C111.713 85.3869 111.578 85.2369 111.578 85.0719C111.578 84.8919 111.728 84.7568 111.893 84.7568H116.979C117.159 84.7568 117.294 84.9069 117.294 85.0719C117.294 85.2519 117.159 85.3869 116.979 85.3869Z" fill="white"/>
<path d="M131.396 85.3869H126.31C126.13 85.3869 125.995 85.2369 125.995 85.0719C125.995 84.8919 126.145 84.7568 126.31 84.7568H131.396C131.576 84.7568 131.711 84.9069 131.711 85.0719C131.726 85.2519 131.576 85.3869 131.396 85.3869Z" fill="white"/>
<path d="M108.097 84.8169H107.527V87.3073H108.097V84.8169Z" fill="white"/>
<path d="M129.145 84.8169H128.575V87.3073H129.145V84.8169Z" fill="white"/>
<path d="M122.155 90.2025H119.229C118.974 90.2025 118.779 89.9924 118.779 89.7524V89.7074C118.779 89.4674 118.974 89.2573 119.229 89.2573H122.155C122.41 89.2573 122.605 89.4674 122.605 89.7074V89.7674C122.605 90.0074 122.41 90.2025 122.155 90.2025Z" fill="#7C2011"/>
<path d="M127.72 90.2025H124.795C124.555 90.2025 124.345 89.9924 124.345 89.7524V89.7074C124.345 89.4674 124.555 89.2573 124.795 89.2573H127.72C127.975 89.2573 128.17 89.4674 128.17 89.7074V89.7674C128.17 90.0074 127.96 90.2025 127.72 90.2025Z" fill="#7C2011"/>
<path d="M118.089 93.5483C119.116 93.5483 119.949 92.7154 119.949 91.688C119.949 90.6605 119.116 89.8276 118.089 89.8276C117.061 89.8276 116.229 90.6605 116.229 91.688C116.229 92.7154 117.061 93.5483 118.089 93.5483Z" fill="#C26E6A"/>
<path d="M119.949 91.6876C119.949 91.5826 119.934 91.4776 119.919 91.3726L118.089 91.6726V93.5479C119.109 93.5479 119.949 92.7228 119.949 91.6876Z" fill="#7C2011"/>
<path d="M123.805 92.0179H113.858C113.603 92.0179 113.408 91.8079 113.408 91.5678V87.5922C113.408 87.3371 113.618 87.1421 113.858 87.1421H123.805C124.045 87.1421 124.255 87.3371 124.255 87.5922V91.5678C124.255 91.8079 124.06 92.0179 123.805 92.0179Z" fill="#DC4A39"/>
<path d="M117.383 92.0179H112.357C112.117 92.0179 111.907 91.8079 111.907 91.5678V87.5922C111.907 87.3371 112.117 87.1421 112.357 87.1421H117.383C117.638 87.1421 117.833 87.3371 117.833 87.5922V91.5678C117.833 91.8079 117.623 92.0179 117.383 92.0179Z" fill="#F78569"/>
<path d="M116.828 88.0422C116.888 88.0422 116.933 88.0872 116.933 88.1473V90.9977C116.933 91.0577 116.888 91.1028 116.828 91.1028H112.928C112.868 91.1028 112.823 91.0577 112.823 90.9977V88.1473C112.823 88.0872 112.868 88.0422 112.928 88.0422H116.828ZM116.828 87.7422H112.928C112.702 87.7422 112.522 87.9222 112.522 88.1473V90.9977C112.522 91.2228 112.702 91.4028 112.928 91.4028H116.828C117.053 91.4028 117.233 91.2228 117.233 90.9977V88.1473C117.233 87.9222 117.053 87.7422 116.828 87.7422Z" fill="#7C2011"/>
<path d="M122.679 84.8169H122.109V88.0724H122.679V84.8169Z" fill="white"/>
<path d="M123.145 91.598C123.28 91.0429 123.37 90.3678 123.37 89.7227C123.37 88.2374 122.935 87.4873 122.395 87.4873C121.855 87.4873 121.42 88.2374 121.42 89.7227C121.42 90.3678 121.51 91.0429 121.645 91.598H123.145Z" fill="#7C2011"/>
<path d="M113.783 89.5875H112.958C112.718 89.5875 112.508 89.3775 112.508 89.1374V88.1923C112.508 87.9522 112.718 87.7422 112.958 87.7422H113.783C114.038 87.7422 114.233 87.9522 114.233 88.1923V89.1374C114.233 89.3775 114.023 89.5875 113.783 89.5875Z" fill="#7C2011"/>
<path d="M116.888 91.4179C117.083 91.4179 117.233 91.2678 117.233 91.0728V90.2777C117.233 90.0826 117.083 89.9326 116.888 89.9326C116.693 89.9326 116.543 90.0826 116.543 90.2777V91.0728C116.543 91.2528 116.693 91.4179 116.888 91.4179Z" fill="#7C2011"/>
<path d="M115.688 91.4179C115.883 91.4179 116.033 91.2678 116.033 91.0728V90.2777C116.033 90.0826 115.883 89.9326 115.688 89.9326C115.493 89.9326 115.343 90.0826 115.343 90.2777V91.0728C115.343 91.2528 115.508 91.4179 115.688 91.4179Z" fill="#7C2011"/>
<path d="M121.854 90.2025H118.929C118.674 90.2025 118.479 89.9924 118.479 89.7524V89.7074C118.479 89.4674 118.674 89.2573 118.929 89.2573H121.854C122.109 89.2573 122.304 89.4674 122.304 89.7074V89.7674C122.304 90.0074 122.109 90.2025 121.854 90.2025Z" fill="#7C2011"/>
<path d="M127.42 90.2025H124.495C124.255 90.2025 124.045 89.9924 124.045 89.7524V89.7074C124.045 89.4674 124.255 89.2573 124.495 89.2573H127.42C127.676 89.2573 127.871 89.4674 127.871 89.7074V89.7674C127.871 90.0074 127.661 90.2025 127.42 90.2025Z" fill="#7C2011"/>
<path d="M187.025 103.285H139.962L137.097 105.565L134.246 103.285H116.123L108.742 109.196L101.361 103.285H59.6988L56.3232 106.885L53.0827 103.285H37V111.011H79.5322L82.3976 112.391L85.2481 111.011H91.7742L93.4245 109.046H95.5248L97.1751 111.011H98.8254L99.6655 110.021H100.716L101.556 111.011H125.77L133.151 114.567L140.532 111.011H160.351L163.216 112.391L166.067 111.011H187.025V103.285Z" fill="#7C2011"/>
</svg>
