<svg width="224" height="160" viewBox="0 0 224 160" fill="none" xmlns="http://www.w3.org/2000/svg">
<rect width="224" height="160" rx="16" fill="white"/>
<path d="M90.6769 85.316V70.1758H93.4064V79.4576L97.8938 73.6233H101.317L96.7141 79.4576L101.34 85.316H97.917L93.4064 79.4576V85.316H90.6769Z" fill="#594F4F"/>
<path d="M110.87 79.4576C110.87 78.4692 110.546 77.6254 109.876 76.9262C109.205 76.2271 108.418 75.8655 107.47 75.8655C106.521 75.8655 105.735 76.2271 105.064 76.9262C104.393 77.6254 104.07 78.4692 104.07 79.4576C104.07 80.4702 104.393 81.314 105.064 82.0373C105.735 82.7364 106.521 83.098 107.47 83.098C108.441 83.098 109.228 82.7364 109.876 82.0373C110.546 81.314 110.87 80.4702 110.87 79.4576ZM113.715 79.4576C113.715 81.2176 113.091 82.6882 111.865 83.8695C110.616 85.0508 109.158 85.6535 107.47 85.6535C105.804 85.6535 104.324 85.0508 103.075 83.8695C101.826 82.6641 101.201 81.1935 101.201 79.4576C101.201 77.7218 101.826 76.2512 103.052 75.0699C104.301 73.8644 105.758 73.2617 107.447 73.2617C109.135 73.2617 110.593 73.8644 111.842 75.0699C113.091 76.2753 113.715 77.7218 113.715 79.4576Z" fill="#594F4F"/>
<path d="M115.358 85.3156V69.4521H118.087V85.3156H115.358Z" fill="#594F4F"/>
<path d="M131.804 79.4579C131.804 79.8437 131.758 80.2776 131.642 80.7598H122.644C122.829 81.459 123.246 82.0376 123.847 82.4956C124.448 82.9537 125.096 83.1707 125.79 83.1707C126.415 83.1707 127.039 83.0019 127.594 82.6885C128.173 82.3751 128.612 81.9652 128.913 81.459L130.763 83.1707C130.185 83.9421 129.468 84.5449 128.612 85.0029C127.733 85.4369 126.808 85.6539 125.79 85.6539C124.101 85.6539 122.644 85.0511 121.488 83.8698C120.308 82.6644 119.73 81.1938 119.73 79.4579C119.73 77.698 120.331 76.2274 121.488 75.0702C122.69 73.8888 124.101 73.2861 125.79 73.2861C127.432 73.2861 128.866 73.8888 130.023 75.0943C131.249 76.2997 131.804 77.7221 131.804 79.4579ZM122.714 78.3248H128.913C128.751 77.5775 128.381 76.9506 127.802 76.4685C127.224 75.9863 126.576 75.7452 125.836 75.7452C125.096 75.7452 124.448 75.9863 123.847 76.4926C123.269 76.9506 122.875 77.5775 122.714 78.3248Z" fill="#594F4F"/>
<path d="M133.469 85.3156V69.4521H136.199V79.4572L140.686 73.6229H144.11L139.507 79.4572L144.133 85.3156H140.709L136.199 79.4572V85.3156H133.469Z" fill="#594F4F"/>
<path d="M144.572 75.9863V73.6237H145.613V70.8994H148.32V73.6478H150.216V76.0104H148.32V82.2546C148.32 82.4957 148.412 82.7126 148.597 82.8814C148.782 83.0502 149.014 83.1466 149.245 83.1466C149.569 83.1466 149.8 83.0984 149.962 82.9778L150.494 85.244C149.939 85.5333 149.268 85.678 148.482 85.678C147.626 85.678 146.932 85.3887 146.4 84.8101C145.868 84.2315 145.59 83.4841 145.59 82.568V75.9863H144.572Z" fill="#594F4F"/>
<path d="M151.651 73.6234H154.381V85.316H151.651V73.6234ZM151.882 72.2492C151.559 71.9117 151.397 71.5259 151.397 71.0437C151.397 70.5857 151.559 70.1758 151.882 69.8383C152.206 69.5008 152.599 69.332 153.039 69.332C153.502 69.332 153.872 69.5008 154.196 69.8383C154.519 70.1758 154.681 70.5616 154.681 71.0437C154.681 71.5018 154.519 71.9117 154.196 72.2492C153.872 72.5867 153.502 72.7555 153.039 72.7555C152.576 72.7555 152.206 72.5867 151.882 72.2492Z" fill="#594F4F"/>
<path d="M175.684 79.4576C175.684 78.4692 175.36 77.6254 174.69 76.9262C174.019 76.2271 173.232 75.8655 172.284 75.8655C171.336 75.8655 170.549 76.2271 169.878 76.9262C169.208 77.6254 168.884 78.4692 168.884 79.4576C168.884 80.4702 169.208 81.314 169.878 82.0373C170.549 82.7364 171.336 83.098 172.284 83.098C173.256 83.098 174.042 82.7364 174.69 82.0373C175.36 81.314 175.684 80.4702 175.684 79.4576ZM178.506 79.4576C178.506 81.2176 177.882 82.6882 176.656 83.8695C175.407 85.0508 173.949 85.6535 172.261 85.6535C170.595 85.6535 169.115 85.0508 167.866 83.8695C166.617 82.6641 165.992 81.1935 165.992 79.4576C165.992 77.7218 166.617 76.2512 167.843 75.0699C169.092 73.8644 170.549 73.2617 172.238 73.2617C173.926 73.2617 175.384 73.8644 176.633 75.0699C177.905 76.2753 178.506 77.7218 178.506 79.4576Z" fill="#594F4F"/>
<path d="M163.54 73.623L160.88 79.602H160.811L158.151 73.623H155.352L160.834 85.4845L166.362 73.623H163.54Z" fill="#594F4F"/>
<path d="M68.4251 79.7228L77.4463 89.1251C76.9837 90.1859 76.4517 91.2226 75.8503 92.211L63.8683 79.7228L75.989 67.0898C76.5673 68.0783 77.0993 69.115 77.562 70.224L68.4251 79.7228Z" fill="#63E495"/>
<path d="M56.1202 100.119L58.8035 102.915C60.1219 102.795 61.4404 102.554 62.6664 102.216L56.1202 95.3936V100.119Z" fill="#5B4F4F"/>
<path d="M56.1202 73.5515L69.2125 59.906C68.2873 59.2551 67.3389 58.6765 66.298 58.1943L56.1202 68.8262V73.5515Z" fill="#497A81"/>
<path d="M56.1202 64.0766L63.0134 56.8682C61.7874 56.5065 60.5152 56.2172 59.2198 56.0967L56.1202 59.3272V64.0766Z" fill="#5B4F4F"/>
<path d="M56.1202 90.6442L66.0435 100.987C67.0613 100.505 68.056 99.926 68.9812 99.3233L56.1202 85.9189V90.6442Z" fill="#497A81"/>
<path d="M74.0701 64.3659C73.353 63.498 72.6128 62.7024 71.8032 61.9551L56.1202 78.2766V81.1696L71.5719 97.2742C72.4046 96.5268 73.1448 95.7312 73.8619 94.8874L59.3123 79.7231L74.0701 64.3659Z" fill="#00B0A9"/>
<path d="M56.1201 56C55.033 56.0241 53.9689 56.1688 52.9049 56.3616V102.674C53.9458 102.867 55.033 102.988 56.1201 103.036V100.143V95.4176V90.6923V85.967V81.2417V78.3487V73.5511V68.8258V64.0764V59.327V56Z" fill="#DB5A3F"/>
<path d="M77.5163 79.7231L79.2974 81.5794C79.1817 82.9536 78.9504 84.3278 78.6266 85.6056L72.9825 79.7231L78.7191 73.7441C79.0198 75.0701 79.2511 76.4202 79.3436 77.8426L77.5163 79.7231Z" fill="#A7EAD3"/>
<path d="M37.1983 67.9824V91.0303C35.3247 87.6309 34.2838 83.7012 34.2838 79.5063C34.2838 75.3114 35.3247 71.3817 37.1983 67.9824Z" fill="#FFBC7C"/>
<path d="M43.6514 60.4355V98.5513C42.4717 97.6833 41.4308 96.6949 40.4362 95.61V63.3768C41.4308 62.316 42.4948 61.3035 43.6514 60.4355Z" fill="#FAA050"/>
<path d="M49.8736 57.1328V101.854C48.7633 101.469 47.6761 101.01 46.6583 100.48V58.5311C47.7224 58.0007 48.7633 57.5186 49.8736 57.1328Z" fill="#F37C56"/>
</svg>
