<svg xmlns="http://www.w3.org/2000/svg" width="32" height="32" viewBox="0 0 32 32" fill="none">
   <path fill="#fff" d="M6.104 5.475h19.771v17.981H6.104z"/>
   <path d="M32 16c0 8.837-7.163 16-16 16S0 24.837 0 16 7.163 0 16 0s16 7.163 16 16Zm-20.534 6.367H8.361c-.653 0-.975 0-1.171-.126a.79.79 0 0 1-.358-.617c-.012-.232.15-.515.472-1.08L14.97 7.028c.326-.574.49-.86.7-.967a.791.791 0 0 1 .715 0c.208.106.373.393.7.967l1.575 2.752.008.014c.353.615.531.927.61 1.255.086.358.086.735 0 1.093-.08.33-.256.644-.614 1.27l-4.027 7.119-.01.018c-.355.62-.535.935-.784 1.172-.271.26-.597.448-.955.555-.326.09-.692.09-1.423.09zm7.842 0h4.449c.656 0 .987 0 1.183-.13a.787.787 0 0 0 .358-.62c.011-.225-.146-.497-.455-1.03l-.033-.055-2.228-3.813-.026-.043c-.313-.53-.471-.797-.674-.9a.783.783 0 0 0-.711 0c-.205.106-.37.385-.696.947l-2.22 3.813-.009.013c-.325.56-.487.841-.476 1.071a.796.796 0 0 0 .358.622c.193.125.523.125 1.18.125z" clip-rule="evenodd" fill="#e84142" fill-rule="evenodd"/>
 </svg>