<svg xmlns="http://www.w3.org/2000/svg" width="400" height="400">
  <g fill-rule="evenodd">
    <path d="M255.6 107.022c-.33.097-2.67.438-5.2.758-11.229 1.419-25.682 6.992-29.6 11.415-.11.124-1.01.845-2 1.602-2.252 1.722-7.6 7.036-7.6 7.552 0 .211-.152.444-.337.518-.557.22-4.067 5.023-5.151 7.046-2.546 4.757-4.512 8.928-4.512 9.572 0 1.812-1.348 2.115-9.393 2.115-8.48 0-9.007.155-9.007 2.643 0 .476-.269 1.381-.598 2.011-.328.63-.598 1.521-.6 1.979-.001.459-.131.962-.288 1.12-.157.157-.5 1.042-.762 1.966a113.76 113.76 0 0 1-.761 2.581l-.284.9h8.366c5.974 0 8.504.137 8.847.48.701.701.682 15.901-.02 15.967-.275.026-2.958.009-5.963-.039-7.347-.115-6.801-.442-8.548 5.109-.81 2.576-1.745 5.342-2.076 6.148-1.006 2.445-1.21 2.394 9.337 2.35 10.58-.044 11.539.113 11.944 1.956.147.671.434 1.323.637 1.448.203.126.369.551.369.945 0 .394.473 1.599 1.05 2.676.578 1.078 1.417 2.68 1.864 3.56.448.88 1.235 2.173 1.75 2.873.515.701.936 1.451.936 1.667 0 .216.135.453.3.527.165.073 1.056 1.123 1.98 2.333 2.488 3.259 5.984 6.789 8.92 9.008 1.43 1.081 2.66 2.106 2.733 2.279.074.172.311.313.527.313.216 0 .966.43 1.667.956.7.526 2.083 1.339 3.073 1.807.99.468 2.07 1.008 2.4 1.2.575.334 1.678.835 4.86 2.207.804.347 1.661.63 1.906.63.245 0 .757.155 1.139.344 1.359.672 4.818 1.656 5.823 1.656.561 0 1.519.19 2.13.422 5.129 1.95 25.067 1.258 30.456-1.058.722-.31 1.746-.564 2.276-.564.53 0 1.074-.18 1.21-.4.136-.22.524-.4.863-.4 1.046 0 9.8-4.065 11.037-5.124.629-.539.7-1.53.7-9.735v-9.136l-2.565 1.757c-13.678 9.364-33.851 12.156-47.435 6.565-3.019-1.242-4.499-1.941-6.988-3.298-4.223-2.302-9.839-7.733-13.154-12.72-3.605-5.425-6.056-4.877 22.862-5.109 26.77-.215 25.658-.12 25.674-2.187.003-.432.257-1.512.564-2.4.307-.887.869-2.693 1.25-4.013.38-1.32.849-2.713 1.042-3.095 1.25-2.48 3.423-2.305-28.641-2.305h-28.991l-.709-1.083c-1.024-1.564-1.011-10.691.017-12.261l.692-1.056h31.142c34.262 0 31.772.191 32.452-2.489.183-.721.628-2.301.988-3.511.361-1.21.834-2.92 1.051-3.8.217-.88.565-1.771.772-1.98.207-.209.377-.793.377-1.298v-.917l-31.5-.103-31.5-.102-.121-.85c-.067-.468.115-1.098.404-1.4.29-.303.726-1 .97-1.55 2.617-5.899 15.808-17.2 20.076-17.2.265 0 .794-.156 1.176-.346 1.335-.666 3.509-1.349 5.295-1.663.99-.174 3.056-.534 4.591-.799 3.22-.557 14.203-.348 17.009.324.99.237 2.61.633 3.6.881.99.248 2.25.543 2.8.657.55.113 1.36.357 1.8.542.44.185 1.779.666 2.976 1.07s3.357 1.303 4.8 1.999c2.877 1.387 3.381 1.249 3.87-1.065.117-.55.445-1.63.73-2.4s.807-2.39 1.161-3.6c.355-1.21.918-3.061 1.254-4.114 1.162-3.651.229-4.626-6.391-6.685a38.8 38.8 0 0 1-2.914-1.049c-.722-.304-1.679-.552-2.126-.552-.447 0-1.137-.174-1.534-.386-2.242-1.2-20.895-3.282-23.226-2.592m-98.4 41.601c-.55.277-1.63.776-2.4 1.108-3.16 1.362-8.635 4.102-9.129 4.569-.29.275-.699.5-.908.5-.576 0-9.09 5.789-9.963 6.774-.11.124-1.273 1.126-2.584 2.226-7.324 6.143-15.1 15.833-19.317 24.071a145.68 145.68 0 0 1-1.253 2.4c-.998 1.834-2.846 6.188-2.846 6.706 0 .317-.18.687-.4.823-.22.136-.401.552-.402.924-.002.372-.272 1.192-.6 1.822-.329.63-.598 1.497-.598 1.926 0 .429-.185 1.126-.411 1.549-.405.757-.677 1.864-1.808 7.379-2.08 10.141-1.812 26.387.583 35.4.205.77.679 2.57 1.055 4 .375 1.43.929 3.167 1.231 3.86.303.694.55 1.538.55 1.877 0 .339.18.727.4.863.22.136.4.506.4.823 0 .658 3.47 8.447 4 8.977.11.11.515.785.9 1.5 1.453 2.698 2.109 3.866 2.403 4.276.167.233 1.324 1.864 2.572 3.624 7.575 10.684 19.025 20.636 29.925 26.011.88.434 1.66.924 1.733 1.089.074.165.316.3.54.3.223 0 1.063.289 1.867.643 4.352 1.917 6.349 2.7 8.46 3.317.77.226 2.03.618 2.8.873 1.405.464 2.057.616 7.6 1.771 5.557 1.159 10.109 1.471 18.6 1.277 7.997-.182 9.789-.385 15.094-1.709 1.262-.314 2.736-.572 3.276-.572.541 0 1.088-.17 1.216-.377.128-.207 1.041-.498 2.028-.646.988-.148 1.894-.429 2.015-.623.12-.195.585-.354 1.033-.354.448 0 1.292-.251 1.876-.557.584-.306 1.872-.875 2.862-1.263 2.644-1.038 7.113-3.206 9.4-4.559 1.1-.651 2.577-1.479 3.282-1.839.704-.361 1.492-.909 1.749-1.219.257-.31.638-.563.847-.563.208 0 .614-.225.902-.5.287-.275.926-.77 1.42-1.1.494-.33 1.133-.825 1.42-1.1.288-.275.701-.5.918-.5.217 0 .455-.154.529-.343.073-.189 1.481-1.494 3.128-2.9 1.648-1.406 3.388-2.972 3.868-3.48.802-.85 4.726-5.211 6.627-7.366.443-.501 1.26-1.631 1.817-2.511.557-.88 1.121-1.69 1.253-1.8.339-.282 2.84-3.985 2.84-4.205 0-.099.687-1.309 1.526-2.688.84-1.379 1.875-3.361 2.3-4.406.426-1.044.909-1.899 1.074-1.9.165 0 .3-.199.3-.441 0-.466.874-2.62 1.815-4.476.784-1.545 1.041-1.512-11.002-1.391l-10.575.107-1.065 1.569c-.586.862-1.4 2.212-1.809 3-3.391 6.521-10.882 14.28-19.756 20.461-2.226 1.551-10.096 5.57-10.906 5.57-.298 0-.713.154-.922.343-.209.188-1.73.749-3.38 1.246s-3.413 1.063-3.919 1.257c-.505.195-1.351.354-1.88.354-.529 0-1.999.27-3.266.6-3.278.854-17.344.836-21.624-.028-4.937-.996-11.17-2.797-11.891-3.436-.209-.185-.624-.336-.922-.336-.299 0-1.568-.52-2.82-1.155l-3.678-1.864c-9.047-4.574-18.602-13.719-24.64-23.582-1.845-3.014-2.566-4.39-3.93-7.499-1.562-3.559-1.83-4.268-1.83-4.837 0-.339-.18-.727-.4-.863-.22-.136-.4-.617-.4-1.07 0-.452-.263-1.657-.585-2.676-2.063-6.533-2.689-20.445-1.225-27.2.814-3.753 1.793-7.586 2.212-8.654.172-.44.622-1.7.999-2.8.628-1.832 3.597-8.09 4.743-10 1.143-1.903 3.465-5.354 3.939-5.855.285-.3 1.05-1.265 1.702-2.145 1.569-2.12 6.759-7.321 9.014-9.034.989-.751 2.211-1.72 2.716-2.153.505-.432 2.756-1.893 5.002-3.245l4.083-2.46.107-10.727c.112-11.303.076-11.557-1.507-10.758" fill="#46cc85"/>
    <path d="M81.055 1c-.172.449-.889.6-2.842.6-2.056 0-2.613.128-2.613.6 0 .461-.511.6-2.2.6s-2.2.139-2.2.6c0 .433-.444.6-1.6.6-.88 0-1.6.18-1.6.4 0 .22-.636.4-1.413.4-.886 0-1.498.223-1.642.6-.132.342-.728.6-1.388.6-.762 0-1.157.205-1.157.6 0 .373-.378.6-1 .6-.55 0-1 .18-1 .4 0 .22-.456.4-1.013.4-.556 0-1.116.27-1.242.6-.127.33-.661.6-1.188.6-.584 0-.957.234-.957.6 0 .373-.378.6-1 .6s-1 .227-1 .6c0 .363-.371.6-.942.6-.517 0-1.427.45-2.02 1-.594.55-1.346 1-1.671 1-.326 0-.696.27-.822.6-.127.33-.404.6-.616.6-.519 0-1.529 1.038-1.529 1.571 0 .236-.456.429-1.013.429-.556 0-1.116.27-1.242.6-.127.33-.481.6-.788.6-.306 0-.557.193-.557.429 0 .553-1.018 1.571-1.571 1.571-.236 0-.429.27-.429.6 0 .33-.27.6-.6.6-.33 0-.6.24-.6.532 0 .293-.45.774-1 1.068-.55.294-1 .775-1 1.068 0 .292-.27.532-.6.532-.33 0-.6.27-.6.6 0 .33-.27.6-.6.6-.33 0-.6.193-.6.429 0 .553-1.018 1.571-1.571 1.571-.236 0-.429.251-.429.557 0 .307-.27.661-.6.788-.33.126-.6.514-.6.862 0 .347-.45 1.048-1 1.558s-1 1.112-1 1.338c0 .226-.27.515-.6.642-.33.126-.6.496-.6.822 0 .325-.45 1.077-1 1.671-.55.593-1 1.418-1 1.833 0 .415-.27.858-.6.984-.33.127-.6.661-.6 1.188 0 .584-.234.957-.6.957s-.6.373-.6.957c0 .527-.27 1.061-.6 1.188-.33.126-.6.686-.6 1.242 0 .557-.18 1.013-.4 1.013-.22 0-.4.45-.4 1 0 .622-.227 1-.6 1-.395 0-.6.395-.6 1.157 0 .66-.258 1.256-.6 1.388-.377.144-.6.756-.6 1.642 0 .777-.18 1.413-.4 1.413-.22 0-.4.72-.4 1.6 0 1.156-.167 1.6-.6 1.6-.461 0-.6.511-.6 2.2s-.139 2.2-.6 2.2c-.471 0-.6.55-.6 2.551 0 1.78-.181 2.702-.6 3.049-.902.748-.902 26.309 0 26.655.453.174.6.906.6 2.988 0 2.184.125 2.757.6 2.757.461 0 .6.511.6 2.2s.139 2.2.6 2.2c.433 0 .6.444.6 1.6 0 .88.18 1.6.4 1.6.22 0 .4.636.4 1.413 0 .886.223 1.498.6 1.642.33.127.6.667.6 1.2 0 .534.27 1.074.6 1.2.33.127.6.661.6 1.188 0 .526.18.957.4.957.22 0 .4.45.4 1 0 .622.227 1 .6 1 .4 0 .6.4.6 1.2 0 .8.2 1.2.6 1.2.373 0 .6.378.6 1s.227 1 .6 1 .6.378.6 1c0 .55.18 1 .4 1 .22 0 .4.27.4.6 0 .33.27.6.6.6.375 0 .6.379.6 1.013 0 .556.27 1.116.6 1.242.33.127.6.404.6.616 0 .519 1.038 1.529 1.571 1.529.673 0 .676 4.081.004 4.329-.192.071-.466.748-.608 1.505-.142.756-.417 1.473-.612 1.594s-.355.749-.355 1.396c0 .779-.203 1.176-.6 1.176-.378 0-.6.381-.6 1.029 0 .565-.27 1.298-.6 1.628-.33.33-.6 1.037-.6 1.572 0 .534-.18.971-.4.971-.22 0-.4.81-.4 1.8 0 1.333-.156 1.8-.6 1.8-.433 0-.6.444-.6 1.6 0 1.156-.167 1.6-.6 1.6-.433 0-.6.444-.6 1.6 0 1.156-.167 1.6-.6 1.6-.433 0-.6.444-.6 1.6 0 .88-.18 1.6-.4 1.6-.22 0-.4.733-.4 1.629 0 .914-.263 1.891-.6 2.228-.33.33-.6 1.292-.6 2.138 0 .846-.214 1.61-.476 1.697-.281.094-.547 1.258-.647 2.833-.094 1.471-.329 2.675-.524 2.675-.194 0-.353 1.17-.353 2.6 0 2.044-.128 2.6-.6 2.6s-.6.559-.6 2.629c0 1.803-.188 2.817-.6 3.228-.449.449-.6 1.556-.6 4.4 0 2.874-.149 3.949-.611 4.411-.826.826-.718 41.356.111 41.632.355.118.5 1.31.5 4.105 0 2.967.148 4.086.6 4.538.412.411.6 1.425.6 3.228 0 2.07.128 2.629.6 2.629s.6.556.6 2.6c0 1.467.174 2.6.4 2.6.22 0 .4.956.4 2.124 0 1.247.242 2.443.587 2.9.323.427.593 1.438.6 2.247.007.81.283 1.742.613 2.072.337.337.6 1.314.6 2.228 0 .896.18 1.629.4 1.629.22 0 .4.636.4 1.413 0 .886.223 1.498.6 1.642.391.15.6.773.6 1.788 0 1.117.169 1.557.6 1.557.433 0 .6.444.6 1.6 0 1.156.167 1.6.6 1.6.432 0 .6.442.6 1.576 0 .867.18 1.688.4 1.824.22.136.4.665.4 1.175s.27 1.151.6 1.425c.33.274.6 1.016.6 1.649 0 .756.206 1.151.6 1.151.397 0 .6.397.6 1.176 0 .647.16 1.275.355 1.396.195.121.473.851.618 1.624.145.772.435 1.404.645 1.404.21 0 .382.45.382 1 0 .622.227 1 .6 1 .4 0 .6.4.6 1.2 0 .8.2 1.2.6 1.2.373 0 .6.378.6 1 0 .55.18 1 .4 1 .22 0 .4.45.4 1 0 .622.227 1 .6 1 .4 0 .6.4.6 1.2 0 .8.2 1.2.6 1.2.373 0 .6.378.6 1 0 .55.177 1 .392 1 .216 0 .506.45.644 1s.411 1 .607 1c.197 0 .357.276.357.613 0 .336.27.716.6.842.33.127.6.661.6 1.188 0 .584.234.957.6.957.373 0 .6.378.6 1 0 .55.18 1 .4 1 .22 0 .4.27.4.6 0 .33.27.6.6.6.37 0 .6.376.6.98 0 .539.239 1.124.531 1.3.292.176.877.947 1.3 1.713.737 1.335.947 1.637 2.069 2.976.275.329.5.875.5 1.214 0 .339.27.617.6.617.33 0 .6.27.6.6 0 .33.18.6.4.6.22 0 .4.366.4.813 0 .446.27.916.6 1.042.33.127.6.481.6.788 0 .306.27.557.6.557.33 0 .6.18.6.4 0 .22.27.4.6.4.378 0 .6.381.6 1.031 0 1.031 1.922 3.369 2.769 3.369.237 0 .431.334.431.742 0 .407.45 1.227 1 1.82.55.594 1 1.25 1 1.459 0 .208.27.379.6.379.33 0 .6.27.6.6 0 .33.27.6.6.6.33 0 .6.193.6.429 0 .553 1.018 1.571 1.571 1.571.236 0 .429.27.429.6 0 .33.249.6.553.6.305 0 .659.315.789.7.525 1.563 7.312 8.9 8.233 8.9.234 0 .425.27.425.6 0 .33.27.6.6.6.33 0 .6.177.6.392 0 .216.45.506 1 .644s1 .424 1 .636c0 .518 1.038 1.528 1.571 1.528.236 0 .429.27.429.6 0 .33.27.6.6.6.33 0 .6.183.6.406 0 .723 2.574 2.77 3.5 2.782.495.007.9.206.9.443 0 .536 2.199 2.769 2.726 2.769.214 0 .492.27.619.6.126.33.596.6 1.042.6.456 0 .813.264.813.6 0 .33.171.6.379.6.209 0 .865.45 1.459 1 .593.55 1.413 1 1.82 1 .408 0 .742.27.742.6 0 .33.251.6.557.6.307 0 .661.27.788.6.126.33.596.6 1.042.6.447 0 .813.18.813.4 0 .22.27.4.6.4.33 0 .6.27.6.6 0 .373.378.6 1 .6s1 .227 1 .6c0 .33.27.6.6.6.33 0 .6.166.6.368 0 .203.54.487 1.2.632.66.145 1.2.429 1.2.632 0 .202.45.368 1 .368.622 0 1 .227 1 .6 0 .33.251.6.557.6.307 0 .661.27.788.6.126.33.596.6 1.042.6.447 0 .813.18.813.4 0 .22.54.4 1.2.4.8 0 1.2.2 1.2.6 0 .373.378.6 1 .6s1 .227 1 .6c0 .33.184.6.408.6.224 0 1.121.45 1.992 1s1.948 1 2.392 1c.452 0 .808.265.808.6 0 .378.381.6 1.029.6.565 0 1.298.27 1.628.6.33.33 1.037.6 1.572.6.534 0 .971.18.971.4 0 .22.54.4 1.2.4.8 0 1.2.2 1.2.6 0 .366.373.6.957.6.527 0 1.061.27 1.188.6.142.372.751.6 1.6.6.848 0 1.457.228 1.6.6.126.33.686.6 1.242.6.557 0 1.013.18 1.013.4 0 .22.72.4 1.6.4 1.156 0 1.6.167 1.6.6 0 .433.444.6 1.6.6 1.156 0 1.6.167 1.6.6 0 .433.444.6 1.6.6.88 0 1.6.18 1.6.4 0 .22.72.4 1.6.4 1.156 0 1.6.167 1.6.6 0 .461.511.6 2.2.6s2.2.139 2.2.6c0 .435.448.6 1.629.6.914 0 1.891.263 2.228.6.386.386 1.375.6 2.772.6 1.194 0 2.171.18 2.171.4 0 .225 1.119.4 2.557.4 1.904 0 2.616.153 2.788.6.17.443.87.6 2.671.6 1.637 0 2.639.198 3.041.6.453.453 1.575.6 4.572.6 2.381 0 3.971.16 3.971.4 0 .261 7.133.4 20.6.4 13.467 0 20.6-.139 20.6-.4 0-.24 1.584-.4 3.951-.4 3.024 0 4.068-.141 4.449-.6.347-.419 1.269-.6 3.049-.6 2.001 0 2.551-.129 2.551-.6 0-.476.578-.6 2.8-.6 1.6 0 2.8-.171 2.8-.4 0-.22.977-.4 2.171-.4 1.397 0 2.386-.214 2.772-.6.337-.337 1.314-.6 2.228-.6 1.181 0 1.629-.165 1.629-.6 0-.452.484-.6 1.957-.6 1.371 0 2.026-.18 2.188-.6.152-.396.778-.6 1.842-.6.887 0 1.613-.18 1.613-.4 0-.22.72-.4 1.6-.4 1.156 0 1.6-.167 1.6-.6 0-.433.444-.6 1.6-.6 1.156 0 1.6-.167 1.6-.6 0-.433.444-.6 1.6-.6.88 0 1.6-.18 1.6-.4 0-.22.456-.4 1.013-.4.556 0 1.116-.27 1.242-.6.143-.372.752-.6 1.6-.6.849 0 1.458-.228 1.6-.6.127-.33.661-.6 1.188-.6.584 0 .957-.234.957-.6 0-.4.4-.6 1.2-.6.66 0 1.2-.18 1.2-.4 0-.22.428-.4.951-.4.523 0 1.175-.27 1.449-.6.274-.33.932-.6 1.462-.6.529 0 1.067-.27 1.193-.6.127-.33.661-.6 1.188-.6.526 0 .959-.135.961-.3.002-.165.812-.655 1.8-1.09.988-.434 1.796-1.019 1.796-1.3 0-.28.45-.51 1-.51.622 0 1-.227 1-.6 0-.4.4-.6 1.2-.6.66 0 1.2-.18 1.2-.4 0-.22.366-.4.813-.4.446 0 .916-.27 1.042-.6.127-.33.481-.6.788-.6.306 0 .557-.27.557-.6 0-.368.374-.6.967-.6.531 0 1.026-.135 1.1-.3.073-.165.808-.643 1.633-1.063.825-.42 1.5-1.005 1.5-1.3 0-.33.463-.537 1.2-.537.8 0 1.2-.2 1.2-.6 0-.33.27-.6.6-.6.33 0 .6-.18.6-.4 0-.22.366-.4.813-.4.446 0 .916-.27 1.042-.6.127-.33.481-.6.788-.6.306 0 .557-.27.557-.6 0-.33.334-.6.742-.6.407 0 1.227-.45 1.82-1 .594-.55 1.25-1 1.459-1 .208 0 .379-.27.379-.6 0-.336.357-.6.813-.6.446 0 .916-.27 1.042-.6.127-.33.404-.6.616-.6.519 0 1.529-1.038 1.529-1.571 0-.236.27-.429.6-.429.33 0 .6-.27.6-.6 0-.346.362-.6.854-.6.47 0 1.271-.45 1.781-1s1.115-1 1.346-1c.23 0 .419-.27.419-.6 0-.33.27-.6.6-.6.33 0 .6-.193.6-.429 0-.553 1.018-1.571 1.571-1.571.236 0 .429-.27.429-.6 0-.33.23-.6.511-.6s1.102-.54 1.825-1.2c.722-.66 1.398-1.2 1.502-1.2.353 0 2.562-2.426 2.562-2.814 0-.212.27-.386.6-.386.33 0 .6-.27.6-.6 0-.33.225-.607.5-.615.524-.016 2.7-2.909 2.7-3.59 0-.217.27-.395.6-.395.33 0 .6-.27.6-.6 0-.33.27-.6.6-.6.33 0 .6-.193.6-.429 0-.553 1.018-1.571 1.571-1.571.236 0 .429-.27.429-.6 0-.33.27-.6.6-.6.33 0 .6-.27.6-.6 0-.33.27-.6.6-.6.33 0 .6-.27.6-.6 0-.33.18-.6.4-.6.22 0 .4-.27.4-.6 0-.33.177-.6.392-.6.216 0 .506-.45.644-1s.424-1 .636-1c.518 0 1.528-1.038 1.528-1.571 0-.236.27-.429.6-.429.4 0 .6-.4.6-1.2 0-.66.194-1.2.431-1.2.754 0 2.769-2.306 2.769-3.169 0-.472.259-.831.6-.831.33 0 .6-.27.6-.6 0-.33.27-.6.6-.6.33 0 .6-.317.6-.704 0-.387.45-1.189 1-1.783.55-.593 1-1.274 1-1.512 0-.468.584-1.265 1.7-2.318.385-.363.7-1.071.7-1.572 0-.501.18-.911.4-.911.22 0 .4-.27.4-.6 0-.33.27-.6.6-.6.373 0 .6-.378.6-1s.227-1 .6-1c.33 0 .6-.351.6-.779 0-.429.45-1.265 1-1.859.55-.593 1-1.503 1-2.02 0-.571.237-.942.6-.942.373 0 .6-.378.6-1s.227-1 .6-1c.4 0 .6-.4.6-1.2 0-.66.18-1.2.4-1.2.22 0 .4-.45.4-1 0-.622.227-1 .6-1 .366 0 .6-.373.6-.957 0-.527.27-1.061.6-1.188.33-.126.6-.666.6-1.2 0-.533.289-1.08.642-1.216.352-.135.543-.501.423-.813-.119-.312.042-.783.359-1.046s.576-.884.576-1.38c0-.496.27-1.126.6-1.4.33-.274.6-1.016.6-1.649 0-.756.206-1.151.6-1.151.397 0 .6-.397.6-1.176 0-.647.18-1.288.4-1.424.22-.136.4-.757.4-1.381 0-.638.262-1.234.6-1.364.396-.152.6-.778.6-1.842 0-1.167.166-1.613.6-1.613.433 0 .6-.444.6-1.6 0-1.156.167-1.6.6-1.6.433 0 .6-.444.6-1.6 0-.88.18-1.6.4-1.6.22 0 .4-.72.4-1.6 0-1.156.167-1.6.6-1.6.442 0 .6-.461.6-1.751 0-1.069.234-1.945.6-2.249.342-.284.6-1.156.6-2.025 0-.84.18-1.639.4-1.775.22-.136.4-1.407.4-2.824 0-2.023.129-2.576.6-2.576.472 0 .6-.556.6-2.6s.128-2.6.6-2.6c.473 0 .603-.572.613-2.7.008-1.737.222-2.977.6-3.476.418-.554.587-1.846.587-4.5 0-2.216.162-3.724.4-3.724.262 0 .4-7.267.4-21s-.138-21-.4-21c-.238 0-.4-1.508-.4-3.724 0-2.654-.169-3.946-.587-4.5-.378-.499-.592-1.739-.6-3.476-.01-2.128-.14-2.7-.613-2.7-.472 0-.6-.556-.6-2.6s-.128-2.6-.6-2.6c-.471 0-.6-.553-.6-2.576 0-1.417-.18-2.688-.4-2.824-.22-.136-.4-.944-.4-1.795s-.27-1.818-.6-2.148c-.337-.337-.6-1.314-.6-2.228 0-1.181-.165-1.629-.6-1.629-.433 0-.6-.444-.6-1.6 0-.88-.18-1.6-.4-1.6-.22 0-.4-.72-.4-1.6 0-1.156-.167-1.6-.6-1.6-.433 0-.6-.444-.6-1.6 0-1.156-.167-1.6-.6-1.6-.444 0-.6-.467-.6-1.8s-.156-1.8-.6-1.8c-.419 0-.6-.422-.6-1.4 0-.77-.18-1.4-.4-1.4-.22 0-.4-.54-.4-1.2 0-.8-.2-1.2-.6-1.2-.394 0-.6-.395-.6-1.151 0-.633-.27-1.375-.6-1.649-.33-.274-.6-1.016-.6-1.649s-.18-1.151-.4-1.151c-.22 0-.4-.366-.4-.813 0-.446-.27-.916-.6-1.042-.342-.132-.6-.728-.6-1.388 0-.762-.205-1.157-.6-1.157-.373 0-.6-.378-.6-1s-.227-1-.6-1c-.4 0-.6-.4-.6-1.2 0-.66-.18-1.2-.4-1.2-.22 0-.4-.45-.4-1 0-.622-.227-1-.6-1s-.6-.378-.6-1-.227-1-.6-1c-.363 0-.6-.371-.6-.942 0-.517-.45-1.427-1-2.02-.55-.594-1-1.43-1-1.859 0-.428-.27-.779-.6-.779-.373 0-.6-.378-.6-1s-.227-1-.6-1c-.33 0-.6-.27-.6-.6 0-.33-.18-.6-.4-.6-.22 0-.4-.441-.4-.98 0-.539-.225-1.124-.5-1.3-.502-.321-1.266-1.401-1.782-2.52-.152-.33-.691-1.048-1.197-1.596-.507-.548-.921-1.313-.921-1.7s-.27-.704-.6-.704c-.33 0-.6-.27-.6-.6 0-.33-.27-.6-.6-.6-.373 0-.6-.378-.6-1 0-.55-.18-1-.4-1-.22 0-.4-.27-.4-.6 0-.33-.178-.6-.395-.6-.782 0-2.005-1.396-2.005-2.289 0-.543-.242-.911-.6-.911-.33 0-.6-.193-.6-.429 0-.533-1.01-1.571-1.528-1.571-.212 0-.498-.45-.636-1s-.428-1-.644-1c-.215 0-.392-.27-.392-.6 0-.33-.18-.6-.4-.6-.22 0-.4-.27-.4-.6 0-.33-.27-.6-.6-.6-.33 0-.6-.27-.6-.6 0-.33-.27-.6-.6-.6-.33 0-.6-.27-.6-.6 0-.33-.193-.6-.429-.6-.553 0-1.571-1.018-1.571-1.571 0-.236-.227-.429-.505-.429-.48 0-1.145-.964-1.724-2.5-.145-.385-.513-.7-.818-.7-.304 0-.553-.194-.553-.431 0-.56-2.209-2.769-2.769-2.769a.432.432 0 0 1-.431-.431c0-.56-2.209-2.769-2.769-2.769-.237 0-.431-.227-.431-.505 0-.48-.964-1.145-2.5-1.724-.385-.145-.7-.513-.7-.818 0-.304-.193-.553-.429-.553-.553 0-1.571-1.018-1.571-1.571 0-.236-.27-.429-.6-.429-.33 0-.6-.27-.6-.6 0-.33-.189-.6-.419-.6-.231 0-.836-.45-1.346-1-.51-.55-1.311-1-1.781-1-.492 0-.854-.254-.854-.6 0-.33-.27-.6-.6-.6-.33 0-.6-.193-.6-.429 0-.533-1.01-1.571-1.529-1.571-.212 0-.489-.27-.616-.6-.126-.33-.596-.6-1.042-.6-.456 0-.813-.264-.813-.6 0-.33-.189-.6-.419-.6-.231 0-.836-.45-1.346-1-.51-.55-1.311-1-1.781-1-.492 0-.854-.254-.854-.6 0-.33-.251-.6-.557-.6-.307 0-.661-.27-.788-.6-.126-.33-.596-.6-1.042-.6-.447 0-.813-.18-.813-.4 0-.22-.27-.4-.6-.4-.33 0-.6-.27-.6-.6 0-.4-.4-.6-1.2-.6-.66 0-1.2-.196-1.2-.436 0-.627-1.676-1.935-2.5-1.951-.385-.007-.7-.172-.7-.366 0-.195-.315-.473-.7-.618-1.536-.579-2.5-1.244-2.5-1.724 0-.278-.45-.505-1-.505s-1-.18-1-.4c0-.22-.347-.4-.771-.4-.425 0-1.017-.225-1.317-.5-.797-.73-2.011-1.489-2.812-1.758-.385-.13-.7-.38-.7-.557 0-.177-.54-.44-1.2-.585-.66-.145-1.2-.429-1.2-.632 0-.202-.431-.368-.957-.368-.527 0-1.061-.27-1.188-.6-.126-.33-.608-.6-1.071-.6-.463 0-1.111-.27-1.441-.6-.33-.33-.96-.6-1.4-.6-.44 0-1.07-.27-1.4-.6-.33-.33-.947-.6-1.372-.6-.424 0-.771-.18-.771-.4 0-.22-.431-.4-.957-.4-.527 0-1.061-.27-1.188-.6-.142-.372-.751-.6-1.6-.6-.848 0-1.457-.228-1.6-.6-.126-.33-.686-.6-1.242-.6-.557 0-1.013-.18-1.013-.4 0-.22-.72-.4-1.6-.4-1.156 0-1.6-.167-1.6-.6 0-.433-.444-.6-1.6-.6-1.156 0-1.6-.167-1.6-.6 0-.431-.44-.6-1.557-.6-1.015 0-1.638-.209-1.788-.6-.143-.374-.753-.6-1.619-.6-.764 0-1.5-.18-1.636-.4-.136-.22-1.137-.4-2.224-.4-1.49 0-1.976-.148-1.976-.6 0-.435-.448-.6-1.629-.6-.914 0-1.891-.263-2.228-.6-.386-.386-1.375-.6-2.772-.6-1.194 0-2.171-.18-2.171-.4 0-.22-1.003-.4-2.229-.4-1.447 0-2.438-.21-2.828-.6-.41-.409-1.421-.6-3.184-.6-1.928 0-2.643-.152-2.814-.6-.184-.478-1.042-.6-4.216-.6-3.01 0-4.133-.147-4.586-.6-.904-.904-39.782-.904-40.686 0-.454.454-1.582.6-4.641.6-3.223 0-4.088.121-4.271.6-.174.452-.901.6-2.939.6-1.919 0-2.853.175-3.206.6-.33.397-1.225.6-2.649.6-1.183 0-2.151.18-2.151.4 0 .226-1.143.4-2.629.4-2.562 0-3.771-.504-3.771-1.571 0-.236-.27-.429-.6-.429-.33 0-.6-.27-.6-.6 0-.33-.27-.6-.6-.6-.33 0-.6-.289-.6-.643 0-.407-.22-.558-.6-.412-.365.14-.6 0-.6-.358 0-.323-.18-.587-.4-.587-.22 0-.4-.27-.4-.6 0-.33-.27-.6-.6-.6-.33 0-.6-.27-.6-.6 0-.33-.27-.6-.6-.6-.33 0-.6-.18-.6-.4 0-.22-.27-.4-.6-.4-.33 0-.6-.178-.6-.395 0-.782-1.396-2.005-2.289-2.005-.501 0-.911-.193-.911-.429 0-.533-1.01-1.571-1.529-1.571-.212 0-.489-.27-.616-.6-.126-.33-.686-.6-1.242-.6-.557 0-1.013-.205-1.013-.456 0-.672-1.268-1.517-2.3-1.531-.528-.008-.9-.261-.9-.613 0-.373-.378-.6-1-.6s-1-.227-1-.6c0-.4-.4-.6-1.2-.6-.8 0-1.2-.2-1.2-.6 0-.373-.378-.6-1-.6-.55 0-1-.18-1-.4 0-.22-.431-.4-.957-.4-.527 0-1.061-.27-1.188-.6-.126-.33-.666-.6-1.2-.6-.533 0-1.073-.27-1.2-.6-.144-.377-.756-.6-1.642-.6-.777 0-1.413-.18-1.413-.4 0-.22-.72-.4-1.6-.4-1.156 0-1.6-.167-1.6-.6 0-.461-.511-.6-2.2-.6s-2.2-.139-2.2-.6c0-.476-.578-.6-2.8-.6S108 1.476 108 1c0-.906-26.597-.906-26.945 0M64.239 23.381c.638.319 1.431.976 1.761 1.459 3.535 5.174 9.226 11.96 10.03 11.96.155 0 .996-.654 1.871-1.453 3.467-3.168 9.722-3.919 14.252-1.711 1.456.71 2.647 1.434 2.647 1.609 0 .282 2.29-.736 2.8-1.245 2.761-2.758 11.287-1.985 15.097 1.369l1.783 1.569 2.268-2.369c1.247-1.303 3.164-3.539 4.26-4.969 1.095-1.43 2.127-2.66 2.292-2.733.165-.074.3-.361.3-.639 0-1.342 2.996-3.428 4.924-3.428 4.832 0 6.59 4.251 4.713 11.4l-1.104 4.2c-.319 1.21-.749 2.513-.956 2.895-.208.382-.377.96-.377 1.286 0 .896-2.406 6.333-2.9 6.552-.165.074-.3.346-.3.606 0 .883-2.847 4.702-5.261 7.058-3.008 2.934-2.963 3.484.378 4.634 1.382.476 2.626.979 2.765 1.117.138.139.561.252.939.252.378 0 1.203.269 1.833.598.63.328 1.45.598 1.822.6.372.001.779.168.905.371.125.203.774.489 1.441.636 1.581.347 4.48 3.206 5.095 5.023 2.128 6.293-4.237 12.655-10.179 10.172-2.07-.865-3.914-.813-3.526.1.163.385.344 5.67.402 11.744l.105 11.043 1.04 1.649c.573.906 1.041 1.804 1.041 1.995 0 .19.313.959.695 1.708.987 1.935.953 9.099-.054 11.361-2.705 6.075-7.077 10.299-14.041 13.567-.88.413-1.876.881-2.213 1.041-.337.16-1.231.426-1.987.592-.756.166-1.65.437-1.987.602-4.014 1.966-18.541 1.953-23.413-.021-.44-.178-1.907-.69-3.26-1.138-7.248-2.399-12.993-7.236-16.148-13.596-2.387-4.812-1.377-14.673 1.73-16.89.187-.134.385-5.084.438-11 .066-7.275.26-11.255.598-12.295.653-2.008.647-2.01-2.542-.854-8.398 3.047-16.083-5.97-10.264-12.043 1.381-1.441 2.854-2.565 3.362-2.565.279 0 .863-.244 1.297-.542.434-.298 1.239-.64 1.789-.759 1.106-.241 3.13-.947 5.06-1.765.694-.294 1.461-.534 1.706-.534.245 0 .757-.167 1.139-.371a9.616 9.616 0 0 1 1.395-.587c1.031-.319.883-2.03-.239-2.765-1.408-.923-4.208-3.881-4.478-4.73-.13-.411-.377-.747-.549-.747-.279 0-3.661-6.576-4.423-8.6-.836-2.22-1.615-4.877-1.613-5.505.001-.388-.159-1.018-.356-1.4-1.464-2.846-2.003-10.101-.86-11.59 1.806-2.354 4.648-3.129 7.057-1.924m-3.706 4.449c-.133.347-.037 1.312.213 2.146.25.834.454 2.16.454 2.947 0 .786.159 1.528.354 1.648.194.121.481 1.076.637 2.124.156 1.048.422 2.085.59 2.305.169.22.418.989.554 1.708.292 1.538 2.213 5.845 4.036 9.046.611 1.074 3.493 4.246 3.857 4.246.168 0 .622-.855 1.008-1.9s.835-2.08.999-2.3c.163-.22.352-2.425.419-4.899l.123-4.499-2.225-2.301c-3.804-3.935-4.781-5.049-5.88-6.701-.586-.88-1.16-1.69-1.277-1.8-.118-.11-.528-.695-.913-1.3-.786-1.234-2.548-1.515-2.949-.47m65.822 1.445c-.745 1.165-1.625 2.407-1.955 2.759-.33.352-1.177 1.344-1.882 2.203-.705.86-2.37 2.733-3.701 4.163-2.234 2.401-2.401 2.707-2.177 4 .133.77.312 2.57.396 4 .152 2.553.363 3.485 1.474 6.513l.556 1.513 1.767-1.975c2.346-2.622 2.359-2.641 3.93-5.859 1.79-3.665 1.655-3.292 3.804-10.492 2.295-7.688.966-11.79-2.212-6.825M83 36.952c-2.028.771-3.25 1.797-4 3.355-.395.821-.871 1.806-1.059 2.188-1.177 2.396-.212 8.11 1.748 10.344 2.359 2.69 8.311 2.073 8.311-.863 0-2.313 2.976-2.016 4.151.415 1.483 3.068 4.534 3.14 6.022.144 1.27-2.557 4.227-2.942 4.227-.551 0 2.67 5.442 3.549 7.945 1.284 2.167-1.962 3.695-10.055 2.086-11.049-.203-.125-.479-.727-.613-1.336-.635-2.892-9.103-6.211-10.418-4.083-.136.22-.552.402-.924.404-.372.003-1.576.721-2.676 1.596-2.339 1.861-2.807 1.932-4.178.629-2.768-2.631-7.387-3.708-10.622-2.477m29.864 19.48c-.953.862-2.066 1.568-2.475 1.568-.408 0-.853.18-.989.4-.136.22-1.319.4-2.629.4-2.159 0-2.877-.19-4.771-1.265-1.315-.746-1.692-.835-1.94-.462-1.129 1.694-6.16 2.243-8.26.902-1.96-1.252-2.197-1.302-2.946-.624-.395.357-1.007.649-1.362.649-.355 0-.756.18-.892.4-.136.22-1.396.4-2.8.4s-2.664-.18-2.8-.4c-.136-.22-.517-.4-.848-.4-.33 0-1.431-.634-2.446-1.41-1.918-1.464-2.49-1.37-2.497.41-.002.82-.998 5.431-1.646 7.628-.2.676-.363 1.772-.363 2.437 0 .664-.268 2.091-.596 3.171-.327 1.08-.599 2.684-.604 3.564-.005.88-.277 2.484-.604 3.564-.328 1.08-.596 2.826-.596 3.88 0 1.054-.185 2.78-.411 3.836-.227 1.056-.362 4.586-.3 7.844l.111 5.925 2.2-1.526c2.598-1.802 7.278-4.123 8.312-4.123.4 0 .899-.166 1.108-.369 2.38-2.313 24.302-2.304 26.76.011.209.197.697.358 1.085.358.831 0 6.252 2.519 7.599 3.532a36.265 36.265 0 0 0 2.068 1.415l1.131.713-.199-7.53c-.11-4.142-.469-9.33-.799-11.53-.329-2.2-.784-5.268-1.01-6.818-.227-1.55-.602-3.317-.834-3.926-.231-.609-.421-1.738-.421-2.508s-.181-1.739-.403-2.153c-.221-.414-.574-1.797-.784-3.074-1.185-7.214-.963-6.868-3.149-4.889M66.98 65.918c-.209.175-1.46.643-2.78 1.042-1.32.398-2.878.975-3.462 1.282-.584.307-1.304.564-1.6.571-1.751.044-3.158 3.23-2.357 5.337.503 1.323 2.745 2.751 3.819 2.433.44-.13 1.34-.393 2-.583 4.608-1.328 5.311-2.076 5.821-6.192.164-1.325.427-2.813.585-3.308.299-.938-1.115-1.344-2.026-.582m54.403.582c.152.495.369 1.8.481 2.9.334 3.261 1.242 5.287 2.475 5.527.584.113 2.103.574 3.376 1.024 2.434.86 3.498.718 5.185-.69 1.786-1.492.273-6.434-1.982-6.474-.395-.007-1.067-.277-1.494-.6-.428-.323-1.082-.587-1.455-.587s-1.193-.269-1.823-.598c-.63-.328-1.45-.598-1.822-.6-.372-.001-.788-.182-.924-.402-.553-.895-2.312-.459-2.017.5m-34.752 7.297c2.213 1.688 3.022 3.839 1.907 5.072-1.013 1.119-2.125.88-3.545-.764-1.512-1.748-3.16-1.586-4.114.404-.883 1.842-3.624 1.147-3.666-.929-.078-3.766 6.158-6.27 9.418-3.783m23.969-.244c.66.383 1.378 1.089 1.595 1.571.217.482.532.876.7.876.494 0 .349 2.596-.175 3.12-.74.74-2.704.596-2.993-.22-.862-2.431-2.746-2.738-4.3-.7-1.994 2.615-4.885 1.073-3.628-1.936 1.328-3.178 5.679-4.518 8.801-2.711M88.4 95.405c-.99.292-2.374.545-3.076.563-.702.018-1.379.198-1.505.401-.125.203-.805.496-1.51.651-.706.155-1.559.417-1.896.583-.337.166-1.423.69-2.413 1.164-4.128 1.979-8.283 5.688-9.744 8.699-.41.844-.924 1.878-1.144 2.299-1.195 2.287-.5 8.718 1.152 10.666.295.348.536.802.536 1.009 0 1.148 6.358 6.64 8.8 7.601.33.13 1.14.47 1.8.756 8.953 3.873 20.371 4.262 29.2.995 2.616-.968 4.479-1.808 5.031-2.267.348-.289.765-.525.927-.525.542 0 3.222-2.138 4.918-3.923 7.831-8.242 4.743-19.572-6.876-25.225-2.649-1.289-4.495-2.052-4.966-2.052-.245 0-.757-.16-1.139-.355-2.659-1.361-14.664-2.05-18.095-1.04m-1.286 8.495c1.951 1.257 2.459 2.162 2.473 4.407.027 4.348-4.766 6.569-7.982 3.698-4.256-3.8.754-11.17 5.509-8.105m21.381.6c2.652 2.413 2.722 5.353.18 7.6-3.01 2.66-7.875.478-7.875-3.531 0-4.576 4.515-6.963 7.695-4.069m164.105 2.833c7.033 1.376 7.506 1.502 12.8 3.382 7.7 2.736 9.026 3.751 7.829 5.99-.204.382-.657 1.685-1.005 2.895-1.538 5.338-1.945 6.642-2.274 7.295-.192.382-.35.984-.35 1.339 0 2.084-1.909 4.003-3.02 3.035-.315-.275-2.951-1.415-7.58-3.279-12.96-5.218-31.506-4.433-42.8 1.812-5.416 2.994-14.2 11.412-14.2 13.608 0 .134-.45.833-1 1.554-.55.722-1 1.43-1 1.574 0 .144 14.124.262 31.386.262 34.006 0 33.107-.057 31.792 2.022-.201.318-.369.962-.372 1.432-.003.47-.275 1.37-.604 2-.328.63-.598 1.463-.6 1.851-.001.388-.161 1.018-.355 1.4-.367.723-1.146 3.488-1.523 5.405-.469 2.39.972 2.29-32.961 2.29h-31.058l-.248 1.5c-.32 1.932-.32 7.068 0 9l.248 1.5h28.919c33.815 0 30.91-.523 28.901 5.2-.116.33-.518 1.68-.893 3-.376 1.32-.872 2.94-1.103 3.6-.231.66-.511 1.7-.622 2.31-.427 2.357.336 2.29-25.996 2.29-23.64 0-24.111.015-24.111.78 0 .429.239.924.53 1.1.292.176.651.59.798.92.369.83 1.174 2.059 1.778 2.718.278.303.998 1.209 1.6 2.012 2.276 3.04 7.568 7.238 11.694 9.276 1.43.706 3.05 1.505 3.6 1.775.924.454 3.8 1.34 7.2 2.219 5.149 1.331 16.875 1.329 22-.002 3.808-.99 7.44-2.132 7.78-2.447.209-.193.624-.351.922-.351 1.274 0 10.101-4.879 12.071-6.672 2.022-1.841 2.17-1.177 2.063 9.271-.116 11.371.32 10.079-4.155 12.316-10.287 5.145-16.549 6.654-28.881 6.964-8.072.203-9.146.098-18.8-1.842-3.821-.768-13.179-4.883-17.14-7.537-1.067-.715-2.057-1.303-2.2-1.306-.143-.004-.825-.499-1.515-1.1-.69-.602-2.209-1.904-3.376-2.894-2.409-2.045-3.739-3.432-7.094-7.4-1.361-1.61-5.675-8.351-5.675-8.868 0-.292-.18-.532-.4-.532-.22 0-.4-.198-.4-.44 0-.476-.932-2.721-1.836-4.422-.31-.584-.564-1.417-.564-1.851 0-1.557-.727-1.67-11.433-1.78L179 191.4l.079-1.2c.083-1.249 1.163-5.09 1.771-6.295.192-.382.351-1.012.352-1.4.002-.388.272-1.221.6-1.851.329-.63.598-1.565.598-2.077 0-1.836 1.235-2.177 7.889-2.177h6.111v-14.384l-8.7-.108-8.7-.108.088-1.497c.048-.824.543-2.817 1.1-4.43.556-1.613 1.012-3.162 1.012-3.443 0-.28.243-1.076.54-1.77.298-.693.707-1.8.91-2.46l.369-1.2 8.275-.108 8.276-.108.645-1.492c1.793-4.15 3.135-7.042 3.385-7.293.11-.111.631-1.011 1.158-2 2.299-4.316 7.45-10.536 12.259-14.803 2.002-1.776 4.835-3.996 5.1-3.996.112 0 1.158-.643 2.325-1.428 1.892-1.273 9.179-4.972 9.796-4.972.133 0 .808-.249 1.502-.554 1.987-.872 6.819-2.167 11.86-3.177 4.071-.815 20.362-.643 25 .264m-188.422.702c-.412.667.515 1.432 1.067.88.462-.462.173-1.315-.445-1.315-.194 0-.474.196-.622.435m20.691.229c.169.875 1.331.999 1.331.141 0-.327-.331-.658-.736-.736-.535-.103-.698.06-.595.595m54.744 39.836c.007.275.011 5.342.007 11.26-.006 12.117.138 11.52-3.173 13.102-1.016.486-1.937.985-2.047 1.11-.11.126-1.529 1.1-3.153 2.166-4.888 3.209-12.196 10.216-14.673 14.068-.781 1.215-1.241 1.838-1.996 2.708a5.41 5.41 0 0 0-.698 1.086c-.151.33-.501.953-.777 1.385-3.447 5.383-7.3 15.898-8.067 22.015-.11.88-.385 2.77-.61 4.2-.226 1.43-.41 4.31-.41 6.4 0 2.09.184 4.97.41 6.4.225 1.43.5 3.32.61 4.2.305 2.437 2.059 9.048 2.971 11.2 1.358 3.205 1.844 4.303 2.92 6.6.671 1.43 1.366 2.66 1.546 2.733.18.074.327.318.327.542 0 .225.54 1.209 1.2 2.187.66.978 1.2 1.934 1.2 2.125 0 .19.141.406.313.48.173.073 1.183 1.271 2.245 2.661 14.558 19.054 41.644 28.592 64.242 22.621 2.897-.765 8.841-2.625 9.6-3.003.33-.165 1.86-.889 3.4-1.609 10.703-5.003 20.101-13.519 26.549-24.054.908-1.484 1.651-2.866 1.651-3.072 0-.206.458-.833 1.018-1.393l1.018-1.018h10.549c12.977 0 12.864-.039 11.157 3.886-1.114 2.563-4.963 10.246-5.768 11.514-.419.66-.928 1.56-1.132 2-.203.44-1.106 1.778-2.006 2.972-.9 1.195-1.636 2.286-1.636 2.425 0 .139-.317.601-.704 1.028-.387.426-1.328 1.585-2.092 2.575-2.176 2.819-10.351 10.873-13.004 12.811-1.32.964-2.848 2.166-3.396 2.671-.548.505-1.152.918-1.342.918-.191 0-1.003.495-1.804 1.1-.802.605-1.818 1.296-2.258 1.537-.44.24-1.88 1.038-3.2 1.774-3.38 1.884-6.615 3.402-10.6 4.974-2.817 1.112-3.246 1.259-5.8 1.987-1.32.376-3.03.884-3.8 1.13-10.014 3.19-30.632 3.226-40.854.07-1.019-.314-2.189-.578-2.6-.585-.844-.015-4.825-1.333-5.221-1.728-.142-.143-.543-.26-.892-.261-.348-.002-1.149-.272-1.779-.6-.63-.329-1.337-.598-1.571-.598-.691 0-11.883-5.724-11.883-6.077 0-.178-.171-.323-.38-.323-1.34 0-11.835-8.147-16.014-12.431-5.273-5.405-9.52-10.882-13.468-17.369-1.158-1.902-5.338-10.601-5.338-11.109 0-.307-.123-.681-.274-.832-.412-.412-2.301-5.711-2.944-8.259-3.912-15.497-4.035-31.381-.344-44.2 1.693-5.882 1.616-5.65 3.252-9.8 5.034-12.77 12.227-22.925 23.574-33.284 2.195-2.004 8.34-6.488 11.336-8.272 1.54-.917 3.07-1.833 3.4-2.036 5.34-3.283 13.177-6.076 13.213-4.708" fill="#fbfbfb"/>
    <path d="M59.8 23.997c-2.58 1.285-3.527 3.665-2.615 6.575.212.675.686 2.668 1.054 4.428 1.998 9.554 5.804 17.187 10.913 21.883 2.852 2.622 2.488 4.141-1.231 5.135-.947.253-1.901.598-2.121.767-.22.169-.85.405-1.4.524-7.301 1.584-11.2 4.76-11.2 9.125 0 6.659 6.119 9.541 12.736 6 1.603-.857 1.817.275 1.108 5.862-.752 5.933-.83 11.971-.202 15.579.438 2.514.429 2.563-.914 4.832-5.373 9.077-3.014 18.049 6.616 25.162 1.289.952 2.594 1.731 2.9 1.731.306 0 .556.141.556.312 0 .412 2.292 1.288 8.652 3.308 3.932 1.248 15.385 1.454 19.548.351.88-.233 2.23-.578 3-.766 8.058-1.968 18.8-10.256 18.8-14.506 0-.296.221-.76.49-1.029 1.832-1.832.46-11.519-2.09-14.761-.818-1.04-.843-1.351-.589-7.297.17-3.968.089-7.946-.224-11.012-.883-8.658-1.136-8.22 3.909-6.756 6.002 1.741 10.556-2.415 9.5-8.667-.369-2.187-3.065-5.004-5.165-5.398-.792-.148-1.538-.429-1.659-.624s-.496-.355-.835-.355c-.339 0-1.183-.252-1.877-.56-.693-.308-1.62-.653-2.06-.766-3.622-.933-5.576-2.03-5.976-3.354-.276-.917-.092-1.164 2.626-3.52 4.069-3.527 7.66-10.673 9.949-19.8 2.313-9.221 2.064-11.015-1.751-12.606-2.157-.901-6.248.986-6.248 2.881 0 .289-.139.525-.309.525-.17 0-.628.585-1.019 1.3-.666 1.221-1.858 2.616-6.148 7.2-1.927 2.058-2.198 2.073-4.137.224-3.874-3.694-10.118-4.04-15.279-.847-1.607.994-2.516 1.158-2.907.524-2.299-3.72-12.647-3.29-16.482.686-1.42 1.472-2.219 1.141-5.266-2.187-2.419-2.641-3.854-4.505-6.953-9.031-1.184-1.729-3.503-2.166-5.7-1.072m3.369 3.039c.677.569 1.231 1.274 1.231 1.566 0 .292.145.591.323.665.178.073.876.943 1.551 1.933.675.99 2.824 3.498 4.777 5.573 2.461 2.617 3.515 4.026 3.439 4.6-.061.455-.205 2.357-.32 4.227-.233 3.755-1.581 8.753-2.452 9.087-1.429.548-4.423-3.552-8.097-11.087-.275-.565-1.058-3.106-2.219-7.2-.281-.99-.831-3.287-1.222-5.104l-.713-3.303.936-.997c1.161-1.235 1.253-1.234 2.766.04m66.798-.181c.773.72.879 1.115.67 2.5-.726 4.828-2.623 11.591-4.329 15.432-.437.983-.954 2.153-1.15 2.6-.811 1.851-4.298 6.416-5.597 7.325-.791.554-2.327-1.753-2.352-3.532-.005-.341-.166-.791-.358-1-.192-.209-.454-2.477-.583-5.04l-.234-4.661 2.483-2.739c1.366-1.507 2.978-3.28 3.582-3.94.604-.66 1.774-2.174 2.6-3.364 3.064-4.416 3.82-4.93 5.268-3.581M88.87 36.013c.809.224 2.566 1.14 3.905 2.034l2.434 1.625 2.095-1.351c3.461-2.231 4.276-2.523 6.922-2.485 6.144.089 9.15 3.553 9.165 10.564.011 4.555-1.065 6.688-4.216 8.36-2.818 1.495-6.882.109-7.249-2.474-.233-1.641-2.438-1.437-3.06.283-1.409 3.896-7.666 3.399-7.666-.609 0-1.423-2.064-.843-2.836.797-3.036 6.456-11.4 1.754-11.309-6.357.088-7.813 5.129-12.244 11.815-10.387m27.073 21.263c.285 1.388.795 3.874 1.132 5.524.338 1.65.864 4.092 1.169 5.426.306 1.334.556 2.816.556 3.294 0 .478.172 1.636.382 2.574 1.468 6.558 2.457 24.033 1.418 25.062-.265.262-1.279-.198-3-1.362-3.77-2.549-8.338-4.364-14.506-5.762-1.048-.238-4.6-.432-7.894-.432-3.294 0-6.846.194-7.894.432-6.168 1.398-10.736 3.213-14.506 5.762-1.625 1.099-2.742 1.617-2.979 1.383-.515-.509-.384-12.98.179-16.977.57-4.056 1.524-9.811 2.055-12.4.226-1.1.567-2.9.759-4 .191-1.1.628-3.35.971-5 .344-1.65.738-3.691.877-4.535.343-2.08 1.019-2.2 2.974-.527 3.146 2.693 6.739 3.208 10.171 1.458 1.722-.878 2.813-1.011 3.197-.39 1.248 2.02 5.807 1.969 8.557-.096.868-.651 1.051-.663 1.877-.122 3.819 2.503 7.933 2.15 11.447-.981 2.061-1.836 2.373-1.665 3.058 1.669M69.485 66.5c-.884 7.696-1.094 8.078-5.293 9.649-4.557 1.705-7.137 1.047-8.17-2.083-1.127-3.415.557-5.182 6.978-7.323 1.32-.44 2.76-.958 3.2-1.151a10.301 10.301 0 0 1 2.94-.746c.404-.034.491.384.345 1.654m54.613-.879c1.376.452 2.815.992 3.197 1.2.382.209 1.022.379 1.423.379s1.078.264 1.506.587c.427.323 1.06.593 1.406.6 1.636.033 3.34 3.36 2.714 5.298-.988 3.059-3.557 4.102-7.144 2.9-5.115-1.715-4.872-1.408-6.139-7.742-.879-4.393-.797-4.481 3.037-3.222m-43.551 8.346c-2.35 1.433-3.258 3.745-1.909 4.864.55.457.827.301 2.033-1.151 1.821-2.192 2.809-2.188 4.94.02 1.568 1.624 1.667 1.666 2.207.935 2.23-3.017-3.717-6.835-7.271-4.668m24.122.076c-1.826.963-2.938 3.108-2.264 4.366.565 1.056 1.367.998 2.121-.153 1.831-2.793 3.128-2.94 5.235-.594l1.492 1.663.83-.83c2.629-2.629-3.684-6.42-7.414-4.452m-.926 20.997c23.181 5.196 28.168 26.317 8.267 35.013-2.989 1.306-3.322 1.429-5.61 2.077-26.689 7.558-51.527-13.146-35.187-29.33 2.366-2.343 8.242-6 9.641-6 .234 0 .992-.249 1.686-.553 4.237-1.859 15.445-2.497 21.203-1.207m-20.535 9.388c-2.516 1.051-3.365 3.278-2.191 5.751 1.596 3.364 5.776 3.428 7.56.116 1.887-3.504-1.684-7.407-5.369-5.867m20.891-.157c-2.351.483-3.569 4.104-2.12 6.302 2.828 4.29 8.765 1.65 7.747-3.445-.417-2.081-3.007-3.396-5.627-2.857m-18.171 3.186c.758 1.354-.348 2.817-1.728 2.288-.598-.23-.84-2.172-.333-2.678.496-.497 1.691-.271 2.061.39m20.673.011c.928 1.27-.166 2.827-1.601 2.277-.598-.23-.84-2.172-.333-2.678.479-.48 1.435-.281 1.934.401" fill="#4193ed"/>
    <path d="M253.6 106.627c-.55.096-2.35.361-4 .588-19.097 2.626-34.616 12.559-44.098 28.223-2.019 3.336-4.302 7.781-4.302 8.377 0 .145-.291.876-.646 1.625l-.645 1.36h-7.893c-9.321 0-8.521-.431-10.398 5.6-.719 2.31-1.574 4.945-1.901 5.856-1.153 3.223-1.413 3.118 8.288 3.344l8.595.2.081 7.5.081 7.5h-6.207c-6.95 0-7.547.168-7.936 2.238-.15.803-.419 1.753-.597 2.111-.177.358-.637 1.731-1.021 3.051-.384 1.32-.947 3.079-1.25 3.908-.643 1.76-.714 3.092-.164 3.092.214 0 .281-.28.149-.622-.131-.341.036-1.286.371-2.1.335-.813 1.272-3.585 2.082-6.161 1.747-5.551 1.201-5.224 8.548-5.109 3.005.048 5.688.065 5.963.039.702-.066.721-15.266.02-15.967-.343-.343-2.873-.48-8.847-.48h-8.366l.284-.9c.157-.495.499-1.656.761-2.581.262-.924.605-1.809.762-1.966.157-.158.287-.661.288-1.12.002-.458.272-1.349.6-1.979.329-.63.598-1.535.598-2.011 0-2.488.527-2.643 9.007-2.643 8.045 0 9.393-.303 9.393-2.115 0-.644 1.966-4.815 4.512-9.572 1.084-2.023 4.594-6.826 5.151-7.046.185-.074.337-.307.337-.518 0-.516 5.348-5.83 7.6-7.552.99-.757 1.89-1.478 2-1.602 2.667-3.01 15.857-8.96 23.2-10.465 11.069-2.268 29.825-1.793 34.826.884.397.212 1.087.386 1.534.386.447 0 1.404.248 2.126.552a38.8 38.8 0 0 0 2.914 1.049c6.62 2.059 7.553 3.034 6.391 6.685a223.226 223.226 0 0 0-1.254 4.114c-.354 1.21-.876 2.83-1.161 3.6-.285.77-.613 1.85-.73 2.4-.489 2.314-.993 2.452-3.87 1.065-1.443-.696-3.603-1.595-4.8-1.999-1.197-.404-2.536-.885-2.976-1.07-.44-.185-1.25-.429-1.8-.542-.55-.114-1.81-.409-2.8-.657-.99-.248-2.61-.644-3.6-.881-2.806-.672-13.789-.881-17.009-.324-1.535.265-3.601.625-4.591.799-1.786.314-3.96.997-5.295 1.663-.382.19-.911.346-1.176.346-4.268 0-17.459 11.301-20.076 17.2-.244.55-.68 1.247-.97 1.55-.289.302-.471.932-.404 1.4l.121.85 31.5.102 31.5.103v.917c0 .505-.17 1.089-.377 1.298-.207.209-.555 1.1-.772 1.98-.217.88-.69 2.59-1.051 3.8-.36 1.21-.805 2.79-.988 3.511-.68 2.68 1.81 2.489-32.452 2.489h-31.142l-.692 1.056c-1.028 1.57-1.041 10.697-.017 12.261l.709 1.083h28.991c32.064 0 29.891-.175 28.641 2.305-.193.382-.662 1.775-1.042 3.095-.381 1.32-.943 3.126-1.25 4.013-.307.888-.561 1.968-.564 2.4-.016 2.067 1.096 1.972-25.674 2.187-28.918.232-26.467-.316-22.862 5.109 3.315 4.987 8.931 10.418 13.154 12.72 2.489 1.357 3.969 2.056 6.988 3.298 13.584 5.591 33.757 2.799 47.435-6.565l2.565-1.757v9.136c0 8.205-.071 9.196-.7 9.735-1.237 1.059-9.991 5.124-11.037 5.124-.339 0-.727.18-.863.4-.136.22-.68.4-1.21.4-.53 0-1.554.254-2.276.564-5.389 2.316-25.327 3.008-30.456 1.058-.611-.232-1.569-.422-2.13-.422-1.005 0-4.464-.984-5.823-1.656-.382-.189-.894-.344-1.139-.344s-1.102-.283-1.906-.63c-3.182-1.372-4.285-1.873-4.86-2.207-.33-.192-1.41-.732-2.4-1.2-.99-.468-2.373-1.281-3.073-1.807-.701-.526-1.451-.956-1.667-.956-.216 0-.453-.141-.527-.313-.073-.173-1.303-1.198-2.733-2.279-2.936-2.219-6.432-5.749-8.92-9.008-.924-1.21-1.815-2.26-1.98-2.333-.165-.074-.3-.311-.3-.527 0-.216-.421-.966-.936-1.667-.515-.7-1.302-1.993-1.75-2.873-.447-.88-1.286-2.482-1.864-3.56-.577-1.077-1.05-2.282-1.05-2.676 0-.394-.166-.819-.369-.945-.203-.125-.49-.777-.637-1.448-.402-1.831-1.326-1.979-11.72-1.885l-9.474.087 9.933.213c10.49.226 11.067.343 11.067 2.251 0 1.81 4.388 9.884 8.024 14.763 16.932 22.722 51.26 29.967 78.297 16.525 5.585-2.776 5.279-2.068 5.279-12.24 0-10.232-.135-10.717-2.427-8.755-1.45 1.241-9.311 5.45-12.173 6.517-23.333 8.702-46.463 1.588-57.676-17.74-.768-1.322-1.046-1.307 24.343-1.307 26.638 0 25.921.064 25.938-2.3.003-.385.379-1.87.835-3.3.902-2.829 1.799-5.863 2.332-7.888.579-2.201 1.518-2.134-29.384-2.101-20.386.021-28.835-.098-29.147-.41-.486-.486-.551-11.176-.072-11.95.202-.328 8.709-.451 31.281-.451 31.135 0 32.55-.061 32.55-1.4 0-.315.25-1.343.556-2.286.306-.943.867-2.794 1.247-4.114.379-1.32.955-3.142 1.278-4.048.324-.907.528-2.042.454-2.522l-.135-.873-31.254.031c-33.798.033-33.02.082-31.156-1.977.336-.371.61-.796.61-.946 0-.15.542-1.035 1.205-1.968.663-.934 1.508-2.147 1.879-2.697 10.781-15.978 36.881-20.482 59.984-10.35 4.841 2.123 4.088 2.979 7.61-8.65.533-1.76 1.139-3.613 1.346-4.119.741-1.811.458-2.426-1.595-3.466-3.839-1.946-11.032-4.268-16.029-5.176-2.09-.38-4.7-.87-5.8-1.089-2.125-.422-14.116-.82-15.8-.523m-98.4 42.315c-5.754 2.555-7.814 3.577-9.908 4.913-1.159.74-2.195 1.345-2.303 1.345-2.158 0-17.488 13.506-21.645 19.07-.629.841-1.387 1.786-1.685 2.099-5.463 5.752-13.093 22.724-15.658 34.831-4.977 23.491 2.096 51.921 17.387 69.885 10.647 12.509 20.817 19.88 36.012 26.103 11.09 4.541 25.815 6.431 39 5.004 6.356-.688 8.556-1.133 16.6-3.36 1.53-.423 6.208-2.203 8.8-3.348 19.819-8.753 35.705-25.065 44.423-45.614 1.941-4.573 2.651-4.27-10.004-4.27-12.702 0-11.225-.509-14.156 4.878-3.808 6.998-17.764 21.122-20.87 21.122-.179 0-.386.163-.46.362-.144.394-8.057 4.373-10.333 5.197-15.021 5.437-30.585 5.482-45.2.133-2.642-.967-10.578-4.908-10.733-5.33a.603.603 0 0 0-.527-.362c-.85 0-7.989-5.683-11.306-9.001-29.757-29.757-23.461-78.375 12.954-100.028l3.412-2.028.2-11.092c.183-10.163.071-11.865-.78-11.846-.121.003-1.57.604-3.22 1.337m3.507 10.439-.107 10.727-4.083 2.46c-2.246 1.352-4.497 2.813-5.002 3.245-.505.433-1.727 1.402-2.716 2.153-2.255 1.713-7.445 6.914-9.014 9.034-.652.88-1.417 1.845-1.702 2.145-.474.501-2.796 3.952-3.939 5.855-1.146 1.91-4.115 8.168-4.743 10-.377 1.1-.827 2.36-.999 2.8-.419 1.068-1.398 4.901-2.212 8.654-1.464 6.755-.838 20.667 1.225 27.2.322 1.019.585 2.224.585 2.676 0 .453.18.934.4 1.07.22.136.4.524.4.863 0 .569.268 1.278 1.83 4.837 4.945 11.272 13.189 21.097 23.37 27.852 2.09 1.387 4.43 2.84 5.2 3.229l3.678 1.864c1.252.635 2.521 1.155 2.82 1.155.298 0 .713.151.922.336.721.639 6.954 2.44 11.891 3.436 4.28.864 18.346.882 21.624.028 1.267-.33 2.737-.6 3.266-.6.529 0 1.375-.159 1.88-.354.506-.194 2.269-.76 3.919-1.257 1.65-.497 3.171-1.058 3.38-1.246.209-.189.624-.343.922-.343.511 0 2.091-.747 7.306-3.454 8.507-4.416 19.376-14.923 23.356-22.577.409-.788 1.223-2.138 1.809-3l1.065-1.569 10.575-.107c12.043-.121 11.786-.154 11.002 1.391-.941 1.856-1.815 4.01-1.815 4.476 0 .242-.135.441-.3.441-.165.001-.648.856-1.074 1.9-.425 1.045-1.46 3.027-2.3 4.406-.839 1.379-1.526 2.589-1.526 2.688 0 .22-2.501 3.923-2.84 4.205-.132.11-.696.92-1.253 1.8-.557.88-1.374 2.01-1.817 2.511-1.901 2.155-5.825 6.516-6.627 7.366-.48.508-2.22 2.074-3.868 3.48-1.647 1.406-3.055 2.711-3.128 2.9-.074.189-.312.343-.529.343-.217 0-.63.225-.918.5-.287.275-.926.77-1.42 1.1-.494.33-1.133.825-1.42 1.1-.288.275-.694.5-.902.5-.209 0-.59.253-.847.563-.257.31-1.045.858-1.749 1.219-.705.36-2.182 1.188-3.282 1.839-2.287 1.353-6.756 3.521-9.4 4.559-.99.388-2.278.957-2.862 1.263-.584.306-1.428.557-1.876.557-.448 0-.913.159-1.033.354-.121.194-1.027.475-2.015.623-.987.148-1.9.439-2.028.646-.128.207-.675.377-1.216.377-.54 0-2.014.258-3.276.572-5.305 1.324-7.097 1.527-15.094 1.709-8.491.194-13.043-.118-18.6-1.277-5.543-1.155-6.195-1.307-7.6-1.771-.77-.255-2.03-.647-2.8-.873-2.111-.617-4.108-1.4-8.46-3.317-.804-.354-1.644-.643-1.867-.643-.224 0-.466-.135-.54-.3-.073-.165-.853-.655-1.733-1.089-10.9-5.375-22.35-15.327-29.925-26.011-1.248-1.76-2.405-3.391-2.572-3.624-.294-.41-.95-1.578-2.403-4.276-.385-.715-.79-1.39-.9-1.5-.53-.53-4-8.319-4-8.977 0-.317-.18-.687-.4-.823-.22-.136-.4-.524-.4-.863 0-.339-.247-1.183-.55-1.877-.302-.693-.856-2.43-1.231-3.86-.376-1.43-.85-3.23-1.055-4-2.395-9.013-2.663-25.259-.583-35.4 1.131-5.515 1.403-6.622 1.808-7.379.226-.423.411-1.12.411-1.549 0-.429.269-1.296.598-1.926.328-.63.598-1.45.6-1.822.001-.372.182-.788.402-.924.22-.136.4-.506.4-.823 0-.518 1.848-4.872 2.846-6.706.219-.401.782-1.481 1.253-2.4 4.217-8.238 11.993-17.928 19.317-24.071 1.311-1.1 2.474-2.102 2.584-2.226.873-.985 9.387-6.774 9.963-6.774.209 0 .618-.225.908-.5.494-.467 5.969-3.207 9.129-4.569a54.88 54.88 0 0 0 2.4-1.108c1.583-.799 1.619-.545 1.507 10.758" fill="#9ae4bc"/>
    <path d="M59.115 23.529c-3.004 1.857-3.543 8.568-1.073 13.366.197.382.357 1.012.356 1.4-.002.628.777 3.285 1.613 5.505.762 2.024 4.144 8.6 4.423 8.6.172 0 .419.336.549.747.27.849 3.07 3.807 4.478 4.73 1.122.735 1.27 2.446.239 2.765a9.616 9.616 0 0 0-1.395.587c-.382.204-.894.371-1.139.371s-1.012.24-1.706.534c-1.93.818-3.954 1.524-5.06 1.765-.55.119-1.355.461-1.789.759-.434.298-1.018.542-1.297.542-.508 0-1.981 1.124-3.362 2.565-5.819 6.073 1.866 15.09 10.264 12.043 3.189-1.156 3.195-1.154 2.542.854-.338 1.04-.532 5.02-.598 12.295-.053 5.916-.251 10.866-.438 11-3.107 2.217-4.117 12.078-1.73 16.89 3.155 6.36 8.9 11.197 16.148 13.596 1.353.448 2.82.96 3.26 1.138 4.872 1.974 19.399 1.987 23.413.021.337-.165 1.231-.436 1.987-.602.756-.166 1.65-.432 1.987-.592.337-.16 1.333-.628 2.213-1.041 6.964-3.268 11.336-7.492 14.041-13.567 1.007-2.262 1.041-9.426.054-11.361-.382-.749-.695-1.518-.695-1.708 0-.191-.468-1.089-1.041-1.995l-1.04-1.649-.105-11.043c-.058-6.074-.239-11.359-.402-11.744-.388-.913 1.456-.965 3.526-.1 5.942 2.483 12.307-3.879 10.179-10.172-.615-1.817-3.514-4.676-5.095-5.023-.667-.147-1.316-.433-1.441-.636-.126-.203-.533-.37-.905-.371-.372-.002-1.192-.272-1.822-.6-.63-.329-1.455-.598-1.833-.598-.378 0-.801-.113-.939-.252-.139-.138-1.383-.641-2.765-1.117-3.341-1.15-3.386-1.7-.378-4.634 2.414-2.356 5.261-6.175 5.261-7.058 0-.26.135-.532.3-.606.494-.219 2.9-5.656 2.9-6.552 0-.326.169-.904.377-1.286.207-.382.637-1.685.956-2.895l1.104-4.2c1.877-7.149.119-11.4-4.713-11.4-1.928 0-4.924 2.086-4.924 3.428 0 .278-.135.565-.3.639-.165.073-1.197 1.303-2.292 2.733-1.096 1.43-3.013 3.666-4.26 4.969l-2.268 2.369-1.783-1.569c-3.81-3.354-12.336-4.127-15.097-1.369-.51.509-2.8 1.527-2.8 1.245 0-.175-1.191-.899-2.647-1.609-4.53-2.208-10.785-1.457-14.252 1.711-.875.799-1.716 1.453-1.871 1.453-.804 0-6.495-6.786-10.03-11.96-1.343-1.966-4.769-2.619-6.885-1.311m4.536.24c.742.314 1.574.899 1.849 1.3 7.097 10.365 10.25 13.259 12.219 11.218 3.835-3.976 14.183-4.406 16.482-.686.391.634 1.3.47 2.907-.524 5.161-3.193 11.405-2.847 15.279.847 1.939 1.849 2.21 1.834 4.137-.224 4.29-4.584 5.482-5.979 6.148-7.2.391-.715.849-1.3 1.019-1.3.17 0 .309-.236.309-.525 0-1.895 4.091-3.782 6.248-2.881 3.815 1.591 4.064 3.385 1.751 12.606-2.289 9.127-5.88 16.273-9.949 19.8a78.175 78.175 0 0 0-2.138 1.92c-1.764 1.688.402 3.644 5.488 4.954.44.113 1.367.458 2.06.766.694.308 1.538.56 1.877.56.339 0 .714.16.835.355.121.195.867.476 1.659.624 2.1.394 4.796 3.211 5.165 5.398 1.056 6.252-3.498 10.408-9.5 8.667-5.045-1.464-4.792-1.902-3.909 6.756.313 3.066.394 7.044.224 11.012-.254 5.946-.229 6.257.589 7.297 2.55 3.242 3.922 12.929 2.09 14.761-.269.269-.49.733-.49 1.029 0 4.25-10.742 12.538-18.8 14.506-.77.188-2.12.533-3 .766-4.163 1.103-15.616.897-19.548-.351-6.36-2.02-8.652-2.896-8.652-3.308 0-.171-.25-.312-.556-.312-.306 0-1.611-.779-2.9-1.731-9.63-7.113-11.989-16.085-6.616-25.162 1.343-2.269 1.352-2.318.914-4.832-.628-3.608-.55-9.646.202-15.579.709-5.587.495-6.719-1.108-5.862-6.617 3.541-12.736.659-12.736-6 0-4.365 3.899-7.541 11.2-9.125.55-.119 1.18-.355 1.4-.524.22-.169 1.174-.514 2.121-.767 3.719-.994 4.083-2.513 1.231-5.135C64.043 52.187 60.237 44.554 58.239 35c-.368-1.76-.842-3.753-1.054-4.428-1.4-4.466 2.438-8.503 6.466-6.803m-3.248 3.227-.936.997.713 3.303c.391 1.817.941 4.114 1.222 5.104 1.161 4.094 1.944 6.635 2.219 7.2 3.674 7.535 6.668 11.635 8.097 11.087.871-.334 2.219-5.332 2.452-9.087.115-1.87.259-3.772.32-4.227.076-.574-.978-1.983-3.439-4.6-1.953-2.075-4.102-4.583-4.777-5.573-.675-.99-1.373-1.86-1.551-1.933-.178-.074-.323-.373-.323-.665 0-.531-2.197-2.602-2.761-2.602-.165 0-.721.448-1.236.996m66.866.14c-.588.625-1.744 2.11-2.57 3.3-.826 1.19-1.996 2.704-2.6 3.364-.604.66-2.216 2.433-3.582 3.94l-2.483 2.739.234 4.661c.129 2.563.391 4.831.583 5.04.192.209.353.659.358 1 .025 1.779 1.561 4.086 2.352 3.532 1.299-.909 4.786-5.474 5.597-7.325.196-.447.713-1.617 1.15-2.6 1.706-3.841 3.603-10.604 4.329-15.432.43-2.856-1.544-4.156-3.368-2.219M63.482 28.3c.385.605.795 1.19.913 1.3.117.11.691.92 1.277 1.8 1.099 1.652 2.076 2.766 5.88 6.701l2.225 2.301-.123 4.499c-.067 2.474-.256 4.679-.419 4.899-.164.22-.613 1.255-.999 2.3s-.84 1.9-1.008 1.9c-.364 0-3.246-3.172-3.857-4.246-1.823-3.201-3.744-7.508-4.036-9.046-.136-.719-.385-1.488-.554-1.708-.168-.22-.434-1.257-.59-2.305-.156-1.048-.443-2.003-.637-2.124-.195-.12-.354-.862-.354-1.648 0-.787-.204-2.113-.454-2.947-.832-2.777 1.23-4.041 2.736-1.676m66.265.7c-.074 2.229-.512 4.863-1.18 7.1-2.149 7.2-2.014 6.827-3.804 10.492-1.571 3.218-1.584 3.237-3.93 5.859l-1.767 1.975-.556-1.513c-1.111-3.028-1.322-3.96-1.474-6.513-.084-1.43-.263-3.23-.396-4-.224-1.293-.057-1.599 2.177-4 1.331-1.43 2.996-3.303 3.701-4.163.705-.859 1.552-1.851 1.882-2.203.33-.352 1.21-1.594 1.955-2.759 1.784-2.787 3.48-2.925 3.392-.275M84.2 35.99c-5.118 1.316-7.074 4.166-7.145 10.41-.091 8.111 8.273 12.813 11.309 6.357.772-1.64 2.836-2.22 2.836-.797 0 4.008 6.257 4.505 7.666.609.622-1.72 2.827-1.924 3.06-.283.367 2.583 4.431 3.969 7.249 2.474 3.151-1.672 4.227-3.805 4.216-8.36-.015-7.011-3.021-10.475-9.165-10.564-2.646-.038-3.461.254-6.922 2.485l-2.095 1.351-2.434-1.625c-3.429-2.29-5.622-2.816-8.575-2.057m6.342 1.439c1.132.565 2.518 1.465 3.08 2 1.371 1.303 1.839 1.232 4.178-.629 1.1-.875 2.304-1.593 2.676-1.596.372-.002.788-.184.924-.404 1.315-2.128 9.783 1.191 10.418 4.083.134.609.41 1.211.613 1.336 1.609.994.081 9.087-2.086 11.049-2.503 2.265-7.945 1.386-7.945-1.284 0-2.391-2.957-2.006-4.227.551-1.488 2.996-4.539 2.924-6.022-.144C90.976 49.96 88 49.663 88 51.976c0 2.936-5.952 3.553-8.311.863-1.96-2.234-2.925-7.948-1.748-10.344.188-.382.664-1.367 1.059-2.188 1.745-3.628 7.28-5.009 11.542-2.878m22.343 18.178c-3.514 3.131-7.628 3.484-11.447.981-.826-.541-1.009-.529-1.877.122-2.75 2.065-7.309 2.116-8.557.096-.384-.621-1.475-.488-3.197.39-3.432 1.75-7.025 1.235-10.171-1.458-1.955-1.673-2.631-1.553-2.974.527a144.76 144.76 0 0 1-.877 4.535c-.343 1.65-.78 3.9-.971 5-.192 1.1-.533 2.9-.759 4-.531 2.589-1.485 8.344-2.055 12.4-.563 3.997-.694 16.468-.179 16.977.237.234 1.354-.284 2.979-1.383 3.77-2.549 8.338-4.364 14.506-5.762 1.048-.238 4.6-.432 7.894-.432 3.294 0 6.846.194 7.894.432 6.168 1.398 10.736 3.213 14.506 5.762 1.721 1.164 2.735 1.624 3 1.362 1.039-1.029.05-18.504-1.418-25.062-.21-.938-.382-2.096-.382-2.574 0-.478-.25-1.96-.556-3.294a298.916 298.916 0 0 1-1.169-5.426c-.337-1.65-.847-4.136-1.132-5.524-.685-3.334-.997-3.505-3.058-1.669m2.394 1.489c.194 1.047.525 2.949.734 4.225.21 1.277.563 2.66.784 3.074.222.414.403 1.383.403 2.153s.19 1.899.421 2.508c.232.609.607 2.376.834 3.926.226 1.55.681 4.618 1.01 6.818.33 2.2.689 7.388.799 11.53l.199 7.53-1.131-.713a36.265 36.265 0 0 1-2.068-1.415c-1.347-1.013-6.768-3.532-7.599-3.532-.388 0-.876-.161-1.085-.358-2.458-2.315-24.38-2.324-26.76-.011-.209.203-.708.369-1.108.369-1.034 0-5.714 2.321-8.312 4.123l-2.2 1.526-.111-5.925c-.062-3.258.073-6.788.3-7.844.226-1.056.411-2.782.411-3.836 0-1.054.268-2.8.596-3.88.327-1.08.599-2.684.604-3.564.005-.88.277-2.484.604-3.564.328-1.08.596-2.507.596-3.171 0-.665.163-1.761.363-2.437.648-2.197 1.644-6.808 1.646-7.628.007-1.78.579-1.874 2.497-.41 1.015.776 2.116 1.41 2.446 1.41.331 0 .712.18.848.4.136.22 1.396.4 2.8.4s2.664-.18 2.8-.4c.136-.22.537-.4.892-.4s.967-.292 1.362-.649c.749-.678.986-.628 2.946.624 2.1 1.341 7.131.792 8.26-.902.248-.373.625-.284 1.94.462 1.894 1.075 2.612 1.265 4.771 1.265 1.31 0 2.493-.18 2.629-.4.136-.22.581-.4.989-.4.409 0 1.522-.706 2.475-1.568 2.004-1.815 1.952-1.829 2.415.664M67.8 65.067c-.44.096-1.16.332-1.6.525-.44.193-1.88.711-3.2 1.151-6.421 2.141-8.105 3.908-6.978 7.323 1.033 3.13 3.613 3.788 8.17 2.083 3.709-1.387 4.097-1.818 4.641-5.149 1.061-6.5 1.079-6.393-1.033-5.933m52.877.276c-.195.51.515 4.675 1.347 7.895.391 1.514 1.126 1.989 5.176 3.347 3.587 1.202 6.156.159 7.144-2.9.626-1.938-1.078-5.265-2.714-5.298-.346-.007-.979-.277-1.406-.6-.428-.323-1.105-.587-1.506-.587s-1.041-.17-1.423-.379c-2.503-1.364-6.333-2.22-6.618-1.478M69.006 66.5c-.158.495-.421 1.983-.585 3.308-.51 4.116-1.213 4.864-5.821 6.192-.66.19-1.56.453-2 .583-1.074.318-3.316-1.11-3.819-2.433-.801-2.107.606-5.293 2.357-5.337.296-.007 1.016-.264 1.6-.571.584-.307 2.142-.884 3.462-1.282 1.32-.399 2.571-.867 2.78-1.042.911-.762 2.325-.356 2.026.582M123.4 66c.136.22.552.401.924.402.372.002 1.192.272 1.822.6.63.329 1.45.598 1.823.598s1.027.264 1.455.587c.427.323 1.099.593 1.494.6 2.255.04 3.768 4.982 1.982 6.474-1.687 1.408-2.751 1.55-5.185.69-1.273-.45-2.792-.911-3.376-1.024-1.233-.24-2.141-2.266-2.475-5.527-.112-1.1-.329-2.405-.481-2.9-.295-.959 1.464-1.395 2.017-.5m-43.826 7.89c-2.189 1.627-2.899 3.585-1.817 5.01.837 1.103 2.507.894 3.122-.391.954-1.99 2.602-2.152 4.114-.404 2.399 2.776 5.186 1.181 3.576-2.047-1.647-3.302-6.045-4.362-8.995-2.168m24.116-.049c-1.897 1.495-2.67 3.512-1.835 4.787.928 1.415 2.291 1.252 3.572-.428 1.554-2.038 3.438-1.731 4.3.7.289.816 2.253.96 2.993.22.524-.524.669-3.12.175-3.12-.168 0-.483-.394-.7-.876-1.077-2.388-6.135-3.151-8.505-1.283m-18.431-.074c2.431 1.016 3.667 3.368 2.559 4.868-.54.731-.639.689-2.207-.935-2.131-2.208-3.119-2.212-4.94-.02-2.024 2.437-3.862.598-2.024-2.025 1.55-2.214 4.094-2.94 6.612-1.888m24.76.334c2.229 1.502 3.1 3.358 2.064 4.394l-.83.83-1.492-1.663c-2.107-2.346-3.404-2.199-5.235.594-1.335 2.038-2.963.364-1.966-2.021 1.127-2.698 4.985-3.801 7.459-2.134M86.4 95.08c-1.43.338-3.167.863-3.86 1.167-.694.304-1.452.553-1.686.553-1.399 0-7.275 3.657-9.641 6-16.34 16.184 8.498 36.888 35.187 29.33 2.288-.648 2.621-.771 5.61-2.077 19.901-8.696 14.914-29.817-8.267-35.013-3.77-.844-13.69-.821-17.343.04m17 .496c1.32.282 2.713.673 3.095.869.382.195.894.355 1.139.355.471 0 2.317.763 4.966 2.052 11.619 5.653 14.707 16.983 6.876 25.225-1.696 1.785-4.376 3.923-4.918 3.923-.162 0-.579.236-.927.525-.552.459-2.415 1.299-5.031 2.267-8.829 3.267-20.247 2.878-29.2-.995-.66-.286-1.47-.626-1.8-.756-2.442-.961-8.8-6.453-8.8-7.601 0-.207-.241-.661-.536-1.009-1.652-1.948-2.347-8.379-1.152-10.666.22-.421.734-1.455 1.144-2.299 1.461-3.011 5.616-6.72 9.744-8.699.99-.474 2.076-.998 2.413-1.164.337-.166 1.19-.428 1.896-.583.705-.155 1.385-.448 1.51-.651.126-.203.803-.383 1.505-.401.702-.018 2.086-.271 3.076-.563 2.252-.663 11.597-.557 15 .171m-21.834 9.21c-1.634 1.555-1.664 1.631-1.483 3.805.534 6.442 9.544 6.172 9.504-.284-.03-4.686-4.66-6.718-8.021-3.521m21.794-.916c-4.501 2.245-2.838 9.33 2.189 9.33 3.281 0 5.744-3.135 4.792-6.1-1.006-3.137-4.202-4.616-6.981-3.23m-15.509 1.378c2.657 2.496.614 7.552-3.051 7.552-2.463 0-4.704-2.853-4.229-5.384.581-3.101 4.914-4.391 7.28-2.168m20.805.012c1.832 1.705 1.501 5.198-.63 6.634-4.087 2.754-8.811-2.216-5.827-6.128 1.476-1.935 4.652-2.183 6.457-.506m139.944 1.756-2 .54 1.8-.236 4-.525 2.2-.29-2-.014c-1.1-.008-2.9.229-4 .525m17.6-.238c6.577.842 6.57.841 4.8.386-.88-.226-2.86-.475-4.4-.552l-2.8-.141 2.4.307m-182.333.289c-.507.506-.265 2.448.333 2.678 1.38.529 2.486-.934 1.728-2.288-.37-.661-1.565-.887-2.061-.39m20.8 0c-.507.506-.265 2.448.333 2.678 1.435.55 2.529-1.007 1.601-2.277-.499-.682-1.455-.881-1.934-.401m-19.245.968c.412.667-.515 1.432-1.067.88-.462-.462-.173-1.315.445-1.315.194 0 .474.196.622.435m20.778.37c0 .858-1.162.734-1.331-.141-.103-.535.06-.698.595-.595.405.078.736.409.736.736m137-.405c-.764.494.058.494 1.6 0l1-.32-1-.034c-.55-.019-1.27.141-1.6.354m31.2 0c1.542.494 2.364.494 1.6 0-.33-.213-1.05-.373-1.6-.354l-1 .034 1 .32m-38.2 2c-.292.473.099.473 1.2 0 .771-.331.769-.345-.076-.372-.482-.015-.988.152-1.124.372m46.946.216c.74.321 1.55.577 1.8.568.25-.008-.152-.278-.892-.6-.74-.321-1.55-.577-1.8-.568-.25.008.152.278.892.6M232.8 111.4c-.55.314-.82.572-.6.572.22 0 .85-.258 1.4-.572.55-.314.82-.572.6-.572-.22 0-.85.258-1.4.572m53.6 0c.55.314 1.27.571 1.6.57.33-.001-.006-.264-.746-.586-1.703-.739-2.16-.731-.854.016m5.341 2.248c1.336.705 1.518.966 1.372 1.961-.092.632-.021 1.058.159.946.942-.582.293-2.423-1.086-3.081-1.976-.942-2.312-.811-.445.174m-66.841 1.769c-1.155.757-2.1 1.465-2.1 1.574 0 .16 4.132-2.311 4.767-2.85.797-.677-.997.182-2.667 1.276m-4.7 3.09c-.88.705-2.32 1.984-3.2 2.842-1.727 1.685-1.842 1.77 4.131-3.07.732-.594 1.182-1.073 1-1.066-.182.008-1.051.59-1.931 1.294M291.112 122c-.136.55-.362 1.45-.502 2-.158.622-.013.479.382-.379.35-.759.576-1.659.502-2-.084-.39-.226-.249-.382.379m-76.812 1.585c-1.018.992-.86 1.395.171.435.479-.446.794-.88.7-.964-.094-.084-.486.154-.871.529m37.3 1.048-3 .529 2.8-.278c3.614-.358 11.618-.356 15.2.004l2.8.282-3.2-.555c-3.976-.689-10.637-.681-14.6.018m-40.23 2.146c-.897 1.002-2.129 2.541-2.738 3.421l-1.108 1.6 1.138-1.397a89.063 89.063 0 0 1 2.899-3.306c.968-1.05 1.688-1.961 1.6-2.024-.089-.063-.895.704-1.791 1.706m34.03-.968c-.88.29-1.33.539-1 .552.33.014 1.41-.23 2.4-.542.99-.312 1.44-.561 1-.552-.44.008-1.52.252-2.4.542m25.8-.011c.77.297 1.85.541 2.4.543.579.002.158-.231-1-.552-2.522-.701-3.23-.696-1.4.009m-31.6 2c-1.306.747-.849.755.854.016.74-.322 1.076-.585.746-.586-.33-.001-1.05.256-1.6.57m49.646.32c-.096 1.494-1.272 3.167-2.077 2.956-.423-.111-.669-.038-.546.161.831 1.345 3.311-1.399 2.85-3.153-.162-.616-.185-.612-.227.036m-7.646.88c.55.314 1.18.572 1.4.572.22 0-.05-.258-.6-.572-.55-.314-1.18-.572-1.4-.572-.22 0 .05.258.6.572m-47.4 1.61-1.2 1.006 1.5-.848c.825-.466 1.5-.919 1.5-1.008 0-.403-.699-.073-1.8.85m50.2-.41c.55.314 1.18.572 1.4.572.22 0-.05-.258-.6-.572-.55-.314-1.18-.572-1.4-.572-.22 0 .05.258.6.572m-53.269 2.47c-2.154 1.732-5.526 5.036-6.459 6.33-.475.66.574-.252 2.332-2.027 1.758-1.775 3.826-3.701 4.596-4.281.77-.58 1.279-1.063 1.131-1.073-.148-.011-.868.462-1.6 1.051m-25.349 1.531c-1.287 2.012-2.221 3.887-1.693 3.399.43-.397 3.497-5.6 3.302-5.6-.111 0-.835.99-1.609 2.201m16.937 7.402c-.877 1.54-.617 1.539.481-.003.47-.66.707-1.199.527-1.197-.18.001-.634.541-1.008 1.2m-21.531 1.219c-.242.452-.381 1-.308 1.217.072.218.338-.152.591-.822.526-1.392.368-1.612-.283-.395m20.012.978c-.283.341-.424.709-.314.819.11.11.431-.078.714-.419.283-.341.424-.709.314-.819-.11-.11-.431.078-.714.419m-1.158 1.949c-1.583 1.908-2.197 1.872 31.304 1.839l31.254-.031.136.886c.102.664.221.75.472.343 1.26-2.038 2.096-1.986-31.822-1.986-17.262 0-31.386-.144-31.386-.32 0-.176.216-.536.48-.8s.376-.48.249-.48-.436.247-.687.549m-37.254 1.873c-.242.452-.352 1.037-.246 1.3.129.316.206.285.226-.091.018-.312.33-.897.694-1.3.373-.412.467-.731.214-.731-.246 0-.646.37-.888.822M156 148.2c-1.306.747-.849.755.854.016.74-.322 1.076-.585.746-.586-.33-.001-1.05.256-1.6.57m3.02-.221c.232.231.302 4.719.18 11.484l-.2 11.104-2.09 1.193c-2.447 1.396-2.592 1.776-.232.608 3.054-1.511 2.936-.988 2.942-13.008.004-5.918 0-10.985-.007-11.26a.507.507 0 0 0-.493-.5c-.303 0-.34.14-.1.379m-6.32 1.648c-.825.436-1.5.881-1.5.991 0 .178 3.159-1.299 3.567-1.667.46-.417-.742-.023-2.067.676m28.911 1.344c-.226.594-.403 1.384-.393 1.755.009.371.271-.039.582-.911.63-1.769.457-2.544-.189-.844m100.489.299c-.684 1.896-.624 2.378.117.955.337-.646.561-1.437.498-1.758-.063-.321-.34.04-.615.803m-133.076.143c-.999.755-.629.75.83-.011.63-.328.876-.592.546-.587-.33.006-.949.275-1.376.598m-4.943 2.668c-.725.448-1.234.899-1.131 1.002.103.104.874-.278 1.712-.847 1.792-1.218 1.336-1.339-.581-.155m-3.388 2.133c-.821.558-1.493 1.092-1.493 1.187 0 .259 2.769-1.427 3.025-1.841.342-.554.084-.444-1.532.654m38.998 1.086c-.681 1.884-.587 2.394.135.73.327-.753.54-1.531.475-1.728-.066-.197-.341.252-.61.998m100.39.745c-.284.91-.436 1.733-.338 1.831.245.245 1.153-2.588.988-3.084-.074-.22-.366.344-.65 1.253m-142.681.59-1.2 1.031 1.3-.86c.715-.473 1.3-.938 1.3-1.033 0-.3-.169-.195-1.4.862m-3.8 2.816c-2.671 2.227-2.818 2.375-1.8 1.825.884-.479 4.518-3.637 4.2-3.65-.11-.005-1.19.816-2.4 1.825m45.307-.651.093 1 8.685.108 8.684.108.139 3.292.139 3.292-.024-3.4-.023-3.4-8.56-.2c-8.084-.189-8.579-.245-8.893-1-.293-.704-.322-.68-.24.2m100.339.276c-.079 1.506-.327 1.519-32.446 1.724l-31.4.2-.058 1.2c-.055 1.14-.049 1.145.127.1l.184-1.1h31.129c34.018 0 33.286.05 32.709-2.22-.178-.702-.203-.693-.245.096M128.8 165.759c-2.383 2.303-4.194 4.241-3.965 4.241.102 0 1.526-1.35 3.165-3 3.197-3.218 3.778-4.121.8-1.241m86.124 4.041c.002 1.32.077 1.812.166 1.093.089-.719.087-1.799-.004-2.4s-.164-.013-.162 1.307m-18.524 3.6v3h-6.111c-6.626 0-7.936.355-7.843 2.123.043.808.061.814.234.077.378-1.614 1.185-1.8 7.796-1.8h6.324v-3.2c0-1.76-.09-3.2-.2-3.2-.11 0-.2 1.35-.2 3m-75.094.296c-.932 1.127-1.593 2.15-1.47 2.273.123.124.413-.114.645-.527.231-.413 1.048-1.447 1.816-2.297.768-.85 1.24-1.535 1.05-1.522-.191.012-1.109.945-2.041 2.073m29.704 1.735c-3.729 2.529-8.949 7.208-11.425 10.238-1.077 1.318-.3.672 2.037-1.693 4.722-4.781 5.943-5.824 9.625-8.225a837.447 837.447 0 0 0 3.12-2.038c.091-.062.091-.188-.001-.28-.091-.092-1.602.807-3.356 1.998m64.25-1.355c-.09 1.624-1.18 1.567 29.382 1.535 29.642-.032 29.894-.018 29.47 1.604-.113.432-.115.785-.005.785.529 0 .551-1.684.029-2.207-.513-.513-4.495-.593-29.538-.593h-28.945l-.166-1.1-.167-1.1-.06 1.076m-97.967 5.024c-1.205 1.741-1.466 2.254-.995 1.963.445-.275 2.189-3.063 1.916-3.063-.088 0-.502.495-.921 1.1m-4.69 7.531c-.591 1.008-.997 1.909-.903 2.002.094.094.661-.73 1.26-1.831 1.365-2.508 1.089-2.639-.357-.171m158.88-.568a57.004 57.004 0 0 1-.507 1.8c-.125.405.066.232.423-.386.358-.618.586-1.428.508-1.8-.101-.475-.227-.36-.424.386m-91.792 1.237c-.681 1.884-.587 2.394.135.73.327-.753.54-1.531.475-1.728-.066-.197-.341.252-.61.998m-44.221 3.399c-.773 1.044-1.306 1.989-1.183 2.1.122.11.304-.027.403-.306.1-.279.393-.729.651-1 .636-.668 1.919-2.693 1.707-2.693-.094 0-.804.854-1.578 1.899m134.43-.232c-.664.695-1.96.733-25.076.733-22.497 0-25.823.136-24.431.996.224.138.407.061.407-.172 0-.294 7.421-.424 24.156-.424 23.198 0 24.193-.03 25.1-.766.519-.421.854-.841.744-.933-.11-.092-.515.162-.9.566m-90.972.133c.08.777.38.8 10.277.81l10.195.01-10.072-.117c-9.15-.106-10.091-.18-10.277-.81-.156-.528-.185-.502-.123.107m-68.843 1.013c-.267.427-.484 1.004-.483 1.282.002.278.275-.017.608-.655.693-1.329.601-1.79-.125-.627m90.749 1.811c-.019.452.249 1.172.596 1.6.346.427.507.537.357.245-.15-.293-.418-1.013-.596-1.6-.258-.858-.329-.906-.357-.245m-92.046.998c-.242.452-.381 1-.308 1.217.072.218.338-.152.591-.822.526-1.392.368-1.612-.283-.395m115.608 3.972c1.481 1.871 2.565 2.693 1.289.978-1.603-2.153-1.971-2.572-2.263-2.572-.159 0 .279.718.974 1.594m-117.531 1.023c-.256.561-.458 1.237-.449 1.502.008.264.281-.131.606-.88.683-1.574.539-2.149-.157-.622m97.141 1.112c-.007.4 2.001 3.871 2.24 3.871.179 0-1.127-2.578-1.824-3.6-.226-.33-.413-.452-.416-.271m-98.342 2.615c-.255.852-.451 1.798-.436 2.102.015.305.296-.32.624-1.388.328-1.068.525-2.015.437-2.103-.089-.088-.37.537-.625 1.389m23.201-.527c-.67 1.471-.542 1.785.182.448.339-.625.541-1.211.449-1.302-.091-.092-.375.293-.631.854m99.854.266c.505.554 1.765 1.601 2.8 2.326 2.35 1.647 1.814 1.067-1.319-1.425-1.32-1.05-1.987-1.455-1.481-.901m62.051.044c-.533.484-1.87 1.461-2.97 2.171-1.1.711-1.861 1.295-1.692 1.297.496.008 3.599-2.004 4.757-3.085l1.066-.993.618 1.141c.566 1.044.62 1.066.635.256.026-1.417-1.257-1.836-2.414-.787m-163.105 2.49c-.256.561-.457 1.327-.447 1.702.009.374.271-.032.582-.904.645-1.811.559-2.321-.135-.798m106.136 1.385c.268.434 2.599 1.732 2.599 1.448 0-.094-.641-.549-1.424-1.011-.783-.462-1.312-.659-1.175-.437m50.096.364c-1.812 1.162-1.811 1.39.003.475.935-.471 1.7-.944 1.7-1.049 0-.343-.577-.148-1.703.574m-46.473 1.821c.427.323.956.588 1.176.588.22 0 .051-.265-.376-.588-.428-.323-.957-.587-1.177-.587-.22 0-.051.264.377.587M280.4 209c-.55.314-.82.572-.6.572.22 0 .85-.258 1.4-.572.55-.314.82-.572.6-.572-.22 0-.85.258-1.4.572m-40.254 1.202c1.459.761 1.829.766.83.011-.427-.323-1.046-.592-1.376-.598-.33-.005-.084.259.546.587m37.054.031c-1.352.751-.389.722 1.054-.031.63-.328.876-.581.546-.56-.33.02-1.05.286-1.6.591m-151.295.967c-.151.77-.375 1.85-.498 2.4-.123.55.057.28.399-.6s.566-1.96.498-2.4c-.083-.526-.219-.32-.399.6m147.695.225c-.77.291-1.106.54-.746.552.36.013 1.26-.24 2-.561 1.666-.724.662-.716-1.254.009m-170.151.39c-.137.358-.233 1.041-.213 1.518.026.614.149.475.423-.477.398-1.384.235-2.198-.21-1.041M212.812 213c1.542 1.778 3.965 3.988 4.113 3.752.052-.084-1.164-1.322-2.703-2.752-1.66-1.542-2.233-1.949-1.41-1m33.221-.856c.092.079.707.264 1.367.412.876.196 1.038.159.6-.138-.54-.365-2.368-.62-1.967-.274m23.967.274c-.438.297-.276.334.6.138 1.471-.329 1.79-.558.767-.55-.422.003-1.037.189-1.367.412m-19.695.665c.497.096 1.217.092 1.6-.008.382-.1-.025-.179-.905-.174-.88.004-1.193.086-.695.182m12.495.187c-1.43.203-4.31.289-6.4.192-2.716-.126-3.286-.083-2 .151 2.577.469 6.448.397 10.6-.197 1.98-.284 2.88-.515 2-.515-.88 0-2.77.166-4.2.369m-159.907 3.53c0 .77.082 1.085.183.7.1-.385.1-1.015 0-1.4-.101-.385-.183-.07-.183.7m21.725.618c-.153 1.021-.188 1.945-.078 2.055.11.11.325-.634.478-1.655.153-1.02.188-1.945.078-2.055-.11-.11-.325.635-.478 1.655m-22.364 2.838c-.327 2.39-.276 12.604.076 14.944.148.99.27-2.385.27-7.5s-.021-9.3-.046-9.3c-.025 0-.16.835-.3 1.856m117.359-1.168c.016.399 1.986 1.846 2.209 1.623.093-.092-.37-.565-1.027-1.051-.657-.486-1.189-.744-1.182-.572m-95.512 2.312c.004.88.086 1.193.182.695.096-.497.092-1.217-.008-1.6-.1-.382-.179.025-.174.905m168.042.519c-.234.376-2.088 1.538-4.119 2.582-2.031 1.044-3.484 1.899-3.23 1.899.844 0 7.572-3.734 7.8-4.33.327-.851.045-.945-.451-.151m-66.319 1.468c.427.323.956.588 1.176.588.22 0 .051-.265-.376-.588-.428-.323-.957-.587-1.177-.587-.22 0-.051.264.377.587m4.752 2.391c.428.342 1.058.608 1.4.59.539-.027.542-.061.024-.254-.33-.122-.96-.388-1.4-.59-.787-.362-.788-.358-.024.254m49.624 2.036c-1.615.74-.649.741 1.054.002.74-.322 1.076-.577.746-.568-.33.009-1.14.264-1.8.566m-44.567-.049c.402.397 4.643 1.833 5.367 1.817.44-.01-.55-.457-2.2-.995-3.107-1.011-3.447-1.1-3.167-.822m40.767 1.26c-.77.291-1.106.54-.746.552.36.013 1.26-.24 2-.561 1.666-.724.662-.716-1.254.009m-33.553.948c.356.224 1.706.494 3 .6 1.856.152 2.015.127.753-.12-.88-.172-2.23-.442-3-.6-1.019-.21-1.224-.177-.753.12M272.6 230c-.504.217-.578.344-.2.344.33 0 .96-.155 1.4-.344.504-.217.578-.344.2-.344-.33 0-.96.155-1.4.344m-3.095.683c.497.096 1.217.092 1.6-.008.382-.1-.025-.179-.905-.174-.88.004-1.193.086-.695.182m-19.905.504c.971.324 5.901.56 5.567.267-.092-.08-1.607-.248-3.367-.373-1.922-.137-2.801-.094-2.2.106m14.6.013-2 .274 2.2.035c1.21.019 2.56-.12 3-.309.996-.428-.079-.428-3.2 0m-140.129 2.4c-.02.77.223 2.48.539 3.8.57 2.376.574 2.38.333.4-.512-4.224-.832-5.765-.872-4.2m-21.178 4.8c0 .77.082 1.085.183.7.1-.385.1-1.015 0-1.4-.101-.385-.183-.07-.183.7m22.344 2.6c-.014.22.23 1.21.542 2.2.312.99.566 1.44.564 1-.004-.834-1.064-3.9-1.106-3.2m-21.991 1c-.019.55.141 1.27.354 1.6.494.764.494-.058 0-1.6l-.32-1-.034 1m1.166 5.6c0 .33.175.87.388 1.2.345.533.388.533.388 0 0-.33-.175-.87-.388-1.2-.345-.533-.388-.533-.388 0m23.213 1.876c.058.776 1.912 4.257 1.942 3.648.018-.372-.133-.779-.336-.905-.203-.125-.487-.764-.631-1.419-.232-1.056-1.038-2.15-.975-1.324m-22.407.978c-.01.36.245 1.26.566 2 .756 1.74.774 1.019.028-1.054-.317-.88-.585-1.306-.594-.946m1.212 3.946c-.002.576 1.127 2.866 1.156 2.346.008-.14-.249-.86-.57-1.6-.322-.74-.585-1.076-.586-.746m23.17-.275c0 .399 1.685 3.523 1.825 3.383.196-.195-1.348-3.508-1.634-3.508-.105 0-.191.056-.191.125m114.932 1.775c-.975.863-2.446 3.659-1.521 2.891.324-.269.589-.706.589-.97 0-1.977 1.218-2.201 12.619-2.321l10.781-.114-10.839-.093c-9.835-.084-10.912-.028-11.629.607m22.333 2.317c-.67 1.471-.542 1.785.182.448.339-.625.541-1.211.449-1.302-.091-.092-.375.293-.631.854M108.43 259.6c-.002.576 1.127 2.866 1.156 2.346.008-.14-.249-.86-.57-1.6-.322-.74-.585-1.076-.586-.746m131.678 3.27c-1.151 1.742-1.928 3.066-1.726 2.941.493-.305 4.147-5.82 3.963-5.982-.08-.07-1.087 1.298-2.237 3.041m-107.297-2.637c.013.413 2.389 3.652 2.389 3.256 0-.231-1.803-3.026-2.223-3.445-.097-.098-.172-.012-.166.189M110.4 264.1c0 .494 2.082 4.351 2.255 4.178.1-.1-.3-1.059-.891-2.13-1.156-2.098-1.364-2.41-1.364-2.048m26.791 2.381c.725 1.035 1.772 2.295 2.326 2.8.554.506.149-.161-.901-1.481-2.492-3.133-3.072-3.669-1.425-1.319m96.832 4.219c-2.575 2.788-2.994 3.3-2.696 3.3.096 0 1.383-1.35 2.86-3 1.477-1.65 2.605-3 2.507-3-.097 0-1.299 1.215-2.671 2.7m-93.221-.214c-.003.495 2.469 3.125 3.353 3.568.543.272.416.048-.355-.626-.66-.577-1.604-1.539-2.098-2.138-.494-.6-.899-.961-.9-.804m118.09 3.343c-.495.754-.82 1.371-.723 1.371.278 0 1.935-2.429 1.77-2.594-.082-.082-.553.468-1.047 1.223m-112.492 2.29c0 .278 7.078 5.481 7.457 5.481.156 0-1.232-1.104-3.086-2.452-1.854-1.349-3.596-2.631-3.871-2.849-.275-.219-.5-.299-.5-.18m79.8 1.713c-2.979 2.248-3.629 2.897-1.8 1.796 1.391-.837 4.782-3.62 4.4-3.611-.11.002-1.28.819-2.6 1.815m27.697 2.748c-1.461 1.859-2.441 3.296-2.177 3.193.264-.102.885-.779 1.38-1.503.494-.725 1.229-1.672 1.632-2.104.867-.931 2.233-2.966 1.99-2.966-.093 0-1.364 1.521-2.825 3.38m-99.497 1.359c0 .172.63.613 1.4.98.77.368 1.4.599 1.4.514 0-.085-.63-.526-1.4-.98-.77-.454-1.4-.685-1.4-.514m65.097.427c-1.744 1.118-1.828 1.373-.197.598.825-.392 1.5-.859 1.5-1.038 0-.405.03-.415-1.303.44m-95.054 2.787c.967 1.073 2.027 2.073 2.357 2.221.33.148-.384-.731-1.586-1.953-2.701-2.743-3.133-2.894-.771-.268m122.542 3.347L245 290.6l2.1-1.985c1.951-1.844 2.283-2.215 1.985-2.215-.063 0-1.008.945-2.1 2.1m-81.439-1.084c.74.321 1.55.577 1.8.568.25-.008-.152-.278-.892-.6-.74-.321-1.55-.577-1.8-.568-.25.008.152.278.892.6m43.054-.002c-1.615.74-.649.741 1.054.002.74-.322 1.076-.577.746-.568-.33.009-1.14.264-1.8.566m-80.929 1.088c1.47 1.394 7.031 6.199 7.729 6.677.44.301-.1-.243-1.2-1.209-1.1-.966-3.006-2.704-4.236-3.863-1.23-1.159-2.368-2.107-2.529-2.107-.161 0-.054.226.236.502m44.471.95c1.068.328 2.03.509 2.138.402.228-.229-2.602-1.061-3.48-1.024-.33.014.274.294 1.342.622m29.914-.193c-.739.213-1.253.477-1.142.588.111.111 1.076-.067 2.144-.395 2.111-.648 1.195-.825-1.002-.193M178 290.613c1.65.289 3.54.52 4.2.513.66-.007-.15-.249-1.8-.539-1.65-.289-3.54-.52-4.2-.513-.66.007.15.249 1.8.539m16.6-.02c-1.54.275-2.26.512-1.6.528.66.017 2.46-.209 4-.501 1.54-.292 2.26-.529 1.6-.528-.66.002-2.46.227-4 .501m49.566.36c-.239.259-1.319 1.254-2.4 2.209-1.081.955-1.426 1.365-.766.91 1.811-1.249 3.991-3.216 3.783-3.415-.1-.097-.378.036-.617.296m-106.696 5.73c.698.614 1.868 1.458 2.6 1.874 1.807 1.028 1.004.305-1.67-1.503-1.59-1.075-1.848-1.178-.93-.371m99.13.351c-.66.529-1.02.957-.8.951.494-.014 2.373-1.547 2.157-1.759-.087-.085-.697.279-1.357.808m-3.171 2.177c-.864.654-1.404 1.184-1.2 1.178.378-.011 3.336-2.368 2.971-2.367-.11 0-.907.535-1.771 1.189m-89.826 1.518c.004.296 4.878 2.923 5.069 2.732.065-.065-1.05-.767-2.477-1.56-1.427-.793-2.594-1.321-2.592-1.172M222.8 305c-.55.314-.82.572-.6.572.22 0 .85-.258 1.4-.572.55-.314.82-.572.6-.572-.22 0-.85.258-1.4.572m-68.8 1.2c.55.314 1.27.571 1.6.57.33-.001-.006-.264-.746-.586-1.703-.739-2.16-.731-.854.016m66 .033c-.558.31-.735.552-.4.548.33-.003.949-.271 1.376-.594.963-.728.369-.7-.976.046m-3 1.181c-.66.303-.93.552-.6.554.33.002 1.05-.254 1.6-.568 1.265-.723.589-.713-1 .014m-54.254 2.002c.74.321 1.73.572 2.2.557.48-.015.066-.275-.946-.594-2.32-.731-2.978-.712-1.254.037m48.054.009c-.77.291-1.106.54-.746.552.36.013 1.26-.24 2-.561 1.666-.724.662-.716-1.254.009m-43.4 1.189c.66.303 1.65.546 2.2.541.606-.005.211-.228-1-.564-2.474-.687-2.741-.682-1.2.023m40.087-.368c-.136.136-.841.387-1.567.559-1.087.258-1.143.317-.32.336 1.095.025 3.793-1.056 2.767-1.109-.349-.017-.745.079-.88.214M171.8 311.6c.44.189 1.25.338 1.8.332l1-.012-1-.32c-.55-.176-1.36-.326-1.8-.332l-.8-.012.8.344m29.8 0-1 .32 1 .034c.55.019 1.27-.141 1.6-.354.764-.494-.058-.494-1.6 0m-25.7.682a5.661 5.661 0 0 0 1.8 0c.495-.095.09-.173-.9-.173s-1.395.078-.9.173m21.2 0a5.661 5.661 0 0 0 1.8 0c.495-.095.09-.173-.9-.173s-1.395.078-.9.173m-16.3.588c2.364.355 11.373.36 13.357.007.856-.152-2.204-.277-6.8-.277s-7.547.122-6.557.27" fill="#a9dbdd"/>
  </g>
</svg>
