<svg xmlns="http://www.w3.org/2000/svg" width="400" height="400">
  <g fill-rule="evenodd">
    <path d="M225.2 111.72c0 5.317-.196 5.88-2.048 5.88-9.819 0-24.47 8.753-28.507 17.031a587.426 587.426 0 0 1-1.514 3.085c-1.722 3.444-1.714 15.764.014 19.41.176.371.62 1.274.987 2.006.368.733.668 1.512.668 1.731 0 .715 3.592 5.086 5.604 6.819 4.673 4.025 11.226 6.765 21.74 9.089 1.949.431 3.597.839 3.662.906.262.273.287 1.893.241 15.662L226 207.677l-1.9-.207c-5.896-.641-13.238-2.994-22.7-7.275-4.22-1.909-5.169-2.376-6.692-3.295-2.396-1.445-2.333-1.671-2.216 7.942l.108 8.841 1.4.736c1.234.648 2.558 1.225 5.4 2.353.44.174 1.43.579 2.2.898 5.078 2.108 17.275 5.13 20.708 5.13 2.713 0 2.849.273 2.979 6.025l.113 4.975h13.2l.113-4.975c.123-5.417.346-6.025 2.21-6.025 2.736 0 9.329-2.011 14.477-4.416 6.186-2.89 15-11.33 15-14.364 0-.26.219-.866.486-1.346 2.716-4.88 2.133-20.055-.886-23.074-.11-.11-.54-.869-.956-1.687-.841-1.654-6.109-7.113-6.864-7.113-.265 0-.68-.238-.922-.53-.626-.755-4.477-2.566-9.058-4.262-2.793-1.034-9.965-2.808-11.35-2.808-2.936 0-2.882.315-2.759-16l.109-14.6 1.323-.127c2.067-.199 9.718 1.388 14.477 3.001 2.065.701 2.482.861 5.926 2.283 1.39.574 2.605 1.043 2.7 1.043.096 0 .174-3.741.174-8.312v-8.313l-1.3-.514c-4.02-1.589-13.212-3.539-18.5-3.925-4.319-.315-4.2-.144-4.2-5.985V106.8h-13.6v4.92m.705 34.95c.119 15.969.388 14.846-3.305 13.799-10.445-2.961-14.489-7.162-14.101-14.645.218-4.197.771-5.507 3.469-8.222 2.769-2.786 8.916-5.301 12.432-5.087l1.4.085.105 14.07m-61.505 5.256c-5.115 2.299-10.787 5.145-11.838 5.939-.681.514-1.359.935-1.508.935-.833 0-10.048 7.384-13.366 10.71-4.412 4.422-4.841 4.919-8.118 9.424a310.872 310.872 0 0 1-2.693 3.666c-.175.22-.446.67-.602 1-.157.33-.819 1.5-1.472 2.6a57.835 57.835 0 0 0-2.045 3.8c-2.695 5.655-3.158 6.718-3.158 7.252 0 .323-.143.759-.318.968-.175.209-.646 1.46-1.047 2.78l-1.098 3.6c-3.819 12.448-3.269 34.543 1.107 44.46.306.694.556 1.628.556 2.077 0 .449.18.927.4 1.063.22.136.4.506.4.823 0 .73 3.526 8.555 4.046 8.977.135.11.373.605.527 1.1.155.495.449.9.654.9.205 0 .373.201.373.446 0 2.169 9.398 13.797 15.835 19.593 5.291 4.764 17.167 12.291 21.565 13.669.766.239 6.549 2.321 7.8 2.807.596.231 2.018.564 7.4 1.731 9.541 2.068 24.901 1.689 34.6-.855 3.37-.884 6.653-1.937 6.98-2.24.209-.193.706-.351 1.105-.351s1.038-.166 1.42-.368c.382-.202 2.495-1.226 4.695-2.275 17.966-8.567 30.937-22.226 39.369-41.453 1.424-3.249 1.854-3.105-9.302-3.099-10.45.007-10.393-.004-11.472 2.138-2.934 5.826-8.661 12.77-14.557 17.651-2.345 1.94-6.871 5.006-7.392 5.006-.209 0-.439.138-.513.306-.377.868-10.625 5.224-14.333 6.093-11.643 2.731-25.075 2.467-32.314-.636-.722-.31-1.656-.563-2.076-.563-.42 0-.874-.18-1.01-.4-.136-.22-.567-.4-.958-.4-1.582 0-9.552-4.391-14.417-7.944-5.08-3.71-14.425-13.838-14.425-15.635 0-.231-.139-.421-.309-.421-.17 0-.66-.675-1.089-1.5a58.338 58.338 0 0 0-1.635-2.904c-1.104-1.81-3.367-7.194-3.367-8.008 0-.346-.161-.799-.358-1.008-.197-.209-.571-1.28-.832-2.38-1.645-6.93-1.782-8.127-1.796-15.6-.017-9.083.344-11.559 2.797-19.2 1.129-3.517 5.692-13 6.255-13 .184 0 .334-.191.334-.424 0-2.427 15.893-17.976 18.373-17.976.235 0 .427-.145.427-.323 0-.178.72-.641 1.601-1.029 2.912-1.285 2.799-.809 2.799-11.853 0-10.795.043-10.588-2-9.669m79 27.957c6.382 2.341 10.047 4.785 11.573 7.717 3.609 6.94-.643 15.164-9.573 18.514-3.001 1.125-4.823 1.556-6.012 1.421l-1.188-.135-.105-13.798c-.058-7.588-.013-14.039.101-14.335.239-.623 2.583-.346 5.204.616" fill="#45cc85"/>
    <path d="M81.055 1c-.172.449-.889.6-2.842.6-2.056 0-2.613.128-2.613.6 0 .461-.511.6-2.2.6s-2.2.139-2.2.6c0 .433-.444.6-1.6.6-.88 0-1.6.18-1.6.4 0 .22-.636.4-1.413.4-.886 0-1.498.223-1.642.6-.132.342-.728.6-1.388.6-.762 0-1.157.205-1.157.6 0 .373-.378.6-1 .6-.55 0-1 .18-1 .4 0 .22-.456.4-1.013.4-.556 0-1.116.27-1.242.6-.127.33-.661.6-1.188.6-.584 0-.957.234-.957.6 0 .373-.378.6-1 .6s-1 .227-1 .6c0 .363-.371.6-.942.6-.517 0-1.427.45-2.02 1-.594.55-1.346 1-1.671 1-.326 0-.696.27-.822.6-.127.33-.404.6-.616.6-.519 0-1.529 1.038-1.529 1.571 0 .236-.456.429-1.013.429-.556 0-1.116.27-1.242.6-.127.33-.481.6-.788.6-.306 0-.557.193-.557.429 0 .553-1.018 1.571-1.571 1.571-.236 0-.429.27-.429.6 0 .33-.27.6-.6.6-.33 0-.6.24-.6.532 0 .293-.45.774-1 1.068-.55.294-1 .775-1 1.068 0 .292-.27.532-.6.532-.33 0-.6.27-.6.6 0 .33-.27.6-.6.6-.33 0-.6.193-.6.429 0 .553-1.018 1.571-1.571 1.571-.236 0-.429.251-.429.557 0 .307-.27.661-.6.788-.33.126-.6.514-.6.862 0 .347-.45 1.048-1 1.558s-1 1.112-1 1.338c0 .226-.27.515-.6.642-.33.126-.6.496-.6.822 0 .325-.45 1.077-1 1.671-.55.593-1 1.418-1 1.833 0 .415-.27.858-.6.984-.33.127-.6.661-.6 1.188 0 .584-.234.957-.6.957s-.6.373-.6.957c0 .527-.27 1.061-.6 1.188-.33.126-.6.686-.6 1.242 0 .557-.18 1.013-.4 1.013-.22 0-.4.45-.4 1 0 .622-.227 1-.6 1-.395 0-.6.395-.6 1.157 0 .66-.258 1.256-.6 1.388-.377.144-.6.756-.6 1.642 0 .777-.18 1.413-.4 1.413-.22 0-.4.72-.4 1.6 0 1.156-.167 1.6-.6 1.6-.461 0-.6.511-.6 2.2s-.139 2.2-.6 2.2c-.471 0-.6.55-.6 2.551 0 1.78-.181 2.702-.6 3.049-.902.748-.902 26.309 0 26.655.453.174.6.906.6 2.988 0 2.184.125 2.757.6 2.757.461 0 .6.511.6 2.2s.139 2.2.6 2.2c.433 0 .6.444.6 1.6 0 .88.18 1.6.4 1.6.22 0 .4.636.4 1.413 0 .886.223 1.498.6 1.642.33.127.6.667.6 1.2 0 .534.27 1.074.6 1.2.33.127.6.661.6 1.188 0 .526.18.957.4.957.22 0 .4.45.4 1 0 .622.227 1 .6 1 .4 0 .6.4.6 1.2 0 .8.2 1.2.6 1.2.373 0 .6.378.6 1s.227 1 .6 1 .6.378.6 1c0 .55.18 1 .4 1 .22 0 .4.27.4.6 0 .33.27.6.6.6.375 0 .6.379.6 1.013 0 .556.27 1.116.6 1.242.33.127.6.404.6.616 0 .519 1.038 1.529 1.571 1.529.673 0 .676 4.081.004 4.329-.192.071-.466.748-.608 1.505-.142.756-.417 1.473-.612 1.594s-.355.749-.355 1.396c0 .779-.203 1.176-.6 1.176-.378 0-.6.381-.6 1.029 0 .565-.27 1.298-.6 1.628-.33.33-.6 1.037-.6 1.572 0 .534-.18.971-.4.971-.22 0-.4.81-.4 1.8 0 1.333-.156 1.8-.6 1.8-.433 0-.6.444-.6 1.6 0 1.156-.167 1.6-.6 1.6-.433 0-.6.444-.6 1.6 0 1.156-.167 1.6-.6 1.6-.433 0-.6.444-.6 1.6 0 .88-.18 1.6-.4 1.6-.22 0-.4.733-.4 1.629 0 .914-.263 1.891-.6 2.228-.33.33-.6 1.292-.6 2.138 0 .846-.214 1.61-.476 1.697-.281.094-.547 1.258-.647 2.833-.094 1.471-.329 2.675-.524 2.675-.194 0-.353 1.17-.353 2.6 0 2.044-.128 2.6-.6 2.6s-.6.559-.6 2.629c0 1.803-.188 2.817-.6 3.228-.449.449-.6 1.556-.6 4.4 0 2.874-.149 3.949-.611 4.411-.826.826-.718 41.356.111 41.632.355.118.5 1.31.5 4.105 0 2.967.148 4.086.6 4.538.412.411.6 1.425.6 3.228 0 2.07.128 2.629.6 2.629s.6.556.6 2.6c0 1.467.174 2.6.4 2.6.22 0 .4.956.4 2.124 0 1.247.242 2.443.587 2.9.323.427.593 1.438.6 2.247.007.81.283 1.742.613 2.072.337.337.6 1.314.6 2.228 0 .896.18 1.629.4 1.629.22 0 .4.636.4 1.413 0 .886.223 1.498.6 1.642.391.15.6.773.6 1.788 0 1.117.169 1.557.6 1.557.433 0 .6.444.6 1.6 0 1.156.167 1.6.6 1.6.432 0 .6.442.6 1.576 0 .867.18 1.688.4 1.824.22.136.4.665.4 1.175s.27 1.151.6 1.425c.33.274.6 1.016.6 1.649 0 .756.206 1.151.6 1.151.397 0 .6.397.6 1.176 0 .647.16 1.275.355 1.396.195.121.473.851.618 1.624.145.772.435 1.404.645 1.404.21 0 .382.45.382 1 0 .622.227 1 .6 1 .4 0 .6.4.6 1.2 0 .8.2 1.2.6 1.2.373 0 .6.378.6 1 0 .55.18 1 .4 1 .22 0 .4.45.4 1 0 .622.227 1 .6 1 .4 0 .6.4.6 1.2 0 .8.2 1.2.6 1.2.373 0 .6.378.6 1 0 .55.177 1 .392 1 .216 0 .506.45.644 1s.411 1 .607 1c.197 0 .357.276.357.613 0 .336.27.716.6.842.33.127.6.661.6 1.188 0 .584.234.957.6.957.373 0 .6.378.6 1 0 .55.18 1 .4 1 .22 0 .4.27.4.6 0 .33.27.6.6.6.37 0 .6.376.6.98 0 .539.239 1.124.531 1.3.292.176.877.947 1.3 1.713.737 1.335.947 1.637 2.069 2.976.275.329.5.875.5 1.214 0 .339.27.617.6.617.33 0 .6.27.6.6 0 .33.18.6.4.6.22 0 .4.366.4.813 0 .446.27.916.6 1.042.33.127.6.481.6.788 0 .306.27.557.6.557.33 0 .6.18.6.4 0 .22.27.4.6.4.378 0 .6.381.6 1.031 0 1.031 1.922 3.369 2.769 3.369.237 0 .431.334.431.742 0 .407.45 1.227 1 1.82.55.594 1 1.25 1 1.459 0 .208.27.379.6.379.33 0 .6.27.6.6 0 .33.27.6.6.6.33 0 .6.193.6.429 0 .553 1.018 1.571 1.571 1.571.236 0 .429.27.429.6 0 .33.249.6.553.6.305 0 .659.315.789.7.525 1.563 7.312 8.9 8.233 8.9.234 0 .425.27.425.6 0 .33.27.6.6.6.33 0 .6.177.6.392 0 .216.45.506 1 .644s1 .424 1 .636c0 .518 1.038 1.528 1.571 1.528.236 0 .429.27.429.6 0 .33.27.6.6.6.33 0 .6.183.6.406 0 .723 2.574 2.77 3.5 2.782.495.007.9.206.9.443 0 .536 2.199 2.769 2.726 2.769.214 0 .492.27.619.6.126.33.596.6 1.042.6.456 0 .813.264.813.6 0 .33.171.6.379.6.209 0 .865.45 1.459 1 .593.55 1.413 1 1.82 1 .408 0 .742.27.742.6 0 .33.251.6.557.6.307 0 .661.27.788.6.126.33.596.6 1.042.6.447 0 .813.18.813.4 0 .22.27.4.6.4.33 0 .6.27.6.6 0 .373.378.6 1 .6s1 .227 1 .6c0 .33.27.6.6.6.33 0 .6.166.6.368 0 .203.54.487 1.2.632.66.145 1.2.429 1.2.632 0 .202.45.368 1 .368.622 0 1 .227 1 .6 0 .33.251.6.557.6.307 0 .661.27.788.6.126.33.596.6 1.042.6.447 0 .813.18.813.4 0 .22.54.4 1.2.4.8 0 1.2.2 1.2.6 0 .373.378.6 1 .6s1 .227 1 .6c0 .33.184.6.408.6.224 0 1.121.45 1.992 1s1.948 1 2.392 1c.452 0 .808.265.808.6 0 .378.381.6 1.029.6.565 0 1.298.27 1.628.6.33.33 1.037.6 1.572.6.534 0 .971.18.971.4 0 .22.54.4 1.2.4.8 0 1.2.2 1.2.6 0 .366.373.6.957.6.527 0 1.061.27 1.188.6.142.372.751.6 1.6.6.848 0 1.457.228 1.6.6.126.33.686.6 1.242.6.557 0 1.013.18 1.013.4 0 .22.72.4 1.6.4 1.156 0 1.6.167 1.6.6 0 .433.444.6 1.6.6 1.156 0 1.6.167 1.6.6 0 .433.444.6 1.6.6.88 0 1.6.18 1.6.4 0 .22.72.4 1.6.4 1.156 0 1.6.167 1.6.6 0 .461.511.6 2.2.6s2.2.139 2.2.6c0 .435.448.6 1.629.6.914 0 1.891.263 2.228.6.386.386 1.375.6 2.772.6 1.194 0 2.171.18 2.171.4 0 .225 1.119.4 2.557.4 1.904 0 2.616.153 2.788.6.17.443.87.6 2.671.6 1.637 0 2.639.198 3.041.6.453.453 1.575.6 4.572.6 2.381 0 3.971.16 3.971.4 0 .261 7.133.4 20.6.4 13.467 0 20.6-.139 20.6-.4 0-.24 1.584-.4 3.951-.4 3.024 0 4.068-.141 4.449-.6.347-.419 1.269-.6 3.049-.6 2.001 0 2.551-.129 2.551-.6 0-.476.578-.6 2.8-.6 1.6 0 2.8-.171 2.8-.4 0-.22.977-.4 2.171-.4 1.397 0 2.386-.214 2.772-.6.337-.337 1.314-.6 2.228-.6 1.181 0 1.629-.165 1.629-.6 0-.452.484-.6 1.957-.6 1.371 0 2.026-.18 2.188-.6.152-.396.778-.6 1.842-.6.887 0 1.613-.18 1.613-.4 0-.22.72-.4 1.6-.4 1.156 0 1.6-.167 1.6-.6 0-.433.444-.6 1.6-.6 1.156 0 1.6-.167 1.6-.6 0-.433.444-.6 1.6-.6.88 0 1.6-.18 1.6-.4 0-.22.456-.4 1.013-.4.556 0 1.116-.27 1.242-.6.143-.372.752-.6 1.6-.6.849 0 1.458-.228 1.6-.6.127-.33.661-.6 1.188-.6.584 0 .957-.234.957-.6 0-.4.4-.6 1.2-.6.66 0 1.2-.18 1.2-.4 0-.22.428-.4.951-.4.523 0 1.175-.27 1.449-.6.274-.33.932-.6 1.462-.6.529 0 1.067-.27 1.193-.6.127-.33.661-.6 1.188-.6.526 0 .959-.135.961-.3.002-.165.812-.655 1.8-1.09.988-.434 1.796-1.019 1.796-1.3 0-.28.45-.51 1-.51.622 0 1-.227 1-.6 0-.4.4-.6 1.2-.6.66 0 1.2-.18 1.2-.4 0-.22.366-.4.813-.4.446 0 .916-.27 1.042-.6.127-.33.481-.6.788-.6.306 0 .557-.27.557-.6 0-.368.374-.6.967-.6.531 0 1.026-.135 1.1-.3.073-.165.808-.643 1.633-1.063.825-.42 1.5-1.005 1.5-1.3 0-.33.463-.537 1.2-.537.8 0 1.2-.2 1.2-.6 0-.33.27-.6.6-.6.33 0 .6-.18.6-.4 0-.22.366-.4.813-.4.446 0 .916-.27 1.042-.6.127-.33.481-.6.788-.6.306 0 .557-.27.557-.6 0-.33.334-.6.742-.6.407 0 1.227-.45 1.82-1 .594-.55 1.25-1 1.459-1 .208 0 .379-.27.379-.6 0-.336.357-.6.813-.6.446 0 .916-.27 1.042-.6.127-.33.404-.6.616-.6.519 0 1.529-1.038 1.529-1.571 0-.236.27-.429.6-.429.33 0 .6-.27.6-.6 0-.346.362-.6.854-.6.47 0 1.271-.45 1.781-1s1.115-1 1.346-1c.23 0 .419-.27.419-.6 0-.33.27-.6.6-.6.33 0 .6-.193.6-.429 0-.553 1.018-1.571 1.571-1.571.236 0 .429-.27.429-.6 0-.33.26-.6.577-.6.318 0 .829-.359 1.136-.797.307-.439.673-.683.813-.543.141.14.369-.041.507-.403.139-.361.419-.657.623-.657.486 0 2.744-2.315 2.744-2.814 0-.212.27-.386.6-.386.33 0 .6-.27.6-.6 0-.33.225-.607.5-.615.524-.016 2.7-2.909 2.7-3.59 0-.217.27-.395.6-.395.33 0 .6-.27.6-.6 0-.33.27-.6.6-.6.33 0 .6-.193.6-.429 0-.553 1.018-1.571 1.571-1.571.236 0 .429-.27.429-.6 0-.33.27-.6.6-.6.33 0 .6-.27.6-.6 0-.33.27-.6.6-.6.33 0 .6-.27.6-.6 0-.33.18-.6.4-.6.22 0 .4-.27.4-.6 0-.33.177-.6.392-.6.216 0 .506-.45.644-1s.424-1 .636-1c.518 0 1.528-1.038 1.528-1.571 0-.236.27-.429.6-.429.4 0 .6-.4.6-1.2 0-.66.194-1.2.431-1.2.754 0 2.769-2.306 2.769-3.169 0-.472.259-.831.6-.831.33 0 .6-.27.6-.6 0-.33.27-.6.6-.6.33 0 .6-.317.6-.704 0-.387.45-1.189 1-1.783.55-.593 1-1.274 1-1.512 0-.468.584-1.265 1.7-2.318.385-.363.7-1.071.7-1.572 0-.501.18-.911.4-.911.22 0 .4-.27.4-.6 0-.33.27-.6.6-.6.373 0 .6-.378.6-1s.227-1 .6-1c.33 0 .6-.351.6-.779 0-.429.45-1.265 1-1.859.55-.593 1-1.503 1-2.02 0-.571.237-.942.6-.942.373 0 .6-.378.6-1s.227-1 .6-1c.4 0 .6-.4.6-1.2 0-.66.18-1.2.4-1.2.22 0 .4-.45.4-1 0-.622.227-1 .6-1 .366 0 .6-.373.6-.957 0-.527.27-1.061.6-1.188.33-.126.6-.666.6-1.2 0-.533.289-1.08.642-1.216.352-.135.543-.501.423-.813-.119-.312.042-.783.359-1.046s.576-.884.576-1.38c0-.496.27-1.126.6-1.4.33-.274.6-1.016.6-1.649 0-.756.206-1.151.6-1.151.397 0 .6-.397.6-1.176 0-.647.18-1.288.4-1.424.22-.136.4-.757.4-1.381 0-.638.262-1.234.6-1.364.396-.152.6-.778.6-1.842 0-1.167.166-1.613.6-1.613.433 0 .6-.444.6-1.6 0-1.156.167-1.6.6-1.6.433 0 .6-.444.6-1.6 0-.88.18-1.6.4-1.6.22 0 .4-.72.4-1.6 0-1.156.167-1.6.6-1.6.442 0 .6-.461.6-1.751 0-1.069.234-1.945.6-2.249.342-.284.6-1.156.6-2.025 0-.84.18-1.639.4-1.775.22-.136.4-1.407.4-2.824 0-2.023.129-2.576.6-2.576.472 0 .6-.556.6-2.6s.128-2.6.6-2.6c.473 0 .603-.572.613-2.7.008-1.737.222-2.977.6-3.476.418-.554.587-1.846.587-4.5 0-2.216.162-3.724.4-3.724.262 0 .4-7.267.4-21s-.138-21-.4-21c-.238 0-.4-1.508-.4-3.724 0-2.654-.169-3.946-.587-4.5-.378-.499-.592-1.739-.6-3.476-.01-2.128-.14-2.7-.613-2.7-.472 0-.6-.556-.6-2.6s-.128-2.6-.6-2.6c-.471 0-.6-.553-.6-2.576 0-1.417-.18-2.688-.4-2.824-.22-.136-.4-.944-.4-1.795s-.27-1.818-.6-2.148c-.337-.337-.6-1.314-.6-2.228 0-1.181-.165-1.629-.6-1.629-.433 0-.6-.444-.6-1.6 0-.88-.18-1.6-.4-1.6-.22 0-.4-.72-.4-1.6 0-1.156-.167-1.6-.6-1.6-.433 0-.6-.444-.6-1.6 0-1.156-.167-1.6-.6-1.6-.444 0-.6-.467-.6-1.8s-.156-1.8-.6-1.8c-.419 0-.6-.422-.6-1.4 0-.77-.18-1.4-.4-1.4-.22 0-.4-.54-.4-1.2 0-.8-.2-1.2-.6-1.2-.394 0-.6-.395-.6-1.151 0-.633-.27-1.375-.6-1.649-.33-.274-.6-1.016-.6-1.649s-.18-1.151-.4-1.151c-.22 0-.4-.366-.4-.813 0-.446-.27-.916-.6-1.042-.342-.132-.6-.728-.6-1.388 0-.762-.205-1.157-.6-1.157-.373 0-.6-.378-.6-1s-.227-1-.6-1c-.4 0-.6-.4-.6-1.2 0-.66-.18-1.2-.4-1.2-.22 0-.4-.45-.4-1 0-.622-.227-1-.6-1s-.6-.378-.6-1-.227-1-.6-1c-.363 0-.6-.371-.6-.942 0-.517-.45-1.427-1-2.02-.55-.594-1-1.43-1-1.859 0-.428-.27-.779-.6-.779-.373 0-.6-.378-.6-1s-.227-1-.6-1c-.33 0-.6-.27-.6-.6 0-.33-.18-.6-.4-.6-.22 0-.4-.441-.4-.98 0-.539-.225-1.124-.5-1.3-.502-.321-1.266-1.401-1.782-2.52-.152-.33-.691-1.048-1.197-1.596-.507-.548-.921-1.313-.921-1.7s-.27-.704-.6-.704c-.33 0-.6-.27-.6-.6 0-.33-.27-.6-.6-.6-.373 0-.6-.378-.6-1 0-.55-.18-1-.4-1-.22 0-.4-.27-.4-.6 0-.33-.178-.6-.395-.6-.782 0-2.005-1.396-2.005-2.289 0-.543-.242-.911-.6-.911-.33 0-.6-.193-.6-.429 0-.533-1.01-1.571-1.528-1.571-.212 0-.498-.45-.636-1s-.428-1-.644-1c-.215 0-.392-.27-.392-.6 0-.33-.18-.6-.4-.6-.22 0-.4-.27-.4-.6 0-.33-.27-.6-.6-.6-.33 0-.6-.27-.6-.6 0-.33-.27-.6-.6-.6-.33 0-.6-.27-.6-.6 0-.33-.193-.6-.429-.6-.553 0-1.571-1.018-1.571-1.571 0-.236-.227-.429-.505-.429-.48 0-1.145-.964-1.724-2.5-.145-.385-.513-.7-.818-.7-.304 0-.553-.194-.553-.431 0-.56-2.209-2.769-2.769-2.769a.432.432 0 0 1-.431-.431c0-.56-2.209-2.769-2.769-2.769-.237 0-.431-.227-.431-.505 0-.48-.964-1.145-2.5-1.724-.385-.145-.7-.513-.7-.818 0-.304-.193-.553-.429-.553-.553 0-1.571-1.018-1.571-1.571 0-.236-.27-.429-.6-.429-.33 0-.6-.27-.6-.6 0-.33-.189-.6-.419-.6-.231 0-.836-.45-1.346-1-.51-.55-1.311-1-1.781-1-.492 0-.854-.254-.854-.6 0-.33-.27-.6-.6-.6-.33 0-.6-.193-.6-.429 0-.533-1.01-1.571-1.529-1.571-.212 0-.489-.27-.616-.6-.126-.33-.596-.6-1.042-.6-.456 0-.813-.264-.813-.6 0-.33-.189-.6-.419-.6-.231 0-.836-.45-1.346-1-.51-.55-1.311-1-1.781-1-.492 0-.854-.254-.854-.6 0-.33-.251-.6-.557-.6-.307 0-.661-.27-.788-.6-.126-.33-.596-.6-1.042-.6-.447 0-.813-.18-.813-.4 0-.22-.27-.4-.6-.4-.33 0-.6-.27-.6-.6 0-.377-.381-.6-1.026-.6-.649 0-1.397-.441-2.035-1.2-.556-.66-1.354-1.2-1.775-1.2-.42 0-.764-.159-.764-.353 0-.195-.315-.473-.7-.618-1.536-.579-2.5-1.244-2.5-1.724 0-.278-.45-.505-1-.505s-1-.18-1-.4c0-.22-.347-.4-.771-.4-.425 0-1.017-.225-1.317-.5-.797-.73-2.011-1.489-2.812-1.758-.385-.13-.7-.38-.7-.557 0-.177-.54-.44-1.2-.585-.66-.145-1.2-.429-1.2-.632 0-.202-.431-.368-.957-.368-.527 0-1.061-.27-1.188-.6-.126-.33-.608-.6-1.071-.6-.463 0-1.111-.27-1.441-.6-.33-.33-.96-.6-1.4-.6-.44 0-1.07-.27-1.4-.6-.33-.33-.947-.6-1.372-.6-.424 0-.771-.18-.771-.4 0-.22-.431-.4-.957-.4-.527 0-1.061-.27-1.188-.6-.142-.372-.751-.6-1.6-.6-.848 0-1.457-.228-1.6-.6-.126-.33-.686-.6-1.242-.6-.557 0-1.013-.18-1.013-.4 0-.22-.72-.4-1.6-.4-1.156 0-1.6-.167-1.6-.6 0-.433-.444-.6-1.6-.6-1.156 0-1.6-.167-1.6-.6 0-.431-.44-.6-1.557-.6-1.015 0-1.638-.209-1.788-.6-.143-.374-.753-.6-1.619-.6-.764 0-1.5-.18-1.636-.4-.136-.22-1.137-.4-2.224-.4-1.49 0-1.976-.148-1.976-.6 0-.435-.448-.6-1.629-.6-.914 0-1.891-.263-2.228-.6-.386-.386-1.375-.6-2.772-.6-1.194 0-2.171-.18-2.171-.4 0-.22-1.003-.4-2.229-.4-1.447 0-2.438-.21-2.828-.6-.41-.409-1.421-.6-3.184-.6-1.928 0-2.643-.152-2.814-.6-.184-.478-1.042-.6-4.216-.6-3.01 0-4.133-.147-4.586-.6-.904-.904-39.782-.904-40.686 0-.454.454-1.582.6-4.641.6-3.223 0-4.088.121-4.271.6-.174.452-.901.6-2.939.6-1.919 0-2.853.175-3.206.6-.33.397-1.225.6-2.649.6-1.183 0-2.151.18-2.151.4 0 .226-1.143.4-2.629.4-2.562 0-3.771-.504-3.771-1.571 0-.236-.27-.429-.6-.429-.33 0-.6-.27-.6-.6 0-.33-.27-.6-.6-.6-.33 0-.6-.289-.6-.643 0-.407-.22-.558-.6-.412-.365.14-.6 0-.6-.358 0-.323-.18-.587-.4-.587-.22 0-.4-.27-.4-.6 0-.33-.27-.6-.6-.6-.33 0-.6-.27-.6-.6 0-.33-.27-.6-.6-.6-.33 0-.6-.18-.6-.4 0-.22-.27-.4-.6-.4-.33 0-.6-.178-.6-.395 0-.782-1.396-2.005-2.289-2.005-.501 0-.911-.193-.911-.429 0-.533-1.01-1.571-1.529-1.571-.212 0-.489-.27-.616-.6-.126-.33-.686-.6-1.242-.6-.557 0-1.013-.205-1.013-.456 0-.672-1.268-1.517-2.3-1.531-.528-.008-.9-.261-.9-.613 0-.373-.378-.6-1-.6s-1-.227-1-.6c0-.4-.4-.6-1.2-.6-.8 0-1.2-.2-1.2-.6 0-.373-.378-.6-1-.6-.55 0-1-.18-1-.4 0-.22-.431-.4-.957-.4-.527 0-1.061-.27-1.188-.6-.126-.33-.666-.6-1.2-.6-.533 0-1.073-.27-1.2-.6-.144-.377-.756-.6-1.642-.6-.777 0-1.413-.18-1.413-.4 0-.22-.72-.4-1.6-.4-1.156 0-1.6-.167-1.6-.6 0-.461-.511-.6-2.2-.6s-2.2-.139-2.2-.6c0-.476-.578-.6-2.8-.6S108 1.476 108 1c0-.906-26.597-.906-26.945 0m-16.93 22.099c1.265.651 4.675 4.811 4.675 5.702 0 .22.135.4.3.4.165.001 1.2 1.125 2.3 2.498 3.828 4.778 4.599 5.251 6.035 3.701.51-.55 1.115-1 1.346-1 .23 0 .419-.166.419-.368 0-.203.538-.487 1.195-.631.658-.144 1.299-.429 1.424-.632.126-.203 2.011-.369 4.191-.369 4.033 0 5.515.383 8.044 2.081 1.036.696 1.099.684 3.729-.687 2.724-1.42 10.12-2.122 10.798-1.025.125.203.766.488 1.424.632.657.144 1.195.428 1.195.631 0 .202.236.368.525.368.289 0 1.04.537 1.668 1.193l1.143 1.193 1.432-1.553c3.043-3.298 3.883-4.28 4.822-5.633.534-.77 1.08-1.49 1.212-1.6.132-.11.653-.879 1.157-1.709 2.621-4.312 7.876-4.957 10.295-1.264 1.023 1.56.28 10.624-1.07 13.068-.211.382-.384 1.112-.384 1.623 0 .511-.264 1.278-.587 1.706-.323.427-.593 1.166-.6 1.644-.013.846-.263 1.449-1.967 4.732-.456.88-1.031 2.095-1.277 2.7s-.61 1.1-.808 1.1c-.199 0-.361.213-.361.474 0 .508-2.972 4.222-3.989 4.985-2.733 2.052-3.102 3.126-1.216 3.54.658.144 1.299.429 1.424.632.126.203.595.369 1.043.369.448 0 1.292.251 1.876.558.584.307 2.142.891 3.462 1.298 1.32.408 2.49.849 2.6.981.11.132.695.361 1.3.509.605.148 1.1.446 1.1.662 0 .215.261.392.58.392 1.159 0 3.82 4.552 3.82 6.535 0 5.542-7.836 10.633-11.776 7.652-2.027-1.533-2.733-.85-2.395 2.313.171 1.595.3 6.851.287 11.68-.024 8.585-.003 8.814.93 10.292.525.832.96 1.741.967 2.02.007.279.277.857.6 1.284.323.428.587 1.337.587 2.02 0 .684.198 1.442.439 1.683.723.723-.239 8.081-1.179 9.021-.253.253-.46.708-.46 1.01 0 2.191-7.092 8.908-11.892 11.264a310.701 310.701 0 0 0-3.77 1.877c-.584.302-1.493.549-2.02.549-.527 0-1.15.192-1.385.427-1.12 1.12-18.086 2.18-19.074 1.192-.231-.231-1.148-.42-2.039-.421-.891-.002-2.136-.272-2.766-.6-.63-.329-1.502-.598-1.938-.598-.436 0-1.27-.254-1.854-.564A44.517 44.517 0 0 0 77 133.384c-12.675-5.451-18.586-19.707-11.951-28.826.875-1.203.908-1.588 1.068-12.2.091-6.027.3-11.438.465-12.025.324-1.158-1.098-1.156-3.265.004C58.879 82.713 52 78.054 52 72.674c0-2.881 3.58-7.874 5.646-7.874.389 0 .818-.18.954-.4.136-.22.552-.401.924-.402.372-.002 1.192-.272 1.822-.6.63-.329 1.53-.604 2-.611.47-.007 1.203-.277 1.63-.6.428-.323 1.182-.587 1.677-.587.495 0 1.002-.166 1.128-.369.125-.203.766-.488 1.424-.632 1.767-.388 1.493-1.148-1.505-4.168-3.178-3.201-3.432-3.511-4.515-5.508-.455-.838-.977-1.793-1.162-2.123-1.152-2.061-3.224-7.624-3.502-9.4-.104-.66-.443-1.767-.755-2.46-.311-.694-.566-1.873-.566-2.62 0-.748-.197-1.557-.437-1.797-.752-.752-.672-6.269.101-7.044.366-.365.726-.807.8-.982.729-1.702 4.348-2.486 6.461-1.398m-3.335 4.713c-.392.472-.403.841-.049 1.619.253.554.459 1.606.459 2.339 0 .733.27 1.979.6 2.768.33.79.6 1.971.6 2.626 0 .654.16 1.287.355 1.408.195.121.477.873.627 1.673.277 1.476.393 1.774 1.561 4.017.361.694.657 1.456.657 1.694 0 .471 2.3 4.363 3.013 5.1a48.84 48.84 0 0 1 1.531 1.75c.599.712 1.147 1.227 1.219 1.144.9-1.043 1.942-5.537 2.104-9.086l.19-4.136-2.328-2.474C68.372 35.113 66 32.391 66 32.139c0-.108-.225-.431-.5-.719-.275-.287-.77-.925-1.1-1.417-1.971-2.941-2.647-3.351-3.61-2.191m66.482.391c-.48.552-.872 1.104-.872 1.227 0 .273-1.987 3.015-2.587 3.57-.237.22-.846.94-1.352 1.6-.507.66-2.009 2.341-3.338 3.736l-2.418 2.536.283 2.064c.155 1.135.356 3.31.447 4.834.09 1.523.435 3.182.765 3.686s.6 1.282.6 1.73c0 1.404.41 1.091 3.383-2.586.712-.88 1.874-2.86 2.583-4.4.709-1.54 1.457-3.113 1.661-3.495.205-.382.373-1.112.373-1.623 0-.511.264-1.278.587-1.706.323-.427.593-1.283.6-1.902.007-.62.229-1.52.493-2 .264-.481.616-1.774.782-2.874.166-1.1.423-2.605.572-3.344.43-2.142-1.076-2.761-2.562-1.053M84.2 36.8c-.136.22-.665.4-1.175.4-1.242 0-4.072 2.792-4.415 4.356-.149.679-.438 1.338-.641 1.463-.678.419-.429 6.003.331 7.432 2.401 4.513 8.426 5.484 9.422 1.518.658-2.623 3.099-2.436 4.472.343 1.402 2.841 4.631 2.843 6.006.005 1.459-3.012 3.298-2.979 4.723.086 1.611 3.466 6.899 2.485 9.072-1.683 1.006-1.93 1.126-7.261.192-8.496-.323-.428-.587-1.108-.587-1.513 0-.405-.27-.84-.6-.966-.33-.127-.6-.481-.6-.788a.556.556 0 0 0-.551-.557c-.303 0-.775-.27-1.049-.6-.274-.33-.915-.6-1.425-.6s-1.039-.18-1.175-.4c-.311-.503-4.073-.529-4.381-.031-.125.203-.766.488-1.424.632-.657.144-1.195.428-1.195.631 0 .202-.188.368-.417.368-.23 0-.903.45-1.496 1-1.474 1.366-2.661 1.256-4.623-.428-.915-.785-2.163-1.528-2.772-1.651-.61-.124-1.206-.381-1.324-.573-.299-.483-4.065-.439-4.368.052M113 56.631c-.88.746-1.9 1.36-2.267 1.363-.366.003-.741.231-.833.506-.114.343-1.149.5-3.3.5s-3.186-.157-3.3-.5c-.092-.275-.49-.5-.884-.5-.395 0-.946-.275-1.224-.61-.418-.503-.619-.52-1.149-.096C98.53 58.505 96.765 59.2 95.2 59.2s-3.33-.695-4.843-1.906c-.53-.424-.731-.407-1.149.096-.278.335-.829.61-1.224.61-.394 0-.78.189-.857.419-.26.781-4.511.947-5.944.232-.718-.358-1.508-.651-1.755-.651-.247 0-1.041-.54-1.764-1.2-1.975-1.804-2.064-1.648-3.277 5.721-.21 1.277-.563 2.66-.784 3.074-.222.414-.405 1.439-.407 2.279-.003.839-.273 2.41-.6 3.49-.328 1.08-.596 2.747-.596 3.705 0 .958-.176 2.054-.391 2.436-.555.986-1.287 8.495-1.483 15.216l-.168 5.721 1.121-.626c1.67-.933 2.697-1.587 2.921-1.86.382-.464 5.659-2.756 6.348-2.756.381 0 .899-.207 1.152-.46.254-.254 1.235-.606 2.18-.784.946-.177 2.8-.526 4.12-.776 3.095-.584 16.433-.307 17.095.355.256.256 1.025.465 1.709.465.683 0 1.592.264 2.02.587.427.323 1.122.593 1.544.6.882.015 5.965 2.394 6.165 2.886.074.18.311.327.527.327.216 0 .983.45 1.704 1 .722.55 1.43 1 1.574 1 .437 0 .293-11.866-.158-13.053-.231-.608-.579-2.825-.774-4.926-.194-2.102-.64-5.351-.991-7.221s-.786-4.486-.966-5.813c-.18-1.327-.535-2.8-.788-3.274-.254-.473-.461-1.646-.461-2.607 0-.96-.169-1.917-.376-2.126-.207-.209-.522-1.218-.7-2.243l-.324-1.863-1.6 1.357m-46.2 9.602c-.55.306-1.304.558-1.676.561-.372.003-.788.186-.924.406-.136.22-.652.4-1.147.4s-1.249.264-1.677.587c-.427.323-1.138.593-1.58.6-2.599.041-4.07 4.539-2.121 6.488 1.056 1.056 3.859 1.154 5.965.21.748-.336 1.81-.709 2.36-.831 1.128-.249 1.761-1.8 2.228-5.466.154-1.204.441-2.503.64-2.888.447-.868-.564-.901-2.068-.067m54.4-.257c0 .207.18.488.4.624.22.136.4 1.026.4 1.978 0 2.869 1.14 5.797 2.363 6.068.571.126 1.639.499 2.375.828 2.289 1.025 4.833.84 5.927-.432 1.568-1.823 1.167-4.613-.8-5.568-2.479-1.204-4.195-1.874-4.802-1.874-.339 0-.727-.18-.863-.4-.136-.22-.652-.4-1.147-.4s-1.249-.264-1.677-.587c-.877-.664-2.176-.805-2.176-.237m-35.263 7.06c.145.2.616.559 1.048.798 1.569.868 2.762 3.682 2.033 4.794-.954 1.456-2.97 1.342-4.018-.228-1.075-1.61-2.566-1.61-3.8 0-1.367 1.783-4.4 1.29-4.4-.715 0-3.314 7.385-7.072 9.137-4.649m24.461.26c2.007 1.155 3.395 3.745 2.818 5.261-.561 1.477-2.831 1.49-3.793.021-1.077-1.643-3.823-1.969-3.823-.453 0 1.598-3.187 1.993-3.989.495-.772-1.442.852-5.02 2.278-5.02.281 0 .511-.167.511-.371 0-1.075 4.092-1.03 5.998.067M89.6 95.421c-.99.312-2.52.575-3.4.586-.88.01-1.949.283-2.376.606-.428.323-1.283.587-1.9.587-.618 0-1.124.166-1.124.368 0 .203-.538.487-1.195.631-.658.144-1.299.429-1.424.632-.126.203-.558.369-.962.369-.403 0-.837.27-.964.6-.126.33-.494.6-.817.6-.759 0-6.079 5.169-6.621 6.433a20.124 20.124 0 0 1-.754 1.567c-1.09 1.93-1.263 2.671-1.263 5.4 0 1.656.159 3.323.352 3.705.194.382.751 1.559 1.238 2.615 1.373 2.975 6.392 7.637 9.61 8.925 2.115.848 3.49 1.443 4.095 1.774.382.21 1.197.381 1.811.381.614 0 1.538.296 2.054.657 1.389.973 17.1.967 18.49-.007.511-.358 1.608-.65 2.439-.65s1.511-.143 1.511-.317c0-.175.993-.655 2.207-1.067 1.214-.413 2.406-.99 2.649-1.283.243-.293.614-.533.823-.533 1.656 0 7.956-6.607 8.547-8.962.145-.575.423-1.144.618-1.265.989-.611.379-7.216-.888-9.617-1.293-2.45-6.307-7.756-7.33-7.756-.318 0-.69-.18-.827-.401-.276-.447-3.519-1.999-4.177-1.999a.413.413 0 0 1-.422-.4c0-.22-.506-.4-1.124-.4-.617 0-1.472-.264-1.9-.587-.427-.323-1.406-.595-2.176-.605-.77-.01-2.39-.283-3.6-.608-2.758-.74-8.821-.729-11.2.021m-3.487 7.746c4.865 1.85 5.058 8.259.305 10.096-1.102.426-4.018.064-4.018-.498 0-.201-.225-.371-.5-.378-1.972-.049-2.697-5.343-1-7.301 1.647-1.901 3.483-2.577 5.213-1.919m22.371.893c2.223 1.583 2.911 3.916 1.824 6.181-2.571 5.355-9.518 3.88-9.501-2.017.013-4.479 4.112-6.702 7.677-4.164m130.483 2.183c.529.203.633 1.041.633 5.118v4.876l2.807.482c1.545.264 3.683.481 4.752.481s2.59.27 3.379.6c.79.33 2.061.6 2.826.6.764 0 1.5.18 1.636.4.136.22.642.399 1.124.398.908-.002 3.924.897 6.165 1.838 1.709.717 1.757 1.022 1.624 10.364l-.113 8-1.25.122c-.739.072-1.504-.133-1.871-.5-.342-.342-.95-.628-1.35-.635-.401-.007-1.078-.277-1.505-.6-.428-.323-1.182-.587-1.677-.587-.495 0-.998-.16-1.119-.355-.121-.195-.873-.477-1.673-.627-.799-.15-1.746-.419-2.104-.598-1.084-.543-4.111-1.276-6.651-1.611-1.32-.175-3.07-.451-3.89-.614l-1.49-.296-.11 14.268-.11 14.268 1 .216c.55.119 1.27.315 1.6.436.33.121 1.32.364 2.2.54 3.736.748 5.643 1.229 6.295 1.589.382.211 1.022.384 1.423.384s1.078.264 1.506.587c.427.323 1.108.593 1.514.6.647.011 1.616.427 3.862 1.655.33.18 1.365.727 2.3 1.214.935.487 1.7 1.034 1.7 1.215 0 .181.225.33.5.331 2.108.011 7.12 6.748 9.522 12.798.891 2.246 1.005 15.14.154 17.54-1.581 4.464-4.603 9.446-7.192 11.86-2.128 1.984-3.408 3-3.781 3-.221 0-.403.139-.403.309 0 .17-.675.663-1.5 1.096-.825.433-1.644 1.014-1.82 1.291-.176.277-.626.51-1 .517-.374.007-1.029.277-1.456.6-.428.323-1.103.587-1.5.587-.398 0-.724.18-.724.4 0 .22-.288.4-.64.4-.351 0-1.206.245-1.9.544-2.006.866-5.635 1.856-6.801 1.856-.59 0-1.789.224-2.665.497l-1.594.498-.006 4.802c-.008 6.453.558 6.003-7.546 6.003-8.089 0-7.434.5-7.509-5.733l-.061-5.067-1.739-.32c-.956-.176-2.819-.468-4.139-.65-3.202-.439-10.635-2.237-11.895-2.877-.382-.194-1.022-.353-1.423-.353s-1.078-.264-1.506-.587c-.427-.323-1.166-.593-1.644-.6-.477-.007-1.377-.267-2-.578-2.806-1.399-5.574-2.635-5.9-2.635-.196 0-.962-.462-1.702-1.026l-1.345-1.026.108-9.074c.127-10.753-.188-10.312 5.336-7.493 1.96 1 3.791 1.819 4.067 1.819.277 0 .504.18.504.4 0 .22.287.4.638.4.351 0 1.116.239 1.7.531.584.291 1.662.831 2.394 1.2.733.368 1.568.669 1.855.669.287 0 1.037.269 1.667.598.63.328 1.45.598 1.822.6.372.001.788.182.924.402.136.22.642.401 1.124.402.482.002 1.392.272 2.022.6.63.329 1.53.601 2 .604.47.003 1.574.25 2.454.548.88.298 2.361.638 3.29.755l1.69.212.11-14.008c.123-15.697.231-15.113-2.792-15.113-.728 0-1.97-.27-2.76-.6-.789-.33-1.933-.6-2.541-.6-.608 0-1.621-.269-2.251-.598-.63-.328-1.463-.598-1.851-.6-.388-.001-1.018-.173-1.4-.383-.382-.209-1.415-.678-2.295-1.043-2.196-.909-4.359-1.935-4.6-2.18-.11-.112-1.01-.724-2-1.36-2.171-1.395-7.2-6.471-7.2-7.267 0-.313-.135-.571-.3-.574-.165-.002-.636-.767-1.046-1.7a57.502 57.502 0 0 0-1.3-2.757c-.305-.584-.554-1.493-.554-2.02 0-.527-.225-1.183-.5-1.458-.708-.708-.709-13.811 0-14.52.275-.275.5-.982.5-1.571s.27-1.295.6-1.569c.33-.274.6-.733.6-1.02 0-2.326 8.703-12.18 10.758-12.18.243 0 .442-.168.442-.373s.405-.499.9-.654c.495-.154.99-.392 1.1-.527.11-.135.92-.582 1.8-.992.88-.411 2.078-.996 2.662-1.3.584-.305 1.428-.554 1.876-.554.448 0 .913-.159 1.033-.354.121-.194 1.027-.475 2.015-.623.987-.148 1.9-.439 2.028-.646.128-.207 1.078-.387 2.11-.4 1.032-.012 2.503-.237 3.27-.5l1.393-.477-.129-4.66c-.117-4.183-.054-4.704.606-5.088.782-.454 12.793-.635 13.903-.209M84.32 108.48c.373.373.587.373.96 0s.267-.48-.48-.48-.853.107-.48.48m20.48-.08c0 .22.259.4.576.4.317 0 .688-.18.824-.4.136-.22-.123-.4-.576-.4-.453 0-.824.18-.824.4m118 25.2c-.33.213-1.187.391-1.905.394-.718.003-1.618.175-2 .381-.382.206-1.582.791-2.667 1.3-2.725 1.279-6.228 4.798-6.228 6.258 0 .451-.18.931-.4 1.067-1.915 1.184 1.188 12.149 3.451 12.191.248.005.649.247.891.539.963 1.161 6.641 3.497 9.158 3.768l1.7.183V146.44c0-14.255.017-14.144-2-12.84m-55.293 27.761c.109 10.615-.052 11.839-1.563 11.839-.361 0-4.418 2.402-4.744 2.809-.11.137-.47.37-.8.518-.748.334-2.02 1.145-2.624 1.673-.252.22-1.327 1.12-2.39 2a56.585 56.585 0 0 0-9.976 10.685c-.995 1.383-1.989 2.732-2.209 2.998-.221.266-.401.649-.401.851 0 .202-.27.592-.6.866-.33.274-.6.814-.6 1.2s-.27.926-.6 1.2c-.33.274-.6.836-.6 1.249 0 .413-.18.751-.4.751-.22 0-.4.347-.4.771 0 .425-.27 1.042-.6 1.372-.33.33-.6 1.027-.6 1.548 0 .522-.194 1.143-.431 1.38-.448.448-.936 2.108-1.627 5.529-.222 1.1-.57 2.171-.773 2.38-.203.209-.369 1.059-.369 1.888s-.286 3.434-.636 5.787c-.581 3.915-.581 4.658.003 8.713.351 2.437.637 5.186.636 6.108-.002.922.161 1.778.362 1.902.201.125.481.99.623 1.924.141.934.4 2.058.575 2.498.8 2.016 1.344 3.688 1.526 4.687.109.598.448 1.295.755 1.549.306.254.556.662.556.906 0 1.127 5.228 10.204 6.1 10.591.165.074.3.299.3.5 0 .202.315.696.7 1.098 1.16 1.212 2.5 2.862 2.5 3.078 0 .269 4.478 4.465 5.915 5.542a28.927 28.927 0 0 1 2.109 1.776c.537.509 1.606 1.31 2.376 1.778.77.469 1.49.965 1.6 1.103.11.138.47.366.8.508.33.142 1.5.802 2.6 1.466 1.1.664 2.27 1.317 2.6 1.451.734.299 3.176 1.379 4.013 1.775.337.16 1.192.417 1.9.573.708.155 1.287.429 1.287.609 0 .179.675.411 1.5.514.825.103 2.04.378 2.7.61 3.16 1.11 5.795 1.432 13 1.592 5.221.116 8.594.011 10.2-.315 1.32-.269 3.03-.571 3.8-.671.77-.1 1.967-.438 2.66-.751.694-.313 1.618-.569 2.055-.569.436 0 1.309-.269 1.939-.598.63-.328 1.45-.598 1.822-.6.372-.001.788-.182.924-.402.136-.22.584-.4.995-.4.411 0 1.018-.27 1.348-.6.33-.33.767-.6.972-.6.559 0 4.906-2.355 6.358-3.445.701-.525 1.397-.955 1.548-.955.15 0 .927-.546 1.726-1.214 2.159-1.804 2.4-1.986 2.626-1.986.476 0 6.997-6.8 8.822-9.2 1.088-1.43 2.119-2.66 2.292-2.733.172-.074.313-.47.313-.88 0-.411.233-.891.518-1.067.285-.176 1.036-1.359 1.67-2.629 1.642-3.291.906-3.117 12.661-2.998L267.4 251l.136.96c.074.528-.08 1.428-.342 2-.585 1.273-1.434 3.231-1.753 4.04-.13.33-.397.87-.594 1.2-.198.33-.694 1.32-1.103 2.2-.409.88-.847 1.69-.973 1.8-.126.11-.346.517-.489.905-.278.751-4.663 7.559-5.086 7.895-.139.11-1.013 1.239-1.943 2.508-2.949 4.027-13.171 13.892-14.394 13.892-.253 0-.459.165-.459.367 0 .202-.675.78-1.5 1.283-.825.504-1.56 1.059-1.633 1.233-.074.174-.389.317-.7.317-.312 0-.567.177-.567.392 0 .216-.45.506-1 .644s-1 .386-1 .552c0 .275-8.869 4.786-11.2 5.696-.55.214-1.51.643-2.132.953-.623.31-1.532.563-2.02.563-.489 0-1.059.17-1.268.377-.394.391-2.794 1.067-5.595 1.577-.888.161-1.858.444-2.156.628-.299.185-1.822.486-3.386.669-1.564.183-3.743.506-4.843.717-2.602.5-13.825.496-16.4-.005-1.1-.214-3.26-.525-4.8-.692-1.54-.166-3.193-.52-3.674-.787-.48-.266-1.346-.484-1.925-.484-1.105 0-4.713-.997-5.896-1.629-.382-.204-1.022-.371-1.423-.371s-1.078-.264-1.506-.587c-.427-.323-1.063-.593-1.415-.6-.736-.015-2.098-.618-6.561-2.904a243.31 243.31 0 0 0-4.5-2.258c-.715-.34-1.3-.76-1.3-.934 0-.175-.199-.317-.442-.317-.244 0-1.125-.54-1.958-1.2-.833-.66-1.688-1.2-1.899-1.2-.211 0-.876-.456-1.477-1.013-.601-.557-2.022-1.702-3.158-2.544-2.563-1.901-8.824-8.029-10.67-10.443-.756-.99-1.475-1.89-1.596-2-.687-.623-2.8-3.577-2.8-3.915 0-.22-.27-.503-.6-.63-.33-.126-.6-.506-.6-.842 0-.337-.18-.613-.4-.613-.22 0-.4-.171-.4-.38s-.507-1.154-1.127-2.1c-.62-.946-1.912-3.34-2.871-5.32-2.2-4.542-2.719-5.799-5.199-12.6-.281-.77-.597-2.12-.702-3-.105-.88-.351-1.798-.546-2.041-.195-.242-.47-1.592-.61-3-.14-1.407-.41-2.758-.6-3-.551-.704-.848-15.561-.395-19.759.597-5.536 1.25-9.346 1.677-9.78.205-.209.379-1.019.387-1.8.008-.781.272-1.87.586-2.42.314-.55.578-1.407.586-1.905.008-.498.182-1.218.388-1.6.941-1.747 1.626-3.477 1.626-4.107 0-.38.27-.914.6-1.188.33-.274.6-.89.6-1.369s.154-1.042.342-1.251c.188-.209 1.192-1.985 2.23-3.946s2.324-4.138 2.858-4.838c.533-.699.97-1.389.97-1.533 0-.401 3.623-5.245 4.036-5.396.2-.074.364-.279.364-.456 0-.78 7.243-8.35 10.553-11.03 1.073-.87 2.513-2.074 3.2-2.677.686-.603 1.562-1.2 1.947-1.327s.7-.37.7-.541c0-.17.675-.653 1.5-1.073.825-.42 1.59-.871 1.7-1.003.357-.43 3.713-2.276 7.6-4.18 2.09-1.025 4.25-2.114 4.8-2.421.55-.307 1.72-.514 2.6-.459l1.6.1.107 10.361M239.19 179.9c-.104 3.001.082 26.292.211 26.502.228.368 4.267-.336 4.779-.833.209-.203.689-.369 1.068-.369.674 0 2.823-1.011 3.823-1.8.279-.22 1.217-.94 2.084-1.6.868-.66 1.681-1.47 1.807-1.8.127-.33.682-1.393 1.234-2.363 2.968-5.212.199-11.896-6.158-14.862-1.451-.676-2.951-1.398-3.333-1.602-.382-.205-1.035-.373-1.451-.373-.416 0-1.403-.27-2.192-.6-1.635-.683-1.858-.719-1.872-.3" fill="#fbfbfb"/>
    <path d="M59.8 23.988c-2.583 1.302-3.526 3.677-2.615 6.584.212.675.686 2.668 1.054 4.428 1.998 9.554 5.804 17.187 10.913 21.883 2.852 2.622 2.488 4.141-1.231 5.135-.947.253-1.901.598-2.121.767-.22.169-.85.405-1.4.524-7.39 1.603-11.201 4.751-11.199 9.251.004 6.503 6.211 9.366 12.735 5.874 1.603-.857 1.817.275 1.108 5.862-.752 5.933-.83 11.971-.202 15.579.438 2.514.429 2.563-.914 4.832-5.373 9.077-3.014 18.049 6.616 25.162 1.289.952 2.594 1.731 2.9 1.731.306 0 .556.141.556.312 0 .412 2.292 1.288 8.652 3.308 3.932 1.248 15.385 1.454 19.548.351.88-.233 2.23-.578 3-.766 8.058-1.968 18.8-10.256 18.8-14.506 0-.296.221-.76.49-1.029 1.831-1.831.46-11.519-2.087-14.757-.814-1.035-.84-1.358-.596-7.497.23-5.775-.007-10.385-.862-16.77l-.261-1.954 1.158.218c.637.121 2.281.543 3.654.938 6.007 1.732 10.556-2.421 9.5-8.671-.369-2.187-3.065-5.004-5.165-5.398-.792-.148-1.538-.429-1.659-.624s-.496-.355-.835-.355c-.339 0-1.183-.252-1.877-.56-.693-.308-1.62-.653-2.06-.766-2.135-.55-5.253-1.945-5.7-2.55-.953-1.291-.779-1.612 2.35-4.324 4.046-3.507 7.673-10.724 9.949-19.8 2.313-9.221 2.064-11.015-1.751-12.606-2.157-.901-6.248.986-6.248 2.881 0 .289-.139.525-.309.525-.17 0-.628.585-1.019 1.3-.666 1.221-1.858 2.616-6.148 7.2-1.927 2.058-2.198 2.073-4.137.224-3.874-3.694-10.118-4.04-15.279-.847-1.607.994-2.516 1.158-2.907.524-2.299-3.72-12.647-3.29-16.482.686-1.96 2.032-5.354-1.085-12.219-11.226-.494-.731-1.505-1.254-3.218-1.667-.488-.118-1.596.147-2.482.594m2.917 2.639c.492.345 1.768 1.92 2.836 3.5 1.068 1.58 3.54 4.571 5.494 6.646 2.465 2.618 3.519 4.026 3.443 4.6-.061.455-.205 2.357-.32 4.227-.233 3.755-1.581 8.753-2.452 9.087-1.429.548-4.423-3.552-8.097-11.087-.275-.565-1.058-3.106-2.219-7.2-.281-.99-.831-3.287-1.222-5.104l-.713-3.303.936-.997c1.103-1.174 1.154-1.182 2.314-.369m67.25.228c.773.72.879 1.115.67 2.5-.726 4.828-2.623 11.591-4.329 15.432-.437.983-.954 2.153-1.15 2.6-.811 1.851-4.298 6.416-5.597 7.325-.791.554-2.327-1.753-2.352-3.532-.005-.341-.166-.791-.358-1-.192-.209-.455-2.495-.585-5.081l-.237-4.701 2.307-2.499c1.269-1.374 2.72-2.949 3.225-3.499C123.2 32.614 126 28.871 126 28.466c0-.429 2.276-2.466 2.755-2.466.162 0 .707.385 1.212.855M88.87 36.013c.809.224 2.566 1.14 3.905 2.034l2.434 1.625 2.095-1.351c3.461-2.231 4.276-2.523 6.922-2.485 6.144.089 9.15 3.553 9.165 10.564.02 8.652-9.216 13.05-11.55 5.5-.339-1.097-2.641-.964-2.641.153 0 1.25-2.6 3.547-4.015 3.547-1.378 0-3.985-2.382-3.985-3.64 0-1.423-2.064-.843-2.836.797-3.044 6.472-11.407 1.771-11.311-6.357.093-7.815 5.132-12.244 11.817-10.387m27.073 21.263c.285 1.388.795 3.874 1.132 5.524.338 1.65.864 4.092 1.169 5.426.306 1.334.556 2.816.556 3.294 0 .478.175 1.636.389 2.574 1.475 6.464 2.463 24.018 1.411 25.061-.265.263-1.277-.196-3-1.361-3.77-2.549-8.338-4.364-14.506-5.762-1.048-.238-4.6-.432-7.894-.432-3.294 0-6.846.194-7.894.432-6.158 1.396-10.732 3.211-14.497 5.753-1.426.962-2.704 1.68-2.842 1.595-.78-.482-.628-12.243.243-18.78.393-2.95 1.447-9.182 1.86-11 .225-.99.563-2.7.75-3.8.188-1.1.622-3.35.965-5 .344-1.65.738-3.691.877-4.535.343-2.08 1.019-2.2 2.974-.527 3.146 2.693 6.739 3.208 10.171 1.458 1.722-.878 2.813-1.011 3.197-.39 1.248 2.02 5.807 1.969 8.557-.096.868-.651 1.051-.663 1.877-.122 3.819 2.503 7.933 2.15 11.447-.981 2.061-1.836 2.373-1.665 3.058 1.669M69.459 66.7c-.382 2.986-.955 6.343-1.23 7.21-.286.9-6.098 3.29-8.002 3.29-2.609 0-5.191-3.193-4.456-5.51.719-2.265 2.177-3.263 7.229-4.947 1.32-.44 2.76-.958 3.2-1.151.44-.193 1.16-.429 1.6-.525 1.868-.407 1.914-.361 1.659 1.633m54.639-1.079c1.376.452 2.815.992 3.197 1.2.382.209 1.022.379 1.423.379s1.078.264 1.506.587c.427.323 1.06.593 1.406.6 1.83.037 3.461 3.62 2.593 5.697-1.192 2.852-3.511 3.678-7.023 2.501-5.115-1.715-4.872-1.408-6.139-7.742-.879-4.393-.797-4.481 3.037-3.222m-43.551 8.346c-2.35 1.433-3.258 3.745-1.909 4.864.55.457.827.301 2.033-1.151 1.821-2.192 2.809-2.188 4.94.02 1.568 1.624 1.667 1.666 2.207.935 2.23-3.017-3.717-6.835-7.271-4.668m24.122.076c-1.826.963-2.938 3.108-2.264 4.366.565 1.056 1.367.998 2.121-.153 1.831-2.793 3.128-2.94 5.235-.594l1.492 1.663.83-.83c2.629-2.629-3.684-6.42-7.414-4.452m-.926 20.997c26.198 5.872 27.917 29.859 2.657 37.084-26.616 7.612-51.523-13.144-35.187-29.324 2.366-2.343 8.242-6 9.641-6 .234 0 .992-.249 1.686-.553 4.237-1.859 15.445-2.497 21.203-1.207m-20.535 9.388c-2.516 1.051-3.365 3.278-2.191 5.751 1.596 3.364 5.776 3.428 7.56.116 1.887-3.504-1.684-7.407-5.369-5.867m20.891-.157c-2.351.483-3.569 4.104-2.12 6.302 2.566 3.893 7.713 2.415 7.713-2.214 0-3.094-2.289-4.768-5.593-4.088m-18.16 3.229c.402.768-.078 2.5-.693 2.5-1.383 0-2.32-1.993-1.379-2.933.511-.512 1.708-.262 2.072.433m20.662-.032c.928 1.27-.166 2.827-1.601 2.277-.598-.23-.84-2.172-.333-2.678.479-.48 1.435-.281 1.934.401" fill="#4193ed"/>
    <path d="M59.499 23.465c-2.803 1.476-3.588 4.227-2.464 8.641 1.749 6.869 2.203 7.423.732.894-1.09-4.841-1.114-5.361-.317-6.841 1.584-2.941 6.165-3.633 7.941-1.199.337.462 1.425 2.01 2.418 3.44 4.873 7.019 8.196 9.664 9.91 7.887 1.278-1.325 2.714-2.154 4.717-2.723.97-.276 1.481-.568 1.134-.649-.941-.219-4.06 1.238-5.664 2.646-1.922 1.687-2.248 1.603-4.738-1.22-3.49-3.958-4.071-4.686-5.975-7.484-2.526-3.713-5.007-4.807-7.694-3.392m66.81.158c-.93.491-2.041 1.649-2.954 3.082-1.647 2.583-2.415 3.547-5.885 7.395-2.836 3.144-3 3.181-5.254 1.2-3.704-3.255-9.076-3.713-14.168-1.207l-2.951 1.452-1.541-.973c-.847-.534-1.778-.972-2.068-.972-.29 0-.731-.203-.979-.451-.249-.249-1.77-.507-3.38-.574l-2.929-.122 2.6.314c2.475.298 6.875 1.984 7.401 2.834.391.634 1.3.47 2.907-.524 5.161-3.193 11.405-2.847 15.279.847 1.939 1.849 2.21 1.834 4.137-.224 4.29-4.584 5.482-5.979 6.148-7.2.391-.715.849-1.3 1.019-1.3.17 0 .309-.236.309-.525 0-1.895 4.091-3.782 6.248-2.881 3.788 1.58 4.138 4.253 1.662 12.708-.241.826-.333 1.609-.202 1.739.427.428 2.292-7.766 2.292-10.073 0-3.907-4.2-6.389-7.691-4.545m-65.906 3.373-.936.997.712 3.303c.8 3.712 2.033 7.681 1.586 5.104-.133-.77-.509-2.57-.834-4-.965-4.241-.913-4.906.419-5.38.971-.346 1.241-.285 1.729.385.318.437 1.42 1.968 2.45 3.402 1.872 2.608 3.014 3.944 6.571 7.69 1.517 1.597 1.907 2.293 1.936 3.451l.036 1.452.392-1.362c.379-1.321.313-1.442-2.175-4-3.999-4.11-4.621-4.842-6.716-7.911-2.846-4.169-3.705-4.689-5.17-3.131m66.828.04c-.677.569-1.231 1.213-1.231 1.43 0 .405-2.8 4.148-4.439 5.934-.505.55-1.962 2.132-3.239 3.515-2.016 2.183-2.315 2.71-2.265 4l.057 1.485.243-1.472c.168-1.021.859-2.126 2.249-3.6 3.364-3.567 6.387-7.229 7.621-9.231 1.696-2.751 3.899-2.955 4.286-.397l.167 1.1.06-1.084c.126-2.274-1.741-3.168-3.509-1.68m2.372 5.233c-1.704 8.481-4.469 15.269-8.003 19.643-2.012 2.491-2.689 2.897-3.036 1.821A26.036 26.036 0 0 0 118 52.2c-.18-.44-.469-1.16-.641-1.6-.173-.44-.428-2.24-.569-4l-.255-3.2-.067 3.276c-.038 1.831.109 3.386.332 3.524.22.136.404.552.409.924.023 1.823 1.549 4.151 2.352 3.588 1.299-.909 4.786-5.474 5.597-7.325.196-.447.713-1.617 1.15-2.6 1.843-4.149 4.55-14.062 3.992-14.62-.126-.126-.439.82-.697 2.102m-43.698 3.614c.497.096 1.217.092 1.6-.008.382-.1-.025-.179-.905-.174-.88.004-1.193.086-.695.182M102 35.861c-1.259.415-2.674 1.157-4.721 2.477l-2.121 1.368-1.679-1.198c-2.045-1.459-4.059-2.514-4.759-2.492-.286.009.498.532 1.742 1.162 1.244.63 2.639 1.523 3.1 1.984 1.147 1.147 2.057 1.053 3.883-.398 1.876-1.491 3.745-2.327 6.155-2.752 1.655-.292 1.687-.319.4-.333-.77-.009-1.67.073-2 .182m-19.85.752c-2.504 1.099-4.974 4.469-4.936 6.736.008.468.361-.112.785-1.289 1.162-3.23 2.096-4.19 5.186-5.329.998-.368 1.455-.668 1.015-.667-.44.001-1.362.248-2.05.549m25.129.104c7.546 2.744 8.098 15.648.773 18.066-2.327.768-5.652-.729-5.652-2.544 0-2.207-2.934-1.956-3.948.337-1.482 3.349-4.933 3.359-6.454.019C90.912 50.212 88 50.041 88 52.361c0 4.385-7.763 3.02-10.017-1.761-.488-1.037-.754-1.319-.755-.8-.009 5.187 8.966 7.57 11.136 2.957.772-1.64 2.836-2.22 2.836-.797 0 1.258 2.607 3.64 3.985 3.64 1.415 0 4.015-2.297 4.015-3.547 0-1.117 2.302-1.25 2.641-.153 1.024 3.314 4.41 4.564 7.548 2.787 6.983-3.955 4.474-18.822-3.15-18.67-.474.009-.022.313 1.04.7M62.021 38.4c-.066 4.04 7.685 17.059 9.697 16.287 1.046-.402 2.337-5.429 2.181-8.494l-.142-2.793-.079 3.276c-.043 1.802-.238 3.375-.433 3.496s-.467.82-.605 1.554c-.518 2.765-1.252 3.09-2.873 1.274C67.17 50.091 63.2 42.832 63.2 40.994c0-.276-.263-1.108-.584-1.848-.322-.74-.589-1.076-.595-.746m-3.221.672c0 1.108 2.918 8.373 3.12 7.767.086-.256-.021-.685-.237-.952-.217-.268-.883-1.972-1.481-3.787-.967-2.933-1.402-3.873-1.402-3.028m72.035 1.576c-1.739 6.014-5.537 12.736-8.785 15.552-2.463 2.135-2.85 2.588-2.822 3.3.026.642.051.644.3.027.15-.371 1.359-1.657 2.687-2.858 2.849-2.575 5.53-6.747 7.371-11.469.729-1.87 1.499-3.781 1.709-4.247.211-.467.321-1.165.244-1.552-.077-.392-.389.161-.704 1.247M76.914 46.6c.003 1.1.081 1.503.173.895.092-.609.09-1.509-.005-2-.095-.492-.171.005-.168 1.105m-14.89 1.039c-.155 1.568 5.196 8.594 7.83 10.28 2.294 1.469-.498 3.711-6.358 5.107-.607.144-1.202.423-1.323.618-.121.196-.569.356-.996.356-3.128 0-7.563 3.639-8.442 6.927-1.502 5.616 5.361 11.653 10.37 9.122 3.659-1.848 4.359-1.532 3.764 1.699-.258 1.399-.449 3.423-.425 4.498.03 1.381.218.632.639-2.557.657-4.971.413-6.089-1.147-5.255-6.524 3.492-12.731.629-12.735-5.874-.002-4.5 3.809-7.648 11.199-9.251.55-.119 1.18-.355 1.4-.524.22-.169 1.174-.514 2.121-.767 3.794-1.014 4.086-2.49 1.051-5.314-1.872-1.742-3.762-4.247-6.448-8.542-.263-.419-.488-.655-.5-.523m50.861 7.962c-3.506 3.137-7.624 3.492-11.447.987-.826-.541-1.009-.529-1.877.122-2.75 2.065-7.309 2.116-8.557.096-.384-.621-1.475-.488-3.197.39-3.432 1.75-7.025 1.235-10.171-1.458-2.428-2.078-2.726-1.776-3.426 3.462l-.187 1.4.558-1.6c.307-.88.571-2.084.588-2.676.042-1.477.636-1.719 1.674-.681 1.33 1.33 5.193 3.146 6.703 3.152 1.487.006 5.254-1.205 5.254-1.689 0-.439 1.908-.379 2.184.069 1.294 2.093 7.841 1.85 9.195-.341.127-.205 1.263.151 2.526.792 3.558 1.805 6.976 1.3 10.356-1.528 1.83-1.532 2.133-1.588 2.157-.398.026 1.333 1.126 5.105 1.137 3.9.013-1.312-.888-4.696-1.373-5.165-.236-.227-1.037.218-2.097 1.166m6.715 4.983c0 .285 2.275 1.416 2.847 1.416.267 0 .402-.084.299-.187-.331-.332-3.146-1.431-3.146-1.229M73.473 62.2c-.688 3.625-.716 4.953-.056 2.601.339-1.209.559-2.649.488-3.2-.102-.795-.191-.672-.432.599m43.12-.2c.244 2.019.569 3.846 1.209 6.8.31 1.43.838 4.04 1.172 5.8.65 3.416.55 1.102-.135-3.12-.618-3.815-2.545-11.945-2.246-9.48m7.407.6c.55.314 1.294.578 1.654.586.36.008 1.17.283 1.8.612.63.328 1.45.598 1.822.6.372.001.788.182.924.402.136.22.547.4.913.4.932 0-.54-1.002-1.913-1.302-.55-.12-1.987-.596-3.194-1.058-2.515-.963-3.47-1.077-2.006-.24m-55.248 2.562c.382.242.475.764.301 1.694-.137.739-.411 2.449-.607 3.801-.554 3.804-.42 3.681-6.116 5.611-3.391 1.149-5.93-.405-5.93-3.629 0-1.685 1.226-3.839 2.185-3.839.162 0 .861-.24 1.555-.534 1.339-.568 2.847-1.112 6.02-2.172 1.078-.36 1.735-.729 1.46-.821-.274-.091-.886.022-1.359.252-.474.23-1.941.778-3.261 1.218-6.421 2.141-8.105 3.908-6.978 7.323 1.072 3.249 3.583 3.796 8.646 1.885 3.588-1.354 3.567-1.328 4.18-5.093.904-5.551.912-6.058.103-6.052-.584.005-.628.084-.199.356m51.933.16c-.202.527.495 4.649 1.339 7.916.718 2.784 7.886 4.935 10.423 3.129 2.911-2.073 2.291-8.091-.817-7.935-.49.024-.506.08-.074.252 5.02 1.99 2.05 9.089-3.236 7.734-4.874-1.249-6.32-2.478-6.32-5.373 0-.725-.262-2.187-.581-3.25-.749-2.486.525-3.427 2.361-1.743.209.191.749.341 1.2.332.632-.012.537-.139-.418-.554-2.156-.939-3.637-1.133-3.877-.508m12.315.486c8.321 4.179 3.461 16.224-5.504 13.64-1.373-.395-3.019-.818-3.658-.938l-1.162-.219.302 2.154c.166 1.185.437 3.505.602 5.155l.299 3 .061-2.68c.033-1.474-.138-3.602-.379-4.728-.551-2.568-.57-2.554 2.273-1.603 9.891 3.308 16.627-7.201 8.528-13.305-.791-.596-1.691-1.083-2-1.082-.309.002-.022.274.638.606m-6.917.808c.235.235 4.376 1.792 4.711 1.771.663-.041-1.506-1.187-2.247-1.187-.495 0-1.011-.18-1.147-.4-.136-.22-.537-.4-.89-.4-.354 0-.546.097-.427.216m-54.028 3.001c-.27 1.421-.667 3.491-.883 4.6-.636 3.267-1.227 8.164-1.374 11.383l-.137 3 .332-2.4c.183-1.32.516-3.93.739-5.8.383-3.199.758-5.392 1.751-10.247.231-1.125.339-2.288.24-2.583-.098-.295-.399.626-.668 2.047m8.345 3.901c-2.838 1.918-3.752 3.93-2.4 5.282 1.111 1.111 1.422 1.028 3.153-.847 1.788-1.937 2.65-1.882 4.295.274 1.198 1.571 1.741 1.69 2.728.6 2.743-3.031-4.166-7.749-7.776-5.309m24.2-.04c-2.747 1.478-3.835 5.276-1.705 5.952.613.195 1.172-.141 2.31-1.387.827-.903 1.71-1.643 1.963-1.643.765 0 2.432 1.255 2.432 1.832 0 1.635 2.871 1.434 3.402-.238.988-3.112-5.015-6.339-8.402-4.516m-19.341.289c2.431 1.016 3.667 3.368 2.559 4.868-.54.731-.639.689-2.207-.935-2.131-2.208-3.119-2.212-4.94-.02-2.024 2.437-3.862.598-2.024-2.025 1.55-2.214 4.094-2.94 6.612-1.888m24.76.334c2.229 1.502 3.1 3.358 2.064 4.394l-.83.83-1.492-1.663c-2.107-2.346-3.404-2.199-5.235.594-1.335 2.038-2.963.364-1.966-2.021 1.127-2.698 4.985-3.801 7.459-2.134m9.831 6.299c.123 1.43.358 4.31.521 6.4l.297 3.8.041-3.6c.023-1.98-.212-4.86-.521-6.4l-.563-2.8.225 2.6M66.148 93.2c0 2.31.066 3.255.147 2.1a36.327 36.327 0 0 0 0-4.2c-.081-1.155-.147-.21-.147 2.1m57.994-.2c-.001 1.98.066 2.84.15 1.912.084-.928.085-2.548.003-3.6-.083-1.052-.152-.292-.153 1.688m-3.475 1.66c-.309 4.709-.109 4.526-2.934 2.693-1.283-.833-2.963-1.815-3.733-2.183-2.946-1.407-4.34-1.97-4.88-1.97-.308 0-.755-.195-.994-.434-.238-.238-.859-.373-1.38-.3-.75.106-.574.247.854.679 3.391 1.027 7.401 2.891 10 4.649 1.43.967 2.732 1.628 2.892 1.47.332-.327.936-8.464.628-8.464-.109 0-.313 1.737-.453 3.86M69.32 93.2c0 1.21.075 1.705.167 1.1a8.899 8.899 0 0 0 0-2.2c-.092-.605-.167-.11-.167 1.1m17.08-1.367-1.8.555 1.8-.272c2.346-.355 15.278-.353 17.6.003l1.8.276-2-.59c-2.682-.791-14.805-.771-17.4.028m-5 1.219c-3.261 1.139-6.006 2.503-8.547 4.248-2.485 1.706-2.724 1.77-2.977.8-.142-.541-.194-.5-.23.176-.074 1.404.484 1.376 2.583-.125 2.151-1.539 8.175-4.551 9.101-4.551.318 0 1.184-.263 1.924-.584 1.741-.756.336-.729-1.854.036m5.864 1.803c-.955.223-1.631.512-1.502.64.128.129 1.18.009 2.336-.266 2.102-.499 12.437-.41 15.502.134 1.307.233 1.334.217.4-.228-1.289-.616-14.37-.835-16.736-.28M82.4 96.233c-.905.502-.922.556-.18.561.451.003.991-.157 1.2-.355.209-.199.74-.448 1.18-.554.636-.153.596-.194-.2-.199-.55-.004-1.45.242-2 .547m24.2-.021c2.033.732 2.692.727 1.4-.012-.55-.314-1.45-.57-2-.568-.793.002-.668.123.6.58m-29.581 2.315c-6.834 3.594-10.67 8.856-10.842 14.873l-.104 3.6.283-3.4c.559-6.696 4.495-11.597 12.432-15.477 1.436-.702 2.342-1.275 2.012-1.273-.33.002-2.032.756-3.781 1.677m34.781-.349c6.001 2.842 10.198 7.141 11.932 12.222.139.408.215.336.236-.224.138-3.574-10.706-13.56-14.497-13.35-.259.014.789.623 2.329 1.352m11.865 2.468c-.053 2.334.084 3.035.761 3.896.455.578 1.257 2.087 1.783 3.354.578 1.391.964 1.957.974 1.428.009-.482-.163-.988-.383-1.124-.22-.136-.4-.555-.4-.931s-.495-1.4-1.1-2.276c-.846-1.225-1.154-2.241-1.335-4.393l-.236-2.8-.064 2.846m-57.217-.117c-.036 1.761-.316 2.785-1.147 4.2-6.663 11.345.324 24.867 15.325 29.658 1.526.488 3.187 1.05 3.693 1.25.505.2 1.405.345 2 .322l1.081-.041-1.2-.333c-.66-.184-1.92-.52-2.8-.748-.88-.227-2.59-.794-3.8-1.259-1.21-.465-2.515-.941-2.9-1.058-.385-.117-.7-.372-.7-.567 0-.194-.25-.353-.556-.353-.306 0-1.611-.779-2.9-1.731-9.624-7.108-11.989-16.085-6.625-25.147 1.283-2.168 1.33-2.383.962-4.4l-.386-2.122-.047 2.329m16.572 3.342c-1.405.76-2.591 2.096-2.601 2.929-.004.33.218.15.492-.4 1.745-3.492 7.42-2.705 8.139 1.128.912 4.861-5.803 7.211-7.981 2.793-.535-1.086-.652-1.166-.66-.45-.03 2.869 4.841 4.213 7.353 2.029 4.099-3.564-.041-10.574-4.742-8.029m20.695.075c-1.287.661-2.478 1.917-2.502 2.639-.007.212.499-.228 1.124-.977 2.615-3.133 7.355-1.36 7.355 2.751 0 4.629-5.147 6.107-7.713 2.214-.477-.723-.775-.931-.776-.543-.006 1.281 2.783 3.17 4.68 3.17 1.596 0 3.962-2.046 4.271-3.694.768-4.094-2.984-7.333-6.439-5.56m121.361 2.712c-.152.151-.276 2.369-.276 4.929 0 5.199-.178 5.613-2.407 5.613-1.315 0-2.396.244-7.393 1.672-9.547 2.727-18.13 9.276-21.137 16.128-.386.88-.871 1.909-1.077 2.286-1.49 2.723-2.056 12.237-.992 16.654 1.792 7.436 5.926 13.151 12.408 17.153.695.43 2.345 1.226 5.198 2.511 2.667 1.201 9.639 3.151 13.6 3.804.88.145 1.825.45 2.1.677.651.538.733 28.524.085 28.924-.874.54-10.797-2.08-16.985-4.483-2.856-1.11-3.163-1.239-6-2.534-5.456-2.489-7.208-3.359-7.867-3.904-2.214-1.832-2.43-1.037-2.363 8.712.071 10.418-.376 9.372 4.94 11.544 1.81.739 3.857 1.594 4.55 1.9.694.306 1.519.556 1.834.556.315 0 .701.129.859.286.157.157 1.042.497 1.966.755.925.257 2.671.757 3.881 1.11 3.228.943 9.853 2.249 11.403 2.249 3.26 0 3.36.169 3.485 5.886L225 234.2h14l.108-5c.117-5.429.35-5.995 2.468-6.005 11.997-.055 26.651-10.897 30.811-22.795.677-1.938.996-10.942.474-13.4-.233-1.1-.543-2.54-.688-3.2-1.552-7.078-8.918-14.404-17.573-17.477-1.54-.547-3.43-1.222-4.2-1.501-.77-.279-2.12-.651-3-.826-4.159-.826-7.587-1.668-8.264-2.03-.71-.38-.741-1.097-.641-14.683L238.6 133l1.6.066c2.629.109 9.811 1.564 12.6 2.551l2.8.995c.77.275 2.695 1.045 4.278 1.711 3.748 1.578 3.649 1.771 3.703-7.204.064-10.524.638-9.798-9.581-12.111a233.13 233.13 0 0 1-4.504-1.061c-.827-.21-3.317-.539-5.533-.731-4.942-.43-4.524.076-4.763-5.748l-.2-4.868-6.824-.109c-3.754-.06-6.949.015-7.1.167m-141.209.409c-.525.524-.263 2.449.366 2.69 1.055.405 1.378.283 1.733-.657.584-1.547-1.026-3.107-2.099-2.033m20.8 0c-.548.547-.236.816.733.631.805-.154 1-.03 1 .632 0 1.122-.605 1.408-1.368.645-.534-.534-.632-.541-.632-.046 0 1.282 2.167 1.206 2.505-.088.341-1.303-1.361-2.652-2.238-1.774m134.133 4.684c0 5.841-.119 5.67 4.2 5.985 5.288.386 14.48 2.336 18.5 3.925l1.3.514v8.313c0 4.571-.078 8.312-.174 8.312-.095 0-1.31-.469-2.7-1.043-3.444-1.422-3.861-1.582-5.926-2.283-4.759-1.613-12.41-3.2-14.477-3.001l-1.323.127-.109 14.6c-.123 16.315-.177 16 2.759 16 1.385 0 8.557 1.774 11.35 2.808 4.581 1.696 8.432 3.507 9.058 4.262.242.292.657.53.922.53.755 0 6.023 5.459 6.864 7.113.416.818.846 1.577.956 1.687 3.019 3.019 3.602 18.194.886 23.074-.267.48-.486 1.086-.486 1.346 0 1.816-6.351 9.033-10.4 11.818-4.525 3.112-15.074 6.962-19.077 6.962-1.864 0-2.087.608-2.21 6.025l-.113 4.975h-13.2l-.113-4.975c-.13-5.752-.266-6.025-2.979-6.025-3.433 0-15.63-3.022-20.708-5.13-.77-.319-1.76-.724-2.2-.898-2.842-1.128-4.166-1.705-5.4-2.353l-1.4-.736-.108-8.841c-.117-9.613-.18-9.387 2.216-7.942 1.523.919 2.472 1.386 6.692 3.295 9.462 4.281 16.804 6.634 22.7 7.275l1.9.207.047-14.338c.046-13.769.021-15.389-.241-15.662-.065-.067-1.713-.475-3.662-.906-10.514-2.324-17.067-5.064-21.74-9.089-2.012-1.733-5.604-6.104-5.604-6.819 0-.219-.3-.998-.668-1.731-.367-.732-.811-1.635-.987-2.006-1.728-3.646-1.736-15.966-.014-19.41.197-.394.878-1.782 1.514-3.085 3.091-6.338 10.387-12.011 18.955-14.736 4.31-1.371 8.155-2.295 9.552-2.295 1.852 0 2.048-.563 2.048-5.88v-4.92h13.6v4.951m-153.036-3.81c.329.533-.788 1.815-1.303 1.497-.78-.482-.547-1.838.315-1.838.427 0 .872.153.988.341m41.578 5.859c-.001 1.98.066 2.84.15 1.912.084-.928.085-2.548.003-3.6-.083-1.052-.152-.292-.153 1.688m-3.398.6c-.397 6.922-4.869 12.167-13.544 15.886-1.65.707-2.683 1.292-2.295 1.3.388.008 1.018-.157 1.4-.367.382-.209 1.415-.692 2.295-1.073 8.142-3.528 13.943-11.676 12.638-17.751-.245-1.14-.335-.772-.494 2.005m-57.513 3.2c-.008.33.477 1.526 1.078 2.659 5.703 10.758 22.866 16.161 38.291 12.054.88-.234 1.357-.511 1.061-.616-.297-.104-.927.001-1.4.233-3.008 1.48-18.511 1.527-20.461.063-.22-.165-1.017-.433-1.772-.594-6.529-1.399-13.731-7.114-16.106-12.782-.372-.889-.683-1.347-.691-1.017m60.415.676c-.025.482-.226.988-.446 1.124-.22.136-.4.515-.4.843 0 2.051-4.807 7.438-9.2 10.309-2.401 1.57-3.552 2.13-7.113 3.464-.722.27-1.223.582-1.113.692.43.429 5.631-1.931 8.966-4.07 4.648-2.981 10.147-10.236 9.529-12.571-.126-.476-.19-.416-.223.209m93.508 14.877c-7.894 2.158-11.509 6.023-11.855 12.671-.388 7.483 3.656 11.684 14.101 14.645 3.693 1.047 3.424 2.17 3.305-13.799l-.105-14.07-1.4-.085c-.77-.047-2.591.24-4.046.638M225.4 146.6v13.6l-1.15-.082c-1.644-.118-6.635-1.715-8.05-2.577-.66-.402-1.579-.899-2.041-1.104-4.112-1.821-6.487-9.067-4.661-14.217 1.655-4.667 9.556-9.586 14.902-9.278l1 .058v13.6m-119.513-11.554c-.136.136-.841.387-1.567.559l-1.32.313 1.254.041c.69.023 1.86-.222 2.6-.543 1.27-.552 1.288-.586.313-.6-.569-.009-1.145.095-1.28.23m-17.007 1.457c.726.166 3.57.303 6.32.303 2.75 0 5.594-.137 6.32-.303.752-.173-1.965-.303-6.32-.303s-7.072.13-6.32.303M164 151.457c-12.26 5.594-19.609 10.487-26.999 17.977-3.457 3.504-7.801 8.597-7.801 9.146 0 .139-.35.629-.777 1.088-1.202 1.29-4.801 7.316-6.511 10.902-.847 1.776-1.714 3.543-1.926 3.925-.212.382-.386.894-.386 1.139s-.259 1.012-.575 1.706c-1.519 3.328-2.861 8.413-4.396 16.66-.735 3.95-.884 18.466-.214 20.879.226.813.572 2.613.77 4 .681 4.789 2.579 11.381 4.757 16.521.993 2.346 3.936 8.209 4.817 9.6.558.88 1.346 2.205 1.752 2.943.405.739 1.176 1.817 1.713 2.396.537.579.976 1.175.976 1.324 0 2.183 18.733 19.937 21.036 19.937.159 0 .867.442 1.575.981 1.464 1.117 8.102 4.511 11.389 5.823 1.21.483 2.56 1.043 3 1.243.874.399 2.419.879 5.8 1.803 13.469 3.682 28.592 3.811 40.8.348 5.32-1.509 6.634-1.932 6.98-2.249.209-.192.632-.349.94-.349 1.26 0 10.605-4.601 14.379-7.079 1.441-.947 2.702-1.721 2.802-1.721.1 0 1.828-1.326 3.84-2.948 11.175-9.003 19.186-19.486 24.34-31.852.229-.55.665-1.479.969-2.064 1.213-2.336 1.105-2.359-10.526-2.242l-10.586.106-1.496 2.723c-4.16 7.574-12.923 17.045-18.761 20.277a31.63 31.63 0 0 0-2.283 1.439c-5.573 3.903-16.191 7.231-25.998 8.149-18.02 1.687-39.047-7.333-49.86-21.388-.508-.66-1.181-1.467-1.496-1.793-1.661-1.719-7.644-12.266-7.644-13.474 0-.117-.246-.779-.547-1.473-1.074-2.472-2.879-9.252-3.317-12.46-.419-3.064-.415-13.209.006-16.6 2.16-17.393 15.01-35.73 30.509-43.535 2.207-1.111 2.149-.79 2.149-11.818 0-11.331-.033-11.435-3.2-9.99m2.4 10.138c0 11.044.113 10.568-2.799 11.853-.881.388-1.601.851-1.601 1.029 0 .178-.192.323-.427.323-2.48 0-18.373 15.549-18.373 17.976 0 .233-.15.424-.334.424-.563 0-5.126 9.483-6.255 13-2.453 7.641-2.814 10.117-2.797 19.2.014 7.473.151 8.67 1.796 15.6.261 1.1.635 2.171.832 2.38.197.209.358.662.358 1.008 0 .814 2.263 6.198 3.367 8.008a58.338 58.338 0 0 1 1.635 2.904c.429.825.919 1.5 1.089 1.5.17 0 .309.19.309.421 0 1.797 9.345 11.925 14.425 15.635 4.865 3.553 12.835 7.944 14.417 7.944.391 0 .822.18.958.4.136.22.59.4 1.01.4.42 0 1.354.253 2.076.563 7.239 3.103 20.671 3.367 32.314.636 3.708-.869 13.956-5.225 14.333-6.093.074-.168.304-.306.513-.306 1.833 0 11.548-8.249 15.727-13.354 2.454-2.998 4.853-6.585 6.222-9.303 1.079-2.142 1.022-2.131 11.472-2.138 11.156-.006 10.726-.15 9.302 3.099-8.432 19.227-21.403 32.886-39.369 41.453-2.2 1.049-4.313 2.073-4.695 2.275-.382.202-1.021.368-1.42.368s-.896.158-1.105.351c-.327.303-3.61 1.356-6.98 2.24-9.699 2.544-25.059 2.923-34.6.855-5.382-1.167-6.804-1.5-7.4-1.731-1.251-.486-7.034-2.568-7.8-2.807-4.398-1.378-16.274-8.905-21.565-13.669-6.437-5.796-15.835-17.424-15.835-19.593 0-.245-.168-.446-.373-.446s-.499-.405-.654-.9c-.154-.495-.392-.99-.527-1.1-.52-.422-4.046-8.247-4.046-8.977 0-.317-.18-.687-.4-.823-.22-.136-.4-.614-.4-1.063 0-.449-.25-1.383-.556-2.077-4.376-9.917-4.926-32.012-1.107-44.46l1.098-3.6c.401-1.32.872-2.571 1.047-2.78.175-.209.318-.645.318-.968 0-.534.463-1.597 3.158-7.252.472-.99 1.392-2.7 2.045-3.8.653-1.1 1.315-2.27 1.472-2.6.156-.33.427-.78.602-1 .174-.22 1.386-1.87 2.693-3.666 3.277-4.505 3.706-5.002 8.118-9.424 3.318-3.326 12.533-10.71 13.366-10.71.149 0 .827-.421 1.508-.935 1.051-.794 6.723-3.64 11.838-5.939 2.043-.919 2-1.126 2 9.669m71.796 17.672c-.114.296-.159 6.747-.101 14.335l.105 13.798 1.188.135c1.189.135 3.011-.296 6.012-1.421 12.08-4.531 14.684-16.92 4.849-23.071-4.406-2.755-11.582-5.003-12.053-3.776m4.591.975c3.073 1.089 3.345 1.201 5.688 2.35 2.441 1.196 5.195 3.662 6.265 5.608.857 1.558.877 7.913.03 9.405-2.86 5.04-6.628 7.612-13.455 9.182-3.077.707-2.915 1.464-2.915-13.611V179.6h1.287c.707 0 2.102.289 3.1.642" fill="#a9d9df"/>
    <path d="M59.776 22.987c-.427.323-.562.593-.3.6.262.007.599-.184.748-.425.272-.442 2.093-.335 3.576.21.789.289.789.284.024-.339-.975-.794-3.027-.817-4.048-.046m66.618.154c-.767.407-1.981 1.532-2.699 2.5-.718.967-1.443 1.939-1.611 2.159-.168.22-.742 1.03-1.276 1.8-.533.77-1.068 1.493-1.189 1.606-1.186 1.117-2.49 2.791-2.018 2.592.774-.328 3.877-4.154 5.754-7.095 1.919-3.007 5.894-5.041 6.845-3.503.136.22.462.394.724.387.262-.007.127-.277-.3-.6-1.049-.793-2.551-.739-4.23.154m-68.478 1.073c-.284.338-.755.879-1.048 1.203-.293.325-.473.748-.4.94.073.193.625-.349 1.228-1.203 1.082-1.534 1.222-2.133.22-.94m7.565.286c.451.495 1.305 1.682 1.898 2.638.594.956 1.168 1.648 1.277 1.539.268-.267-3.157-5.053-3.626-5.066-.203-.006 0 .394.451.889m66.333-.594c.227.162.812.813 1.3 1.448.487.635.886.974.886.754 0-.624-1.604-2.509-2.129-2.502-.31.004-.329.107-.057.3m-71.196 3.431c-.755.552-.745.813.146 3.863l.41 1.4-.192-1.6c-.106-.88-.235-1.936-.287-2.348-.298-2.353 1.757-1.611 3.705 1.338.33.499.825 1.143 1.1 1.43.275.288.5.696.5.909 0 .212.294.498.654.636.463.178.358-.137-.362-1.079a84.965 84.965 0 0 1-2.281-3.208c-1.31-1.941-2.129-2.265-3.393-1.341m66.602.334c-.446.479-.728.954-.626 1.057.102.102.517-.223.921-.722 1.127-1.392 2.644-.788 2.343.933-.684 3.917-.69 4.135-.068 2.261.805-2.423.761-3.491-.164-3.986-1.111-.595-1.494-.522-2.406.457m-71.127.729c0 .77.082 1.085.183.7.1-.385.1-1.015 0-1.4-.101-.385-.183-.07-.183.7m13.345 1.691c1.486 1.737 3.855 4.093 3.114 3.098-1.819-2.446-3.179-3.989-3.514-3.989-.199 0-.019.401.4.891m-13.01 1.185c-.015.592.152 1.188.372 1.324.478.295.478-.489 0-1.6-.307-.714-.347-.685-.372.276m76.829 1.394c-.299 1.359-.448 2.709-.332 3 .117.292.226.113.243-.396.018-.51.223-1.283.456-1.719.233-.435.368-1.369.3-2.073-.104-1.077-.211-.886-.667 1.188M124 32.2c-.517.55-.749 1-.516 1 .233 0 .719-.45 1.079-1 .361-.55.593-1 .516-1-.077 0-.562.45-1.079 1m-42.181.569c-.125.203-.766.488-1.424.632-.657.144-1.195.428-1.195.631 0 .202-.189.368-.419.368-.231 0-.836.45-1.346 1-1.157 1.248-1.515 1.249-2.693.007-1.343-1.416-1.762-1.247-.479.193 1.347 1.511 1.885 1.504 3.655-.05 1.458-1.28 3.355-2.238 5.482-2.769l1.2-.299-1.276-.041c-.702-.023-1.379.125-1.505.328m7.581-.084c.44.106.971.355 1.18.554.209.198.659.355 1 .347.393-.009.255-.223-.38-.586-.55-.314-1.36-.557-1.8-.539l-.8.032.8.192m8.253 1.139-2.548 1.363-1.175-.837c-.647-.461-1.263-.75-1.37-.643-.107.107.446.572 1.229 1.033l1.423.84 1.474-.828c.811-.456 2.293-1.161 3.294-1.568 1.001-.407 1.46-.736 1.02-.731-.44.005-1.946.622-3.347 1.371m10.147-.812c2.081.749 2.705.742 1.254-.014-.63-.329-1.53-.59-2-.58-.552.011-.289.221.746.594m-50.431 1.923c.077 1.064.361 2.144.631 2.4.383.364.422.247.176-.535-.173-.55-.457-1.63-.631-2.4-.277-1.228-.299-1.162-.176.535M61.25 33.8c-.008.22.235 1.3.541 2.4.445 1.603.557 1.762.564.8.008-1.069-1.068-4.186-1.105-3.2m6.942 1.038c.656.749 2.13 2.352 3.276 3.562 1.656 1.748 2.116 2.529 2.241 3.8l.157 1.6.067-1.652c.06-1.479-.145-1.874-1.978-3.795-1.124-1.179-2.431-2.603-2.904-3.166-.473-.562-1.128-1.177-1.456-1.366-.327-.19-.058.268.597 1.017m51.506 2.262c-3.003 3.225-3.255 3.626-3.211 5.1l.047 1.6.16-1.541c.127-1.226.64-2.046 2.503-4 2.354-2.47 4.191-4.659 3.91-4.659-.083 0-1.617 1.575-3.409 3.5m-7.098-1.5c.632.66 1.33 1.2 1.55 1.2.22 0-.118-.54-.75-1.2-.632-.66-1.33-1.2-1.55-1.2-.22 0 .118.54.75 1.2m3.364-.483c-1.587 1.853-1.432 2.284.173.483.588-.66.928-1.2.755-1.2-.173 0-.591.323-.928.717m12.501.3c-.256.561-.456 1.417-.446 1.902.012.562.24.252.628-.858.674-1.924.548-2.647-.182-1.044m-42.065.878c.99.086 1.971.324 2.18.53.209.206.659.369 1 .361.393-.009.255-.223-.38-.586-.55-.314-1.81-.547-2.8-.516l-1.8.056 1.8.155m16.7-.013a5.661 5.661 0 0 0 1.8 0c.495-.095.09-.173-.9-.173s-1.395.078-.9.173M83 36.8c-.771.331-.769.345.076.372.482.015.988-.152 1.124-.372.292-.473-.099-.473-1.2 0m16.898.382c-.827.413-2.055 1.216-2.731 1.784-1.435 1.208-2.489 1.309-3.474.334-.824-.817-2.742-2.1-3.139-2.1-.151 0 .455.528 1.346 1.174.891.645 1.739 1.365 1.884 1.6.473.765 2.398.45 3.503-.574.593-.55 1.266-1 1.496-1 .229 0 .417-.166.417-.368 0-.203.538-.487 1.195-.631.658-.144 1.299-.429 1.424-.632.34-.55-.244-.424-1.921.413m6.302-.382c.136.22.642.397 1.124.394.712-.005.764-.079.276-.394-.788-.509-1.715-.509-1.4 0m25.9.87c-.275.763-.5 1.768-.5 2.235 0 .466-.18.959-.4 1.095a.914.914 0 0 0-.387.724c.025.963 1.187-1.112 1.187-2.12 0-.574.197-1.241.438-1.482.24-.24.375-.752.3-1.138-.094-.477-.297-.259-.638.686m-51.839.579c-1.114 1.032-2.871 4.475-2.482 4.863.204.204 1.021-1.667 1.021-2.338 0-.206.742-1.095 1.648-1.974 1.806-1.753 1.638-2.244-.187-.551M108.8 37.8c.274.33.678.6.898.6.223 0 .18-.265-.098-.6-.274-.33-.678-.6-.898-.6-.223 0-.18.265.098.6m-50.368 1.4c-.002.55.254 1.45.568 2 .739 1.292.744.633.012-1.4-.457-1.268-.578-1.393-.58-.6m68.8.339c-.237.445-.424 1.225-.414 1.735.012.678.168.502.582-.659.617-1.732.519-2.359-.168-1.076M63.261 41c-.018.44.225 1.25.539 1.8.363.635.577.773.586.38.008-.341-.149-.791-.347-1-.199-.209-.448-.74-.554-1.18l-.192-.8-.032.8m48.353-.176c-.008.342.25.972.573 1.4.752.994.761.285.013-1.024-.366-.641-.577-.776-.586-.376m-51.988 2.281c-.026.511.095.811 1.306 3.227.368.733.668 1.566.668 1.851 0 .286.27.743.6 1.017.791.656.764.504-.316-1.825-2.014-4.341-2.234-4.756-2.258-4.27m70.703.295c-.131.44-.371 1.16-.533 1.6-.252.686-.198.67.383-.107.372-.5.612-1.22.533-1.6-.125-.601-.176-.587-.383.107m-65.902.8c.002.706 1.143 2.455 1.159 1.776.008-.342-.25-.972-.573-1.4-.323-.427-.587-.596-.586-.376m12.904 2.4c.002 1.54.074 2.121.161 1.291.087-.83.085-2.09-.003-2.8-.089-.71-.16-.031-.158 1.509m39.5 0c-.01 1.54.144 3.057.342 3.371.482.76.51-4.104.032-5.292-.257-.638-.36-.112-.374 1.921m7.887-.27c-.595 1.231-1.03 2.292-.965 2.356.21.21 2.312-3.894 2.177-4.25-.071-.19-.617.662-1.212 1.894m-11.794.27c.002 1.32.077 1.812.166 1.093.089-.719.087-1.799-.004-2.4s-.164-.013-.162 1.307m15.602 1.198c-.451.981-.669 1.691-.484 1.576.459-.284 1.707-2.959 1.484-3.181-.099-.099-.548.624-1 1.605M65.6 47.019c0 .439 2.775 4.421 4.167 5.981 1.621 1.816 2.355 1.491 2.873-1.274.138-.734.41-1.433.605-1.554s.352-.524.349-.896c-.01-1.046-.644.11-1.439 2.624-.563 1.78-1.347 2.818-1.358 1.8-.002-.165-.6-.93-1.328-1.7-.728-.77-1.823-2.255-2.434-3.3-1.027-1.756-1.435-2.234-1.435-1.681m56.676 3.481c-2.797 3.569-3.468 4.069-3.489 2.6-.007-.495-.277-1.249-.6-1.676-.492-.652-.587-.672-.587-.124 0 .359.18.764.4.9.22.136.4.586.4 1 0 1.997 1.575 1.117 3.97-2.219 1.479-2.059 1.412-2.403-.094-.481m-44.663-.861c-.077 1.447 2.714 4.431 4.846 5.18 2.168.761 5.541-.735 5.541-2.458 0-1.133 1.505-1.977 2.708-1.52.883.336.947.307.503-.228-.971-1.17-3.611.023-3.611 1.631 0 2.346-5.386 2.832-7.537.68-.695-.694-1.263-1.422-1.263-1.617 0-.399-1.167-2.04-1.187-1.668m34.259 1.266c-1.715 3.614-7.021 4.813-8.776 1.983-.371-.598-.68-.855-.685-.571-.036 1.73 3.365 3.217 5.641 2.466 1.639-.541 4.748-3.579 4.748-4.639 0-.859-.261-.645-.928.761M62.8 50.17c0 .248.955 1.831 1.797 2.98 1.129 1.54 5.503 5.681 5.735 5.43.147-.159.065-.363-.183-.452-.934-.336-3.733-3.218-5.508-5.672-1.013-1.399-1.841-2.428-1.841-2.286m36.32.53c-.332.385-.851 1.28-1.154 1.989-.98 2.29-4.615 2.306-5.477.024-.261-.693-.569-1.166-.684-1.052-.465.466 1.087 2.68 2.201 3.142 1.809.749 3.505-.101 4.446-2.227.828-1.871 1.879-2.38 3.122-1.509 1.001.701 1.115.24.126-.51-.967-.734-1.866-.684-2.58.143m23.18 5.844c-3.612 3.354-3.474 3.933 1.3 5.454.55.175 1.36.442 1.8.593.789.27.789.265.024-.358-.428-.348-1.182-.633-1.677-.633-.495 0-1.002-.166-1.128-.369-.125-.203-.766-.488-1.424-.632-1.891-.415-1.564-1.379 1.205-3.552.754-.592 3.01-3.054 2.775-3.028-.096.01-1.39 1.147-2.875 2.525m-46.854-1.261c-.224.819-1.396 6.394-1.622 7.717-.113.66-.311 1.65-.442 2.2-.193.816-.158.877.191.334.236-.367.602-1.717.813-3 1.213-7.381 1.303-7.538 3.278-5.734.723.66 1.589 1.197 1.925 1.193.336-.003-.019-.404-.789-.89s-1.461-1.025-1.535-1.198c-.293-.683-1.673-1.155-1.819-.622m37.55.909c-.878.766-1.866 1.41-2.196 1.432-.43.028-.455.098-.087.245.282.114 1.295-.434 2.25-1.217l1.738-1.424.261 1.969c.144 1.084.464 2.096.713 2.249.313.194.364-.015.167-.683-.156-.53-.388-1.638-.516-2.463-.283-1.836-.346-1.839-2.33-.108m-13.341 1.044c-.519.42-.766.764-.548.764.217 0 .623-.275.901-.61.453-.545.583-.541 1.226.041.396.358.917.585 1.158.505.241-.08-.064-.442-.678-.805-1.051-.621-1.17-.615-2.059.105M88.8 57.171c0 .204-.315.453-.7.553-.591.155-.598.19-.049.23.358.025.875-.224 1.149-.554.344-.415.359-.6.049-.6-.247 0-.449.167-.449.371m1.6.229c.274.33.678.6.898.6.223 0 .18-.265-.098-.6-.274-.33-.678-.6-.898-.6-.223 0-.18.265.098.6m-9.852.917c.645 1.043 6.652 1.058 6.652.016 0-.258-.268-.292-.7-.087-.93.439-4.502.423-5.466-.026-.539-.251-.683-.222-.486.097m12.028.296c.428.323 1.608.587 2.624.587 1.543 0 4.371-1.149 2.924-1.187a.914.914 0 0 0-.724.387c-.136.22-1.126.4-2.2.4-1.074 0-2.064-.18-2.2-.4a.914.914 0 0 0-.724-.387c-.262.007-.127.277.3.6m10.624-.291c0 .592 2.976 1.002 5.032.694.972-.146 1.768-.453 1.768-.683 0-.258-.268-.292-.7-.087-.385.182-1.6.331-2.7.331s-2.315-.149-2.7-.331c-.425-.202-.7-.172-.7.076m-34.758 2.512c-.527.211-.869.472-.761.581.109.108.81-.068 1.558-.393 1.482-.643.764-.812-.797-.188m47.608.82c-.027.8.229 2.06.569 2.8.618 1.343.618 1.343.374.146l-.569-2.8-.324-1.6-.05 1.454m-51.074.533c-.997.755-.618.765 1.078.029.993-.431 1.13-.589.522-.6-.452-.009-1.172.248-1.6.571M61.2 63.433c-1.397.776-.036.747 1.454-.031.893-.465.969-.589.346-.56-.44.02-1.25.286-1.8.591m66.4-.033c.55.314 1.36.571 1.8.57.552-.001.383-.182-.546-.586-1.717-.745-2.567-.734-1.254.016m-69 1c-.136.22-.565.4-.954.4-1.061 0-4.284 3.184-5.009 4.949-2.132 5.185 1.958 11.072 7.669 11.037 2.027-.013 5.485-1.133 3.618-1.172-.372-.008-.788.166-.924.386-.443.717-4.522.456-6.193-.396-6.116-3.121-5.59-11.221.933-14.372 1.353-.654 2.156-1.199 1.784-1.21-.372-.012-.788.158-.924.378m72.376.213c.428.323 1.067.587 1.42.587.354 0 .86.216 1.124.48.373.373.48.371.48-.01 0-.269-.54-.598-1.2-.73-.66-.132-1.2-.397-1.2-.59 0-.192-.315-.344-.7-.337-.633.011-.626.068.076.6m-9.931.915c-.112.18.045 1.125.349 2.1.506 1.622.555 1.668.579.552.015-.671-.196-1.443-.47-1.717-.395-.395-.375-.573.1-.874.359-.226.407-.379.121-.383-.262-.003-.568.142-.679.322m-55.988.886c-2.172.825-2.703 1.186-1.747 1.186.353 0 .741-.16.862-.355.121-.195.845-.472 1.61-.615.764-.144 1.497-.434 1.628-.645.316-.512-.05-.446-2.353.429m58.319-.201c.428.323 1.182.587 1.677.587.495 0 1.011.18 1.147.4.136.22.552.394.924.386 1.016-.021-1.111-1.154-2.2-1.172-.482-.008-.988-.194-1.124-.414a.914.914 0 0 0-.724-.387c-.262.007-.127.277.3.6m-54.688.32c-.158.403-.277 1.123-.263 1.6.024.823.046.817.415-.108.214-.536.333-1.256.263-1.6-.104-.514-.178-.495-.415.108m66.816.695c1.638 1.601 2.727 5.134 2.12 6.875-.622 1.785-.487 2.315.192.751 1.145-2.637-1.04-8.854-3.112-8.854-.251 0 .109.552.8 1.228M72.699 68.4c-.727 4.468-.733 4.689-.079 2.664.344-1.065.568-2.505.499-3.2-.115-1.147-.154-1.097-.42.536m44.676 0c.353 2.761.927 4.77.973 3.4.022-.66-.228-2.01-.556-3-.541-1.635-.579-1.671-.417-.4M60 68.233c-.877.487-.902.554-.2.548.44-.003 1.149-.271 1.576-.594 1.005-.76.017-.727-1.376.046m69.2.008c3.789 1.686 3.979 1.836 4.226 3.318.362 2.175.601 2.468.409.501-.197-2.025-.92-2.815-3.448-3.773-2.257-.855-3.076-.886-1.187-.046m-71.9 1.6c-.684.78-.886 1.475-.844 2.893l.057 1.866.251-2.061c.184-1.513.515-2.28 1.243-2.887.546-.454.813-.828.593-.831-.22-.004-.805.455-1.3 1.02m10.764.531c-.085 1.291-.958 3.754-1.462 4.122-.247.181-.202.296.118.3.746.009 1.753-2.65 1.566-4.135-.119-.948-.174-1.019-.222-.287m53.955 1.148c-.025 1.186 1.058 3.282 1.691 3.274.354-.005.364-.088.036-.3-.249-.162-.736-1.104-1.081-2.094-.418-1.201-.633-1.494-.646-.88m-42.085 1.867c-2.645 1.797-3.744 4.337-2.403 5.551 1.039.939 1.431.824.469-.138-.978-.978-.992-1.328-.105-2.714 1.837-2.871 5.01-4.114 7.331-2.872.437.234.774.254.774.047 0-1.189-4.262-1.1-6.066.126m25.166-.711c-.385.1-.7.356-.7.567 0 .237.299.225.774-.029 2.113-1.131 5.607.082 7.233 2.512.469.701.789 1.094.71.874-1.146-3.21-4.489-4.846-8.017-3.924m-17.814 1.87c.503.521.988.882 1.078.803.233-.204-1.216-1.749-1.64-1.749-.194 0 .059.426.562.946m15.374-.108c-.394.461-.646.91-.558.997.087.088.549-.29 1.026-.838s.728-.997.558-.997c-.169 0-.631.377-1.026.838m15.786.162c-.019.66.141 1.47.354 1.8.49.758.49-.47 0-2-.314-.98-.321-.976-.354.2m14.123.521c-.994 1.206-3.733 1.355-5.816.315-1.57-.783-3.016-.85-1.553-.072 3.321 1.766 7.029 1.649 8.048-.253.614-1.148.272-1.143-.679.01m-61.304 1.488c-.295 1.325-.457 2.945-.36 3.6.13.885.191.724.235-.629.033-1.001.253-2.013.489-2.249.236-.236.371-1.037.3-1.78-.115-1.201-.188-1.084-.664 1.058M63.6 75.433c-.556.309-.733.552-.4.547.33-.005 1.05-.266 1.6-.58.55-.314.73-.56.4-.547-.33.014-1.05.275-1.6.58m-4.7 1.037c.664.422 2.363.405 3.05-.031.351-.222-.192-.337-1.5-.317-1.176.018-1.837.166-1.55.348m29.74.546c.173.692.028 1.267-.455 1.8-.391.432-.506.784-.256.784.897 0 1.766-1.875 1.285-2.773-.605-1.131-.882-1.039-.574.189m12.717.013c-.142.566-.091 1.197.113 1.401.229.229.387-.167.411-1.029.047-1.655-.164-1.805-.524-.372M81.6 77.4c-.517.55-.747 1-.513 1 .235 0 .531-.27.658-.6.415-1.082 2.373-.721 3.255.6.44.659.947 1.198 1.127 1.199.502.002-1.284-2.348-2.129-2.8-1.081-.579-1.354-.51-2.398.601m23.759.472c-.741.81-1.269 1.551-1.173 1.648.239.238 1.414-.967 1.414-1.449 0-1.061 2.179-1.175 3.3-.173.385.344.7.439.7.21 0-.48-1.749-1.708-2.432-1.708-.253 0-1.067.662-1.809 1.472m30.646-.279c-1.739 2.442-6.262 3.513-9.405 2.227l-.8-.328.8.641c1.311 1.051 5.469.888 7.308-.285 1.728-1.103 3.531-2.942 3.204-3.269-.124-.124-.622.333-1.107 1.014m-22.805-.06c0 .257-.36.827-.8 1.267-.634.634-.673.8-.19.8.608 0 1.602-1.921 1.201-2.322-.116-.116-.211-.001-.211.255m6.2 3.267c.082 1.87.345 3.85.583 4.4.449 1.034.379.111-.423-5.6-.257-1.829-.284-1.627-.16 1.2m-53.8-1.559c-.477.341-.407.386.342.22.851-.188.915-.105.672.866-.148.59-.33 2.873-.404 5.073l-.134 4 .311-3.4c.171-1.87.448-4.255.616-5.3.322-2.003-.071-2.411-1.403-1.459m57.798.859c.164.715.438 3.1.61 5.3l.311 4-.135-4.9c-.12-4.377-.063-4.903.541-4.928.549-.023.526-.092-.125-.372-1.343-.577-1.512-.451-1.202.9m-53.15 4.225c-.183 1.388-.235 2.621-.116 2.74.337.337.746-2.364.589-3.892-.113-1.098-.208-.867-.473 1.152M69.753 93c0 2.64.065 3.668.144 2.284.078-1.383.077-3.543-.002-4.8-.079-1.256-.143-.124-.142 2.516m54.784 0c.002 1.76.072 2.43.156 1.489.085-.94.084-2.38-.002-3.2-.086-.819-.155-.049-.154 1.711m-4.003.2c0 1.65.071 2.325.157 1.5.087-.825.087-2.175 0-3-.086-.825-.157-.15-.157 1.5M91.9 91.098c1.815.074 4.785.074 6.6 0 1.815-.075.33-.135-3.3-.135s-5.115.06-3.3.135m-6.3.502c-.764.494.058.494 1.6 0l1-.32-1-.034c-.55-.019-1.27.141-1.6.354m17.6 0c1.436.46 2.084.46 1.8 0-.136-.22-.822-.382-1.524-.36-1.219.038-1.231.054-.276.36m-21.424 1.033c-.765.623-.765.628.024.35.44-.155 1.34-.421 2-.592l1.2-.309-1.224-.041c-.672-.023-1.572.244-2 .592m24.824-.342c.66.094 1.371.337 1.58.54.209.203.569.363.8.356.231-.007.071-.277-.356-.6-.428-.323-1.328-.56-2-.527l-1.224.06 1.2.171M78.4 93.8c-1.333.762-.406.764 1.054.002.63-.328.876-.592.546-.585-.33.006-1.05.269-1.6.583m32.546.002c1.47.767 2.239.774 1.23.011-.427-.323-1.136-.592-1.576-.598-.64-.008-.571.11.346.587M75.4 95.105c-.66.34-1.26.771-1.333.957-.074.186-.283.338-.464.338-.524 0-3.619 2.117-3.406 2.33.105.105 1.229-.51 2.497-1.366 1.268-.857 2.801-1.775 3.406-2.041.605-.267 1.1-.583 1.1-.704 0-.328-.47-.201-1.8.486m37.8-.519c0 .139.495.473 1.1.742.605.269 2.126 1.161 3.381 1.981 2.732 1.786 3.512 1.978 1.182.291-.911-.66-1.838-1.2-2.06-1.2-.221 0-.403-.162-.403-.361 0-.198-.585-.592-1.3-.874-.715-.282-1.435-.585-1.6-.672-.165-.088-.3-.046-.3.093m-24.478.425c-.116.117-1.001.367-1.967.557-1.711.336-1.72.345-.355.382.77.021 2.21-.217 3.2-.529 1.655-.522 1.701-.57.567-.594-.679-.015-1.329.068-1.445.184m12.278.384c1.1.324 2.54.572 3.2.551 1.405-.045-.661-.588-3.6-.946-1.521-.186-1.501-.166.4.395m-17.62.971c-.209.202-.83.447-1.38.546l-1 .179 1.024.055c.562.029 1.372-.21 1.8-.533.427-.323.587-.593.356-.6-.231-.007-.591.152-.8.353m23.196.247c.428.323 1.238.579 1.8.569.848-.014.749-.116-.576-.594-1.997-.719-2.201-.715-1.224.025m17.507 2.987c-.074 3.174 0 3.52 1.117 5.2 1.435 2.158 1.617 1.845.217-.373-.798-1.264-1.009-2.189-1.119-4.893l-.135-3.334-.08 3.4m-57.946.6c.002 1.76.072 2.43.156 1.489.085-.94.084-2.38-.002-3.2-.086-.819-.155-.049-.154 1.711m12.705-2.163c-.967.429-1.669.869-1.56.979.11.109.721-.074 1.358-.406.638-.333 1.385-.606 1.66-.608.275-.001.5-.182.5-.402 0-.22-.045-.387-.1-.372-.055.016-.891.38-1.858.809m30.758-.432c0 .217.19.395.422.395.658 0 3.901 1.552 4.177 1.999.137.221.548.401.914.401.525 0 .479-.13-.221-.621-1.465-1.026-5.292-2.598-5.292-2.174M72.774 101.9c-1.998 1.694-3.447 3.306-4.474 4.979-.858 1.398-.892 1.779-.1 1.121.33-.274.6-.755.6-1.07 0-.315 1.354-1.912 3.008-3.551 3.344-3.311 3.612-3.721.966-1.479m45.721 1.343c1.523 1.465 3.11 3.466 3.717 4.687.583 1.172 1.139 2.052 1.234 1.957.735-.735-4.476-7.526-6.681-8.706-.51-.273.269.655 1.73 2.062m-35.488.184c-.657.342-1.534.988-1.951 1.435-.78.838-1.659 3.711-1.013 3.312.196-.122.357-.617.357-1.102 0-2.551 3.674-4.384 6.264-3.126.987.48 1.694.71 1.572.512-.832-1.346-3.585-1.888-5.229-1.031m20.793-.016c-1.686.898-2.243 1.553-.8.941.66-.279 1.418-.669 1.685-.866 2.118-1.566 6.092 2.702 5.507 5.914l-.218 1.2.629-1.106c1.778-3.126-3.498-7.843-6.803-6.083m-39.016 1.412c-.479.673-.784 1.31-.677 1.417.107.107.57-.444 1.03-1.223 1.027-1.74.826-1.85-.353-.194m24.097 1.159c.552.884.941.773.581-.165-.13-.339-.424-.617-.653-.617-.263 0-.237.287.072.782m12.069-.195c-.407 1.061.039 1.409.512.4.259-.552.297-.987.088-.987-.206 0-.476.264-.6.587m131.25.598 6.8.215.22 4.8.219 4.8.081-4.857c.097-5.855.803-5.369-7.653-5.258l-6.467.086 6.8.214m-7.628.545c-.112.292-.15 2.227-.085 4.3l.119 3.77.197-4.301c.195-4.261.162-4.795-.231-3.769m-161.287.843c-.267.586-.478 1.371-.469 1.746.008.374.283.065.61-.689.701-1.616.568-2.613-.141-1.057m63.128-.353c-.007.231.152.591.353.8.202.209.447.83.546 1.38l.179 1 .055-1.024c.029-.562-.21-1.372-.533-1.8-.323-.427-.593-.587-.6-.356m-41.617.537c.678.189.838.375.5.584-.273.168-.676.195-.896.059-.22-.136-.4-.067-.4.153 0 .793.933.954 1.448.249.658-.9.367-1.414-.772-1.362-.807.037-.798.062.12.317m20.633.823c-.677.246-.691.311-.113.533.362.138.772.068.911-.157.357-.578.097-.7-.798-.376m-25.361.82c-.04.956 1.124 2.8 1.766 2.8.168 0-.07-.405-.529-.9s-.916-1.35-1.015-1.9l-.181-1-.041 1m20.778.224c-.054.969 2.158 3.377 3.101 3.375.406-.001.199-.28-.547-.736-1.43-.874-2.045-1.583-2.311-2.663-.191-.781-.197-.78-.243.024m-11.6.247c-.025.369-.717 1.224-1.537 1.9-.82.676-1.315 1.229-1.1 1.228.892-.002 3.067-2.304 2.877-3.045-.157-.611-.202-.627-.24-.083m-22.767 3.621c-.075 2.951.543 5.596 1.641 7.018.661.854.74.268.129-.956-1.253-2.514-1.444-3.264-1.565-6.154l-.125-3-.08 3.092m41.936-1.653c-.762.639-1.212 1.16-1 1.159.539-.003 2.829-1.883 2.585-2.123-.11-.108-.823.325-1.585.964m15.322 1.761c.002 1.76.072 2.43.156 1.489.085-.94.084-2.38-.002-3.2-.086-.819-.155-.049-.154 1.711m3.869.276c.004 2.036.124 2.742.394 2.324.512-.792.512-4.684 0-5-.253-.156-.398.828-.394 2.676m-65.369-1.132c-.139.74-.08 1.775.13 2.3.312.78.387.533.408-1.344.028-2.596-.166-2.941-.538-.956m160.963 3.681c-1.295.49-1.321.532-.349.552.578.013 1.275-.247 1.549-.577.274-.33.431-.579.349-.552-.082.026-.779.286-1.549.577m17.2.175c.55.176 1.63.317 2.4.313l1.4-.008-1.2-.305c-1.761-.448-3.999-.448-2.6 0m-113.298 1.5c-.104.605-.319 1.46-.478 1.9-.285.789-.28.789.343.024.348-.428.633-1.283.633-1.9 0-1.434-.254-1.446-.498-.024m90.698-.7c-.136.22-.642.414-1.124.432-.482.017-.666.117-.41.222.256.104 1.336-.077 2.4-.404 1.766-.543 1.823-.597.658-.622-.702-.015-1.388.152-1.524.372m29.8.001c.77.17 2.03.429 2.8.575l1.4.266-1.346-.621c-.74-.341-2-.6-2.8-.575l-1.454.046 1.4.309m-184.781.672c-.054 2.469 4.689 8.929 8.717 11.875 2.168 1.584 6.265 3.852 6.962 3.852.264 0-.578-.549-1.871-1.22-6.779-3.517-11.255-8.138-13.162-13.589-.386-1.103-.634-1.456-.646-.918m59.992.298c-.226.594-.411 1.167-.411 1.272 0 .708-3.596 4.83-5.407 6.197-2.311 1.745-2.794 2.309-1.293 1.508 2.856-1.522 8.67-8.912 7.741-9.84-.12-.12-.404.268-.63.863m90.989.229c-.315.509.612.509 1.4 0 .488-.315.436-.389-.276-.394-.482-.003-.988.174-1.124.394m39.6 0c1.111.478 1.895.478 1.6 0-.136-.22-.732-.387-1.324-.372-.961.025-.99.065-.276.372m-42.424.987c-.997.755-.618.765 1.078.029.993-.431 1.13-.589.522-.6-.452-.009-1.172.248-1.6.571m45.624-.176c2.904.795 3.275.834 2 .211-.66-.322-1.65-.576-2.2-.563-.92.021-.904.049.2.352m-48.376 1.402c-.988.747-.339.739.976-.013.58-.332.748-.572.4-.573-.33-.001-.949.263-1.376.586m53.443.068c.956.393 1.553.944 1.713 1.583.457 1.82.191 15.889-.312 16.498-.371.451-.344.527.132.37.616-.203 1.139-14.859.608-17.025-.218-.887-2.093-2.143-3.088-2.068-.286.021.14.31.947.642m-135.996.954c-.29.464-.45.92-.356 1.014.278.277 1.173-.985 1.022-1.439-.077-.23-.377-.039-.666.425m-56.191.565c1.114 1.567 3.608 3.878 5.12 4.745 1.064.61 1.042.562-.2-.427-.77-.613-2.384-2.105-3.586-3.316-1.203-1.211-1.803-1.662-1.334-1.002m54.541 2.1c-.508.605-1.755 1.989-2.772 3.076-1.743 1.863-1.76 1.901-.29.66 1.411-1.19 2.146-1.991 3.799-4.136.869-1.127.273-.804-.737.4m74.843 2.891c-1.526 1.535-3.148 3.425-3.606 4.2-1.099 1.864-.755 1.804.529-.091.559-.825 2.219-2.715 3.688-4.2 1.47-1.485 2.558-2.7 2.418-2.7-.14 0-1.503 1.256-3.029 2.791M76.4 128.6c.274.33.678.6.898.6.223 0 .18-.265-.098-.6-.274-.33-.678-.6-.898-.6-.223 0-.18.265.098.6m36.8 0c-.278.335-.321.6-.098.6.22 0 .624-.27.898-.6.278-.335.321-.6.098-.6-.22 0-.624.27-.898.6m-33.248 1.648c1.183.54 2.243.89 2.355.778.112-.112-.316-.389-.952-.615-.635-.226-1.468-.591-1.85-.811-.382-.22-.922-.385-1.2-.367-.278.018.463.475 1.647 1.015m30.148-.312c-.935.352-1.7.773-1.7.937 0 .164.851-.066 1.892-.512 3.012-1.291 2.881-1.581-.192-.425m7.1.908c-.99.656-2.7 1.628-3.8 2.16-1.1.533-1.787.974-1.527.982.663.02 5.08-2.354 6.416-3.448 1.528-1.251 1.064-1.12-1.089.306m-33.4.641c.44.106.971.355 1.18.554.209.198.659.355 1 .348.492-.01.46-.133-.156-.6-.428-.323-1.238-.566-1.8-.541-.826.038-.869.084-.224.239m20.776.302c-.616.467-.648.59-.156.6.341.007.791-.152 1-.353.209-.202.83-.447 1.38-.546.888-.159.863-.185-.224-.234-.672-.029-1.572.21-2 .533M89.8 132.852c2.584.359 8.244.357 10.8-.005 1.214-.172-.908-.281-5.4-.278-4.443.003-6.601.116-5.4.283m131.8.588c-1.95.598-.345.554 2.1-.058l1.1-.275V159.6l-1.3.034-1.3.035 1.2.363c2.288.694 2.22 1.134 2.105-13.521L225.4 133l-1-.056c-.55-.031-1.81.192-2.8.496m17.1-.412c-.165.168-.3 6.675-.3 14.459v14.154l1.387.579c.763.319 1.708.568 2.1.553.874-.033-.237-.579-1.887-.927l-1-.211.11-14.261.11-14.262 1.29.251c.71.138 2.19.329 3.29.424 1.902.165 1.921.157.4-.161-3.279-.684-5.209-.894-5.5-.598m-45.015 1.385c-.267.427-.484 1.004-.483 1.282.002.278.275-.017.608-.655.693-1.329.601-1.79-.125-.627m-113.909.2c.428.323 1.238.579 1.8.569.848-.014.749-.116-.576-.594-1.997-.719-2.201-.715-1.224.025m29.424.012c-1.262.478-1.299.532-.376.552.562.013 1.372-.241 1.8-.564.933-.706.465-.702-1.424.012m108.027.038c-2.764 1.205-9.214 6.874-6.74 5.925.306-.117.879-.762 1.275-1.432.774-1.31 4.267-3.747 5.991-4.18.58-.145 1.153-.425 1.274-.62.299-.483-.171-.402-1.8.307m30.573-.085c.66.322 1.684.594 2.276.604.592.01 1.188.198 1.324.418.136.22.552.395.924.388 1.026-.019-.546-.853-2.314-1.227a139.38 139.38 0 0 1-2.41-.534c-.85-.2-.82-.148.2.351m-164.724 1.024c.263.281 1.433.567 2.6.635 2.035.118 2.057.109.524-.218-.88-.188-2.05-.473-2.6-.635-.801-.234-.905-.191-.524.218m23.324-.043c-.59.328-2.854.685-8 1.259l-2.6.29 3.2-.113c3.832-.136 7.743-.778 8.333-1.368.504-.504-.075-.546-.933-.068m147.4.726c.44.106.971.355 1.18.554.209.198.659.355 1 .347.393-.009.255-.223-.38-.586-.55-.314-1.36-.557-1.8-.539l-.8.032.8.192m-165.581.545c.125.204 1.598.37 3.271.37 1.674 0 2.968-.065 2.877-.145-.4-.349-6.359-.566-6.148-.225m104.254.057c-.26.26-.472.842-.471 1.293.003.678.107.62.608-.34.663-1.271.602-1.692-.137-.953m65.351.9c.427.323 1.046.587 1.376.586.348-.001.18-.241-.4-.573-1.315-.752-1.964-.76-.976-.013m2.576.995c0 .393 1.549 1.002 1.832.719.094-.094-.279-.376-.83-.627-.551-.251-1.002-.293-1.002-.092m-68.908 1.06c-.161.16-.287.666-.28 1.125.011.769.044.778.428.118.448-.769.333-1.725-.148-1.243m-.546 7.158c.001 2.2.068 3.049.149 1.887.081-1.163.081-2.963-.002-4-.082-1.038-.148-.087-.147 2.113m17.999-.12c.038 2.406.227 3.641.614 4 .47.437.505.393.223-.28-.185-.44-.462-2.24-.614-4l-.278-3.2.055 3.48m-45.569 4.507c-1.01.764-.572.772.878.015.63-.328.865-.598.522-.6-.342-.001-.972.262-1.4.585m3.324-.157c.962 1.019.69 20.18-.3 21.17-.44.44-.648.8-.462.8 1.745 0 2.587-21.79.862-22.317-.484-.148-.504-.081-.1.347m-6.8 1.617c-1.731.876-2.035 1.372-.4.651 2.157-.95 3.091-1.492 2.5-1.452-.33.023-1.275.383-2.1.801m31.328.429c-.015.592.152 1.188.372 1.324.478.295.478-.489 0-1.6-.307-.714-.347-.685-.372.276m-34.652 1.311c-.427.323-.596.588-.376.588.22 0 .749-.265 1.176-.588.428-.323.597-.587.377-.587-.22 0-.749.264-1.177.587M213.2 155.8c.274.33.678.6.898.6.223 0 .18-.265-.098-.6-.274-.33-.678-.6-.898-.6-.223 0-.18.265.098.6m-21.154.424c-.025.452.218 1.172.541 1.6.323.427.593.587.6.356.007-.231-.15-.591-.348-.8-.199-.209-.448-.74-.554-1.18-.188-.78-.193-.78-.239.024m-40.145.913c-.605.364-1.1.81-1.1.99-.001.18.539-.057 1.199-.527 1.777-1.266 1.715-1.558-.099-.463m63.105-.327c.286.462 2.681 1.636 2.898 1.42.095-.096-.565-.531-1.467-.966-.902-.436-1.546-.64-1.431-.454m-66.217 2.267c-.544.372-1.079.779-1.189.903-.11.125-.874.676-1.697 1.224-.824.548-1.499 1.133-1.5 1.3-.002.23 3.427-2.058 5.964-3.978.646-.489-.792.013-1.578.551m71.011-.065c2.004.722 2.278.718 1-.012-.55-.314-1.36-.57-1.8-.568-.44.002-.08.263.8.58m-26.6.435c0 .22.264.749.587 1.177.323.427.588.596.588.376 0-.22-.265-.749-.588-1.176-.323-.428-.587-.597-.587-.377m2 3.515c0 .517 1.753 2.638 2.175 2.632.29-.004.294-.1.011-.3-.227-.162-.812-.813-1.3-1.448-.487-.635-.886-1.032-.886-.884m49.6.428c.99.329 2.16.582 2.6.563.882-.038-1.271-.701-3.2-.984-.783-.115-.574.031.6.421m-103 1.031c-1.939 1.59-8.6 8.394-8.6 8.786 0 .275.402-.018.893-.653 1.21-1.564 4.953-5.29 6.885-6.854.867-.703 1.497-1.352 1.4-1.442-.098-.091-.358-.017-.578.163m108 .152c2.427 1.055 4.099 1.478 3.224.815-.428-.323-1.182-.588-1.677-.588-.495 0-1.011-.18-1.147-.4-.136-.22-.552-.388-.924-.374-.398.015-.183.24.524.547m5 1.713c.33.122.96.388 1.4.59.787.362.788.358.024-.254-.428-.342-1.058-.608-1.4-.59-.539.027-.542.061-.024.254m-55.2 1.649c0 .181.855.915 1.9 1.631 1.742 1.193 1.596 1.019-1-1.194-.495-.422-.9-.618-.9-.437m65.955 5.165c1.493 1.485 3.105 3.219 3.58 3.854.476.635.865 1.021.865.858 0-.538-2.529-3.579-4.582-5.51-3.057-2.874-2.954-2.274.137.798m-59.331-.513c.427.323 1.046.592 1.376.598.33.005.084-.259-.546-.587-1.459-.761-1.829-.766-.83-.011m-43.616 2.057c-2.814 1.697-4.48 2.956-3.911 2.956.223 0 .629-.27.903-.6.274-.33.746-.6 1.049-.6.303 0 .551-.135.551-.3.001-.165.901-.805 2-1.423 1.1-.618 2-1.203 2-1.3 0-.286-.088-.243-2.592 1.267m48.338-.042c.63.329 1.44.591 1.8.582.36-.008.048-.278-.692-.6-1.76-.764-2.582-.75-1.108.018m3.6 1.2c.63.329 1.53.59 2 .58.552-.011.289-.221-.746-.594-2.081-.749-2.705-.742-1.254.014m4.854 1.184c.66.318 1.83.564 2.6.546l1.4-.032-1.6-.277c-.88-.152-2.05-.398-2.6-.546-.801-.216-.762-.154.2.309m-62.63 1.682-.97 1.068 1.087-.768c.599-.422 1.094-.903 1.1-1.068.021-.493-.198-.354-1.217.768m67.441-.516c.764.535.785 1.006.679 14.588l-.11 14.036-1.29-.192-1.29-.192 1.113.442c2.347.931 2.287 1.299 2.287-14.141 0-14.516-.06-15.093-1.569-15.093-.458 0-.414.137.18.552m-96.355 1.61c-.581.762-1.056 1.511-1.056 1.665 0 .155.399-.238.886-.873.488-.635 1.067-1.279 1.289-1.432.221-.153.297-.383.169-.511-.128-.128-.708.39-1.288 1.151M151.2 183.6c-2.23 2.243-3.955 4.178-3.833 4.3.122.122.629-.3 1.127-.939 1.091-1.398 4.66-4.952 6.152-6.126.592-.465.971-.951.843-1.08-.129-.128-2.059 1.602-4.289 3.845m87.2 9.613c0 14.872-.054 14.547 2.287 13.623l1.113-.44-1.11.149c-1.547.206-1.467.934-1.501-13.691-.018-8.075-.178-13.254-.409-13.254-.232 0-.38 5.291-.38 13.613m2.746-12.997c.74.321 1.64.577 2 .568.36-.008.048-.278-.692-.6-.74-.321-1.64-.577-2-.568-.36.008-.048.278.692.6m29.654.031c0 .22.264.749.587 1.177.323.427.588.596.588.376 0-.22-.265-.749-.588-1.176-.323-.428-.587-.597-.587-.377m-23.854 1.955c1.45.757 1.888.749.878-.015-.428-.323-1.058-.586-1.4-.585-.343.002-.108.272.522.6m3.294 1.741c1.803 1.321 3.318 2.994 4.127 4.559.312.603.641 1.024.73.935.725-.726-4.703-6.637-6.095-6.637-.177 0 .38.514 1.238 1.143m-125.664.895c-.568.901-.969 1.702-.891 1.781.079.079.628-.658 1.22-1.638 1.35-2.236 1.069-2.358-.329-.143M272.21 184c.143.55.403 1.63.579 2.4l.319 1.4.032-1.4c.017-.77-.243-1.85-.579-2.4l-.611-1 .26 1m-125.866 5.1c-1.151 1.389-1.638 2.1-1.44 2.1.11 0 .682-.63 1.269-1.4 1.09-1.429 1.222-1.968.171-.7m108.984 3.7c0 1.43.073 2.015.161 1.3.089-.715.089-1.885 0-2.6-.088-.715-.161-.13-.161 1.3m-134.443-1.187c-.267.427-.478 1.004-.469 1.282.009.278.293-.006.631-.63.703-1.297.571-1.827-.162-.652M143.6 192.8c-.47.66-.707 1.199-.527 1.197.18-.001.634-.541 1.008-1.2.877-1.54.617-1.539-.481.003m-23.92 1.68c-.264.264-.459.849-.434 1.3.046.803.051.804.243.02.109-.44.38-1.025.603-1.3.518-.638.22-.652-.412-.02m71.787.987c-.147.146-.267 4.277-.267 9.179v8.913l1.387 1.058c.763.582 1.618.966 1.9.852.368-.148.343-.217-.087-.246-2.222-.15-2.364-.761-2.428-10.418l-.059-8.996.943-.264c.94-.264.939-.265-.089-.305-.569-.022-1.154.08-1.3.227m2.739.543c.286.462 2.681 1.636 2.898 1.42.095-.096-.565-.531-1.467-.966-.902-.436-1.546-.64-1.431-.454m-53.35 1.445c-.48 1.072-.47 1.103.162.484.371-.363.602-.879.513-1.145-.089-.267-.392.031-.675.661m113.355.256c-.329.789-.782 1.547-1.005 1.685-.223.138-.406.445-.406.682 0 .236.315-.001.7-.527 1.14-1.558 1.771-2.814 1.533-3.051-.122-.123-.492.422-.822 1.211m18.519.689c-.136.77-.365 1.85-.51 2.4-.155.588 0 .428.376-.389.352-.764.582-1.844.51-2.4-.112-.869-.164-.815-.376.389m-74.506-.213c.427.323 1.046.592 1.376.598.33.005.084-.259-.546-.587-1.459-.761-1.829-.766-.83-.011m-80.524 1.306c-.275.586-.493 1.346-.484 1.687.008.341.283.004.61-.75.708-1.631.595-2.474-.126-.937m84.846.709c1.45.757 1.888.749.878-.015-.428-.323-1.058-.586-1.4-.585-.343.002-.108.272.522.6m-63.613 1.227c-.252.534-.307.971-.122.971.347 0 .97-1.553.721-1.801-.077-.077-.347.296-.599.83m66.413-.027c1.45.757 1.888.749.878-.015-.428-.323-1.058-.586-1.4-.585-.343.002-.108.272.522.6m45.454.627c-1.819 1.567-1.988 1.682-3.352 2.289-.633.281-1.065.598-.959.704.41.411 5.317-2.801 5.686-3.722.27-.674.23-.653-1.375.729m-42.4.571c.55.314 1.27.577 1.6.583.33.007.084-.257-.546-.585-1.46-.762-2.387-.76-1.054.002m-91.979.949c-.268.646-.406 1.597-.308 2.113.158.833.184.811.233-.188.029-.62.249-1.49.486-1.935.238-.444.352-.888.254-.986-.098-.098-.397.35-.665.996m153.886 1.657c-.789 1.538-1.284 2.703-1.099 2.589.405-.25 2.849-5.072 2.664-5.256-.071-.072-.776 1.128-1.565 2.667M137.929 203.8c-.131.44-.371 1.16-.533 1.6-.252.686-.198.67.383-.107.372-.5.612-1.22.533-1.6-.125-.601-.176-.587-.383.107m76.236.83c.861.315 1.651.488 1.756.383.255-.256-1.799-1.02-2.647-.985-.371.016.03.286.891.602m4.235 1.191c2.349.74 3.472.714 1.4-.033-.88-.317-1.96-.567-2.4-.555-.44.011.01.276 1 .588m25.8-.221c-.136.22-.642.421-1.124.446-.64.034-.694.095-.199.225.372.098 1.182-.095 1.8-.43.751-.407.899-.614.447-.625-.372-.009-.788.164-.924.384m-107.762 2.898a292.2 292.2 0 0 1-.865 2.93c-.468 1.541-.469 1.879-.008 1.594.201-.125.482-.99.625-1.924.142-.934.452-2.199.688-2.811.236-.612.345-1.198.241-1.302-.105-.104-.411.577-.681 1.513m-20.971-1.031c-.147.146-.256.641-.242 1.1.024.766.057.756.409-.125.392-.979.31-1.453-.167-.975m-.766 3.733c-.697 4.552-.723 5.542-.078 3 .335-1.32.551-2.94.481-3.6-.109-1.027-.167-.94-.403.6m149.577 1.67c-2.769 2.778-3.293 3.623-1.011 1.63 2.721-2.376 4.734-4.554 4.095-4.43-.199.039-1.587 1.299-3.084 2.8M134.696 216c-.659 5.691-.692 7.577-.067 3.8.327-1.98.544-4.23.482-5-.083-1.025-.194-.704-.415 1.2m60.504-.18c0 .298 3.618 1.895 3.825 1.689.107-.107-.71-.57-1.816-1.03-1.105-.459-2.009-.756-2.009-.659m64.4.841c-1.455 1.062-1.358 1.093.5.162.605-.303 1.1-.703 1.1-.887 0-.446.011-.45-1.6.725m-59.376 1.526c.427.323 1.136.592 1.576.598.64.008.571-.11-.346-.587-1.47-.767-2.239-.774-1.23-.011m56.799.046c-.649.474-.669.567-.123.567.359 0 .771-.192.916-.427.424-.686.045-.753-.793-.14M113.762 225c0 3.52.062 4.906.136 3.081.074-1.825.074-4.705-.001-6.4-.075-1.695-.136-.201-.135 3.319m90.014-5.587c.428.323 1.157.587 1.62.587.464 0 1.041.197 1.282.438.24.24.771.362 1.18.27.483-.108.114-.344-1.058-.675-.99-.279-2.113-.671-2.495-.87-1.07-.559-1.395-.406-.529.25m50.624.02c-.623.346-.765.557-.376.561.342.003.972-.258 1.4-.581.97-.735.313-.721-1.024.02m-44.054 1.983c.74.321 1.64.57 2 .554.36-.017.024-.273-.746-.57-1.895-.73-2.941-.717-1.254.016m39.054-.002c-.665.305-.909.558-.546.568.36.01 1.17-.251 1.8-.58 1.43-.745.378-.735-1.254.012m-34.2 1.207c.99.312 2.34.555 3 .539.808-.018.417-.204-1.2-.568-3.129-.705-4.081-.69-1.8.029m29.6-.001c-1.538.44-1.625.516-.6.517.66.001 1.83-.24 2.6-.537 1.782-.686.419-.673-2 .02m-23.904.788c.163.175 1.117.442 2.12.594 1.121.171 1.68.134 1.452-.094-.453-.453-3.989-.948-3.572-.5m18.988.292c-.551.412-.687 1.378-.776 5.5l-.108 5h-7.1c-3.905 0-7.1.127-7.1.282.001 1.012 13.769.934 14.409-.082.208-.33.382-2.805.385-5.5.005-4.395.078-4.901.706-4.906.385-.003.97-.181 1.3-.394.494-.319.455-.389-.224-.394-.452-.003-1.124.219-1.492.494m-15.334 5.7c.001 2.42.066 3.358.146 2.085.08-1.273.079-3.253-.002-4.4-.08-1.147-.145-.105-.144 2.315m-90.312 0c.116 1.54.354 3.79.53 5l.319 2.2.027-1.8c.014-.99-.224-3.24-.529-5l-.556-3.2.209 2.8m-20.198 5.876c-.022.812.14 1.588.36 1.724.463.286.463-.755 0-2.2-.288-.898-.324-.85-.36.476m.869 3.924c0 .99.078 1.395.173.9a5.661 5.661 0 0 0 0-1.8c-.095-.495-.173-.09-.173.9m.297 2.676c-.003.482.174.988.394 1.124.509.315.509-.612 0-1.4-.315-.488-.389-.436-.394.276m.849 3.124c-.015.66.248 1.65.584 2.2l.611 1-.255-1c-.141-.55-.404-1.54-.584-2.2l-.329-1.2-.027 1.2m21.159-.746c-.008.25.255.97.584 1.6.328.63.592.876.585.546-.014-.717-1.148-2.8-1.169-2.146m1.642 4.291c.283.63.586.928.675.661.089-.266-.142-.782-.513-1.145-.632-.619-.642-.588-.162.484m-21.628.655c0 .33.258 1.05.572 1.6.33.578.572.747.572.4 0-.33-.258-1.05-.572-1.6-.33-.578-.572-.747-.572-.4m127.96 2.817c-.481.676-.779 1.325-.661 1.443.118.118.502-.342.854-1.023l.64-1.237h10.556c6.81 0 10.628.145 10.76.41.112.226.157.18.1-.1-.08-.395-2.507-.534-10.738-.616l-10.635-.107-.876 1.23m-104.763-.217c0 .22.265.749.588 1.176.323.428.587.597.587.377 0-.22-.264-.749-.587-1.177-.323-.427-.588-.596-.588-.376m126.396 2.101a68.72 68.72 0 0 1-.895 1.838c-.21.406-.286.835-.169.952.117.117.419-.306.671-.939.252-.634.631-1.485.843-1.891.211-.406.312-.811.224-.899-.088-.089-.392.334-.674.939m-147.619.523c-.001.342.262.972.585 1.4.764 1.01.772.572.015-.878-.328-.63-.598-.865-.6-.522m22.901.425c1.269 2.369 3.568 5.613 3.808 5.373.146-.146.091-.391-.123-.544-.539-.386-2.988-4.026-2.988-4.441 0-.186-.271-.564-.603-.839-.529-.44-.541-.385-.094.451m100.035 2.168c-.36.938.029 1.049.581.165.309-.495.335-.782.072-.782-.229 0-.523.278-.653.617m-121.738.31c0 .429 1.577 3.473 1.8 3.473.234 0-.606-1.96-1.282-2.989-.285-.434-.518-.652-.518-.484m119.375 3.341c-.616.808-.916 1.343-.666 1.188.512-.316 2.244-2.656 1.966-2.656-.099 0-.684.661-1.3 1.468m-93.003 1.032c.422.495 1.135 1.35 1.584 1.9.45.55.823.775.831.5.007-.275-.122-.501-.287-.503-.165-.001-.728-.631-1.252-1.4-.523-.768-1.107-1.397-1.297-1.397-.19 0-.001.405.421.9m-24.372-.253c0 .22.264.749.587 1.177.323.427.588.596.588.376 0-.22-.265-.749-.588-1.176-.323-.428-.587-.597-.587-.377m1.2 2.294c0 .49 2.052 3.541 2.249 3.344.105-.105-.279-.883-.852-1.728-1.199-1.766-1.397-1.995-1.397-1.616m138.057.716c-.282.452-.425.909-.317 1.016.107.108.404-.195.66-.673.605-1.13.324-1.41-.343-.343m-27.647 2.679c-1.645 1.644-2.635 2.794-2.2 2.555.962-.527 5.615-5.215 5.367-5.407-.097-.075-1.523 1.208-3.167 2.852m-82.41-.123c.55.643 1.27 1.38 1.6 1.638.33.257 1.14.947 1.8 1.531 2.012 1.783 3.902 2.999 2.129 1.37-3.327-3.058-6.463-5.632-5.529-4.539m108.152.687c-.581.935-1.259 1.96-1.505 2.277-.334.431-.329.506.021.296.508-.305 3.047-4.273 2.733-4.273-.105 0-.667.765-1.249 1.7m-131.739 2.817c-.019.467 2.532 3.849 2.917 3.867.182.009-.051-.479-.517-1.084l-1.617-2.1c-.423-.55-.775-.857-.783-.683m101.787.291c-1.518 1.397-3.369 2.792-3.704 2.792-.219 0-.622.27-.896.6-.274.33-.363.6-.198.6.341 0 5.798-3.989 5.798-4.238 0-.281-.583-.137-1 .246m23.534 5.492c-2.504 2.899-3.193 4.097-.978 1.7 1.786-1.933 3.404-4 3.131-4-.092 0-1.061 1.035-2.153 2.3m-120.892.1c1.382 1.871 4.999 5.6 5.431 5.6.137 0-.748-1.035-1.967-2.3a293.173 293.173 0 0 1-3.504-3.7l-1.289-1.4 1.329 1.8m30.365-.667c2.169 1.452 4.19 2.386 3.584 1.656-.269-.324-.65-.589-.848-.589-.197 0-1.072-.45-1.943-1-2-1.263-2.662-1.319-.793-.067m60.973-.561c-.209.204-1.339.85-2.51 1.436-1.172.585-2.052 1.143-1.957 1.238.243.244 4.183-1.838 4.733-2.501.51-.615.316-.742-.266-.173M168 278.6c1.315.752 1.964.76.976.013-.427-.323-1.046-.587-1.376-.586-.348.001-.18.241.4.573m49.284.015c-.662.751-.114.734.892-.028.546-.413.606-.582.2-.572-.317.009-.808.279-1.092.6m-47.201.801c.474.475 4.317 1.692 4.317 1.368 0-.191-.632-.466-1.404-.611-.773-.145-1.503-.423-1.624-.618-.121-.195-.509-.355-.862-.355-.354 0-.546.097-.427.216M215 279.6c-.136.22-.495.4-.798.4-.772 0-2.751.784-2.532 1.004.188.187 4.265-1.206 4.647-1.588.119-.119-.073-.216-.427-.216-.353 0-.754.18-.89.4m33.962 1.4c-.593.55-.918.997-.72.993.382-.007 2.395-1.993 2.021-1.993-.122 0-.707.45-1.301 1m-72.362.812c2.033.732 2.692.727 1.4-.012-.55-.314-1.45-.57-2-.568-.793.002-.668.123.6.58m31.842-.178c-1.663.665-.601.851 1.219.213 1.279-.448 1.474-.607.739-.603-.55.004-1.431.179-1.958.39m-68.81 2.383c.972.889 2.308 1.996 2.968 2.461.66.464.03-.256-1.4-1.601-1.43-1.344-2.766-2.452-2.968-2.461-.202-.009.428.712 1.4 1.601m41.768-1.023c1.1.325 2.54.572 3.2.548 1.296-.046.03-.363-3.6-.902-1.45-.215-1.412-.182.4.354m22.922-.383c-.116.117-1.001.367-1.967.557-.994.195-1.322.356-.755.371.55.015 1.99-.22 3.2-.522 1.724-.43 1.933-.556.967-.583-.679-.019-1.329.061-1.445.177M246 283.89c-.55.542-1.95 1.714-3.111 2.604-1.16.89-2.02 1.708-1.91 1.819.188.187 1.73-1.005 5.004-3.869.761-.666 1.301-1.285 1.2-1.375-.1-.091-.633.279-1.183.821m-56.009.16c1.683.195 4.307.195 6 .001 2.722-.313 2.438-.346-2.991-.347-5.415 0-5.708.034-3.009.346m-44.391 4.692c0 .417 1.985 1.807 2.23 1.562.088-.089-.378-.558-1.035-1.044-.657-.486-1.195-.719-1.195-.518m4.8 3.458c.274.33.669.6.878.6.208 0 .649.27.979.6.33.33.799.6 1.043.6.508 0-2.519-2.372-3.049-2.389-.192-.006-.125.259.149.589m82.081 1.481c-.725.448-1.245.889-1.154.979.23.231 2.667-1.193 2.67-1.56.004-.373.068-.397-1.516.581m-78.319.657c.108.176 1.962 1.182 4.118 2.235 5.664 2.767 5.698 2.782 5.932 2.548.118-.117-.377-.445-1.099-.728s-3.076-1.383-5.231-2.445c-2.155-1.061-3.829-1.786-3.72-1.61m75.262 1.075c-.428.323-.597.587-.377.587.22 0 .749-.264 1.177-.587.427-.323.596-.588.376-.588-.22 0-.749.265-1.176.588m-2.4 1.2c-.428.323-.597.587-.377.587.22 0 .749-.264 1.177-.587.427-.323.596-.588.376-.588-.22 0-.749.265-1.176.588m-4.624 2.02c-1.352.751-.389.722 1.054-.031.63-.328.876-.581.546-.56-.33.02-1.05.286-1.6.591m-56.624 1.18c.428.323 1.058.586 1.4.585.343-.002.108-.272-.522-.6-1.45-.757-1.888-.749-.878.015m53.424.02c-.877.487-.902.554-.2.548.44-.003 1.149-.271 1.576-.594 1.005-.76.017-.727-1.376.046m-3.2.997c-.55.19-1.81.621-2.8.959-1.904.65-1.001.567 2-.184.99-.248 1.971-.621 2.18-.828.454-.451.034-.435-1.38.053m-44.2.982c.88.317 1.96.567 2.4.555.44-.011-.01-.276-1-.588-2.349-.74-3.472-.714-1.4.033m5 1.149c.58.354 1.839.593 3 .569l2-.043-2-.298c-1.1-.164-2.45-.42-3-.569l-1-.27 1 .611m32.293-.32c-.132.132-1.197.379-2.367.55l-2.126.309 1.8.032c1.636.029 5.049-1.023 3.567-1.1-.349-.017-.742.076-.874.209m-25.893 1.44c1.396.689 18.591.693 20 .005.855-.418.681-.445-1.2-.187-2.865.392-15.226.389-17.8-.005-1.736-.266-1.868-.241-1 .187" fill="#cbe8f0"/>
  </g>
</svg>