<svg width="32" height="32" viewBox="0 0 32 32" fill="none" xmlns="http://www.w3.org/2000/svg">
<circle cx="16" cy="16" r="16" fill="#F5AC37"/>
<path d="M16.5898 17.1298H22.6695C22.7991 17.1298 22.8603 17.1298 22.8697 16.9599C22.9193 16.3414 22.9193 15.7193 22.8697 15.1001C22.8697 14.9799 22.8099 14.9302 22.6796 14.9302H10.5799C10.4301 14.9302 10.3898 14.9799 10.3898 15.1203V16.9001C10.3898 17.1298 10.3898 17.1298 10.6295 17.1298H16.5898ZM22.1907 12.8501C22.208 12.8047 22.208 12.7551 22.1907 12.7104C22.0892 12.4894 21.9689 12.2784 21.8293 12.0804C21.619 11.742 21.3713 11.4302 21.0891 11.1502C20.9559 10.981 20.8018 10.829 20.629 10.7002C19.7636 9.96359 18.7347 9.44231 17.6287 9.18022C17.0707 9.05494 16.5005 8.99518 15.9288 9.00022H10.559C10.4092 9.00022 10.3891 9.05998 10.3891 9.1903V12.7399C10.3891 12.8897 10.3891 12.93 10.5791 12.93H22.1187C22.1187 12.93 22.2188 12.9099 22.2389 12.8501H22.19H22.1907ZM22.1907 19.2099C22.0208 19.1912 21.8494 19.1912 21.6795 19.2099H10.5899C10.4402 19.2099 10.3898 19.2099 10.3898 19.4101V22.8805C10.3898 23.0404 10.3898 23.0807 10.5899 23.0807H15.7099C15.9547 23.0994 16.1995 23.0821 16.4393 23.031C17.1823 22.9777 17.9131 22.8164 18.6101 22.5508C18.8635 22.4629 19.1083 22.3484 19.3395 22.2109H19.4093C20.6096 21.5867 21.5844 20.606 22.1993 19.4022C22.1993 19.4022 22.2692 19.251 22.1907 19.2114V19.2099ZM8.38024 24.88V24.8202V22.4903V21.7004V19.3503C8.38024 19.22 8.38024 19.2006 8.22039 19.2006H6.05029C5.93005 19.2006 5.88037 19.2006 5.88037 19.0407V17.1406H8.20023C8.32984 17.1406 8.38024 17.1406 8.38024 16.9707V15.0908C8.38024 14.9705 8.38024 14.941 8.22039 14.941H6.05029C5.93005 14.941 5.88037 14.941 5.88037 14.7812V13.0215C5.88037 12.9113 5.88037 12.8818 6.04021 12.8818H8.19015C8.33992 12.8818 8.38024 12.8818 8.38024 12.6917V7.30172C8.38024 7.14188 8.38024 7.10156 8.5804 7.10156H16.08C16.6243 7.12316 17.165 7.18292 17.7 7.28156C18.8023 7.48533 19.8615 7.87917 20.8299 8.4415C21.4721 8.8195 22.0633 9.27598 22.5896 9.80159C22.9856 10.2127 23.3427 10.6577 23.6595 11.1314C23.9742 11.6117 24.2355 12.1251 24.4407 12.6615C24.4659 12.8011 24.5998 12.8955 24.7395 12.8717H26.5295C26.7591 12.8717 26.7591 12.8717 26.7692 13.092V14.7322C26.7692 14.892 26.7095 14.9324 26.5489 14.9324H25.1686C25.029 14.9324 24.9886 14.9324 24.9987 15.1124C25.0534 15.7215 25.0534 16.3328 24.9987 16.9419C24.9987 17.1118 24.9987 17.132 25.1895 17.132H26.7685C26.8383 17.222 26.7685 17.312 26.7685 17.4027C26.7786 17.5186 26.7786 17.636 26.7685 17.7519V18.9622C26.7685 19.1322 26.7188 19.1826 26.5683 19.1826H24.6783C24.5466 19.1574 24.4184 19.2416 24.3882 19.3726C23.9382 20.5427 23.2181 21.5917 22.2879 22.4327C21.9481 22.7387 21.5909 23.0267 21.218 23.2924C20.8176 23.5228 20.4281 23.7625 20.0177 23.9526C19.2624 24.2925 18.4704 24.543 17.6575 24.7021C16.8857 24.8404 16.103 24.903 15.3175 24.8922H8.37736V24.8821L8.38024 24.88Z" fill="#FEFEFD"/>
</svg>
