<svg width="32" height="32" viewBox="0 0 32 32" fill="none" xmlns="http://www.w3.org/2000/svg">
<circle cx="16" cy="16" r="16" fill="#333333"/>
<path fill-rule="evenodd" clip-rule="evenodd" d="M22.4337 12.1225L25.038 9.39413L22.7125 7.17438L20.1855 9.82176C19.7778 9.55175 19.3441 9.32085 18.8901 9.13281C17.9628 8.74867 16.9688 8.55096 15.965 8.55096C14.9612 8.55096 13.9673 8.74868 13.0399 9.13281C12.625 9.30468 12.227 9.51237 11.8503 9.75299L9.17727 7.20148L6.95752 9.52693L9.56481 12.0157C9.3065 12.4113 9.08481 12.831 8.90313 13.2696C8.519 14.1969 8.32129 15.1909 8.32129 16.1947C8.32129 17.1985 8.519 18.1924 8.90313 19.1198C9.06789 19.5176 9.26556 19.8998 9.49361 20.2625L6.74512 23.1419L9.07057 25.3617L11.7403 22.5648C12.1492 22.836 12.5843 23.0679 13.0399 23.2566C13.9673 23.6407 14.9612 23.8384 15.965 23.8384C16.9688 23.8384 17.9628 23.6407 18.8901 23.2566C19.3092 23.083 19.7109 22.8729 20.0908 22.6293L22.9249 25.3345L25.1447 23.0091L22.3723 20.3628C22.6276 19.9704 22.8469 19.5544 23.0269 19.1198C23.411 18.1924 23.6087 17.1985 23.6087 16.1947C23.6087 15.1909 23.411 14.1969 23.0269 13.2696C22.8615 12.8702 22.6629 12.4865 22.4337 12.1225ZM15.965 11.551C15.3552 11.551 14.7513 11.6711 14.1879 11.9044C13.6245 12.1378 13.1126 12.4799 12.6814 12.9111C12.2502 13.3423 11.9081 13.8542 11.6748 14.4176C11.4414 14.981 11.3213 15.5849 11.3213 16.1947C11.3213 16.8045 11.4414 17.4084 11.6748 17.9718C11.9081 18.5352 12.2502 19.0471 12.6814 19.4783C13.1126 19.9095 13.6245 20.2516 14.1879 20.4849C14.7513 20.7183 15.3552 20.8384 15.965 20.8384C16.5748 20.8384 17.1787 20.7183 17.7421 20.4849C18.3055 20.2516 18.8174 19.9095 19.2486 19.4783C19.6798 19.0471 20.0219 18.5352 20.2553 17.9718C20.4886 17.4084 20.6087 16.8045 20.6087 16.1947C20.6087 15.5849 20.4886 14.981 20.2553 14.4176C20.0219 13.8542 19.6798 13.3423 19.2486 12.9111C18.8174 12.4799 18.3055 12.1378 17.7421 11.9044C17.1787 11.6711 16.5748 11.551 15.965 11.551Z" fill="white"/>
</svg>
