<svg width="32" height="32" viewBox="0 0 32 32" fill="none" xmlns="http://www.w3.org/2000/svg">
<circle cx="16" cy="16" r="16" fill="#333333"/>
<path fill-rule="evenodd" clip-rule="evenodd" d="M22.4335 12.1225L25.0379 9.39413L22.7124 7.17438L20.1854 9.82176C19.7776 9.55175 19.344 9.32085 18.89 9.13281C17.9626 8.74867 16.9687 8.55096 15.9649 8.55096C14.9611 8.55096 13.9671 8.74868 13.0398 9.13281C12.6248 9.30468 12.2269 9.51237 11.8502 9.75299L9.17715 7.20148L6.9574 9.52693L9.56469 12.0157C9.30638 12.4113 9.08469 12.831 8.90301 13.2696C8.51888 14.1969 8.32117 15.1909 8.32117 16.1947C8.32117 17.1985 8.51888 18.1924 8.90301 19.1198C9.06777 19.5176 9.26544 19.8998 9.49348 20.2625L6.745 23.1419L9.07045 25.3617L11.7402 22.5648C12.1491 22.836 12.5842 23.0679 13.0398 23.2566C13.9671 23.6407 14.9611 23.8384 15.9649 23.8384C16.9687 23.8384 17.9626 23.6407 18.89 23.2566C19.309 23.083 19.7107 22.8729 20.0907 22.6293L22.9248 25.3345L25.1446 23.0091L22.3722 20.3628C22.6275 19.9704 22.8468 19.5544 23.0268 19.1198C23.4109 18.1924 23.6086 17.1985 23.6086 16.1947C23.6086 15.1909 23.4109 14.1969 23.0268 13.2696C22.8613 12.8702 22.6627 12.4865 22.4335 12.1225ZM15.9649 11.551C15.3551 11.551 14.7512 11.6711 14.1878 11.9044C13.6244 12.1378 13.1125 12.4799 12.6813 12.9111C12.2501 13.3423 11.908 13.8542 11.6746 14.4176C11.4413 14.981 11.3212 15.5849 11.3212 16.1947C11.3212 16.8045 11.4413 17.4084 11.6746 17.9718C11.908 18.5352 12.2501 19.0471 12.6813 19.4783C13.1125 19.9095 13.6244 20.2516 14.1878 20.4849C14.7512 20.7183 15.3551 20.8384 15.9649 20.8384C16.5747 20.8384 17.1786 20.7183 17.742 20.4849C18.3054 20.2516 18.8173 19.9095 19.2485 19.4783C19.6797 19.0471 20.0218 18.5352 20.2551 17.9718C20.4885 17.4084 20.6086 16.8045 20.6086 16.1947C20.6086 15.5849 20.4885 14.981 20.2551 14.4176C20.0218 13.8542 19.6797 13.3423 19.2485 12.9111C18.8173 12.4799 18.3054 12.1378 17.742 11.9044C17.1786 11.6711 16.5747 11.551 15.9649 11.551Z" fill="white"/>
</svg>
