<svg width="60" height="60" viewBox="0 0 60 60" fill="none" xmlns="http://www.w3.org/2000/svg">
<rect x="15" y="25" width="5" height="5" transform="rotate(-180 15 25)" fill="#FED955"/>
<rect x="15" y="35" width="5" height="5" transform="rotate(-180 15 35)" fill="#FED955"/>
<rect x="15" y="30" width="5" height="5" transform="rotate(-180 15 30)" fill="#FED955"/>
<rect x="15" y="40" width="5" height="5" transform="rotate(-180 15 40)" fill="#FED955"/>
<rect x="35" y="15" width="5" height="5" transform="rotate(-180 35 15)" fill="#FED955"/>
<rect width="5" height="5" transform="matrix(-1 8.74226e-08 8.7423e-08 1 35 45)" fill="#FED955"/>
<rect x="40" y="15" width="5" height="5" transform="rotate(-180 40 15)" fill="#FED955"/>
<rect x="45" y="15" width="5" height="5" transform="rotate(-180 45 15)" fill="#9695F8"/>
<rect width="5" height="5" transform="matrix(1 -8.74226e-08 -8.7423e-08 -1 15 15)" fill="#9695F8"/>
<rect width="5" height="5" transform="matrix(1 -8.74226e-08 -8.7423e-08 -1 45 45)" fill="#9695F8"/>
<rect x="15" y="45" width="5" height="5" transform="rotate(-180 15 45)" fill="#9695F8"/>
<rect x="40" y="10" width="5" height="5" transform="rotate(-180 40 10)" fill="#9695F8"/>
<rect x="40" y="5" width="5" height="5" transform="rotate(-180 40 5)" fill="#5552FD"/>
<rect x="40" y="60" width="5" height="5" transform="rotate(-180 40 60)" fill="#5552FD"/>
<rect x="40" y="55" width="5" height="5" transform="rotate(-180 40 55)" fill="#9695F8"/>
<rect x="30" y="10" width="5" height="5" transform="rotate(-180 30 10)" fill="#9695F8"/>
<rect x="30" y="5" width="5" height="5" transform="rotate(-180 30 5)" fill="#5552FD"/>
<rect x="30" y="60" width="5" height="5" transform="rotate(-180 30 60)" fill="#5552FD"/>
<rect x="30" y="55" width="5" height="5" transform="rotate(-180 30 55)" fill="#9695F8"/>
<rect x="35" y="10" width="5" height="5" transform="rotate(-180 35 10)" fill="#9695F8"/>
<rect x="35" y="5" width="5" height="5" transform="rotate(-180 35 5)" fill="#5552FD"/>
<rect x="35" y="60" width="5" height="5" transform="rotate(-180 35 60)" fill="#5552FD"/>
<rect x="35" y="55" width="5" height="5" transform="rotate(-180 35 55)" fill="#9695F8"/>
<rect x="25" y="10" width="5" height="5" transform="rotate(-180 25 10)" fill="#9695F8"/>
<rect x="25" y="5" width="5" height="5" transform="rotate(-180 25 5)" fill="#5552FD"/>
<rect x="25" y="60" width="5" height="5" transform="rotate(-180 25 60)" fill="#5552FD"/>
<rect x="25" y="55" width="5" height="5" transform="rotate(-180 25 55)" fill="#9695F8"/>
<rect x="50" y="20" width="5" height="5" transform="rotate(-180 50 20)" fill="#9695F8"/>
<rect width="5" height="5" transform="matrix(1 -8.74226e-08 -8.7423e-08 -1 10 20)" fill="#9695F8"/>
<rect width="5" height="5" transform="matrix(1 -8.74226e-08 -8.7423e-08 -1 40 50)" fill="#9695F8"/>
<rect x="20" y="50" width="5" height="5" transform="rotate(-180 20 50)" fill="#9695F8"/>
<rect x="55" y="25" width="5" height="5" transform="rotate(-180 55 25)" fill="#9695F8"/>
<rect x="10" y="25" width="5" height="5" transform="rotate(-180 10 25)" fill="#9695F8"/>
<rect x="5" y="25" width="5" height="5" transform="rotate(-180 5 25)" fill="#5552FD"/>
<rect x="10" y="20" width="5" height="5" transform="rotate(-180 10 20)" fill="#5552FD"/>
<rect width="5" height="5" transform="matrix(1 -8.74226e-08 -8.7423e-08 -1 50 20)" fill="#5552FD"/>
<rect x="45" y="55" width="5" height="5" transform="rotate(-180 45 55)" fill="#5552FD"/>
<rect x="5" y="45" width="5" height="5" transform="rotate(-90 5 45)" fill="#5552FD"/>
<rect x="15" y="15" width="5" height="5" transform="rotate(-180 15 15)" fill="#5552FD"/>
<rect width="5" height="5" transform="matrix(1 -8.74226e-08 -8.7423e-08 -1 45 15)" fill="#5552FD"/>
<rect x="50" y="50" width="5" height="5" transform="rotate(-180 50 50)" fill="#5552FD"/>
<rect x="10" y="50" width="5" height="5" transform="rotate(-90 10 50)" fill="#5552FD"/>
<rect x="20" y="10" width="5" height="5" transform="rotate(-180 20 10)" fill="#5552FD"/>
<rect width="5" height="5" transform="matrix(1 -8.74226e-08 -8.7423e-08 -1 40 10)" fill="#5552FD"/>
<rect x="55" y="45" width="5" height="5" transform="rotate(-180 55 45)" fill="#5552FD"/>
<rect x="15" y="55" width="5" height="5" transform="rotate(-90 15 55)" fill="#5552FD"/>
<rect x="60" y="25" width="5" height="5" transform="rotate(-180 60 25)" fill="#5552FD"/>
<rect x="55" y="30" width="5" height="5" transform="rotate(-180 55 30)" fill="#9695F8"/>
<rect x="10" y="30" width="5" height="5" transform="rotate(-180 10 30)" fill="#9695F8"/>
<rect x="5" y="30" width="5" height="5" transform="rotate(-180 5 30)" fill="#5552FD"/>
<rect x="60" y="30" width="5" height="5" transform="rotate(-180 60 30)" fill="#5552FD"/>
<rect x="55" y="35" width="5" height="5" transform="rotate(-180 55 35)" fill="#9695F8"/>
<rect x="10" y="35" width="5" height="5" transform="rotate(-180 10 35)" fill="#9695F8"/>
<rect x="5" y="35" width="5" height="5" transform="rotate(-180 5 35)" fill="#5552FD"/>
<rect x="60" y="35" width="5" height="5" transform="rotate(-180 60 35)" fill="#5552FD"/>
<rect x="55" y="40" width="5" height="5" transform="rotate(-180 55 40)" fill="#9695F8"/>
<rect x="10" y="40" width="5" height="5" transform="rotate(-180 10 40)" fill="#9695F8"/>
<rect x="5" y="40" width="5" height="5" transform="rotate(-180 5 40)" fill="#5552FD"/>
<rect x="60" y="40" width="5" height="5" transform="rotate(-180 60 40)" fill="#5552FD"/>
<rect width="5" height="5" transform="matrix(-1 8.74226e-08 8.7423e-08 1 40 45)" fill="#FED955"/>
<rect x="35" y="25" width="5" height="5" transform="rotate(-180 35 25)" fill="#FED955"/>
<rect x="35" y="35" width="5" height="5" transform="rotate(-180 35 35)" fill="#FED955"/>
<rect x="35" y="40" width="5" height="5" transform="rotate(-180 35 40)" fill="#FED955"/>
<rect x="35" y="20" width="5" height="5" transform="rotate(-180 35 20)" fill="#FED955"/>
<rect width="5" height="5" transform="matrix(-1 8.74226e-08 8.74229e-08 1 35 40)" fill="#FED955"/>
<rect x="25" y="35" width="5" height="5" transform="rotate(-180 25 35)" fill="#FED955"/>
<rect x="25" y="30" width="5" height="5" transform="rotate(-180 25 30)" fill="#FED955"/>
<rect x="25" y="40" width="5" height="5" transform="rotate(-180 25 40)" fill="#FED955"/>
<rect x="25" y="20" width="5" height="5" transform="rotate(-180 25 20)" fill="#FED955"/>
<rect width="5" height="5" transform="matrix(-1 8.74226e-08 8.74229e-08 1 25 40)" fill="#FED955"/>
<rect x="40" y="35" width="5" height="5" transform="rotate(-180 40 35)" fill="#FED955"/>
<rect x="40" y="30" width="5" height="5" transform="rotate(-180 40 30)" fill="#FED955"/>
<rect x="40" y="40" width="5" height="5" transform="rotate(-180 40 40)" fill="#FED955"/>
<rect x="40" y="20" width="5" height="5" transform="rotate(-180 40 20)" fill="#FED955"/>
<rect width="5" height="5" transform="matrix(-1 8.74226e-08 8.74229e-08 1 40 40)" fill="#FED955"/>
<rect x="30" y="15" width="5" height="5" transform="rotate(-180 30 15)" fill="#FED955"/>
<rect width="5" height="5" transform="matrix(-1 8.74226e-08 8.7423e-08 1 30 45)" fill="#FED955"/>
<rect x="25" y="15" width="5" height="5" transform="rotate(-180 25 15)" fill="#FED955"/>
<rect width="5" height="5" transform="matrix(-1 8.74226e-08 8.7423e-08 1 25 45)" fill="#FED955"/>
<rect x="30" y="25" width="5" height="5" transform="rotate(-180 30 25)" fill="#FED955"/>
<rect x="30" y="35" width="5" height="5" transform="rotate(-180 30 35)" fill="#FED955"/>
<rect x="25" y="25" width="5" height="5" transform="rotate(-180 25 25)" fill="#5552FD"/>
<rect x="35" y="30" width="5" height="5" transform="rotate(-180 35 30)" fill="#5552FD"/>
<rect x="45" y="25" width="5" height="5" transform="rotate(-180 45 25)" fill="#5552FD"/>
<rect x="45" y="35" width="5" height="5" transform="rotate(-180 45 35)" fill="#5552FD"/>
<rect x="45" y="30" width="5" height="5" transform="rotate(-180 45 30)" fill="#5552FD"/>
<rect x="45" y="40" width="5" height="5" transform="rotate(-180 45 40)" fill="#5552FD"/>
<rect x="45" y="20" width="5" height="5" transform="rotate(-180 45 20)" fill="#5552FD"/>
<rect width="5" height="5" transform="matrix(-1 8.74226e-08 8.74229e-08 1 45 40)" fill="#5552FD"/>
<rect x="20" y="25" width="5" height="5" transform="rotate(-180 20 25)" fill="#5552FD"/>
<rect x="20" y="35" width="5" height="5" transform="rotate(-180 20 35)" fill="#5552FD"/>
<rect x="20" y="30" width="5" height="5" transform="rotate(-180 20 30)" fill="#5552FD"/>
<rect x="20" y="40" width="5" height="5" transform="rotate(-180 20 40)" fill="#5552FD"/>
<rect x="20" y="20" width="5" height="5" transform="rotate(-180 20 20)" fill="#5552FD"/>
<rect width="5" height="5" transform="matrix(-1 8.74226e-08 8.74229e-08 1 20 40)" fill="#5552FD"/>
<rect x="40" y="25" width="5" height="5" transform="rotate(-180 40 25)" fill="#5552FD"/>
<rect x="30" y="30" width="5" height="5" transform="rotate(-180 30 30)" fill="#5552FD"/>
<rect x="30" y="40" width="5" height="5" transform="rotate(-180 30 40)" fill="#FED955"/>
<rect x="30" y="20" width="5" height="5" transform="rotate(-180 30 20)" fill="#FED955"/>
<rect width="5" height="5" transform="matrix(-1 8.74226e-08 8.74229e-08 1 30 40)" fill="#FED955"/>
<rect x="50" y="25" width="5" height="5" transform="rotate(-180 50 25)" fill="#FED955"/>
<rect x="50" y="35" width="5" height="5" transform="rotate(-180 50 35)" fill="#FED955"/>
<rect x="50" y="30" width="5" height="5" transform="rotate(-180 50 30)" fill="#FED955"/>
<rect x="50" y="40" width="5" height="5" transform="rotate(-180 50 40)" fill="#FED955"/>
</svg>