<svg width="62" height="32" viewBox="0 0 62 32" fill="none" xmlns="http://www.w3.org/2000/svg">
<circle cx="46" cy="16" r="16" fill="#333333"/>
<path fill-rule="evenodd" clip-rule="evenodd" d="M52.4335 12.1225L55.0379 9.39413L52.7124 7.17438L50.1854 9.82176C49.7776 9.55175 49.344 9.32085 48.89 9.13281C47.9626 8.74867 46.9687 8.55096 45.9649 8.55096C44.9611 8.55096 43.9671 8.74868 43.0398 9.13281C42.6248 9.30468 42.2269 9.51237 41.8502 9.75299L39.1771 7.20148L36.9574 9.52693L39.5647 12.0157C39.3064 12.4113 39.0847 12.831 38.903 13.2696C38.5189 14.1969 38.3212 15.1909 38.3212 16.1947C38.3212 17.1985 38.5189 18.1924 38.903 19.1198C39.0678 19.5176 39.2654 19.8998 39.4935 20.2625L36.745 23.1419L39.0704 25.3617L41.7402 22.5648C42.1491 22.836 42.5842 23.0679 43.0398 23.2566C43.9671 23.6407 44.9611 23.8384 45.9649 23.8384C46.9687 23.8384 47.9626 23.6407 48.89 23.2566C49.309 23.083 49.7107 22.8729 50.0907 22.6293L52.9248 25.3345L55.1446 23.0091L52.3722 20.3628C52.6275 19.9704 52.8468 19.5544 53.0268 19.1198C53.4109 18.1924 53.6086 17.1985 53.6086 16.1947C53.6086 15.1909 53.4109 14.1969 53.0268 13.2696C52.8613 12.8702 52.6627 12.4865 52.4335 12.1225ZM45.9649 11.551C45.3551 11.551 44.7512 11.6711 44.1878 11.9044C43.6244 12.1378 43.1125 12.4799 42.6813 12.9111C42.2501 13.3423 41.908 13.8542 41.6746 14.4176C41.4413 14.981 41.3212 15.5849 41.3212 16.1947C41.3212 16.8045 41.4413 17.4084 41.6746 17.9718C41.908 18.5352 42.2501 19.0471 42.6813 19.4783C43.1125 19.9095 43.6244 20.2516 44.1878 20.4849C44.7512 20.7183 45.3551 20.8384 45.9649 20.8384C46.5747 20.8384 47.1786 20.7183 47.742 20.4849C48.3054 20.2516 48.8173 19.9095 49.2485 19.4783C49.6797 19.0471 50.0218 18.5352 50.2551 17.9718C50.4885 17.4084 50.6086 16.8045 50.6086 16.1947C50.6086 15.5849 50.4885 14.981 50.2551 14.4176C50.0218 13.8542 49.6797 13.3423 49.2485 12.9111C48.8173 12.4799 48.3054 12.1378 47.742 11.9044C47.1786 11.6711 46.5747 11.551 45.9649 11.551Z" fill="white"/>
<path d="M0 16C0 7.16344 7.16344 0 16 0C24.8366 0 32 7.16344 32 16C32 24.8366 24.8366 32 16 32C7.16344 32 0 24.8366 0 16Z" fill="#708B96"/>
<path fill-rule="evenodd" clip-rule="evenodd" d="M17.536 23.04L17.536 23.072H23.04V21.088H20.322C21.9574 19.849 23.008 17.923 23.008 15.76C23.008 12.0221 19.8704 8.992 16 8.992C12.1296 8.992 8.99202 12.0221 8.99202 15.76C8.99202 17.923 10.0427 19.849 11.678 21.088H8.96002V23.072H14.464V23.04V22.3649V20.4054C12.4586 19.7742 11.008 17.9401 11.008 15.776C11.008 13.0897 13.243 10.912 16 10.912C18.757 10.912 20.992 13.0897 20.992 15.776C20.992 17.9401 19.5415 19.7742 17.536 20.4054V23.04Z" fill="white"/>
</svg>
