<svg xmlns="http://www.w3.org/2000/svg" width="400" height="206.452">
  <g fill-rule="evenodd">
    <path d="M184.046 48.666c-.285.115-.148.482.181.482.113 0 .154-.085.09-.189-.065-.104 0-.236.142-.293.143-.058.167-.105.053-.105-.113 0-.323.047-.466.105m128.396 9.155c0 .114-.165.207-.368.207-.202 0-.501.186-.665.413-.163.227-.379.413-.479.413-.099 0-.441.279-.76.619-.318.341-.706.62-.863.62-.156 0-.418.186-.582.413-.164.227-.423.413-.577.413-.335 0-.869.501-.869.816 0 .507-2.238 2.463-2.977 2.602-.407.076-.74.221-.74.322s-.279.184-.619.184c-.341 0-.62.092-.62.206 0 .114-.418.207-.929.207-.511 0-.929.092-.929.206 0 .114-.142.207-.315.207-.54 0-2.576 2.199-2.576 2.783 0 .286-.093.521-.207.521-.114 0-.206.278-.206.619 0 .341-.093.62-.207.62-.114 0-.206.141-.206.314 0 .466-2.196 2.577-2.681 2.577-.229 0-.417.119-.417.264 0 .145-.186.398-.413.562-.427.307-.572 1.032-.207 1.032.114 0 .207.465.207 1.033 0 .568.08 1.032.178 1.032.097 0 .232.533.299 1.184.068.652.22 1.217.339 1.257.119.039.216.25.216.468 0 .217.093.395.207.395.114 0 .206.166.206.368 0 .202.198.504.44.671.828.572 2.452 2.239 2.452 2.516 0 .153.185.412.413.576.227.163.413.463.413.665s.093.367.206.367c.114 0 .207.186.207.413 0 .227.093.413.206.413.114 0 .207.143.207.317 0 .52 1.373 1.748 1.955 1.748.287 0 .523.093.523.207 0 .113.139.206.309.206.171 0 .31.093.31.207 0 .113.279.206.62.206.34 0 .619.093.619.207 0 .113.279.206.62.206.34 0 .619.084.619.186 0 .103.558.251 1.239.33.682.079 1.239.228 1.239.33 0 .103.279.187.62.187.341 0 .619.093.619.206 0 .114.186.207.413.207.227 0 .413.093.413.206 0 .114.166.207.368.207.202 0 .504.197.671.438.167.241.42.56.562.708.142.148.258.416.258.594 0 .179.093.325.206.325.114 0 .207.464.207 1.032 0 .568.093 1.033.206 1.033.121 0 .207.688.207 1.652 0 .963.086 1.652.206 1.652.117 0 .207.585.207 1.342 0 .757-.09 1.342-.207 1.342-.113 0-.206.465-.206 1.033 0 .568-.093 1.032-.207 1.032-.113 0-.206.279-.206.62 0 .341-.093.619-.207.619-.113 0-.206.147-.206.325 0 .178-.116.446-.258.594a7.21 7.21 0 0 0-.562.708c-.167.241-.469.439-.671.439-.202 0-.368.084-.368.188 0 .103-.355.248-.789.322-.434.073-.919.313-1.078.534-.419.581-1.85.013-1.85-.735 0-.258-1.029-1.135-1.333-1.135-.175 0-.319-.093-.319-.207 0-.114-.186-.206-.413-.206-.227 0-.413-.093-.413-.207 0-.114-.186-.206-.413-.206-.227 0-.413-.093-.413-.207 0-.114-.232-.207-.516-.207-.284 0-.516-.092-.516-.206 0-.115-.551-.207-1.239-.207-.689 0-1.239.092-1.239.207 0 .114-.372.206-.826.206-.455 0-.826.093-.826.207 0 .114-.279.207-.62.207-.341 0-.619.092-.619.206 0 .114-.186.207-.413.207-.228 0-.413.092-.413.206 0 .114-.186.207-.414.207-.227 0-.413.092-.413.206 0 .114-.139.207-.309.207-.171 0-.31.092-.31.206 0 .114.097.207.215.207.399 0 5.774 5.198 5.774 5.584 0 .399.573.817 1.121.817.292 0 .531.093.531.207 0 .113.232.206.516.206.284 0 .516.093.516.207 0 .113.372.206.826.206.455 0 .826.093.826.207 0 .113.465.206 1.033.206.568 0 1.032.093 1.032.207 0 .113.372.206.826.206.455 0 .826.093.826.207 0 .113.186.206.413.206.227 0 .413.085.413.189 0 .103.355.248.789.321.457.077.914.315 1.084.565.163.237.598.739.967 1.117.369.377.671.786.671.908 0 .123.232.456.517.74l.516.516 1.435-1.455c.79-.8 1.559-1.455 1.71-1.455.15 0 .407-.186.571-.412.192-.268.643-.458 1.284-.543.544-.072.988-.212.988-.311s.232-.18.516-.18c.284 0 .517-.093.517-.206 0-.114.185-.207.413-.207.227 0 .413-.093.413-.206 0-.114.185-.207.413-.207.227 0 .413-.093.413-.206 0-.114.185-.207.413-.207.227 0 .413-.093.413-.206 0-.114.144-.207.321-.207.177 0 .868-.557 1.537-1.239.669-.681 1.322-1.239 1.45-1.239.275 0 1.854-1.597 1.854-1.875 0-.105.142-.19.315-.19.174 0 .726-.395 1.228-.878 1.28-1.232 1.495-1.393 1.856-1.393a.322.322 0 0 0 .318-.325c0-.417.498-.914.915-.914.187 0 .324-.176.324-.413 0-.228.093-.414.207-.414.113 0 .206-.185.206-.413 0-.227.093-.413.207-.413.113 0 .206-.185.206-.413 0-.227.093-.413.207-.413.114 0 .206-.185.206-.413 0-.227.093-.413.207-.413.114 0 .206-.278.206-.619 0-.341.093-.62.207-.62.114 0 .206-.511.206-1.135 0-.625-.092-1.136-.206-1.136-.114 0-.207-.279-.207-.62 0-.34-.092-.619-.206-.619-.114 0-.207-.279-.207-.62 0-.34-.092-.619-.206-.619-.114 0-.207-.279-.207-.62 0-.34-.093-.619-.206-.619-.114 0-.207-.186-.207-.413 0-.227-.093-.413-.206-.413-.114 0-.207-.186-.207-.413 0-.276-.137-.413-.413-.413-.227 0-.413-.093-.413-.207 0-.113-.165-.206-.367-.206-.202 0-.501-.186-.665-.413-.164-.227-.421-.413-.571-.413-.15 0-1.428-1.162-2.841-2.582-1.412-1.419-2.709-2.581-2.882-2.581-.173 0-.314-.093-.314-.206 0-.114-.186-.207-.413-.207-.227 0-.413-.093-.413-.206 0-.114-.186-.207-.413-.207-.227 0-.413-.093-.413-.206 0-.114-.186-.207-.413-.207-.228 0-.413-.093-.413-.206 0-.114-.279-.207-.62-.207-.341 0-.619-.093-.619-.206 0-.114-.186-.207-.413-.207-.228 0-.413-.093-.413-.206 0-.114-.326-.207-.723-.207-.398 0-.723-.093-.723-.206 0-.114-.186-.207-.413-.207-.227 0-.413-.093-.413-.207 0-.113-.141-.206-.314-.206-.348 0-2.577-2.139-2.577-2.474a.21.21 0 0 0-.207-.211c-.118 0-.206-.619-.206-1.445 0-.826-.089-1.446-.207-1.446-.122 0-.206-.751-.206-1.841 0-1.271-.08-1.879-.258-1.962-.207-.096-.207-.144 0-.241.142-.066.258-.345.258-.619 0-.275.093-.499.206-.499.114 0 .207-.166.207-.368 0-.202.186-.501.413-.665.227-.164.413-.463.413-.665 0-.23.155-.367.413-.367.227 0 .413-.093.413-.207 0-.113.186-.206.413-.206.227 0 .413-.093.413-.207 0-.113.186-.206.413-.206.227 0 .413-.093.413-.207 0-.113.418-.206.929-.206.511 0 .93-.093.93-.207 0-.113.185-.206.413-.206.227 0 .413.093.413.206 0 .129 1.211.207 3.221.207h3.221l.548-.615c.982-1.104 1.063-1.223 1.063-1.545 0-.175-.093-.318-.206-.318-.114 0-.207-.18-.207-.399 0-.219-.139-.537-.309-.708-.171-.17-.31-.413-.31-.54 0-.51-.983-1.19-1.923-1.331-.533-.08-.968-.233-.968-.339 0-.107-.186-.194-.413-.194-.227 0-.413-.093-.413-.206 0-.114-.143-.207-.317-.207-.411 0-1.748-1.337-1.748-1.748 0-.179-.18-.317-.413-.317-.228 0-.413-.093-.413-.207 0-.113-.279-.206-.62-.206-.341 0-.619-.093-.619-.207 0-.113-.14-.206-.31-.206-.171 0-.31-.093-.31-.207 0-.113-.186-.206-.413-.206-.227 0-.413-.093-.413-.207 0-.113-.186-.206-.413-.206-.227 0-.413-.093-.413-.207 0-.113-.186-.206-.413-.206-.227 0-.413-.093-.413-.207 0-.113-.186-.206-.413-.206-.227 0-.413-.093-.413-.207 0-.113-.186-.206-.413-.206-.227 0-.413-.093-.413-.207 0-.113-.186-.206-.413-.206-.227 0-.413-.093-.413-.207 0-.113-.279-.206-.62-.206-.34 0-.619.093-.619.206m-4.337 12.184c0 .114.372.207.826.207.455 0 .826.093.826.206 0 .114.186.207.413.207.228 0 .413.093.413.206 0 .114.1.207.222.207.329 0 .811.543.811.914 0 .179.093.325.206.325.114 0 .207.186.207.413 0 .227.093.413.206.413.114 0 .207.232.207.516 0 .284.093.516.206.516.114 0 .207.186.207.413 0 .227-.093.413-.207.413-.118 0-.206.62-.206 1.446s-.089 1.445-.207 1.445c-.114 0-.206.551-.206 1.239 0 .689-.092 1.239-.207 1.239-.113 0-.206.273-.206.606 0 .419-.124.645-.403.733a.921.921 0 0 0-.53.531c-.07.221-.307.402-.527.402-.219 0-.399.093-.399.206 0 .114-.185.207-.413.207-.227 0-.413.093-.413.206 0 .114-.278.207-.619.207-.341 0-.62.093-.62.206 0 .114-.371.207-.826.207-.454 0-.826-.093-.826-.207 0-.113-.186-.206-.413-.206-.227 0-.413-.093-.413-.207 0-.113-.146-.206-.324-.206-.418 0-.915-.497-.915-.915 0-.178-.093-.324-.206-.324-.114 0-.207-.139-.207-.31 0-.17-.093-.31-.206-.31-.114 0-.207-.371-.207-.826 0-.454-.093-.826-.206-.826-.114 0-.207-.371-.207-.826 0-.454-.082-.826-.182-.826-.1 0-.25-.72-.332-1.6-.082-.88-.255-1.67-.385-1.755-.17-.112-.173-.199-.01-.31.124-.085.29-.416.368-.734.162-.664 2.233-2.828 2.705-2.828.173 0 .314-.093.314-.207 0-.113.186-.206.413-.206.227 0 .413-.093.413-.207 0-.113.465-.206 1.033-.206.568 0 1.032.093 1.032.206M273.531 82.29c-.398.399-.829.725-.958.725s-.494.279-.813.619c-.318.341-.706.62-.863.62-.156 0-.418.186-.582.413-.164.227-.443.413-.62.413s-.455.186-.619.413c-.164.227-.463.413-.665.413s-.368.09-.368.2c0 .109-.325.525-.722.922-.398.398-.723.845-.723.994 0 .149-.186.405-.413.569-.227.163-.413.428-.413.589 0 .304-.76 1.063-1.064 1.063-.097 0-.175.142-.175.317 0 .174-.929 1.239-2.065 2.367s-2.065 2.173-2.065 2.322c0 .149-.181.402-.401.561-.221.159-.462.644-.535 1.078-.073.434-.218.789-.321.789-.104 0-.189.186-.189.413 0 .227-.093.413-.206.413-.114 0-.207.139-.207.31 0 .17-.093.309-.206.309-.114 0-.207.279-.207.62 0 .341-.093.619-.206.619-.114 0-.207.372-.207.826 0 .455-.093.826-.206.826-.114 0-.207.372-.207.826 0 .455-.093.826-.206.826-.114 0-.207.186-.207.413 0 .228-.093.413-.206.413-.114 0-.207.147-.207.326 0 .18-.372.684-.826 1.12-.454.437-.826.987-.826 1.223 0 .236-.093.429-.206.429-.114 0-.207.372-.207.826 0 .454-.093.826-.206.826-.114 0-.207.465-.207 1.033 0 .568-.093 1.032-.206 1.032-.133 0-.207 1.893-.207 5.266s.074 5.266.207 5.266c.114 0 .206.551.206 1.239 0 .688.092 1.239.207 1.239.113 0 .206.325.206.723 0 .397.093.722.207.722.113 0 .206.149.206.331 0 .181.279.59.62.909.34.318.619.706.619.863 0 .156.186.418.413.582.243.175.413.535.413.872 0 .315.093.574.207.574.113 0 .206.371.206.826 0 .454.093.826.207.826.113 0 .206.371.206.826 0 .454.093.826.207.826.113 0 .206.139.206.309 0 .171.093.31.207.31.113 0 .206.186.206.413 0 .227.093.413.207.413.113 0 .206.279.206.62 0 .34.085.619.189.619.103 0 .248.355.321.789.073.434.314.919.535 1.078.22.159.401.412.401.562 0 .26 2.565 2.87 3.904 3.973.344.284.629.658.633.832.003.174.192.45.419.613.227.164.413.463.413.666 0 .202.093.367.206.367.114 0 .207.142.207.315 0 .351 1.726 2.163 2.059 2.163a.21.21 0 0 1 .212.207c0 .113.186.206.413.206.228 0 .413.093.413.207 0 .113.186.206.413.206.228 0 .413.093.413.207 0 .113.186.206.413.206.228 0 .413.093.413.207 0 .113.166.206.368.206.202 0 .501.186.665.413.164.227.421.413.571.413.151 0 .506.232.79.516.284.284.661.517.837.517.176 0 .581.278.9.619.318.341.721.62.894.62.174 0 .376.185.448.413.072.227.31.413.53.413.219 0 .399.093.399.206 0 .114.186.207.413.207.227 0 .413.093.413.206 0 .114.279.207.62.207.34 0 .619.093.619.206 0 .114.279.207.62.207.34 0 .619.093.619.206 0 .114.465.207 1.033.207.568 0 1.032.093 1.032.206 0 .114.465.207 1.033.207.568 0 1.032.093 1.032.206 0 .114.326.207.723.207.398 0 .723.093.723.206 0 .129 1.239.207 3.304.207 2.065 0 3.304.077 3.304.206 0 .114.418.207.929.207.511 0 .929-.093.929-.207 0-.128 1.171-.206 3.098-.206 1.927 0 3.098-.078 3.098-.207 0-.113.418-.206.929-.206.511 0 .929-.093.929-.207 0-.113.465-.206 1.033-.206.568 0 1.032-.093 1.032-.207 0-.113.465-.206 1.033-.206.568 0 1.032-.093 1.032-.207 0-.113.279-.206.62-.206.341 0 .619-.093.619-.207 0-.113.186-.206.413-.206.227 0 .413-.093.413-.207 0-.113.186-.206.413-.206.228 0 .413-.093.413-.207 0-.113.186-.206.413-.206.228 0 .413-.093.413-.207 0-.113.102-.206.227-.206s.488-.279.806-.62c.318-.341.727-.619.909-.619.181 0 .33-.092.33-.203 0-.111.255-.266.568-.344.312-.078.814-.406 1.115-.727.301-.322.676-.585.832-.585.157 0 .419-.186.583-.413.163-.227.463-.413.665-.413s.367-.093.367-.206c0-.114.186-.207.413-.207.227 0 .413-.093.413-.206 0-.114.186-.207.413-.207.227 0 .413-.093.413-.206 0-.114.139-.207.31-.207.17 0 .31-.093.31-.207 0-.113.143-.206.319-.206.39 0 1.333-.91 1.333-1.287 0-.151.185-.408.413-.572.227-.163.413-.442.413-.619s.185-.456.413-.62c.227-.163.413-.425.413-.582 0-.371 1.193-1.483 1.591-1.483.169 0 .568-.278.887-.619.318-.341.684-.62.812-.62.855 0 1.641-1.401 1.785-3.181.079-.976.224-1.775.322-1.775s.178-.511.178-1.136c0-.624.093-1.135.207-1.135.381 0 .211-.634-.31-1.155-.284-.284-.516-.605-.516-.713 0-.109-.152-.197-.337-.197-.186 0-.524-.209-.751-.465-.28-.315-.443-.382-.506-.207-.051.142-.271.259-.488.259-.218 0-.396.093-.396.206 0 .114-.166.207-.368.207-.202 0-.501.185-.665.413-.164.227-.423.413-.576.413-.373 0-.869.514-.869.9 0 .171-.186.37-.413.442-.228.072-.413.218-.413.324 0 .106-.186.192-.413.192-.228 0-.413.093-.413.207 0 .113-.186.206-.413.206-.228 0-.413.093-.413.207 0 .113-.186.206-.413.206-.228 0-.413.093-.413.207a.21.21 0 0 1-.212.206c-.309 0-2.06 1.8-2.06 2.117 0 .149-.186.404-.413.568-.227.163-.413.463-.413.665s-.093.367-.206.367c-.114 0-.207.142-.207.315 0 .7-2.214 2.576-3.2 2.712-.512.07-.93.207-.93.305 0 .099-.186.179-.413.179-.227 0-.413.093-.413.206 0 .114-.14.207-.31.207-.17 0-.31.093-.31.206 0 .114-.185.207-.413.207-.227 0-.413.093-.413.206 0 .114-.165.207-.367.207-.202 0-.501.186-.665.413-.164.227-.443.413-.62.413s-.455.186-.619.413c-.164.227-.424.413-.578.413-.154 0-.638.372-1.074.826-.437.454-.941.826-1.12.826-.179 0-.326.093-.326.206 0 .114-.186.207-.413.207-.227 0-.413.093-.413.207 0 .113-.232.206-.516.206-.284 0-.516.093-.516.207 0 .113-.372.206-.826.206-.455 0-.826.093-.826.207 0 .125-.895.206-2.272.206-1.377 0-2.271.081-2.271.207 0 .124-.861.206-2.169.206s-2.168-.082-2.168-.206c0-.126-.895-.207-2.272-.207-1.376 0-2.271-.081-2.271-.206 0-.114-.372-.207-.826-.207-.455 0-.826-.093-.826-.206 0-.114-.233-.207-.516-.207-.284 0-.517-.093-.517-.206 0-.114-.186-.207-.413-.207-.227 0-.413-.093-.413-.207 0-.113-.165-.206-.367-.206-.202 0-.502-.186-.665-.413-.164-.227-.426-.413-.583-.413-.156 0-.545-.279-.863-.62-.318-.34-.707-.619-.863-.619-.157 0-.419-.186-.582-.413-.164-.227-.443-.413-.62-.413s-.456-.186-.619-.413c-.164-.227-.463-.413-.665-.413-.203 0-.368-.093-.368-.207 0-.113-.186-.206-.413-.206-.227 0-.413-.093-.413-.207 0-.113-.139-.206-.31-.206-.17 0-.309-.081-.309-.18 0-.099-.445-.239-.988-.311-.642-.085-1.092-.275-1.285-.543-.163-.226-.422-.412-.576-.412-.378 0-.869-.516-.869-.914 0-.179-.092-.325-.206-.325-.114 0-.207-.165-.207-.367 0-.202-.185-.501-.413-.665-.227-.164-.413-.426-.413-.582 0-.157-.278-.545-.619-.864-.341-.318-.62-.687-.62-.82 0-.315-.521-.832-.838-.832-.271 0-1.02-.781-1.02-1.064 0-.096-.144-.175-.319-.175-.36 0-1.333-.898-1.333-1.229a.212.212 0 0 0-.207-.216c-.113 0-.206-.186-.206-.413 0-.228-.093-.413-.207-.413-.113 0-.206-.279-.206-.62 0-.341-.093-.619-.207-.619-.113 0-.206-.186-.206-.413 0-.228-.093-.413-.207-.413-.113 0-.206-.279-.206-.62 0-.341-.093-.619-.207-.619-.113 0-.206-.279-.206-.62 0-.341-.093-.619-.207-.619-.113 0-.206-.372-.206-.826 0-.455-.093-.827-.207-.827-.113 0-.206-.418-.206-.929 0-.511-.093-.929-.207-.929-.113 0-.206-.372-.206-.826 0-.454-.093-.826-.207-.826-.113 0-.206-.372-.206-.826 0-.454-.093-.826-.207-.826-.13 0-.206-1.48-.206-4.027s.076-4.027.206-4.027c.114 0 .207-.372.207-.826 0-.454.093-.826.206-.826.114 0 .207-.279.207-.619 0-.341.093-.62.206-.62.114 0 .207-.465.207-1.032 0-.568.093-1.033.206-1.033.114 0 .207-.325.207-.723 0-.397.093-.722.206-.722.114 0 .207-.279.207-.62 0-.341.093-.62.206-.62.114 0 .207-.278.207-.619 0-.341.093-.62.206-.62.114 0 .207-.278.207-.619 0-.341.093-.62.206-.62.114 0 .207-.185.207-.413 0-.227.093-.413.206-.413.114 0 .207-.185.207-.413 0-.227.093-.413.206-.413.114 0 .207-.148.207-.33 0-.341 1.613-1.941 1.957-1.941.242 0 2.379-2.274 2.379-2.531 0-.148.186-.403.413-.567.228-.163.413-.442.413-.619s.186-.456.413-.62c.228-.163.413-.419.413-.567 0-.376 1.779-2.117 2.163-2.117.174 0 .316-.093.316-.207 0-.113.143-.206.319-.206.413 0 3.191-2.784 3.191-3.197 0-.173.093-.314.207-.314.113 0 .206-.186.206-.413 0-.227-.093-.413-.206-.413-.114 0-.207-.279-.207-.619 0-.341-.093-.62-.206-.62-.114 0-.207-.186-.207-.413 0-.227-.093-.413-.206-.413-.114 0-.207-.143-.207-.317 0-.175-.188-.523-.417-.775-.23-.251-.671-.743-.981-1.093-.892-1.007-1.54-1.058-2.407-.192m46.458 10.525c.279.278.507.65.507.826 0 .175.148.319.33.319.181 0 .59.279.909.619.318.341.69.62.826.62s.507.279.826.619c.318.341.706.62.863.62.156 0 .418.186.582.413.164.227.443.413.62.413s.456.186.619.413c.164.227.42.413.569.413.356 0 1.496 1.172 1.496 1.539 0 .157.116.339.258.405.207.097.207.145 0 .241a.51.51 0 0 0-.258.428c0 .169-.116.429-.258.577a7.092 7.092 0 0 0-.562.708c-.167.241-.469.438-.671.438-.202 0-.367.093-.367.207 0 .114-.166.206-.368.206-.202 0-.501.186-.665.413-.163.228-.426.413-.582.413-.157 0-.545.279-.863.62-.319.341-.707.619-.864.619-.156 0-.418.186-.582.414-.164.227-.442.413-.619.413s-.456.185-.62.413c-.164.227-.423.413-.576.413-.34 0-.869.502-.869.825 0 .266-.886.06-.999-.233-.037-.099-.339-.179-.671-.179-.331 0-.602-.093-.602-.207 0-.114-.186-.206-.413-.206-.227 0-.413-.093-.413-.207 0-.114-.144-.206-.319-.206-.413 0-1.333-.92-1.333-1.333 0-.176-.093-.32-.207-.32-.113 0-.206-.185-.206-.413 0-.227-.093-.413-.207-.413-.113 0-.206-.464-.206-1.032 0-.568-.093-1.033-.207-1.033-.114 0-.206-.55-.206-1.239 0-.688.092-1.239.206-1.239.114 0 .207-.325.207-.722 0-.398.093-.723.206-.723.114 0 .207-.186.207-.413 0-.227.093-.413.206-.413.114 0 .207-.186.207-.413 0-.227.093-.413.206-.413.114 0 .207-.143.207-.317 0-.411 1.337-1.748 1.748-1.748.175 0 .317-.093.317-.207 0-.113.165-.206.367-.206.203 0 .502-.186.666-.413.163-.227.416-.413.561-.413.146 0 .265-.093.265-.207 0-.323.184-.247.732.301m-130.001 59.224c.002.376.041.406.203.155.259-.4.259-.619 0-.619-.114 0-.205.209-.203.464m-1.212 4.688c.046.136.15.241.233.232.247-.025.199-.309-.067-.397-.137-.046-.211.029-.166.165m-4.987 1.249c0 .259.22.259.62 0 .25-.162.221-.201-.155-.203-.256-.002-.465.09-.465.203m-33.866 37.378c0 .113.098.206.218.206.121 0 .149.116.064.258-.106.176-.043.168.194-.025.378-.307.479-.544.143-.336-.114.07-.206.029-.206-.091s-.093-.219-.207-.219a.207.207 0 0 0-.206.207" fill="#35c97a"/>
    <path d="M59.267 32.008c0 .118-.62.207-1.446.207s-1.445.088-1.445.206c0 .114-.418.207-.929.207-.512 0-.93.093-.93.206 0 .114-.186.207-.413.207-.227 0-.413.093-.413.206 0 .114-.165.207-.367.207-.202 0-.502.186-.665.413-.164.227-.418.413-.565.413-.146 0-1.242.976-2.434 2.168-1.193 1.193-2.261 2.168-2.373 2.168-.112 0-.204.18-.204.399 0 .219-.139.537-.31.708-.17.17-.309.455-.309.634 0 .178-.093.324-.207.324-.113 0-.206.186-.206.413 0 .228-.093.413-.207.413-.115 0-.206.551-.206 1.24 0 .688-.092 1.239-.207 1.239-.121 0-.206.722-.206 1.755 0 1.032-.085 1.755-.207 1.755-.114 0-.206.279-.206.62 0 .34.092.619.206.619.114 0 .207.186.207.413 0 .227.093.413.206.413.114 0 .207.143.207.317 0 .354 1.312 1.748 1.645 1.748a.21.21 0 0 1 .213.207c0 .113.186.206.413.206.227 0 .413.093.413.207 0 .113.372.206.826.206.454 0 .826.093.826.207 0 .113.465.206 1.033.206.568 0 1.032.093 1.032.207 0 .12.689.206 1.652.206.964 0 1.652.086 1.652.207 0 .113.233.206.517.206.284 0 .516.093.516.207 0 .113.186.206.413.206.227 0 .413.093.413.207 0 .113.186.206.413.206.227 0 .413.093.413.207 0 .113.186.206.413.206.334 0 .413.138.413.723 0 .398-.093.723-.207.723-.137 0-.206 14.455-.206 42.953 0 28.498-.07 42.953-.207 42.953-.124 0-.206.826-.206 2.065 0 1.239.082 2.065.206 2.065.114 0 .207.465.207 1.033 0 .567.093 1.032.206 1.032.114 0 .207.372.207.826 0 .454.093.826.206.826.114 0 .207.232.207.516 0 .284.093.517.206.517.114 0 .207.145.207.323 0 .177.465.775 1.032 1.329.568.553 1.033 1.151 1.033 1.329 0 .177.093.323.206.323.114 0 .207.186.207.413 0 .227.093.413.206.413.114 0 .207.278.207.619 0 .341.093.62.206.62.114 0 .207.186.207.413 0 .227.093.413.207.413.113 0 .206.279.206.619 0 .341.082.62.183.62.101 0 .246.418.322.929.077.511.227.929.334.929.106 0 .194.144.194.319 0 .414.919 1.333 1.332 1.333.176 0 .32.093.32.207 0 .113.185.206.413.206.227 0 .413.093.413.207 0 .113.185.206.413.206.227 0 .413.093.413.207 0 .113.148.206.33.206.181 0 .59.279.909.62.318.341.727.619.909.619.192 0 .33.173.33.413 0 .228.093.413.206.413.114 0 .207.143.207.318 0 .402 1.978 2.367 2.383 2.367.166 0 .301.093.301.206 0 .114.279.207.62.207.34 0 .619.093.619.207 0 .12.689.206 1.652.206.964 0 1.652.086 1.652.207 0 .133 2.41.206 6.815.206s6.815-.073 6.815-.206c0-.121.688-.207 1.652-.207.963 0 1.652-.086 1.652-.206 0-.114.371-.207.826-.207.454 0 .826-.093.826-.207 0-.113.325-.206.723-.206.397 0 .722-.087.722-.194 0-.106.441-.26.979-.34.689-.104 1.141-.321 1.528-.736.303-.324.699-.589.88-.589.182 0 .33-.143.33-.319 0-.39.911-1.333 1.288-1.333.15 0 .407-.185.571-.413.164-.227.442-.413.619-.413s.456-.185.62-.413c.164-.227.429-.413.589-.413.304 0 1.063-.76 1.063-1.064 0-.096 1.487-.175 3.304-.175 2.065 0 3.304-.077 3.304-.206 0-.114.093-.207.207-.207.12 0 .206.689.206 1.652 0 .964.086 1.652.207 1.652.113 0 .206.144.206.32 0 .175.209.541.465.813.255.271.697.772.981 1.113.334.402.789.667 1.29.754.426.074.775.219.775.323 0 .103.186.188.413.188.227 0 .413.093.413.206 0 .136 3.717.207 10.738.207 7.021 0 10.738-.071 10.738-.207 0-.113.186-.206.413-.206.227 0 .413-.093.413-.207 0-.113.134-.206.296-.206.348 0 2.389-1.934 2.389-2.264 0-.343 1.804-2.073 2.163-2.073.173 0 .315-.093.315-.206 0-.114.186-.207.413-.207.227 0 .413-.093.413-.206 0-.114.142-.207.315-.207.562 0 2.126-1.761 2.276-2.563.077-.407.222-.741.323-.741s.184-.418.184-.929c0-.511-.081-.929-.18-.929-.099 0-.242-.465-.317-1.033-.076-.568-.227-1.032-.337-1.032-.109 0-.199-.142-.199-.315 0-.172-.509-.823-1.131-1.445-.622-.622-1.273-1.131-1.446-1.131-.173 0-.314-.093-.314-.207 0-.113-.279-.206-.62-.206-.34 0-.619-.093-.619-.207 0-.113-.279-.206-.62-.206-.34 0-.619-.093-.619-.207 0-.113-.279-.206-.62-.206-.34 0-.619-.083-.619-.183 0-.101-.511-.247-1.136-.325-.625-.078-1.136-.228-1.136-.333 0-.106-.146-.192-.324-.192-.381 0-.915-.485-.915-.832 0-.133-.278-.502-.619-.82-.341-.318-.62-.727-.62-.909 0-.181-.093-.33-.206-.33-.114 0-.207-.186-.207-.413 0-.227-.093-.413-.206-.413-.114 0-.207-.186-.207-.413 0-.227-.093-.413-.206-.413-.118 0-.207-.62-.207-1.446s.089-1.445.207-1.445c.135 0 .206-3.614.206-10.429 0-6.814.072-10.428.207-10.428.114 0 .206-.551.206-1.239 0-.688-.092-1.239-.206-1.239-.114 0-.207-.279-.207-.62 0-.34-.093-.619-.206-.619-.114 0-.207-.186-.207-.413 0-.227-.093-.413-.206-.413-.114 0-.207-.186-.207-.413 0-.227-.093-.413-.206-.413a.21.21 0 0 1-.207-.214c0-.309-1.383-1.645-1.703-1.645-.149 0-.405-.186-.568-.413-.164-.227-.51-.413-.769-.413s-.47-.093-.47-.206c0-.114-.259-.207-.574-.207-.337 0-.697-.17-.872-.413-.164-.227-.463-.413-.665-.413s-.367-.093-.367-.206c0-.114-.186-.207-.413-.207-.228 0-.413-.093-.413-.206 0-.114-.186-.207-.413-.207-.228 0-.413-.093-.413-.206 0-.114-.279-.207-.62-.207-.341 0-.62-.093-.62-.206 0-.13-1.273-.207-3.407-.207-2.134 0-3.407.077-3.407.207 0 .113-.186.206-.413.206-.227 0-.413.093-.413.207 0 .113-.147.206-.326.206-.179 0-.683.372-1.12.826-.436.454-.94.826-1.119.826-.18 0-.326.093-.326.207 0 .113-.186.206-.413.206-.227 0-.413.093-.413.207 0 .113-.1.206-.223.206-.122 0-.58.372-1.016.826-.437.455-.926.826-1.088.826-.401 0-1.184.704-1.184 1.063 0 .16-.186.426-.413.589-.227.164-.413.463-.413.665s-.093.368-.206.368c-.13 0-.207 1.273-.207 3.407 0 2.134.077 3.407.207 3.407.132 0 .206 1.893.206 5.266s.074 5.266.207 5.266c.571 0 .225 3.121-.413 3.717-.341.319-.62.707-.62.864 0 .156-.186.418-.413.582-.227.164-.413.416-.413.562 0 .145-.093.264-.206.264-.114 0-.207.186-.207.413 0 .227-.093.413-.206.413-.114 0-.207.279-.207.619 0 .341-.093.62-.206.62-.114 0-.207.236-.207.526 0 .52-.814 1.539-1.23 1.539a.212.212 0 0 0-.215.206c0 .114-.372.207-.826.207-.455 0-.827.093-.827.206 0 .114-.278.207-.619.207-.341 0-.62.093-.62.206 0 .114-.278.207-.619.207-.341 0-.62.093-.62.207 0 .113-.278.206-.619.206-.341 0-.62.093-.62.207 0 .113-.464.206-1.032.206-.568 0-1.033.093-1.033.207 0 .125-.923.206-2.357.206-1.684 0-2.392.074-2.478.258-.097.207-.145.207-.241 0-.073-.155-.526-.258-1.136-.258-.558 0-1.015-.093-1.015-.206 0-.117-.585-.207-1.343-.207-.757 0-1.342-.09-1.342-.206 0-.114-.334-.207-.743-.207-.56 0-.886-.153-1.322-.62-.318-.34-.727-.619-.909-.619-.192 0-.33-.172-.33-.413 0-.227-.093-.413-.206-.413-.114 0-.207-.186-.207-.413 0-.227-.093-.413-.206-.413-.114 0-.207-.465-.207-1.033 0-.567-.093-1.032-.206-1.032-.114 0-.207-.325-.207-.723 0-.397-.093-.723-.207-.723-.113 0-.206-.278-.206-.619 0-.341-.093-.62-.207-.62-.126 0-.206-.963-.206-2.478 0-1.514.08-2.478.206-2.478.136 0 .207-4.233.207-12.287 0-8.054-.071-12.287-.207-12.287-.124 0-.206-.86-.206-2.168 0-1.308.082-2.168.206-2.168.114 0 .207-.279.207-.62 0-.341.093-.62.206-.62.114 0 .207-.185.207-.413 0-.227.093-.413.207-.413.113 0 .206-.185.206-.413 0-.227.093-.413.207-.413.113 0 .206-.185.206-.413 0-.227.093-.413.207-.413.113 0 .206-.185.206-.413 0-.227.093-.413.207-.413.113 0 .206-.185.206-.413 0-.227.093-.413.207-.413.113 0 .206-.185.206-.413 0-.275.138-.413.413-.413.227 0 .413-.093.413-.206 0-.137 7.606-.207 22.406-.207 14.799 0 22.406.07 22.406.207 0 .113.139.206.309.206.171 0 .31-.093.31-.206 0-.114.372-.207.826-.207.454 0 .826-.081.826-.18 0-.098.465-.241 1.033-.316.568-.076 1.032-.227 1.032-.337 0-.109.166-.199.368-.199.202 0 .501-.186.665-.413.163-.227.421-.413.573-.413.401 0 2.731-2.438 2.731-2.857 0-.196.186-.49.413-.654.426-.307.571-1.032.206-1.032-.114 0-.206-.551-.206-1.239 0-.682-.08-1.239-.177-1.239-.097 0-.239-.674-.315-1.498-.077-.823-.229-1.528-.34-1.566-.11-.037-.201-.207-.201-.376 0-.402-.504-.897-.914-.897a.321.321 0 0 1-.325-.315c0-.41-1.753-2.163-2.163-2.163-.173 0-.315-.093-.315-.207 0-.113-.279-.206-.619-.206-.341 0-.62-.093-.62-.207 0-.113-.279-.206-.619-.206-.341 0-.62-.093-.62-.207 0-.136-7.985-.206-23.541-.206-15.557 0-23.542-.07-23.542-.207 0-.113-.186-.206-.413-.206-.227 0-.413-.085-.413-.188 0-.104-.372-.252-.826-.328-.454-.077-.826-.225-.826-.328 0-.104-.186-.189-.413-.189-.344 0-.413-.137-.413-.826 0-.454.093-.826.206-.826.135 0 .207-2.891.207-8.26s-.072-8.26-.207-8.26c-.113 0-.206-.465-.206-1.033 0-.567.093-1.032.206-1.032.129 0 .207-1.136.207-2.994 0-1.859.078-2.995.206-2.995.115 0 .207-.55.207-1.239 0-.688.092-1.239.207-1.239.12 0 .206-.688.206-1.652 0-.963.086-1.652.207-1.652.113 0 .206-.418.206-.929 0-.511-.093-.929-.206-.929-.128 0-.207-1.102-.207-2.891 0-1.79-.079-2.892-.206-2.892-.114 0-.207-.371-.207-.826 0-.454-.093-.826-.207-.826-.113 0-.206-.278-.206-.619 0-.341-.093-.62-.207-.62-.113 0-.206-.211-.206-.47s-.186-.605-.413-.769c-.227-.163-.413-.442-.413-.619s-.186-.456-.413-.62c-.227-.163-.413-.423-.413-.576 0-.29-.486-.869-.728-.869-.077 0-.399-.279-.718-.62-.318-.34-.727-.619-.908-.619-.182 0-.331-.093-.331-.207 0-.113-.185-.206-.413-.206-.227 0-.413-.093-.413-.207 0-.113-.278-.206-.619-.206-.341 0-.62-.093-.62-.207 0-.113-.371-.206-.826-.206-.454 0-.826-.093-.826-.207 0-.134-2.822-.206-8.053-.206-5.232 0-8.054.072-8.054.206m13.216 5.782c0 .114.422.207.938.207s1.078.116 1.25.258c1.205.999 3.594 3.499 3.594 3.76 0 .175.093.319.207.319.113 0 .206.464.206 1.032 0 .568.093 1.033.207 1.033.113 0 .206.464.206 1.032 0 .568.093 1.033.207 1.033.113 0 .206.232.206.516 0 .284.093.516.207.516.113 0 .206.372.206.826 0 .454-.093.826-.206.826-.114 0-.207.186-.207.413 0 .227-.093.413-.206.413-.114 0-.207.279-.207.62 0 .34-.093.619-.206.619-.114 0-.207.279-.207.62 0 .34-.093.619-.206.619-.114 0-.207.465-.207 1.033 0 .568-.093 1.032-.206 1.032-.128 0-.207 1.067-.207 2.788 0 1.721-.079 2.788-.206 2.788-.125 0-.207.86-.207 2.168 0 1.308.082 2.169.207 2.169.132 0 .206 1.824.206 5.059 0 3.235-.074 5.059-.206 5.059-.129 0-.207 1.239-.207 3.304 0 2.065.078 3.304.207 3.304.113 0 .206.14.206.31 0 .171.093.31.207.31.113 0 .206.141.206.314 0 .348 2.14 2.577 2.474 2.577a.21.21 0 0 1 .211.207c0 .113.279.206.619.206.341 0 .62.093.62.207 0 .113.372.206.826.206.454 0 .826.093.826.207 0 .113.465.206 1.033.206.567 0 1.032.093 1.032.207 0 .136 6.78.206 19.928.206 13.147 0 19.927-.07 19.927-.206 0-.454 6.688-.257 7.022.206.163.227.423.413.576.413.378 0 .869.517.869.915 0 .178.093.324.207.324.113 0 .206.511.206 1.136 0 .625.093 1.136.207 1.136.114 0 .206.55.206 1.239 0 .688.092 1.239.207 1.239.113 0 .206.236.206.525 0 .555-.823 1.54-1.287 1.54-.151 0-.408.186-.571.413-.164.227-.463.413-.665.413-.203 0-.368.093-.368.206 0 .137-7.916.207-23.335.207s-23.335.07-23.335.206c0 .114-.372.207-.826.207-.454 0-.826.093-.826.206 0 .114-.279.207-.62.207-.34 0-.619.093-.619.206 0 .114-.279.207-.62.207-.34 0-.619.093-.619.206 0 .114-.186.207-.413.207-.227 0-.413.093-.413.206a.212.212 0 0 1-.216.207c-.119 0-.431.209-.694.464a8.634 8.634 0 0 1-.92.769c-.243.167-.442.469-.442.671 0 .202-.093.367-.206.367-.114 0-.207.465-.207 1.033 0 .568-.093 1.032-.206 1.032-.115 0-.207.551-.207 1.239 0 .689-.091 1.239-.206 1.239-.13 0-.207 1.343-.207 3.614 0 2.272.077 3.614.207 3.614.135 0 .206 3.683.206 10.635s-.071 10.635-.206 10.635c-.13 0-.207 1.308-.207 3.511 0 2.202.077 3.51.207 3.51.113 0 .206.279.206.62 0 .341.093.619.207.619.113 0 .206.233.206.517 0 .284.093.516.207.516.113 0 .206.279.206.619 0 .341.093.62.207.62.113 0 .206.142.206.315 0 .173.419.733.93 1.245.511.511.929 1.092.929 1.291 0 .199.186.496.413.66.227.163.413.421.413.573 0 .425 2.45 2.731 2.903 2.731.22 0 .401.093.401.206 0 .114.186.207.413.207.227 0 .413.093.413.206 0 .114.186.207.413.207.275 0 .413.137.413.413 0 .258.138.413.367.413.203 0 .502.185.666.413.174.242.534.413.871.413.316 0 .574.093.574.206 0 .114.14.207.31.207.17 0 .31.093.31.206 0 .114.371.207.826.207.454 0 .826.093.826.206 0 .114.371.207.826.207.454 0 .826.093.826.206 0 .114.464.207 1.032.207.568 0 1.033-.093 1.033-.207 0-.119.654-.206 1.549-.206.894 0 1.548-.088 1.548-.207 0-.113.465-.206 1.033-.206.568 0 1.032-.093 1.032-.207 0-.113.144-.206.32-.206.367 0 1.332-.902 1.332-1.245 0-.319.532-.82.869-.82.154 0 .409-.181.568-.402.159-.22.645-.461 1.078-.534.434-.073.79-.218.79-.322 0-.103.232-.188.516-.188.284 0 .516-.093.516-.206 0-.114.279-.207.62-.207.34 0 .619-.093.619-.206 0-.114.279-.207.62-.207.34 0 .619-.093.619-.206 0-.114.143-.207.317-.207.411 0 1.748-1.337 1.748-1.748 0-.175.093-.317.207-.317.113 0 .206-.279.206-.62 0-.34.093-.619.207-.619.113 0 .206-.149.206-.33 0-.182.279-.591.62-.909.34-.318.619-.727.619-.909 0-.192.172-.33.413-.33.227 0 .413-.093.413-.207 0-.113.18-.206.399-.206.22 0 .457-.181.527-.403a.92.92 0 0 1 .53-.53c.222-.07.403-.307.403-.527 0-.219.093-.399.206-.399.114 0 .207-.186.207-.413 0-.227.093-.413.206-.413.114 0 .207-.186.207-.413 0-.227.093-.413.206-.413.114 0 .207-.464.207-1.032 0-.568-.093-1.033-.207-1.033-.133 0-.206-2.409-.206-6.814 0-4.406-.073-6.815-.207-6.815-.123 0-.206-.793-.206-1.967v-1.968l.924-.923c.508-.508 1.045-.924 1.193-.924.148 0 .404-.186.567-.413.335-.464 8.261-.663 8.261-.207 0 .114.185.207.413.207.227 0 .413.093.413.206 0 .114.185.207.413.207.227 0 .413.093.413.206 0 .114.185.207.413.207.227 0 .413.093.413.206 0 .114.165.207.367.207.202 0 .501.186.665.413.164.227.463.413.665.413.271 0 .368.163.368.619 0 .341-.093.62-.207.62-.115 0-.206.551-.206 1.239 0 .688-.092 1.239-.207 1.239-.116 0-.206.585-.206 1.342 0 .757-.09 1.342-.207 1.342-.134 0-.206 2.892-.206 8.261s-.073 8.26-.207 8.26c-.124 0-.206.826-.206 2.065 0 1.239.082 2.065.206 2.065.114 0 .207.279.207.619 0 .341.093.62.206.62.114 0 .207.186.207.413 0 .227.093.413.206.413.114 0 .207.186.207.413 0 .227.093.413.206.413.114 0 .207.186.207.413 0 .227.082.413.184.413.101 0 .242.232.313.516.072.284.221.517.333.517.111 0 .202.141.202.314 0 .173.509.823 1.131 1.445.623.623 1.273 1.132 1.446 1.132.173 0 .314.093.314.206 0 .114.186.207.413.207.227 0 .413.093.413.206 0 .114.186.207.413.207.227 0 .413.093.413.206 0 .114.279.207.62.207.341 0 .619.093.619.206 0 .114.372.207.826.207.455 0 .826.093.826.206 0 .114.233.207.517.207.284 0 .516.093.516.206 0 .114.186.207.413.207.227 0 .413.093.413.206 0 .114.279.207.619.207.341 0 .62.093.62.206 0 .114.186.207.413.207.227 0 .413.093.413.206 0 .114.186.207.413.207.227 0 .413.093.413.206 0 .114.186.207.413.207.227 0 .413.093.413.206 0 .114-.186.207-.413.207-.227 0-.413.085-.413.188 0 .104-.372.251-.826.328-.454.077-.826.224-.826.328 0 .104-.165.188-.368.188-.202 0-.501.186-.665.413-.163.227-.442.413-.619.413s-.459.197-.626.438c-.167.241-.645.799-1.062 1.239l-.758.801H136c-1.87 0-3.011.079-3.011.207 0 .133-2.409.206-6.815.206-6.395 0-6.814-.022-6.814-.367 0-.202-.186-.501-.413-.665-.227-.164-.413-.463-.413-.665s-.093-.368-.207-.368c-.113 0-.206-.186-.206-.413 0-.227-.093-.413-.207-.413-.113 0-.206-.186-.206-.413 0-.227-.093-.413-.207-.413-.113 0-.206-.232-.206-.516 0-.284-.093-.516-.207-.516-.113 0-.206-.279-.206-.62 0-.34-.093-.619-.207-.619-.113 0-.206-.186-.206-.413 0-.227-.093-.413-.207-.413-.113 0-.206-.143-.206-.317 0-.326-1.301-1.748-1.6-1.748-.092 0-.302-.186-.465-.413-.315-.438-1.859-.609-1.859-.207 0 .114-.279.207-.619.207-.341 0-.62.093-.62.206 0 .114-.279.207-.619.207-.341 0-.62.093-.62.206 0 .114-.279.207-.619.207-.341 0-.62.093-.62.206 0 .114-.279.207-.619.207-.341 0-.62.093-.62.206 0 .114-.186.207-.413.207-.227 0-.413.093-.413.206 0 .114-.19.207-.422.207-.555 0-1.437.894-1.437 1.456 0 .494-1.112 1.641-1.591 1.641-.169 0-.568.279-.887.62-.318.341-.706.619-.863.619-.156 0-.418.186-.582.413-.207.288-.535.413-1.078.413-.429 0-.781.093-.781.207 0 .113-.232.206-.516.206-.284 0-.516.093-.516.207 0 .113-.186.206-.413.206-.227 0-.413.093-.413.207 0 .113-.186.206-.413.206-.227 0-.413.093-.413.207 0 .113-.166.206-.368.206-.202 0-.501.186-.665.413-.163.228-.425.413-.582.413-.157 0-.545.279-.863.62-.436.466-.763.619-1.322.619-.409 0-.743.093-.743.207 0 .114-.372.206-.826.206-.455 0-.826.093-.826.207 0 .114-.511.206-1.136.206-.625 0-1.136.093-1.136.207 0 .129-1.273.206-3.407.206-2.134 0-3.408-.077-3.408-.206 0-.114-.371-.207-.826-.207-.454 0-.826-.092-.826-.206 0-.114-.278-.207-.619-.207-.341 0-.62-.092-.62-.206 0-.114-.258-.207-.574-.207-.337 0-.696-.17-.871-.413-.164-.227-.443-.413-.62-.413s-.455-.185-.619-.413c-.164-.227-.463-.413-.665-.413s-.368-.143-.368-.319c0-.413-.92-1.333-1.333-1.333-.175 0-.319-.078-.319-.175 0-.325-.769-1.064-1.108-1.064-.186 0-.337-.093-.337-.206 0-.114-.186-.207-.413-.207-.227 0-.413-.093-.413-.206 0-.114-.279-.207-.62-.207-.341 0-.619-.093-.619-.206 0-.114-.265-.207-.588-.207-.872 0-1.477-.623-1.477-1.521 0-.413-.093-.75-.207-.75-.113 0-.206-.372-.206-.826 0-.455-.093-.826-.207-.826-.114 0-.206-.372-.206-.826 0-.455-.093-.826-.207-.826-.114 0-.206-.279-.206-.62 0-.341-.093-.619-.207-.619-.114 0-.206-.419-.206-.93 0-.511-.093-.929-.207-.929-.118 0-.206-.619-.206-1.445 0-.826-.089-1.446-.207-1.446-.137 0-.206-14.524-.206-43.16 0-28.635.069-43.159.206-43.159.129 0 .207-1.205.207-3.201s-.078-3.201-.207-3.201c-.114 0-.206-.186-.206-.413 0-.227-.092-.413-.203-.413-.111 0-.267-.254-.345-.566-.163-.652-.539-1.086-.941-1.086-.153 0-.413-.186-.577-.413-.163-.227-.463-.413-.665-.413s-.367-.093-.367-.206c0-.114-.279-.207-.62-.207-.34 0-.619-.093-.619-.206 0-.114-.372-.207-.826-.207-.454 0-.826-.093-.826-.206 0-.114-.465-.207-1.033-.207-.568 0-1.032-.093-1.032-.206 0-.114-.418-.207-.929-.207-.512 0-.93-.093-.93-.206 0-.114-.278-.207-.619-.207-.341 0-.62-.093-.62-.206 0-.114-.279-.207-.619-.207-.341 0-.62-.093-.62-.206 0-.114-.186-.207-.413-.207-.334 0-.413-.138-.413-.723 0-.397.093-.722.207-.722.118 0 .206-.62.206-1.446s.089-1.445.207-1.445c.113 0 .206-.513.206-1.14V42.12l1.546-1.545c1.239-1.24 1.668-1.546 2.168-1.546.343 0 .623-.083.623-.185 0-.101.743-.25 1.652-.331.908-.08 1.652-.229 1.652-.331 0-.102.372-.185.826-.185.454 0 .826-.093.826-.207 0-.132 1.996-.206 5.576-.206 3.579 0 5.575.074 5.575.206" fill="#e79cbe"/>
    <path d="M62.261 3.43a6.381 6.381 0 0 0-.826.28c-.227.099-1.016.289-1.752.423-2.686.488-3.695 1.586-4.036 4.385-.098.805-.237 1.188-.431 1.188-.157 0-.286.079-.286.175 0 .172-2.407.149-4.853-.047-1.029-.083-1.099-.07-.413.075.596.125.336.147-.929.078-5.189-.283-6.292.486-6.5 4.533-.089 1.733-.135 1.897-.567 2.046-.453.155-.455.15-.069-.149.365-.282.256-.307-1.239-.285-1.195.018-1.472.067-1.021.182.59.15.595.16.103.206-.667.064-.548.069-1.859-.087-1.675-.2-1.971.078-1.708 1.608.112.647.13 1.222.04 1.278-.09.055-.201-.203-.246-.575-.059-.472-.094-.352-.117.4-.018.591.071 1.304.199 1.584.313.688.068 2.011-.343 1.853-.166-.064-.465-.04-.664.053-.198.093-1.476.172-2.839.177-2.368.007-2.487.028-2.682.472-.112.256-.351.465-.53.465-1 0-2.624.722-3.423 1.522-1.233 1.232-1.995 3.847-1.121 3.847.796 0 .577.318-.234.34-.569.015-.742-.039-.55-.17.208-.143.174-.174-.133-.122-.339.057-.408.218-.382.889.017.45-.011.622-.063.381l-.093-.438-1.436.419c-2.258.659-3.912 2.547-3.912 4.467 0 .21-.228.531-.506.714-.457.299-.497.439-.41 1.418.07.778.042.968-.098.672-.145-.306-.195-.067-.191.929.003 1.179.027 1.261.197.672.107-.37.296-.672.42-.672.145 0 .13.116-.043.324-.154.187-.274.886-.283 1.652l-.015 1.328-1.755.025c-1.339.019-1.609.066-1.136.199.412.117.016.147-1.183.089-2.235-.106-2.518.08-2.312 1.518.157 1.101.154 1.036.081 1.577-.03.227-.12-.005-.2-.516l-.144-.93-.031.978c-.017.538.076 1.38.208 1.871.445 1.664.237 1.91-1.669 1.975-4.216.144-4.771.866-4.756 6.194a129.9 129.9 0 0 1-.027 3.334c-.068 1.897-.035 3.011.105 3.614.117.501.1.55-.085.258-.311-.489-3.513-.544-3.513-.06 0 .235.38.317 1.704.371l1.703.07-1.703.042L0 62.571v4.13h1.652c1.331 0 1.652.06 1.652.31 0 .249-.321.31-1.652.31H0v2.065h1.652c1.331 0 1.652-.061 1.652-.31 0-.17.09-.31.2-.31.11 0 .14.156.068.346-.1.258-.049.313.202.217.238-.091.301-.04.218.176-.067.175-.216.236-.351.144-.128-.088-1.024-.108-1.989-.044l-1.755.117 1.703.038c1.554.035 1.704.075 1.704.452 0 .376-.15.416-1.704.451l-1.703.039 1.755.129 1.755.13-1.703.038L0 71.038v64.429h1.652c.964 0 1.652.086 1.652.207 0 .12-.688.206-1.652.206H0V137.119h1.652c1.025 0 1.652-.083 1.652-.218 0-.121.093-.162.207-.092.24.149.279.528.051.492-.085-.013-.921-.013-1.858 0L0 137.326V138.771h1.881c1.528 0 1.859-.054 1.769-.289-.066-.172.007-.272.179-.247.461.068.623.337.316.527-.226.14-.238.35-.056 1.065.17.671.165.965-.021 1.195-.206.253-.182.28.143.158.327-.123.349-.097.137.159-.139.168-.191.426-.115.572.077.147-.052.035-.287-.249-.51-.617-.541-.826-.126-.826.171 0 .31-.103.31-.23 0-.129-.182-.183-.413-.123-.268.07-.413.007-.413-.182 0-.16.149-.291.332-.291.218 0 .289-.112.206-.326a2.114 2.114 0 0 1-.125-.413c0-.048-.093-.087-.206-.087-.114 0-.207.14-.207.31 0 .25-.321.31-1.652.31H0v4.956h1.611c1.004 0 1.714-.097 1.886-.258.228-.213.249-.167.123.258-.318 1.075-.352 1.879-.121 2.843.168.701.178 1.269.032 1.92-.135.602-.141 1.802-.016 3.443.276 3.642.732 4.494 2.402 4.494.494 0 .898.07.898.155 0 .085.506.155 1.126.155 1.964 0 2.617.627 2.046 1.965-.144.339-.253 1.127-.241 1.752l.022 1.136.144-.93c.08-.511.17-.743.2-.516.073.541.076.476-.081 1.577-.156 1.091.241 1.734.936 1.514.215-.069.391-.032.391.082 0 .124.841.204 2.116.2 3.365-.009 3.059-.113 2.907.996-.083.606-.057.915.07.837.122-.076.161.135.099.535-.1.643-.107.647-.252.144-.1-.345-.151-.072-.156.826-.004.995.045 1.236.19.93.14-.296.168-.106.098.672-.087.979-.047 1.119.41 1.418.278.183.506.504.506.714 0 1.92 1.654 3.808 3.912 4.467l1.436.419.093-.438c.052-.241.08-.066.063.388-.027.711.034.836.433.892.28.04.465.21.465.428 0 2.472 2.515 4.979 4.994 4.979.206 0 .375.125.375.278 0 .373.673.961 1.101.961.189 0 .345-.104.345-.232 0-.163.088-.158.3.017.165.137.606.228.981.202 3.607-.25 4.589.158 3.962 1.649-.158.375-.272 1.16-.254 1.743.023.754.057.865.117.386.045-.372.156-.63.246-.575.09.056.072.631-.04 1.278-.222 1.287.112 1.869.924 1.611.204-.065.372-.019.372.102s.238.221.528.221c.291 0 .475-.087.409-.194-.072-.116.149-.113.556.009.371.111 1.14.186 1.708.167 1.786-.059 1.656-.21 1.908 2.219.264 2.544.562 3.109 1.889 3.578.768.271.891.271 1.065 0 .174-.271.22-.271.396.003.146.227.587.309 1.652.309.799 0 1.453.072 1.453.159 0 .087.349.138.775.114.425-.025 1.948-.027 3.383-.004l2.609.041.145 1.188c.341 2.799 1.35 3.896 4.036 4.385.736.134 1.562.352 1.835.485.915.444 69.665.3 71.884-.151 3.353-.681 4.125-1.412 4.579-4.332l.245-1.575 1.718-.016 3.474-.033c.965-.009 1.755-.071 1.756-.139 0-.067.704-.127 1.564-.135 1.122-.009 1.618-.097 1.755-.309.146-.228.229-.238.354-.044.286.441 1.541-.355 1.981-1.256.325-.665.342-.827.103-.981-.24-.155-.237-.216.024-.383.227-.146.31-.587.31-1.652v-1.453l.619-.026a26.524 26.524 0 0 1 1.652.015c.568.022 1.288-.057 1.601-.176.358-.136.568-.142.568-.015 0 .111.278.202.619.202.611 0 .854-.301.372-.462-.152-.05-.108-.136.114-.221.234-.09.313-.06.223.085-.085.139.009.194.248.145.229-.047.361-.222.325-.433-.034-.194.043-.354.169-.354.145 0 .211-.364.176-.98-.03-.54-.037-1.725-.015-2.633l.04-1.652 2.42.043c1.699.03 2.472-.031 2.597-.207.138-.194.201-.192.282.009.12.295.896.355.896.069 0-.105-.111-.227-.248-.272-.193-.065-.193-.117 0-.236.137-.085.248-.055.248.065s.093.219.207.219c.113 0 .206-.171.206-.38 0-.291.26-.438 1.108-.628 2.407-.539 4.614-3.356 4.1-5.233-.023-.083.25-.091.607-.02.606.121.641.096.547-.393-.093-.488-.021-.54 1.054-.779 2.124-.471 3.468-1.655 3.94-3.469.139-.535.289-1.112.332-1.284.044-.171.289-.403.546-.516.449-.197.468-.314.522-3.185.065-3.496-.097-3.194 1.684-3.146.784.021 1.666-.054 1.96-.165.346-.132.534-.132.534-.002 0 .111.279.201.619.201.587 0 .86-.298.411-.448-.114-.038.002-.2.258-.36.437-.272.448-.267.164.076-.274.332-.264.359.103.284.248-.05.383-.221.346-.437-.033-.194.043-.354.17-.354.144 0 .21-.364.175-.981-.03-.539-.036-1.794-.014-2.787l.039-1.807h1.652c1.034 0 1.652-.083 1.652-.221 0-.121.174-.165.386-.098.618.197 1.49-.223 1.33-.64-.104-.27-.054-.321.217-.217.417.16.836-.711.64-1.33-.071-.222-.023-.385.113-.385.163 0 .215-.533.169-1.73-.051-1.32-.006-1.706.191-1.63.157.061.259-.072.259-.335 0-.24-.093-.435-.207-.435-.114 0-.206-.14-.206-.31 0-.171.091-.31.202-.31.125 0 .184-1.107.155-2.893-.026-1.591-.022-2.815.009-2.719.08.24 2.359-.095 3.291-.485 1.554-.649 2.038-1.437 2.451-3.985.157-.97.38-1.858.496-1.974.259-.259.281-1.78.025-1.78-.107 0-.11-.324-.006-.774.225-.979.228-63.039.002-64.218-.092-.483-.087-.823.011-.762.277.171.209-1.219-.103-2.108-.154-.44-.349-1.357-.434-2.036-.364-2.94-1.982-4.444-4.782-4.444-.898 0-.908-.029-.929-2.721-.01-1.286-.115-2.519-.233-2.741-.154-.289-.148-.426.021-.482.355-.118.284-.664-.085-.664-.206 0-.264-.093-.161-.258.238-.379.067-2.914-.21-3.113-.178-.128-.178-.195.002-.269.334-.137-.053-1.493-.593-2.078-.487-.527-1.957-.889-3.631-.893-1.706-.005-1.694.014-1.732-2.747-.018-1.327-.112-2.412-.208-2.412-.096 0-.118-.225-.049-.5.184-.734-.367-.926-2.396-.834-1.18.053-1.547.022-1.129-.095.484-.136.269-.18-.981-.199l-1.6-.025-.013-1.497c-.038-4.47-.073-4.668-.863-4.952-.084-.031-.297-.613-.473-1.294-.526-2.033-1.698-3.218-3.699-3.74-.994-.26-1.239-.268-1.378-.044-.108.174-.153.05-.124-.338.035-.477-.073-.668-.496-.876-.41-.201-.575-.477-.68-1.133-.339-2.116-1.799-3.63-3.97-4.116-.609-.136-1.108-.319-1.108-.407 0-.594-.644-.739-3.078-.69-1.373.028-2.549-.033-2.612-.137-.064-.103-.296-.187-.517-.187-.415 0-.566-1.393-.419-3.872.032-.533-.037-.878-.175-.878-.137 0-.178-.196-.104-.493.068-.272.024-.556-.099-.632-.125-.077-.223.009-.223.196 0 .185-.099.273-.221.198-.121-.075-.172-.263-.112-.418.087-.228-.215-.265-1.587-.193-1.137.06-1.491.032-1.075-.086.467-.132.187-.177-1.135-.185-1.225-.007-1.631.048-1.343.181l.413.19-.413-.052c-.359-.045-.426-.247-.516-1.555-.07-1.021-.203-1.567-.413-1.702-.265-.17-.268-.225-.017-.387.41-.263-.101-1.585-.82-2.122-.7-.522-2.982-.841-5.152-.719-1.074.061-1.474.037-1.032-.06l.723-.16-.93-.02c-.511-.011-1.157.107-1.436.261-.367.203-.654.225-1.033.079-.289-.111-.966-.145-1.506-.075-.578.076-.981.047-.981-.071 0-.109-.156-.228-.347-.265-.258-.05-.413-.453-.599-1.558-.443-2.628-1.67-3.769-4.411-4.1-.631-.076-1.268-.235-1.416-.353-.147-.118-.937-.211-1.755-.206-1.553.01-4.452.016-7.527.015-.994 0-2.644.01-3.666.023-2.427.03-8.105.015-11.874-.031-1.647-.02-6.34-.036-10.428-.036-4.089 0-8.782.016-10.429.036-1.647.02-4.551.037-6.453.038-1.903.001-4.179.007-5.06.012-.88.005-2.808.013-4.285.016-1.476.004-3.056.021-3.51.038-.454.017-1.616-.029-2.581-.102-.966-.073-1.942-.087-2.169-.031m1.394.233c-.596.042-1.084.164-1.084.271 0 .108-.186.196-.413.196-.229 0-.413.138-.413.31 0 .17-.093.31-.207.31-.318 0-.245-.316.155-.664.527-.459.862-.545 2.014-.521l1.032.022-1.084.076m7.125-.01a1.695 1.695 0 0 1-.723 0c-.199-.052-.036-.095.361-.095.398 0 .56.043.362.095m9.499-.022c-.066.066-.554.121-1.084.121s-1.018-.055-1.085-.121c-.066-.066.422-.12 1.085-.12.662 0 1.15.054 1.084.12m34.71.081c-.303.092-.86.093-1.239.004-.585-.139-.503-.164.55-.167.941-.002 1.107.037.689.163m8.449-.059a1.69 1.69 0 0 1-.722 0c-.199-.052-.037-.095.361-.095.397 0 .56.043.361.095m7.021.005a4.491 4.491 0 0 1-1.135 0c-.313-.047-.057-.086.568-.086.624 0 .88.039.567.086m-37.893.618a2.954 2.954 0 0 1-.929 0c-.256-.049-.047-.09.464-.09s.72.041.465.09m9.293 0a2.96 2.96 0 0 1-.93 0c-.255-.049-.046-.09.465-.09s.72.041.465.09m25.465 1.665c-.077.076-.226.002-.332-.165-.308-.488-.227-.672.136-.309.184.184.272.397.196.474M56.376 9.912c0 .114-.14.207-.31.207-.17 0-.31-.093-.31-.207 0-.113.14-.206.31-.206.17 0 .31.093.31.206m-7.951.413c-.07.114-.703.194-1.406.177-1.185-.027-1.218-.04-.452-.177 1.284-.23 2.001-.23 1.858 0m99.209.129c.207.187-1.976.05-2.255-.141-.218-.15.054-.172.93-.074.681.076 1.277.173 1.325.215m-102.1.284c-.07.114-.317.207-.549.207-.231 0-.693.291-1.026.648-.661.707-1.037.713-.443.007.59-.702 2.396-1.473 2.018-.862m-2.459 2.426c-.223.222-.34-.089-.185-.486.147-.372.158-.373.23-.013.042.207.021.432-.045.499m-.42 2.897c-.214.215-.244-.054-.129-1.193l.114-1.135.065 1.107c.035.608.013 1.158-.05 1.221m-6.131.961c-.265.277-.522.463-.571.415-.123-.123.62-.917.859-.917.107 0-.022.226-.288.502m-7.004 6.65c-.114.299-.152.717-.084.929.067.213.023.386-.098.386-.122 0-.22-.209-.218-.465.004-.677.225-1.393.429-1.393.098 0 .084.244-.029.543m140.634 5.643c.214.136.077.18-.464.152-.422-.022-.768-.11-.768-.195-.001-.218.867-.187 1.232.043m-89.824.392c0 .098 1.014.226 2.253.284l2.253.107.741.742c.461.461.742.94.742 1.265 0 .287.093.523.207.523.122 0 .206.757.206 1.858 0 1.102.084 1.859.207 1.859.136 0 .206 7.606.206 22.406v22.405h25.813c14.197 0 25.813.08 25.813.177 0 .097.924.227 2.052.289 2.284.126 3.524.868 3.524 2.109 0 .288.093.523.206.523.126 0 .207.895.207 2.272 0 1.376.081 2.271.206 2.271.129 0 .207 1.205.207 3.201s-.078 3.201-.207 3.201c-.12 0-.206.688-.206 1.652 0 .963-.086 1.652-.207 1.652-.113 0-.206.139-.206.31 0 .17-.093.309-.207.309-.113 0-.206.186-.206.413 0 .276-.138.413-.413.413-.275 0-.413.138-.413.413 0 .228-.093.413-.207.413-.113 0-.206.186-.206.413 0 .228-.093.413-.207.413-.113 0-.206.143-.206.317 0 .354-1.312 1.748-1.645 1.748a.21.21 0 0 0-.214.207c0 .114-.186.206-.413.206-.227 0-.413.093-.413.207 0 .114-.186.206-.413.206-.227 0-.413.093-.413.207 0 .114-.186.206-.413.206-.227 0-.413.093-.413.207 0 .114-.279.207-.619.207-.341 0-.62.092-.62.206 0 .115-.55.207-1.239.207-.688 0-1.239.091-1.239.206 0 .136-7.985.207-23.541.207H87.145v39.442h6.726c7.578 0 7.316.055 7.316-1.534 0-.519.093-.944.207-.944.113 0 .206-.279.206-.62 0-.34.09-.619.2-.619.11 0 .525-.325.922-.723.446-.446.924-.723 1.246-.723.288 0 .523-.093.523-.206 0-.114.379-.207.841-.207 1.515 0 1.431.706 1.431-12.065 0-7.513.071-11.476.207-11.476.116 0 .206-.585.206-1.343 0-.757.09-1.342.207-1.342.113 0 .206-.279.206-.619 0-.341.093-.62.207-.62.113 0 .206-.372.206-.826 0-.454.093-.826.207-.826.113 0 .206-.142.206-.315 0-.173.416-.731.924-1.239.508-.508 1.066-.924 1.239-.924.173 0 .315-.093.315-.206 0-.114.364-.207.809-.207.445 0 .842-.101.883-.224.047-.14 1.183-.268 3.012-.34 1.615-.064 2.937-.196 2.937-.293 0-.096 1.998-.175 4.44-.175s4.44.079 4.44.176c0 .096 1.785.226 3.968.288 2.617.074 3.994.19 4.044.34.041.126.21.228.375.228.398 0 1.731 1.347 1.731 1.748 0 .175.093.317.207.317.113 0 .206.465.206 1.033 0 .568.093 1.032.207 1.032.118 0 .206.62.206 1.446s.089 1.445.207 1.445c.136 0 .206 5.232.206 15.282v15.281h.62c.341 0 .619.093.619.206 0 .13 1.343.207 3.614.207 2.272 0 3.614.077 3.614.206 0 .114.372.207.826.207.454 0 .826.093.826.206 0 .114.097.207.216.207.331 0 1.23.974 1.23 1.333 0 .175.092.319.206.319.114 0 .207.372.207.826 0 .454.093.826.206.826.117 0 .207.585.207 1.342 0 .758.09 1.343.206 1.343.132 0 .207 1.755.207 4.852 0 3.098-.075 4.853-.207 4.853-.113 0-.206.352-.206.781 0 .543-.126.871-.413 1.078-.288.207-.413.534-.413 1.078 0 .429-.093.78-.207.78-.114 0-.206.186-.206.413 0 .228-.093.413-.207.413-.114 0-.206.1-.206.222 0 .121-.117.342-.259.491a7.096 7.096 0 0 0-.561.708c-.167.241-.469.438-.672.438-.202 0-.367.093-.367.207 0 .113-.186.206-.413.206-.227 0-.413.093-.413.207 0 .113-.351.206-.78.206-.544 0-.871.125-1.079.413-.226.314-.534.413-1.284.413-.543 0-.987.093-.987.207 0 .135-4.784.206-13.939.206-9.155 0-13.939-.071-13.939-.206 0-.12-.654-.207-1.549-.207-.895 0-1.549-.087-1.549-.206 0-.114-.372-.207-.826-.207-.454 0-.826-.093-.826-.206 0-.114-.186-.207-.413-.207-.227 0-.413-.093-.413-.206 0-.114-.186-.207-.413-.207-.275 0-.413-.138-.413-.413 0-.227-.093-.413-.206-.413-.114 0-.207-.186-.207-.413 0-.227-.093-.413-.206-.413-.114 0-.207-.325-.207-.723 0-.397-.093-.723-.206-.723-.114 0-.207-.371-.207-.826 0-.668-.073-.826-.385-.826-.423 0-.647 1.012-.647 2.92 0 .552-.093 1.004-.207 1.004-.114 0-.206.144-.206.319 0 .413-.92 1.333-1.333 1.333-.176 0-.32.093-.32.207 0 .118-.619.206-1.445.206-.826 0-1.446.089-1.446.207 0 .135-5.162.206-15.074.206-9.913 0-15.075-.071-15.075-.206 0-.114-.423-.207-.939-.207-1.097 0-1.952-.674-1.952-1.539 0-.388-.109-.526-.413-.526-.228 0-.413-.093-.413-.207 0-.113-.144-.206-.319-.206-.342 0-.497-.112-1.753-1.274-.451-.417-.819-.905-.819-1.085 0-.179-.093-.326-.207-.326-.114 0-.206-.185-.206-.413 0-.278-.138-.413-.423-.413-.589 0-1.436-.908-1.436-1.539 0-.289-.093-.526-.207-.526-.124 0-.206-.831-.206-2.079 0-2.601-.056-2.67-2.154-2.67-.904 0-1.563-.087-1.563-.207 0-.113-.186-.206-.413-.206-.227 0-.413-.093-.413-.207 0-.113-.186-.206-.413-.206-.275 0-.413-.138-.413-.413 0-.227-.093-.413-.207-.413-.113 0-.206-.178-.206-.396 0-.218-.116-.435-.258-.482-.206-.068-.27-10.333-.316-50.198l-.058-50.112h-4.847c-3.093 0-4.846-.074-4.846-.206 0-.114-.372-.207-.826-.207-.455 0-.826-.093-.826-.206 0-.114-.186-.207-.413-.207-.276 0-.413-.137-.413-.413 0-.227-.093-.413-.207-.413-.114 0-.206-.371-.206-.826 0-.454-.093-.826-.207-.826-.133 0-.206-2.237-.206-6.298s.073-6.299.206-6.299c.119 0 .207-.654.207-1.548 0-.895.087-1.549.206-1.549.114 0 .207-.465.207-1.033 0-.568.092-1.032.206-1.032.114 0 .207-.279.207-.62 0-.34.092-.619.206-.619.114 0 .207-.144.207-.319 0-.413.919-1.333 1.332-1.333.176 0 .32-.093.32-.207 0-.113.271-.206.602-.206.331 0 .633-.093.671-.206.038-.113 1.207-.267 2.599-.341 1.391-.075 2.529-.215 2.529-.311s6.366-.175 14.146-.175c7.78 0 14.145.08 14.145.177m-61.745 5.967c-.001.085-.348.173-.771.195-.423.022-.802.138-.842.258-.09.267-.452.29-.452.029 0-.228.955-.598 1.601-.621.255-.009.464.054.464.139m157.667.051c.26.112.298.178.103.178-.17 0-.495-.08-.723-.178-.26-.112-.298-.177-.103-.177.171 0 .496.08.723.177M10.711 42.836c-.265.276-.522.462-.571.414-.123-.123.62-.916.858-.916.108 0-.021.225-.287.502m2.368 2.664c-.2.265-.489.482-.641.482-.153 0-.017-.214.302-.475.735-.602.788-.603.339-.007m172.771 3.586c.054.048-.434.066-1.084.039-.651-.026-1.183-.12-1.183-.209 0-.158 2.071-.002 2.267.17M9.448 49.09a4.594 4.594 0 0 1-1.136 0c-.313-.048-.057-.086.568-.086.624 0 .88.038.568.086m-2.633.265c0 .113-.209.205-.465.203-.376-.003-.405-.041-.155-.203.401-.259.62-.259.62 0m-1.544.747c-.184.184-.397.272-.474.195-.076-.076-.002-.225.165-.331.488-.308.672-.227.309.136m178.048.702c-.017.225-.103.409-.191.409-.088 0-.141-.225-.119-.501.023-.276.109-.46.192-.409.082.051.135.276.118.501M4.174 53.227c-.051.982-.178 1.703-.302 1.703-.213 0-.102-1.898.177-3.009.198-.789.221-.555.125 1.306m-.405 2.431c.054.287.019.571-.08.632-.098.06-.178-.174-.178-.521 0-.767.122-.82.258-.111m183.173.46c-.093.241-.143.244-.287.017-.143-.225-.175-.222-.178.017-.002.161-.059.237-.127.169-.187-.187.066-.496.405-.496.173 0 .252.123.187.293m5.004 6.659c.366.158.349.18-.155.192-.312.008-.567-.078-.567-.192 0-.242.158-.242.722 0m-1.88.534c.194.505.151.555-.185.219-.351-.351-.396-.546-.125-.546.101 0 .241.147.31.327m4.049.602c.266.284.436.517.377.517-.164 0-.997-.754-.997-.902 0-.222.117-.15.62.385m-4.569.133c.126-.195.223-.211.322-.052.077.126.045.229-.071.229-.117 0-.184.116-.15.258.035.142.024.188-.024.102-.048-.086-.172-.104-.276-.039-.104.064-.189.013-.189-.114s-.091-.175-.204-.105c-.119.074-.15-.014-.074-.212.104-.271.165-.283.307-.062.148.229.208.228.359-.005M4.127 65.764c.127.334.114.738-.039 1.176-.175.503-.173.687.008.748.132.044.242.235.244.424.002.268.042.283.178.069.142-.225.196-.219.292.031.136.354-.35.347-.707-.01a.53.53 0 0 0-.514-.12c-.157.06-.285 0-.285-.132s.082-.19.183-.128c.308.191.401-.894.098-1.145a.828.828 0 0 1-.275-.569c.006-.292.034-.288.22.03.288.494.665.244.394-.262-.23-.431-.261-.62-.099-.62.06 0 .196.228.302.508m186.823 2.019c-.185.12-.184.195.005.317.163.106.181.264.054.465-.157.25-.198.23-.227-.109l-.057-.658c-.013-.134-.231-.503-.485-.819-.732-.909-.537-1.027.245-.148.489.549.633.843.465.952m-.552.157c0 .114-.112.207-.248.207-.193 0-.193.055 0 .247.136.137.248.337.248.445 0 .108-.186-.017-.413-.279-.451-.52-.53-.716-.207-.517.114.071.207.03.207-.091 0-.12.092-.218.206-.218.114 0 .207.093.207.206m1.961 0c.261.112.299.178.104.178-.171 0-.496-.08-.723-.178-.261-.112-.299-.177-.103-.177.17 0 .495.08.722.177m-.843 1.158c.18.069.327.227.327.351 0 .16-.068.158-.232-.006-.127-.127-.35-.186-.495-.13-.145.055-.325.002-.4-.12-.149-.241.285-.293.8-.095m.74.926c.275.195.275.209 0 .128-.17-.05-.47-.009-.666.092-.276.142-.33.112-.236-.131.14-.366.465-.398.902-.089m1.765.859c.101-.085.059.008-.093.206-.152.199-.416.362-.587.362-.244 0-.258-.062-.066-.294.2-.241.167-.273-.181-.182-.234.061-.425.015-.425-.103 0-.351.494-.42.843-.117.179.156.409.214.509.128m2.362 17.737c.002.3-.113.591-.255.645-.189.073-.238-.149-.184-.831.08-.991.433-.842.439.186m-.052 10.147c-.044.479-.079.035-.078-.987.001-1.022.036-1.414.079-.871a13.54 13.54 0 0 1-.001 1.858m0 11.358c-.044.479-.079.035-.078-.987.001-1.022.036-1.414.079-.872.042.543.042 1.38-.001 1.859m-.136 7.583c.258 0 .245.975-.015 1.136-.115.07-.208-.085-.21-.35a6.513 6.513 0 0 0-.073-.889c-.039-.228-.031-.297.018-.155.048.142.175.258.28.258m-.778 12.535c-.136.049-.197.245-.136.436.093.291.076.298-.103.046-.224-.318.111-.978.36-.707.069.075.014.176-.121.225m-1.946 2.488c-.062.388.046.543.204.295.14-.222.235-.212.5.053.201.201.376.246.455.118.071-.114.216-.208.323-.208.107 0 .008.186-.219.413-.547.547-.532.892.03.713.385-.122.406-.1.156.167-.158.169-.396.265-.53.214-.33-.126-.654.548-.556 1.154.069.423.035.455-.237.229-.266-.22-.297-.21-.194.06.094.244.024.298-.281.218-.224-.058-.478.009-.565.15-.098.16-.073.204.066.118a.258.258 0 0 1 .356.075c.072.117.203.169.289.115.087-.053.158.041.158.21 0 .212-.066.241-.213.095-.117-.118-.48-.214-.806-.214h-.592l.471.671c.321.459.357.581.112.384-.197-.158-.423-.223-.502-.144-.079.079-.01.227.154.328.163.102.231.251.15.332-.081.081-.322-.053-.535-.299-.484-.558-.716-.572-.545-.033.083.261.037.413-.123.413-.141 0-.197-.058-.125-.13.196-.196-.258-.933-.488-.791-.11.068-.137.225-.061.348.084.136.042.164-.108.072-.148-.092-.19-.333-.106-.599.12-.376.094-.406-.164-.192-.245.203-.305.195-.305-.044 0-.164.066-.257.147-.207.08.05.263-.329.407-.841.143-.512.332-.975.42-1.029.088-.054.04.355-.107.91-.24.912-.23 1.039.106 1.327.383.329.777-.04.508-.475-.058-.093.063-.125.267-.072.818.214 2.763-1.969 2.276-2.555-.15-.181-.249-.36-.221-.4.189-.261-.025-.484-.464-.484-.284 0-.516-.09-.516-.2 0-.11.13-.151.288-.09.159.061.351.012.426-.109.157-.255.33-.293.294-.066m-1.381.417c-.137.046-.189.191-.115.323.103.183.073.183-.125.001-.307-.283-.085-.762.255-.552.171.106.167.167-.015.228m1.775.602c.072.379.145.443.274.239.245-.387.225-.526-.095-.649-.201-.077-.251.036-.179.41m-2.762.323c-.215.256-.402.49-.416.521-.013.032-.179-.002-.368-.075-.275-.106-.21-.204.332-.496.9-.484.902-.484.452.05m1.979.362a.212.212 0 0 1-.215.206c-.119 0-.189.152-.155.338.036.201-.099.363-.332.399-.216.034-.466.181-.557.328-.09.146-.236.193-.324.105-.088-.088-.032-.239.125-.336.238-.147.228-.234-.057-.52-.426-.425-.436-.543-.034-.388.171.065.31.201.31.303 0 .101.103.184.229.184.125 0 .177-.134.113-.299-.076-.2-.015-.261.185-.184.164.063.299.012.299-.114s.093-.229.207-.229c.113 0 .206.093.206.207m-1.958 1.235c-.04.554-.313.797-.313.279 0-.34.156-.688.309-.688.019 0 .021.184.004.409m-.726 2.792c0 .179.187.309.445.309.439 0 .44.006.051.437l-.393.438-.066-.438c-.037-.24-.153-.437-.258-.437-.106 0-.192-.139-.192-.309 0-.171.092-.31.206-.31.114 0 .207.139.207.31m-.723 1.342c.162.263-.316.263-.723 0-.252-.163-.225-.201.143-.204.249-.001.51.09.58.204m.723 1.691c0 .272-.47.102-.573-.207-.05-.151.044-.197.246-.12.179.069.327.216.327.327m-.413.568c.056.01-.13.141-.413.291-.606.319-.672.302-.507-.125a.43.43 0 0 1 .469-.252l.451.086m-185.143 1.4c.066.172.019.23-.118.145-.125-.077-.305-.013-.401.142-.127.205-.166.166-.142-.146.036-.481.493-.579.661-.141m-1.073 7.384c-.136.709-.258.656-.258-.111 0-.347.08-.582.178-.521.099.061.134.345.08.632m.334 2.483c-.02 1.201-.026 1.214-.191.413-.249-1.202-.242-2.354.012-1.962.11.17.191.867.179 1.549m182.307.816c-.471.471-.683.389-.245-.095.207-.227.418-.371.47-.319.052.052-.049.238-.225.414m-175.694 2.398c-.219.136-.202.199.08.307.195.076.355.234.355.353 0 .119-.188.047-.418-.161-.262-.238-.345-.451-.222-.574.107-.107.149-.346.092-.531-.073-.241-.033-.227.144.049.194.305.188.422-.031.557m18.785 26.523v.413l-.177-.413a2.507 2.507 0 0 1-.178-.826v-.413l.178.413c.097.227.177.598.177.826m13.226 8.776c-.016 1.101-.115.906-.251-.492-.06-.622-.028-.899.083-.723.1.157.175.704.168 1.215m105.026 1.034c-.206.228-.416.373-.466.323-.121-.121.416-.72.654-.73.103-.004.018.179-.188.407m-15.208 3.271c-.071.538.066.831.341.726.494-.19.358.259-.188.617-.439.287-.527.289-.752.019-.212-.256-.194-.284.109-.168.313.12.331.081.132-.291-.339-.634-.297-1.297.073-1.155.167.064.295.177.285.252m-2.344 1.133c.122.104.059.129-.155.06-.2-.064-.361-.011-.361.119 0 .129-.049.185-.108.126-.059-.06-.048-.265.025-.456.074-.192.192-.276.263-.187.072.089.223.241.336.338m-.358 2.109c-.023.289-.232.684-.462.878-.416.35-.417.349-.025-.113.348-.412.354-.465.051-.465-.188 0-.341.083-.341.185 0 .101-.161.246-.357.321-.262.1-.226-.002.133-.385.27-.286.568-.473.664-.413.096.059.119-.037.051-.213-.067-.177-.021-.321.104-.321.124 0 .206.237.182.526m-63.348 1.436c.284.162.423.295.309.295-.113 0-.438-.133-.722-.295-.284-.162-.424-.295-.31-.295.113 0 .439.133.723.295m4.233 1.136c.07.113-.012.206-.182.206-.171 0-.367-.093-.438-.206-.07-.114.012-.207.183-.207.17 0 .367.093.437.207m43.263.206c-.401.259-.62.259-.62 0 0-.113.209-.205.465-.203.376.003.405.041.155.203m-30.406.555c-.197.052-.569.054-.826.004-.257-.049-.095-.091.359-.094.455-.002.665.039.467.09" fill="#f46cac"/>
  </g>
</svg>