<svg id="Layer_1" data-name="Layer 1" xmlns="http://www.w3.org/2000/svg" viewBox="0 0 1000 1000">
  <defs>
    <style>
      .cls-2{isolation:isolate}.cls-3{fill:#fff}
    </style>
  </defs>
  <path d="M111 498.35c0-214.8 174.2-389 389-389s389 174.2 389 389-174.2 389-389 389-389-174.2-389-389Z" fill="#708b96"/>
  <g id="layer4">
    <g id="text20110" class="cls-2">
      <g class="cls-2">
        <path class="cls-3" d="M317.71 642.85v40.21h-5.89v-40.21H299v-5.63h31.5v5.63ZM390.24 660.14a23.21 23.21 0 0 1-6.79 17 23.8 23.8 0 0 1-33.54 0 24.75 24.75 0 0 1 0-34.06 23.72 23.72 0 0 1 33.54.07 23.12 23.12 0 0 1 6.79 16.99Zm-41.1 0a18.13 18.13 0 0 0 5 13.12 16.82 16.82 0 0 0 12.55 5.19 16.59 16.59 0 0 0 12.48-5.19 19.54 19.54 0 0 0 0-26.24 16.59 16.59 0 0 0-12.48-5.19 16.82 16.82 0 0 0-12.56 5.17 18.13 18.13 0 0 0-4.99 13.14ZM451.31 662q0 9.6-5.69 15.3-6.4 6.78-16.84 6.78a23.94 23.94 0 1 1 0-47.88 25.56 25.56 0 0 1 9.54 1.79 19 19 0 0 1 7.36 5.06l-4.22 4.22a14.31 14.31 0 0 0-5.48-4 18.08 18.08 0 0 0-7.2-1.44A17.25 17.25 0 0 0 416.1 647a19.37 19.37 0 0 0 0 26.24 17.25 17.25 0 0 0 12.68 5.19 17.07 17.07 0 0 0 11.4-3.84 15.34 15.34 0 0 0 5.25-10.56h-16.65v-5.51H451a19 19 0 0 1 .31 3.48ZM495.87 637.22v5.63H475v14.54h18.82v5.5H475v14.54h20.87v5.63h-26.76v-45.84ZM530.06 642.85v40.21h-5.89v-40.21h-12.81v-5.63h31.5v5.63ZM565.52 683.06h-5.89v-45.84h5.89v19.66h22.92v-19.66h5.89v45.84h-5.89v-20.68h-22.92ZM640.94 637.22v5.63h-20.87v14.54h18.82v5.5h-18.82v14.54h20.87v5.63h-26.76v-45.84ZM665.39 683.06h-5.89v-45.84h15.62a14.28 14.28 0 0 1 10.15 3.94 13.17 13.17 0 0 1 1.09 18.12 13.79 13.79 0 0 1-7.84 4.7l-.13.19 12.87 18.63v.26h-7l-12.36-18.57h-6.53Zm0-40.21V659h9.48a8.55 8.55 0 0 0 6.08-2.34 7.64 7.64 0 0 0 2.5-5.79 8.11 8.11 0 0 0-8.2-8Z"/>
      </g>
    </g>
  </g>
  <g id="g93605">
    <path id="path93601" class="cls-3" d="m537.9 302.69.26 63.46 32.49.22c8.73-18.92 24.19-35.55 49.83-35.58s47 22.23 46.91 45.38c0 28.15-23.62 50.24-47.62 50.48-14.55.14-31.34-1.8-46.92-13.92l-34.49-.39.2 75.46h33.68C592 474.07 605.93 473 617.5 473c23 0 48.78 17.53 49 46.15s-21.58 49.45-45.26 49.22c-24.21-.23-42.51-14.94-48.58-34.45l-33.81-.35-.58 63.2 28.23.24.28-19.77c13.48 14.16 38.14 21.38 51.51 21.22 45.16-.54 76.89-41 77.14-78.53s-23-59.23-43.53-70.09c17.85-8.6 44.31-32.21 44-73.94s-38.46-75.08-76.5-75.12c-21.37 0-39.59 10.3-52.57 21.63l-.17-19.46Z"/>
    <path id="path93603" class="cls-3" d="m325.64 302.78.26 63.46 32.49.22c8.73-18.92 24.2-35.56 49.84-35.59s47 22.24 46.91 45.39c-.05 28.14-23.62 50.24-47.62 50.47-14.56.14-31.34-1.79-46.92-13.91l-34.49-.39.2 75.46H360c19.73-13.74 33.69-14.84 45.26-14.84 23 0 48.77 17.53 49 46.15s-21.62 49.45-45.26 49.22c-24.21-.23-42.51-14.94-48.58-34.45l-33.8-.35-.58 63.2 28.23.23.28-19.76c13.45 14.16 38.08 21.38 51.45 21.22 45.15-.55 76.89-41 77.14-78.53s-23-59.23-43.53-70.1c17.84-8.59 44.31-32.2 44-73.93s-38.46-75.08-76.49-75.12c-21.37 0-39.59 10.29-52.57 21.63l-.13-19.46Z"/>
  </g>
  <path d="M499.5 937.6c240.8 0 436-195.2 436-436a436.24 436.24 0 0 0-24.4-144.3V215.2a497.78 497.78 0 0 1 89 284.8c0 276.1-223.9 500-500 500S0 776.1 0 500a498 498 0 0 1 90-286.3v137.8a434.38 434.38 0 0 0-26.5 150.1c0 240.8 195.2 436 436 436Z" fill="#d1ceaa"/>
</svg>