<svg width="32" height="32" viewBox="0 0 32 32" fill="none" xmlns="http://www.w3.org/2000/svg">
  <path d="M0 16C0 7.163 7.163 0 16 0s16 7.163 16 16-7.163 16-16 16S0 24.837 0 16Z" fill="#708B96"/>
  <path fill-rule="evenodd" clip-rule="evenodd" d="M17.536 23.04v.032h5.504v-1.984h-2.718c1.635-1.239 2.686-3.165 2.686-5.328 0-3.738-3.138-6.768-7.008-6.768s-7.008 3.03-7.008 6.768c0 2.163 1.05 4.089 2.686 5.328H8.96v1.984h5.504v-2.667c-2.005-.63-3.456-2.465-3.456-4.629 0-2.686 2.235-4.864 4.992-4.864s4.992 2.178 4.992 4.864c0 2.164-1.45 3.998-3.456 4.63v2.634Z" fill="#fff"/>
</svg>