<svg width="100" height="100" viewBox="0 0 100 100" fill="none" xmlns="http://www.w3.org/2000/svg">
  <path fill-rule="evenodd" clip-rule="evenodd" d="M49.945 93.764c24.08 0 43.6-19.52 43.6-43.6 0-5.057-.861-9.914-2.445-14.43V21.517A49.77 49.77 0 0 1 100 50c0 27.614-22.386 50-50 50S0 77.614 0 50a49.77 49.77 0 0 1 9-28.626V35.15a43.514 43.514 0 0 0-2.654 15.015c0 24.08 19.52 43.6 43.6 43.6Z" fill="url(#a)"/>
  <path d="M11.1 50c0-21.484 17.416-38.9 38.9-38.9 21.484 0 38.9 17.416 38.9 38.9 0 21.484-17.416 38.9-38.9 38.9-21.484 0-38.9-17.416-38.9-38.9Z" fill="#708B96"/>
  <path fill-rule="evenodd" clip-rule="evenodd" d="M53.734 65.475v1.719h13.382V62.37h-6.608c3.976-3.012 6.53-7.695 6.53-12.953 0-9.088-7.628-16.455-17.038-16.455s-17.038 7.367-17.038 16.454c0 5.26 2.554 9.942 6.53 12.954h-6.608v4.824h13.382V60.71c-4.876-1.535-8.403-5.994-8.403-11.256 0-6.53 5.434-11.825 12.137-11.825s12.137 5.294 12.137 11.825c0 5.262-3.527 9.721-8.403 11.256v4.764Z" fill="#fff"/>
  <defs>
    <linearGradient id="a" x1="-83.534" y1="50" x2="189.059" y2="50" gradientUnits="userSpaceOnUse">
      <stop stop-color="#708B96"/>
      <stop offset="1" stop-color="#F7FBE7"/>
    </linearGradient>
  </defs>
</svg>