<svg xmlns="http://www.w3.org/2000/svg" width="400" height="400">
  <g fill-rule="evenodd">
    <path d="M183.005 10.392c-.139.224-1.671.408-3.405.408-1.734 0-3.264.18-3.4.4-.136.22-1.396.4-2.8.4s-2.647.153-2.763.34c-.116.187-1.969.464-4.118.615-2.15.151-4.082.448-4.294.66-.212.212-1.058.385-1.881.385s-1.608.18-1.744.4c-.136.22-.867.4-1.624.4-.757 0-1.376.18-1.376.4 0 .22-.72.4-1.6.4-.88 0-1.6.18-1.6.4 0 .22-.63.4-1.4.4-.77 0-1.4.18-1.4.4 0 .22-.54.4-1.2.4-.66 0-1.2.157-1.2.348 0 .192-1.056.468-2.347.614-1.291.146-2.465.383-2.608.526-.387.388-3.141 1.299-3.945 1.306-.385.003-.7.186-.7.406 0 .22-.54.4-1.2.4-.66 0-1.2.18-1.2.4 0 .22-.45.4-1 .4s-1 .18-1 .4c0 .22-.36.4-.8.4-.44 0-.8.17-.8.377s-.356.308-.792.225c-.435-.084-.896.016-1.023.223-.128.206-.582.375-1.009.375-.427 0-.776.18-.776.4 0 .22-.349.4-.776.4-.427 0-.888.18-1.024.4-.136.22-.687.4-1.224.4-.537 0-.976.136-.976.302 0 .167-.585.545-1.3.841-1.972.816-3.93 1.682-5.675 2.51-.866.411-1.811.747-2.1.747-.289 0-.525.18-.525.4 0 .22-.36.4-.8.4-.44 0-.8.18-.8.4 0 .22-.27.4-.6.4-.33 0-.6.143-.6.318 0 .175-.81.652-1.8 1.06-.99.409-1.8.895-1.8 1.082 0 .187-.36.34-.8.34-.44 0-.8.18-.8.4 0 .22-.345.4-.767.4-.421 0-.826.166-.9.37-.073.203-.396.428-.717.5-.866.193-1.563.879-1.312 1.292.121.199.026.242-.21.096s-.701.006-1.033.338c-.332.332-.887.604-1.232.604-.346 0-.629.177-.629.392 0 .216-.45.506-1 .644s-1 .411-1 .607c0 .197-.294.357-.653.357-.359 0-.944.324-1.3.719-.74.822-3.314 2.679-3.715 2.68-.147.001-.734.406-1.303.901s-1.212.9-1.429.9c-.216 0-.618.36-.893.8-.275.44-.728.8-1.007.8-.279 0-1.074.542-1.767 1.204-.692.662-1.335 1.128-1.427 1.035-.092-.092-.668.357-1.28.997S81.544 50.8 81.337 50.8c-.206 0-1.402.978-2.656 2.174-1.255 1.196-2.286 2.051-2.293 1.9-.007-.151-.196.041-.42.426-.224.385-.572.7-.773.7-.201 0-1.757 1.361-3.458 3.024-1.701 1.662-3.574 3.307-4.161 3.654-.587.347-1.372 1.146-1.744 1.776-.373.63-.892 1.147-1.155 1.147-.262.001-.837.54-1.277 1.199-.44.659-.907 1.198-1.039 1.199-.131 0-.654.361-1.161.801-.507.44-.798.8-.645.8.359 0-.155.602-3.656 4.282-1.596 1.677-2.826 3.125-2.733 3.218.093.093-.583.918-1.503 1.834C51.064 80.528 48 84.54 48 85.04c0 .132-.54.743-1.2 1.36-.66.617-1.2 1.304-1.2 1.527 0 .224-.151.466-.336.54-.42.166-3.264 4.21-3.264 4.641 0 .173-.36.575-.8.892-.44.317-.8.897-.8 1.288 0 .392-.18.712-.4.712-.22 0-.4.242-.4.538 0 .296-.344.849-.764 1.229-.42.381-.874 1.129-1.008 1.662-.134.534-.42.971-.636.971-.215 0-.392.32-.392.712 0 .391-.36.971-.8 1.288-.44.317-.8.897-.8 1.288 0 .392-.18.712-.4.712-.22 0-.4.27-.4.6 0 .33-.18.6-.4.6-.22 0-.4.36-.4.8 0 .44-.153.8-.34.8-.187 0-.673.81-1.082 1.8-.408.99-.885 1.8-1.06 1.8-.175 0-.318.36-.318.8 0 .44-.18.8-.4.8-.22 0-.4.36-.4.8 0 .44-.135.803-.3.806-.165.003-.84 1.26-1.5 2.794s-1.335 2.791-1.5 2.794c-.165.003-.3.366-.3.806 0 .44-.18.8-.4.8-.22 0-.4.45-.4 1s-.18 1-.4 1c-.22 0-.4.36-.4.8 0 .44-.18.8-.4.8-.22 0-.4.36-.4.8 0 .44-.141.8-.313.8-.172 0-.352.483-.401 1.073-.049.589-.358 1.483-.688 1.985-.329.503-.598 1.37-.598 1.928 0 .558-.18 1.014-.4 1.014-.22 0-.4.36-.4.8 0 .44-.18.8-.4.8-.22 0-.4.45-.4 1s-.18 1-.4 1c-.22 0-.4.439-.4.976 0 .537-.18 1.088-.4 1.224-.22.136-.4.687-.4 1.224 0 .537-.162.976-.361.976-.198 0-.486 1.08-.639 2.399-.153 1.32-.441 2.299-.639 2.177-.199-.123-.361.507-.361 1.4 0 .893-.18 1.624-.4 1.624-.22 0-.4.439-.4.976 0 .537-.18 1.088-.4 1.224-.22.136-.4.867-.4 1.624 0 .757-.143 1.376-.318 1.376-.175 0-.363.675-.418 1.5-.054.825-.271 1.56-.482 1.633-.21.074-.382.738-.382 1.477 0 .738-.164 1.444-.364 1.568-.201.124-.492 1.754-.648 3.623-.155 1.87-.441 3.399-.635 3.399s-.353 1.069-.353 2.376-.18 2.488-.4 2.624c-.22.136-.4 1.396-.4 2.8s-.18 2.664-.4 2.8c-.22.136-.4 1.666-.4 3.4s-.18 3.264-.4 3.4c-.548.339-.548 32.861 0 33.2.221.137.4 1.937.4 4.024 0 2.077.165 3.776.367 3.776.202 0 .459 1.215.57 2.7.112 1.485.39 3.69.618 4.9.228 1.21.589 3.37.803 4.8.214 1.43.511 3.14.661 3.8.15.66.361 1.875.469 2.7.108.825.357 1.5.554 1.5.197 0 .358.72.358 1.6 0 .88.18 1.6.4 1.6.22 0 .4.54.4 1.2 0 .66.143 1.2.318 1.2.175 0 .364.675.419 1.499.056.825.273 1.671.482 1.88.21.21.381.795.381 1.301 0 .506.156.92.347.92.292 0 .766 1.967.941 3.9.025.275.195.5.379.5.183 0 .333.54.333 1.2 0 .66.18 1.2.4 1.2.22 0 .4.439.4.976 0 .537.18 1.088.4 1.224.22.136.4.687.4 1.224 0 .537.18.976.4.976.22 0 .4.36.4.8 0 .44.18.8.4.8.22 0 .4.54.4 1.2 0 .66.151 1.2.336 1.2.184 0 .67 1.17 1.079 2.6.409 1.43.888 2.6 1.064 2.6.177 0 .321.27.321.6 0 .33.18.6.4.6.22 0 .4.54.4 1.2 0 .66.18 1.2.4 1.2.22 0 .4.27.4.6 0 .33.18.6.4.6.22 0 .4.238.4.529 0 .29.343 1.234.763 2.097s.679 1.705.577 1.872c-.103.166.003.302.236.302.233 0 .424.255.424.567 0 .311.135.626.3.7.165.073.748 1.033 1.295 2.133.547 1.1 1.087 2.09 1.2 2.2.362.354 1.605 2.852 1.605 3.228 0 .343.788 1.417 1.9 2.588.275.29.5.81.5 1.155 0 .346.18.629.4.629.22 0 .4.36.4.8 0 .44.168.8.373.8s.501.405.657.9c.157.495.619 1.191 1.027 1.547.409.356.743.941.743 1.3 0 .359.18.653.4.653.22 0 .4.204.4.453 0 .249.374.778.832 1.174.457.397.866.96.909 1.252.094.638 1.321 2.454 2.559 3.788.495.533.9 1.143.9 1.355 0 .212.54.95 1.2 1.641.66.691 1.2 1.401 1.2 1.578 0 .178.45.773 1 1.323.55.55 1 1.145 1 1.324 0 .178.81 1.109 1.8 2.068.99.96 1.8 1.986 1.8 2.28 0 .295.322.708.716.919.394.211.961.841 1.26 1.4.3.56.665.943.811.853.147-.091.525.213.84.676.315.463 1.143 1.443 1.84 2.179.696.735 1.184 1.337 1.083 1.337-.1 0 .545.713 1.434 1.584.889.871 1.616 1.741 1.616 1.933 0 .191.444.585.986.876.543.29.892.68.777.867-.116.187-.052.34.142.34.193 0 1.197.81 2.23 1.8 1.034.99 2.067 1.8 2.296 1.8.229 0 .321.154.204.343-.117.189.413.68 1.176 1.091.764.411 1.389.842 1.389.957 0 .461 3.141 3.609 3.601 3.609.271 0 1.108.54 1.86 1.2.752.66 1.228 1.2 1.058 1.2-.169 0 .634.635 1.786 1.411 1.152.775 2.095 1.596 2.095 1.823 0 .227.18.302.4.166.22-.136.4-.057.4.176 0 .233.204.424.453.424.249 0 .744.318 1.1.707.924 1.01 4.585 3.711 4.977 3.673.182-.018.653.339 1.047.794.394.454.967.826 1.274.826.306 0 .781.36 1.056.8.275.44.74.8 1.034.8.294 0 .846.344 1.226.764.381.42 1.129.874 1.662 1.008.534.134.971.42.971.636 0 .215.27.392.6.392.33 0 .6.18.6.4 0 .22.278.4.617.4.339 0 1.003.36 1.475.8.472.44 1.095.8 1.383.8.289 0 .525.18.525.4 0 .22.27.4.6.4.33 0 .6.158.6.35 0 .193.534.457 1.188.587.653.131 1.553.604 2 1.05.446.447 1.082.813 1.412.813.33 0 .6.18.6.4 0 .22.234.4.52.4.703 0 2.673.934 2.677 1.268.002.148.541.387 1.198.531.658.144 1.299.429 1.424.632.126.203.578.369 1.005.369.427 0 .776.18.776.4 0 .22.234.4.52.4.736 0 2.673.941 2.677 1.3.002.165.453.3 1.003.3.55 0 1 .18 1 .4 0 .22.27.4.6.4.33 0 .6.137.6.305 0 .168 1.17.64 2.6 1.05 1.43.409 2.6.902 2.6 1.095 0 .192.54.35 1.2.35.66 0 1.2.18 1.2.4 0 .22.36.4.8.4.44 0 .8.18.8.4 0 .22.283.4.629.4.347 0 1.97.45 3.609 1 1.638.55 3.335 1 3.77 1 .436 0 .792.18.792.4 0 .22.439.4.976.4.537 0 1.088.18 1.224.4.136.22.676.4 1.2.4.524 0 1.064.18 1.2.4.136.22.766.4 1.4.4.634 0 1.264.18 1.4.4.136.22.867.4 1.624.4.757 0 1.376.161 1.376.358 0 .197.675.445 1.5.552.825.106 1.95.315 2.5.464.55.148 2.035.375 3.3.504 1.265.128 2.3.388 2.3.578 0 .189.799.344 1.776.344s1.888.18 2.024.4c.136.22 1.126.4 2.2.4 1.074 0 2.064.18 2.2.4.136.22 1.486.4 3 .4s2.864.18 3 .4c.136.22 1.867.4 3.847.4 2.298 0 3.511.145 3.353.4-.163.264 5.47.4 16.6.4 11.13 0 16.763-.136 16.6-.4-.158-.255 1.036-.4 3.296-.4 1.949 0 3.715-.167 3.924-.372.209-.204 1.55-.411 2.98-.459 1.43-.048 2.786-.23 3.013-.405.228-.175 1.253-.362 2.278-.415 1.026-.053 1.774-.243 1.664-.423-.111-.179.798-.326 2.021-.326 1.223 0 2.224-.159 2.224-.353 0-.332 4.847-1.08 5.87-.906a.771.771 0 0 0 .723-.33c.14-.226.874-.411 1.631-.411s1.376-.18 1.376-.4c0-.22.619-.4 1.376-.4.757 0 1.488-.18 1.624-.4.136-.22.766-.4 1.4-.4.634 0 1.264-.18 1.4-.4.136-.22.676-.4 1.2-.4.524 0 1.064-.18 1.2-.4.136-.22.687-.4 1.224-.4.537 0 .976-.163.976-.362 0-.2.945-.492 2.1-.649 1.155-.157 2.2-.443 2.322-.635.123-.193.708-.39 1.3-.439.593-.049 1.078-.23 1.078-.402 0-.172.45-.313 1-.313s1-.18 1-.4c0-.22.36-.4.8-.4.44 0 .8-.18.8-.4 0-.22.54-.4 1.2-.4.66 0 1.2-.135 1.2-.3 0-.165 1.17-.653 2.6-1.085 1.43-.432 2.6-.927 2.6-1.1 0-.173.371-.315.824-.315.453 0 .712-.18.576-.4-.14-.226.188-.4.753-.4.55 0 1.111-.18 1.247-.4.136-.22.607-.4 1.047-.4.44 0 .689-.18.553-.4-.136-.22.123-.4.576-.4.453 0 .824-.18.824-.4 0-.22.257-.4.571-.4.314 0 1.78-.63 3.257-1.4 1.477-.77 2.93-1.4 3.229-1.4.299 0 .543-.18.543-.4 0-.22.27-.4.6-.4.33 0 .966-.366 1.412-.812.447-.447 1.347-.92 2-1.051.654-.13 1.188-.394 1.188-.587 0-.192.27-.35.6-.35.33 0 .6-.18.6-.4 0-.22.27-.4.6-.4.33 0 .6-.18.6-.4 0-.22.27-.4.6-.4.33 0 .6-.18.6-.4 0-.22.36-.4.8-.4.44 0 .8-.18.8-.4 0-.22.27-.4.6-.4.33 0 .6-.177.6-.392 0-.216.437-.502.971-.636.533-.134 1.281-.588 1.662-1.008.38-.42.933-.764 1.229-.764.296 0 .538-.18.538-.4 0-.22.281-.4.624-.4.343 0 .512-.18.376-.4-.136-.22-.048-.4.196-.4.379 0 1.278-.552 5.537-3.4.329-.22 1.315-1.079 2.19-1.909.876-.83 1.672-1.429 1.77-1.331.099.098.729-.348 1.402-.991.673-.643 1.478-1.169 1.788-1.169.31 0 .453-.18.317-.4-.136-.22-.045-.4.203-.4s1.024-.585 1.724-1.3c.7-.715 1.528-1.355 1.839-1.422.543-.117 3.634-3.253 3.634-3.687 0-.115.625-.546 1.389-.957.763-.411 1.293-.902 1.176-1.091-.117-.189-.067-.347.111-.352.178-.005 1.206-.815 2.285-1.8 1.079-.985 2.124-1.791 2.324-1.791.199 0 .268-.153.152-.34-.115-.187.234-.577.777-.867.542-.291.986-.685.986-.876 0-.192.855-1.2 1.9-2.242 1.045-1.041 2.26-2.399 2.7-3.016 1.199-1.685 2.2-2.818 2.2-2.492 0 .16.27.02.6-.31.33-.33.6-.786.6-1.014 0-.228.36-.608.8-.843.44-.235.8-.626.8-.867s.643-1.045 1.428-1.786c.786-.741 1.281-1.352 1.1-1.359-.18-.007-.013-.196.372-.42.385-.224.7-.587.7-.806 0-.219.45-.848 1-1.398.55-.55 1-1.145 1-1.323 0-.177.54-.887 1.2-1.578.66-.691 1.2-1.446 1.2-1.678 0-.232.405-.841.9-1.353 1.556-1.611 2.209-2.516 2.517-3.489.163-.519.632-1.234 1.04-1.59.409-.356.743-.768.743-.917 0-.148.36-.656.8-1.128.44-.472.8-1.095.8-1.383 0-.289.16-.525.357-.525.196 0 .469-.45.607-1s.428-1 .644-1c.215 0 .392-.36.392-.8 0-.44.18-.8.4-.8.22 0 .4-.39.4-.867 0-.476.117-.749.261-.606.143.144.471-.141.729-.633.898-1.715 1.614-2.899 2.172-3.594.309-.385.434-.7.277-.7-.156 0 .035-.54.425-1.2.39-.66.85-1.2 1.022-1.2.173 0 .314-.36.314-.8 0-.44.18-.8.4-.8.22 0 .4-.36.4-.8 0-.44.18-.8.4-.8.22 0 .4-.27.4-.6 0-.33.18-.6.4-.6.22 0 .359-.135.309-.3-.139-.46 1.45-4.097 1.791-4.099.165 0 .3-.361.3-.801 0-.44.18-.8.4-.8.22 0 .4-.54.4-1.2 0-.66.18-1.2.4-1.2.22 0 .4-.27.4-.6 0-.33.147-.6.328-.6.18 0 .572-.9.872-2 .3-1.1.662-2 .806-2 .143 0 .288-.225.321-.5.207-1.728.614-3.1.918-3.1.195 0 .355-.36.355-.8 0-.44.18-.8.4-.8.22 0 .4-.45.4-1s.18-1 .4-1c.22 0 .4-.54.4-1.2 0-.66.18-1.2.4-1.2.22 0 .4-.439.4-.976 0-.537.172-1.083.382-1.213.209-.129.503-1.31.651-2.623.149-1.313.427-2.388.619-2.388.191 0 .348-.349.348-.776 0-.427.18-.888.4-1.024.22-.136.4-.766.4-1.4 0-.634.18-1.264.4-1.4.22-.136.4-.867.4-1.624 0-.757.18-1.376.4-1.376.22 0 .4-.72.4-1.6 0-.88.18-1.6.4-1.6.22 0 .4-.709.4-1.576 0-.867.165-1.679.366-1.803.201-.125.493-1.62.648-3.324.155-1.703.422-3.277.593-3.497.305-.393.543-2.114 1.036-7.5.136-1.485.407-2.7.602-2.7s.355-1.62.355-3.6c0-2.133.163-3.6.4-3.6.26 0 .4-5.8.4-16.6 0-9.13-.156-16.6-.347-16.6-.192 0-.381-1.665-.421-3.7-.04-2.035-.243-3.76-.452-3.833-.209-.074-.38-1.278-.38-2.677 0-1.398-.18-2.654-.4-2.79-.22-.136-.4-1.317-.4-2.624 0-1.307-.155-2.376-.345-2.376-.189 0-.47-1.381-.623-3.069-.153-1.688-.44-3.373-.639-3.743-.198-.371-.404-1.33-.458-2.131-.054-.801-.242-1.457-.417-1.457s-.318-.529-.318-1.176c0-.647-.16-1.276-.356-1.397-.195-.121-.449-.806-.563-1.523-.113-.717-.418-2.024-.677-2.904-.258-.88-.565-2.095-.682-2.7-.117-.605-.355-1.1-.528-1.1-.174 0-.441-1.08-.594-2.4-.153-1.32-.397-2.4-.542-2.4-.302 0-1.258-2.884-1.258-3.794 0-.333-.18-.606-.4-.606-.22 0-.4-.362-.4-.805 0-.76-.709-2.355-1.242-2.795-.134-.11-.375-.92-.537-1.799-.162-.88-.457-1.7-.656-1.822-.199-.123-.401-.709-.45-1.301-.049-.593-.23-1.078-.402-1.078-.172 0-.313-.36-.313-.8 0-.44-.18-.8-.4-.8-.22 0-.4-.36-.4-.8 0-.44-.18-.8-.4-.8-.22 0-.4-.45-.4-1s-.18-1-.4-1c-.22 0-.4-.371-.4-.824 0-.453-.18-.712-.4-.576-.22.136-.401-.078-.402-.476-.002-.398-.272-1.24-.6-1.87-.329-.63-.598-1.395-.598-1.7 0-.305-.18-.554-.4-.554-.22 0-.4-.36-.4-.8 0-.44-.18-.8-.4-.8-.22 0-.4-.27-.4-.6 0-.33-.18-.6-.4-.6-.22 0-.4-.36-.4-.8 0-.44-.18-.8-.4-.8-.22 0-.4-.36-.4-.8 0-.44-.16-.8-.357-.8-.196 0-.469-.45-.607-1s-.428-1-.644-1c-.215 0-.392-.36-.392-.8 0-.44-.18-.8-.4-.8-.22 0-.4-.255-.4-.567 0-.311-.167-.626-.37-.7-.204-.073-.429-.403-.5-.733-.072-.33-.445-.891-.83-1.247-.385-.356-.7-.941-.7-1.3 0-.359-.145-.653-.323-.653-.178 0-.641-.72-1.029-1.6-.388-.88-.873-1.6-1.077-1.6-.204 0-.371-.27-.371-.6 0-.33-.18-.6-.4-.6-.22 0-.4-.32-.4-.712 0-.391-.36-.971-.8-1.288-.44-.317-.8-.779-.8-1.027 0-.248-.36-.866-.8-1.373-.44-.507-.8-1.067-.8-1.243 0-.176-.45-.771-1-1.321-.55-.55-1-1.122-1-1.271 0-.149-.315-.562-.7-.918-.774-.716-4.5-5.542-4.5-5.829 0-.1-.405-.609-.9-1.131-1.397-1.473-3.047-3.487-2.856-3.487.094 0-.867-1.059-2.137-2.354-3.005-3.066-4.063-4.357-3.793-4.627.121-.12-.111-.219-.514-.219s-.632-.101-.508-.225c.258-.259-2.878-3.375-3.396-3.375-.189 0-.232-.18-.096-.4.136-.22-.063-.4-.443-.4s-.574-.117-.431-.259c.143-.143-.142-.604-.633-1.025l-1.693-1.451c-.44-.377-.974-.771-1.187-.875-.212-.105-1.517-1.315-2.899-2.69-1.381-1.375-2.703-2.5-2.937-2.5-.233 0-.313-.18-.177-.4.136-.22-.025-.4-.359-.4-.333 0-1.619-.99-2.859-2.2-1.239-1.21-2.435-2.2-2.657-2.2-.222 0-.903-.534-1.512-1.186-.609-.652-1.193-1.101-1.297-.996-.105.104-.757-.352-1.449-1.014-.693-.662-1.362-1.204-1.487-1.204-.228 0-3.096-2.169-4.099-3.1-.296-.275-.767-.5-1.048-.5-.28 0-.835-.36-1.233-.8-.398-.44-.965-.8-1.259-.8-.294 0-.759-.36-1.034-.8-.275-.44-.816-.8-1.203-.8-.387 0-.704-.18-.704-.4 0-.22-.27-.4-.6-.4-.33 0-.6-.16-.6-.357 0-.196-.453-.47-1.006-.609-.895-.224-1.497-.614-3.148-2.034a2.866 2.866 0 0 0-1.056-.53c-.324-.072-.65-.297-.723-.5-.074-.204-.402-.37-.729-.37-.327 0-.867-.272-1.199-.604-.332-.332-.769-.501-.971-.376-.203.125-.368.04-.368-.189s-.45-.529-1-.667-1-.411-1-.607c0-.197-.36-.357-.8-.357-.44 0-.8-.18-.8-.4 0-.22-.27-.4-.6-.4-.33 0-.6-.18-.6-.4 0-.22-.226-.4-.501-.4-.276 0-1.8-.63-3.388-1.4-1.587-.77-3.071-1.4-3.298-1.4a.408.408 0 0 1-.413-.4c0-.22-.54-.4-1.2-.4-.66 0-1.2-.18-1.2-.4 0-.22-.27-.4-.6-.4-.33 0-.6-.18-.6-.4 0-.22-.272-.4-.604-.4-.528 0-3.206-1.057-4.996-1.972-.33-.169-.915-.26-1.3-.203-.385.057-.7-.06-.7-.26 0-.201-.36-.365-.8-.365-.44 0-.8-.18-.8-.4 0-.22-.45-.4-1-.4s-1-.141-1-.313c0-.172-.487-.353-1.082-.402-.596-.049-1.262-.269-1.48-.487-.219-.219-.722-.398-1.118-.398-.396 0-.72-.141-.72-.313 0-.172-.477-.352-1.06-.4-.582-.048-1.29-.279-1.572-.513-.282-.235-1.515-.53-2.74-.656-1.226-.126-2.228-.385-2.228-.574 0-.189-.439-.344-.976-.344-.537 0-1.088-.18-1.224-.4-.136-.22-.867-.4-1.624-.4-.757 0-1.376-.18-1.376-.4 0-.22-.619-.4-1.376-.4-.757 0-1.476-.161-1.598-.358-.121-.197-.897-.46-1.723-.584-3.752-.567-4.731-.775-5.128-1.092-.234-.187-2.175-.462-4.313-.613-2.139-.15-3.983-.426-4.099-.613-.116-.187-1.37-.34-2.787-.34-1.417 0-2.576-.167-2.576-.372 0-.853-40.474-1.679-40.995-.836M159.4 73.6c.136.22 1.333.4 2.661.4 2.077 0 2.443.111 2.623.8.173.662.546.8 2.163.8 3.429 0 3.553.313 3.553 8.951 0 6.046-.106 7.439-.6 7.849-.486.403-.6 1.669-.6 6.649 0 5.884-.035 6.151-.8 6.151-.793 0-.8.267-.8 29.6v29.6h40.776c26.753 0 40.862-.138 41.024-.4.492-.797 28.601-.458 30 .362l1.2.703.106 12.067c.07 7.965-.032 12.068-.3 12.068-.223 0-.406.27-.406.6 0 .53-6.511.6-56.2.6h-56.2v43.553c0 43.217.006 43.555.8 43.763.832.217 1.194 2.284.4 2.284-.22 0-.4.27-.4.6 0 .378.381.6 1.031.6.944 0 1.021.126.921 1.511-.14 1.946.119 2.319 2.302 3.313 1.492.68 1.722.923 1.327 1.399-.381.459-.356.577.123.577.332 0 .693.346.804.769.127.486.622.817 1.346.9.726.083 1.291.461 1.541 1.031.293.669.73.9 1.7.9 1.038 0 1.305.163 1.305.8 0 .44.159.8.353.8.195 0 .448.36.563.8.141.541.546.8 1.247.8.57 0 1.037.18 1.037.4 0 .255 3.4.4 9.4.4s9.4-.145 9.4-.4c0-.22.609-.4 1.353-.4 1.017 0 1.406-.199 1.563-.8.213-.814 1.884-1.168 1.884-.4 0 .22.27.4.6.4.33 0 .6-.18.6-.4 0-.22.286-.4.636-.4.729 0 2.131-1.532 2.151-2.351.01-.418.4-.489 1.613-.295 1.274.203 1.6.132 1.6-.349 0-.362.364-.605.906-.605.674 0 1.082-.409 1.598-1.6.603-1.391.864-1.602 1.995-1.613 1.373-.013 2.701-.766 2.701-1.531 0-.251.283-.456.629-.456.808 0 1.771-.963 1.771-1.771 0-.362.339-.629.8-.629.44 0 .8-.18.8-.4 0-.22.27-.4.6-.4.33 0 .6-.27.6-.6 0-.33.18-.6.4-.6.22 0 .4-.36.4-.8 0-.504.267-.8.72-.8 1.196 0 2.705-.893 3.168-1.874.24-.509.274-.926.074-.926-.696 0-.457-51.687.246-53.096l.608-1.22 6.692-.298c7.288-.324 30.576-.028 31.265.398.298.183.427 11.521.427 37.36 0 28.319.114 37.21.48 37.576.351.351 3.508.48 11.706.48h11.225l.693 1.6c.382.88.964 1.6 1.295 1.6.509 0 .601.953.601 6.229 0 6.249-.238 7.371-1.563 7.371-.231 0-1.868 1.44-3.637 3.2-1.769 1.76-3.406 3.2-3.637 3.2-.56 0-1.563 1.027-1.563 1.6 0 1.598-.027 1.6-27.371 1.6-25.421 0-26.229-.023-26.229-.753 0-.417-.357-.847-.8-.963-.751-.196-.8-.546-.8-5.647 0-5.17.039-5.437.8-5.437.773 0 .8-.267.8-8.049 0-7.109-.07-7.991-.6-7.551-.33.274-.6 1.106-.6 1.849 0 1.084-.158 1.351-.8 1.351-.452 0-.8.267-.8.613 0 .336-.27.716-.6.842-.33.127-.6.466-.6.754s-.54.763-1.2 1.055c-.989.438-1.2.767-1.2 1.871 0 1.003-.201 1.392-.8 1.549-.44.115-.8.458-.8.763a.555.555 0 0 1-.553.553c-.305 0-.648.36-.763.8-.115.44-.453.8-.752.8-.298 0-.72.405-.937.9-.217.495-.8 1.078-1.295 1.295-.495.217-.9.622-.9.9s-.249.505-.553.505c-.305 0-.648.36-.763.8-.16.613-.546.8-1.647.8-.79 0-1.437.18-1.437.4 0 .22-.27.4-.6.4-.33 0-.6.27-.6.6 0 .33-.18.6-.4.6-.22 0-.4.36-.4.8 0 .647-.267.8-1.395.8-1.206 0-1.471.183-1.959 1.351-.727 1.74-.817 1.785-4.196 2.099-2.415.224-2.85.378-2.85 1.007 0 .611-.312.743-1.753.743-1.417 0-1.794.153-1.963.8-.178.68-.546.8-2.447.8-1.23 0-2.237.18-2.237.4 0 .22-.608.4-1.351.4s-1.575.27-1.849.6c-.274.33-.8.6-1.169.6-.855 0-2.824.905-2.828 1.3-.008.798-25.533.326-27.003-.5-.783-.44-1.779-.8-2.212-.8-.433 0-.789-.225-.791-.5-.004-.546-1.778-1.5-2.788-1.5-.348 0-.892-.36-1.209-.8-.317-.44-1.004-.8-1.526-.8-.593 0-1.023-.283-1.146-.754-.136-.519-.7-.835-1.803-1.012-1.133-.181-1.667-.489-1.812-1.045-.113-.434-.472-.789-.797-.789-.325 0-.685-.36-.8-.8-.132-.503-.546-.8-1.116-.8-.57 0-.984-.297-1.116-.8-.115-.44-.496-.8-.847-.8-.35 0-.637-.27-.637-.6 0-.378-.381-.6-1.03-.6-.875 0-1.019-.166-.958-1.1.142-2.147.013-2.444-1.112-2.573-.852-.098-1.128-.366-1.223-1.186-.072-.622-.425-1.139-.855-1.251-.538-.141-.808-.737-1.015-2.241-.227-1.65-.43-2.049-1.045-2.049-.482 0-.762-.279-.762-.759 0-.418-.54-1.786-1.2-3.041-.66-1.255-1.2-2.592-1.2-2.971s-.451-1.113-1.002-1.631l-1.001-.94.101-97.529c.093-89.05.047-97.529-.536-97.529-.351 0-.964-.36-1.362-.8-.69-.762-1.232-.8-11.536-.8-13.935 0-12.664.946-12.664-9.423 0-7.347.035-7.693.8-7.893.541-.141.8-.546.8-1.247 0-.988.102-1.037 2.153-1.037 1.78 0 2.188-.132 2.352-.76.168-.642.731-.805 3.612-1.044 2.873-.24 3.444-.404 3.611-1.04.176-.675.608-.756 4.011-.756 2.111 0 3.924-.179 4.061-.4.159-.256 6.33-.4 17.2-.4s17.041.144 17.2.4" fill="#b4fcdc"/>
    <path d="M125.4 73.6c-.138.223-1.989.4-4.177.4-3.593 0-3.948.068-4.139.8-.165.633-.546.8-1.823.8-.888 0-1.725.18-1.861.4-.136.22-1.026.4-1.977.4-1.393 0-1.77.156-1.939.8-.175.668-.546.8-2.247.8-1.88 0-2.037.074-2.037.953 0 .617-.282 1.028-.8 1.163-.763.2-.8.546-.8 7.572v7.362l1.122 1.075 1.122 1.075h10.829c9.138 0 10.907.094 11.327.6.274.33.825.6 1.225.6.861 0 1.361.638.782.996-.274.169-.407 31.983-.407 97.267v97.016l1.2 1.121c.66.617 1.2 1.381 1.2 1.699 0 .535.736 2.345 1.626 3.996.206.382.374 1.036.374 1.453 0 .422.355.851.8.968.541.141.8.546.8 1.247 0 .57.18 1.037.4 1.037.22 0 .4.467.4 1.037 0 .701.259 1.106.8 1.247.518.135.8.546.8 1.163 0 .721.219.954.9.956.962.003 2.297 2.065 1.508 2.328-.869.289-.383 1.269.629 1.269.701 0 1.106.259 1.247.8.115.44.437.8.716.8.279 0 .601.36.716.8.141.541.546.8 1.247.8.616 0 1.037.224 1.037.553 0 .305.36.648.8.763.44.115.801.451.803.747.004.598 1.761 1.537 2.877 1.537.453 0 .72.296.72.8 0 .576.267.8.951.8.523 0 1.175.27 1.449.6.274.33.808.6 1.188.6 1.097 0 3.212 1.204 3.212 1.829 0 .314.324.571.72.571.894 0 2.873.894 2.877 1.3.012 1.159 27.188.16 27.2-1 .002-.165.419-.3.928-.3.508 0 1.311-.36 1.783-.8.472-.44 1.395-.8 2.052-.8.656 0 1.304-.18 1.44-.4.136-.22 1.137-.4 2.224-.4 1.49 0 1.976-.148 1.976-.6 0-.442.461-.6 1.753-.6 1.417 0 1.794-.153 1.963-.8.165-.633.546-.8 1.823-.8.888 0 1.725-.18 1.861-.4.136-.22.833-.4 1.549-.4 1.116 0 1.38-.199 1.851-1.4.465-1.184.742-1.4 1.8-1.4 1.06 0 1.335-.215 1.804-1.41.584-1.488 2.226-2.59 3.857-2.59.568 0 .939-.237.939-.6 0-.333.356-.6.8-.6.533 0 .8-.267.8-.8 0-.44.23-.8.512-.8.609 0 3.088-2.542 3.088-3.166 0-.238.36-.434.8-.434.533 0 .8-.267.8-.8s.267-.8.8-.8c.642 0 .8-.267.8-1.353 0-1.015.199-1.406.795-1.562.438-.114.973-.675 1.19-1.246.217-.572.649-1.039.958-1.039.31 0 .658-.36.773-.8.115-.44.496-.8.847-.8.457 0 .637-.382.637-1.351 0-.743.27-1.575.6-1.849.53-.44.6.464.6 7.751 0 7.066-.086 8.249-.6 8.249-.505 0-.6.889-.6 5.6 0 4.711.095 5.6.6 5.6.33 0 .6.271.6.603 0 .532 3.109.591 26.495.5l26.494-.103.54-1.126c.296-.619.839-1.228 1.205-1.354.366-.126 2.126-1.66 3.909-3.409 1.784-1.75 3.674-3.395 4.2-3.657 1.342-.668 1.738-12.577.43-12.919-.411-.107-.989-.812-1.285-1.565l-.537-1.37h-11.154c-9.134 0-11.258-.104-11.726-.571-.487-.487-.571-6.069-.571-37.8V221.6h-3.176c-1.747 0-3.288-.18-3.424-.4-.156-.253-4.871-.4-12.824-.4-8.117 0-12.576.142-12.576.4 0 .232-1.301.4-3.102.4-4.465 0-4.118-2.466-4.09 29.006.014 14.697-.121 26.867-.299 27.045-.177.177-1.035.471-1.905.652-1.333.277-1.643.536-1.96 1.643-.28.974-.767 1.483-1.886 1.968-.829.359-1.596.989-1.704 1.399-.107.411-.551.84-.987.954-.436.114-.883.55-.993.97-.109.42-.486.763-.837.763-.35 0-.637.18-.637.4 0 .22-.585.404-1.3.409-1.063.008-1.416.245-1.934 1.3-.386.785-.992 1.343-1.546 1.425-.502.074-1.003.479-1.113.9-.213.816-1.096 1.03-1.507.366-.362-.585-1.4-.489-1.4.13 0 1.323-3.637 3.469-4.569 2.696-.682-.566-1.431-.253-1.431.598 0 .39-.445.576-1.376.576-.757 0-1.488.18-1.624.4-.154.249-3.871.4-9.824.4-6.117 0-9.576-.144-9.576-.4 0-.22-.429-.4-.953-.4-.641 0-1.043-.295-1.227-.9-.166-.545-.355-.703-.48-.4-.114.275-.408.5-.653.5-.311 0-.301-.146.033-.48.9-.9.533-1.52-.898-1.52-1.11 0-1.481-.214-1.903-1.1-.342-.717-.892-1.143-1.581-1.223-.645-.074-1.136-.425-1.26-.9-.112-.427-.512-.777-.89-.777-.524 0-.582-.125-.247-.529.343-.413.133-.65-.951-1.075-1.683-.66-3.241-2.194-2.62-2.577.903-.558.494-2.219-.546-2.219-1.148 0-1.702-.682-1.069-1.315.662-.662.552-2.285-.155-2.285-.53 0-.6-5.133-.6-43.8v-43.8h56.2c55.933 0 56.2-.004 56.2-.8 0-.44.18-.8.4-.8.257 0 .4-4.143.4-11.629 0-12.181-.082-12.771-1.771-12.771-.346 0-.629-.18-.629-.4 0-.259-4.992-.4-14.176-.4-9.02 0-14.267.146-14.424.4-.162.262-14.337.4-41.224.4H167.6v-29.6c0-26.044.072-29.6.6-29.6.507 0 .6-.949.6-6.138 0-5.63.066-6.198.8-6.862.743-.672.8-1.232.8-7.792 0-8.394-.185-8.808-3.926-8.808-1.807 0-2.074-.103-2.074-.8 0-.717-.267-.8-2.576-.8-1.417 0-2.688-.18-2.824-.4-.158-.256-6.196-.4-16.8-.4-10.604 0-16.642.144-16.8.4" fill="#f46cac"/>
  </g>
</svg>
