<svg width="32" height="32" viewBox="0 0 32 32" fill="none" xmlns="http://www.w3.org/2000/svg">
<path d="M0 16C0 7.16344 7.16344 0 16 0C24.8366 0 32 7.16344 32 16C32 24.8366 24.8366 32 16 32C7.16344 32 0 24.8366 0 16Z" fill="#708B96"/>
<path fill-rule="evenodd" clip-rule="evenodd" d="M17.536 23.04L17.536 23.072H23.04V21.088H20.322C21.9573 19.849 23.008 17.923 23.008 15.76C23.008 12.0221 19.8704 8.992 16 8.992C12.1296 8.992 8.99199 12.0221 8.99199 15.76C8.99199 17.923 10.0427 19.849 11.678 21.088H8.95999V23.072H14.464V23.04V22.3649V20.4054C12.4585 19.7742 11.008 17.9401 11.008 15.776C11.008 13.0897 13.243 10.912 16 10.912C18.757 10.912 20.992 13.0897 20.992 15.776C20.992 17.9401 19.5414 19.7742 17.536 20.4054V23.04Z" fill="white"/>
</svg>
