<svg width="180" height="180" fill="none" version="1.1" viewBox="0 0 180 180" xmlns="http://www.w3.org/2000/svg">
 <path d="m10 90c0-44.183 35.817-80 80-80 44.183 0 80 35.817 80 80 0 44.183-35.817 80-80 80-44.183 0-80-35.817-80-80z" fill="#fff"/>
 <rect x="54.8" y="54.96" width="70.4" height="70.4" fill="#fff"/>
 <path d="m82.32 125.36v-13.333c-10.027-3.1562-17.28-12.326-17.28-23.147 0-13.432 11.175-24.32 24.96-24.32 13.785 0 24.96 10.888 24.96 24.32 0 10.821-7.2527 19.991-17.28 23.147l-1e-4 9.798 1e-4 3.375-1e-4.16h27.52v-9.92h-13.59c8.177-6.195 13.43-15.825 13.43-26.64 0-18.689-15.688-33.84-35.04-33.84-19.352 0-35.04 15.151-35.04 33.84 0 10.815 5.2533 20.445 13.43 26.64h-13.59v9.92z" clip-rule="evenodd" fill="#708b96" fill-rule="evenodd"/>
 <path d="m90 160c-38.66 0-70-31.34-70-70h-20c0 49.706 40.294 90 90 90zm70-70c0 38.66-31.34 70-70 70v20c49.706 0 90-40.294 90-90zm-70-70c38.66 0 70 31.34 70 70h20c0-49.706-40.294-90-90-90zm0-20c-49.706 0-90 40.294-90 90h20c0-38.66 31.34-70 70-70z" fill="url(#paint0_linear_359)"/>
 <defs>
  <linearGradient id="paint0_linear_359" x1="80" x2="80" y1="-84" y2="256" gradientTransform="translate(10,10)" gradientUnits="userSpaceOnUse">
   <stop stop-color="#708B96" offset=".19495"/>
   <stop stop-color="#F7FBE7" offset="1"/>
  </linearGradient>
 </defs>
</svg>
