<svg width="20" height="20" viewBox="0 0 20 20" fill="none" xmlns="http://www.w3.org/2000/svg">
<path d="M5.30469 17.3984H6.91406C7.03125 17.3984 7.10156 17.4297 7.1875 17.5156L8.32812 18.6484C9.44531 19.7656 10.5469 19.7656 11.6641 18.6484L12.8047 17.5156C12.8906 17.4297 12.9609 17.3984 13.0781 17.3984H14.6875C16.2656 17.3984 17.0469 16.6172 17.0469 15.0391V13.4297C17.0469 13.3203 17.0781 13.2344 17.1641 13.1562L18.2969 12.0156C19.4141 10.8984 19.4141 9.79688 18.2969 8.67969L17.1641 7.54688C17.0703 7.45312 17.0469 7.38281 17.0469 7.27344V5.66406C17.0469 4.07812 16.2578 3.29688 14.6875 3.29688H13.0781C12.9609 3.29688 12.8828 3.26562 12.8047 3.1875L11.6641 2.05469C10.5391 0.921875 9.46094 0.9375 8.32812 2.0625L7.1875 3.1875C7.10938 3.26562 7.03125 3.29688 6.91406 3.29688H5.30469C3.72656 3.29688 2.94531 4.07031 2.94531 5.66406V7.27344C2.94531 7.38281 2.91406 7.46094 2.83594 7.54688L1.69531 8.67969C0.578125 9.79688 0.578125 10.8984 1.69531 12.0156L2.83594 13.1562C2.91406 13.2344 2.94531 13.3203 2.94531 13.4297V15.0391C2.94531 16.6172 3.73438 17.3984 5.30469 17.3984ZM5.79688 15.3438C5.13281 15.3438 5.01562 15.2266 5.00781 14.5547V12.7344C5.00781 12.5156 4.95312 12.3594 4.79688 12.2109L3.5 10.9141C3.02344 10.4375 3.02344 10.2812 3.5 9.80469L4.79688 8.50781C4.95312 8.35156 5.00781 8.19531 5.01562 7.98438V6.16406C5.01562 5.48438 5.125 5.375 5.79688 5.375L7.625 5.36719C7.83594 5.36719 8 5.30469 8.14844 5.15625L9.44531 3.85938C9.92188 3.39062 10.0703 3.38281 10.5469 3.85938L11.8438 5.15625C11.9922 5.30469 12.1562 5.36719 12.375 5.36719L14.1953 5.375C14.8594 5.375 14.9766 5.49219 14.9766 6.16406V7.98438C14.9844 8.19531 15.0391 8.35156 15.1953 8.50781L16.4922 9.80469C16.9688 10.2812 16.9688 10.4375 16.4922 10.9141L15.1953 12.2109C15.0391 12.3594 14.9844 12.5156 14.9844 12.7344L14.9766 14.5547C14.9766 15.2266 14.8594 15.3438 14.1953 15.3438L12.375 15.3516C12.1562 15.3516 12.0078 15.3906 11.8438 15.5547L10.5469 16.8516C10.0781 17.3281 9.92188 17.3281 9.44531 16.8516L8.14844 15.5547C7.98438 15.3906 7.83594 15.3516 7.625 15.3516L5.79688 15.3438Z" fill="white"/>
</svg>
