<svg width="20" height="20" viewBox="0 0 20 20" fill="none" xmlns="http://www.w3.org/2000/svg">
<path d="M5.80469 18.8984H16.0078C16.4766 18.8984 16.8203 18.5547 16.8203 18.0859C16.8203 17.6641 16.5391 17.3984 16.2031 17.2266C15.2656 16.7656 15.0859 15.3906 16.0781 14.4922C16.5469 14.0938 16.8125 13.7031 16.8125 12.9062V4.50781C16.8125 2.77344 15.8906 1.83594 14.1641 1.83594H5.82031C4.09375 1.83594 3.17188 2.76562 3.17188 4.50781V16.2578C3.17188 17.9688 4.09375 18.8984 5.80469 18.8984ZM13.9766 3.625C14.6797 3.625 15.0234 3.99219 15.0234 4.66406V12.6172C15.0234 12.9609 14.8281 13.1562 14.4766 13.1562H7.04688V3.625H13.9766ZM4.96094 13.3906V4.66406C4.96094 4.03125 5.25781 3.67188 5.875 3.63281V13.1562C5.52344 13.1797 5.22656 13.2578 4.96094 13.3906ZM8.45312 7.07031H13.6094C13.9297 7.07031 14.1953 6.80469 14.1953 6.48438C14.1953 6.16406 13.9297 5.89844 13.6094 5.89844H8.45312C8.125 5.89844 7.85938 6.16406 7.85938 6.48438C7.85938 6.80469 8.125 7.07031 8.45312 7.07031ZM8.45312 9.27344H12.3594C12.6797 9.27344 12.9453 9.00781 12.9453 8.67969C12.9453 8.35938 12.6797 8.09375 12.3594 8.09375H8.45312C8.125 8.09375 7.85938 8.35938 7.85938 8.67969C7.85938 9.00781 8.125 9.27344 8.45312 9.27344ZM6.11719 17.2734C5.25 17.2734 4.80469 16.7578 4.80469 16.0156C4.80469 15.3125 5.30469 14.7812 6.16406 14.7812H13.7969C13.875 14.7812 13.9531 14.7734 14.0234 14.7578C13.625 15.6016 13.6562 16.5312 14.0781 17.2734H6.11719Z"/>
</svg>
