<svg width="18" height="17" viewBox="0 0 18 17" fill="none" xmlns="http://www.w3.org/2000/svg">
<path d="M9 16.5312C13.4766 16.5312 17.1641 12.8359 17.1641 8.35938C17.1641 3.88281 13.4688 0.195312 9 0.195312C4.52344 0.195312 0.835938 3.88281 0.835938 8.35938C0.835938 12.8359 4.52344 16.5312 9 16.5312ZM11.5391 10.6016C11.0859 10.6016 10.7969 10.2812 10.7969 9.78125V8.57812L10.9062 7.49219L9.88281 8.63281L7.17188 11.3359C6.99219 11.5234 6.78125 11.6016 6.53125 11.6016C6.07031 11.6016 5.71094 11.2734 5.71094 10.7812C5.71094 10.5625 5.8125 10.3359 5.97656 10.1719L8.70312 7.45312L9.85156 6.42188L8.82031 6.54688H7.53906C7.03906 6.54688 6.71875 6.25781 6.71875 5.80469C6.71875 5.35156 7.03906 5.0625 7.53906 5.0625H11.3125C11.9141 5.0625 12.2812 5.38281 12.2812 6.01562V9.77344C12.2812 10.2656 11.9922 10.6016 11.5391 10.6016Z" fill="#768299"/>
</svg>
