<svg width="20" height="20" viewBox="0 0 20 20" fill="none" xmlns="http://www.w3.org/2000/svg">
<path d="M10 0C4.4775 0 0 4.54761 0 10.1566C0 14.9158 3.22667 18.898 7.57667 20C7.53 19.8629 7.5 19.7038 7.5 19.5066V17.7706C7.09417 17.7706 6.41417 17.7706 6.24333 17.7706C5.55917 17.7706 4.95083 17.4719 4.65583 16.9166C4.32833 16.2996 4.27167 15.3559 3.46 14.7787C3.21917 14.5865 3.4025 14.3673 3.68 14.397C4.1925 14.5442 4.6175 14.9014 5.0175 15.4312C5.41583 15.9619 5.60333 16.0821 6.3475 16.0821C6.70833 16.0821 7.24833 16.0609 7.75667 15.9797C8.03 15.2747 8.5025 14.6255 9.08 14.3191C5.75 13.9712 4.16083 12.2886 4.16083 10.0042C4.16083 9.02074 4.57333 8.0694 5.27417 7.26788C5.04417 6.47228 4.755 4.84977 5.3625 4.23191C6.86083 4.23191 7.76667 5.21879 7.98417 5.4854C8.73083 5.22556 9.55083 5.07829 10.4125 5.07829C11.2758 5.07829 12.0992 5.22556 12.8475 5.48709C13.0625 5.22218 13.9692 4.23191 15.4708 4.23191C16.0808 4.85061 15.7883 6.4799 15.5558 7.2738C16.2525 8.07364 16.6625 9.02243 16.6625 10.0042C16.6625 12.2869 15.0758 13.9687 11.7508 14.3182C12.6658 14.8032 13.3333 16.1659 13.3333 17.1926V19.5066C13.3333 19.5946 13.3142 19.6581 13.3042 19.7334C17.2008 18.3462 20 14.5882 20 10.1566C20 4.54761 15.5225 0 10 0Z"/>
</svg>
