<svg width="23" height="20" viewBox="0 0 23 20" fill="none" xmlns="http://www.w3.org/2000/svg">
<path d="M15.6094 10.4766C17.5234 10.4766 19.0703 8.80469 19.0703 6.73438C19.0703 4.70312 17.5156 3.07031 15.6094 3.07031C13.7109 3.07031 12.1484 4.71875 12.1484 6.74219C12.1562 8.80469 13.6953 10.4766 15.6094 10.4766ZM6.50781 10.6562C8.17188 10.6562 9.52344 9.17969 9.52344 7.35938C9.52344 5.58594 8.17188 4.14062 6.50781 4.14062C4.85156 4.14062 3.48438 5.60156 3.49219 7.36719C3.49219 9.1875 4.84375 10.6562 6.50781 10.6562ZM15.6094 8.96875C14.5781 8.96875 13.7109 8 13.7109 6.74219C13.7031 5.52344 14.5781 4.57812 15.6094 4.57812C16.6484 4.57812 17.5078 5.51562 17.5078 6.73438C17.5078 7.98438 16.6484 8.96875 15.6094 8.96875ZM6.50781 9.17188C5.67969 9.17188 4.97656 8.375 4.97656 7.36719C4.96875 6.40625 5.67969 5.625 6.50781 5.625C7.34375 5.625 8.04688 6.39062 8.04688 7.35938C8.04688 8.375 7.34375 9.17188 6.50781 9.17188ZM2.24219 17.8516H8.26562C7.79688 17.5703 7.50781 16.9297 7.5625 16.3672H2.26562C2.125 16.3672 2.07031 16.3047 2.07031 16.1797C2.07031 14.5078 4.08594 12.8828 6.5 12.8828C7.28906 12.8828 8.16406 13.0859 8.77344 13.4141C9.04688 12.9766 9.39844 12.6094 9.89062 12.2969C8.92188 11.7266 7.66406 11.4062 6.5 11.4062C3.17188 11.4062 0.484375 13.7578 0.484375 16.3516C0.484375 17.3359 1.07031 17.8516 2.24219 17.8516ZM10.7656 17.8438H20.4453C21.8359 17.8438 22.5156 17.3906 22.5156 16.4219C22.5156 14.1953 19.7578 11.4141 15.6094 11.4141C11.4609 11.4141 8.69531 14.1953 8.69531 16.4219C8.69531 17.3906 9.375 17.8438 10.7656 17.8438ZM10.625 16.3359C10.4531 16.3359 10.3906 16.2812 10.3906 16.1484C10.3906 15.0234 12.2812 12.9219 15.6094 12.9219C18.9297 12.9219 20.8203 15.0234 20.8203 16.1484C20.8203 16.2812 20.7578 16.3359 20.5938 16.3359H10.625Z"/>
</svg>
