<svg width="20" height="20" viewBox="0 0 20 20" fill="none" xmlns="http://www.w3.org/2000/svg">
<path d="M10 18.5312C14.4766 18.5312 18.1641 14.8359 18.1641 10.3594C18.1641 5.88281 14.4688 2.19531 10 2.19531C5.52344 2.19531 1.83594 5.88281 1.83594 10.3594C1.83594 14.8359 5.52344 18.5312 10 18.5312ZM9.13281 14.25C8.80469 14.25 8.54688 14.1094 8.3125 13.8203L6.4375 11.5625C6.28125 11.3594 6.21094 11.1719 6.21094 10.9609C6.21094 10.5156 6.5625 10.1641 7.00781 10.1641C7.26562 10.1641 7.46875 10.2656 7.67188 10.5156L9.10938 12.3047L12.2422 7.30469C12.4297 7 12.6719 6.85156 12.9453 6.85156C13.3828 6.85156 13.7734 7.16406 13.7734 7.60938C13.7734 7.79688 13.6875 8 13.5625 8.1875L9.91406 13.8047C9.72656 14.0938 9.44531 14.25 9.13281 14.25Z" fill="#2EC608"/>
</svg>
