<svg width="20" height="20" viewBox="0 0 20 20" fill="none" xmlns="http://www.w3.org/2000/svg">
<path d="M9.15332 19.1377H10.8384C11.5771 19.1377 12.1582 18.6812 12.3242 17.9839L12.6396 16.5977L12.8223 16.5312L14.0342 17.2783C14.6484 17.6602 15.3789 17.5605 15.8936 17.0376L17.064 15.8755C17.5869 15.3442 17.6782 14.6221 17.2964 14.0161L16.541 12.8125L16.6074 12.6465L17.9854 12.3145C18.6826 12.1401 19.1392 11.5674 19.1392 10.8369V9.20996C19.1392 8.48779 18.6826 7.89844 17.9854 7.73242L16.6157 7.39209L16.5493 7.21777L17.2964 6.01416C17.6865 5.4165 17.5869 4.69434 17.064 4.15479L15.9019 2.98438C15.3872 2.46973 14.6567 2.37012 14.0425 2.75195L12.8306 3.49072L12.6396 3.41602L12.3242 2.02979C12.1582 1.33252 11.5771 0.875977 10.8384 0.875977H9.15332C8.42285 0.875977 7.8418 1.33252 7.67578 2.02979L7.35205 3.41602L7.16113 3.49072L5.95752 2.75195C5.33496 2.37012 4.60449 2.46973 4.09814 2.98438L2.92773 4.15479C2.40479 4.69434 2.31348 5.4165 2.69531 6.01416L3.45068 7.21777L3.37598 7.39209L2.00635 7.73242C1.30908 7.90674 0.86084 8.48779 0.86084 9.20996V10.8369C0.86084 11.5674 1.31738 12.1484 2.00635 12.3145L3.39258 12.6465L3.45068 12.8125L2.70361 14.0161C2.32178 14.6221 2.41309 15.3442 2.93604 15.8755L4.10645 17.0376C4.61279 17.5605 5.35156 17.6602 5.96582 17.2783L7.17773 16.5312L7.35205 16.5977L7.67578 17.9839C7.8418 18.6812 8.42285 19.1377 9.15332 19.1377ZM9.42725 17.436C9.28613 17.436 9.21973 17.3779 9.20312 17.2534L8.71338 15.228C8.16553 15.1035 7.63428 14.8877 7.18604 14.5972L5.40967 15.6929C5.31006 15.7593 5.21045 15.751 5.11084 15.6597L4.31396 14.8628C4.22266 14.7715 4.22266 14.6719 4.28906 14.564L5.38477 12.7876C5.12744 12.3477 4.89502 11.8247 4.77881 11.2852L2.74512 10.8037C2.62061 10.7788 2.5542 10.7124 2.5542 10.5796V9.46729C2.5542 9.31787 2.6123 9.25977 2.74512 9.23486L4.77051 8.75342C4.89502 8.18896 5.13574 7.64941 5.37646 7.23438L4.28076 5.46631C4.21436 5.3501 4.20605 5.25049 4.30566 5.15918L5.10254 4.37891C5.20215 4.2793 5.29346 4.271 5.40967 4.3374L7.17773 5.4248C7.56787 5.16748 8.15723 4.92676 8.71338 4.78564L9.20312 2.76025C9.21973 2.63574 9.28613 2.57764 9.42725 2.57764H10.5728C10.7139 2.57764 10.772 2.63574 10.7969 2.76025L11.2866 4.80225C11.8511 4.92676 12.3657 5.15918 12.814 5.4248L14.582 4.3457C14.6982 4.2793 14.7812 4.2876 14.8892 4.37891L15.686 5.16748C15.7773 5.25879 15.7773 5.3584 15.7109 5.46631L14.6235 7.23438C14.856 7.64941 15.0967 8.18896 15.2212 8.74512L17.2549 9.23486C17.3794 9.25977 17.4375 9.31787 17.4375 9.46729V10.5796C17.4375 10.7124 17.3794 10.7788 17.2549 10.8037L15.2129 11.2852C15.0967 11.8247 14.8726 12.356 14.6069 12.7876L15.7026 14.564C15.769 14.6636 15.769 14.7632 15.6694 14.8545L14.8809 15.6514C14.7812 15.7427 14.6816 15.751 14.582 15.6846L12.8057 14.5972C12.3491 14.8877 11.8677 15.0952 11.2866 15.228L10.7969 17.2534C10.772 17.3779 10.7139 17.436 10.5728 17.436H9.42725ZM10 13.1528C11.7183 13.1528 13.1294 11.7334 13.1294 10.0068C13.1294 8.28857 11.7183 6.88574 10 6.88574C8.27344 6.88574 6.854 8.28857 6.854 10.0068C6.854 11.7334 8.27344 13.1528 10 13.1528ZM10 11.6006C9.12842 11.6006 8.41455 10.8867 8.41455 10.0068C8.41455 9.14355 9.13672 8.42969 10 8.42969C10.855 8.42969 11.5688 9.15186 11.5688 10.0068C11.5688 10.8784 10.855 11.6006 10 11.6006Z"/>
</svg>
