<?xml version="1.0" encoding="UTF-8"?>
<svg width="32px" height="32px" viewBox="0 0 32 32" version="1.1" xmlns="http://www.w3.org/2000/svg" xmlns:xlink="http://www.w3.org/1999/xlink">
    <g id="check" stroke="none" stroke-width="1" fill="none" fill-rule="evenodd">
        <g id="Icon-awesome-check-circle" fill="#724CF9" fill-rule="nonzero">
            <path d="M31.6133109,16.075563 C31.6133109,24.8053028 24.5362159,31.8819496 15.8064762,31.8819496 C7.07673644,31.8819496 2.54151353e-09,24.8049442 2.54151353e-09,16.0752045 C2.54151353e-09,7.34546473 7.07691571,0.268638655 15.8066555,0.268638655 C19.9988877,0.268638655 24.0194132,1.93401484 26.9837438,4.89839593 C29.9480745,7.86277701 31.6133109,11.8833308 31.6133109,16.075563 Z M13.9783529,24.445042 L25.7056807,12.7174454 C25.8969359,12.5262117 26.0043838,12.2668302 26.0043838,11.9963697 C26.0043838,11.7259093 25.8969359,11.4665278 25.7056807,11.2752941 L24.2635294,9.83314286 C24.0722957,9.64188763 23.8129143,9.53443975 23.5424538,9.53443975 C23.2719933,9.53443975 23.0126118,9.64188763 22.8213782,9.83314286 L13.2571429,19.3981849 L8.79166387,14.9318992 C8.39337644,14.5337768 7.74780003,14.5337768 7.34951261,14.9318992 L5.90736134,16.3740504 C5.71610612,16.5652841 5.60865824,16.8246656 5.60865824,17.0951261 C5.60865824,17.3655865 5.71610612,17.624968 5.90736134,17.8162017 L12.5359328,24.4447731 C12.7271664,24.6360283 12.9865479,24.7434762 13.2570084,24.7434762 C13.5274689,24.7434762 13.7868504,24.6360283 13.978084,24.4447731 L13.9783529,24.445042 Z" id="Icon_awesome-check-circle"></path>
        </g>
    </g>
</svg>
