<svg width="18" height="22" viewBox="0 0 18 22" fill="none" xmlns="http://www.w3.org/2000/svg">
<g clip-path="url(#clip0)">
<path fill-rule="evenodd" clip-rule="evenodd" d="M15.2035 5.56436C17.104 7.53851 17.9781 9.74955 17.9781 12.5923C17.9781 18.1199 14.1139 21.9629 8.5773 21.9629H3.15473L0 18.6859V-0.00273259H5.52394C8.48863 -0.00273259 10.9845 1.10279 12.6823 2.95849L15.2035 5.56436ZM2.99002 2.94532H2.95201V3.60338L5.65063 6.38034V5.70913L2.99002 2.94532ZM6.10673 5.617L3.53481 2.94532H3.1674L5.73932 5.617H6.10673ZM7.00628 5.617L4.43435 2.94532H3.7122L6.28412 5.617H7.00628ZM5.56194 2.94532H4.61173L7.18365 5.617H8.13387L5.56194 2.94532ZM9.05875 5.63017L6.5375 3.01113C6.27143 2.97165 6.01805 2.95849 5.73932 2.94532L8.31124 5.617H8.5773C8.742 5.617 8.90672 5.617 9.05875 5.63017ZM9.8696 5.72229L7.4117 3.16906C7.19632 3.11641 6.96827 3.07693 6.74021 3.03746L9.2488 5.64333C9.46418 5.65648 9.67955 5.69597 9.8696 5.72229ZM10.6044 5.90655L8.20989 3.41912C8.03251 3.35331 7.84247 3.28751 7.65243 3.23486L10.0977 5.77493C10.275 5.81442 10.4397 5.8539 10.6044 5.90655ZM10.8832 5.99867C11.0479 6.07764 11.2252 6.15661 11.3773 6.23557L9.04608 3.81395C8.88136 3.72182 8.70401 3.62969 8.52662 3.55073L10.8832 5.99867ZM2.95201 8.80196L3.40811 9.27575L3.30676 9.38105L2.95201 9.01253V15.9089H5.65063V6.56459L2.95201 3.81395V4.45884L5.51127 7.10419L5.40991 7.19632L2.95201 4.65626V5.3143L5.0805 7.5385L4.99181 7.6438L2.95201 5.51172V6.18292L4.6624 7.97282L4.57372 8.0781L2.95201 6.38034V7.05155L4.24431 8.40712L4.15563 8.51242L2.95201 7.24897V7.93334L3.82622 8.84144L3.72485 8.94673L2.95201 8.13074V8.80196ZM11.1746 5.84074C10.7438 5.14321 10.1737 4.55096 9.48951 4.09034L11.1746 5.84074ZM14.9501 5.82757L13.9238 4.73521C14.6081 6.06447 15.0515 7.7096 15.0515 9.42053C15.0515 9.60478 15.0515 9.78903 15.0388 9.96012L17.6234 12.6581V12.5923C17.6234 9.84168 16.7619 7.76225 14.9501 5.82757ZM6.00538 15.8957C9.69223 15.6852 12.0741 13.1714 12.0741 9.42053C12.0741 8.44662 11.9095 7.55166 11.6053 6.76201C10.8325 6.20925 9.94562 5.98552 8.5773 5.98552H6.00538V15.8957ZM14.5067 12.8029L17.1926 15.593C17.446 14.7376 17.598 13.8162 17.6234 12.8423L15.0261 10.1444C14.9628 11.092 14.7854 11.9738 14.5067 12.8029ZM17.142 15.7247L14.456 12.9346C14.2152 13.5925 13.9112 14.2112 13.5437 14.7639L16.2804 17.6067C16.6352 17.0275 16.9265 16.3958 17.142 15.7247ZM15.1655 19.0281C15.5582 18.6332 15.9003 18.1858 16.2044 17.7119L13.4805 14.8823C13.1637 15.3429 12.809 15.7773 12.4035 16.1589L15.1655 19.0281ZM11.1999 17.146L13.9745 20.0282C14.3673 19.7519 14.7348 19.4492 15.0768 19.1202L12.3148 16.2511C11.9728 16.5801 11.6053 16.8828 11.1999 17.146ZM9.98362 17.8436L12.7583 20.7258C13.1384 20.5416 13.5057 20.331 13.8605 20.1073L11.0859 17.225C10.7438 17.4618 10.3764 17.6592 9.98362 17.8436ZM8.79269 18.3041L11.5547 21.1733C11.9221 21.068 12.2894 20.9232 12.6316 20.7784L9.85693 17.8962C9.51486 18.0541 9.16011 18.1988 8.79269 18.3041ZM7.63975 18.5938L10.3891 21.4496C10.7438 21.3839 11.0859 21.3048 11.4153 21.2127L8.66598 18.3568C8.33658 18.4489 7.9945 18.5279 7.63975 18.5938ZM7.47505 18.6201C7.17098 18.6859 6.85424 18.7254 6.5375 18.7516L9.26146 21.5681C9.59087 21.5549 9.90761 21.5154 10.2244 21.476L7.47505 18.6201ZM8.20989 21.5945H8.5773C8.75467 21.5945 8.91939 21.5945 9.08409 21.5813L6.3728 18.7648C6.09406 18.778 5.81534 18.7911 5.52394 18.7911H5.51127L8.20989 21.5945ZM0.608141 18.7911L3.30676 21.5945H3.48413L0.798189 18.7911H0.608141ZM0.975566 18.7911L3.67417 21.5945H3.90223L1.2036 18.7911H0.975566ZM1.38099 18.7911L4.07961 21.5945H4.37101L1.67239 18.7911H1.38099ZM1.84977 18.7911L4.54838 21.5945H4.9158L2.21718 18.7911H1.84977ZM2.39456 18.7911L5.09317 21.5945H5.5366L2.83799 18.7911H2.39456ZM3.01536 18.7911L5.71398 21.5945H6.24609L3.54748 18.7911H3.01536ZM3.73753 18.7911L6.43615 21.5945H7.08229L4.38367 18.7911H3.73753ZM4.56105 18.7911L7.25967 21.5945H8.03251L5.32122 18.7911H4.56105ZM31.9273 15.9353L35.0821 19.2123V21.9629H22.8939L19.7392 18.6859V-0.00273259H31.56L34.7146 3.27435V5.86707H25.7319L25.7192 7.74908H30.1156L33.2703 11.0262V13.6716H25.7192V15.9353H31.9273ZM34.3599 3.43228L31.6613 0.628995V2.82687L34.3599 5.49855V3.43228ZM25.6306 5.49855L22.9446 2.82687H22.7546L25.4405 5.49855H25.6306ZM26.1374 5.49855L23.4387 2.82687H23.1347L25.8207 5.49855H26.1374ZM26.7708 5.49855L24.0722 2.82687H23.6287L26.3273 5.49855H26.7708ZM27.531 5.49855L24.845 2.82687H24.2622L26.9608 5.49855H27.531ZM28.5446 5.49855L25.8333 2.82687H25.0351L27.7211 5.49855H28.5446ZM29.5581 5.49855L26.8469 2.82687H26.0359L28.7347 5.49855H29.5581ZM30.6097 5.49855L27.9111 2.82687H27.0496L29.7482 5.49855H30.6097ZM31.6233 5.49855L28.95 2.82687H28.1012L30.7998 5.49855H31.6233ZM32.5101 5.49855L29.8241 2.82687H29.1274L31.826 5.49855H32.5101ZM33.2703 5.49855L30.5843 2.82687H30.0016L32.7129 5.49855H33.2703ZM33.7771 5.49855L31.1038 2.82687H30.7618L33.473 5.49855H33.7771ZM34.1572 5.49855L31.4839 2.82687H31.2812L33.9798 5.49855H34.1572ZM22.6659 6.66988L23.2867 7.28845L23.1853 7.38057L22.6659 6.86729V7.74908H25.3645V5.60384L22.6659 2.93217V3.48493L25.0097 5.81442L24.8958 5.89338L22.6659 3.68235V4.28774L24.579 6.18292L24.4649 6.27506L22.6659 4.472V5.0774L24.1483 6.55143L24.0342 6.64356L22.6659 5.27482V5.88022L23.7175 6.91994L23.6161 7.01207L22.6659 6.06447V6.66988ZM30.217 8.38081V10.6313H30.2042L32.9156 13.303V11.1841L30.217 8.38081ZM25.4532 13.303H25.6812L22.9826 10.6313H22.7546L25.4532 13.303ZM23.1727 10.6313L25.8713 13.303H26.3147L23.6287 10.6313H23.1727ZM23.8188 10.6313L26.5048 13.303H27.2016L24.4903 10.6313H23.8188ZM24.693 10.6313L27.3917 13.303H28.3418L25.6558 10.6313H24.693ZM29.5581 13.303L26.8849 10.6313H25.8459L28.5319 13.303H29.5581ZM30.7744 13.303L28.0758 10.6313H27.0622L29.7609 13.303H30.7744ZM31.6486 13.303L28.9753 10.6313H28.2658L30.9644 13.303H31.6486ZM32.2821 13.303L29.5961 10.6313H29.1528L31.8514 13.303H32.2821ZM29.7735 10.6313L32.4849 13.303H32.7129L30.0269 10.6313H29.7735ZM22.6659 15.3034L22.9954 15.6325L22.8939 15.7377L22.6659 15.5141V15.9353H25.3645V13.3951L22.6659 10.7235V11.3025L25.0097 13.6452L24.9211 13.7373L22.6659 11.5V12.1185L24.617 14.0532L24.5157 14.1453L22.6659 12.3027V12.9082L24.2115 14.448L24.1102 14.5402L22.6659 13.1056V13.711L23.8062 14.8429L23.7048 14.935L22.6659 13.9084V14.5138L23.4007 15.2377L23.2994 15.3298L22.6659 14.6981V15.3034ZM32.0287 16.567V18.7911L34.7273 21.5945V19.3703L32.0287 16.567ZM21.5763 18.7911H20.3474L23.046 21.5945H24.2749L21.5763 18.7911ZM22.8559 18.7911H21.7537L24.4523 21.5945H25.5672L22.8559 18.7911ZM23.0333 18.7911L25.7446 21.5945H26.7328L24.0216 18.7911H23.0333ZM24.1989 18.7911L26.9102 21.5945H27.7844L25.0858 18.7911H24.1989ZM26.0359 18.7911H25.2631L27.9617 21.5945H28.7473L26.0359 18.7911ZM29.6088 21.5945L26.9102 18.7911H26.2134L28.9247 21.5945H29.6088ZM27.0875 18.7911L29.7861 21.5945H30.3943L27.6957 18.7911H27.0875ZM27.8731 18.7911L30.5717 21.5945H31.1165L28.4052 18.7911H27.8731ZM28.5826 18.7911L31.2938 21.5945H31.7626L29.0513 18.7911H28.5826ZM29.2287 18.7911L31.9401 21.5945H32.3454L29.6342 18.7911H29.2287ZM29.8115 18.7911L32.5229 21.5945H32.8776L30.1662 18.7911H29.8115ZM30.3437 18.7911L33.0549 21.5945H33.359L30.6477 18.7911H30.3437ZM30.8251 18.7911L33.5363 21.5945H33.7897L31.0911 18.7911H30.8251ZM31.2686 18.7911L33.9672 21.5945H34.1952L31.4839 18.7911H31.2686ZM31.6613 18.7911L34.3725 21.5945H34.5499L31.8386 18.7911H31.6613ZM51.9959 5.97235H42.6585V8.38081H47.2702L50.4249 11.6579V14.3427H42.6585V21.9629H39.8458L36.6911 18.6859V-0.00273259H48.8413L51.9959 3.27435V5.97235ZM48.9426 0.628995V2.93217L51.6286 5.60384H51.6412V3.43228L48.9426 0.628995ZM42.3797 5.60384H42.5825L39.8839 2.93217H39.7065L42.3797 5.60384ZM43.0766 5.60384L40.3654 2.93217H40.0866L42.7598 5.60384H43.0766ZM43.7227 5.60384L41.0115 2.93217H40.568L43.254 5.60384H43.7227ZM44.5463 5.60384L41.8477 2.93217H41.2142L43.9001 5.60384H44.5463ZM45.6866 5.60384L42.9879 2.93217H42.0503L44.7236 5.60384H45.6866ZM46.7762 5.60384L44.0774 2.93217H43.1779L45.8765 5.60384H46.7762ZM47.9671 5.60384L45.2684 2.93217H44.2675L46.9661 5.60384H47.9671ZM49.0947 5.60384L46.4087 2.93217H45.4458L48.1571 5.60384H49.0947ZM49.9308 5.60384L47.2322 2.93217H46.5987L49.2847 5.60384H49.9308ZM50.577 5.60384L47.8784 2.93217H47.4223L50.1209 5.60384H50.577ZM51.0584 5.60384L48.3724 2.93217H48.0684L50.767 5.60384H51.0584ZM48.5625 2.93217L51.2485 5.60384H51.4385L48.7525 2.93217H48.5625ZM39.6051 8.38081H42.3037V5.70913L39.6051 3.02429V3.47176L42.0124 5.88022L41.9236 5.97235L39.6051 3.66918V4.27458L41.6196 6.28821L41.5183 6.39349L39.6051 4.472V5.0774L41.2268 6.6962L41.1254 6.80149L39.6051 5.27482V5.88022L40.8341 7.10419L40.7453 7.19632L39.6051 6.06447V6.68304L40.4413 7.51218L40.3526 7.6043L39.6051 6.86729V7.4727L40.0486 7.92017L39.9599 8.0123L39.6051 7.65695V8.38081ZM47.3716 9.01253V11.3025L50.0702 13.9742V11.8158L47.3716 9.01253ZM39.6811 11.3025L42.3671 13.9742H42.6205L39.9219 11.3025H39.6811ZM40.1119 11.3025L42.7978 13.9742H43.2286L40.5427 11.3025H40.1119ZM40.7327 11.3025L43.406 13.9742H44.2041L41.4929 11.3025H40.7327ZM41.683 11.3025L44.3816 13.9742H45.3698L42.6838 11.3025H41.683ZM42.8739 11.3025L45.5471 13.9742H46.6874L44.0141 11.3025H42.8739ZM44.1915 11.3025L46.8775 13.9742H47.8784L45.1798 11.3025H44.1915ZM45.3571 11.3025L48.0684 13.9742H48.8286L46.1553 11.3025H45.3571ZM46.3327 11.3025L49.0186 13.9742H49.4494L46.7634 11.3025H46.3327ZM46.9408 11.3025L49.6394 13.9742H49.8801L47.1941 11.3025H46.9408ZM39.6051 18.7911L42.3037 21.5945V14.04L42.2784 14.0663L39.6051 11.421V11.8553L42.025 14.2769L41.9364 14.369L39.6051 12.0527V12.6581L41.6323 14.6849L41.5309 14.7902L39.6051 12.8555V13.461L41.2395 15.0928L41.1382 15.1981L39.6051 13.6584V14.2637L40.8468 15.5009L40.7581 15.593L39.6051 14.448V15.0666L40.4539 15.9089L40.3654 16.001L39.6051 15.2508V15.8694L40.0612 16.3169L39.9725 16.409L39.6051 16.0405V18.7911ZM37.2993 18.7911L39.9979 21.5945H40.5173L37.8313 18.7911H37.2993ZM38.4648 18.7911H38.0088L40.7074 21.5945H41.1634L38.4648 18.7911ZM38.6423 18.7911L41.3535 21.5945H41.683L38.997 18.7911H38.6423ZM39.1743 18.7911L41.873 21.5945H42.1137L39.4277 18.7911H39.1743ZM56.2276 -0.00273259L59.3824 3.27435V21.9629H56.5191L53.3643 18.6859V-0.00273259H56.2276ZM56.329 0.83957L59.0276 3.64285V3.43228L56.329 0.628995V0.83957ZM56.329 1.40549L59.0276 4.20877V3.84027L56.329 1.03698V1.40549ZM56.329 2.18199L59.0276 4.98528V4.39303L56.329 1.58975V2.18199ZM56.329 3.27435L59.0276 6.07764V5.18268L56.329 2.3794V3.27435ZM56.329 4.76154L59.0276 7.56483V6.26189L56.329 3.4586V4.76154ZM56.329 6.81465L59.0276 9.61793V7.74908L56.329 4.9458V6.81465ZM56.329 18.7911L59.0276 21.5945V9.80219L56.329 6.99891V18.7911ZM54.5552 18.7911H53.9724L56.671 21.5945H57.2412L54.5552 18.7911ZM57.8873 21.5945L55.1887 18.7911H54.7326L57.4312 21.5945H57.8873ZM55.3661 18.7911L58.0774 21.5945H58.4067L55.7209 18.7911H55.3661ZM55.8982 18.7911L58.5968 21.5945H58.8376L56.1516 18.7911H55.8982ZM83.7713 4.43252C85.0002 5.69597 85.583 7.13052 85.583 8.90725C85.583 12.5923 82.8718 15.2772 79.1088 15.2772H75.8908V21.9629H73.0401L69.8855 18.6859V-0.00273259H76.2709C78.5007 -0.00273259 80.2871 0.826409 81.25 1.82665L83.7713 4.43252ZM72.8375 7.49902L73.1035 7.77541L73.0022 7.8807L72.8375 7.7096V9.53897H75.4094V5.48539L72.8375 2.81372V3.37964L75.0546 5.73545L74.9659 5.82757L72.8375 3.59021V4.22194L74.6619 6.14344L74.5732 6.23557L72.8375 4.41936V5.03792L74.2818 6.55143L74.1805 6.64356L72.8375 5.23534V5.8539L73.8891 6.95943L73.7876 7.05155L72.8375 6.05131V6.66988L73.4962 7.36742L73.3949 7.45954L72.8375 6.88046V7.49902ZM75.7261 5.35378L73.2936 2.81372H73.0148L75.4727 5.36694L75.5868 5.35378H75.7261ZM76.2963 5.35378L73.851 2.81372H73.4709L75.9162 5.35378H76.2963ZM77.0184 5.35378L74.5732 2.81372H74.0284L76.4736 5.35378H77.0184ZM77.8546 5.35378L75.4094 2.81372H74.7505L77.1958 5.35378H77.8546ZM76.3215 2.81372H75.5868L78.032 5.35378H78.7668L76.3215 2.81372ZM79.4889 5.35378L77.1197 2.89268C76.9297 2.8532 76.7144 2.84004 76.5116 2.82687L78.9442 5.35378H79.4889ZM79.755 5.05108L77.8799 3.10326C77.7152 3.03746 77.5252 2.98481 77.3478 2.94532L79.6917 5.3801C79.7423 5.3801 79.7931 5.3801 79.8437 5.39327C79.8184 5.27482 79.7931 5.16953 79.755 5.05108ZM79.641 4.74838C79.3622 4.09032 78.8682 3.57705 78.2093 3.24803L79.641 4.74838ZM83.5179 4.69574L82.403 3.52441C82.7071 4.2351 82.9098 5.11689 82.9098 5.99867C82.9098 6.15661 82.9098 6.31454 82.8971 6.4593L85.2283 8.65719C85.1776 7.09103 84.6075 5.8539 83.5179 4.69574ZM76.1949 9.53897C78.3867 9.53897 79.9198 8.13074 79.9198 6.13028C79.9198 6.01183 79.9198 5.89338 79.907 5.77493C79.6917 5.73545 79.4636 5.72229 79.2483 5.72229H75.7641V9.53897H76.1949ZM84.8735 11.0656C85.1016 10.4076 85.2283 9.68374 85.2283 8.90725V8.84144L82.8844 6.61724C82.821 7.36742 82.6437 8.06494 82.365 8.69666L84.8735 11.0656ZM82.3016 8.81511C82.0736 9.30208 81.7948 9.73638 81.4527 10.1312L84.0627 12.5923C84.3667 12.1712 84.6329 11.6974 84.8229 11.1973L82.3016 8.81511ZM83.0618 13.6057C83.4038 13.3293 83.708 13.0267 83.9867 12.6845L81.3641 10.2233C81.0727 10.5524 80.756 10.8287 80.4012 11.092L83.0618 13.6057ZM79.3243 11.7105L82.0229 14.2637C82.365 14.0927 82.669 13.9085 82.9604 13.6847L80.2871 11.1709C79.9831 11.3683 79.6664 11.5526 79.3243 11.7105ZM78.26 12.0921L80.984 14.6587C81.3007 14.5664 81.6175 14.448 81.9089 14.3164L79.1975 11.7632C78.8935 11.8948 78.5768 12.0001 78.26 12.0921ZM77.2338 12.2897L79.9704 14.856C80.2745 14.8165 80.5659 14.7639 80.8446 14.6981L78.1206 12.1185C77.8292 12.1974 77.5378 12.2501 77.2338 12.2897ZM78.9695 14.9086H79.1088C79.3369 14.9086 79.565 14.8955 79.7803 14.8823L77.0564 12.3159C76.803 12.3422 76.5369 12.3554 76.2709 12.3686L78.9695 14.9086ZM75.384 12.3686L78.0826 14.9086H78.7668L76.0809 12.3686H75.384ZM75.5361 21.5945V14.9086H75.5487L72.8501 12.3686H72.8375V13.0398L75.1813 15.2508L75.08 15.3429L72.8375 13.2241V13.9215L74.7379 15.7115L74.6365 15.8036L72.8375 14.1059V14.7902L74.2944 16.1721L74.2057 16.2643L72.8375 14.9745V15.672L73.851 16.6327L73.7624 16.7248L72.8375 15.8562V16.5274L73.4203 17.0802L73.3315 17.1855L72.8375 16.7248V18.7911L75.5361 21.5945ZM73.0401 12.3686L75.7261 14.9086H76.0049L73.3062 12.3686H73.0401ZM73.4836 12.3686L76.1822 14.9086H76.5243L73.8257 12.3686H73.4836ZM74.0284 12.3686L76.7144 14.9086H77.1451L74.4591 12.3686H74.0284ZM74.6238 12.3686L77.3351 14.9086H77.8926L75.2067 12.3686H74.6238ZM70.4936 18.7911L73.1922 21.5945H73.7496L71.0637 18.7911H70.4936ZM71.6972 18.7911H71.2411L73.9397 21.5945H74.3958L71.6972 18.7911ZM71.8746 18.7911L74.5858 21.5945H74.9153L72.2293 18.7911H71.8746ZM72.4066 18.7911L75.1054 21.5945H75.346L72.66 18.7911H72.4066ZM102.345 -0.0158934L105.373 3.12958V13.5267C105.373 18.7911 102.358 22.2393 97.7838 22.2393C95.364 22.2393 93.6282 21.5286 92.0572 19.8967L89.4599 17.225C88.0283 15.7641 87.2555 13.5663 87.2555 10.7498V-0.0158934H90.1061L93.2608 3.26119V13.8162C93.2608 14.6323 93.3495 15.4219 93.5522 16.1327C93.9703 16.2379 94.4264 16.3037 94.9078 16.3037C97.7712 16.3037 99.4942 14.198 99.4942 10.6445V-0.0158934H102.345ZM92.9061 3.41912L90.2075 0.615832V0.826409L92.9061 3.62969V3.41912ZM102.446 0.83957L105.018 3.51125V3.28751L102.446 0.628995V0.83957ZM92.9061 4.19562V3.82711L90.2075 1.02382V1.39233L92.9061 4.19562ZM102.446 1.40549L105.018 4.07717V3.70866L102.446 1.03698V1.40549ZM92.9061 4.97211V4.37987L90.2075 1.57658V2.16883L92.9061 4.97211ZM102.446 2.18199L105.018 4.85366V4.26143L102.446 1.58975V2.18199ZM92.9061 6.06447V5.16953L90.2075 2.36624V3.26119L92.9061 6.06447ZM102.446 3.27435L105.018 5.94602V5.05108L102.446 2.3794V3.27435ZM92.9061 7.55166V6.24873L90.2075 3.44545V4.74838L92.9061 7.55166ZM102.446 4.76154L105.018 7.43321V6.13028L102.446 3.4586V4.76154ZM92.9061 9.60478V7.73592L90.2075 4.93263V6.80149L92.9061 9.60478ZM105.018 7.61747L102.446 4.9458V6.81465L105.018 9.48633V7.61747ZM90.2075 6.98574V10.6445C90.2075 13.3819 91.2971 15.2904 93.1595 16.001C92.9948 15.3166 92.9061 14.5796 92.9061 13.8162V9.78903L90.2075 6.98574ZM104.587 16.7117C104.866 15.7509 105.018 14.6849 105.018 13.5267V9.67059L102.446 6.99891V10.7498C102.446 11.9738 102.307 13.0792 102.028 14.0532L104.587 16.7117ZM101.977 14.1848C101.787 14.8297 101.534 15.4219 101.217 15.9353L103.764 18.5806C104.081 18.0541 104.347 17.475 104.537 16.8433L101.977 14.1848ZM102.788 19.8704C103.13 19.515 103.434 19.1334 103.701 18.699L101.154 16.0536C100.888 16.4879 100.584 16.8697 100.242 17.225L102.788 19.8704ZM99.1774 18.0673L101.749 20.739C102.092 20.5152 102.408 20.252 102.7 19.9625L100.14 17.304C99.8489 17.5935 99.5323 17.8436 99.1774 18.0673ZM98.126 18.6201L100.71 21.3048C101.027 21.1601 101.344 21.0021 101.635 20.8048L99.0635 18.1331C98.7721 18.3173 98.4553 18.4753 98.126 18.6201ZM90.9296 18.2647L92.3106 19.6334C92.5767 19.8967 92.8427 20.1335 93.1087 20.3441L91.259 18.4226L90.9296 18.2647ZM91.9305 18.6859C91.8037 18.6332 91.6772 18.5938 91.5505 18.541L93.6789 20.7522C93.869 20.8706 94.0463 20.989 94.2363 21.0812L91.9305 18.6859ZM97.087 18.949L99.6842 21.647C99.9884 21.5681 100.28 21.476 100.571 21.3575L97.9865 18.6727C97.6951 18.778 97.3911 18.8701 97.087 18.949ZM92.1839 18.7648L94.5784 21.2522C94.7431 21.318 94.9078 21.3971 95.0852 21.4496L92.6273 18.8964C92.4753 18.8569 92.3359 18.8175 92.1839 18.7648ZM92.8807 18.9622L95.364 21.5417C95.5413 21.5945 95.7188 21.647 95.9088 21.6866L93.3875 19.0675C93.2101 19.0281 93.0454 19.0017 92.8807 18.9622ZM96.0987 19.1202L98.6961 21.8182C98.9875 21.7918 99.2662 21.7391 99.5323 21.6734L96.935 18.9754C96.6689 19.0412 96.3902 19.0938 96.0987 19.1202ZM93.5902 19.0938L96.1241 21.7261C96.3269 21.7655 96.5296 21.7918 96.7322 21.8182L94.1857 19.1728C93.983 19.1596 93.793 19.1334 93.5902 19.0938ZM95.2119 19.1991L97.7838 21.8708C98.0372 21.8708 98.2906 21.8576 98.5313 21.8314L95.9468 19.1465C95.706 19.1728 95.4526 19.1859 95.2119 19.1991ZM94.3758 19.1859L96.9223 21.8314C97.1503 21.8576 97.3658 21.8708 97.6064 21.8708L95.0345 19.1991H94.8572C94.6925 19.1991 94.5405 19.1991 94.3758 19.1859ZM119.436 15.8694L122.591 19.1465V21.9629H111.049L107.894 18.6859V-0.00273259H110.745L113.9 3.27435V15.8694H119.436ZM113.545 3.43228L110.846 0.628995V0.826409L113.545 3.62969V3.43228ZM113.545 4.19562V3.82711L110.846 1.02382V1.39233L113.545 4.19562ZM113.545 4.97211V4.37987L110.846 1.57658V2.16883L113.545 4.97211ZM113.545 6.06447V5.16953L110.846 2.36624V3.26119L113.545 6.06447ZM113.545 7.55166V6.24873L110.846 3.44545V4.74838L113.545 7.55166ZM113.545 9.60478V7.73592L110.846 4.93263V6.80149L113.545 9.60478ZM110.846 15.8694H113.545V9.78903L110.846 6.98574V15.8694ZM122.236 21.5945V19.3044L119.538 16.5011V18.7911L122.236 21.5945ZM108.502 18.7911L111.201 21.5945H112.379L109.668 18.7911H108.502ZM109.845 18.7911L112.557 21.5945H113.621L110.91 18.7911H109.845ZM111.087 18.7911L113.798 21.5945H114.748L112.037 18.7911H111.087ZM112.214 18.7911L114.926 21.5945H115.762L113.063 18.7911H112.214ZM113.241 18.7911L115.952 21.5945H116.7L114.001 18.7911H113.241ZM114.178 18.7911L116.877 21.5945H117.548L114.837 18.7911H114.178ZM115.015 18.7911L117.726 21.5945H118.321L115.61 18.7911H115.015ZM115.787 18.7911L118.498 21.5945H119.019L116.307 18.7911H115.787ZM116.484 18.7911L119.195 21.5945H119.652L116.953 18.7911H116.484ZM117.13 18.7911L119.829 21.5945H120.234L117.524 18.7911H117.13ZM117.7 18.7911L120.412 21.5945H120.754L118.055 18.7911H117.7ZM118.233 18.7911L120.931 21.5945H121.235L118.524 18.7911H118.233ZM118.714 18.7911L121.412 21.5945H121.666L118.967 18.7911H118.714ZM119.145 18.7911L121.844 21.5945H122.059L119.36 18.7911H119.145ZM136.198 12.974C137.174 13.9874 137.591 15.106 137.591 16.6459C137.591 19.9493 135.083 22.2393 131.447 22.2393C128.812 22.2919 126.847 21.4892 125.619 20.5152L122.502 17.2776V14.1716L122.807 14.04C124.174 15.3693 126.075 16.1195 128.051 16.1195C129.698 16.1195 131.028 15.5009 131.548 14.5664C129.572 13.5663 127.253 13.0135 125.949 11.2894L124.035 8.76247C123.124 7.55166 122.679 6.66988 122.679 5.22218C122.679 1.98457 125.163 -0.23963 128.786 -0.23963C130.624 -0.279113 132.486 0.234166 133.829 1.14227L136.958 4.39303V7.34109L136.68 7.48585C135.248 6.39349 133.614 5.77493 132.093 5.77493C130.345 5.77493 129.04 6.49879 128.698 7.63063C130.472 8.28869 132.371 8.94673 133.575 10.2233L136.198 12.974ZM133.905 1.74768V4.16929H133.892L136.604 6.98574V4.55096L133.905 1.74768ZM129.331 2.6163C129.229 2.60314 129.129 2.60314 129.04 2.60314C128.85 2.60314 128.659 2.6163 128.47 2.62946L131.206 5.47223C131.46 5.43275 131.738 5.40643 132.017 5.40643L129.331 2.6163ZM132.917 5.45907L130.294 2.73475C130.041 2.68211 129.774 2.64263 129.509 2.6163L132.195 5.40643C132.436 5.40643 132.676 5.43275 132.917 5.45907ZM131.054 5.49855L128.305 2.64263C127.975 2.69527 127.671 2.76107 127.38 2.8532L130.155 5.73545C130.433 5.63017 130.737 5.5512 131.054 5.49855ZM133.766 5.63017L131.232 2.99796C131.004 2.91901 130.763 2.84004 130.522 2.78739L133.132 5.49855C133.334 5.52488 133.551 5.57752 133.766 5.63017ZM130.028 5.7881L127.253 2.90584C126.886 3.03746 126.582 3.22171 126.328 3.44545L129.129 6.35402C129.381 6.13028 129.685 5.94602 130.028 5.7881ZM134.577 5.89338L132.182 3.40596C131.967 3.30067 131.738 3.19538 131.51 3.10326L134.007 5.69597C134.196 5.74862 134.386 5.81442 134.577 5.89338ZM128.355 7.49902C128.483 7.09103 128.711 6.73569 129.027 6.43299L126.227 3.52441C125.873 3.86659 125.645 4.28774 125.58 4.74838L128.153 7.42006L128.355 7.49902ZM135.337 6.2224L133.208 4.01137C132.993 3.86659 132.777 3.72182 132.549 3.60338L134.868 6.01183C135.02 6.07764 135.185 6.14344 135.337 6.2224ZM133.664 4.30091L135.704 6.41982C135.831 6.48563 135.97 6.56459 136.109 6.65672L133.779 4.2351L133.664 4.30091ZM125.569 5.02476C125.569 6.13028 126.544 6.74884 127.862 7.30161L125.569 4.91947V5.02476ZM126.506 11.3815C126.962 11.8948 127.595 12.3027 128.318 12.6713L125.404 9.64426C125.252 9.55214 125.1 9.46 124.96 9.36788C125.417 10.0259 125.923 10.7235 126.506 11.3815ZM126.671 10.276C126.367 10.1444 126.062 9.99961 125.784 9.85483L128.659 12.8423C128.938 12.974 129.229 13.1056 129.533 13.2372L126.671 10.276ZM126.962 10.3944L129.838 13.3689C130.066 13.4742 130.294 13.5663 130.522 13.6716L127.621 10.6577C127.405 10.5787 127.19 10.4866 126.962 10.3944ZM127.899 10.7629L130.839 13.8162C131.028 13.8953 131.219 13.9874 131.409 14.0795L128.407 10.9472C128.242 10.8945 128.064 10.8287 127.899 10.7629ZM131.713 14.198C131.726 14.1321 131.751 14.0663 131.764 14.0006L129.09 11.2104C128.964 11.1578 128.824 11.1051 128.698 11.0656L131.713 14.198ZM129.394 11.3289L131.789 13.8162C131.802 13.7637 131.802 13.6978 131.802 13.6452V13.632L129.724 11.4736L129.394 11.3289ZM131.789 13.4346L131.751 13.2372L130.332 11.7632C130.243 11.7105 130.142 11.6711 130.041 11.6184L131.789 13.4346ZM135.944 13.2372L134.513 11.75C134.69 12.2501 134.792 12.8161 134.792 13.4742C134.792 13.8031 134.766 14.119 134.716 14.4349L137.224 17.0407C137.237 16.9091 137.237 16.7775 137.237 16.6459C137.237 15.1851 136.857 14.1848 135.944 13.2372ZM131.65 12.9346C131.472 12.5792 131.156 12.2765 130.75 12.0132L131.65 12.9346ZM137.211 17.2119L134.69 14.5928C134.564 15.1981 134.348 15.7641 134.044 16.2643L136.705 19.0281C136.971 18.4753 137.148 17.8699 137.211 17.2119ZM135.805 20.252C136.135 19.9229 136.413 19.5545 136.629 19.1465L133.968 16.3826C133.727 16.7775 133.436 17.1198 133.094 17.4356L135.805 20.252ZM132.043 18.1726L134.792 21.0417C135.133 20.8311 135.438 20.6074 135.717 20.3441L132.993 17.5145C132.701 17.7646 132.384 17.9883 132.043 18.1726ZM123.82 18.1199L125.847 20.2257C126.037 20.3704 126.227 20.5152 126.443 20.6469L124.15 18.2779L123.82 18.1199ZM130.978 18.6463L133.74 21.5154C134.07 21.3971 134.386 21.2654 134.677 21.0943L131.928 18.2384C131.637 18.3964 131.321 18.541 130.978 18.6463ZM124.467 18.4094L126.847 20.8837C126.988 20.9496 127.127 21.0285 127.279 21.0943L124.821 18.541L124.467 18.4094ZM125.087 18.6201L127.583 21.2259C127.735 21.2786 127.899 21.3444 128.064 21.3971L125.504 18.7384L125.087 18.6201ZM129.952 18.9096L132.701 21.7655C133.018 21.7129 133.322 21.647 133.601 21.5549L130.852 18.699C130.56 18.778 130.269 18.8569 129.952 18.9096ZM125.745 18.8043L128.318 21.476C128.495 21.5286 128.672 21.5813 128.862 21.6208L126.24 18.8964C126.075 18.8701 125.91 18.8307 125.745 18.8043ZM126.455 18.936L129.078 21.6602C129.281 21.6997 129.47 21.7391 129.674 21.7655L127.025 19.0017C126.823 18.9885 126.645 18.9622 126.455 18.936ZM132.536 21.7918L129.8 18.936C129.533 18.9885 129.255 19.0149 128.976 19.0412L131.7 21.8708C131.991 21.8576 132.271 21.8314 132.536 21.7918ZM127.228 19.0281L129.902 21.7918C130.13 21.8182 130.345 21.8444 130.572 21.8576L127.874 19.0543C127.659 19.0543 127.444 19.0412 127.228 19.0281ZM130.75 21.8576C130.978 21.8708 131.219 21.8708 131.447 21.8708H131.51L128.799 19.0412C128.659 19.0543 128.533 19.0543 128.394 19.0543H128.051L130.75 21.8576ZM151.832 15.9353L154.987 19.2123V21.9629H142.798L139.644 18.6859V-0.00273259H151.465L154.62 3.27435V5.86707H145.636L145.625 7.74908H150.021L153.175 11.0262V13.6716H145.625V15.9353H151.832ZM154.265 3.43228L151.566 0.628995V2.82687L154.265 5.49855V3.43228ZM145.536 5.49855L142.85 2.82687H142.659L145.345 5.49855H145.536ZM146.042 5.49855L143.343 2.82687H143.039L145.725 5.49855H146.042ZM146.675 5.49855L143.977 2.82687H143.534L146.232 5.49855H146.675ZM147.436 5.49855L144.75 2.82687H144.167L146.866 5.49855H147.436ZM148.45 5.49855L145.738 2.82687H144.94L147.626 5.49855H148.45ZM149.463 5.49855L146.751 2.82687H145.941L148.639 5.49855H149.463ZM150.515 5.49855L147.816 2.82687H146.955L149.654 5.49855H150.515ZM151.528 5.49855L148.855 2.82687H148.006L150.704 5.49855H151.528ZM152.416 5.49855L149.73 2.82687H149.032L151.731 5.49855H152.416ZM153.175 5.49855L150.489 2.82687H149.906L152.618 5.49855H153.175ZM153.683 5.49855L151.008 2.82687H150.667L153.378 5.49855H153.683ZM154.062 5.49855L151.389 2.82687H151.186L153.885 5.49855H154.062ZM142.571 6.66988L143.191 7.28845L143.091 7.38057L142.571 6.86729V7.74908H145.269V5.60384L142.571 2.93217V3.48493L144.915 5.81442L144.801 5.89338L142.571 3.68235V4.28774L144.484 6.18292L144.369 6.27506L142.571 4.472V5.0774L144.053 6.55143L143.939 6.64356L142.571 5.27482V5.88022L143.622 6.91994L143.521 7.01207L142.571 6.06447V6.66988ZM150.122 8.38081V10.6313H150.109L152.82 13.303V11.1841L150.122 8.38081ZM145.358 13.303H145.586L142.887 10.6313H142.659L145.358 13.303ZM143.078 10.6313L145.777 13.303H146.22L143.534 10.6313H143.078ZM143.724 10.6313L146.41 13.303H147.107L144.395 10.6313H143.724ZM144.598 10.6313L147.296 13.303H148.246L145.56 10.6313H144.598ZM149.463 13.303L146.79 10.6313H145.751L148.437 13.303H149.463ZM150.68 13.303L147.981 10.6313H146.968L149.665 13.303H150.68ZM151.553 13.303L148.88 10.6313H148.17L150.869 13.303H151.553ZM152.187 13.303L149.501 10.6313H149.058L151.756 13.303H152.187ZM149.678 10.6313L152.39 13.303H152.618L149.932 10.6313H149.678ZM142.571 15.3034L142.9 15.6325L142.798 15.7377L142.571 15.5141V15.9353H145.269V13.3951L142.571 10.7235V11.3025L144.915 13.6452L144.826 13.7373L142.571 11.5V12.1185L144.522 14.0532L144.421 14.1453L142.571 12.3027V12.9082L144.117 14.448L144.015 14.5402L142.571 13.1056V13.711L143.711 14.8429L143.61 14.935L142.571 13.9084V14.5138L143.306 15.2377L143.204 15.3298L142.571 14.6981V15.3034ZM151.934 16.567V18.7911L154.632 21.5945V19.3703L151.934 16.567ZM141.481 18.7911H140.253L142.95 21.5945H144.18L141.481 18.7911ZM142.761 18.7911H141.659L144.358 21.5945H145.473L142.761 18.7911ZM142.939 18.7911L145.649 21.5945H146.638L143.926 18.7911H142.939ZM144.104 18.7911L146.815 21.5945H147.689L144.991 18.7911H144.104ZM145.941 18.7911H145.168L147.867 21.5945H148.652L145.941 18.7911ZM149.513 21.5945L146.815 18.7911H146.118L148.83 21.5945H149.513ZM146.992 18.7911L149.691 21.5945H150.299L147.601 18.7911H146.992ZM147.778 18.7911L150.477 21.5945H151.021L148.311 18.7911H147.778ZM148.487 18.7911L151.199 21.5945H151.668L148.956 18.7911H148.487ZM149.134 18.7911L151.845 21.5945H152.251L149.539 18.7911H149.134ZM149.717 18.7911L152.427 21.5945H152.783L150.071 18.7911H149.717ZM150.249 18.7911L152.96 21.5945H153.264L150.552 18.7911H150.249ZM150.73 18.7911L153.442 21.5945H153.694L150.997 18.7911H150.73ZM151.173 18.7911L153.872 21.5945H154.1L151.389 18.7911H151.173ZM151.566 18.7911L154.278 21.5945H154.455L151.744 18.7911H151.566Z" fill="white"/>
</g>
<defs>
<clipPath id="clip0">
<rect width="18" height="22" fill="white"/>
</clipPath>
</defs>
</svg>
