<svg width="15" height="17" viewBox="0 0 15 17" fill="none" xmlns="http://www.w3.org/2000/svg">
<path fill-rule="evenodd" clip-rule="evenodd" d="M13.0804 0C14.0164 0 14.7784 0.756732 14.7784 1.69442V16.4507L12.9976 14.8879L11.9953 13.9666L10.9351 12.9878L11.3741 14.5095H1.98121C1.04524 14.5095 0.283203 13.7528 0.283203 12.8151V1.69442C0.283203 0.756732 1.04524 0 1.98121 0H13.0804V0ZM9.88317 10.7423C11.7137 10.6847 12.4178 9.49205 12.4178 9.49205C12.4178 6.84349 11.225 4.69668 11.225 4.69668C10.0323 3.80834 8.8975 3.83301 8.8975 3.83301L8.78153 3.96462C10.1896 4.39234 10.844 5.00924 10.844 5.00924C9.98256 4.54039 9.1377 4.31008 8.35082 4.2196C7.75444 4.1538 7.18292 4.17025 6.67766 4.23606L6.53685 4.25251C6.24694 4.27718 5.54289 4.38411 4.65661 4.7707C4.35014 4.91053 4.16792 5.00924 4.16792 5.00924C4.16792 5.00924 4.8554 4.35944 6.34634 3.93172L6.26351 3.83301C6.26351 3.83301 5.12874 3.80834 3.93599 4.69668C3.93599 4.69668 2.74325 6.84349 2.74325 9.49205C2.74325 9.49205 3.43902 10.6847 5.26955 10.7423C5.26955 10.7423 5.57602 10.3722 5.82451 10.0596C4.77257 9.74704 4.37499 9.08901 4.37499 9.08901L4.60691 9.22884L4.64005 9.25352L4.67249 9.27203L4.68215 9.27614L4.71459 9.29465C4.92167 9.4098 5.12874 9.50028 5.31925 9.57431C5.65885 9.70591 6.06472 9.83752 6.53685 9.928C7.15807 10.0432 7.88697 10.0843 8.68214 9.93622C9.07144 9.87042 9.46902 9.75527 9.88317 9.58253C10.1731 9.4756 10.4961 9.31932 10.8357 9.09724C10.8357 9.09724 10.4216 9.77172 9.33649 10.0761C9.58498 10.3886 9.88317 10.7423 9.88317 10.7423ZM6.03159 6.90107C5.55946 6.90107 5.18672 7.31234 5.18672 7.81408C5.18672 8.31583 5.56774 8.7271 6.03159 8.7271C6.50372 8.7271 6.87645 8.31583 6.87645 7.81408C6.88473 7.31234 6.50372 6.90107 6.03159 6.90107ZM9.05487 6.90107C8.58274 6.90107 8.21001 7.31234 8.21001 7.81408C8.21001 8.31583 8.59103 8.7271 9.05487 8.7271C9.527 8.7271 9.89974 8.31583 9.89974 7.81408C9.89974 7.31234 9.527 6.90107 9.05487 6.90107Z" fill="white"/>
</svg>
