<svg width="17" height="17" viewBox="0 0 17 17" fill="none" xmlns="http://www.w3.org/2000/svg">
<path d="M8.21394 0C3.67848 0 0 3.70197 0 8.26793C0 11.921 2.35329 15.0201 5.61765 16.1135C6.02766 16.19 6.16046 15.9337 6.16046 15.716V14.1767C3.87561 14.677 3.39989 13.2011 3.39989 13.2011C3.02615 12.2455 2.48746 11.9913 2.48746 11.9913C1.74204 11.478 2.54427 11.489 2.54427 11.489C3.36909 11.5469 3.80306 12.3413 3.80306 12.3413C4.53547 13.6049 5.72443 13.2397 6.19331 13.0282C6.26655 12.4942 6.47943 12.1291 6.7149 11.923C4.89072 11.7129 2.97276 11.0039 2.97276 7.83662C2.97276 6.93335 3.29379 6.19613 3.8188 5.61737C3.73392 5.40861 3.45259 4.56734 3.89888 3.42912C3.89888 3.42912 4.58886 3.20727 6.1584 4.27659C6.81346 4.09332 7.51576 4.00168 8.21394 3.99823C8.91213 4.00168 9.6151 4.09332 10.2715 4.27659C11.8397 3.20727 12.5283 3.42912 12.5283 3.42912C12.9753 4.56803 12.694 5.40929 12.6091 5.61737C13.1361 6.19613 13.4544 6.93404 13.4544 7.83662C13.4544 11.0122 11.5331 11.7115 9.70409 11.9162C9.99842 12.1725 10.2674 12.6754 10.2674 13.4471V15.716C10.2674 15.9357 10.3989 16.1941 10.8157 16.1128C14.0773 15.018 16.4279 11.9196 16.4279 8.26793C16.4279 3.70197 12.7501 0 8.21394 0Z" fill="white"/>
</svg>
