<?xml version="1.0" standalone="no"?>
<!DOCTYPE svg PUBLIC "-//W3C//DTD SVG 20010904//EN"
 "http://www.w3.org/TR/2001/REC-SVG-20010904/DTD/svg10.dtd">
<svg xmlns:dc="http://purl.org/dc/elements/1.1/" xmlns:cc="http://creativecommons.org/ns#" xmlns:rdf="http://www.w3.org/1999/02/22-rdf-syntax-ns#" xmlns:svg="http://www.w3.org/2000/svg" xmlns="http://www.w3.org/2000/svg" version="1.1" id="svg7219" viewBox="0 0 708.66142 708.66142" height="200mm" width="200mm">
  <defs id="defs7221"/>
  <metadata id="metadata7224">
    <rdf:RDF>
      <cc:Work rdf:about="">
        <dc:format>image/svg+xml</dc:format>
        <dc:type rdf:resource="http://purl.org/dc/dcmitype/StillImage"/>
        <dc:title/>
      </cc:Work>
    </rdf:RDF>
  </metadata>
  <g transform="translate(0,-343.70079)" id="layer1">
    <path id="rect7767" d="M 354.32791,379.98463 A 307.32393,307.3232 0 0 0 47.007623,687.30978 307.32393,307.3232 0 0 0 166.64285,930.43607 l -119.635227,0 0,85.64223 237.338057,0 0,-118.77487 A 221.53916,221.53863 0 0 1 132.79247,687.30978 221.53916,221.53863 0 0 1 354.32791,465.76927 221.53916,221.53863 0 0 1 575.86894,687.30978 221.53916,221.53863 0 0 1 424.31572,897.21128 l 0,118.86702 237.33807,0 0,-85.64223 -119.95916,0 A 307.32393,307.3232 0 0 0 661.65379,687.30978 307.32393,307.3232 0 0 0 354.32791,379.98463 Z" style="opacity:1;fill:#000000;fill-opacity:1;stroke:#000000;stroke-width:0.10000001;stroke-linecap:square;stroke-linejoin:miter;stroke-miterlimit:4;stroke-dasharray:none;stroke-opacity:1"/>
  </g>
</svg>