<svg width="17" height="15" viewBox="0 0 17 15" fill="none" xmlns="http://www.w3.org/2000/svg">
<path fill-rule="evenodd" clip-rule="evenodd" d="M2.37581 3.63341C2.39634 3.42864 2.31899 3.22665 2.16841 3.08922L0.635136 1.21509V0.935364H5.39785L9.07907 9.12251L12.3154 0.935364H16.8556V1.21509L15.5441 2.49019C15.4312 2.57765 15.3751 2.72134 15.3983 2.86363V12.2329C15.3751 12.3745 15.4312 12.5181 15.5441 12.6056L16.8248 13.8807V14.1604H10.3823V13.8807L11.7096 12.5744C11.8396 12.4425 11.8396 12.4036 11.8396 12.2016V4.62878L8.15089 14.1299H7.65258L3.35737 4.62878V10.9966C3.32178 11.2639 3.4094 11.5339 3.59489 11.7269L5.32051 13.8495V14.1299H0.427734V13.8495L2.15335 11.7269C2.33816 11.5332 2.4203 11.2618 2.37581 10.9966V3.63341Z" fill="white"/>
</svg>
