<svg width="200" height="200" viewBox="0 0 200 200" fill="none" xmlns="http://www.w3.org/2000/svg">
<path fill-rule="evenodd" clip-rule="evenodd" d="M78.1818 200V199.545V189.956V162.122C49.6953 153.156 29.0909 127.104 29.0909 96.3636C29.0909 58.2058 60.838 27.2727 100 27.2727C139.162 27.2727 170.909 58.2058 170.909 96.3636C170.909 127.104 150.305 153.156 121.818 162.122V189.956V199.545V200H200V171.818H161.392C184.621 154.219 199.545 126.861 199.545 96.1364C199.545 43.0417 154.977 0 100 0C45.0226 0 0.454545 43.0417 0.454545 96.1364C0.454545 126.861 15.3787 154.219 38.6079 171.818H0V200H78.1818Z" fill="#333333"/>
</svg>
