<?xml version="1.0" encoding="UTF-8"?>
<svg width="25px" height="34px" viewBox="0 0 25 34" version="1.1" xmlns="http://www.w3.org/2000/svg" xmlns:xlink="http://www.w3.org/1999/xlink">
    <!-- Generator: Sketch 55.2 (78181) - https://sketchapp.com -->
    <title>recipe</title>
    <desc>Created with Sketch.</desc>
    <g id="recipe" stroke="none" stroke-width="1" fill="none" fill-rule="evenodd">
        <circle id="Ellipse_10" fill="#FA198B" fill-rule="nonzero" cx="10.207" cy="24.979" r="2.313"></circle>
        <polygon id="Path_33" fill="#724CF9" fill-rule="nonzero" points="25.07 13.809 22.541 13.809 22.541 11.709 18.189 11.709 18.189 29.548 6.663 29.548 6.663 11.487 2.311 11.487 2.311 13.808 0 13.808 0 18.16 2.311 18.16 2.311 33.903 22.541 33.903 22.541 18.161 25.07 18.161"></polygon>
        <rect id="Rectangle_33" fill="#FA198B" fill-rule="nonzero" transform="translate(14.810777, 20.739672) rotate(-45.002000) translate(-14.810777, -20.739672) " x="12.6342768" y="19.3356716" width="4.353" height="2.808"></rect>
        <path d="M10.907,15.559 L7.264,13.197 L9.579,9.616 C9.79675765,9.29762322 9.80887005,8.88150398 9.61,8.551 C8.50317706,6.62801165 8.68068487,4.22452414 10.058,2.485 L11.907,0.17 L15.307,2.887 L13.455,5.202 C13.1927907,5.5351115 13.162204,5.99510405 13.378,6.36 C14.4004975,8.1132597 14.3467124,10.2932961 13.239,11.994 L10.907,15.559 Z" id="Path_34" fill="#FFFFFF" fill-rule="nonzero"></path>
        <path d="M18.126,11.16 L15.026,8.104 L16.662,6.437 C16.120751,5.73082524 15.847233,4.85570931 15.89,3.967 C15.9763154,2.94574929 16.4834828,2.00640285 17.29,1.374 L19.003,-7.10542736e-15 L21.72,3.4 L20.562,4.342 C21.6273892,5.76603963 21.4895712,7.75546821 20.238,9.019 L18.126,11.16 Z" id="Path_35" fill="#FFFFFF" fill-rule="nonzero"></path>
    </g>
</svg>