<svg width="18" height="14" viewBox="0 0 18 14" fill="none" xmlns="http://www.w3.org/2000/svg">
<path d="M17.2834 2.17846C16.6789 2.44426 16.0294 2.62327 15.3476 2.70396C16.0437 2.29102 16.5783 1.63668 16.8295 0.856898C16.1786 1.23933 15.4571 1.51734 14.6891 1.66719C14.0751 1.01828 13.1983 0.612793 12.229 0.612793C10.053 0.612793 8.45405 2.62395 8.94552 4.71172C6.14525 4.57272 3.6619 3.2437 1.99926 1.22373C1.11626 2.7243 1.54133 4.68731 3.04175 5.68136C2.49004 5.66373 1.96983 5.51388 1.51601 5.26367C1.47904 6.81035 2.59819 8.25735 4.21908 8.57943C3.74472 8.70691 3.22519 8.73675 2.69676 8.63639C3.12525 9.9627 4.36967 10.9276 5.84544 10.9547C4.42853 12.0552 2.64337 12.5468 0.855469 12.338C2.34698 13.2852 4.11914 13.8379 6.02204 13.8379C12.2797 13.8379 15.8151 8.60249 15.6015 3.90686C16.26 3.4356 16.8316 2.84771 17.2834 2.17846Z" fill="white"/>
</svg>
