<svg width="224" height="160" viewBox="0 0 224 160" fill="none" xmlns="http://www.w3.org/2000/svg">
<rect width="224" height="160" rx="16" fill="white"/>
<path d="M95.7754 85.316V70.1758H98.6202V79.4577L103.297 73.6234H106.865L102.068 79.4577L106.889 85.316H103.321L98.6202 79.4577V85.316C98.6202 85.316 95.7754 85.316 95.7754 85.316Z" fill="#594F4F"/>
<path d="M116.822 79.4577C116.822 78.4692 116.484 77.6254 115.785 76.9263C115.086 76.2271 114.266 75.8655 113.278 75.8655C112.289 75.8655 111.469 76.2271 110.77 76.9263C110.071 77.6254 109.734 78.4692 109.734 79.4577C109.734 80.4703 110.071 81.3141 110.77 82.0373C111.469 82.7365 112.289 83.0981 113.278 83.0981C114.29 83.0981 115.11 82.7365 115.785 82.0373C116.484 81.3141 116.822 80.4703 116.822 79.4577ZM119.787 79.4577C119.787 81.2176 119.136 82.6882 117.858 83.8696C116.556 85.0509 115.038 85.6536 113.278 85.6536C111.542 85.6536 109.999 85.0509 108.697 83.8696C107.395 82.6641 106.744 81.1935 106.744 79.4577C106.744 77.7219 107.395 76.2512 108.673 75.0699C109.975 73.8645 111.494 73.2618 113.253 73.2618C115.013 73.2618 116.532 73.8645 117.834 75.0699C119.136 76.2754 119.787 77.7219 119.787 79.4577Z" fill="#594F4F"/>
<path d="M121.499 85.316V69.4526H124.344V85.316H121.499Z" fill="#594F4F"/>
<path d="M138.64 79.4577C138.64 79.8434 138.592 80.2774 138.472 80.7596H129.093C129.286 81.4587 129.72 82.0373 130.347 82.4954C130.974 82.9534 131.649 83.1704 132.372 83.1704C133.023 83.1704 133.674 83.0017 134.253 82.6882C134.855 82.3748 135.313 81.965 135.627 81.4587L137.555 83.1704C136.953 83.9419 136.205 84.5446 135.313 85.0027C134.397 85.4366 133.433 85.6536 132.372 85.6536C130.612 85.6536 129.093 85.0509 127.888 83.8696C126.658 82.6641 126.056 81.1935 126.056 79.4577C126.056 77.6978 126.682 76.2271 127.888 75.0699C129.142 73.8886 130.612 73.2859 132.372 73.2859C134.084 73.2859 135.579 73.8886 136.784 75.094C138.062 76.2995 138.64 77.7219 138.64 79.4577ZM129.166 78.3246H135.627C135.458 77.5772 135.072 76.9504 134.47 76.4682C133.867 75.9861 133.192 75.745 132.42 75.745C131.649 75.745 130.974 75.9861 130.347 76.4923C129.744 76.9504 129.334 77.5772 129.166 78.3246Z" fill="#594F4F"/>
<path d="M140.376 85.316V69.4526H143.221V79.4576L147.898 73.6234H151.466L146.668 79.4576L151.49 85.316H147.922L143.221 79.4576V85.316H140.376Z" fill="#594F4F"/>
<path d="M151.948 75.986V73.6234H153.033V70.8991H155.854V73.6475H157.831V76.0101H155.854V82.2543C155.854 82.4954 155.95 82.7123 156.143 82.8811C156.336 83.0498 156.577 83.1463 156.818 83.1463C157.156 83.1463 157.397 83.0981 157.566 82.9775L158.12 85.2437C157.541 85.533 156.842 85.6777 156.023 85.6777C155.131 85.6777 154.407 85.3884 153.853 84.8098C153.298 84.2312 153.009 83.4838 153.009 82.5677V75.986H151.948Z" fill="#594F4F"/>
<path d="M159.326 73.6234H162.171V85.316H159.326V73.6234ZM159.567 72.2492C159.229 71.9117 159.061 71.5259 159.061 71.0437C159.061 70.5857 159.229 70.1758 159.567 69.8383C159.904 69.5008 160.314 69.332 160.772 69.332C161.254 69.332 161.64 69.5008 161.978 69.8383C162.315 70.1758 162.484 70.5616 162.484 71.0437C162.484 71.5018 162.315 71.9117 161.978 72.2492C161.64 72.5867 161.254 72.7555 160.772 72.7555C160.29 72.7555 159.904 72.5867 159.567 72.2492Z" fill="#594F4F"/>
<path d="M184.374 79.4577C184.374 78.4692 184.037 77.6254 183.338 76.9263C182.639 76.2271 181.819 75.8655 180.83 75.8655C179.842 75.8655 179.022 76.2271 178.323 76.9263C177.624 77.6254 177.287 78.4692 177.287 79.4577C177.287 80.4703 177.624 81.3141 178.323 82.0373C179.022 82.7365 179.842 83.0981 180.83 83.0981C181.843 83.0981 182.663 82.7365 183.338 82.0373C184.037 81.3141 184.374 80.4703 184.374 79.4577ZM187.316 79.4577C187.316 81.2176 186.665 82.6882 185.387 83.8696C184.085 85.0509 182.566 85.6536 180.806 85.6536C179.071 85.6536 177.528 85.0509 176.226 83.8696C174.924 82.6641 174.273 81.1935 174.273 79.4577C174.273 77.7219 174.924 76.2512 176.202 75.0699C177.504 73.8645 179.022 73.2618 180.782 73.2618C182.542 73.2618 184.061 73.8645 185.363 75.0699C186.689 76.2754 187.316 77.7219 187.316 79.4577Z" fill="#594F4F"/>
<path d="M171.718 73.6234L168.945 79.6023H168.873L166.1 73.6234H163.183L168.897 85.4848L174.659 73.6234H171.718Z" fill="#594F4F"/>
<path d="M72.5844 79.7229L81.9867 89.1252C81.5045 90.186 80.95 91.2227 80.3232 92.2111L67.835 79.7229L80.4679 67.09C81.0706 68.0784 81.6251 69.1151 82.1073 70.2241L72.5844 79.7229Z" fill="#63E495"/>
<path d="M59.7598 100.119L62.5564 102.915C63.9306 102.795 65.3047 102.554 66.5825 102.216L59.7598 95.3935V100.119Z" fill="#5B4F4F"/>
<path d="M59.7598 73.5511L73.4052 59.9056C72.4409 59.2547 71.4524 58.6761 70.3676 58.1939L59.7598 68.8258V73.5511Z" fill="#497A81"/>
<path d="M59.7598 64.0764L66.9441 56.8679C65.6664 56.5063 64.3404 56.217 62.9903 56.0964L59.7598 59.327V64.0764Z" fill="#5B4F4F"/>
<path d="M59.7598 90.644L70.1024 100.987C71.1631 100.504 72.1998 99.9259 73.1642 99.3231L59.7598 85.9188V90.644Z" fill="#497A81"/>
<path d="M78.468 64.3657C77.7207 63.4978 76.9492 62.7022 76.1054 61.9548L59.7598 78.2764V81.1694L75.8643 97.2739C76.7322 96.5266 77.5037 95.731 78.2511 94.8872L63.0868 79.7229L78.468 64.3657Z" fill="#00B0A9"/>
<path d="M59.7583 56C58.6252 56.0241 57.5162 56.1688 56.4072 56.3616V102.674C57.4921 102.867 58.6252 102.988 59.7583 103.036V100.143V95.4176V90.6923V85.967V81.2417V78.3487V73.5511V68.8258V64.0764V59.327V56Z" fill="#DB5A3F"/>
<path d="M82.0593 79.7229L83.9156 81.5793C83.7951 82.9534 83.554 84.3276 83.2165 85.6054L77.334 79.7229L83.3129 73.744C83.6263 75.0699 83.8674 76.42 83.9639 77.8424L82.0593 79.7229Z" fill="#A7EAD3"/>
<path d="M40.0377 67.982V91.0298C38.0849 87.6305 37 83.7008 37 79.5059C37 75.311 38.0849 71.3813 40.0377 67.982Z" fill="#FFBC7C"/>
<path d="M46.7632 60.436V98.5517C45.5337 97.6838 44.4488 96.6954 43.4121 95.6105V63.3773C44.4488 62.3165 45.5578 61.3039 46.7632 60.436Z" fill="#FAA050"/>
<path d="M53.2486 57.1331V101.855C52.0913 101.469 50.9582 101.011 49.8975 100.48V58.5314C51.0065 58.001 52.0913 57.5189 53.2486 57.1331Z" fill="#F37C56"/>
</svg>
