<svg width="297" height="138" viewBox="0 0 297 138" fill="none" xmlns="http://www.w3.org/2000/svg">
<path d="M142.071 92.6134H177.588V101.507H133.191V34.04H177.588V42.9334H142.071V92.6134ZM177.588 42.9334V92.6134H186.468V42.9334H177.588Z" fill="white"/>
<path d="M197.184 43.5467H206.063V60.72H232.701V69.6133H206.063V92.6133H197.184V43.5467V43.5467ZM232.701 34.6533V43.5467H206.063V34.6533H232.701ZM206.063 92.6133H232.701V101.507H206.063V92.6133ZM232.701 52.1333V43.24H241.581V52.1333H232.701ZM232.701 92.6133V69.6133H241.581V92.6133H232.701Z" fill="white"/>
<path d="M279.242 34.6533H288.121V79.12H297V88.0133H288.121V101.813H279.242V88.0133H252.604V70.2267H261.483V79.12H279.242V52.1333H270.362V43.24H279.242V34.6533V34.6533ZM270.362 69.92H261.483V52.1333H270.362V69.92Z" fill="white"/>
<path d="M19.5959 124.2L0 112.853V22.6934L26.6381 30.36L19.5959 124.2Z" fill="#7452FF"/>
<path d="M77.7718 90.16L85.7326 40.7867L34.5996 14.1067L38.8862 45.3867L58.1759 56.7334V79.12L63.0749 88.6267L77.7718 90.16Z" fill="#FF9CFF"/>
<path d="M19.5977 124.2L39.1935 112.853V22.6934L19.5977 29.44V124.2Z" fill="#4E2BE0"/>
<path d="M38.8856 22.6933L19.2897 34.04L0 22.6933L19.5959 11.3467L34.9052 12.2667L38.8856 22.6933Z" fill="#5D35FF"/>
<path d="M47.1544 107.947L38.8873 135.24L19.5977 123.893V101.507L47.1544 107.947Z" fill="#7AFFDE"/>
<path d="M77.7725 90.1599L65.525 106.107L38.8869 112.547L19.291 101.2L58.1766 79.1199L77.7725 90.1599Z" fill="#35FFCE"/>
<path d="M97.3686 101.507L39.1934 135.24V112.853L78.0789 90.4668L86.6521 73.6001L97.6748 79.1201L97.3686 101.507Z" fill="#00E3AB"/>
<path d="M97.0612 79.12L77.7715 90.4667V45.3867L82.3643 34.04H97.3674L97.0612 79.12Z" fill="#E048E0"/>
<path d="M97.3688 34.04L77.7729 45.3866L19.5977 11.6533L39.1935 0.306641L97.3688 34.04Z" fill="#FF70FF"/>
</svg>
