<svg width="252" height="95" viewBox="0 0 252 95" fill="none" xmlns="http://www.w3.org/2000/svg">
<path d="M99.5957 5.02247V10.0365L113.014 10.07C126.307 10.0951 126.432 10.0951 127.529 10.2709C129.655 10.6225 131.597 11.2419 132.911 11.9953C134.736 13.0332 136.653 14.6571 137.783 16.1136C139.248 17.9887 140.394 20.5166 140.93 23.0195C141.131 23.9653 141.148 24.2332 141.156 25.9073C141.156 27.5229 141.131 27.8577 140.964 28.6529C140.319 31.6664 138.519 35.0984 136.586 37.0069C135.054 38.5303 133.204 39.6604 130.693 40.6398C129.571 41.075 128.667 41.301 127.345 41.4852C126.441 41.6191 124.951 41.6359 112.972 41.661L99.5957 41.6945V46.5829V51.4631L100.165 51.5635C100.583 51.6388 104.049 51.6556 113.742 51.6305C125.336 51.597 126.893 51.5802 128.014 51.4547C131.923 51.0027 133.865 50.4837 136.653 49.136C139.859 47.5874 141.985 46.1058 144.17 43.9043C147.945 40.104 150.481 34.9895 151.301 29.5067C151.536 27.9414 151.511 23.5803 151.26 21.9731C150.573 17.6036 148.949 13.7782 146.246 10.1872C145.459 9.14922 142.721 6.37852 141.575 5.47449C140.009 4.23563 138.377 3.28137 136.176 2.31037C133.489 1.1301 131.187 0.519039 128.349 0.251179C126.482 0.0837631 121.05 5.72205e-05 110.461 5.72205e-05H99.5957V5.02247Z" fill="#E51B23"/>
<path d="M21.3051 64.086C21.2716 64.1195 21.2465 68.8154 21.2465 74.5242C21.2465 84.6528 21.2465 84.9123 21.0707 85.741C20.7442 87.3649 20.0578 88.7209 18.8943 90.0602C17.4629 91.7009 15.7051 92.8058 13.671 93.3416C12.8172 93.5676 10.8584 93.6513 9.86232 93.509C7.25067 93.1239 4.9571 91.7176 3.24111 89.4492C1.25725 86.8375 0.813607 82.9535 2.12781 79.8229C3.23274 77.2029 5.66024 74.9595 8.23004 74.1727C10.2306 73.5532 12.9762 73.6118 14.6587 74.2899C14.935 74.4071 15.1693 74.4908 15.1777 74.474C15.1945 74.4573 15.6297 73.4277 15.6967 73.2686C15.7469 73.1515 14.19 72.6408 13.2943 72.4818C12.3735 72.3144 9.99625 72.3479 9.15081 72.5237C6.82376 73.0343 4.9571 74.0555 3.24111 75.7547C1.38281 77.6047 0.369961 79.6973 0.0602453 82.2922C-0.0569443 83.3051 0.00165048 84.862 0.194176 85.8498C0.981021 89.9598 4.35441 93.5843 8.3556 94.6223C12.2731 95.6351 16.2157 94.5888 19.1789 91.7511C21.2883 89.7338 22.3263 87.5825 22.5858 84.6946C22.6527 83.9915 22.6695 80.5595 22.6527 73.8713L22.6276 64.0776L21.9998 64.0525C21.6483 64.0441 21.3385 64.0525 21.3051 64.086Z" fill="white"/>
<path d="M66.4899 64.1277C61.9613 64.4123 58.2782 67.0407 57.031 70.8577C56.5204 72.4398 56.5371 71.9292 56.512 83.7653L56.4785 94.5886H57.1984H57.9099V84.3764V74.1641H60.2956H62.6812V73.4526V72.7411H60.3793C57.7341 72.7411 57.9685 72.8499 58.2364 71.7952C59.1906 68.087 62.338 65.7349 66.6991 65.4837L67.6199 65.4335V64.7304C67.6199 64.3537 67.5948 64.044 67.5613 64.044C67.5195 64.0523 67.0423 64.0858 66.4899 64.1277Z" fill="white"/>
<path d="M69.2109 66.505V68.9744H69.9643H70.7177L70.7009 66.5218L70.6758 64.0775L69.9476 64.0524L69.2109 64.0273V66.505Z" fill="white"/>
<path d="M120.523 79.3121V94.5886H121.235H121.946V79.3121V64.0356H121.235H120.523V79.3121Z" fill="white"/>
<path d="M129.873 64.0942C129.84 64.1193 129.814 71 129.814 79.3707V94.5886H130.568H131.321V79.3121V64.0356H130.626C130.241 64.0356 129.898 64.0607 129.873 64.0942Z" fill="white"/>
<path d="M139.25 64.0943C139.217 64.1194 139.191 65.2327 139.191 66.5636V68.9744H139.945H140.698V66.505V64.0357H140.003C139.618 64.0357 139.275 64.0608 139.25 64.0943Z" fill="white"/>
<path d="M185.949 72.4147C184.133 72.6239 182.358 73.302 180.877 74.3399C179.998 74.9594 178.642 76.2987 178.031 77.1608C177.102 78.4583 176.449 79.9734 176.139 81.5303C176.013 82.1498 175.988 83.0454 175.963 88.4111L175.93 94.5886H176.683H177.445V88.612C177.445 82.2502 177.462 81.9907 177.872 80.6514C178.667 78.023 181.103 75.4281 183.748 74.3818C185.029 73.8712 185.548 73.7875 187.364 73.7958C188.913 73.7958 189.105 73.8126 189.875 74.0218C192.989 74.8589 195.76 77.4622 196.773 80.4924C197.267 81.9573 197.283 82.2419 197.283 88.704V94.5886H197.995H198.706V88.5366C198.706 81.9656 198.69 81.7145 198.229 80.2413C197.258 77.1608 194.663 74.365 191.65 73.1597C189.9 72.4565 187.85 72.1887 185.949 72.4147Z" fill="white"/>
<path d="M37.9304 72.4901C35.4443 72.8082 33.2596 73.9215 31.3678 75.8384C29.2082 78.0231 28.1953 80.5427 28.1953 83.7068C28.1953 85.0629 28.3209 85.9837 28.6641 87.0719C29.6769 90.3113 32.4895 93.2159 35.7122 94.3711C36.8422 94.7729 37.9053 94.9487 39.3283 94.957C40.7765 94.9654 41.4796 94.865 42.6766 94.4883C44.3591 93.9526 46.435 92.6802 47.5902 91.4748L47.8581 91.1986L47.3558 90.755L46.8619 90.3029L46.1672 90.9559C45.5059 91.5753 44.5182 92.2868 43.8066 92.6467C43.1705 92.9648 42.0321 93.3164 41.1783 93.4587C39.9478 93.668 38.0895 93.601 36.9678 93.308C33.1089 92.2952 30.1373 88.9385 29.61 84.9876C29.4342 83.6482 29.6016 81.8988 30.0369 80.6515C30.9911 77.8892 33.7283 75.1938 36.5241 74.2647C38.4076 73.6369 40.6174 73.6536 42.5678 74.3066C44.9116 75.085 47.0461 76.868 48.1678 78.969C48.4608 79.5215 48.8709 80.5092 48.8709 80.6683C48.8709 80.6767 45.5561 80.6934 41.5047 80.6934H34.1301L34.1552 81.3798L34.1804 82.0746L42.4087 82.0997C50.2186 82.1164 50.6371 82.108 50.6036 81.9741C50.5785 81.8904 50.5367 81.6728 50.5032 81.4886C50.4028 80.8524 49.9424 79.4796 49.5824 78.7514C49.0467 77.6716 48.5026 76.9098 47.6153 75.9807C45.9412 74.2312 44.0243 73.1347 41.7977 72.6492C40.9188 72.4566 38.8596 72.3729 37.9304 72.4901Z" fill="white"/>
<path d="M100.048 72.5402C97.7373 72.9252 95.6279 74.0804 93.9036 75.8968C91.7607 78.1569 90.7729 80.6263 90.7813 83.7067C90.7813 85.6905 91.1078 87.1638 91.903 88.7458C93.5101 91.9434 96.7831 94.3291 100.316 94.8816C101.412 95.0573 103.379 95.0155 104.359 94.7978C104.945 94.6639 106.351 94.2203 106.434 94.1366C106.476 94.0947 106.058 93.0986 105.949 92.973C105.924 92.9312 105.539 93.0149 105.112 93.1488C103.923 93.5255 103.354 93.6176 102.023 93.6176C100.776 93.6176 100.165 93.5339 99.1353 93.2325C96.6408 92.5043 94.364 90.5037 93.1 87.9423C92.8489 87.4316 92.5475 86.6364 92.422 86.176C92.2127 85.3976 92.1959 85.2218 92.1959 83.6648C92.1959 82.1246 92.2127 81.9237 92.4136 81.1871C92.8991 79.3958 93.6692 78.0648 94.9834 76.759C97.1012 74.658 99.6961 73.6284 102.517 73.7707C105.045 73.8962 107.104 74.7835 108.988 76.5749C110.561 78.0648 111.423 79.5883 111.867 81.614C111.993 82.1497 112.009 83.1124 112.043 88.411L112.076 94.5886H112.746H113.416L113.382 88.2854C113.357 82.2167 113.349 81.9656 113.173 81.2373C112.83 79.7641 112.394 78.701 111.7 77.6463C109.942 74.9509 107.121 73.0759 103.999 72.5318C103.078 72.3728 100.994 72.3811 100.048 72.5402Z" fill="white"/>
<path d="M156.272 72.5405C152.087 73.2436 148.421 76.6756 147.349 80.8861C146.688 83.4894 146.989 86.4024 148.144 88.721C149.425 91.2741 152.053 93.5509 154.757 94.455C155.996 94.8651 156.699 94.9656 158.315 94.9656C159.93 94.9656 160.617 94.8651 161.872 94.455C162.785 94.1536 162.76 94.1955 162.5 93.576C162.375 93.2831 162.249 93.0068 162.207 92.9734C162.174 92.9315 161.864 92.9901 161.529 93.1073C159.637 93.7602 157.587 93.8188 155.594 93.2914C153.828 92.8143 152.388 91.8935 150.99 90.3533C149.274 88.4616 148.395 86.2015 148.395 83.6735C148.395 80.9363 149.308 78.7013 151.2 76.7928C153.284 74.6918 155.862 73.6538 158.691 73.771C161.429 73.8882 163.647 74.9094 165.639 76.977C167.179 78.5758 167.983 80.2583 168.234 82.4095C168.284 82.8532 168.318 85.5067 168.318 88.8717V94.5889H168.987H169.657V88.6624C169.657 82.3844 169.632 81.8989 169.239 80.4675C168.786 78.8018 167.782 77.136 166.434 75.7967C164.643 74.0137 162.609 72.9339 160.29 72.5405C159.311 72.3731 157.26 72.3731 156.272 72.5405Z" fill="white"/>
<path d="M238.718 72.4568C236.266 72.7749 234.39 73.5784 232.599 75.1103C230.724 76.7091 229.418 78.8603 228.883 81.2544C228.665 82.1835 228.623 84.5189 228.799 85.5569C229.134 87.5826 229.887 89.2149 231.235 90.8304C232.967 92.9064 235.127 94.2373 237.655 94.7647C238.785 95.0074 240.836 95.0241 241.916 94.8149C244.017 94.3963 246.126 93.2914 247.784 91.7428L248.361 91.1987L247.851 90.7467L247.332 90.3031L246.679 90.9309C244.795 92.7306 242.619 93.5844 239.932 93.5844C237.245 93.5844 235.144 92.7473 233.168 90.9058C231.536 89.3823 230.456 87.365 230.138 85.2388C229.761 82.7611 230.264 80.5094 231.67 78.3916C232.164 77.6466 233.637 76.165 234.449 75.5958C236.885 73.8882 239.564 73.3943 242.451 74.1225C244.569 74.6583 246.955 76.324 248.127 78.0902C248.529 78.6929 249.215 80.0574 249.307 80.4591L249.366 80.6935H242.033H234.7V81.405V82.1165H242.903H251.115L251.065 81.7985C250.663 79.4379 249.541 77.3453 247.75 75.6293C246.101 74.0388 244.234 73.0343 242.15 72.6158C241.531 72.4902 239.279 72.3898 238.718 72.4568Z" fill="white"/>
<path d="M214.025 72.5738C211.363 72.9505 209.329 73.9885 207.395 75.989C205.269 78.1822 204.281 80.6432 204.281 83.7487C204.29 85.6823 204.574 86.9881 205.361 88.6037C206.29 90.5373 208.207 92.5546 210.124 93.6261C212.978 95.2249 216.67 95.4174 219.7 94.1367C220.998 93.5926 222.68 92.4626 223.525 91.5753L223.86 91.2237L223.358 90.7717L222.864 90.328L222.228 90.9307C221.031 92.0943 219.65 92.8811 218.068 93.308C217.306 93.5173 217.122 93.534 215.531 93.534C213.933 93.534 213.757 93.5173 212.978 93.308C211.966 93.0318 210.509 92.337 209.714 91.7343C207.881 90.3615 206.499 88.3526 205.93 86.2431C205.721 85.4814 205.704 85.2973 205.704 83.7487C205.704 82.1917 205.721 82.0159 205.93 81.2375C206.633 78.6426 208.601 76.2151 211.036 74.9511C212.501 74.1893 213.782 73.888 215.49 73.8964C217.959 73.9047 220.093 74.7586 222.211 76.5917L222.906 77.1944L223.4 76.7591L223.902 76.3239L223.735 76.0979C223.442 75.6793 222.454 74.8172 221.751 74.3568C220.571 73.5867 219.332 73.076 217.833 72.7412C216.963 72.5487 214.879 72.4566 214.025 72.5738Z" fill="white"/>
<path d="M69.2109 83.6649V94.5886H69.9643H70.7177V83.6649V72.7411H69.9643H69.2109V83.6649Z" fill="white"/>
<path d="M139.191 83.6649V94.5886H139.945H140.698V83.6649V72.7411H139.945H139.191V83.6649Z" fill="white"/>
</svg>
