<svg width="144" height="100" viewBox="0 0 144 100" fill="none" xmlns="http://www.w3.org/2000/svg">
<path d="M50.4638 0.171711C50.4298 0.34193 50.3957 9.19331 50.3617 19.9171C50.3276 42.4541 50.6681 40.5136 46.719 40.7178L44.3359 40.854L44.4381 41.9094L44.5402 42.9988H52.8809H61.2216V41.9775V40.9562L58.362 40.7859C56.081 40.6157 55.4342 40.4455 55.0597 39.9348C54.6512 39.3901 54.5831 36.7347 54.6512 23.9002C54.7193 15.4233 54.8555 8.37626 54.9916 8.27413C55.4682 7.76347 57.0683 8.03582 59.4173 8.98905C61.4259 9.77206 61.8344 9.87419 62.1068 9.43162C62.8217 8.27413 62.9579 8.41031 55.1619 2.9633C50.7021 -0.134682 50.5319 -0.236813 50.4638 0.171711Z" fill="white"/>
<path d="M89.7496 1.73773C88.3878 2.725 85.8346 4.49527 84.0643 5.72085C80.8982 7.86561 80.4556 8.41031 81.1365 9.46566C81.3748 9.87419 81.6812 9.84015 83.2472 9.19331C86.5835 7.83157 87.2304 7.72943 87.9793 8.4784C88.6261 9.12523 88.6602 9.60184 88.5581 24.4449C88.49 36.19 88.3538 39.8327 88.0134 40.1731C87.7751 40.4115 86.3452 40.6838 84.7792 40.7859L81.9876 40.9562V41.9775V42.9988H90.3283H98.6691L98.7712 41.9094L98.8733 40.854L96.4903 40.7178C92.5412 40.5136 92.8816 42.4881 92.8476 19.7809C92.8476 7.9337 92.7114 0.10363 92.5071 0.0695839C92.3369 0.0355415 91.1113 0.784504 89.7496 1.73773Z" fill="white"/>
<path d="M121.65 62.9144C121.65 63.8677 121.753 63.9358 122.842 63.9358H124.033L124.102 71.8339L124.204 79.7661H125.395H126.587L126.689 70.8126L126.757 61.8931H124.204H121.65V62.9144Z" fill="white"/>
<path d="M137.99 62.9144C137.99 63.8677 138.092 63.9358 139.182 63.9358H140.373L140.441 71.8339L140.544 79.7661H141.735H142.927L143.029 70.8126L143.097 61.8931H140.544H137.99V62.9144Z" fill="white"/>
<path d="M0.181369 71.6637L0.2835 79.7661H1.13459H1.98569L2.15591 73.5021L2.32613 67.272L5.39007 71.902C7.09226 74.4212 8.52209 76.532 8.62422 76.532C8.72636 76.532 10.1222 74.5574 11.6882 72.1403C13.2882 69.6891 14.684 67.7146 14.8202 67.7146C14.9564 67.6806 15.1266 70.4041 15.1606 73.7063L15.2628 79.7661H16.1139H16.9649L17.0671 71.6637L17.1352 63.5953H16.1819C15.3649 63.5953 14.9223 64.0379 12.7435 67.4082C11.3477 69.5189 9.8498 71.7658 9.40723 72.3786L8.59018 73.468L6.51351 70.336C1.88356 63.2208 2.15591 63.5953 1.10055 63.5953H0.113281L0.181369 71.6637Z" fill="white"/>
<path d="M29.5615 71.4594C27.4168 75.817 25.6465 79.4937 25.6465 79.6299C25.6465 79.8001 26.0891 79.9363 26.5997 79.9363C27.4168 79.9363 27.6891 79.6639 28.6423 77.7234L29.7317 75.5106H34.2936H38.8555L39.8087 77.4511C40.3534 78.5405 40.9321 79.5278 41.1364 79.6639C41.5449 79.9703 43.0088 80.0044 43.0088 79.732C43.0088 79.5958 41.2385 75.9191 39.0938 71.5615C35.5192 64.2761 35.1106 63.5953 34.3276 63.5953C33.5446 63.5953 33.1021 64.2761 29.5615 71.4594ZM36.0298 69.7231C36.8809 71.3913 37.5618 72.9233 37.5618 73.1275C37.5618 73.3318 36.2681 73.468 34.1915 73.468H30.7871L32.3871 70.0636C33.2723 68.1912 34.0893 66.6592 34.2255 66.6592C34.3617 66.6592 35.1787 68.021 36.0298 69.7231Z" fill="white"/>
<path d="M47.7754 63.8339C47.7754 64.1062 51.0776 70.9831 53.9033 76.7024C54.8565 78.6089 55.6735 79.8004 56.048 79.8685C56.5246 79.9706 57.0012 79.2217 58.2949 76.4641C59.2141 74.5236 60.9503 70.8809 62.2099 68.3617C63.4355 65.8424 64.4568 63.7317 64.4568 63.6977C64.4568 63.6296 63.9462 63.5956 63.3334 63.5956C62.3461 63.5956 62.1419 63.7658 61.5631 65.0254C59.929 68.7362 56.2182 76.1918 55.9799 76.1918C55.8438 76.1918 55.2991 75.2385 54.7544 74.047C54.2437 72.8895 52.882 70.0639 51.7585 67.7489C49.8521 63.9019 49.6478 63.5956 48.7286 63.5956C48.218 63.5956 47.7754 63.6977 47.7754 63.8339Z" fill="white"/>
<path d="M72.9668 63.7655C72.9668 63.8676 72.9668 67.3741 72.9668 71.5956C72.9668 75.817 72.9668 79.3916 72.9668 79.5958C72.9668 79.8001 75.4179 79.9363 79.6394 79.9363H86.2779L86.1758 78.9831L86.0737 78.0639L80.4905 77.8937L74.9073 77.7234V74.9999V72.2764L78.1074 72.1062C81.2394 71.936 81.3075 71.936 81.3075 71.0849C81.3075 70.2338 81.2394 70.2338 78.0734 70.0636L74.8732 69.8934L74.9073 67.8507C74.9413 66.7273 74.9754 65.706 74.9754 65.5358C75.0094 65.3996 77.3925 65.2975 80.2862 65.2975H85.563V64.4464V63.5953H79.2649C75.7924 63.5953 72.9668 63.6634 72.9668 63.7655Z" fill="white"/>
<path d="M95.4355 71.8V79.9705L96.3888 79.8683L97.308 79.7662L97.376 74.0468C97.4101 70.8808 97.4782 68.2254 97.5803 68.1573C97.6484 68.0892 100.031 70.7106 102.891 74.0128C105.751 77.281 108.27 79.9024 108.474 79.8343C108.781 79.7322 108.883 77.4853 108.883 71.7319V63.7656L107.964 63.6635L107.01 63.5614V69.3488C107.01 72.5489 106.874 75.1703 106.704 75.1703C106.568 75.1703 104.185 72.5489 101.427 69.3829C98.6697 66.1827 96.2186 63.5954 95.9462 63.5954C95.5036 63.5954 95.4355 64.855 95.4355 71.8Z" fill="white"/>
<path d="M23.8763 94.575C22.1741 95.9027 22.5826 98.8305 24.5912 99.6475C25.7147 100.124 26.8041 99.988 27.8254 99.205C28.8807 98.3879 28.0977 97.9113 27.0083 98.6943C25.1359 100.09 22.9912 98.3198 23.8082 96.0389C24.2508 94.7112 25.7487 94.2346 27.0424 94.9835C28.1999 95.6644 28.7105 95.1878 27.6211 94.4388C26.5658 93.6899 24.8976 93.758 23.8763 94.575Z" fill="white"/>
<path d="M41.5786 94.6775C40.7956 95.8691 39.2637 99.2734 39.2637 99.7501C39.2637 99.9884 39.6041 99.7841 39.9786 99.2394C40.5914 98.4564 40.9318 98.3202 42.3276 98.3202C43.6894 98.3202 44.0298 98.4564 44.2 99.0011C44.4043 99.682 45.0511 99.9543 45.0511 99.3756C45.0511 98.933 42.6681 94.269 42.3617 94.0647C42.1914 93.9626 41.851 94.235 41.5786 94.6775ZM42.8383 96.2776C43.1106 96.8223 43.3489 97.3329 43.3489 97.4691C43.3489 97.7074 41.4765 97.6734 41.2042 97.4351C40.9999 97.2308 41.851 95.2563 42.1574 95.2563C42.2255 95.2563 42.5319 95.6988 42.8383 96.2776Z" fill="white"/>
<path d="M56.5249 94.1328C56.1504 94.4732 56.2526 99.6819 56.593 99.6819C56.7973 99.6819 56.9675 99.1712 57.0356 98.5584C57.1377 97.5031 57.2058 97.469 58.9761 97.2988C60.2016 97.1626 60.9506 96.8903 61.257 96.4477C61.8698 95.5966 61.8698 95.3924 61.0527 94.5753C60.5421 94.0647 59.9293 93.8945 58.5675 93.8945C57.5462 93.8945 56.627 93.9966 56.5249 94.1328ZM60.1676 94.7796C60.474 94.8817 60.7123 95.2562 60.7123 95.5966C60.7123 96.3116 60.0655 96.6179 58.4654 96.6179C57.2398 96.6179 56.7292 96.0392 57.1037 95.086C57.3079 94.5753 59.1463 94.3711 60.1676 94.7796Z" fill="white"/>
<path d="M72.797 94.6774C72.4566 96.0051 72.763 99.4435 73.2396 99.6137C73.546 99.7158 73.6481 99.035 73.6481 96.9923C73.6481 94.3369 73.1715 93.0773 72.797 94.6774Z" fill="white"/>
<path d="M84.032 94.235C84.1341 94.4052 84.6788 94.5754 85.2235 94.5754H86.2108L86.3129 97.0266C86.4491 100.431 87.198 100.601 87.3342 97.2308L87.4364 94.7456L88.5598 94.6435C90.8067 94.4052 89.5471 93.8945 86.7214 93.8945C84.8831 93.8945 83.8958 94.0307 84.032 94.235Z" fill="white"/>
<path d="M100.098 96.4477C98.7022 99.3074 98.3958 100.805 99.5533 99.2393C100.472 98.0138 102.924 97.9116 103.741 99.0691C104.047 99.4776 104.353 99.7159 104.456 99.6138C104.728 99.3415 102.175 94.1328 101.732 93.9966C101.528 93.9285 100.813 95.052 100.098 96.4477ZM102.583 97.0265C102.583 97.435 102.345 97.6393 101.8 97.6393C100.643 97.6393 100.507 97.3329 101.119 96.1754C101.63 95.1881 101.664 95.1541 102.107 95.7669C102.379 96.1073 102.583 96.6861 102.583 97.0265Z" fill="white"/>
<path d="M115.861 96.7881C115.861 99.5116 115.895 99.6818 116.644 99.8861C117.87 100.158 120.049 99.9201 120.219 99.4094C120.321 99.1371 119.81 99.0009 118.449 99.0009H116.542V96.4476C116.542 94.9838 116.406 93.8944 116.202 93.8944C115.998 93.8944 115.861 95.0859 115.861 96.7881Z" fill="white"/>
</svg>
