<svg width="525" height="150" viewBox="0 0 525 150" fill="none" xmlns="http://www.w3.org/2000/svg">
<path fill-rule="evenodd" clip-rule="evenodd" d="M72.9614 147.077C113.257 147.077 145.923 114.374 145.923 74.0306C145.923 33.6875 113.257 0.983154 72.9614 0.983154C32.6657 0.983154 0 33.6875 0 74.0306C0 114.374 32.6657 147.077 72.9614 147.077ZM82.36 48.072L106.923 33.747V54.9869L106.923 63.5285C106.923 71.1746 102.864 78.2446 96.2646 82.093L73.848 95.1662V96.068V117.308L49.2849 102.983C42.6858 99.1348 38.627 92.0646 38.627 84.4188V75.5277L38.6265 54.6375L63.1898 68.9622C66.9412 71.1501 69.8712 74.3785 71.7018 78.1622L71.7021 75.5277V66.6364C71.7021 58.9904 75.7609 51.9204 82.36 48.072Z" fill="white"/>
<path d="M176.361 106.79V39.429H189.255L217.351 82.2513C218.89 84.8174 219.852 86.5816 220.238 87.544V39.429H232.553V106.79H219.66L191.565 63.679C190.025 61.1129 189.063 59.3487 188.678 58.3863V106.79H176.361ZM286.339 106.79H274.024C272.483 104.865 271.715 102.331 271.715 99.1876C268.378 105.154 263.056 108.137 255.743 108.137C250.996 108.137 247.115 106.79 244.099 104.096C241.15 101.337 239.673 97.7121 239.673 93.2213C239.673 88.6663 241.245 85.1061 244.389 82.54C247.595 79.9098 251.701 78.2095 256.704 77.4397L271.041 75.2266V73.3982C271.041 68.5866 268.122 66.1811 262.285 66.1811C259.591 66.1811 257.474 66.6942 255.935 67.7205C254.461 68.7469 253.721 70.03 253.721 71.5698C253.721 71.9548 253.787 72.3397 253.913 72.7245L243.041 76.3813C242.464 75.0982 242.175 73.7511 242.175 72.3397C242.175 68.4263 244.003 65.0261 247.66 62.1392C251.316 59.1884 256.192 57.7126 262.285 57.7126C269.086 57.7126 274.249 59.1561 277.777 62.0429C281.37 64.9297 283.165 69.2603 283.165 75.034V94.9537C283.165 99.765 284.221 103.711 286.339 106.79ZM258.629 98.3216C262.285 98.3216 265.268 97.1348 267.576 94.7611C269.885 92.3232 271.041 88.8911 271.041 84.4645V83.5984L259.494 85.5232C254.172 86.4213 251.508 88.7627 251.508 92.5479C251.508 94.4084 252.151 95.8519 253.433 96.8782C254.716 97.8405 256.449 98.3216 258.629 98.3216ZM303.363 70.8C303.363 73.7511 307.116 75.9963 314.622 77.5361C320.202 78.6908 324.243 80.455 326.743 82.8287C329.309 85.1382 330.593 88.2816 330.593 92.2592C330.593 96.8782 328.892 100.695 325.493 103.711C322.094 106.662 317.508 108.137 311.734 108.137C306.217 108.137 301.631 106.79 297.975 104.096C294.385 101.401 291.69 97.9687 289.892 93.7987L299.613 87.64C300.701 90.7837 302.273 93.2855 304.325 95.1461C306.443 97.0066 308.974 97.9369 311.928 97.9369C313.915 97.9369 315.647 97.4876 317.122 96.5895C318.661 95.6271 319.434 94.3121 319.434 92.644C319.434 91.1045 318.629 89.8855 317.026 88.9874C315.422 88.025 312.824 87.1913 309.234 86.4853C298.135 84.3042 292.587 79.3321 292.587 71.5698C292.587 67.2716 294.319 63.9034 297.784 61.4655C301.248 58.9637 305.447 57.7126 310.387 57.7126C315.453 57.7126 319.497 58.675 322.511 60.5995C325.59 62.5242 328.125 65.5713 330.114 69.7416L321.355 74.9379C319.175 69.3566 315.584 66.5658 310.581 66.5658C305.769 66.5658 303.363 67.9771 303.363 70.8ZM373.032 88.025L382.844 94.3763C378.226 103.55 370.783 108.137 360.52 108.137C353.339 108.137 347.34 105.827 342.528 101.209C337.782 96.5255 335.408 90.4308 335.408 82.925C335.408 75.4829 337.848 69.4205 342.722 64.7374C347.594 60.0542 353.53 57.7126 360.52 57.7126C365.78 57.7126 370.303 58.8674 374.088 61.1769C377.938 63.4224 380.695 66.5979 382.362 70.7037L372.453 77.2474C369.952 71.7945 365.942 69.0679 360.426 69.0679C356.77 69.0679 353.724 70.3508 351.284 72.9171C348.913 75.419 347.725 78.7548 347.725 82.925C347.725 87.159 348.913 90.5269 351.284 93.029C353.656 95.5311 356.704 96.7819 360.426 96.7819C363.505 96.7819 366.005 96.0763 367.929 94.665C369.918 93.1895 371.619 90.9761 373.032 88.025ZM434.785 85.8119H398.029C398.414 89.4684 399.79 92.3874 402.167 94.5687C404.539 96.6855 407.521 97.7442 411.114 97.7442C417.014 97.7442 421.409 94.8253 424.294 88.9874L433.341 94.1837C428.849 103.486 421.377 108.137 410.92 108.137C404.119 108.137 398.317 105.796 393.505 101.112C388.759 96.365 386.385 90.3024 386.385 82.925C386.385 75.4829 388.793 69.4205 393.602 64.7374C398.477 60.0542 404.442 57.7126 411.5 57.7126C418.298 57.7126 423.878 59.9582 428.241 64.4487C432.602 68.8753 434.785 74.585 434.785 81.5776V85.8119ZM411.114 66.9508C407.969 66.9508 405.212 67.9129 402.841 69.8376C400.532 71.6982 398.925 74.0716 398.029 76.9587H423.623C423.047 73.8153 421.666 71.3774 419.485 69.6453C417.302 67.849 414.514 66.9508 411.114 66.9508ZM487.531 74.2642V106.79H475.405V79.2682C475.405 72.4679 472.168 69.0679 465.69 69.0679C462.482 69.0679 459.819 70.3187 457.701 72.8208C455.649 75.3226 454.622 78.5624 454.622 82.54V106.79H442.501V59.06H454.622V66.7584C458.535 60.7279 463.923 57.7126 470.787 57.7126C475.856 57.7126 479.894 59.2203 482.911 62.2355C485.99 65.2508 487.531 69.2603 487.531 74.2642ZM491.604 68.8753V59.06H499.013V46.165H511.137V59.06H521.528V68.8753H511.137V90.6232C511.137 95.114 513.157 97.3592 517.199 97.3592C518.609 97.3592 519.956 97.1669 521.24 96.7819L522.393 106.79C519.956 107.688 517.261 108.137 514.31 108.137C504.113 108.137 499.013 103.069 499.013 92.9326V68.8753H491.604Z" fill="white"/>
</svg>
