<svg width="242" height="81" viewBox="0 0 242 81" fill="none" xmlns="http://www.w3.org/2000/svg">
<path d="M31.2598 29.8629L45.6935 5.47485L60.625 29.8629H31.2598Z" fill="#FFB9DE"/>
<path d="M59.1999 33.3L24.9132 79.7967L1.72656 80.29L28.6558 33.3H59.1999Z" fill="#00FFDF"/>
<path d="M62.6168 32.3516L29.7676 78.1413H88.498L62.6168 32.3516Z" fill="#FFBA45"/>
<path d="M37.173 14.6891C29.2118 28.4521 28.4711 29.7457 28.4668 29.8279C28.4668 29.8496 29.4544 29.8625 30.6672 29.8625L32.8632 29.8582L39.2737 18.7647C42.7952 12.6642 45.6886 7.67992 45.7059 7.6929C45.7189 7.70588 48.6036 12.6945 52.1207 18.7777L58.5183 29.8409L60.7316 29.8539L62.945 29.8625L62.893 29.7457C62.8324 29.6116 45.7579 0.0477448 45.7102 0.000152588C45.6929 -0.0214806 41.8509 6.58961 37.173 14.6891Z" fill="white"/>
<path d="M28.5008 30.6324C28.5008 30.6541 28.4662 30.706 28.4228 30.7536C28.3535 30.8271 0 79.8565 0 79.9041C0 79.9344 24.4726 79.9171 24.7108 79.8868L24.9274 79.8565L26.2961 77.9744L27.6648 76.0923L17.1828 76.0794C7.22916 76.0707 6.70505 76.0664 6.72671 75.9928C6.73537 75.9539 12.2146 66.4569 18.9024 54.8919L31.0564 33.8644L45.1682 33.8428C52.9258 33.8298 59.28 33.8212 59.2843 33.8212C59.2886 33.8212 59.0244 34.1933 58.6952 34.6432C46.6495 51.1969 25.863 79.8522 25.8803 79.8738C25.8976 79.8868 40.8714 79.9041 59.1544 79.9127C90.1154 79.9214 92.3981 79.9171 92.3721 79.8522C92.3461 79.7873 64.6163 31.7877 64.1095 30.9353L63.9103 30.5978H46.2077C36.4663 30.5978 28.5008 30.6151 28.5008 30.6324ZM73.8942 55.5625C80.3827 66.7814 85.6974 75.9885 85.706 76.0145C85.7233 76.0577 80.3524 76.0707 58.9291 76.0707C34.8074 76.0707 32.1306 76.062 32.1565 76.0058C32.1695 75.9669 38.8789 66.7079 47.0697 55.4284L61.9525 34.9201L62.0304 35.0413C62.0694 35.1062 67.4101 44.3435 73.8942 55.5625Z" fill="white"/>
<path d="M201.439 8.3142C200.739 8.6717 200.445 9.65011 200.804 10.4215C201.227 11.3153 202.581 11.4564 203.281 10.6661C203.465 10.4592 203.631 10.1864 203.667 10.0546C203.759 9.66892 203.649 8.97275 203.456 8.69992C203.051 8.13545 202.139 7.96611 201.439 8.3142Z" fill="white"/>
<path d="M192.594 36.7434C192.433 37.2218 188.509 59.1697 188.459 59.8753C188.36 61.3943 189.006 62.5665 190.136 62.8894C190.458 62.9851 191.551 63.033 193.19 63.033C195.748 63.033 195.761 63.033 195.811 62.7579C196.109 61.3465 196.022 61.2389 194.532 61.2389C193.402 61.2389 192.681 61.0953 192.507 60.8561C192.458 60.7724 192.408 60.4853 192.408 60.2222C192.408 59.9591 193.377 54.6246 194.569 48.3811C196.531 38.0471 196.705 36.9945 196.531 36.8032C196.369 36.6238 196.096 36.5998 194.494 36.5998C193.128 36.5998 192.632 36.6357 192.594 36.7434Z" fill="white"/>
<path d="M157.231 41.8036C156.064 42.042 155.573 42.6942 156.172 43.2085C156.878 43.8043 159.134 43.8984 160.3 43.3716C160.607 43.2336 160.883 43.0517 160.944 42.9639C161.098 42.7068 160.914 42.2427 160.591 42.0608C159.916 41.6845 158.397 41.5716 157.231 41.8036Z" fill="white"/>
<path d="M125.511 45.8312C124.624 46.0916 124.39 46.4878 120.138 54.6947C115.548 63.5808 115.746 63.0261 117.148 63.0261H117.942L118.912 61.1583L119.869 59.2906H123.187H126.504L126.563 59.5396C126.598 59.6868 126.75 60.5244 126.89 61.4074L127.158 63.0261H128.7C130.032 63.0261 130.254 63.0035 130.429 62.8224C130.604 62.6186 130.534 62.1319 129.343 54.9551C127.988 46.8161 127.918 46.5104 127.217 46.0124C126.855 45.752 126.037 45.6728 125.511 45.8312ZM125.009 49.9177C125.009 49.997 125.278 51.661 125.593 53.6193C125.92 55.5777 126.177 57.2643 126.177 57.3775C126.177 57.5813 126.025 57.5926 123.491 57.5926C122.019 57.5926 120.804 57.5699 120.804 57.536C120.804 57.502 121.703 55.7474 122.79 53.6306C124.565 50.1894 125.009 49.4536 125.009 49.9177Z" fill="white"/>
<path d="M181.427 45.8312C180.54 46.0916 180.306 46.4878 176.054 54.6947C171.464 63.5808 171.662 63.0261 173.064 63.0261H173.858L174.828 61.1583L175.786 59.2906H179.103H182.42L182.479 59.5396C182.514 59.6868 182.666 60.5244 182.806 61.4074L183.074 63.0261H184.616C185.948 63.0261 186.17 63.0035 186.345 62.8224C186.52 62.6186 186.45 62.1319 185.259 54.9551C183.904 46.8161 183.834 46.5104 183.133 46.0124C182.771 45.752 181.953 45.6728 181.427 45.8312ZM180.925 49.9177C180.925 49.997 181.194 51.661 181.509 53.6193C181.836 55.5777 182.093 57.2643 182.093 57.3775C182.093 57.5813 181.941 57.5926 179.407 57.5926C177.935 57.5926 176.72 57.5699 176.72 57.536C176.72 57.502 177.619 55.7474 178.706 53.6306C180.481 50.1894 180.925 49.4536 180.925 49.9177Z" fill="white"/>
<path d="M108.623 45.8128C105.285 46.2575 102.457 48.2809 100.974 51.2716C100.232 52.7391 100 53.7397 100 55.374C100.012 58.7315 101.437 61.0773 104.265 62.3225C105.586 62.9117 106.618 63.0785 108.588 63.0229C110.999 62.9451 112.216 62.5448 113.792 61.2885C114.441 60.7883 114.453 60.4658 113.827 59.8766L113.375 59.4541L112.703 59.8988C110.941 61.0773 109.272 61.5109 107.452 61.2663C105.424 60.9884 104.23 59.8099 103.802 57.6642C103.442 55.8743 103.686 53.4506 104.404 51.7385C105.1 50.0598 106.502 48.5255 107.916 47.8807C108.646 47.5472 108.716 47.5361 110.304 47.5361H111.926L112.795 47.9474C113.271 48.1698 113.978 48.6367 114.372 48.9702C114.754 49.3149 115.113 49.5928 115.148 49.5928C115.183 49.5928 115.45 49.4372 115.739 49.237C116.504 48.7145 116.458 48.4699 115.461 47.5583C114.592 46.7801 113.607 46.2575 112.506 45.9796C111.636 45.7684 109.597 45.6794 108.623 45.8128Z" fill="white"/>
<path d="M207.791 12.4672C207.344 12.6825 207.169 12.8637 206.846 13.4641C206.485 14.1212 206.311 14.8689 205.067 21.2808C204.321 25.1777 203.699 28.497 203.699 28.6556C203.699 29.086 203.96 29.2107 204.769 29.1767L205.49 29.1427L206.635 23.116C207.256 19.7967 207.816 16.9873 207.866 16.8853C207.928 16.7041 207.965 16.7041 208.052 16.8513C208.102 16.942 209.072 19.7967 210.217 23.1839C211.348 26.5711 212.294 29.3579 212.319 29.3806C212.331 29.3919 212.518 29.4259 212.717 29.4712C213.09 29.5392 213.09 29.5279 217.605 23.2632C220.08 19.8194 222.256 16.874 222.418 16.738C222.704 16.4888 222.729 16.4888 222.729 16.6927C222.729 16.806 222.219 19.5702 221.585 22.8327C220.739 27.2508 220.478 28.8142 220.577 28.9501C220.689 29.12 220.963 29.1427 222.48 29.1427H224.271L225.664 21.9491C226.436 17.9955 227.07 14.4724 227.082 14.1325C227.082 13.2942 226.784 12.7844 226.087 12.4559C225.49 12.184 224.806 12.1387 224.048 12.3313C223.09 12.5692 222.443 13.3282 218.55 18.6752C215.702 22.5722 214.806 23.7164 214.744 23.5691C214.694 23.4558 213.998 21.3034 213.202 18.7772C212.406 16.2623 211.635 13.9626 211.473 13.668C210.739 12.3653 209.122 11.8328 207.791 12.4672Z" fill="white"/>
<path d="M104.301 12.2823C104.289 12.3411 104.241 12.6115 104.181 12.9054C104.109 13.3051 104.121 13.4933 104.253 13.6931L104.42 13.9636H108.052C112.174 13.9636 112.151 13.9636 111.744 14.7513C111.625 14.9982 109.14 18.2667 106.224 22.0055C101.349 28.2722 100.931 28.8365 101.027 29.1187L101.134 29.4244L107.61 29.4596L114.086 29.4832L114.17 28.813C114.301 27.7196 114.552 27.7901 110.179 27.7196C105.985 27.6608 105.89 27.6373 106.272 27.0494C106.392 26.873 108.566 24.0983 111.099 20.9003C113.632 17.7024 115.831 14.8571 115.986 14.5867C116.285 14.0459 116.356 13.3287 116.141 12.9172C116.058 12.7761 115.819 12.5527 115.615 12.4351C115.257 12.2117 114.97 12.2 109.773 12.2C106.762 12.2 104.301 12.2352 104.301 12.2823Z" fill="white"/>
<path d="M121.53 12.397C120.728 12.6559 120.123 13.1972 119.79 13.9268C119.493 14.5975 117.296 26.2942 117.283 27.2474C117.283 28.0711 117.567 28.6712 118.147 29.0948L118.58 29.4126L123.555 29.4479L128.518 29.4832L128.605 28.7653C128.667 28.2829 128.642 28.0005 128.543 27.8828C128.432 27.7534 127.753 27.7181 125.148 27.6828C121.975 27.6475 121.876 27.6357 121.617 27.3886C121.259 27.0591 121.271 26.8355 121.851 23.8231L122.321 21.4108L125.605 21.3755L128.889 21.3519L129.012 20.6812C129.111 20.1399 129.099 19.9516 128.95 19.7398C128.765 19.4692 128.753 19.4692 125.753 19.4692C122.987 19.4692 122.74 19.4574 122.74 19.2691C122.74 18.7749 123.506 14.9035 123.666 14.5504C123.765 14.3386 123.987 14.1151 124.172 14.0562C124.345 13.9856 125.987 13.9385 127.926 13.9385H131.37L131.457 13.2678C131.593 12.1617 131.926 12.2323 126.741 12.2087C122.592 12.1852 122.123 12.197 121.53 12.397Z" fill="white"/>
<path d="M135.763 12.397C134.96 12.6559 134.355 13.1972 134.022 13.9268C133.726 14.5975 131.528 26.2942 131.516 27.2474C131.516 28.0711 131.8 28.6712 132.38 29.0948L132.812 29.4126L137.788 29.4479L142.751 29.4832L142.837 28.7653C142.899 28.2829 142.874 28.0005 142.775 27.8828C142.664 27.7534 141.985 27.7181 139.38 27.6828C136.207 27.6475 136.108 27.6357 135.849 27.3886C135.491 27.0591 135.503 26.8355 136.084 23.8231L136.553 21.4108L139.837 21.3755L143.121 21.3519L143.245 20.6812C143.343 20.1399 143.331 19.9516 143.183 19.7398C142.998 19.4692 142.985 19.4692 139.985 19.4692C137.22 19.4692 136.973 19.4574 136.973 19.2691C136.973 18.7749 137.738 14.9035 137.899 14.5504C137.997 14.3386 138.22 14.1151 138.405 14.0562C138.578 13.9856 140.22 13.9385 142.158 13.9385H145.603L145.689 13.2678C145.825 12.1617 146.158 12.2323 140.973 12.2087C136.825 12.1852 136.355 12.197 135.763 12.397Z" fill="white"/>
<path d="M159.964 24.1368C158.192 34.0403 157.852 36.0975 157.973 36.3008C158.107 36.5161 158.277 36.5401 159.927 36.5759L161.736 36.5999L162.318 33.2867C162.646 31.4568 162.949 29.9258 162.986 29.8779C163.034 29.8421 164.515 29.7823 166.287 29.7464C169.94 29.6866 170.717 29.555 172.562 28.7058C176.081 27.0791 178.023 24.2564 178.266 20.3931C178.484 16.8288 176.737 14.0181 173.593 12.834C172.101 12.2838 171.3 12.212 166.53 12.2001H162.1L159.964 24.1368ZM171.567 14.3291C172.72 14.8553 173.557 15.9557 173.945 17.4628C174.212 18.4914 174.14 21.1227 173.836 22.2829C173.12 24.9023 171.324 26.9356 169.091 27.6533C168.411 27.8686 167.913 27.9164 165.753 27.9642L163.216 28.0121L163.289 27.737C163.326 27.5815 163.884 24.4837 164.527 20.8716C165.17 17.2475 165.717 14.2214 165.753 14.1377C165.789 14.0061 166.323 13.9822 168.375 14.0181C170.765 14.054 171.008 14.0779 171.567 14.3291Z" fill="white"/>
<path d="M180.809 20.4572C179.981 25.0028 179.301 28.8202 179.301 28.9494C179.301 29.431 179.511 29.4779 181.403 29.4779H183.195L183.925 25.5079C184.333 23.3349 184.691 21.4439 184.741 21.3264C184.802 21.162 185.433 22.2073 187.139 25.2965L189.463 29.4779H191.491C194.335 29.4779 194.298 29.7951 191.85 25.4844C190.786 23.6051 189.933 22.0429 189.946 22.0311C189.97 22.0077 190.44 21.9019 190.984 21.7962C193.049 21.4086 194.656 20.2928 195.262 18.8128C195.645 17.9084 195.67 16.0878 195.324 15.1834C194.829 13.9383 193.852 13.0339 192.468 12.5406C191.751 12.2822 191.541 12.2704 187.028 12.2352L182.33 12.2L180.809 20.4572ZM190.49 14.2555C191.602 14.7018 192.097 15.571 192.097 17.0275C192.085 18.1668 191.813 18.8598 191.108 19.4823C190.304 20.1753 189.674 20.3163 187.201 20.3163C185.359 20.3163 185.112 20.3398 185 20.5159C184.926 20.6334 184.864 20.6686 184.864 20.6099C184.864 20.4572 185.977 14.3142 186.051 14.1028C186.138 13.8561 189.81 13.9853 190.49 14.2555Z" fill="white"/>
<path d="M199.647 12.4586C199.609 12.6115 198.886 16.3738 198.022 20.8298C196.796 27.214 196.5 29.0011 196.603 29.2127C196.732 29.4832 196.784 29.4832 198.68 29.4832C199.738 29.4832 200.615 29.4596 200.615 29.4244C200.615 29.3891 201.337 25.5915 202.227 20.9944C203.724 13.1876 203.827 12.6115 203.62 12.4116C203.44 12.2235 203.182 12.2 201.569 12.2C199.75 12.2 199.712 12.2 199.647 12.4586Z" fill="white"/>
<path d="M232.041 12.397C231.296 12.6559 230.734 13.1972 230.425 13.9268C230.15 14.5975 228.109 26.2942 228.098 27.2474C228.098 28.0711 228.361 28.6712 228.9 29.0948L229.301 29.4126L233.922 29.4479L238.53 29.4832L238.611 28.7653C238.668 28.2829 238.645 28.0005 238.553 27.8828C238.45 27.7534 237.82 27.7181 235.401 27.6828C232.454 27.6475 232.362 27.6357 232.122 27.3886C231.789 27.0591 231.801 26.8355 232.34 23.8231L232.775 21.4108L235.825 21.3755L238.874 21.3519L238.989 20.6812C239.081 20.1399 239.069 19.9516 238.932 19.7398C238.76 19.4692 238.748 19.4692 235.962 19.4692C233.394 19.4692 233.165 19.4574 233.165 19.2691C233.165 18.7749 233.876 14.9035 234.025 14.5504C234.116 14.3386 234.323 14.1151 234.495 14.0562C234.655 13.9856 236.18 13.9385 237.98 13.9385H241.179L241.259 13.2678C241.385 12.1617 241.695 12.2323 236.879 12.2087C233.027 12.1852 232.592 12.197 232.041 12.397Z" fill="white"/>
<path d="M132.511 57.6864C130.739 67.5898 130.399 69.6471 130.52 69.8504C130.654 70.0657 130.824 70.0896 132.474 70.1255L134.283 70.1494L134.865 66.8363C135.193 65.0063 135.496 63.4754 135.533 63.4275C135.581 63.3916 137.062 63.3318 138.834 63.2959C142.487 63.2361 143.264 63.1046 145.109 62.2554C148.628 60.6287 150.57 57.806 150.813 53.9427C151.031 50.3784 149.284 47.5676 146.14 46.3835C144.647 45.8333 143.846 45.7616 139.077 45.7496H134.647L132.511 57.6864ZM144.113 47.8786C145.266 48.4049 146.104 49.5053 146.492 51.0123C146.759 52.0409 146.686 54.6723 146.383 55.8325C145.667 58.4519 143.871 60.4852 141.637 61.2028C140.958 61.4181 140.46 61.466 138.3 61.5138L135.763 61.5616L135.836 61.2865C135.872 61.1311 136.431 58.0332 137.074 54.4211C137.717 50.797 138.263 47.771 138.3 47.6872C138.336 47.5557 138.87 47.5318 140.921 47.5676C143.312 47.6035 143.555 47.6274 144.113 47.8786Z" fill="white"/>
<path d="M154.913 46.0084C154.874 46.1613 154.152 49.9236 153.288 54.3796C152.062 60.7638 151.765 62.5509 151.869 62.7625C151.998 63.033 152.049 63.033 153.945 63.033C155.003 63.033 155.88 63.0094 155.88 62.9742C155.88 62.9389 156.603 59.1413 157.493 54.5442C158.989 46.7374 159.092 46.1613 158.886 45.9614C158.705 45.7733 158.447 45.7498 156.835 45.7498C155.016 45.7498 154.977 45.7498 154.913 46.0084Z" fill="white"/>
<path d="M162.068 46.4199C161.929 47.4546 161.916 47.4546 164.276 47.4898C166.283 47.5134 166.309 47.5251 166.309 47.7838C166.309 47.9249 165.677 51.3227 164.92 55.3319C163.633 62.0924 163.557 62.6215 163.746 62.8213C163.923 63.0094 164.176 63.033 165.753 63.033C167.356 63.033 167.558 63.0094 167.621 62.8213C167.659 62.7155 168.315 59.2589 169.085 55.1556C169.868 51.0523 170.537 47.6544 170.587 47.6074C170.625 47.5604 171.66 47.5016 172.872 47.4898L175.08 47.4546L175.181 46.8314C175.27 46.3024 175.257 46.1613 175.068 45.9732C174.866 45.7615 174.613 45.7498 168.505 45.7498H162.156L162.068 46.4199Z" fill="white"/>
</svg>
