<svg width="20" height="20" viewBox="0 0 20 20" fill="none" xmlns="http://www.w3.org/2000/svg">
<path d="M3.52539 14.9292C3.11865 15.3359 3.11035 16.0581 3.53369 16.4814C3.96533 16.9048 4.6875 16.8965 5.08594 16.498L10 11.584L14.9058 16.4897C15.3208 16.9048 16.0347 16.9048 16.458 16.4814C16.8813 16.0498 16.8813 15.3442 16.4663 14.9292L11.5605 10.0234L16.4663 5.10938C16.8813 4.69434 16.8896 3.98047 16.458 3.55713C16.0347 3.13379 15.3208 3.13379 14.9058 3.54883L10 8.45459L5.08594 3.54883C4.6875 3.14209 3.95703 3.12549 3.53369 3.55713C3.11035 3.98047 3.11865 4.71094 3.52539 5.10938L8.43115 10.0234L3.52539 14.9292Z" fill="white"/>
</svg>
