<svg width="224" height="160" viewBox="0 0 224 160" fill="none" xmlns="http://www.w3.org/2000/svg">
<rect width="224" height="160" rx="16" fill="white"/>
<path fill-rule="evenodd" clip-rule="evenodd" d="M175.144 90.1551H178.979V82.9318C178.979 77.5558 176.413 76.2324 173.398 76.2324C171.863 76.2324 170.435 76.7287 169.298 78.2725L169.165 76.5356H165.727V90.1551H169.483V83.1248C169.483 81.3327 170.673 79.789 172.445 79.789C174.244 79.789 175.143 80.8364 175.143 82.9594V90.1551H175.144ZM157.262 76.5632H153.717V90.1551H157.527V83.0696C157.527 81.0295 158.929 79.9268 160.569 79.9268C161.335 79.9268 162.05 80.1474 162.658 80.6161L164.245 77.4733C163.346 76.6461 162.288 76.2324 161.045 76.2324C159.563 76.2324 158.426 76.7563 157.553 78.0521L157.262 76.5632ZM144.089 87.0672C141.761 87.0672 140.809 85.2202 140.809 83.3728C140.809 81.6636 141.841 79.7886 144.089 79.7886C146.39 79.7886 147.396 81.6636 147.396 83.3728C147.396 85.3027 146.417 87.0672 144.089 87.0672ZM144.089 90.5961C148.533 90.5961 151.257 87.7289 151.257 83.3728C151.257 79.265 148.454 76.2324 144.089 76.2324C139.751 76.2324 136.947 79.265 136.947 83.3728C136.947 87.7289 139.645 90.5961 144.089 90.5961ZM136.128 88.4186L133.72 85.8269C133.086 86.4883 131.922 86.8468 131.075 86.8468C129.303 86.8468 127.716 85.6059 127.716 83.4281C127.716 81.1397 129.25 79.8715 131.154 79.8715C131.974 79.8715 132.795 80.0369 133.614 80.671L135.731 78.162C134.382 76.6455 132.9 76.2321 130.996 76.2321C127.187 76.2321 123.88 78.8513 123.88 83.4277C123.88 88.335 127.214 90.5958 131.022 90.5958C132.715 90.5961 134.54 90.1551 136.128 88.4186ZM115.125 86.9294C113.352 86.9294 111.606 85.7441 111.606 83.3728C111.606 80.7815 113.405 79.8715 115.125 79.8715C117.162 79.8715 118.325 81.4156 118.325 83.3728C118.326 85.4405 117.109 86.9294 115.125 86.9294ZM107.718 96.1654H111.554V88.832C112.692 90.1554 114.278 90.5688 115.654 90.5688C119.489 90.5688 122.161 87.8394 122.161 83.3731C122.161 79.1552 119.542 76.2603 115.707 76.2603C114.04 76.2603 112.559 76.6738 111.369 78.3004L111.131 76.5636H107.718V96.1654ZM98.0897 87.0672C95.7619 87.0672 94.8096 85.2202 94.8096 83.3728C94.8096 81.6636 95.8411 79.7886 98.0897 79.7886C100.391 79.7886 101.396 81.6636 101.396 83.3728C101.396 85.3027 100.418 87.0672 98.0897 87.0672ZM98.0897 90.5961C102.534 90.5961 105.258 87.7289 105.258 83.3728C105.258 79.265 102.454 76.2324 98.0897 76.2324C93.7518 76.2324 90.9478 79.265 90.9478 83.3728C90.9478 87.7289 93.6458 90.5961 98.0897 90.5961ZM78.1188 80.7539V74.9366H82.7214C84.7053 74.9366 85.6838 76.3153 85.6838 77.8591C85.6838 79.4028 84.7053 80.7539 82.7214 80.7539H78.1188ZM78.1188 84.6962H82.7214C87.4298 84.6137 89.8106 81.6639 89.8106 77.7765C89.8106 74.0269 87.4828 70.8564 82.7214 70.8564H73.9923V90.1551H78.1188V84.6962Z" fill="#1E154A"/>
<path fill-rule="evenodd" clip-rule="evenodd" d="M41.3479 78.4708C41.6382 79.3059 42.2006 80.1068 42.6324 80.86C45.8781 86.5216 52.6373 89.5252 58.9674 84.6423C69.2007 76.7506 67.6176 68.9282 54.9693 67.4263C42.3217 65.9245 37.2084 70.9626 41.3479 78.4708Z" fill="#4FC4FA"/>
<path fill-rule="evenodd" clip-rule="evenodd" d="M37.6702 85.2408C39.1114 98.4225 46.4296 99.926 54.1882 89.4075C60.073 81.4293 58.3533 68.6972 46.0413 71.6253C41.0838 72.8043 36.7651 76.9583 37.6702 85.2408Z" fill="#FFB224"/>
<path fill-rule="evenodd" clip-rule="evenodd" d="M55.9632 86.3814C56.8523 84.4338 57.3543 82.3738 57.4351 80.4199C56.2867 81.768 55.3596 82.5828 53.6258 83.9176C51.8916 85.2526 50.9026 85.9829 49.7267 86.7285C51.6821 87.2857 53.8113 87.2371 55.9632 86.3814Z" fill="#4F8923"/>
<path fill-rule="evenodd" clip-rule="evenodd" d="M36.1114 78.9542C41.1877 91.1217 43.1795 91.8883 53.6261 83.9177C64.0728 75.9468 59.6515 70.8994 48.6313 65.9049C36.9577 60.6142 31.0352 66.7863 36.1114 78.9542Z" fill="#FA2DC7"/>
<path fill-rule="evenodd" clip-rule="evenodd" d="M57.4351 80.4205C62.0416 74.9873 58.7656 70.9924 51.2628 67.1672C43.0543 67.0314 39.0971 70.2661 40.0916 75.205L40.0912 75.2057L40.1046 75.2699L40.1002 75.2466C41.0506 79.8696 45.2425 85.4586 49.7244 86.7284C50.2836 86.8742 56.7303 81.7639 57.4351 80.4205Z" fill="#4D22C3"/>
<path fill-rule="evenodd" clip-rule="evenodd" d="M40.0913 75.2061C38.6634 76.9319 37.7107 79.2669 37.568 82.2959C41.0407 89.8104 43.4066 90.8992 49.727 86.7288L49.7242 86.7282C45.2291 85.4543 41.0251 79.8367 40.0913 75.2061Z" fill="#FA1F1C"/>
<path fill-rule="evenodd" clip-rule="evenodd" d="M49.7272 86.7286C49.7761 86.7413 49.8693 86.714 49.9999 86.6527C51.3665 86.012 56.7931 81.6456 57.4356 80.4194C57.9147 72.5663 52.1451 69.7533 45.83 71.5248C43.5907 72.1529 41.6515 73.3199 40.0914 75.2048C41.0252 79.8362 45.2322 85.4551 49.7272 86.7286Z" fill="#1E154A"/>
<path fill-rule="evenodd" clip-rule="evenodd" d="M52.1374 82.5846C52.1559 82.6665 52.1623 82.7524 52.1706 82.8356C52.3006 84.1554 52.5752 85.6582 50.6012 86.5849C49.7511 86.984 48.5781 86.6401 47.3003 85.827C45.3851 84.6081 43.2904 82.349 42.0066 80.1967C37.449 72.5567 48.0885 68.9702 51.8381 73.0969C53.3813 74.7951 53.6432 77.6697 52.1166 79.7151C51.5063 80.5319 51.8908 81.4902 52.1374 82.5846Z" fill="white"/>
</svg>
