<svg width="224" height="160" viewBox="0 0 224 160" fill="none" xmlns="http://www.w3.org/2000/svg">
<rect width="224" height="160" rx="16" fill="white"/>
<path fill-rule="evenodd" clip-rule="evenodd" d="M183.812 90.1555H187.81V82.9322C187.81 77.5562 185.135 76.2328 181.993 76.2328C180.393 76.2328 178.905 76.7291 177.719 78.2729L177.581 76.536H173.997V90.1555H177.912V83.1252C177.912 81.3331 179.153 79.7893 181 79.7893C182.875 79.7893 183.812 80.8368 183.812 82.9598V90.1555H183.812ZM165.175 76.5636H161.48V90.1555H165.451V83.07C165.451 81.0299 166.912 79.9271 168.621 79.9271C169.42 79.9271 170.165 80.1478 170.799 80.6165L172.453 77.4737C171.516 76.6465 170.413 76.2328 169.117 76.2328C167.573 76.2328 166.388 76.7567 165.478 78.0525L165.175 76.5636ZM151.445 87.0676C149.019 87.0676 148.027 85.2205 148.027 83.3732C148.027 81.664 149.102 79.789 151.445 79.789C153.844 79.789 154.892 81.664 154.892 83.3732C154.892 85.3031 153.871 87.0676 151.445 87.0676ZM151.445 90.5965C156.077 90.5965 158.916 87.7293 158.916 83.3732C158.916 79.2654 155.994 76.2328 151.445 76.2328C146.924 76.2328 144.002 79.2654 144.002 83.3732C144.002 87.7293 146.814 90.5965 151.445 90.5965ZM143.147 88.419L140.638 85.8273C139.977 86.4887 138.764 86.8472 137.882 86.8472C136.034 86.8472 134.38 85.6063 134.38 83.4284C134.38 81.1401 135.979 79.8719 137.964 79.8719C138.819 79.8719 139.674 80.0373 140.528 80.6714L142.734 78.1623C141.328 76.6459 139.784 76.2325 137.799 76.2325C133.829 76.2325 130.383 78.8517 130.383 83.4281C130.383 88.3354 133.857 90.5962 137.826 90.5962C139.59 90.5965 141.493 90.1555 143.147 88.419ZM121.257 86.9298C119.41 86.9298 117.59 85.7445 117.59 83.3732C117.59 80.7819 119.465 79.8719 121.257 79.8719C123.38 79.8719 124.593 81.416 124.593 83.3732C124.593 85.4409 123.325 86.9298 121.257 86.9298ZM113.538 96.1658H117.536V88.8324C118.721 90.1558 120.375 90.5692 121.809 90.5692C125.806 90.5692 128.591 87.8398 128.591 83.3735C128.591 79.1556 125.862 76.2607 121.864 76.2607C120.127 76.2607 118.583 76.6741 117.342 78.3008L117.094 76.564H113.538V96.1658ZM103.502 87.0676C101.076 87.0676 100.084 85.2205 100.084 83.3732C100.084 81.664 101.159 79.789 103.502 79.789C105.901 79.789 106.949 81.664 106.949 83.3732C106.949 85.3031 105.929 87.0676 103.502 87.0676ZM103.502 90.5965C108.134 90.5965 110.974 87.7293 110.974 83.3732C110.974 79.2654 108.051 76.2328 103.502 76.2328C98.9811 76.2328 96.0587 79.2654 96.0587 83.3732C96.0587 87.7293 98.8706 90.5965 103.502 90.5965ZM82.6875 80.7543V74.937H87.4847C89.5524 74.937 90.5722 76.3157 90.5722 77.8595C90.5722 79.4032 89.5524 80.7543 87.4847 80.7543H82.6875ZM82.6875 84.6966H87.4847C92.3919 84.6141 94.8734 81.6643 94.8734 77.7769C94.8734 74.0273 92.4472 70.8568 87.4847 70.8568H78.3867V90.1555H82.6875V84.6966Z" fill="#1E154A"/>
<path fill-rule="evenodd" clip-rule="evenodd" d="M44.3629 78.4712C44.6655 79.3064 45.2516 80.1072 45.7016 80.8605C49.0844 86.522 56.1293 89.5257 62.7269 84.6427C73.3925 76.7511 71.7426 68.9286 58.5598 67.4268C45.3778 65.9249 40.0484 70.963 44.3629 78.4712Z" fill="#4FC4FA"/>
<path fill-rule="evenodd" clip-rule="evenodd" d="M40.5292 85.2408C42.0314 98.4226 49.6588 99.9261 57.7451 89.4075C63.8787 81.4293 62.0862 68.6973 49.254 71.6254C44.0871 72.8044 39.5859 76.9584 40.5292 85.2408Z" fill="#FFB224"/>
<path fill-rule="evenodd" clip-rule="evenodd" d="M59.5957 86.3815C60.5224 84.434 61.0456 82.3739 61.1298 80.4201C59.9329 81.7681 58.9666 82.583 57.1595 83.9177C55.3521 85.2528 54.3213 85.9831 53.0957 86.7287C55.1338 87.2859 57.3529 87.2373 59.5957 86.3815Z" fill="#4F8923"/>
<path fill-rule="evenodd" clip-rule="evenodd" d="M38.9048 78.9542C44.1956 91.1217 46.2716 91.8883 57.1596 83.9177C68.0476 75.9468 63.4396 70.8994 51.9538 65.9049C39.7869 60.6142 33.6141 66.7863 38.9048 78.9542Z" fill="#FA2DC7"/>
<path fill-rule="evenodd" clip-rule="evenodd" d="M61.1297 80.4201C65.9308 74.9869 62.5164 70.9919 54.6966 67.1668C46.1413 67.031 42.0168 70.2657 43.0534 75.2046L43.053 75.2052L43.067 75.2695L43.0623 75.2462C44.0529 79.8692 48.422 85.4582 53.0933 86.728C53.6761 86.8738 60.3951 81.7635 61.1297 80.4201Z" fill="#4D22C3"/>
<path fill-rule="evenodd" clip-rule="evenodd" d="M43.0527 75.2059C41.5645 76.9318 40.5716 79.2667 40.4229 82.2957C44.0423 89.8103 46.5081 90.899 53.0957 86.7287L53.0927 86.728C48.4077 85.4542 44.026 79.8366 43.0527 75.2059Z" fill="#FA1F1C"/>
<path fill-rule="evenodd" clip-rule="evenodd" d="M53.0956 86.7287C53.1466 86.7413 53.2438 86.714 53.3799 86.6528C54.8042 86.012 60.4601 81.6457 61.1298 80.4194C61.6291 72.5664 55.6157 69.7534 49.0338 71.5248C46.6998 72.1529 44.6787 73.3199 43.0527 75.2049C44.026 79.8362 48.4107 85.4552 53.0956 86.7287Z" fill="#1E154A"/>
<path fill-rule="evenodd" clip-rule="evenodd" d="M55.608 82.585C55.6273 82.6669 55.634 82.7528 55.6427 82.836C55.7781 84.1557 56.0644 85.6586 54.007 86.5853C53.1209 86.9843 51.8984 86.6405 50.5666 85.8273C48.5705 84.6084 46.3873 82.3493 45.0492 80.1971C40.299 72.5571 51.3881 68.9705 55.2961 73.0973C56.9045 74.7955 57.1775 77.6701 55.5864 79.7154C54.9503 80.5323 55.3511 81.4906 55.608 82.585Z" fill="white"/>
</svg>
